<svg width="1033" height="179" viewBox="0 0 1033 179" fill="none" xmlns="http://www.w3.org/2000/svg">
<g clip-path="url(#clip0_999_45753)">
<path d="M352.619 138.33H332.239V56.3298H302.189V39.3298H381.509V56.3298H352.579L352.619 138.33Z" fill="black"/>
<path d="M414.149 56.29H395.149V39.29H414.149V56.29ZM414.149 138.29H395.149V65H414.149V138.29Z" fill="black"/>
<path d="M434.529 39.3201H473.249C488.459 39.3201 497.829 42.7101 504.479 50.7201C512.351 61.8392 516.578 75.1268 516.578 88.7501C516.578 102.373 512.351 115.661 504.479 126.78C497.829 134.78 488.329 138.33 473.249 138.33H434.529V39.3201ZM473.249 121.32C488.599 121.32 496.189 110.59 496.189 88.8601C496.189 67.1301 488.589 56.2701 473.249 56.2701H454.999V121.32H473.249Z" fill="black"/>
<path d="M577.419 138.33H532.859V39.3298H576.999C603.079 39.3298 609.329 56.3298 609.329 65.3998C609.225 69.7334 607.893 73.9483 605.49 77.5556C603.086 81.1629 599.708 84.0147 595.749 85.7798C600.457 87.8455 604.491 91.189 607.395 95.431C610.299 99.673 611.957 104.644 612.179 109.78C612.179 121.62 605.259 138.33 577.419 138.33ZM553.229 78.7098H575.359C584.729 78.7098 589.749 74.7698 589.749 67.5698C589.749 60.1998 584.749 56.2998 575.359 56.2998H553.229V78.7098ZM553.229 121.32H577.549C587.459 121.32 592.629 116.84 592.629 108.55C592.629 100.26 587.459 95.6498 577.549 95.6498H553.229V121.32Z" fill="black"/>
<path d="M706.87 55.07C690.87 55.07 681.2 68.07 681.2 89.98C681.2 111.58 690.43 124.34 706.2 124.34C708.85 124.553 711.516 124.242 714.046 123.425C716.576 122.608 718.921 121.3 720.945 119.576C722.97 117.853 724.635 115.747 725.845 113.38C727.056 111.013 727.788 108.43 728 105.78C728 105.36 728.06 104.93 728.06 104.51H747.9C746.67 127.19 730.24 141.45 705.66 141.45C678.08 141.45 660.84 121.45 660.84 89.6999C660.84 57.6499 678.22 37.7 706.2 37.7C729.29 37.7 745.72 50.6099 747.49 72.8799H728.06C727.506 67.7517 724.992 63.0357 721.044 59.7169C717.095 56.3981 712.017 54.7332 706.87 55.07Z" fill="black"/>
<path d="M781.159 138.33H762.159V39.3298H781.159V138.33Z" fill="black"/>
<path d="M867.999 103.15C867.999 126.65 853.999 141.45 831.729 141.45C809.179 141.45 795.459 126.78 795.459 102.6C795.459 78.6 809.179 63.76 831.589 63.76C854.509 63.76 867.999 78.3 867.999 103.15ZM814.489 102.6C814.489 116.6 821.419 126.1 831.699 126.1C841.979 126.1 848.909 116.59 848.909 102.87C848.909 88.48 842.129 79.11 831.699 79.11C821.419 79.11 814.489 88.61 814.489 102.6Z" fill="black"/>
<path d="M928.819 138.33V129.64C926.579 133.429 923.345 136.533 919.467 138.615C915.589 140.697 911.215 141.677 906.819 141.45C903.445 141.749 900.046 141.29 896.871 140.107C893.697 138.924 890.827 137.047 888.471 134.612C886.115 132.178 884.333 129.248 883.255 126.036C882.177 122.825 881.83 119.413 882.239 116.05V65H901.239V112.13C901.239 120.95 905.339 125.31 913.459 125.31C915.294 125.489 917.147 125.304 918.911 124.765C920.674 124.226 922.314 123.344 923.736 122.169C925.157 120.995 926.333 119.551 927.195 117.921C928.057 116.291 928.589 114.506 928.759 112.67C928.811 112.085 928.827 111.497 928.809 110.91V65H947.809V138.34L928.819 138.33Z" fill="black"/>
<path d="M962.1 102.74C962.1 80.6201 975.42 63.7401 992.94 63.7401C996.971 63.5147 1000.99 64.3962 1004.55 66.2893C1008.12 68.1824 1011.1 71.0149 1013.17 74.4801V39.3201H1032.17V138.32H1013.17V130.85C1011.07 134.275 1008.07 137.068 1004.51 138.932C1000.95 140.797 996.953 141.663 992.94 141.44C974.46 141.45 962.1 124.2 962.1 102.74ZM981.1 102.74C981.1 116.19 987.66 125.56 997.1 125.56C1006.54 125.56 1013.1 116.33 1013.1 103.02C1013.1 89.0201 1006.72 79.6601 997.1 79.6601C987.48 79.6601 981.1 89.1601 981.1 102.74Z" fill="black"/>
<path d="M197.24 41.8099C188.72 26.9553 175.826 15.0895 160.317 7.82994C144.807 0.570381 127.436 -1.7297 110.572 1.24322C93.7076 4.21614 78.1703 12.3174 66.078 24.4427C53.9857 36.568 45.9268 52.1274 42.9998 68.9999C29.2604 72.2162 17.2595 80.5398 9.43295 92.2813C1.60641 104.023 -1.45931 118.302 0.858028 132.222C3.17537 146.141 10.7021 158.657 21.9106 167.229C33.1191 175.802 47.1694 179.788 61.2098 178.38H175C176.86 178.53 178.73 178.66 180.63 178.66C197.592 178.656 213.967 172.443 226.662 161.193C239.357 149.943 247.494 134.435 249.538 117.596C251.582 100.757 247.391 83.7527 237.756 69.7923C228.121 55.832 213.709 45.8817 197.24 41.8199V41.8099Z" fill="url(#paint0_linear_999_45753)"/>
<path d="M125 43.45L82 68.29V93.12L103.46 80.6999V130.7L125 143.08V68.2799L146.5 55.86L125 43.45Z" fill="white"/>
<path d="M146.58 80.8299V130.67L168.18 118.21V68.3499L146.58 80.8299Z" fill="white"/>
</g>
<defs>
<linearGradient id="paint0_linear_999_45753" x1="43.9302" y1="40.6479" x2="158.069" y2="203.598" gradientUnits="userSpaceOnUse">
<stop stop-color="#E30C34"/>
<stop offset="1" stop-color="#B7062C"/>
</linearGradient>
<clipPath id="clip0_999_45753">
<rect width="1032.18" height="178.66" fill="white"/>
</clipPath>
</defs>
</svg>
