<svg viewBox="0 0 330 60" xmlns="http://www.w3.org/2000/svg">
  <defs>
    <clipPath id="a">
      <path fill="#fff" d="M0 0h82.431v16H0z"></path>
    </clipPath>
    <clipPath id="clip-1">
      <path fill="#fff" d="M0 0h82.431v16H0z"></path>
    </clipPath>
    <linearGradient gradientUnits="userSpaceOnUse" x1="121.91" y1="59.2" x2="121.91" y2="78.526" id="gradient-0">
      <stop offset="0" style="stop-color: rgba(211, 206, 137, 1)"></stop>
      <stop offset="1" style="stop-color: rgba(179, 172, 67, 1)"></stop>
    </linearGradient>
  </defs>
  <g id="text" transform="matrix(1, 0, 0, 1, 67.089386, -32.604816)">
    <path d="M 162.31 44.18 C 162.369 45.072 161.997 45.938 161.31 46.51 C 160.433 47.119 159.374 47.408 158.31 47.33 L 157.13 47.33 L 157.13 51.26 L 156 51.26 L 156 41.26 L 158.59 41.26 C 161.07 41.267 162.31 42.24 162.31 44.18 Z M 157.13 46.33 L 158.18 46.33 C 158.957 46.395 159.735 46.221 160.41 45.83 C 160.895 45.447 161.155 44.846 161.1 44.23 C 161.145 43.662 160.901 43.109 160.45 42.76 C 159.852 42.389 159.152 42.217 158.45 42.27 L 157.15 42.27 L 157.13 46.33 Z"></path>
    <path d="M 170.56 47.51 C 170.621 48.546 170.289 49.568 169.63 50.37 C 168.971 51.066 168.036 51.433 167.08 51.37 C 166.455 51.38 165.839 51.217 165.3 50.9 C 164.774 50.575 164.357 50.102 164.1 49.54 C 163.798 48.896 163.651 48.191 163.67 47.48 C 163.61 46.445 163.938 45.425 164.59 44.62 C 165.248 43.929 166.177 43.563 167.13 43.62 C 168.071 43.565 168.987 43.932 169.63 44.62 C 170.297 45.429 170.63 46.463 170.56 47.51 Z M 164.85 47.51 C 164.798 48.282 164.998 49.051 165.42 49.7 C 166.325 50.699 167.895 50.699 168.8 49.7 C 169.23 49.054 169.434 48.284 169.38 47.51 C 169.435 46.742 169.231 45.978 168.8 45.34 C 167.883 44.359 166.327 44.359 165.41 45.34 C 164.995 45.984 164.799 46.745 164.85 47.51 Z"></path>
    <path d="M 178.52 51.26 L 177.15 46.87 C 177.06 46.6 176.9 45.99 176.66 45.03 C 176.48 45.83 176.32 46.45 176.18 46.88 L 174.76 51.26 L 173.4 51.26 L 171.4 43.77 L 172.59 43.77 L 173.69 48.07 C 173.872 48.728 174.019 49.396 174.13 50.07 C 174.18 49.81 174.26 49.47 174.37 49.07 C 174.48 48.67 174.58 48.33 174.66 48.07 L 176.04 43.77 L 177.27 43.77 L 178.61 48.07 C 178.83 48.724 179.004 49.392 179.13 50.07 L 179.18 50.07 C 179.217 49.814 179.267 49.561 179.33 49.31 C 179.41 48.96 179.88 47.13 180.75 43.79 L 181.93 43.79 L 179.86 51.28 L 178.52 51.26 Z"></path>
    <path d="M 186.32 51.4 C 185.344 51.453 184.392 51.089 183.7 50.4 C 183.01 49.631 182.651 48.622 182.7 47.59 C 182.64 46.554 182.956 45.532 183.59 44.71 C 184.183 43.997 185.073 43.598 186 43.63 C 186.845 43.588 187.665 43.93 188.23 44.56 C 188.801 45.241 189.094 46.112 189.05 47 L 189.05 47.72 L 183.89 47.72 C 183.858 48.447 184.097 49.159 184.56 49.72 C 185.024 50.199 185.674 50.451 186.34 50.41 C 187.163 50.406 187.977 50.232 188.73 49.9 L 188.73 50.9 C 188.364 51.065 187.982 51.193 187.59 51.28 C 187.171 51.36 186.746 51.4 186.32 51.4 Z M 186 44.58 C 185.457 44.558 184.931 44.773 184.56 45.17 C 184.174 45.628 183.952 46.202 183.93 46.8 L 187.85 46.8 C 187.89 46.211 187.72 45.626 187.37 45.15 C 187.025 44.76 186.52 44.55 186 44.58 Z"></path>
    <path d="M 194.29 43.63 C 194.589 43.627 194.888 43.657 195.18 43.72 L 195 44.77 C 194.731 44.706 194.456 44.672 194.18 44.67 C 193.58 44.669 193.011 44.936 192.63 45.4 C 192.193 45.912 191.962 46.567 191.98 47.24 L 191.98 51.24 L 190.85 51.24 L 190.85 43.77 L 191.79 43.77 L 191.91 45.16 L 192 45.16 C 192.237 44.7 192.58 44.302 193 44 C 193.383 43.749 193.833 43.621 194.29 43.63 Z"></path>
    <path d="M 199.61 51.4 C 198.634 51.453 197.682 51.089 196.99 50.4 C 196.3 49.631 195.941 48.622 195.99 47.59 C 195.93 46.554 196.246 45.532 196.88 44.71 C 197.471 44.006 198.352 43.612 199.27 43.64 C 200.115 43.598 200.935 43.94 201.5 44.57 C 202.071 45.251 202.364 46.122 202.32 47.01 L 202.32 47.73 L 197.2 47.73 C 197.168 48.457 197.407 49.169 197.87 49.73 C 198.334 50.209 198.984 50.461 199.65 50.42 C 200.46 50.407 201.26 50.23 202 49.9 L 202 50.9 C 201.634 51.065 201.252 51.193 200.86 51.28 C 200.448 51.359 200.029 51.399 199.61 51.4 Z M 199.3 44.58 C 198.757 44.558 198.231 44.773 197.86 45.17 C 197.474 45.628 197.252 46.202 197.23 46.8 L 201.15 46.8 C 201.19 46.211 201.02 45.626 200.67 45.15 C 200.325 44.76 199.82 44.55 199.3 44.58 Z"></path>
    <path d="M 209.26 50.26 L 209.2 50.26 C 208.665 51.025 207.771 51.457 206.84 51.4 C 205.965 51.446 205.119 51.075 204.56 50.4 C 203.964 49.574 203.674 48.566 203.74 47.55 C 203.674 46.524 203.964 45.507 204.56 44.67 C 205.117 43.992 205.964 43.621 206.84 43.67 C 207.757 43.621 208.638 44.039 209.18 44.78 L 209.27 44.78 L 209.22 44.24 L 209.22 43.71 L 209.22 40.71 L 210.35 40.71 L 210.35 51.26 L 209.43 51.26 L 209.26 50.26 Z M 206.99 50.45 C 207.617 50.506 208.235 50.274 208.67 49.82 C 209.062 49.23 209.248 48.527 209.2 47.82 L 209.2 47.58 C 209.268 46.783 209.082 45.985 208.67 45.3 C 208.246 44.812 207.613 44.559 206.97 44.62 C 206.361 44.592 205.783 44.889 205.45 45.4 C 205.057 46.06 204.872 46.823 204.92 47.59 C 204.867 48.35 205.049 49.107 205.44 49.76 C 205.812 50.236 206.397 50.495 207 50.45 L 206.99 50.45 Z"></path>
    <path d="M 219.58 43.65 C 220.459 43.602 221.308 43.973 221.87 44.65 C 222.465 45.48 222.755 46.491 222.69 47.51 C 222.754 48.532 222.465 49.546 221.87 50.38 C 221.308 51.057 220.459 51.428 219.58 51.38 C 219.119 51.385 218.663 51.293 218.24 51.11 C 217.84 50.925 217.495 50.639 217.24 50.28 L 217.16 50.28 L 216.92 51.28 L 216.1 51.28 L 216.1 40.63 L 217.24 40.63 L 217.24 43.21 C 217.24 43.79 217.22 44.31 217.18 44.77 L 217.24 44.77 C 217.775 44.019 218.659 43.596 219.58 43.65 Z M 219.42 44.65 C 218.787 44.59 218.163 44.835 217.74 45.31 C 217.342 45.989 217.163 46.775 217.23 47.56 C 217.162 48.349 217.344 49.14 217.75 49.82 C 218.171 50.305 218.8 50.558 219.44 50.5 C 220.057 50.538 220.65 50.25 221 49.74 C 221.379 49.075 221.556 48.314 221.51 47.55 C 221.564 46.785 221.386 46.022 221 45.36 C 220.637 44.854 220.042 44.568 219.42 44.6 L 219.42 44.65 Z"></path>
    <path d="M 223.34 43.77 L 224.56 43.77 L 226.2 48 C 226.468 48.688 226.692 49.393 226.87 50.11 L 226.93 50.11 C 226.93 49.88 227.11 49.48 227.3 48.92 C 227.49 48.36 228.11 46.63 229.15 43.73 L 230.37 43.73 L 227.15 52.26 C 226.929 52.961 226.534 53.594 226 54.1 C 225.557 54.458 225 54.646 224.43 54.63 C 224.093 54.628 223.758 54.588 223.43 54.51 L 223.43 53.6 C 223.707 53.654 223.988 53.681 224.27 53.68 C 225.082 53.7 225.8 53.157 226 52.37 L 226.41 51.3 L 223.34 43.77 Z"></path>
    <path class="cls-1" d="M 177.22 68.8 C 176.816 68.481 176.376 68.209 175.91 67.99 C 175.426 67.775 174.9 67.669 174.37 67.68 C 173.893 67.658 173.418 67.769 173 68 C 172.571 68.277 172.184 68.614 171.85 69 L 168.33 73 C 167.907 73.472 167.612 74.043 167.47 74.66 L 167.47 62.86 C 167.487 62.399 167.398 61.941 167.21 61.52 C 167.046 61.197 166.806 60.919 166.51 60.71 C 166.211 60.503 165.869 60.366 165.51 60.31 C 165.157 60.242 164.799 60.209 164.44 60.21 C 164.107 60.189 163.773 60.189 163.44 60.21 C 163.261 60.219 163.084 60.246 162.91 60.29 L 162.91 83.69 L 167.42 83.69 L 167.42 75.69 C 167.502 76.301 167.756 76.876 168.15 77.35 L 171.84 82.3 C 172.246 82.86 172.777 83.319 173.39 83.64 C 174.021 83.911 174.704 84.041 175.39 84.02 C 175.889 84.021 176.385 83.943 176.86 83.79 C 177.272 83.662 177.663 83.474 178.02 83.23 L 171.81 75 L 177.22 68.8 Z" style="fill: rgb(38, 38, 46);"></path>
    <path class="cls-1" d="M 191 69.72 C 190.423 69.048 189.702 68.515 188.89 68.16 C 187.893 67.745 186.819 67.548 185.74 67.58 C 184.791 67.577 183.848 67.733 182.95 68.04 C 182.043 68.351 181.212 68.848 180.51 69.5 C 179.745 70.197 179.138 71.049 178.73 72 C 178.273 73.144 178.052 74.368 178.08 75.6 C 178.037 77.045 178.285 78.483 178.81 79.83 C 179.233 80.855 179.886 81.769 180.72 82.5 C 181.5 83.163 182.419 83.642 183.41 83.9 C 184.412 84.163 185.444 84.297 186.48 84.3 C 187.494 84.318 188.505 84.187 189.48 83.91 C 190.196 83.73 190.874 83.422 191.48 83 C 191.96 82.722 192.272 82.224 192.31 81.67 C 192.274 81.218 192.126 80.781 191.88 80.4 C 191.637 79.953 191.359 79.525 191.05 79.12 L 190.38 79.7 C 190.115 79.924 189.827 80.118 189.52 80.28 C 189.161 80.471 188.782 80.622 188.39 80.73 C 187.914 80.858 187.423 80.918 186.93 80.91 C 185.749 81.016 184.586 80.569 183.78 79.7 C 183.103 78.841 182.708 77.793 182.65 76.7 L 192.41 76.7 C 192.436 76.551 192.453 76.401 192.46 76.25 L 192.46 75.67 C 192.46 75.47 192.46 75.28 192.46 75.11 L 192.46 74.64 C 192.466 73.743 192.342 72.851 192.09 71.99 C 191.889 71.166 191.518 70.392 191 69.72 Z M 182.65 74.18 C 182.592 73.234 182.872 72.299 183.44 71.54 C 183.991 70.906 184.801 70.56 185.64 70.6 C 186.501 70.509 187.343 70.891 187.84 71.6 C 188.282 72.389 188.497 73.286 188.46 74.19 L 182.65 74.18 Z" style="fill: rgb(38, 38, 46);"></path>
    <path class="cls-1" d="M 209.28 71 C 209.098 70.036 208.581 69.169 207.82 68.55 C 206.801 67.851 205.572 67.523 204.34 67.62 C 203.253 67.566 202.17 67.786 201.19 68.26 C 200.52 68.602 199.93 69.083 199.46 69.67 C 199.367 69.086 198.993 68.585 198.46 68.33 C 197.883 68.067 197.254 67.937 196.62 67.95 C 196.41 67.939 196.2 67.939 195.99 67.95 L 195.52 67.95 L 195.12 68.02 L 195.12 83.72 L 199.67 83.72 L 199.67 73 C 199.702 72.443 200.041 71.95 200.55 71.72 C 201.195 71.362 201.923 71.183 202.66 71.2 C 203.12 71.179 203.578 71.265 204 71.45 C 204.304 71.599 204.551 71.846 204.7 72.15 C 204.851 72.492 204.942 72.857 204.97 73.23 C 204.97 73.65 204.97 74.1 204.97 74.59 L 204.97 83.75 L 209.48 83.75 L 209.48 74.38 C 209.48 73.81 209.48 73.22 209.43 72.62 C 209.428 72.077 209.377 71.535 209.28 71 Z" style="fill: rgb(38, 38, 46);"></path>
    <path class="cls-1" d="M 222 79.59 C 221.898 79.699 221.788 79.799 221.67 79.89 C 221.492 80.038 221.297 80.166 221.09 80.27 C 220.86 80.39 220.6 80.5 220.33 80.61 C 220.046 80.703 219.749 80.75 219.45 80.75 C 218.19 80.75 217.56 79.98 217.56 78.43 L 217.56 71.33 L 222.2 71.33 L 222.2 67.94 L 217.56 67.94 L 217.56 65.62 C 217.579 65.155 217.486 64.692 217.29 64.27 C 217.126 63.947 216.886 63.669 216.59 63.46 C 216.29 63.255 215.949 63.118 215.59 63.06 C 215.24 62.997 214.886 62.964 214.53 62.96 L 214 63 L 213.5 63.05 L 213 63.12 L 213 78.5 C 212.999 78.988 213.022 79.475 213.07 79.96 C 213.108 80.435 213.209 80.902 213.37 81.35 C 213.679 82.202 214.249 82.933 215 83.44 C 215.967 84.029 217.09 84.308 218.22 84.24 C 218.893 84.25 219.565 84.177 220.22 84.02 C 220.752 83.901 221.267 83.713 221.75 83.46 C 222.128 83.271 222.467 83.013 222.75 82.7 C 222.968 82.47 223.093 82.167 223.1 81.85 C 223.088 81.502 222.999 81.16 222.84 80.85 C 222.585 80.414 222.304 79.993 222 79.59 Z" style="fill: rgb(38, 38, 46);"></path>
    <path class="cls-1" d="M 228.5 68.39 C 228.198 68.193 227.857 68.063 227.5 68.01 C 227.151 67.943 226.796 67.909 226.44 67.91 C 226.08 67.91 225.75 67.91 225.44 67.91 C 225.291 67.928 225.144 67.958 225 68 L 225 81.32 C 224.886 82.143 225.19 82.968 225.81 83.52 C 226.442 83.911 227.177 84.103 227.92 84.07 C 228.27 84.07 228.61 84.07 228.92 84.07 C 229.128 84.071 229.334 84.037 229.53 83.97 L 229.53 70.53 C 229.544 70.069 229.452 69.61 229.26 69.19 C 229.087 68.857 228.823 68.58 228.5 68.39 Z" style="fill: rgb(38, 38, 46);"></path>
    <path class="cls-1" d="M 241.94 75 L 247.35 68.76 C 246.932 68.453 246.479 68.198 246 68 C 245.516 67.785 244.99 67.679 244.46 67.69 C 243.966 67.676 243.477 67.8 243.05 68.05 C 242.621 68.327 242.234 68.664 241.9 69.05 L 238.38 73.05 C 237.957 73.522 237.662 74.093 237.52 74.71 L 237.52 62.86 C 237.537 62.399 237.448 61.941 237.26 61.52 C 237.096 61.197 236.856 60.919 236.56 60.71 C 236.261 60.503 235.919 60.366 235.56 60.31 C 235.207 60.242 234.849 60.209 234.49 60.21 C 234.157 60.189 233.823 60.189 233.49 60.21 C 233.311 60.219 233.134 60.246 232.96 60.29 L 232.96 83.69 L 237.47 83.69 L 237.47 75.69 C 237.557 76.3 237.81 76.874 238.2 77.35 L 242 82.35 C 242.412 82.909 242.945 83.367 243.56 83.69 C 244.19 83.963 244.873 84.093 245.56 84.07 C 246.056 84.07 246.548 83.993 247.02 83.84 C 247.432 83.712 247.823 83.524 248.18 83.28 L 241.94 75 Z" style="fill: rgb(38, 38, 46);"></path>
    <path class="cls-1" d="M 227.08 60.31 C 226.435 60.293 225.811 60.538 225.35 60.99 C 224.417 61.958 224.417 63.492 225.35 64.46 C 225.816 64.902 226.438 65.139 227.08 65.12 C 227.714 65.13 228.327 64.893 228.79 64.46 C 229.739 63.498 229.739 61.952 228.79 60.99 C 228.332 60.547 227.717 60.303 227.08 60.31 Z" style="fill: rgb(38, 38, 46);"></path>
    <path class="cls-2" d="M 154.57 70.41 C 154.111 69.97 153.496 69.729 152.86 69.74 C 151.501 69.687 150.382 70.8 150.43 72.16 C 150.407 72.807 150.662 73.433 151.13 73.88 C 151.592 74.328 152.216 74.57 152.86 74.55 C 153.496 74.561 154.111 74.32 154.57 73.88 C 155.044 73.436 155.303 72.809 155.28 72.16 C 155.3 71.503 155.042 70.868 154.57 70.41 Z" style="fill: rgb(224, 85, 32);"></path>
    <path class="cls-2" d="M 145.92 72.14 L 154.25 61 C 153.892 60.758 153.502 60.57 153.09 60.44 C 152.619 60.287 152.126 60.209 151.63 60.21 C 150.222 60.109 148.868 60.769 148.08 61.94 L 140.5 72.14 L 148.08 82.35 C 148.492 82.909 149.025 83.367 149.64 83.69 C 150.27 83.963 150.953 84.093 151.64 84.07 C 152.136 84.071 152.629 83.993 153.1 83.84 C 153.513 83.714 153.905 83.525 154.26 83.28 L 145.92 72.14 Z" style="fill: rgb(224, 85, 32);"></path>
    <path class="cls-2" d="M 146.35 61 C 145.989 60.758 145.595 60.57 145.18 60.44 C 144.047 60.088 142.828 60.141 141.73 60.59 C 141.115 60.917 140.582 61.378 140.17 61.94 L 132.59 72.14 L 140.17 82.35 C 140.582 82.909 141.115 83.367 141.73 83.69 C 142.828 84.139 144.047 84.192 145.18 83.84 C 145.596 83.712 145.99 83.524 146.35 83.28 L 138 72.14 L 146.35 61 Z" style="fill: rgb(224, 85, 32);"></path>
    <path class="cls-3" d="M 251.58 84.1 C 250.973 84.112 250.389 83.869 249.97 83.43 C 249.531 83.007 249.288 82.42 249.3 81.81 C 249.3 80.055 251.2 78.958 252.72 79.835 C 253.425 80.243 253.86 80.995 253.86 81.81 C 253.872 82.42 253.629 83.007 253.19 83.43 C 252.771 83.869 252.187 84.112 251.58 84.1 Z M 251.58 79.8 C 250.475 79.8 249.58 80.695 249.58 81.8 C 249.58 82.905 250.475 83.8 251.58 83.8 C 252.685 83.8 253.58 82.905 253.58 81.8 C 253.58 80.695 252.685 79.8 251.58 79.8 Z M 252.69 83.24 L 252.2 83.24 L 251.88 82.54 C 251.72 82.2 251.55 82.02 251.36 82.02 L 251.09 82.02 L 251.09 83.24 L 250.69 83.24 L 250.69 80.34 L 251.51 80.34 C 251.786 80.323 252.06 80.397 252.29 80.55 C 252.472 80.686 252.576 80.903 252.57 81.13 C 252.572 81.32 252.5 81.502 252.37 81.64 C 252.223 81.787 252.035 81.885 251.83 81.92 C 251.99 81.96 252.15 82.14 252.31 82.46 L 252.69 83.24 Z M 251.09 80.68 L 251.09 81.68 L 251.53 81.68 C 251.93 81.68 252.13 81.51 252.13 81.18 C 252.147 81.034 252.086 80.89 251.97 80.8 C 251.816 80.709 251.638 80.667 251.46 80.68 L 251.09 80.68 Z" style="fill: rgb(35, 31, 32);"></path>
    <g clip-path="url(#clip-1)" transform="matrix(2.076555, 0, 0, 2.076555, -58.191444, 50.52512)" style="">
      <path d="M11.191 5.539v4.922l-4.262 2.462V16l6.928-4V4l-2.666 1.539Z" fill="#00AC69"></path>
      <path d="m6.929 3.078 4.262 2.46L13.857 4 6.93 0 0 4l2.665 1.539L6.93 3.078Z" fill="#1CE783"></path>
      <path d="M4.263 9.54v4.922L6.93 16V8L0 4v3.078l4.263 2.461ZM23.367 3.989c-1.491 0-2.198.942-2.198.942h-.078l-.156-.785h-1.807v8.007h1.963v-4.63c0-1.02.704-1.727 1.727-1.727 1.022 0 1.727.705 1.727 1.727v4.63h1.963V7.364c0-2.04-1.335-3.375-3.14-3.375ZM44.534 9.406h-.113l-1.335-5.26H41.09l-1.335 5.26h-.112l-1.335-5.26h-2.041l2.04 8.007h2.391l1.334-5.181h.112l1.335 5.181h2.39l2.04-8.007h-2.04l-1.335 5.26ZM53.92 4.852h-.08l-.156-.704h-1.649v8.006h1.963v-4.63c0-1.02.47-1.491 1.491-1.491h1.007V4.147h-1.168a1.767 1.767 0 0 0-1.409.705ZM60.839 3.989c-2.355 0-4.082 1.727-4.082 4.16 0 2.434 1.63 4.161 4.082 4.161 1.985 0 3.181-1.168 3.68-2.028l-1.802-.642c-.178.326-.897.953-1.878.953-1.145 0-1.962-.716-2.119-1.811h5.965c.056-.258.082-.522.079-.786 0-2.28-1.727-4.007-3.925-4.007ZM58.72 7.443c.236-1.02.942-1.806 2.119-1.806 1.1 0 1.805.785 1.962 1.806H58.72ZM31.845 3.989c-2.355 0-4.082 1.727-4.082 4.16 0 2.434 1.626 4.161 4.082 4.161 1.986 0 3.18-1.168 3.679-2.028l-1.802-.642c-.178.326-.896.953-1.877.953-1.144 0-1.963-.716-2.12-1.811h5.967a3.57 3.57 0 0 0 .078-.786c0-2.28-1.727-4.007-3.925-4.007Zm-2.12 3.454c.236-1.02.942-1.806 2.12-1.806 1.1 0 1.806.785 1.963 1.806h-4.083ZM71.625.984h-1.963v1.963h1.963V.984ZM77.041 10.505c-1.178 0-2.12-.942-2.12-2.356 0-1.413.942-2.355 2.12-2.355 1.178 0 1.649.785 1.806 1.256l1.777-.632c-.43-1.118-1.488-2.43-3.583-2.43-2.355 0-4.082 1.728-4.082 4.161 0 2.434 1.727 4.161 4.082 4.161 2.114 0 3.17-1.332 3.593-2.504l-1.787-.636c-.157.55-.628 1.335-1.806 1.335ZM64.981 2.729h1.115v9.424h1.962V.984h-3.077V2.73ZM71.625 4.146h-1.963v8.007h1.963V4.146ZM81.685 10.617a.758.758 0 1 0 .746.757.732.732 0 0 0-.746-.757Zm0 1.398a.641.641 0 1 1 .63-.64.617.617 0 0 1-.63.636v.004Z" fill="#1D252C"></path>
      <path d="M82.01 11.234a.266.266 0 0 0-.284-.263h-.336v.789h.116v-.274h.105l.273.274h.144l-.273-.274a.255.255 0 0 0 .255-.252Zm-.503.136v-.284h.22a.149.149 0 0 1 .117.037.152.152 0 0 1 .051.111c0 .084-.053.136-.169.136h-.22Z" fill="#1D252C"></path>
    </g>
  </g>
  <g clip-path="url(#a)" transform="matrix(1, 0, 0, 1, 159.737627, 175.478942)"></g>
</svg>
