<svg height="200" viewBox="0 0 200 200" width="200" xmlns="http://www.w3.org/2000/svg" xmlns:xlink="http://www.w3.org/1999/xlink"><linearGradient id="a" gradientTransform="matrix(1.885618 1.885618 -1.885618 1.885618 283.253337 -553.146647)" gradientUnits="userSpaceOnUse" x1="124.599998" x2="124.599998" y1="296.779999" y2="146.779999"><stop offset="0" stop-color="#b0084d"/><stop offset="1" stop-color="#ff4f8b"/></linearGradient><path d="m0 0h200v200h-200z" fill="url(#a)"/><path d="m166.667969 93.332031c.191406 11.40625-8.617188 20.945313-20 21.65625h-38.667969v-5.335937h38.667969c.371093 0 14.796875-1.597656 14.796875-16.34375 0-12.375-10.34375-15.46875-14.773438-16.242188-1.433594-.246094-2.410156-1.597656-2.183594-3.039062 0-5.335938-2.242187-9.148438-6.160156-10.425782-3.566406-1.226562-7.515625.015626-9.734375 3.066407-.613281.832031-1.652343 1.238281-2.667969 1.039062-.964843-.148437-1.773437-.8125-2.105468-1.734375-1.332032-4.074218-3.554688-7.796875-6.507813-10.90625-6.949219-7.289062-17.730469-9.421875-26.933593-5.332031-5.210938 2.4375-9.375 6.667969-11.730469 11.917969h-5.867188c2.703125-7.4375 8.257813-13.492188 15.4375-16.824219 11.199219-4.9375 24.285157-2.359375 32.773438 6.453125 2.644531 2.667969 4.808593 5.769531 6.402343 9.171875 3.625-2.550781 8.253907-3.214844 12.453126-1.785156 5.789062 2.105469 9.675781 7.570312 9.757812 13.730469 8.589844 2.054687 17.042969 8.535156 17.042969 20.933593zm-74.667969-2.320312v-18.664063h-53.332031v80h53.332031v-45.335937h5.332031v48c0 1.472656-1.191406 2.667969-2.664062 2.667969h-58.667969c-1.472656 0-2.667969-1.195313-2.667969-2.667969v-85.332031c0-1.472657 1.195313-2.667969 2.667969-2.667969h58.667969c1.472656 0 2.664062 1.195312 2.664062 2.667969v21.332031zm34.667969 5.335937h-80v5.332032h80zm-58.667969-13.335937h-21.332031v5.335937h21.332031zm8 26.667969h-29.332031v5.332031h29.332031zm-10.90625 13.332031h-18.320312v5.335937h18.320312zm18.90625 0h-13.332031v5.335937h13.332031zm58.667969-26.664063h-10.667969v5.332032h10.667969zm0 0" fill="#fff"/></svg>