<svg height="200" viewBox="0 0 200 200" width="200" xmlns="http://www.w3.org/2000/svg" xmlns:xlink="http://www.w3.org/1999/xlink"><linearGradient id="a" gradientTransform="matrix(-2.666667 0 0 -2.666667 -14594.666667 130.666667)" gradientUnits="userSpaceOnUse" x1="-5457.470215" x2="-5563.540039" y1="-41.529999" y2="64.540001"><stop offset="0" stop-color="#bd0816"/><stop offset="1" stop-color="#ff5252"/></linearGradient><path d="m0 0h200v200h-200z" fill="url(#a)"/><g fill="#fff"><path d="m130.230469 133.902344 3.773437-3.769532 31.882813 31.886719-3.769531 3.769531zm0 0"/><path d="m34.125 37.796875 3.773438-3.773437 35.335937 35.335937-3.773437 3.773437zm0 0"/><path d="m42.121094 154.113281 18.667968-18.667969 3.773438 3.769532-18.667969 18.667968zm0 0"/><path d="m135.457031 60.785156 18.664063-18.667968 3.773437 3.769531-18.667969 18.667969zm0 0"/><path d="m166.667969 97.332031v5.335938h-5.335938c-.484375 12.011719-4.519531 23.613281-11.597656 33.332031l-4.320313-3.148438c6.402344-8.804687 10.058594-19.308593 10.507813-30.183593h-5.335937v-5.335938h5.335937c-.464844-10.847656-4.121094-21.320312-10.507813-30.105469l4.320313-3.226562c7.058594 9.726562 11.074219 21.324219 11.546875 33.332031zm0 0"/><path d="m136 50.265625-3.148438 4.320313c-8.804687-6.402344-19.308593-10.058594-30.183593-10.507813v5.335937h-5.335938v-5.335937c-10.847656.464844-21.320312 4.121094-30.105469 10.507813l-3.226562-4.320313c9.726562-7.058594 21.324219-11.074219 33.332031-11.546875v-5.332031h5.335938v5.332031c12.007812.472656 23.605469 4.488281 33.332031 11.546875zm0 0"/><path d="m136 149.734375c-9.726562 7.058594-21.324219 11.074219-33.332031 11.546875v5.332031h-5.335938v-5.332031c-12.007812-.472656-23.605469-4.488281-33.332031-11.546875l3.148438-4.320313c8.804687 6.402344 19.308593 10.058594 30.183593 10.507813v-5.335937h5.335938v5.335937c10.847656-.464844 21.320312-4.121094 30.105469-10.507813zm0 0"/><path d="m44.078125 102.667969c.464844 10.847656 4.121094 21.320312 10.507813 30.105469l-4.320313 3.226562c-7.058594-9.726562-11.074219-21.324219-11.546875-33.332031h-5.332031v-5.335938h5.332031c.472656-12.007812 4.488281-23.605469 11.546875-33.332031l4.320313 3.148438c-6.402344 8.804687-10.058594 19.308593-10.507813 30.183593h5.335937v5.335938zm0 0"/><path d="m124.105469 83.171875c-.78125-.414063-1.722657-.414063-2.503907 0-.800781.410156-1.34375 1.191406-1.441406 2.082031-.164062 1.625-.441406 3.238282-.828125 4.824219-1.269531-13.132813-9.382812-24.617187-21.332031-30.210937-3.605469-2.75-7.824219-4.582032-12.292969-5.332032-1.183593-.199218-2.355469.417969-2.859375 1.507813-.503906 1.089843-.21875 2.382812.699219 3.15625 5.660156 5.535156 8.050781 13.609375 6.320313 21.335937-3.09375-4.082031-8-8.960937-13.8125-8.960937-.875 0-1.691407.429687-2.1875 1.144531-.503907.726562-.613282 1.65625-.292969 2.480469 1.546875 3.972656 4.613281 15.839843.238281 22.722656-.292969.425781-.53125.851563-.800781 1.304687-6.027344 11.003907-2.824219 24.785157 7.441406 32 5.207031 3.527344 10.855469 6.351563 16.800781 8.398438.289063.105469.597656.160156.90625.160156h.558594c3.546875-.320312 27.679688-3.4375 32.613281-22.585937 6.828125-26-6.640625-33.707031-7.226562-34.027344zm-29.867188 49.628906c-3.734375-1.585937-7.308593-3.535156-10.664062-5.8125-8.070313-5.648437-10.589844-16.464843-5.839844-25.09375l.640625-1.09375c4.503906-7.039062 3.199219-16.640625 1.785156-22.453125 3.488282 2.675782 6.378906 6.054688 8.480469 9.917969.46875.964844 1.46875 1.554687 2.542969 1.496094 1.070312-.058594 2-.753907 2.363281-1.761719 3.300781-8.160156 2.992187-17.335938-.855469-25.253906 3.390625 1.960937 6.097656 4.910156 7.761719 8.453125 3.785156 7.839843 2.933594 18.667969-2.1875 28.027343-5.257813 10.367188-6.683594 22.257813-4.027344 33.574219zm32-16.878906c-3.492187 13.597656-20.160156 17.4375-26.132812 18.371094-1.4375-5.171875-4.292969-19.625 2.828125-32.640625 4.980468-8.671875 6.386718-18.945313 3.917968-28.640625 4.828126 5.65625 8.882813 14.589843 6.722657 27.976562-.171875 1.089844.347656 2.175781 1.304687 2.726563.960938.546875 2.15625.449218 3.015625-.25 3.472657-3.371094 5.8125-7.742188 6.691407-12.503906 2.5625 3.707031 5.226562 11.199218 1.679687 24.960937zm0 0"/></g></svg>