<svg height="200" viewBox="0 0 200 200" width="200" xmlns="http://www.w3.org/2000/svg" xmlns:xlink="http://www.w3.org/1999/xlink"><filter id="a" height="100%" width="100%" x="0%" y="0%"><feColorMatrix in="SourceGraphic" type="matrix" values="0 0 0 0 1 0 0 0 0 1 0 0 0 0 1 0 0 0 1 0"/></filter><mask id="b"><g filter="url(#a)"><path d="m0 0h200v200h-200z" fill-opacity=".07"/></g></mask><clipPath id="c"><path d="m0 0h200v200h-200z"/></clipPath><path d="m190.074219 94.5-38.230469-66.46875c-2.921875-5.191406-8.375-8.445312-14.332031-8.554688h-76.46875c-5.953125.105469-11.410157 3.359376-14.332031 8.546876l-38.234376 66.308593c-2.957031 5.144531-2.957031 11.476563 0 16.625l38.222657 66.863281c2.894531 5.257813 8.332031 8.617188 14.332031 8.847657h76.46875c5.996094-.207031 11.445312-3.550781 14.34375-8.804688l38.230469-66.480469c2.980469-5.230468 2.980469-11.644531 0-16.875zm0 0" fill="#4285f4"/><g clip-path="url(#c)" mask="url(#b)"><path d="m133.632812 68.605469-30.390624 14.605469-14.535157-14.535157-23.75 23.867188 15.8125 15.8125-15.84375 29.070312 49.25 49.199219h23.324219c5.996094-.207031 11.445312-3.550781 14.34375-8.804688l33.1875-57.777343zm0 0"/></g><g fill="#fff"><path d="m74.5625 89.242188h7.269531v28.34375h-7.269531zm42.148438-3.441407h7.269531v31.710938h-7.269531zm-31.417969-7.457031h27.980469v7.269531h-27.980469zm0 42.148438h27.980469v7.269531h-27.980469zm0 0"/><path d="m70.636719 68.167969h12.207031c3.453125 0 6.25 2.800781 6.25 6.25v12.207031c0 3.453125-2.796875 6.25-6.25 6.25h-12.207031c-3.449219 0-6.25-2.796875-6.25-6.25v-12.207031c0-3.449219 2.800781-6.25 6.25-6.25zm0 0"/><path d="m115.699219 68.167969h12.207031c3.453125 0 6.25 2.800781 6.25 6.25v12.207031c0 3.453125-2.796875 6.25-6.25 6.25h-12.207031c-3.449219 0-6.25-2.796875-6.25-6.25v-12.207031c0-3.449219 2.800781-6.25 6.25-6.25zm0 0"/><path d="m70.636719 113.226562h12.207031c3.453125 0 6.25 2.796876 6.25 6.25v12.203126c0 3.453124-2.796875 6.25-6.25 6.25h-12.207031c-3.449219 0-6.25-2.796876-6.25-6.25v-12.203126c0-3.453124 2.800781-6.25 6.25-6.25zm0 0"/><path d="m115.699219 113.226562h12.207031c3.453125 0 6.25 2.796876 6.25 6.25v12.203126c0 3.453124-2.796875 6.25-6.25 6.25h-12.207031c-3.449219 0-6.25-2.796876-6.25-6.25v-12.203126c0-3.453124 2.800781-6.25 6.25-6.25zm0 0"/></g></svg>