<svg height="200" viewBox="0 0 200 200" width="200" xmlns="http://www.w3.org/2000/svg"><g transform="matrix(.91230944 0 0 .91230944 8.769056 8.769056)"><path d="m193.06641 200h-186.132816c-3.800782 0-6.933594-3.13281-6.933594-6.93359v-186.132816c0-3.800782 3.132812-6.933594 6.933594-6.933594h186.132816c3.80078 0 6.93359 3.132812 6.93359 6.933594v186.132816c0 3.80078-3.13281 6.93359-6.93359 6.93359zm0 0" fill="#232323"/><path d="m200 146.53516h-200v-98.136722h200zm0 0"/><path d="m25.867188 17.199219v4.066406h28.867187v-4.066406zm32.933593 0v4.066406h41.132813s-4.199219-4.066406-9.734375-4.066406zm49.199219 0v4.066406h24.86719l-1.46875-4.066406zm42.73437 0-1.46875 4.066406h24.66797v-4.066406zm-124.867182 7.867187v4.066406h28.867187v-4.066406zm32.933593.06641v4.066407h45.867189s-.53516-3.132813-1.46875-4.066407zm49.199219 0v4.066407h27.60156l-1.40234-4.066407zm39.80078 0-1.40234 4.066407h27.46875v-4.066411zm-113.667968 7.867184v4.066406h12.535157v-4.066406zm33 0v4.066406h12.46875v-4.066406zm24.601563 0v4.066406h12.464845s.80078-2.132812.80078-4.066406zm24.597655 0v4.066406h22.13281l-1.46484-4.066406zm28.73438 0-1.46485 4.066406h22.26563v-4.066406zm-110.933598 7.867188v4.066406h12.535157v-4.066406zm33 0v4.066406h31.933594s2.667974-2.066406 3.535154-4.066406zm49.199218 0v4.066406h12.46875v-2.265625l.80078 2.265625h22.86328l.86719-2.265625v2.265625h12.46875v-4.066406h-23.46875l-1.26562 3.464843-1.26563-3.464843zm-82.199218 7.933593v4.066407h12.535157v-4.066407zm33 0v4.066407h35.468748c-.86718-2-3.535154-4.066407-3.535154-4.066407zm49.199218 0v4.066407h12.46875v-4.066407zm14.73438 0 1.53515 4.066407h17.13281l1.46485-4.066407zm22.26562 0v4.066407h12.46875v-4.066407zm-119.199218 7.867188v4.066406h12.535157v-4.066406zm33 0v4.066406h12.46875v-4.066406zm24.601563 0v4.066406h13.265625c0-1.933594-.80078-4.066406-.80078-4.066406zm24.597655 0v4.066406h12.46875v-4.066406zm17.60156 0 1.46485 4.066406h11.53515l1.46485-4.066406zm19.39844 0v4.066406h12.46875v-4.066406zm-127.265624 7.867187v4.066406h28.867188v-4.066406zm32.734375 0v4.066406h44.398439c.93359-.933593 1.46875-4.066406 1.46875-4.066406zm49.464849 0v4.066406h20.53515v-4.066406zm28.46874 0 1.53125 4.066406h5.86719l1.40235-4.066406zm16.59766 0v4.066406h20.80078v-4.066406zm-127.265624 7.929688v4.070312h28.867188v-4.070312zm32.734375 0v4.070312h31.332031c5.535157 0 9.734376-4.070312 9.734376-4.070312zm49.464849 0v4.070312h20.53515v-4.070312zm31.33593 0 1.46485 4.070312h.26562l1.46875-4.070312zm13.73047 0v4.070312h20.80078v-4.070312zm0 0" fill="#fff"/><path d="m192.73437 200h-185.468745c-4 0-7.265625-3.26563-7.265625-7.26563v-97.867182l200-.46875v98.335932c0 4-3.26563 7.26563-7.26563 7.26563zm0 0" fill="#093"/><g fill="#fff"><path d="m51.867188 114.66797c4.53125 0 8.265624.73047 11.066406 2.26562 2.800781 1.46485 5 3.60157 6.53125 6.39844 1.535156 2.80078 2.601562 6.06641 3.136718 10 .53125 3.86719.796876 8.26953.796876 13.06641 0 5.73437-.332032 10.66797-1.066407 14.93359-.730469 4.20313-1.933593 7.73438-3.597656 10.46875-1.734375 2.73438-4 4.80078-6.867187 6.13281-2.867188 1.33203-6.46875 2-10.867188 2h-20.601562v-65.26562zm-2.535157 55.46484c2.335938 0 4.132813-.39844 5.535157-1.19922 1.398437-.80078 2.53125-2.0664 3.332031-3.93359s1.402343-4.19922 1.667969-7.19922c.265624-3 .398437-6.66797.398437-11.13281 0-3.73438-.132813-6.9336-.332031-9.73438-.265625-2.80078-.734375-5.13281-1.535156-7-.730469-1.86718-1.863282-3.26562-3.398438-4.19921-1.464844-.9336-3.464844-1.40235-6-1.40235h-5.535156v45.80078zm0 0"/><path d="m104.06641 114.66797c2.66797 0 5.13281.26562 7.39843.79687 2.26954.53516 4.26954 1.46875 5.86719 2.73438 1.66797 1.26562 2.9336 3 3.80078 5.13281.9336 2.13281 1.40235 4.73438 1.40235 7.86719 0 3.53515-.80078 6.53515-2.46875 9.0664-1.66797 2.53516-4.13282 4.26954-7.39844 5.13282v.20312c3.66406.46485 6.53125 2.06641 8.66406 4.66406 2.13281 2.60157 3.20313 6.13282 3.20313 10.46875 0 2.53125-.33594 5-1 7.26563-.66797 2.33203-1.80078 4.33203-3.40235 6.06641-1.59765 1.73437-3.73437 3.13281-6.26562 4.13281-2.60156 1.0664-5.80078 1.53515-9.60156 1.53515h-22.132818v-65.0664zm-5.132816 26.73047c3.667966 0 6.332036-.66407 7.999996-1.9336 1.66797-1.33203 2.53125-3.53125 2.53125-6.59765 0-3.06641-.73046-5.26563-2.26562-6.60156-1.53125-1.26563-3.93359-1.9336-7.19922-1.9336h-4.734375v17.06641zm1.398436 28.73437c3.13281 0 5.73438-.66797 7.66797-2.0664 1.93359-1.39844 2.93359-4 2.93359-7.73438 0-1.86719-.26562-3.46484-.80078-4.66406-.53125-1.26953-1.19922-2.26953-2.0664-3-.86719-.73438-1.9336-1.26953-3.13282-1.60156-1.19921-.33204-2.53515-.46485-4-.46485h-5.667965v19.59766h5.066405zm0 0"/><path d="m129.86719 179.80078c0-2.86719.26562-5.53516.86718-8 .59766-2.46875 1.46485-4.86719 2.66407-7.13281 1.20312-2.26953 2.66797-4.46875 4.46875-6.60156 1.80078-2.13282 3.86718-4.33204 6.26562-6.53125l5.26563-4.9336c1.46875-1.26953 2.60156-2.46875 3.53515-3.53515.86719-1.06641 1.53125-2.19922 2.06641-3.26563.46484-1.06641.80078-2.26562.93359-3.53516.13282-1.26562.19922-2.73046.19922-4.39843 0-5.33203-2.13281-8-6.39844-8-1.66796 0-2.93359.33203-3.86718 1-.9336.66797-1.66797 1.59765-2.19922 2.73437-.53516 1.13281-.86719 2.46485-1 4-.13281 1.53125-.20313 3.13281-.20313 4.79688h-12.59765v-2.46485c0-6 1.59765-10.66796 4.86718-13.86718 3.19922-3.19922 8.26563-4.80078 15.19922-4.80078 6.53125 0 11.39844 1.53515 14.60157 4.53515 3.13281 3.06641 4.73046 7.39844 4.73046 13.06641 0 2.0664-.19921 4-.53125 5.80078-.33593 1.79687-.93359 3.53125-1.73437 5.13281-.80078 1.66406-1.80078 3.26563-3.13281 4.80078-1.26563 1.53125-2.80078 3.13281-4.66797 4.79688l-7.26563 6.73437c-1.93359 1.73438-3.46875 3.46875-4.53515 5.13281-1.06641 1.66797-1.79688 3.13282-2.06641 4.33594h24.33594v10.19922zm0 0"/></g></g></svg>