<svg height="200" viewBox="0 0 200 200" width="200" xmlns="http://www.w3.org/2000/svg" xmlns:xlink="http://www.w3.org/1999/xlink"><filter id="a" height="100%" width="100%" x="0%" y="0%"><feColorMatrix in="SourceGraphic" type="matrix" values="0 0 0 0 1 0 0 0 0 1 0 0 0 0 1 0 0 0 1 0"/></filter><mask id="b"><g filter="url(#a)"><path d="m0 0h200v200h-200z" fill-opacity=".1"/></g></mask><clipPath id="c"><path d="m0 0h200v200h-200z"/></clipPath><g transform="matrix(.91525424 0 0 .91525424 8.474576 8.474576)"><path d="m200 100c0 55.22656-44.77344 100-100 100-55.226562 0-100-44.77344-100-100 0-55.226562 44.773438-100 100-100 55.22656 0 100 44.773438 100 100zm0 0" fill="#5c2b8f"/><g clip-path="url(#c)" height="100%" mask="url(#b)" width="100%"><path d="m30.6875 28.125c-27.699219 24.683594-39.457031 62.671875-30.542969 98.683594 8.914063 36.015625 37.03125 64.132812 73.046875 73.046875 36.011719 8.914062 74-2.84375 98.683594-30.542969zm0 0" fill="#fff"/></g><g fill="#fff"><path d="m23.125 128.90625c-1.179688.0195-2.3125-.45703-3.125-1.3125-.835938-.82422-1.296875-1.95312-1.28125-3.125-.0078-1.17187.453125-2.29687 1.28125-3.125.804688-.87109 1.941406-1.35937 3.125-1.34375 1.183594-.004 2.3125.48438 3.125 1.34375.84375.82031 1.316406 1.94922 1.3125 3.125.01172 1.17969-.464844 2.30859-1.3125 3.125-.820312.84375-1.949219 1.32031-3.125 1.3125zm0 0"/><path d="m85.21875 128.125h-8.1875l-29.28125-45.4375c-.726562-1.121094-1.335938-2.3125-1.8125-3.5625h-.25c.277344 2.59375.382812 5.203125.3125 7.8125v41.1875h-6.65625v-56.96875h8.65625l28.5 44.625c1.1875 1.85547 1.957031 3.125 2.3125 3.8125h.15625c-.328125-2.77734-.464844-5.57812-.40625-8.375v-40.0625h6.65625zm0 0"/><path d="m130.28125 128.125h-30.28125v-56.96875h28.875v6.03125h-22.0625v18.9375h20.5625v6h-20.5625v19.75h23.5zm0 0"/><path d="m175 77.1875h-16.5625v50.9375h-6.65625v-50.9375h-16.375v-6.03125h39.59375zm0 0"/></g></g></svg>