<svg xmlns="http://www.w3.org/2000/svg" viewBox="0 0 220 120"><defs><style>.cls-1{fill:#26262e;}.cls-2{fill:#e05520;}.cls-3{fill:#231f20;}.cls-4{fill:#008c99;}.cls-5{fill:#70ccd3;}</style></defs><g id="text"><path d="M127.31,43.18a2.79,2.79,0,0,1-1,2.33,4.66,4.66,0,0,1-3,.82h-1.18v3.93H121v-10h2.59Q127.31,40.27,127.31,43.18Zm-5.18,2.15h1.05a3.81,3.81,0,0,0,2.23-.5,1.83,1.83,0,0,0,.69-1.6,1.69,1.69,0,0,0-.65-1.47,3.32,3.32,0,0,0-2-.49h-1.3Z"/><path d="M135.56,46.51a4.12,4.12,0,0,1-.93,2.86,3.22,3.22,0,0,1-2.55,1,3.4,3.4,0,0,1-1.78-.47,3.12,3.12,0,0,1-1.2-1.36,4.57,4.57,0,0,1-.43-2.06,4.16,4.16,0,0,1,.92-2.86,3.24,3.24,0,0,1,2.54-1,3.17,3.17,0,0,1,2.5,1A4.11,4.11,0,0,1,135.56,46.51Zm-5.71,0a3.58,3.58,0,0,0,.57,2.19,2.28,2.28,0,0,0,3.38,0,3.51,3.51,0,0,0,.58-2.19,3.44,3.44,0,0,0-.58-2.17,2.32,2.32,0,0,0-3.39,0A3.57,3.57,0,0,0,129.85,46.51Z"/><path d="M143.52,50.26l-1.37-4.39c-.09-.27-.25-.88-.49-1.84h0c-.18.8-.34,1.42-.48,1.85l-1.42,4.38H138.4l-2-7.49h1.19l1.1,4.3a19.46,19.46,0,0,1,.44,2h0c.05-.26.13-.6.24-1s.21-.74.29-1l1.38-4.3h1.23l1.34,4.3a14.76,14.76,0,0,1,.52,2h.05a7.48,7.48,0,0,1,.15-.76c.08-.35.55-2.18,1.42-5.52h1.18l-2.07,7.49Z"/><path d="M151.32,50.4a3.45,3.45,0,0,1-2.62-1,3.93,3.93,0,0,1-1-2.81,4.31,4.31,0,0,1,.89-2.88A3,3,0,0,1,151,42.63a2.81,2.81,0,0,1,2.23.93,3.53,3.53,0,0,1,.82,2.44v.72h-5.16a2.94,2.94,0,0,0,.67,2,2.28,2.28,0,0,0,1.78.69,6,6,0,0,0,2.39-.51v1a5.86,5.86,0,0,1-1.14.38A6.74,6.74,0,0,1,151.32,50.4ZM151,43.58a1.87,1.87,0,0,0-1.44.59,2.68,2.68,0,0,0-.63,1.63h3.92a2.5,2.5,0,0,0-.48-1.65A1.7,1.7,0,0,0,151,43.58Z"/><path d="M159.29,42.63a4,4,0,0,1,.89.09L160,43.77a3.65,3.65,0,0,0-.82-.1,2,2,0,0,0-1.55.73,2.72,2.72,0,0,0-.65,1.84v4h-1.13V42.77h.94l.12,1.39H157A3.27,3.27,0,0,1,158,43,2.27,2.27,0,0,1,159.29,42.63Z"/><path d="M164.61,50.4a3.45,3.45,0,0,1-2.62-1,3.93,3.93,0,0,1-1-2.81,4.31,4.31,0,0,1,.89-2.88,3,3,0,0,1,2.39-1.07,2.81,2.81,0,0,1,2.23.93,3.53,3.53,0,0,1,.82,2.44v.72H162.2a2.94,2.94,0,0,0,.67,2,2.28,2.28,0,0,0,1.78.69A6,6,0,0,0,167,48.9v1a5.86,5.86,0,0,1-1.14.38A6.74,6.74,0,0,1,164.61,50.4Zm-.31-6.82a1.87,1.87,0,0,0-1.44.59,2.68,2.68,0,0,0-.63,1.63h3.92a2.5,2.5,0,0,0-.48-1.65A1.7,1.7,0,0,0,164.3,43.58Z"/><path d="M174.26,49.26h-.06a2.68,2.68,0,0,1-2.36,1.14,2.77,2.77,0,0,1-2.28-1,4.38,4.38,0,0,1-.82-2.85,4.47,4.47,0,0,1,.82-2.88,2.75,2.75,0,0,1,2.28-1,2.72,2.72,0,0,1,2.34,1.11h.09l-.05-.54,0-.53v-3h1.13V50.26h-.92Zm-2.27.19a2.07,2.07,0,0,0,1.68-.63,3.22,3.22,0,0,0,.53-2v-.24a3.8,3.8,0,0,0-.53-2.28,2,2,0,0,0-1.7-.68,1.72,1.72,0,0,0-1.52.78,3.81,3.81,0,0,0-.53,2.19,3.72,3.72,0,0,0,.52,2.17A1.81,1.81,0,0,0,172,49.45Z"/><path d="M184.58,42.65a2.78,2.78,0,0,1,2.29,1,4.43,4.43,0,0,1,.82,2.86,4.46,4.46,0,0,1-.82,2.87,2.78,2.78,0,0,1-2.29,1,3.27,3.27,0,0,1-1.34-.27,2.53,2.53,0,0,1-1-.83h-.08l-.24,1h-.82V39.63h1.14v2.58q0,.87-.06,1.56h.06A2.68,2.68,0,0,1,184.58,42.65Zm-.16,1a2,2,0,0,0-1.68.66,3.81,3.81,0,0,0-.51,2.25,3.78,3.78,0,0,0,.52,2.26,2,2,0,0,0,1.69.68,1.76,1.76,0,0,0,1.56-.76,3.94,3.94,0,0,0,.51-2.19,3.81,3.81,0,0,0-.51-2.19A1.83,1.83,0,0,0,184.42,43.6Z"/><path d="M188.34,42.77h1.22L191.2,47a17.24,17.24,0,0,1,.67,2.11h.06c0-.23.18-.63.37-1.19s.81-2.29,1.85-5.19h1.22l-3.22,8.53A4.32,4.32,0,0,1,191,53.1a2.39,2.39,0,0,1-1.57.53,4.44,4.44,0,0,1-1-.12V52.6a4.28,4.28,0,0,0,.84.08A1.74,1.74,0,0,0,191,51.37l.41-1.07Z"/><path class="cls-1" d="M142.22,67.8a6.73,6.73,0,0,0-1.31-.81,3.62,3.62,0,0,0-1.54-.31A2.59,2.59,0,0,0,138,67a5.37,5.37,0,0,0-1.15,1l-3.52,4a3.74,3.74,0,0,0-.86,1.66V61.86a3,3,0,0,0-.26-1.34,2.22,2.22,0,0,0-.7-.81,2.4,2.4,0,0,0-1-.4,5.54,5.54,0,0,0-1.07-.1,7.81,7.81,0,0,0-1,0,2.71,2.71,0,0,0-.53.08v23.4h4.51v-8a3.28,3.28,0,0,0,.73,1.66l3.69,4.95a4.48,4.48,0,0,0,1.55,1.34,4.71,4.71,0,0,0,2,.38,4.76,4.76,0,0,0,1.47-.23,4.32,4.32,0,0,0,1.16-.56L136.81,74Z"/><path class="cls-1" d="M156,68.72a5.9,5.9,0,0,0-2.11-1.56,7.61,7.61,0,0,0-3.15-.58,8.55,8.55,0,0,0-2.79.46,6.85,6.85,0,0,0-2.44,1.46A7.25,7.25,0,0,0,143.73,71a9.15,9.15,0,0,0-.65,3.6,10.77,10.77,0,0,0,.73,4.23,7.21,7.21,0,0,0,1.91,2.67,6.8,6.8,0,0,0,2.69,1.4,12.26,12.26,0,0,0,3.07.4,10.3,10.3,0,0,0,3-.39,6.11,6.11,0,0,0,2-.91,1.67,1.67,0,0,0,.83-1.33,2.74,2.74,0,0,0-.43-1.27,9.86,9.86,0,0,0-.83-1.28l-.67.58a4.78,4.78,0,0,1-.86.58,5.55,5.55,0,0,1-1.13.45,5.3,5.3,0,0,1-1.46.18,3.83,3.83,0,0,1-3.15-1.21,5.3,5.3,0,0,1-1.13-3h9.76a3.58,3.58,0,0,0,.05-.45l0-.58c0-.2,0-.39,0-.56v-.47a9.22,9.22,0,0,0-.37-2.65A6.08,6.08,0,0,0,156,68.72Zm-8.35,4.46a4,4,0,0,1,.79-2.64,2.74,2.74,0,0,1,2.2-.94,2.38,2.38,0,0,1,2.2,1,4.89,4.89,0,0,1,.62,2.59Z"/><path class="cls-1" d="M174.28,70a4.15,4.15,0,0,0-1.46-2.45,5.4,5.4,0,0,0-3.48-.93,6.49,6.49,0,0,0-3.15.64,5.3,5.3,0,0,0-1.73,1.41,1.8,1.8,0,0,0-1-1.34,4.23,4.23,0,0,0-1.84-.38,5.93,5.93,0,0,0-.63,0l-.47,0-.4.07v15.7h4.55V72a1.5,1.5,0,0,1,.88-1.28,4.15,4.15,0,0,1,2.11-.52,3,3,0,0,1,1.34.25,1.53,1.53,0,0,1,.7.7,3.29,3.29,0,0,1,.27,1.08c0,.42,0,.87,0,1.36v9.16h4.51V73.38c0-.57,0-1.16-.05-1.76A9.26,9.26,0,0,0,174.28,70Z"/><path class="cls-1" d="M187,78.59a2.8,2.8,0,0,1-.33.3,3.07,3.07,0,0,1-.58.38c-.23.12-.49.23-.76.34a2.84,2.84,0,0,1-.88.14c-1.26,0-1.89-.77-1.89-2.32v-7.1h4.64V66.94h-4.64V64.62a2.92,2.92,0,0,0-.27-1.35,2.22,2.22,0,0,0-.7-.81,2.48,2.48,0,0,0-1-.4,6.34,6.34,0,0,0-1.06-.1L179,62l-.5.05-.5.07V77.5a14.41,14.41,0,0,0,.07,1.46,5.38,5.38,0,0,0,.3,1.39A4.28,4.28,0,0,0,180,82.44a5.55,5.55,0,0,0,3.22.8,8.06,8.06,0,0,0,2-.22,6.2,6.2,0,0,0,1.53-.56,3.41,3.41,0,0,0,1-.76,1.28,1.28,0,0,0,.35-.85,2.36,2.36,0,0,0-.26-1A13.1,13.1,0,0,0,187,78.59Z"/><path class="cls-1" d="M193.5,67.39a2.51,2.51,0,0,0-1-.38,5.51,5.51,0,0,0-1.06-.1c-.36,0-.69,0-1,0A2.71,2.71,0,0,0,190,67V80.32a2.49,2.49,0,0,0,.81,2.2,3.7,3.7,0,0,0,2.11.55c.35,0,.69,0,1,0a1.84,1.84,0,0,0,.61-.1V69.53a3,3,0,0,0-.27-1.34A2,2,0,0,0,193.5,67.39Z"/><path class="cls-1" d="M206.94,74l5.41-6.24A6.45,6.45,0,0,0,211,67a3.62,3.62,0,0,0-1.54-.31,2.64,2.64,0,0,0-1.41.36,5.37,5.37,0,0,0-1.15,1l-3.52,4a3.74,3.74,0,0,0-.86,1.66V61.86a3,3,0,0,0-.26-1.34,2.22,2.22,0,0,0-.7-.81,2.4,2.4,0,0,0-1-.4,5.54,5.54,0,0,0-1.07-.1,7.81,7.81,0,0,0-1,0,2.71,2.71,0,0,0-.53.08v23.4h4.51v-8a3.37,3.37,0,0,0,.73,1.66L207,81.35a4.59,4.59,0,0,0,1.56,1.34,4.65,4.65,0,0,0,2,.38,4.74,4.74,0,0,0,1.46-.23,4.32,4.32,0,0,0,1.16-.56Z"/><path class="cls-1" d="M192.08,59.31a2.38,2.38,0,0,0-1.73.68,2.5,2.5,0,0,0,0,3.47,2.41,2.41,0,0,0,1.73.66,2.45,2.45,0,0,0,1.71-.66,2.47,2.47,0,0,0,0-3.47A2.42,2.42,0,0,0,192.08,59.31Z"/><path class="cls-2" d="M119.57,69.41a2.41,2.41,0,0,0-1.71-.67,2.34,2.34,0,0,0-2.43,2.42,2.27,2.27,0,0,0,.7,1.72,2.38,2.38,0,0,0,1.73.67,2.41,2.41,0,0,0,1.71-.67,2.25,2.25,0,0,0,.71-1.72A2.34,2.34,0,0,0,119.57,69.41Z"/><path class="cls-2" d="M110.92,71.14,119.25,60a4.48,4.48,0,0,0-1.16-.56,4.7,4.7,0,0,0-1.46-.23,3.94,3.94,0,0,0-3.55,1.73l-7.58,10.2,7.58,10.21a4.59,4.59,0,0,0,1.56,1.34,4.65,4.65,0,0,0,2,.38,4.7,4.7,0,0,0,1.46-.23,4.18,4.18,0,0,0,1.16-.56Z"/><path class="cls-2" d="M111.35,60a4.55,4.55,0,0,0-1.17-.56,5.11,5.11,0,0,0-3.45.15,4.63,4.63,0,0,0-1.56,1.35l-7.58,10.2,7.58,10.21a4.59,4.59,0,0,0,1.56,1.34,5.11,5.11,0,0,0,3.45.15,4.39,4.39,0,0,0,1.17-.56L103,71.14Z"/><path class="cls-3" d="M216.58,83.1a2.17,2.17,0,0,1-1.61-.67,2.19,2.19,0,0,1-.67-1.62,2.28,2.28,0,0,1,4.56,0,2.19,2.19,0,0,1-.67,1.62A2.17,2.17,0,0,1,216.58,83.1Zm0-4.3a2,2,0,0,0-2,2,2,2,0,0,0,2,2,2,2,0,0,0,2-2,2,2,0,0,0-2-2Zm1.11,3.44h-.49l-.32-.7c-.16-.34-.33-.52-.52-.52h-.27v1.22h-.4v-2.9h.82a1.27,1.27,0,0,1,.78.21.7.7,0,0,1,.28.58.73.73,0,0,1-.2.51,1,1,0,0,1-.54.28h0q.24.06.48.54Zm-1.6-2.56v1h.44c.4,0,.6-.17.6-.5a.42.42,0,0,0-.16-.38.87.87,0,0,0-.51-.12Z"/><g id="Vert_RGB"><g id="outlines"><path class="cls-4" d="M85.51,50.9c-4-18.33-26-29.11-49.09-24.08S-2.22,50.78,1.76,69.1s26,29.11,49.09,24.08S89.49,69.22,85.51,50.9Zm-43.43,32A23.37,23.37,0,1,1,65.45,59.51,23.36,23.36,0,0,1,42.08,82.88Z"/><path class="cls-5" d="M47.91,30.56a29.9,29.9,0,1,0,29.9,29.9A29.9,29.9,0,0,0,47.91,30.56ZM42.08,82.5a23,23,0,1,1,23-23A23,23,0,0,1,42.08,82.5Z"/><path d="M33.85,57.22l-2.52-5.28c-.6-1.26-1.21-2.67-1.43-3.34l0,0c.08,1,.09,2.13.11,3.12L30,57.22H28.2V46h2.11L33,51.46a21.69,21.69,0,0,1,1.16,2.9l0,0c0-.57-.16-2.18-.16-3.2l0-5.14h1.77V57.22Z"/><path d="M39.17,53.59v.13c0,1.14.42,2.34,2,2.34a3,3,0,0,0,2-.81l.7,1.09a4.46,4.46,0,0,1-3,1.09c-2.33,0-3.79-1.67-3.79-4.31a4.49,4.49,0,0,1,1-3.22,3.12,3.12,0,0,1,2.52-1.1,3.16,3.16,0,0,1,2.25.84c.72.65,1.08,1.66,1.08,3.58v.37Zm1.58-3.44c-1,0-1.57.79-1.57,2.13h3C42.22,50.94,41.64,50.15,40.75,50.15Z"/><path d="M53.58,57.25H51.91l-1-3.79c-.26-1-.53-2.24-.53-2.24h0s-.13.81-.53,2.33l-1,3.7H47.13l-2.24-8.14,1.77-.25.89,4c.23,1,.43,2.16.43,2.16H48a21.82,21.82,0,0,1,.47-2.21l1-3.81h1.76l.93,3.71c.34,1.33.52,2.34.52,2.34h0s.2-1.25.41-2.21L54.06,49h1.85Z"/><path d="M32.44,71.7l-1-1.74a12,12,0,0,0-1.92-2.78.93.93,0,0,0-.73-.34V71.7H27V60.45h3.43c2.52,0,3.66,1.46,3.66,3.22a2.87,2.87,0,0,1-2.8,3.08A8.42,8.42,0,0,1,33,69l1.66,2.7ZM29.84,62h-1v3.56h1a2.44,2.44,0,0,0,1.83-.47,1.9,1.9,0,0,0,.51-1.37C32.12,62.54,31.5,62,29.84,62Z"/><path d="M37.12,68.07v.13c0,1.14.43,2.34,2,2.34a3,3,0,0,0,2.05-.81l.7,1.09a4.44,4.44,0,0,1-3,1.09c-2.32,0-3.78-1.68-3.78-4.31a4.46,4.46,0,0,1,1-3.22,3.14,3.14,0,0,1,2.52-1.1,3.2,3.2,0,0,1,2.26.84c.71.65,1.07,1.66,1.07,3.58v.37Zm1.58-3.44c-1,0-1.56.79-1.56,2.12h3C40.18,65.42,39.59,64.63,38.7,64.63Z"/><path d="M45.38,71.87c-1.81,0-1.81-1.62-1.81-2.32v-7a12.74,12.74,0,0,0-.16-2.4l1.84-.41A10,10,0,0,1,45.4,62v7c0,1.1,0,1.28.17,1.47a.5.5,0,0,0,.59.13l.29,1.11A2.76,2.76,0,0,1,45.38,71.87Z"/><path d="M48.48,62.25a1.16,1.16,0,0,1-1.15-1.18,1.18,1.18,0,1,1,1.15,1.18Zm-.89,9.45V63.6l1.8-.32V71.7Z"/><path d="M54.51,71.91c-2.24,0-3.49-1.58-3.49-4.23,0-3,1.79-4.42,3.62-4.42a3,3,0,0,1,2.28.89L56,65.34a2,2,0,0,0-1.38-.63,1.39,1.39,0,0,0-1.3.83A5.59,5.59,0,0,0,53,67.83a3.33,3.33,0,0,0,.55,2.24,1.45,1.45,0,0,0,1.09.47,2.36,2.36,0,0,0,1.66-.81l.85,1.09A3.43,3.43,0,0,1,54.51,71.91Z"/></g></g></g></svg>