<svg height="200" viewBox="0 0 200 200" width="200" xmlns="http://www.w3.org/2000/svg"><path d="m58.492188 8.9375h1.507812c4.757812 2.070312 7.300781 6.273438 10.566406 10.0625 9.472656 11.164062 19.253906 22.007812 28.425782 33.429688 2.027343 2.453124 3.65625 5.023437 3.835937 8.289062.472656 6.519531-3.570313 13.191406-5.871094 19.144531-4.65625 11.726563-10.863281 23.519531-14.164062 35.671875-.800781 6.65625 3.125 13.785156 6.554687 19.246094 3.445313 5.292969 6.070313 10.4375 10.328125 15.15625 1.835938 2.027344 4.253907 2.9375 5.296875 5.570312 1.066406 2.464844 1.328125 6.019532-1.507812 7.382813-2.707032.390625-4.84375-1.007813-6.546875-2.960937-4.316407-4.847657-10.535157-9.109376-17.152344-9.628907-5.945313-.507812-11.355469 2.917969-14.265625 7.964844-4.398438 7.84375-.699219 19.351563 7.675781 22.84375 2.617188 1.074219 5.582031 3.792969 5.535157 6.800781-.046876 2.328125-3.210938 1.617188-4.636719 1.207032-9.863281-3.179688-19.753907-9.261719-25.746094-17.878907-4.515625-6.382812-6.328125-14.472656-4.617187-22.136719 1.492187-5.710937 5.992187-9.835937 11.300781-12.082031 4.164062-1.792969 8.40625-2 12.871093-1.992187 4.773438.191406 8.984376 2.527344 13.800782 2.890625-1.117188-2.425781-2.636719-4.582031-4.171875-6.753907-5.328125-7.773437-10.820313-15.316406-15.71875-23.382812-1.347657-2.308594-2.835938-4.191406-2.875-6.988281-.289063-5.246094 2.511719-9.875 4.367187-14.582031 4.644532-12.011719 9.960938-23.554688 14.445313-35.65625 1.234375-2.863282.289062-5.828126-1-8.480469-2.019531-3.882813-5.109375-7.136719-7.402344-10.910157-3.636719-5.980468-8.652344-11.546874-11.480469-17.816406-.902344-1.664062-.082031-2.929687.644532-4.410156zm0 0" fill="#006"/><path d="m144.191406 65.746094c1.335938-.007813 2.683594-.019532 4.019532-.027344.019531 7.210938-.027344 14.410156.027343 21.609375 4.574219-.753906 9.15625-1.445313 13.726563-2.15625.019531 3.847656.007812 7.703125.019531 11.546875-4.582031.726562-9.171875 1.34375-13.753906 2.035156-.027344 6.820313-.019531 13.648438-.011719 20.472656 4.582031-.679687 9.164062-1.34375 13.746094-2.007812.019531 3.808594.007812 7.609375.027344 11.410156-4.589844.753906-9.179688 1.445313-13.773438 2.164063-.027344 7.671875 0 15.335937-.007812 23-1.34375 0-2.683594-.019531-4.019532-.027344-.027344-7.464844.019532-14.917969-.027344-22.382813-5.289062.855469-10.609374 1.527344-15.898437 2.363282.019531 7.707031.019531 15.425781 0 23.136718-1.371094-.019531-2.753906-.027343-4.128906-.054687-.007813-7.472656.011719-14.945313-.007813-22.417969-4.582031.535156-9.109375 1.382813-13.699218 1.835938-.019532-3.773438-.011719-7.554688-.011719-11.328125 4.574219-.652344 9.136719-1.363281 13.710937-2.015625 0-6.875.027344-13.746094-.019531-20.621094-4.554687.753906-9.109375 1.5-13.679687 2.101562-.019532-3.792968-.011719-7.589843-.011719-11.382812 4.566406-.734375 9.128906-1.453125 13.691406-2.109375.046875-7.417969.011719-14.828125.027344-22.246094 1.382812-.007812 2.757812-.015625 4.136719-.015625.011718 7.199219-.007813 14.40625.011718 21.609375 5.269532-.746093 10.535156-1.601562 15.824219-2.21875.164063-7.429687.027344-14.847656.082031-22.273437zm0 0" fill="#006"/><path d="m144.183594 99.382812c-.019532 6.835938.046875 13.679688-.035156 20.519532-5.300782.714844-10.574219 1.578125-15.863282 2.371094 0-6.871094-.046875-13.746094.027344-20.609376 5.296875-.699218 10.582031-1.535156 15.871094-2.28125zm0 0" fill="#fff"/></svg>