<svg height="200" viewBox="0 0 200 200" width="200" xmlns="http://www.w3.org/2000/svg"><g transform="translate(0 50)"><path d="m0 0h200v100h-200z" fill="#fff"/><path d="m78.265625 27.785156c1.207031-.0078 2.40625-.0078 3.605469-.0078-.01563 4.382812.15625 8.789062-.148438 13.160156 3.097656-4.082031 8.753906-4.730469 13.148438-2.476562 2.316406 1.40625 3.140625 3.972656 3.21875 6.554687.06641 5.546875 0 11.09375.01953 16.640625-1.191406.0039-2.386719.01172-3.582031.01563-.02344-5.011719-.01172-10.015625.0078-15.027344-.01953-1.433593-.03906-3.078125-.734375-4.367187-.691406-1.226563-1.941406-1.972656-3.3125-2.183594-2.167969-.347656-4.921875.01172-6.554687 1.605469-1.640625 1.691406-2.035156 4.367187-2.050782 6.621093-.01172 4.453126.03516 8.902344-.01172 13.347657-1.199219 0-2.398438 0-3.605469-.0078-.01563-11.292968-.01563-22.582031 0-33.875zm0 0"/><path d="m105.48828 27.785156c1.20703-.0078 2.40625-.0078 3.60547-.0078.0273 11.292968.0273 22.59375 0 33.890625-1.19922 0-2.39844 0-3.60547-.0078-.0156-11.292968-.0156-22.582031 0-33.875zm0 0"/><path d="m168.60937 29.082031c1.05079-.527343 2.5586-.01563 2.87891 1.179688.53516 1.632812-.043 3.617187-2.03906 3.648437-2.35938.05078-2.79297-4.039062-.83985-4.828125zm0 0"/><path d="m18.878906 29.910156c4.289063 10.546875 8.375 21.171875 12.554688 31.757813-1.078125-.132813-3.035156.355469-3.878906-.328125-1.410157-3.144532-2.554688-6.433594-3.832032-9.640625-3.476562-.06641-6.949218-.01563-10.421875-.05078-.75.06641-1.765625-.132813-2.410156.296874-1.375 3.183594-2.511719 6.476563-3.808594 9.695313-1.242187.01953-2.488281.02734-3.730469.02734 4.007813-10.234372 8.105469-20.44531 12.113282-30.679685.191406-1.488281 2.339844-.820312 3.414062-1.078125zm0 0"/><path d="m64.015625 32.289062c.667969-.06641 1.335937-.109374 2-.140624.02344 1.875.02344 3.746093.03516 5.617187 2.289063.01172 4.582031.0078 6.871094.02344v2.753907c-2.289063.01953-4.582031.01172-6.871094.02344-.02344 4.632813-.01172 9.273438-.02344 13.910156.03906 1.585938.07813 3.089844 1.394531 4.179688 1.507813 1.292969 3.917969.664062 5.71875.484375-.01172.84375-.01953 1.6875-.01953 2.53125-2.675782.632813-5.214844.984375-7.765625-.320313-2.070313-1.21875-2.871094-3.507812-2.898438-5.808593-.04687-4.976563.01563-9.960938-.01953-14.9375-1.160156-.03906-2.328125-.07813-3.488281-.132813.02734-.515625.05469-1.039062.08594-1.5625 1.074219-.53125 2.238282-.992187 3.238282-1.664062.816406-1.53125 1.003906-3.378906 1.742187-4.957032zm0 0"/><path d="m17.421875 34.332031c1.445313 4.757813 3.449219 9.289063 5.089844 13.984375-3.417969.02734-6.832031.02734-10.25 0 1.765625-4.648437 3.636719-9.25 5.160156-13.984375zm0 0" fill="#fff"/><path d="m123.06641 37.582031c3.52343-.875 7.70703-.320312 10.40625 2.273438 2.63671 2.460937 3.62109 6.074219 3.61718 9.582031.0508 3.234375-.48437 6.402344-2.51172 9.019531-2.97656 3.960938-9.17187 4.78125-13.43749 2.644531-3.40235-1.683593-5.21094-5.234374-5.70313-8.863281-.41016-3.34375-.10937-7.203125 1.62891-10.167969 1.33984-2.292968 3.42187-3.847656 6-4.488281zm0 0"/><path d="m150.05469 37.234375c2.09375-.183594 3.95703.53125 6.02734.542969 2.21875.03516 4.43359-.02344 6.65234.02344-.0195.734375-.0273 1.460938-.0391 2.195313-1.40234.191406-2.80078.359375-4.19922.574218 1.79297 3.0625 2.0586 6.933594-.47265 9.667969-2.375 2.433594-5.37891 2.550781-8.57422 2.566407-2.33985-.320313-4.1875 4.039062-1.40625 4.734374 3.10156.671876 6.67969-.273437 9.8164.667969 1.76172.460938 3.30079 1.519531 4.05079 3.214844 1.19531 2.816406.3789 6.507813-2.125 8.355469-2.33594 1.832031-5.80079 2.3125-8.67969 2.457031-2.82813.09375-6.23828-.210937-8.56641-2-2.6289-2-3.01172-6.09375-.89453-8.601563.92188-1.070312 2.14844-1.582031 3.38281-2.203124-.72265-1.070313-1.64453-1.941407-1.60547-3.324219-.0312-1.921875 1.35157-2.859375 2.59375-4.054688-1.24218-.96875-2.40625-1.84375-3.10937-3.304687-1.21875-2.65625-.97266-6.050782.71484-8.453125 1.53516-2.054688 3.97266-2.832031 6.4336-3.058594zm0 0"/><path d="m194.65625 38.253906c-.32813.917969-.65625 1.835938-.96875 2.75-2.46484-.585937-4.75-1.449218-7.31641-.777344-2.07812.5-3.60547 2.105469-4.3164 4.078126-.9375 2.601562-.9375 5.605468-.64844 8.324218.37109 2.578125 1.52344 5.308594 4.10937 6.335938 2.73829 1.140625 6.07813.117187 8.79688-.644532 0 .941407 0 1.878907.004 2.824219-3.54297 1.398438-7.98438 1.617188-11.44532-.128906-2.91015-1.527344-4.57812-4.527344-5.09375-7.695313-.48828-3.179687-.39843-6.691406.76172-9.730468.96485-2.5625 2.96094-4.691406 5.5625-5.625 3.49219-1.277344 7.08594-.824219 10.55469.289062zm0 0"/><path d="m34.707031 37.855469c1.1875-.117188 2.414063-.08984 3.613281-.09375.03516 5.199219 0 10.398437.0078 15.597656.02734 1.546875.144531 3.136719 1.117187 4.40625 1.039063 1.351563 2.828126 1.710937 4.4375 1.707031 2.023438.01563 4.246094-.628906 5.515626-2.300781 1.363281-1.957031 1.546874-4.28125 1.566406-6.59375.0078-4.265625-.01953-8.535156.0078-12.800781h3.609375c.01172 7.960937.02734 15.921875-.01172 23.882812-.964843.0078-1.929687.01172-2.898437.02344-.210937-.976563-.40625-1.960938-.609375-2.9375-1.652344 1.621094-3.394531 2.964844-5.75 3.324218-2.812474.472655-6.550755.062498-8.652318-2.070314-1.765625-1.894531-2.003906-4.726562-2-7.195312.03906-4.984376-.05859-9.972657.04687-14.949219zm0 0"/><path d="m167.71094 37.785156c1.20703-.0078 2.40625-.0078 3.60547-.0078.0273 7.960937.0273 15.929687 0 23.890625-1.19922 0-2.39844 0-3.60547-.0078-.0156-7.960937-.0156-15.914062 0-23.875zm0 0"/><g fill="#fff"><path d="m124.60547 40.117188c2.43359-.4375 4.96094.05078 6.64062 1.964843 1.84375 2.101563 2.17578 5.246094 2.16016 7.921875-.0781 2.53125-.42969 5.378906-2.16016 7.355469-2.07422 2.429687-6 2.691406-8.67968 1.195313-2.39844-1.453126-3.23438-4.269532-3.46485-6.90625-.1914-2.976563-.17187-6.238282 1.45313-8.859376.89453-1.46875 2.375-2.371093 4.05078-2.671874zm0 0"/><path d="m149.60547 40.078125c2.26172-.34375 5.22265.06641 6.2539 2.417969.95313 2.1875.65625 6.046875-1.94921 7.003906-2.13282.871094-5.21485.753906-6.97657-.871094-2.3789-2.683594-1.32422-8.066406 2.67188-8.550781zm0 0"/><path d="m146.91797 60.816406c2.25-.496094 4.70312-.210937 7.0039-.265625 1.33204.07813 3.34375.136719 4.3125 1.199219 1.4375 1.921875.67188 4.988281-1.35156 6.210938-2.09765 1.332031-4.99219 1.578124-7.42578 1.496093-1.66797-.07422-3.74609-.453125-4.90625-1.773437-1.74609-2.367188-.58594-6.140625 2.36719-6.867188zm0 0"/></g></g></svg>