<?xml version="1.0" encoding="UTF-8" standalone="no"?>
<!DOCTYPE svg PUBLIC "-//W3C//DTD SVG 1.1//EN" "http://www.w3.org/Graphics/SVG/1.1/DTD/svg11.dtd">
<svg width="100%" height="100%" viewBox="0 0 2436 866" version="1.1" xmlns="http://www.w3.org/2000/svg" xmlns:xlink="http://www.w3.org/1999/xlink" xml:space="preserve" xmlns:serif="http://www.serif.com/" style="fill-rule:evenodd;clip-rule:evenodd;stroke-linejoin:round;stroke-miterlimit:2;">
    <g transform="matrix(1,0,0,1,-399.413,-235.538)">
        <g transform="matrix(4.16667,0,0,4.16667,913.87,242.196)">
            <path d="M0,81.906C6.083,45.281 51.385,1.296 56.055,-1.598C37.602,37.229 107.342,52.498 103.95,83.504C95.852,73.873 0,81.906 0,81.906" style="fill:rgb(0,37,97);fill-rule:nonzero;"/>
        </g>
        <g transform="matrix(413.842,0,0,-413.842,929.593,252.627)">
            <path d="M0,-0.773C0,-0.773 0.917,-0.747 0.999,-0.844C1.033,-0.532 0.31,-0.391 0.496,0C0.442,-0.06 0.088,-0.399 0,-0.773Z" style="fill:url(#_Linear1);fill-rule:nonzero;"/>
        </g>
        <g transform="matrix(4.16667,0,0,4.16667,994.853,376.26)">
            <path d="M0,30.102C2.168,18.914 18.151,-2.621 27.405,-6.711C26.514,-4.657 11.849,7.899 4.662,27.248C3.253,31.842 -1.146,36.813 0,30.102" style="fill:rgb(0,37,97);fill-rule:nonzero;"/>
        </g>
        <g transform="matrix(4.16667,0,0,4.16667,1039.82,410.139)">
            <path d="M0,27.532C0.904,18.018 12.526,-1.413 19.937,-5.692C19.359,-3.898 8.109,7.937 3.669,24.716C2.864,28.672 -0.413,33.224 0,27.532" style="fill:rgb(0,37,97);fill-rule:nonzero;"/>
        </g>
        <g transform="matrix(4.16667,0,0,4.16667,1080.97,441.573)">
            <path d="M0,25.559C0.54,16.925 10.499,-1.04 17.087,-5.161C16.615,-3.519 6.771,7.565 3.241,22.888C2.628,26.492 -0.208,30.72 0,25.559" style="fill:rgb(0,37,97);fill-rule:nonzero;"/>
        </g>
        <g transform="matrix(4.16667,0,0,4.16667,1312.1,846.589)">
            <path d="M0,3.007C-7.134,2.509 -11.319,6.88 -13.335,14.304C-18.981,4.31 -15.276,-7.936 -12.833,-11.297C-7.864,-6.607 0,3.007 0,3.007" style="fill:rgb(0,37,97);fill-rule:nonzero;"/>
        </g>
        <g transform="matrix(-47.7504,82.3738,82.3738,47.7504,1303.98,811.884)">
            <path d="M0.953,-0.018C0.66,-0.096 0.476,0.046 0.313,0.236C0.313,0.236 0.206,-0.128 0.144,-0.39C0.307,-0.407 0.664,-0.363 0.953,-0.018Z" style="fill:url(#_Linear2);fill-rule:nonzero;"/>
        </g>
        <g transform="matrix(4.16667,0,0,4.16667,1371.96,822.488)">
            <path d="M0,10.583C3.355,8.079 6.48,8.884 9.306,11.865C9.368,5.94 4.893,-0.417 2.868,-1.282C1.609,2.58 0,10.583 0,10.583" style="fill:rgb(0,37,97);fill-rule:nonzero;"/>
        </g>
        <g transform="matrix(44.8198,26.718,-26.718,44.8198,1362.46,840.414)">
            <path d="M0.341,0.244C0.495,0.034 0.566,-0.146 0.851,-0.066C0.566,-0.437 0.278,-0.439 0.121,-0.418C0.186,-0.133 0.341,0.244 0.341,0.244Z" style="fill:url(#_Linear3);fill-rule:nonzero;"/>
        </g>
        <g transform="matrix(-0.0668501,4.16613,4.16613,0.0668501,1285.83,799.856)">
            <path d="M48.751,-22.592C28.395,-6.135 21.831,1.962 21.566,18.705C21.161,44.27 48.751,48.4 48.751,48.4C48.751,48.4 38.158,30.339 38.426,14.211C38.718,-3.424 48.751,-22.592 48.751,-22.592" style="fill:rgb(0,37,97);fill-rule:nonzero;"/>
        </g>
        <g transform="matrix(103.495,189.822,189.822,-103.495,1279.14,854.938)">
            <path d="M0.366,0.244C0.228,-0.01 0.247,-0.181 0.378,-0.581C0.378,-0.581 0.407,-0.218 0.552,0.05C0.685,0.294 0.978,0.486 0.978,0.486C0.978,0.486 0.577,0.631 0.367,0.245C0.367,0.244 0.366,0.244 0.366,0.244Z" style="fill:url(#_Linear4);fill-rule:nonzero;"/>
        </g>
        <g transform="matrix(-2.75,3.13027,3.13027,2.75,1512.25,555.478)">
            <path d="M95.411,-106.579C95.411,-106.579 53.151,-112.735 37.74,-84.35C-9.268,2.229 99.504,39.079 95.411,27.394C67.443,-52.431 122.009,-32.675 127.938,-57.262C133.969,-82.27 95.411,-106.579 95.411,-106.579" style="fill:rgb(0,37,97);fill-rule:nonzero;"/>
        </g>
        <g transform="matrix(307.193,572.913,572.913,-307.193,1124.08,328.022)">
            <path d="M0.179,-0.459C0.179,-0.459 0.362,-0.603 0.499,-0.511C0.544,-0.481 0.549,-0.428 0.556,-0.372C0.57,-0.261 0.591,-0.135 0.953,-0.146C1.03,-0.149 0.572,0.384 0.183,-0.063C0.171,-0.077 0.161,-0.092 0.153,-0.108C0.07,-0.261 0.179,-0.459 0.179,-0.459Z" style="fill:url(#_Linear5);fill-rule:nonzero;"/>
        </g>
        <g transform="matrix(-2.62642,3.23466,3.23466,2.62642,1276.99,696.753)">
            <path d="M32.763,-58.344C32.763,-58.344 34.737,-61.86 10.384,-48.813C-43.025,-20.199 37.622,58.678 32.763,47.144C0.349,-29.816 57.595,-13.875 62.869,-39.036C68.234,-64.63 32.763,-58.344 32.763,-58.344" style="fill:rgb(0,37,97);fill-rule:nonzero;"/>
        </g>
        <g transform="matrix(447.824,76.548,76.548,-447.824,919.567,688.853)">
            <path d="M0.317,0.264C0.082,0.17 0.14,0.128 0.14,0.128C0.14,0.128 -0.07,-0.127 0.159,-0.199C0.236,-0.223 0.301,-0.178 0.373,-0.131C0.512,-0.041 0.674,0.053 0.983,-0.346C1.018,-0.391 0.981,-0.19 0.872,-0.002C0.775,0.167 0.619,0.326 0.406,0.29C0.377,0.285 0.348,0.277 0.317,0.264Z" style="fill:url(#_Linear6);fill-rule:nonzero;"/>
        </g>
        <g transform="matrix(4.16667,0,0,4.16667,1203.25,784.202)">
            <path d="M0,-16.386C-7.182,-7.628 -10.183,6.277 -3.98,20.933C-24.783,11.55 -36.049,-11.551 -36.199,-20.447C-23.048,-37.319 0,-16.386 0,-16.386" style="fill:rgb(0,37,97);fill-rule:nonzero;"/>
        </g>
        <g transform="matrix(-76.9616,617.163,617.163,76.9616,1195.58,443.47)">
            <path d="M0.439,-0.164C0.492,-0.157 0.608,-0.087 0.659,0.046C0.566,0.011 0.517,0.01 0.439,0.051C0.439,0.051 0.385,-0.029 0.394,-0.096C0.397,-0.123 0.41,-0.147 0.439,-0.164Z" style="fill:url(#_Linear7);fill-rule:nonzero;"/>
        </g>
        <g transform="matrix(4.16667,0,0,4.16667,1207.67,655.691)">
            <path d="M0,-27.048C7.15,-18.534 6.666,-3.869 -4.619,0C4.686,-12.642 1.365,-21.894 0,-27.048" style="fill:rgb(0,37,97);fill-rule:nonzero;"/>
        </g>
        <g transform="matrix(4.16667,0,0,4.16667,1279.51,692.687)">
            <path d="M0,-19.99C2.267,-10.912 -3.509,0 -13.472,-1.236C-1.77,-7.366 -0.869,-15.588 0,-19.99" style="fill:rgb(0,37,97);fill-rule:nonzero;"/>
        </g>
        <g transform="matrix(4.16667,0,0,4.16667,1308.99,733.739)">
            <path d="M0,-10.787C-0.29,-5.216 -5.485,0 -10.951,-2.442C-3.21,-3.897 -1.263,-8.428 0,-10.787" style="fill:rgb(0,37,97);fill-rule:nonzero;"/>
        </g>
        <g transform="matrix(4.12469,-0.589927,-0.589927,-4.12469,913.373,615.702)">
            <path d="M-2.329,-0.042C5.992,0.083 13.517,5.824 13.386,14.514C13.255,23.205 5.992,33.11 -2.329,32.985C-10.651,32.859 -17.152,21.881 -17.023,13.191C-16.892,4.501 -10.651,-0.167 -2.329,-0.042" style="fill:rgb(0,37,97);fill-rule:nonzero;"/>
        </g>
        <g transform="matrix(4.16667,0,0,4.16667,0,0)">
            <clipPath id="_clip8">
                <path d="M212.433,116.601C204.801,117.81 200.269,128.755 201.531,136.725C202.793,144.695 209.143,148.166 216.775,146.957C224.406,145.749 230.567,139.482 229.305,131.511C228.126,124.075 221.102,116.482 213.967,116.481C213.455,116.481 212.944,116.52 212.433,116.601Z" clip-rule="nonzero"/>
            </clipPath>
            <g clip-path="url(#_clip8)">
                <g transform="matrix(27.8998,-4.41889,-4.41889,-27.8998,198.688,118.778)">
                    <rect x="0" y="-1.085" width="1" height="1.085" style="fill:url(#_Linear9);"/>
                </g>
                <g transform="matrix(1,0,0,1,196.162,90.8294)">
                    <path d="M0,49.984C3.946,41.333 26.188,33.637 37.988,41.12C35.663,24.515 24.199,0 15.86,3.467C7.521,6.933 0,49.984 0,49.984" style="fill:rgb(0,37,97);fill-rule:nonzero;"/>
                </g>
            </g>
        </g>
        <g transform="matrix(-133.776,184.719,184.719,133.776,933.684,400.645)">
            <path d="M0.427,0.047C0.513,-0.039 0.68,-0.014 0.792,0.06C0.652,0.11 0.502,0.241 0.427,0.407C0.361,0.305 0.344,0.158 0.409,0.068C0.415,0.061 0.421,0.053 0.427,0.047Z" style="fill:url(#_Linear10);fill-rule:nonzero;"/>
        </g>
        <g transform="matrix(4.16667,0,0,4.16667,801.962,830.34)">
            <path d="M0,-36.175L3.405,-12.715L9.097,-13.076L14.032,7.192L70.9,-24.966L62.963,-43.367L0,-36.175Z" style="fill:rgb(0,37,97);fill-rule:nonzero;"/>
        </g>
        <g transform="matrix(-2.51196,-3.32433,-3.32433,2.51196,814.43,828.512)">
            <path d="M-3.374,-10.246C-1.527,-5.364 -3.075,6.427 -3.075,6.427L-3.374,6.402L-8.992,-7.547C-8.992,-7.547 -5.221,-15.129 -3.374,-10.246" style="fill:rgb(0,37,97);fill-rule:nonzero;"/>
        </g>
        <g transform="matrix(348.055,-118.149,-118.149,-348.055,762.156,769.582)">
            <path d="M0.196,0.19L0.156,-0.056L0.213,-0.066L0.189,-0.296L0.889,-0.225L0.871,0.043L0.196,0.19Z" style="fill:url(#_Linear11);fill-rule:nonzero;"/>
        </g>
        <g transform="matrix(4.16667,0,0,4.16667,1060.73,841.913)">
            <path d="M0,-64.395C-2.954,-81.439 -31.974,-82.553 -32.203,-82.456C-49.574,-71.535 -52.483,-39.922 -156.093,-40.627C-159.661,-40.622 -159.693,-37.392 -155.556,-37.11C-133.8,-35.274 -11.532,-35.955 -1.824,-39.097C-0.005,-39.686 -0.979,-38.432 -2.063,-37.317C-10.244,-28.898 -34.91,-21.706 -34.91,-21.706C-34.91,-21.706 -4.93,-29.965 -1.068,-31.924C0.314,-32.625 0.985,-31.795 -0.215,-30.717C-11.06,-20.979 -32.463,-6.207 -62.25,3.302C-29.04,18.158 30.819,-30.561 27.185,-47.568C24.617,-62.385 8.509,-65.417 0,-64.395" style="fill:rgb(0,37,97);fill-rule:nonzero;"/>
        </g>
        <g transform="matrix(85.3866,480.195,480.195,-85.3866,891.527,325.347)">
            <path d="M0.581,-0.827C0.69,-0.237 0.742,0.064 0.672,0.165C0.655,0.204 0.605,0.227 0.581,0.236C0.414,0.219 0.37,0.095 0.324,0.031C0.418,-0.001 0.658,-0.198 0.581,-0.827Z" style="fill:url(#_Linear12);fill-rule:nonzero;"/>
        </g>
        <g transform="matrix(3.35381,-2.47246,-2.47246,-3.35381,976.46,497.781)">
            <path d="M-16.838,-34.459C-12.461,-35.17 -8.35,-32.084 -6.642,-30.444C-2.424,-14.576 -12.082,-18.268 -16.838,-10.471C-27.159,-19.477 -62.869,-5.873 -122.388,37.19C-67.843,-6.491 -29.372,-34.91 -16.838,-34.459" style="fill:rgb(0,37,97);fill-rule:nonzero;"/>
        </g>
        <g transform="matrix(182.79,495.474,495.474,-182.79,851.767,441.449)">
            <path d="M0.276,-0.553C0.387,-0.269 0.5,0.063 0.526,0.195C0.538,0.258 0.513,0.262 0.491,0.252C0.509,0.278 0.534,0.289 0.557,0.285C0.675,0.264 0.739,-0.048 0.716,-0.319C0.832,-0.144 0.713,0.364 0.577,0.415C0.47,0.442 0.414,0.332 0.387,0.267C0.387,0.268 0.386,0.268 0.386,0.267C0.383,0.259 0.452,0.04 0.276,-0.553Z" style="fill:url(#_Linear13);fill-rule:nonzero;"/>
        </g>
        <g transform="matrix(4.1247,-0.58987,-0.58987,-4.1247,1004.07,622.732)">
            <path d="M-3.013,-0.055C7.752,0.107 17.484,7.534 17.316,18.775C17.146,30.015 7.752,42.828 -3.013,42.667C-13.777,42.505 -22.187,28.304 -22.019,17.062C-21.849,5.822 -13.777,-0.216 -3.013,-0.055" style="fill:rgb(0,37,97);fill-rule:nonzero;"/>
        </g>
        <g transform="matrix(4.16667,0,0,4.16667,0,0)">
            <clipPath id="_clip14">
                <path d="M232.278,109.523C222.601,111.055 216.852,124.935 218.453,135.041C220.055,145.148 228.106,149.548 237.784,148.016C247.46,146.483 255.272,138.537 253.672,128.431C252.178,119 243.27,109.371 234.223,109.371C233.574,109.371 232.926,109.42 232.278,109.523Z" clip-rule="nonzero"/>
            </clipPath>
            <g clip-path="url(#_clip14)">
                <g transform="matrix(2.95593,-45.71,-45.71,-2.95593,235.476,151.626)">
                    <rect x="0.035" y="-0.413" width="0.897" height="0.856" style="fill:url(#_Linear15);"/>
                </g>
                <g transform="matrix(0.997858,0.0654131,0.0654131,-0.997858,235.489,137.809)">
                    <path d="M0.53,-0.017C5.064,-0.018 8.738,3.61 8.739,8.085C8.738,12.56 5.063,16.188 0.53,16.187C-4.004,16.188 -7.678,12.56 -7.679,8.085C-7.678,3.611 -4.004,-0.018 0.53,-0.017" style="fill:rgb(0,37,97);fill-rule:nonzero;"/>
                </g>
            </g>
        </g>
        <g transform="matrix(28.7678,1.88554,1.88554,-28.7678,985.687,539.56)">
            <path d="M-1,0C-1,-0.545 -0.552,-0.987 0,-0.987C0.552,-0.987 1,-0.545 1,0C1,0.545 0.552,0.987 0,0.987C-0.023,0.987 -0.045,0.986 -0.067,0.985C-0.588,0.951 -1,0.523 -1,0Z" style="fill:url(#_Radial16);fill-rule:nonzero;"/>
        </g>
        <g transform="matrix(4.16667,0,0,4.16667,0,0)">
            <clipPath id="_clip17">
                <path d="M232.278,109.523C222.601,111.055 216.852,124.935 218.453,135.041C220.055,145.148 228.106,149.548 237.784,148.016C247.46,146.483 255.272,138.537 253.672,128.431C252.178,119 243.27,109.371 234.223,109.371C233.574,109.371 232.926,109.42 232.278,109.523Z" clip-rule="nonzero"/>
            </clipPath>
            <g clip-path="url(#_clip17)">
                <g transform="matrix(-0.870326,0.492476,0.492476,0.870326,241.322,131.399)">
                    <path d="M3.105,-6.836C-0.503,-2.721 0.582,1.468 6.203,-1.674C3.782,-1.061 3.181,-1.792 3.105,-2.508C3.012,-3.394 4.483,-4.472 5.835,-4.814C4.519,-4.897 3.105,-6.836 3.105,-6.836" style="fill:rgb(0,37,97);fill-rule:nonzero;"/>
                </g>
                <g transform="matrix(0.994033,-0.109076,-0.109076,-0.994033,235.091,131.747)">
                    <path d="M-0.08,-0.004C0.781,-0.004 1.478,0.322 1.479,0.724C1.479,1.127 0.782,1.453 -0.08,1.453C-0.94,1.454 -1.637,1.127 -1.637,0.725C-1.638,0.323 -0.94,-0.005 -0.08,-0.004" style="fill:white;fill-rule:nonzero;"/>
                </g>
                <g transform="matrix(1,0,0,1,212.276,97.1949)">
                    <path d="M0,41.031C5.59,36.354 32.115,27.405 48.055,33.373C43.417,19.86 26.226,0 15.827,2.921C5.429,5.842 0,41.031 0,41.031" style="fill:rgb(0,37,97);fill-rule:nonzero;"/>
                </g>
            </g>
        </g>
        <g transform="matrix(-162.368,194.723,194.723,162.368,1046.27,398.356)">
            <path d="M0.374,-0.091C0.487,-0.19 0.698,-0.133 0.816,-0.023C0.679,0.048 0.477,0.195 0.374,0.361C0.282,0.241 0.261,0.041 0.351,-0.068C0.358,-0.076 0.366,-0.084 0.374,-0.091Z" style="fill:url(#_Linear18);fill-rule:nonzero;"/>
        </g>
        <g transform="matrix(4.16667,0,0,4.16667,1565.43,817.227)">
            <path d="M0,-87.824C-8.411,-87.824 -15.23,-81.006 -15.23,-72.594L-15.23,-15.23C-15.23,-6.819 -8.411,0 0,0L124.018,0C132.429,0 139.248,-6.819 139.248,-15.23L139.248,-72.594C139.248,-81.006 132.429,-87.824 124.018,-87.824L0,-87.824Z" style="fill:rgb(104,189,69);fill-rule:nonzero;"/>
        </g>
        <g transform="matrix(4.16667,0,0,4.16667,2005.9,817.227)">
            <path d="M0,-87.824L0,0L183.669,0C192.081,0 198.899,-6.819 198.899,-15.23L198.899,-72.594C198.899,-81.006 192.081,-87.824 183.669,-87.824L0,-87.824Z" style="fill:rgb(63,114,164);fill-rule:nonzero;"/>
        </g>
        <g transform="matrix(4.16667,0,0,4.16667,1629.64,678.161)">
            <path d="M0,-26.388C0.723,-26.484 1.493,-26.544 2.313,-26.569C3.132,-26.592 3.928,-26.605 4.699,-26.605C10.338,-26.605 14.459,-25.255 17.062,-22.556C19.664,-19.857 20.965,-15.88 20.965,-10.628C20.965,-5.615 19.603,-1.687 16.881,1.156C14.157,4.001 9.977,5.422 4.338,5.422C3.373,5.422 2.542,5.41 1.844,5.385C1.144,5.362 0.53,5.326 0,5.277L0,-26.388ZM30.581,-22.267C29.231,-25.496 27.303,-28.147 24.797,-30.22C22.29,-32.291 19.29,-33.81 15.796,-34.774C12.301,-35.738 8.41,-36.22 4.121,-36.22C2.097,-36.22 -0.325,-36.135 -3.145,-35.967C-5.964,-35.798 -8.675,-35.472 -11.278,-34.991L-11.278,13.808C-8.675,14.339 -6.025,14.687 -3.326,14.856C-0.627,15.024 1.735,15.109 3.759,15.109C8.193,15.109 12.193,14.578 15.76,13.519C19.326,12.459 22.35,10.869 24.833,8.747C27.315,6.627 29.231,3.952 30.581,0.722C31.929,-2.506 32.605,-6.29 32.605,-10.628C32.605,-15.158 31.929,-19.038 30.581,-22.267M70.133,11.133C73.965,8.483 75.88,4.53 75.88,-0.723C75.88,-3.326 75.302,-5.663 74.145,-7.736C72.989,-9.808 70.82,-11.447 67.639,-12.652C71.494,-14.965 73.422,-18.122 73.422,-22.123C73.422,-24.773 72.88,-27.003 71.796,-28.81C70.711,-30.617 69.204,-32.074 67.277,-33.184C65.349,-34.292 63.048,-35.075 60.373,-35.533C57.698,-35.991 54.77,-36.22 51.589,-36.22C49.227,-36.22 46.673,-36.112 43.926,-35.895C41.179,-35.678 38.649,-35.353 36.335,-34.919L36.335,13.663C39.274,14.29 42.106,14.687 44.83,14.856C47.552,15.024 50.288,15.109 53.035,15.109C60.601,15.109 66.301,13.784 70.133,11.133M54.409,-7.375C57.637,-7.375 60.12,-6.88 61.855,-5.892C63.59,-4.904 64.458,-3.254 64.458,-0.94C64.458,1.662 63.421,3.446 61.349,4.409C59.276,5.374 56.553,5.855 53.18,5.855C52.023,5.855 50.962,5.832 49.999,5.783C49.034,5.736 48.143,5.663 47.324,5.566L47.324,-7.375L54.409,-7.375ZM47.324,-26.894C48.192,-26.99 49.179,-27.05 50.288,-27.075C51.396,-27.099 52.432,-27.111 53.397,-27.111C56.385,-27.111 58.649,-26.701 60.192,-25.882C61.734,-25.062 62.506,-23.641 62.506,-21.617C62.506,-19.64 61.758,-18.206 60.265,-17.315C58.77,-16.423 56.289,-15.978 52.818,-15.978L47.324,-15.978L47.324,-26.894ZM107.038,14.458L111.737,14.458L111.737,-18.363C112.171,-18.555 113.17,-18.772 114.737,-19.014C116.303,-19.255 118.219,-19.375 120.485,-19.375C122.509,-19.375 124.135,-19.074 125.364,-18.472C126.593,-17.869 127.545,-16.977 128.22,-15.797C128.894,-14.615 129.341,-13.122 129.558,-11.315C129.774,-9.507 129.883,-7.375 129.883,-4.917L129.883,14.458L134.582,14.458L134.582,-6.796C134.582,-8.531 134.474,-10.182 134.257,-11.748C134.04,-13.314 133.714,-14.724 133.281,-15.978C133.521,-16.17 133.919,-16.459 134.474,-16.845C135.027,-17.23 135.739,-17.616 136.606,-18.002C137.474,-18.387 138.497,-18.712 139.679,-18.978C140.859,-19.242 142.173,-19.375 143.619,-19.375C145.546,-19.375 147.113,-19.074 148.318,-18.472C149.522,-17.869 150.451,-16.977 151.101,-15.797C151.752,-14.615 152.186,-13.122 152.403,-11.315C152.619,-9.507 152.728,-7.375 152.728,-4.917L152.728,14.458L157.427,14.458L157.427,-6.435C157.427,-8.94 157.258,-11.254 156.921,-13.375C156.583,-15.495 155.933,-17.315 154.969,-18.833C154.004,-20.351 152.643,-21.532 150.884,-22.376C149.124,-23.218 146.824,-23.641 143.98,-23.641C142.245,-23.641 140.666,-23.471 139.245,-23.135C137.823,-22.797 136.581,-22.387 135.522,-21.906C134.461,-21.423 133.581,-20.953 132.883,-20.496C132.184,-20.037 131.714,-19.712 131.473,-19.52C129.352,-22.267 125.93,-23.641 121.207,-23.641C117.64,-23.641 114.737,-23.399 112.496,-22.918C110.255,-22.436 108.435,-22.002 107.038,-21.617L107.038,14.458ZM170.852,10.663C169.67,10.399 168.658,9.976 167.815,9.398C166.971,8.819 166.321,8.049 165.863,7.084C165.405,6.121 165.176,4.94 165.176,3.542C165.176,1.951 165.513,0.675 166.189,-0.29C166.863,-1.253 167.73,-2.012 168.791,-2.567C169.851,-3.12 171.007,-3.482 172.261,-3.651C173.514,-3.82 174.719,-3.904 175.876,-3.904C177.9,-3.904 179.491,-3.771 180.647,-3.507C181.804,-3.241 182.647,-2.988 183.178,-2.748L183.178,10.41C182.213,10.603 181.045,10.76 179.672,10.88C178.298,11.001 176.695,11.061 174.864,11.061C173.369,11.061 172.032,10.928 170.852,10.663M168.249,-23.279C166.538,-22.942 165.272,-22.58 164.454,-22.195L165.104,-18.074C165.73,-18.315 166.718,-18.628 168.068,-19.014C169.417,-19.399 171.466,-19.592 174.213,-19.592C176.14,-19.592 177.695,-19.291 178.876,-18.689C180.057,-18.085 180.973,-17.29 181.623,-16.303C182.274,-15.315 182.695,-14.206 182.889,-12.977C183.081,-11.748 183.178,-10.483 183.178,-9.182L183.178,-6.868C182.985,-6.964 182.636,-7.073 182.13,-7.194C181.623,-7.314 181.02,-7.434 180.322,-7.555C179.623,-7.675 178.9,-7.772 178.153,-7.844C177.406,-7.917 176.695,-7.953 176.021,-7.953C173.755,-7.953 171.658,-7.736 169.731,-7.302C167.803,-6.868 166.14,-6.182 164.743,-5.242C163.344,-4.302 162.26,-3.109 161.489,-1.663C160.718,-0.217 160.333,1.518 160.333,3.542C160.333,5.663 160.682,7.458 161.381,8.928C162.079,10.399 163.044,11.603 164.273,12.543C165.502,13.482 166.948,14.169 168.61,14.603C170.273,15.037 172.092,15.254 174.069,15.254C175.611,15.254 177.116,15.193 178.587,15.073C180.057,14.952 181.394,14.795 182.599,14.603C183.804,14.411 184.864,14.23 185.78,14.061C186.695,13.893 187.395,13.736 187.877,13.591L187.877,-9.977C187.877,-11.953 187.635,-13.784 187.154,-15.472C186.672,-17.158 185.9,-18.616 184.841,-19.845C183.78,-21.074 182.394,-22.038 180.684,-22.737C178.972,-23.435 176.888,-23.785 174.43,-23.785C172.02,-23.785 169.959,-23.616 168.249,-23.279M198.691,-22.809C196.57,-22.255 194.907,-21.713 193.703,-21.183L193.703,14.458L198.402,14.458L198.402,-18.291C198.787,-18.483 199.595,-18.725 200.824,-19.014C202.053,-19.303 203.68,-19.448 205.704,-19.448C207.631,-19.448 209.185,-19.339 210.367,-19.122C211.547,-18.906 212.33,-18.7 212.716,-18.508L213.656,-22.556C213.125,-22.797 212.174,-23.038 210.801,-23.279C209.427,-23.52 207.969,-23.641 206.427,-23.641C203.39,-23.641 200.812,-23.363 198.691,-22.809M225.57,11.205C224.605,11.061 223.774,10.892 223.076,10.699C222.376,10.507 221.811,10.205 221.377,9.795C220.943,9.387 220.618,8.832 220.401,8.133C220.184,7.435 220.076,6.506 220.076,5.349L220.076,-41.642L215.376,-40.775L215.376,5.494C215.376,7.278 215.581,8.76 215.991,9.94C216.4,11.122 217.003,12.085 217.798,12.832C218.593,13.58 219.581,14.133 220.762,14.495C221.943,14.856 223.329,15.061 224.919,15.109L225.57,11.205ZM232.574,-22.918L227.875,-22.918L227.875,14.458L232.574,14.458L232.574,-22.918ZM232.647,-36.835C231.971,-37.485 231.152,-37.811 230.189,-37.811C229.224,-37.811 228.405,-37.485 227.731,-36.835C227.055,-36.184 226.719,-35.304 226.719,-34.196C226.719,-33.087 227.055,-32.208 227.731,-31.557C228.405,-30.906 229.224,-30.581 230.189,-30.581C231.152,-30.581 231.971,-30.906 232.647,-31.557C233.321,-32.208 233.659,-33.087 233.659,-34.196C233.659,-35.304 233.321,-36.184 232.647,-36.835M238.683,14.458L243.382,14.458L243.382,-18.363C243.864,-18.555 244.912,-18.772 246.527,-19.014C248.142,-19.255 250.057,-19.375 252.275,-19.375C254.346,-19.375 256.07,-19.122 257.444,-18.616C258.817,-18.11 259.926,-17.279 260.769,-16.122C261.612,-14.965 262.215,-13.471 262.577,-11.64C262.938,-9.808 263.119,-7.567 263.119,-4.917L263.119,14.458L267.818,14.458L267.818,-6.435C267.818,-8.989 267.576,-11.326 267.095,-13.447C266.613,-15.568 265.805,-17.387 264.673,-18.906C263.54,-20.424 262.022,-21.592 260.119,-22.412C258.214,-23.231 255.841,-23.641 252.998,-23.641C249.575,-23.641 246.683,-23.399 244.322,-22.918C241.96,-22.436 240.081,-22.002 238.683,-21.617L238.683,14.458Z" style="fill:white;fill-rule:nonzero;"/>
        </g>
    </g>
    <defs>
        <linearGradient id="_Linear1" x1="0" y1="0" x2="1" y2="0" gradientUnits="userSpaceOnUse" gradientTransform="matrix(1,0,0,-1,0,-0.84377)"><stop offset="0" style="stop-color:rgb(199,234,251);stop-opacity:1"/><stop offset="0.61" style="stop-color:rgb(81,138,201);stop-opacity:1"/><stop offset="1" style="stop-color:rgb(0,37,97);stop-opacity:1"/></linearGradient>
        <linearGradient id="_Linear2" x1="0" y1="0" x2="1" y2="0" gradientUnits="userSpaceOnUse" gradientTransform="matrix(1,5.55112e-17,5.55112e-17,-1,0,-0.171238)"><stop offset="0" style="stop-color:rgb(199,234,251);stop-opacity:1"/><stop offset="0.63" style="stop-color:rgb(81,138,201);stop-opacity:1"/><stop offset="1" style="stop-color:rgb(81,138,201);stop-opacity:1"/></linearGradient>
        <linearGradient id="_Linear3" x1="0" y1="0" x2="1" y2="0" gradientUnits="userSpaceOnUse" gradientTransform="matrix(1,0,0,-1,0,-0.19498)"><stop offset="0" style="stop-color:rgb(199,234,251);stop-opacity:1"/><stop offset="0.63" style="stop-color:rgb(81,138,201);stop-opacity:1"/><stop offset="1" style="stop-color:rgb(81,138,201);stop-opacity:1"/></linearGradient>
        <linearGradient id="_Linear4" x1="0" y1="0" x2="1" y2="0" gradientUnits="userSpaceOnUse" gradientTransform="matrix(1,0,0,-1,0,0.0496763)"><stop offset="0" style="stop-color:rgb(199,234,251);stop-opacity:1"/><stop offset="0.61" style="stop-color:rgb(81,138,201);stop-opacity:1"/><stop offset="0.86" style="stop-color:rgb(9,92,154);stop-opacity:1"/><stop offset="1" style="stop-color:rgb(9,92,154);stop-opacity:1"/></linearGradient>
        <linearGradient id="_Linear5" x1="0" y1="0" x2="1" y2="0" gradientUnits="userSpaceOnUse" gradientTransform="matrix(1,5.55112e-17,5.55112e-17,-1,0,-0.219517)"><stop offset="0" style="stop-color:rgb(199,234,251);stop-opacity:1"/><stop offset="0.61" style="stop-color:rgb(81,138,201);stop-opacity:1"/><stop offset="0.86" style="stop-color:rgb(9,92,154);stop-opacity:1"/><stop offset="1" style="stop-color:rgb(9,92,154);stop-opacity:1"/></linearGradient>
        <linearGradient id="_Linear6" x1="0" y1="0" x2="1" y2="0" gradientUnits="userSpaceOnUse" gradientTransform="matrix(1,0,0,-1,0,-0.0649686)"><stop offset="0" style="stop-color:rgb(199,234,251);stop-opacity:1"/><stop offset="0.94" style="stop-color:rgb(102,153,209);stop-opacity:1"/><stop offset="1" style="stop-color:rgb(81,138,201);stop-opacity:1"/></linearGradient>
        <linearGradient id="_Linear7" x1="0" y1="0" x2="1" y2="0" gradientUnits="userSpaceOnUse" gradientTransform="matrix(0.81907,0.573694,0.573694,-0.81907,0.106665,-0.338214)"><stop offset="0" style="stop-color:rgb(199,234,251);stop-opacity:1"/><stop offset="0.61" style="stop-color:rgb(81,138,201);stop-opacity:1"/><stop offset="0.86" style="stop-color:rgb(9,92,154);stop-opacity:1"/><stop offset="1" style="stop-color:rgb(9,92,154);stop-opacity:1"/></linearGradient>
        <linearGradient id="_Linear9" x1="0" y1="0" x2="1" y2="0" gradientUnits="userSpaceOnUse" gradientTransform="matrix(1,-0,0,-1,0,-1.08545)"><stop offset="0" style="stop-color:white;stop-opacity:1"/><stop offset="0.25" style="stop-color:white;stop-opacity:1"/><stop offset="0.86" style="stop-color:rgb(148,172,196);stop-opacity:1"/><stop offset="1" style="stop-color:rgb(148,172,196);stop-opacity:1"/></linearGradient>
        <linearGradient id="_Linear10" x1="0" y1="0" x2="1" y2="0" gradientUnits="userSpaceOnUse" gradientTransform="matrix(-0.0377349,0.999288,0.999288,0.0377349,0.399138,-0.38435)"><stop offset="0" style="stop-color:white;stop-opacity:1"/><stop offset="0.47" style="stop-color:rgb(199,234,251);stop-opacity:1"/><stop offset="1" style="stop-color:rgb(63,114,164);stop-opacity:1"/></linearGradient>
        <linearGradient id="_Linear11" x1="0" y1="0" x2="1" y2="0" gradientUnits="userSpaceOnUse" gradientTransform="matrix(1,0,0,-1,0,-0.106673)"><stop offset="0" style="stop-color:white;stop-opacity:1"/><stop offset="0.42" style="stop-color:white;stop-opacity:1"/><stop offset="0.79" style="stop-color:rgb(148,172,196);stop-opacity:1"/><stop offset="1" style="stop-color:rgb(148,172,196);stop-opacity:1"/></linearGradient>
        <linearGradient id="_Linear12" x1="0" y1="0" x2="1" y2="0" gradientUnits="userSpaceOnUse" gradientTransform="matrix(0.339276,0.940687,0.940687,-0.339276,0.581008,-0.827193)"><stop offset="0" style="stop-color:rgb(199,234,251);stop-opacity:1"/><stop offset="0.88" style="stop-color:rgb(81,138,201);stop-opacity:1"/><stop offset="1" style="stop-color:rgb(0,37,97);stop-opacity:1"/></linearGradient>
        <linearGradient id="_Linear13" x1="0" y1="0" x2="1" y2="0" gradientUnits="userSpaceOnUse" gradientTransform="matrix(1,0,0,-1,0,-0.110932)"><stop offset="0" style="stop-color:rgb(199,234,251);stop-opacity:1"/><stop offset="0.94" style="stop-color:rgb(102,153,209);stop-opacity:1"/><stop offset="1" style="stop-color:rgb(81,138,201);stop-opacity:1"/></linearGradient>
        <linearGradient id="_Linear15" x1="0" y1="0" x2="1" y2="0" gradientUnits="userSpaceOnUse" gradientTransform="matrix(1,-0,0,-1,0,0.030518)"><stop offset="0" style="stop-color:white;stop-opacity:1"/><stop offset="0.19" style="stop-color:white;stop-opacity:1"/><stop offset="0.85" style="stop-color:rgb(148,172,196);stop-opacity:1"/><stop offset="1" style="stop-color:rgb(148,172,196);stop-opacity:1"/></linearGradient>
        <radialGradient id="_Radial16" cx="0" cy="0" r="1" gradientUnits="userSpaceOnUse" gradientTransform="matrix(1,0,0,-1,0,-2.08243e-05)"><stop offset="0" style="stop-color:white;stop-opacity:1"/><stop offset="0.12" style="stop-color:rgb(199,234,251);stop-opacity:1"/><stop offset="0.65" style="stop-color:rgb(63,114,164);stop-opacity:1"/><stop offset="1" style="stop-color:rgb(0,37,97);stop-opacity:1"/></radialGradient>
        <linearGradient id="_Linear18" x1="0" y1="0" x2="1" y2="0" gradientUnits="userSpaceOnUse" gradientTransform="matrix(-0.105789,0.994389,0.994389,0.105789,0.489415,-0.44011)"><stop offset="0" style="stop-color:white;stop-opacity:1"/><stop offset="0.24" style="stop-color:rgb(199,234,251);stop-opacity:1"/><stop offset="1" style="stop-color:rgb(63,114,164);stop-opacity:1"/></linearGradient>
    </defs>
</svg>
