<svg height="200" viewBox="0 0 200 200" width="200" xmlns="http://www.w3.org/2000/svg"><g transform="translate(0 50)"><path d="m0 0h200v100h-200z" fill="#fff"/><path d="m47.90625 25.054688c1.28125-.109376 2.582031-.054688 3.871094-.054688 5.195312 13.332031 10.410156 26.660156 15.589844 40-1.578126 0-3.15625 0-4.734376.0039-1.703124-4.226562-3.3125-8.507812-4.949218-12.765625-5.304688-.02734-10.617188-.02734-15.921875 0-1.605469 4.25-3.261719 8.488281-4.851563 12.75-1.566406.02344-3.132812.01563-4.699218-.01172 5.253906-13.226555 10.421874-26.714836 15.695312-39.921867zm0 0"/><path d="m165.10937 25.132812c4.44532-.476562 9.25.257813 13.39454 1.933594-.49219 1.277344-.97657 2.5625-1.44141 3.851563-3.52734-1.375-7.31641-2.355469-11.12891-1.960938-1.91015.242188-3.83984.894531-5.09375 2.4375-1.46093 1.988281-1.48047 4.859375-.33984 7 .97266 1.683594 3.07031 2.761719 4.79297 3.527344 3.85156 1.601563 8.39453 2.777344 11.53906 5.671875 3.94141 3.921875 3.51172 11.566406-.97656 14.929688-3.66797 2.835937-8.12891 3.171874-12.58985 3.039062-3.02734-.25-5.96093-.523438-8.77734-1.757812.0352-1.449219.0391-2.894532.0234-4.34375 4.96094 1.90625 11.63672 3.292968 16.69531 1.199218 4.17188-1.636718 4.95313-7.855468 1.46094-10.53125-4.23438-3.179687-9.84766-3.433594-14.11328-7.039062-3.32032-2.667969-4.21485-7.527344-2.95313-11.445313 1.39844-3.988281 5.54688-6.015625 9.50781-6.511719zm0 0"/><path d="m22.371094 25.5625c1.539062-.0078 3.085937-.0078 4.628906 0-.01172 13.082031.01563 26.175781-.01172 39.257812-.02734 3.285157-.828125 6.539063-3.449219 8.714844-2.929687 2.296875-7.238281 2.480469-10.6875 1.414063.01563-1.277344-.0078-2.550781-.06641-3.820313 2.253906.570313 5.398438 1.070313 7.414063-.367187 1.707031-1.246094 2.132812-3.183594 2.167969-5.191407.01172-13.308593 0-26.691406.0039-40.007812zm0 0"/><path d="m68.339844 25.554688h5.078125c3.292969 5.210937 6.59375 10.417968 9.855469 15.652343 3.289062-5.234375 6.625-10.441406 9.941406-15.65625 1.644531.0039 3.285156.0039 4.929687 0-4.132812 6.203125-8.210937 12.445313-12.316406 18.664063 4.421875 6.929687 8.78125 13.902344 13.28125 20.773437-1.753906.011719-3.515625.015625-5.269531.007813-3.585938-5.761719-7.0625-11.589844-10.707032-17.3125-3.59375 5.777344-7.195312 11.5625-10.828124 17.316406-1.609376 0-3.222657 0-4.832032 0 4.328125-6.910156 8.792969-13.734375 13.144532-20.628906-4.09375-6.269532-8.1875-12.539063-12.277344-18.816406zm0 0"/><path d="m122.62891 25.5625c4.13672 0 8.28125-.01172 12.42187-.0078 3.53906.300781 6.84375.699218 9.67188 3.074218 3.24218 2.804688 3.71093 8.09375 2.43359 11.941406-1.19531 3.390626-3.97656 5.207032-7.19141 6.464844 3.36719 6.074219 7.14453 11.960938 10.64453 17.964844-1.80859 0-3.62109 0-5.42968 0-3.21875-5.542969-6.41407-11.105469-9.59766-16.667969-2.76172 0-5.52734 0-8.28906 0 0 5.558594.008 11.113281 0 16.664063-1.55469.0039-3.10938.0039-4.66406 0 0-13.144532 0-26.289063 0-39.433594zm0 0"/><path d="m127.29297 29.445312c2.88672.05859 5.80078-.140624 8.66797.109376 2.5625.34375 5.22265 1.066406 6.39062 3.628906 1.48047 3.273437.82031 8.503906-2.8164 10.148437-3.53516 1.746094-8.3125.929688-12.24219 1.113281 0-5 0-10 0-15zm0 0" fill="#fff"/><path d="m49.785156 30.195312c1.742188 6.15625 4.320313 12.082032 6.414063 18.132813-4.261719.0039-8.527344.01563-12.792969-.0078 2.148438-6.015624 4.78125-11.941406 6.378906-18.125zm0 0" fill="#fff"/><path d="m101.73828 47.777344c4.44531 0 8.89063-.0039 13.33203.0078v4.136719c-4.4414.01563-8.88672-.02344-13.33593.02734.004-1.386719.004-2.78125.004-4.171875zm0 0"/></g></svg>