<svg height="200" viewBox="0 0 200 200" width="200" xmlns="http://www.w3.org/2000/svg" xmlns:xlink="http://www.w3.org/1999/xlink"><linearGradient id="a" gradientTransform="matrix(-2.666667 0 0 -2.666667 -6488 130.666667)" gradientUnits="userSpaceOnUse" x1="-2417.469971" x2="-2523.540039" y1="-41.529999" y2="64.540001"><stop offset="0" stop-color="#bd0816"/><stop offset="1" stop-color="#ff5252"/></linearGradient><path d="m0 0h200v200h-200z" fill="url(#a)"/><g fill="#fff"><path d="m159.199219 50.667969h-118.398438c-4.117187.011719-7.453125 3.347656-7.46875 7.464843v83.734376c.015625 4.117187 3.351563 7.453124 7.46875 7.464843h118.398438c4.117187-.011719 7.453125-3.347656 7.46875-7.464843v-83.734376c-.015625-4.117187-3.351563-7.453124-7.46875-7.464843zm2.132812 91.199219c0 1.175781-.953125 2.132812-2.132812 2.132812h-118.398438c-1.179687 0-2.132812-.957031-2.132812-2.132812v-83.734376c0-1.175781.953125-2.132812 2.132812-2.132812h118.398438c1.179687 0 2.132812.957031 2.132812 2.132812zm0 0"/><path d="m108 85.332031h26.667969v5.335938h-26.667969zm0 0"/><path d="m145.332031 85.332031h5.335938v5.335938h-5.335938zm0 0"/><path d="m96.558594 94.132812c-.496094-.507812-1.179688-.796874-1.890625-.800781h-37.335938v-13.332031c.078125-3.019531 1.554688-5.828125 4-7.601562 2.691407-2.019532 5.972657-3.097657 9.335938-3.066407 3.496093-.046875 6.894531 1.140625 9.597656 3.359375 2.265625 1.765625 3.632813 4.441406 3.734375 7.308594v13.332031h5.332031v-14.398437c-.097656-4.242188-2.179687-8.191406-5.625-10.667969-3.75-2.832031-8.339843-4.335937-13.039062-4.265625-10.292969 0-18.667969 6.691406-18.667969 14.90625v14.425781h-5.332031c-1.472657 0-2.667969 1.195313-2.667969 2.667969v37.332031c0 1.472657 1.195312 2.667969 2.667969 2.667969h48c1.472656 0 2.664062-1.195312 2.664062-2.667969v-37.332031c0-.699219-.28125-1.371094-.773437-1.867188zm-4.558594 12.535157h-8v5.332031h8v5.332031h-8v5.335938h8v8h-42.667969v-32h42.667969zm0 0"/><path d="m70.667969 102.851562c-3.78125.015626-7.011719 2.734376-7.667969 6.460938-.65625 3.722656 1.449219 7.382812 5 8.6875v7.332031h5.332031v-7.332031c3.550781-1.304688 5.65625-4.964844 5-8.6875-.65625-3.726562-3.882812-6.445312-7.664062-6.460938zm0 11.203126c-1.871094 0-3.386719-1.519532-3.386719-3.386719 0-1.871094 1.515625-3.386719 3.386719-3.386719 1.867187 0 3.386719 1.515625 3.386719 3.386719 0 1.867187-1.519532 3.386719-3.386719 3.386719zm0 0"/><path d="m108 98.667969h18.667969v5.332031h-18.667969zm0 0"/><path d="m137.332031 98.667969h13.335938v5.332031h-13.335938zm0 0"/><path d="m108 112h34.667969v5.332031h-34.667969zm0 0"/></g></svg>