<svg height="200" viewBox="0 0 200 200" width="200" xmlns="http://www.w3.org/2000/svg" xmlns:xlink="http://www.w3.org/1999/xlink"><linearGradient id="a" gradientTransform="matrix(1.885618 -1.885618 1.885618 1.885618 339.253337 949.680013)" gradientUnits="userSpaceOnUse" x1="86.860001" x2="236.860001" y1="-288.75" y2="-288.75"><stop offset="0" stop-color="#c8511b"/><stop offset="1" stop-color="#f90"/></linearGradient><path d="m0 0h200v200h-200z" fill="url(#a)"/><g fill="#fff"><path d="m76.160156 73.492188c-23.601562 0-41.386718-7.464844-41.386718-17.359376 0-9.894531 17.785156-17.359374 41.386718-17.359374 23.601563 0 41.414063 7.464843 41.414063 17.359374 0 9.894532-17.8125 17.359376-41.414063 17.359376zm0-30.664063c-22 0-37.332031 7.011719-37.332031 13.332031 0 6.320313 15.332031 13.332032 37.332031 13.332032s37.332032-7.011719 37.332032-13.332032c0-6.320312-15.304688-13.332031-37.332032-13.332031zm0 0"/><path d="m113.519531 56.132812h4.054688v29.574219h-4.054688zm0 0"/><path d="m76.160156 161.226562c-23.601562 0-41.492187-7.464843-41.492187-17.226562v-87.867188h4.050781v87.867188c0 6.292969 15.335938 13.332031 37.335938 13.332031s37.332031-7.011719 37.332031-13.332031v-18.667969h4.054687v18.667969c.132813 9.761719-17.679687 17.226562-41.28125 17.226562zm0 0"/><path d="m59.011719 102.667969c-15.066407-2.828125-24-8.746094-24-16h4.054687c0 4.796875 8.347656 9.546875 20.71875 11.867187zm0 0"/><path d="m76.265625 134.320312c-23.546875 0-41.304687-7.46875-41.304687-17.359374h4.050781c0 6.292968 15.308593 13.332031 37.335937 13.332031 17.652344 0 26.960938-4.160157 27.066406-4.1875l1.679688 3.679687c-.480469.160156-10.214844 4.535156-28.828125 4.535156zm0 0"/><path d="m84.71875 114.667969h-9.011719c-2.613281-.015625-4.71875-2.136719-4.71875-4.746094v-9.09375c-.023437-1.269531.464844-2.492187 1.351563-3.398437.886718-.910157 2.097656-1.421876 3.367187-1.429688h9.011719c2.621094 0 4.746094 2.125 4.746094 4.746094v8.988281c.050781 1.289063-.425782 2.546875-1.320313 3.476563-.894531.929687-2.132812 1.457031-3.425781 1.457031zm-9.011719-14.429688c-.371093.015625-.667969.324219-.667969.695313v8.988281c0 .367187.300782.664063.667969.664063h9.011719c.371094 0 .667969-.296876.667969-.664063v-9.09375c0-.375-.292969-.679687-.667969-.695313zm0 0"/><path d="m119.121094 114.667969h-9.015625c-2.609375-.015625-4.71875-2.136719-4.71875-4.746094v-9.09375c-.019531-1.269531.464843-2.492187 1.351562-3.398437.886719-.910157 2.101563-1.421876 3.367188-1.429688h9.015625c2.609375.015625 4.71875 2.136719 4.71875 4.746094v8.988281c.050781 1.285156-.421875 2.535156-1.3125 3.46875-.890625.929687-2.121094 1.457031-3.40625 1.464844zm-9.015625-14.429688c-.371094.015625-.664063.324219-.664063.695313v8.988281c0 .367187.296875.664063.664063.664063h9.015625c.367187 0 .664062-.296876.664062-.664063v-9.09375c0-.375-.292968-.679687-.664062-.695313zm0 0"/><path d="m153.492188 114.667969h-8.984376c-2.621093 0-4.746093-2.125-4.746093-4.746094v-9.09375c-.023438-1.273437.46875-2.503906 1.359375-3.410156.894531-.90625 2.113281-1.417969 3.386718-1.417969h8.984376c2.621093 0 4.746093 2.125 4.746093 4.746094v8.988281c.050781 1.289063-.425781 2.546875-1.320312 3.476563-.894531.929687-2.132813 1.457031-3.425781 1.457031zm-8.984376-14.429688c-.382812 0-.695312.3125-.695312.695313v8.988281c.015625.371094.320312.664063.695312.664063h8.984376c.375 0 .679687-.292969.695312-.664063v-9.09375c0-.382813-.3125-.695313-.695312-.695313zm0 0"/><path d="m161.148438 121.492188h-24.1875c-1.09375-.007813-2.140626-.449219-2.90625-1.230469-.765626-.78125-1.1875-1.835938-1.175782-2.929688v-6.398437h-2.050781v6.398437c0 2.253907-1.828125 4.082031-4.082031 4.082031h-24.1875c-2.246094-.015624-4.0625-1.832031-4.078125-4.082031v-6.34375h-2.160157v6.34375c-.015624 2.25-1.832031 4.066407-4.082031 4.082031h-24.183593c-2.238282-.03125-4.039063-1.84375-4.054688-4.082031v-24c.015625-2.246093 1.832031-4.0625 4.078125-4.078125h24.1875c2.238281.027344 4.039063 1.84375 4.054687 4.078125v8h2.160157v-8c.015625-2.246093 1.832031-4.0625 4.078125-4.078125h24.1875c2.253906 0 4.082031 1.824219 4.082031 4.078125v8h2.050781v-8c.015625-2.246093 1.832032-4.0625 4.082032-4.078125h24.1875c1.097656-.03125 2.164062.386719 2.953124 1.15625.789063.769532 1.230469 1.824219 1.230469 2.921875v24c.023438 1.117188-.410156 2.191407-1.203125 2.976563-.789062.785156-1.867187 1.214844-2.980468 1.183594zm-24.1875-14.53125v10.371093h24.210937v-24h-24.210937v12.054688h-10.1875v-12.054688h-24.214844v12.054688h-10.292969v-12.054688h-24.210937v24h24.210937v-10.371093h10.292969v10.664062h24.1875v-10.636719zm0 0"/></g></svg>