<?xml version="1.0" standalone="no"?>
<!DOCTYPE svg PUBLIC "-//W3C//DTD SVG 20010904//EN"
 "http://www.w3.org/TR/2001/REC-SVG-20010904/DTD/svg10.dtd">
<svg version="1.0" xmlns="http://www.w3.org/2000/svg"
 width="300.000000pt" height="300.000000pt" viewBox="0 0 300.000000 300.000000"
 preserveAspectRatio="xMidYMid meet">

<g transform="translate(0.000000,300.000000) scale(0.100000,-0.100000)"
fill="#000000" stroke="none">
<path d="M99 2867 c-19 -12 -44 -42 -56 -67 l-23 -44 0 -967 0 -966 23 -44
c16 -31 36 -51 67 -67 44 -22 47 -22 506 -22 l461 0 12 -57 c27 -136 6 -230
-63 -272 -75 -47 -223 -71 -433 -71 l-123 0 0 -90 0 -90 965 0 965 0 0 90 0
90 -127 0 c-295 1 -418 45 -439 156 -7 36 6 134 26 206 l11 38 480 0 c452 0
482 1 517 19 45 23 87 66 101 104 8 19 11 331 11 978 0 832 -2 954 -15 986
-20 48 -41 71 -87 94 -36 18 -82 19 -1391 19 l-1354 0 -34 -23z m2661 -1072
l0 -875 -1260 0 -1260 0 0 875 0 875 1260 0 1260 0 0 -875z"/>
<path d="M1245 2254 c-115 -69 -216 -128 -224 -133 -9 -5 57 -49 212 -139 124
-73 229 -132 234 -132 4 0 108 60 231 134 l223 133 -226 132 c-123 72 -228
131 -232 130 -5 -1 -102 -57 -218 -125z"/>
<path d="M960 1762 l0 -260 208 -120 c114 -65 217 -124 230 -131 l22 -12 0
263 -1 263 -216 125 c-119 69 -222 126 -229 128 -12 3 -14 -43 -14 -256z"/>
<path d="M1738 1892 l-218 -127 0 -263 0 -263 58 33 c32 18 133 76 225 128
l166 95 1 263 c0 144 -3 262 -7 261 -5 0 -106 -57 -225 -127z"/>
</g>
</svg>
