<svg height="200" viewBox="0 0 200 200" width="200" xmlns="http://www.w3.org/2000/svg" xmlns:xlink="http://www.w3.org/1999/xlink"><linearGradient id="a" gradientTransform="matrix(1.885618 -1.885618 1.885618 1.885618 190.853333 591.41333)" gradientUnits="userSpaceOnUse" x1="31.219999" x2="181.220001" y1="-154.399994" y2="-154.399994"><stop offset="0" stop-color="#4d27a8"/><stop offset="1" stop-color="#a166ff"/></linearGradient><path d="m0 0h200v200h-200z" fill="url(#a)"/><g fill="#fff"><path d="m72.773438 114.507812c3.363281 1.191407 6.886718 1.855469 10.453124 1.972657 2.289063.1875 4.570313-.457031 6.425782-1.8125 1.492187-1.363281 2.300781-3.316407 2.214844-5.335938.195312-2.101562-.570313-4.179687-2.082032-5.652343-2.007812-1.34375-4.414062-1.964844-6.824218-1.757813-2.851563.023437-5.703126.203125-8.535157.53125v-3.785156l1.039063-16.453125h20.082031v4.453125h-15.546875l-.71875 11.171875c1.757812-.339844 3.542969-.515625 5.332031-.53125 3.390625-.203125 6.722657.914062 9.308594 3.117187 2.292969 2.269531 3.507813 5.417969 3.332031 8.640625.117188 3.351563-1.320312 6.570313-3.894531 8.71875-2.914063 2.324219-6.570313 3.507813-10.292969 3.335938-3.621094.019531-7.203125-.738282-10.507812-2.214844zm0 0"/><path d="m116.347656 98.507812h.984375c3.171875-.222656 6.304688.789063 8.746094 2.824219 2.195313 2.066407 3.367187 4.992188 3.203125 8 .082031 3.3125-1.375 6.476563-3.949219 8.5625-2.988281 2.261719-6.679687 3.40625-10.425781 3.226563-3.519531-.023438-7-.777344-10.214844-2.214844v-4.398438c3.28125 1.191407 6.726563 1.855469 10.214844 1.972657 2.304688.152343 4.589844-.507813 6.453125-1.867188 1.539063-1.328125 2.367187-3.304687 2.242187-5.332031 0-4.429688-2.800781-6.640625-8.402343-6.640625-1.78125-.011719-3.5625.078125-5.332031.265625v-3.625l11.546874-12.613281h-16.132812v-4.507813h22.398438v4.347656zm0 0"/><path d="m100 150.667969c-.46875-.007813-.929688-.136719-1.332031-.375-8.644531-5.117188-18.09375-8.722657-27.949219-10.667969-5.625-1.011719-24-5.332031-24-18.664062 0-6.027344 2.320312-10.027344 5.335938-15.09375 4.414062-6.476563 6.917968-14.0625 7.226562-21.894532-.027344-7.511718-2.234375-14.859375-6.347656-21.144531-.617188-.972656-.542969-2.230469.1875-3.121094l4.265625-5.332031c.820312-1.015625 2.253906-1.285156 3.386719-.640625 5.472656 3.175781 11.671874 4.875 18 4.933594 7.054687.101562 13.953124-2.066407 19.679687-6.1875.925781-.660157 2.167969-.660157 3.09375 0 5.726563 4.121093 12.625 6.289062 19.679687 6.1875 6.347657-.058594 12.570313-1.765625 18.054688-4.960938 1.132812-.644531 2.566406-.371093 3.386719.640625l4.265625 5.332032c.730468.890624.804687 2.148437.1875 3.121093-4.117188 6.285157-6.324219 13.632813-6.347656 21.144531 0 9.46875 3.839843 16 7.199218 21.894532 2.960938 5.066406 5.335938 9.066406 5.335938 15.09375 0 13.332031-18.347656 17.734375-24 18.667968-9.855469 1.941407-19.304688 5.546876-27.949219 10.664063-.410156.253906-.878906.394531-1.359375.402344zm-41.601562-89.335938c4.023437 6.761719 6.148437 14.480469 6.160156 22.347657 0 10.90625-4.398438 18.480468-8 24.558593-2.664063 4.722657-4.53125 7.839844-4.53125 12.429688 0 9.492187 16.292968 12.90625 19.574218 13.492187 9.964844 1.984375 19.542969 5.585938 28.34375 10.667969 8.804688-5.082031 18.378907-8.683594 28.347657-10.667969 3.28125-.585937 19.574219-4 19.574219-13.492187 0-4.589844-1.8125-7.707031-4.535157-12.429688-3.546875-6.078125-8-13.652343-8-24.558593.042969-7.875 2.210938-15.59375 6.269531-22.347657l-1.679687-2.078125c-5.773437 2.980469-12.171875 4.550782-18.667969 4.585938-7.558594.09375-14.980468-2.039063-21.332031-6.132813-6.355469 4.09375-13.777344 6.226563-21.335937 6.132813-6.496094-.035156-12.894532-1.605469-18.664063-4.585938zm0 0"/><path d="m100 166.667969c-.609375 0-1.203125-.207031-1.679688-.589844-8.972656-6.46875-19.1875-11.007813-30-13.332031-21.921874-3.945313-35.011718-16-35.011718-32 .214844-7.804688 2.667968-15.386719 7.066406-21.839844 2.90625-4.984375 5.332031-9.304688 5.332031-15.144531-.328125-7.824219-3.832031-15.171875-9.707031-20.347657-.605469-.453124-.996094-1.136718-1.066406-1.890624-.070313-.753907.179687-1.5.691406-2.058594 0-.183594 15.65625-18.957032 19.203125-23.839844.480469-.675781 1.25-1.089844 2.078125-1.117188.820312-.070312 1.628906.246094 2.1875.851563 4.90625 5.820313 12 9.351563 19.597656 9.761719 7.441406 0 13.335938-3.308594 19.015625-10.667969.546875-.65625 1.359375-1.035156 2.214844-1.035156.851563 0 1.664063.378906 2.210937 1.035156 5.707032 7.46875 11.574219 10.667969 19.015626 10.667969 7.597656-.410156 14.691406-3.941406 19.597656-9.761719.558594-.605469 1.367187-.921875 2.1875-.851563.828125.027344 1.597656.441407 2.078125 1.117188 3.546875 4.882812 19.066406 23.65625 19.203125 23.839844.492187.566406.722656 1.3125.636718 2.054687-.082031.738281-.445312 1.414063-1.011718 1.894531-5.875 5.175782-9.378906 12.523438-9.707032 20.347657 0 5.839843 2.507813 10.160156 5.332032 15.144531 4.398437 6.453125 6.851562 14.035156 7.070312 21.839844 0 16-13.09375 28.054687-35.015625 32-10.8125 2.304687-21.019531 6.847656-29.972656 13.332031-.441406.355469-.980469.5625-1.546875.589844zm-58.375-105.628907c6.03125 6.058594 9.507812 14.203126 9.707031 22.746094 0 7.335938-3.117187 12.722656-6.132812 17.921875-3.253907 5.625-6.347657 10.90625-6.347657 19.066407 0 19.519531 23.308594 25.226562 30.457032 26.507812 11.011718 2.28125 21.449218 6.761719 30.691406 13.171875 9.234375-6.410156 19.664062-10.886719 30.667969-13.171875 7.144531-1.28125 30.453125-6.988281 30.453125-26.507812 0-8.160157-3.09375-13.332032-6.347656-19.066407-3.011719-5.332031-6.132813-10.667969-6.132813-17.921875.199219-8.542968 3.675781-16.6875 9.707031-22.746094-3.496094-4.238281-11.574218-14.078124-15.8125-19.546874-5.691406 5.660156-13.3125 8.957031-21.335937 9.226562-8.3125.023438-16.175781-3.769531-21.332031-10.292969-5.15625 6.523438-13.019532 10.316407-21.332032 10.292969-8.023437-.269531-15.644531-3.566406-21.335937-9.226562-3.867188 5.46875-12.078125 15.308593-15.574219 19.546874zm0 0"/></g></svg>