<?xml version="1.0" encoding="utf-8"?>
<!-- Generator: Adobe Illustrator 25.4.1, SVG Export Plug-In . SVG Version: 6.00 Build 0)  -->
<svg version="1.1" id="Layer_1" xmlns="http://www.w3.org/2000/svg" xmlns:xlink="http://www.w3.org/1999/xlink" x="0px" y="0px"
	 viewBox="0 0 129.2 48.7" style="enable-background:new 0 0 129.2 48.7;" xml:space="preserve">
<style type="text/css">
	.st0{fill:#4E7896;}
	.st1{fill:#F58219;}
</style>
<g>
	<path class="st0" d="M11.4,37.1c0,0-1.8,1.1,1.3,1.4c3.8,0.5,5.8,0.4,9.9-0.4c0.8,0.5,1.7,0.9,2.6,1.3
		C15.9,43.4,4.1,39.2,11.4,37.1L11.4,37.1z M10.2,31.9c0,0-2,1.5,1.1,1.8c4.1,0.4,7.3,0.5,12.8-0.6c0.5,0.5,1.2,1,1.9,1.2
		C14.8,37.7,2.1,34.6,10.2,31.9L10.2,31.9z M32.4,41c0,0,1.4,1.1-1.5,2c-5.4,1.6-22.5,2.1-27.3,0c-1.7-0.7,1.5-1.8,2.6-1.9
		c1-0.2,1.6-0.2,1.6-0.2c-1.8-1.3-12.3,2.6-5.3,3.8C21.5,47.8,37.3,43.3,32.4,41L32.4,41z M12.3,26.4c0,0-8.7,2.1-3.1,2.8
		c2.4,0.3,7.1,0.2,11.5-0.1c3.6-0.3,7.2-1,7.2-1s-1.3,0.6-2.2,1.1c-8.9,2.3-26,1.3-21.1-1.1C8.9,26.2,12.3,26.4,12.3,26.4L12.3,26.4
		z M27.9,35.2c9-4.7,4.8-9.1,1.9-8.6c-0.7,0.2-1,0.3-1,0.3s0.2-0.5,0.8-0.6c5.7-2,10.2,6-1.8,9.1C27.8,35.4,27.9,35.3,27.9,35.2
		L27.9,35.2z M13.2,47.8c8.7,0.6,21.9-0.3,22.2-4.4c0,0-0.6,1.6-7.1,2.8c-7.4,1.4-16.5,1.2-21.9,0.3C6.4,46.6,7.5,47.5,13.2,47.8
		L13.2,47.8z"/>
	<path class="st1" d="M22.5,0c0,0,5,5.1-4.7,12.7c-7.8,6.2-1.8,9.7,0,13.7c-4.6-4.1-7.9-7.7-5.6-11.1C15.4,10.3,24.5,7.9,22.5,0z
		 M19.9,23c2.3,2.6-0.6,5.1-0.6,5.1s5.9-3,3.2-6.8c-2.5-3.6-4.4-5.4,6-11.4C28.5,9.9,12.1,13.9,19.9,23L19.9,23z"/>
	<path class="st0" d="M81.7,39.6V21.4c0-4.6-2.6-7.8-9.1-7.8c-3.7,0-6.9,0.9-9.7,2l0.9,3.3c2-0.7,4.6-1.5,7.4-1.5
		c3.5,0,5.2,1.5,5.2,4.5v2.4h-1.9c-8.9,0-13,3.3-13,8.7c0,4.5,2.8,7.1,7.8,7.1c3.2,0,5.6-1.5,7.8-3.3l0.4,2.8L81.7,39.6L81.7,39.6z
		 M76.5,33.6c-1.9,1.7-3.9,2.6-5.8,2.6c-2.4,0-3.9-1.5-3.9-4.1s1.5-4.5,7.4-4.5h2.2L76.5,33.6L76.5,33.6z M99.1,39.6h-6.5l-7.8-25.4
		h5.6l4.8,15.6l1.1,4.6c2.4-6.7,4.3-13.5,5-20.2h5.6C105.4,22.5,102.8,31.6,99.1,39.6L99.1,39.6z M129.2,39.6V21.4
		c0-4.6-2.6-7.8-9.1-7.8c-3.7,0-6.9,0.9-9.7,2l0.7,3.3c2.2-0.7,4.8-1.5,7.6-1.5c3.5,0,5.2,1.5,5.2,4.5v2.4h-1.9
		c-8.9,0-13,3.3-13,8.7c0,4.5,2.6,7.1,7.6,7.1c3.3,0,5.8-1.5,8-3.3l0.4,2.8L129.2,39.6L129.2,39.6z M124,33.6
		c-1.9,1.7-3.9,2.6-5.8,2.6c-2.4,0-3.9-1.5-3.9-4.1s1.5-4.5,7.4-4.5h2.2V33.6L124,33.6z M55.9,43.8c-1.5,2.2-3.7,3.9-6.5,4.8l-2.4-3
		c1.9-1.1,3.7-2.8,4.5-4.3c0.7-1.3,0.9-3.2,0.9-7.4v-29h5.6v28.6C57.9,39.4,57.4,41.6,55.9,43.8L55.9,43.8z"/>
</g>
</svg>
