<svg height="200" viewBox="0 0 200 200" width="200" xmlns="http://www.w3.org/2000/svg" xmlns:xlink="http://www.w3.org/1999/xlink"><linearGradient id="a" gradientTransform="matrix(-1.885618 -1.885618 1.885618 -1.885618 2200.34668 1042.079997)" gradientUnits="userSpaceOnUse" x1="806.75" x2="806.75" y1="-382.130005" y2="-232.130005"><stop offset="0" stop-color="#b0084d"/><stop offset="1" stop-color="#ff4f8b"/></linearGradient><path d="m0 0h200v200h-200z" fill="url(#a)"/><g fill="#fff"><path d="m145.546875 135.785156v2.214844c0-.265625 0-.535156 0-.800781-.054687-.46875-.054687-.941407 0-1.414063zm0 0"/><path d="m110.535156 82.667969-.269531.503906c.109375-.164063.1875-.34375.242187-.53125zm0 0"/><path d="m87.414062 73.414062c-2.375 0-23.335937-.1875-23.335937 7.734376-.007813.5.082031 1 .269531 1.464843.078125.191407.164063.378907.265625.558594l14.507813 32v16.5625c0 1.679687.691406 2.664063 2.160156 2.664063h.691406c3.351563-.875 6.46875-2.488282 9.121094-4.71875l1.785156-1.253907c.773438-.480469 1.246094-1.328125 1.253906-2.238281v-10.933594l16.132813-32c.109375-.164062.1875-.34375.242187-.535156.183594-.464844.273438-.964844.265626-1.464844 0-8.027344-20.960938-7.839844-23.359376-7.839844zm0 4.90625c9.414063 0 15.464844 1.652344 17.492188 2.828126-2.027344 1.171874-8 2.824218-17.492188 2.824218-9.492187 0-15.441406-1.652344-17.46875-2.824218 2.054688-1.148438 8.054688-2.828126 17.46875-2.828126zm1.945313 34.667969v1.730469 10.429688l-1.039063.636718c-1.519531.882813-2.855468 1.496094-4.375 2.292969v-13.410156c-.003906-.367188-.078124-.726563-.210937-1.066407l-11.359375-25.976562c4.9375 1.101562 9.980469 1.65625 15.039062 1.65625 4.910157-.003906 9.808594-.523438 14.613282-1.546875zm0 0"/><path d="m136 147.121094c-10.4375 7.554687-23.007812 11.597656-35.894531 11.546875-29.011719 0-53.757813-18.855469-59.570313-46.667969 5.378906-.257812 9.933594-4.058594 11.144532-9.308594h13.601562v-5.039062h-13.546875c-1.058594-5.394532-5.65625-9.375-11.148437-9.652344 4.828124-19.570312 18.960937-35.523438 37.808593-42.667969 18.847657-7.144531 40.003907-4.574219 56.59375 6.882813l3.039063-4.214844c-18.371094-12.691406-41.875-15.347656-62.613282-7.070312-20.738281 8.28125-35.953124 26.390624-40.535156 48.242187-4.222656 1.957031-6.925781 6.1875-6.925781 10.839844 0 4.65625 2.703125 8.886719 6.925781 10.839843 6.40625 30.933594 33.640625 53.121094 65.226563 53.148438 13.964843.027344 27.574219-4.371094 38.882812-12.558594zm-102.667969-47.121094c-.023437-3.390625 2.5-6.261719 5.867188-6.667969h.800781c2.699219-.007812 5.136719 1.609375 6.179688 4.097657 1.039062 2.492187.476562 5.363281-1.429688 7.273437-1.90625 1.914063-4.773438 2.488281-7.269531 1.457031-2.492188-1.027344-4.121094-3.460937-4.121094-6.160156zm0 0"/><path d="m160 112c6.304688.003906 11.539062-4.871094 11.976562-11.164062.441407-6.289063-4.0625-11.847657-10.304687-12.71875-6.246094-.875-12.101563 3.234374-13.40625 9.402343h-13.867187v-32.984375h7.203124c.804688 6.15625 6.175782 10.679688 12.382813 10.425782 6.203125-.25 11.191406-5.191407 11.5-11.394532.308594-6.199218-4.167969-11.613281-10.316406-12.476562-6.148438-.863282-11.941407 3.105468-13.355469 9.148437l-9.8125-.132812c-.683594-.144531-1.398438.042969-1.921875.503906-.527344.460937-.800781 1.144531-.746094 1.84375v34.988281h-20.503906v4.933594h20.503906v34.878906c0 1.472656 1.195313 2.667969 2.667969 2.667969h8.375c1.210938 6.046875 6.8125 10.1875 12.949219 9.578125s10.816406-5.773438 10.816406-11.941406c0-6.167969-4.679687-11.332032-10.816406-11.941406-6.136719-.609376-11.738281 3.535156-12.949219 9.582031h-5.816406l-.132813-32.851563h13.839844c1.128906 5.59375 6.027344 9.625 11.734375 9.652344zm0-18.667969c3.683594 0 6.667969 2.984375 6.667969 6.667969s-2.984375 6.667969-6.667969 6.667969-6.667969-2.984375-6.667969-6.667969 2.984375-6.667969 6.667969-6.667969zm-6.667969-37.09375c2.6875.011719 5.105469 1.644531 6.121094 4.132813 1.015625 2.488281.433594 5.34375-1.480469 7.230468-1.910156 1.890626-4.773437 2.441407-7.25 1.394532-2.476562-1.046875-4.078125-3.480469-4.054687-6.167969 0-1.773437.707031-3.46875 1.960937-4.714844 1.257813-1.246093 2.960938-1.941406 4.730469-1.925781zm-1.332031 74.429688c3.578125-.015625 6.53125 2.796875 6.6875 6.371093.160156 3.574219-2.53125 6.636719-6.097656 6.9375-3.566406.300782-6.734375-2.265624-7.175782-5.816406 0-.265625 0-.535156 0-.800781 0-.476563.050782-.949219.160157-1.414063.65625-3.039062 3.316406-5.226562 6.425781-5.277343zm0 0"/></g></svg>