<svg height="218" viewBox="0 0 200 218" width="200" xmlns="http://www.w3.org/2000/svg"><g transform="matrix(.92382906 0 0 .92382906 7.617094 8.302632)"><path d="m0 .0664062h99.011719c-6.023438 1.8242188-11.730469 4.8828128-17.398438 7.6015628-22.171875 11.300781-43.90625 23.507812-65.539062 35.785156-8.160157 4.523437-14.914063 11.851563-16.074219 21.425781zm0 0" fill="#fff"/><path d="m99.011719.0664062h1.988281l1.19922.3593748c8.01953 2.886719 15.66797 7.003907 23.25391 10.867188 17.83984 9.308593 35.43359 19.109375 52.94531 29.023437 4.55468 2.691406 9.02734 4.6875 12.88672 8.425782 4.6875 4.265624 7.98828 9.855468 8.71484 16.210937v88.011715c-1.1875 7.44922-6.61328 14.16016-12.88672 18.09766-22.62109 13.29297-45.30469 26.55078-68.51172 38.80859-5.73437 2.8125-11.5 6.125-17.59375 8.0625h-2.035154c-4.53125-1.40625-8.917968-3.71875-13.140625-5.82812-6.039062-2.97266-11.953125-6.23828-17.871093-9.44922-17.953126-9.90625-35.714844-20.17969-53.382813-30.59375-7.066406-3.82422-13.304687-11.04688-14.578125-19.14453v-88.039064c1.160156-9.574218 7.914062-16.902344 16.074219-21.425781 21.632812-12.277344 43.367187-24.484375 65.539062-35.785156 5.667969-2.71875 11.375-5.777344 17.398438-7.6015628zm0 0" fill="#005e7a"/><path d="m101 .0664062h99v64.8867188c-.72656-6.355469-4.02734-11.945313-8.71484-16.210937-3.85938-3.738282-8.33204-5.734376-12.88672-8.425782-17.51172-9.914062-35.10547-19.714844-52.94531-29.023437-7.58594-3.863281-15.23438-7.980469-23.25391-10.867188zm0 0" fill="#fff"/><path d="m100 11.226562c4.14844 1.460938 8.07422 3.585938 12.05859 5.441407 22.6211 11.476562 44.78125 23.945312 66.83985 36.460937 3.875 2.203125 7.42968 5.269532 9.27343 9.40625 1.44141 3.105469 1.13672 6.796875 1.16797 10.152344-.0117 24.207031-.0117 48.41797.008 72.625-.0469 2.69531.24609 5.96875-.85547 8.48047-1.64063 3.61719-4.63282 6.63672-8.07032 8.58594-22.07421 12.92578-44.20312 25.86718-66.82031 37.82031-4.49609 2.25781-8.94922 4.65625-13.60156 6.5664-4.800781-1.97656-9.398438-4.44921-14.027344-6.79296-22.324398-11.8086-44.172055-24.59375-65.972836-37.33985-2.078125-1.18359-4.011719-2.57812-5.578125-4.41015-2.0625-2.39844-3.734375-4.92969-3.609375-8.23438.03906-25.97265.01563-51.98828.01953-77.964842.06641-3.179688-.433593-6.5625.996094-9.488282 2.046875-4.523437 5.859375-7.5625 10.125-9.894531 21.332031-12.097656 42.8125-24.15625 64.660156-35.304687 4.40625-2.105469 8.78125-4.449219 13.38672-6.109376zm0 0" fill="#17a6cf"/><path d="m60.667969 52.675781c25.550781.05859 51.113281.0039 76.664061.02344 2.44141.02734 4.91406-.125 7.34766.08203 2.24218.171875 4.21875 2.320312 4.28515 4.558594.19532 3.550781-.1914 7.121094-.11718 10.683594.0586 26.539062-.082 53.089841.0742 79.625001-.6875 1.46875-1.5625 2.43359-2.82812 3.39062-2.72656.38672-5.35938.28125-8.09375.26953-26.33203 0-52.667969 0-79 0-2.105469 0-4.21875 0-6.328125 0-.0039-31.10156-.0039-62.20312-.0039-93.29687-.01563-1.6875.511719-3.078125 1.824219-4.164063 1.648437-1.5 4.113281-1.101562 6.175781-1.171875zm0 0" fill="#66dcff"/><g fill="#005e7a"><path d="m102.3125 68.359375c.84766-.359375 2.45313-.113281 2.56641 1.011719.74218 1.910156-2.53125 2.730468-3.32422 1.085937-.56641-.753906.004-1.765625.75781-2.097656zm0 0"/><path d="m72.132812 69.230469c1.128907 1.386719 1.675782 3.292969 2.433594 4.890625 1.167969 2.851562 2.667969 5.601562 3.613282 8.527344-.425782 1.242187-.925782 1.285156-2.125 1.40625-1.035157-.800782-1.507813-2.203126-2.101563-3.351563-2.160156-.03125-4.320313-.03125-6.480469-.0039-.578125 1.0625-1.066406 2.75-2.207031 3.324219-1.085937.105468-1.433594-.601563-2.132813-1.246094 1.953126-4.191406 3.648438-8.515625 5.648438-12.671875.605469-1.339844 2.199219-1.980469 3.351562-.875zm0 0"/><path d="m93.332031 69.871094c.703125-.07422 1.40625-.128906 2.113281-.167969.175782.933594.339844 1.867187.496094 2.800781 1.257813.324219 2.292969.105469 2.824219 1.53125-.371094 1.613282-1.632813 1.285156-2.925781 1.707032-.0078 1.664062-.03125 3.328124-.05859 4.996093 1.09375.398438 2.746094.425781 2.824219 1.90625-.644531 2.117188-5.644531 1.722657-5.753907-.726562-.324218-2.011719-.171874-4.117188-.226562-6.152344-.476562-.371094-.945312-.757813-1.398438-1.15625-.105468-1.066406.605469-1.515625 1.160157-2.300781.304687-.832032.527343-1.679688.945312-2.4375zm0 0"/><path d="m89.359375 73.996094c.726563.585937.539063 1.605468-.0078 2.238281-1.5.226563-3.050781-.808594-4.566406-.679687-2.386718.480468-2.851562 3.941406-.878906 5.214843 1.488281 1.039063 3.308594-.160156 4.847656-.484375.867188.230469 1.265625.792969 1.199219 1.65625-2.058594 2.78125-6.527344 2.695313-8.847656.296875-1.730469-1.742187-2.113281-4.472656-.84375-6.589843 1.691406-3.191407 6.390625-3.925782 9.097656-1.652344zm0 0"/><path d="m104.375 72.980469c.53125 3.558593.37891 7.257812.0469 10.828125-1.23438.08203-2.59375.464844-2.82032-1.210938-.14843-2.933594-.28125-6.03125.0977-8.941406.59375-1.28125 1.56641-.875 2.67578-.675781zm0 0"/><path d="m109.44141 73.261719c1.21875 2.132812 1.87109 4.609375 2.83203 6.875.98047-2.3125 1.67187-4.816407 2.89844-7.007813 1.17578-.878906 2.22656-.328125 2.70703.925782-1.03125 2.957031-2.45703 5.871093-3.80469 8.703124-.65234 1.582032-2.85938 1.742188-3.56641.105469-1.32812-2.644531-2.66015-5.539062-3.72656-8.296875-.6875-1.4375 1.87891-2.636718 2.66016-1.304687zm0 0"/><path d="m129.69141 75.007812c.75 1.300782 1.62109 3.03125.20312 4.21875-2.47265.257813-4.99609.06641-7.48828.226563.67969.710937 1.22656 1.730469 2.29297 1.863281 1.6875.386719 3.6289-1.398437 5.08594-.359375.0547.972657.12109 1.484375-.8125 2.027344-2.58594 1.742187-6.7461 1.316406-8.50782-1.421875-1.6914-2.464844-1.16406-6.015625 1.28907-7.78125 2.44531-1.839844 6.19922-1.324219 7.9375 1.226562zm0 0"/></g><path d="m70.886719 73.121094c.640625 1.574218 1.246093 3.160156 1.839843 4.746094-1.347656-.01563-2.691406-.02734-4.039062-.04297.558594-1.65625 1.21875-3.238281 2.199219-4.703124zm0 0" fill="#66dcff"/><path d="m125.32813 75.328125c1.21093-.101563 1.77343 1.21875 2.48046 1.964844-1.80078.05859-3.59375.05859-5.38671-.03516.8789-1.011718 1.34375-2.058593 2.90625-1.929687zm0 0" fill="#66dcff"/><path d="m73.492188 91.703125c3.207031 1 3.859374 4.878906 2.582031 7.597656-.59375.859379-1.488281 1.550779-2.253907 2.249999 1.238282 1.3125 2.320313 2.60547 2.941407 4.33203-.773438.25391-1.800781.99219-2.609375.66407-1.484375-1.21875-2.546875-3.01563-3.710938-4.53516-.792968-.008-1.589844-.008-2.386718-.0156-.07422 1.375.09375 2.98829-.460938 4.25782-1.027344.52734-1.492188.51953-2.527344 0-.605468-1.47657-.378906-3.34375-.417968-4.91407.117187-3.21484-.25-6.578121.3125-9.695309 2.765624-.425781 5.792968-.566406 8.53125.05859zm0 0" fill="#005e7a"/><path d="m138.58594 92.710938c.14843 4.136718.16797 8.460942-.008 12.589842.0273.9961-1.15234 1.16016-1.8125 1.59375-.46484-.51172-.92578-1.01953-1.39062-1.52734-1.70313.91406-3.09375 1.80859-5.08984 1-4.57813-1.625-4.61328-9.105471 0-10.726565 2.0664-.824219 3.53515.09375 5.24218 1.152344 0-1.476563-.14843-3.042969.13282-4.496094.52734-1.484375 2.8789-1.21875 2.92578.414063zm0 0" fill="#005e7a"/><path d="m68.011719 94.28125c1.339843.04687 2.816406-.09766 4.121093.253906 1.582032.71875 1.640626 3.617188.09375 4.398438-1.351562.320312-2.832031.226562-4.21875.277344 0-1.644532 0-3.28125.0039-4.929688zm0 0" fill="#66dcff"/><path d="m89.027344 97.660156c.746094 1.300782 1.621094 3.031254.199218 4.218754-2.472656.25781-4.992187.0664-7.488281.22656.683594.71094 1.226563 1.73047 2.296875 1.86328 1.683594.38672 3.625-1.40625 5.085938-.35937.04687.97265.125 1.48828-.8125 2.02734-2.589844 1.74609-6.75 1.31641-8.507813-1.42188-1.695312-2.46484-1.167969-6.015621 1.285157-7.781246 2.449218-1.839844 6.199218-1.324219 7.941406 1.226562zm0 0" fill="#005e7a"/><path d="m101.35938 96.648438c.72656.585937.54687 1.605468-.008 2.238281-1.499998.226562-3.050779-.808594-4.566404-.679688-2.386718.480469-2.851562 3.945309-.878906 5.214849 1.488281 1.03906 3.308594-.16016 4.84766-.48438.86718.23438 1.26562.79297 1.19922 1.66016-2.058599 2.77734-6.527349 2.6914-8.847661.29297-1.730469-1.74219-2.113281-4.47266-.84375-6.589849 1.691406-3.191406 6.390625-3.925781 9.097661-1.652343zm0 0" fill="#005e7a"/><path d="m107.62109 95.667969c2.83204-.945313 6.4336.148437 7.79297 2.933593 1.20703 2.289068.46485 5.046878-1.51953 6.632818-3.16015 2.625-8.58203 1.55859-10.05469-2.41797-1.17187-3.058598.84766-6.148441 3.78125-7.148441zm0 0" fill="#005e7a"/><path d="m119.92578 95.160156c.53906.480469 1.07422.96875 1.60156 1.453125 1.32032-.878906 1.77344-1.9375 3.37891-.660156 1.06641 2.539063-2.76562 2.308594-3.27344 4.312505-.41406 2.01953-.30468 4.14453-.54687 6.19531-1.00781.0195-2.23828.47265-2.71875-.75781-.38672-2.91407-.2461-6.003911-.10156-8.937505.082-1.097656.86718-1.117187 1.66015-1.605469zm0 0" fill="#005e7a"/><path d="m84.660156 97.980469c1.214844-.101563 1.773438 1.21875 2.480469 1.964843-1.800781.0586-3.59375.0586-5.386719-.03125.878906-1.015624 1.347656-2.0625 2.90625-1.933593zm0 0" fill="#66dcff"/><path d="m108.32031 98.398438c2.19141-.851563 4.67188.433593 4.52735 2.941402-.25391 2.55079-3.53907 3.26954-5.2461 1.73047-1.50781-1.20703-1.1289-3.996091.71875-4.671872zm0 0" fill="#66dcff"/><path d="m131.62109 98.304688c2.1875-.664063 4.09766.722656 3.91407 3.046872-.0742 2.29297-3.10157 3.33594-4.66797 1.79688-1.49219-1.39063-1.02735-3.92969.7539-4.843752zm0 0" fill="#66dcff"/><path d="m81.394531 129.44922c2.171875-.28906 4.417969-.10156 6.605469-.12891 9.332031-.0117 18.66797.0273 28-.0273 1.48828.14062 2.97266-.34375 3.71875 1.30859.46875 1.6836-.68359 2.83594-2.35937 2.71094-11.32032.0391-22.707036-.0352-34.039068.0273-1.046874-.10156-2.445312.15235-3.054687-.94922-.6875-1.01953-.160156-2.73046 1.128906-2.9414zm0 0" fill="#17a6cf"/><path d="m87.394531 137.4375c2.171875-.27344 4.417969-.10156 6.605469-.12109 5.785156.0312 11.57813-.0547 17.35938.0117 1.42187.0156 2.53906.33985 2.50781 1.98829.0312 1.64453-1.08594 1.96875-2.50781 1.98437-7.33985.0547-14.691411-.0195-22.031255.0312-1.101563-.15234-2.507813.26953-3.109375-.91797-.796875-1.17187-.238281-2.74609 1.175781-2.97656zm0 0" fill="#17a6cf"/><path d="m148.92187 147.64844c.0664 3.66406.19141 7.34375.043 11-.0234 2.22656-2.0664 4.41015-4.28515 4.57812-2.21485.19531-4.46094.0586-6.67969.0742-26.65234 0-53.375.008-80.019531 0-2.472657.125-4.78125-1.57812-5.199219-4.03125-.289062-2.625-.06641-5.32422-.109375-7.96094h6.328125c0 1.9961-.0078 3.9961 0 5.9961h81.6875c3.66016.0859 5.59375-2.82422 5.40625-6.26563 1.26562-.95703 2.14062-1.92187 2.82812-3.39062zm0 0" fill="#005e7a"/><path d="m59 151.30859h79c2.73437.0117 5.36719.11719 8.09375-.26953.1875 3.44141-1.74609 6.35156-5.40625 6.26563-27.22656 0-54.453125 0-81.6875 0-.0078-2 0-4 0-5.9961zm0 0" fill="#fff"/><path d="m0 152.91797c1.273438 8.09765 7.511719 15.32031 14.578125 19.14453 17.667969 10.41406 35.429687 20.6875 53.382813 30.59375 5.917968 3.21094 11.832031 6.47656 17.871093 9.44922 4.222657 2.10937 8.609375 4.42187 13.140625 5.82812h-98.972656zm0 0" fill="#fff"/><path d="m200 152.96484v64.96875h-98.99219c6.09375-1.9375 11.85938-5.25 17.59375-8.0625 23.20703-12.25781 45.89063-25.51562 68.51172-38.80859 6.27344-3.9375 11.69922-10.64844 12.88672-18.09766zm0 0" fill="#fff"/></g></svg>