<svg height="200" viewBox="0 0 200 200" width="200" xmlns="http://www.w3.org/2000/svg"><g transform="translate(0 50)"><path d="m0 0h200v100h-200z" fill="#fff"/><path d="m20.1875 33.945312c4.117188-.300781 7.917969.277344 11.761719 1.78125-.460938 1.09375-.933594 2.183594-1.410157 3.273438-4.472656-1.707031-8.988281-2.609375-13.617187-.855469-3.492187 1.367188-5.777344 4.488281-6.570313 8.09375-.601562 2.917969-.535156 5.976563.144532 8.882813.777344 3.066406 2.710937 5.785156 5.675781 7.058594 3.949219 1.753906 8.410156 1.230468 12.535156.46875.07031-3.289063.01953-6.578126.03906-9.863282-2.363282-.0078-4.71875-.0078-7.078125-.0078 0-1.109375 0-2.222656 0-3.332032h10.777343v15.597657c-5.101559 1.480457-10.984371 2.316394-16.191403.996081-4.789062-1.210937-8.402344-5.171874-9.542968-9.929687-1.367188-5.699219-.867188-12.738281 3.222656-17.277344 2.695312-3.070312 6.320312-4.292969 10.253906-4.886719zm0 0"/><path d="m56.8125 45.417969c1.992188 2.769531 1.925781 5.761719 1.941406 9.019531-5.480468.02734-10.96875-.02734-16.453125.03516.261719 3.433594.789063 6.773438 4.082031 8.59375 3.3125 1.695313 8.015626.566406 11.3125-.765625 0 1.011719.0039 2.019531.01172 3.03125-3.929687 1.417969-8.90625 2.058594-12.828125.351563-3.460937-1.511719-5.539062-4.773438-6.0625-8.4375-.5625-3.996094-.105468-8.75 2.5-12.011719 3.613282-4.789063 12.078125-4.875 15.496094.183594zm0 0"/><path d="m75.539062 41.738281c1.878907.257813 3.671876.734375 4.988282 2.179688 1.460937 1.738281 1.667968 3.894531 1.699218 6.078125-.0039 5.371094-.0039 10.742187-.0039 16.113281-.894531 0-1.789062 0-2.683594 0-.234374-1.164063-.472656-2.324219-.710937-3.488281-1.328125 1.382812-2.527344 2.929687-4.445313 3.496094-2.710937.90625-6.117187.828124-8.570312-.765626-3.800781-2.722656-3.605469-9.433593.609375-11.710937 3.542969-1.933594 8.300781-1.902344 12.257813-1.972656-.03125-1.863281.171874-3.546875-.734376-5.25-.800781-1.394531-2.449218-1.984375-3.988281-1.988281-2.601562-.08594-4.707031.859374-7.066406 1.769531-.355469-.871094-.71875-1.75-1.078125-2.621094 2.964844-1.429687 6.4375-2.226563 9.726562-1.839844zm0 0"/><path d="m103.09375 41.859375c-.1875.980469-.38281 1.960937-.57812 2.941406-1.64454-.429687-3.253911-.601562-4.867192.07813-2.863282 1.277344-4.585938 4.320313-4.632813 7.410156-.04297 4.605469 0 9.214844-.01563 13.820313-1.210938 0-2.417969 0-3.628906 0-.0039-7.960937 0-15.925781 0-23.886719h2.980468c.132813 1.527344.28125 3.050782.425782 4.570313 1.09375-1.769531 2.246094-3.355469 4.152344-4.316407 1.980468-1.070312 4.003897-.910156 6.164067-.617187zm0 0"/><path d="m125.80469 45.949219c2.5625-4.488281 8.60156-5.476563 12.89062-2.984375 2.28906 1.589844 2.85547 4.390625 2.89844 7.007812 0 5.378906-.004 10.761719 0 16.136719-1.19922 0-2.39844 0-3.59375-.0039 0-5.371094-.004-10.738281.004-16.109375 0-2.058594-.51954-4.152344-2.52735-5.101563-1.94922-.867187-4.84375-.535156-6.57812.699219-1.96875 1.507812-2.40235 4.304688-2.44922 6.621094-.0156 4.628906 0 9.261718-.004 13.890625-1.19531.0039-2.39453.0039-3.59375.0039-.008-5.371094.0156-10.75-.008-16.121094-.0547-2.105469-.56641-4.273437-2.69922-5.160156-2.16797-.792969-5.20703-.511719-6.85937 1.238281-1.5 1.503906-1.86328 4.121094-1.9336 6.160156-.0469 4.625 0 9.257813-.0195 13.882813-1.21094 0-2.41406 0-3.625 0-.008-7.960937 0-15.925781 0-23.886719h2.95313c.18359 1.144532.36328 2.28125.53515 3.425782 1.00391-1.296876 1.96094-2.503907 3.51563-3.175782 3.89844-1.761718 9.30469-.828125 11.09375 3.476563zm0 0"/><path d="m159.42969 41.738281c1.875.257813 3.67187.734375 4.98828 2.179688 1.46094 1.738281 1.66406 3.894531 1.69922 6.078125-.008 5.371094-.008 10.742187-.008 16.113281-.89453 0-1.78906 0-2.67968 0-.23438-1.164063-.47266-2.324219-.71485-3.488281-1.32422 1.382812-2.52734 2.929687-4.4414 3.496094-2.80078.9375-6.48828.832031-8.90625-1.015626-3.45703-2.902343-3.14453-9.246093.94531-11.460937 3.54297-1.933594 8.29687-1.902344 12.25391-1.972656-.0273-1.863281.17187-3.546875-.73438-5.25-.79687-1.394531-2.44922-1.984375-3.98828-1.988281-2.59766-.08594-4.70313.859374-7.06641 1.769531-.35547-.871094-.71484-1.75-1.07812-2.621094 2.96875-1.429687 6.4414-2.226563 9.73047-1.839844zm0 0"/><path d="m190.42187 42.90625c2.31641 1.347656 3.14844 4.003906 3.22266 6.550781.0547 5.546875 0 11.097657.0234 16.648438-1.19531.0039-2.39453.0039-3.59766.0039-.0273-5.558594.0586-11.125-.0312-16.6875-.0742-2.089844-.99609-3.921875-3.04297-4.648437-2.23047-.65625-4.92968-.441407-6.90234.855468-2.05859 1.449219-2.54297 4.238282-2.64453 6.585938-.0195 4.628906.008 9.261718-.004 13.894531-1.21094 0-2.41797 0-3.6289 0-.004-7.960937 0-15.925781 0-23.886719h2.95703c.17578 1.0625.35547 2.128906.51953 3.195313 3.02734-4.074219 8.80078-4.785157 13.1289-2.511719zm0 0"/><g fill="#fff"><path d="m53.253906 46.195312c1.363282 1.589844 1.472656 3.464844 1.675782 5.445313-4.191407.05469-8.378907.02734-12.570313.01563.320313-1.746094.574219-3.367188 1.683594-4.816406 1.984375-2.902344 6.875-3.3125 9.210937-.644532zm0 0"/><path d="m78.632812 54.417969c.0078 2.152343.167969 4.09375-.839843 6.085937-1.425781 2.960938-5.539063 4.058594-8.476563 3.058594-3.28125-1.113281-3.121094-6.363281-.195312-7.761719 2.761718-1.421875 6.472656-1.15625 9.511718-1.382812zm0 0"/><path d="m162.52344 54.417969c.004 2.152343.16406 4.09375-.83985 6.085937-1.42968 2.960938-5.53906 4.058594-8.47656 3.058594-3.28516-1.113281-3.125-6.363281-.19531-7.761719 2.76172-1.421875 6.47265-1.15625 9.51172-1.382812zm0 0"/></g></g></svg>