<svg width="128" height="32" viewBox="0 0 128 32" fill="none" xmlns="http://www.w3.org/2000/svg">
<path d="M44.3219 9.49936C43.1094 7.96725 41.2898 7.01367 38.8301 7.01367C34.3484 7.01367 30.6426 10.9292 30.6426 16.0029C30.6426 21.0765 34.3484 24.9931 38.8301 24.9931C41.2898 24.9931 43.1094 24.0395 44.3219 22.5074V24.5158H48.6687V7.48993H44.3219V9.49936ZM39.644 20.8048C36.982 20.8048 34.9936 18.8636 34.9936 16.0029C34.9936 13.1421 36.9767 11.202 39.644 11.202C42.3398 11.202 44.3271 13.1432 44.3271 16.0029C44.3271 18.8625 42.3345 20.8048 39.644 20.8048Z" fill="#515151"/>
<path d="M61.7413 7.01367C59.2817 7.01367 57.4957 7.93315 56.2833 9.49936V7.48993H51.9365V31.3251H56.2833V22.5074C57.4957 24.0736 59.2817 24.9931 61.7413 24.9931C66.2568 24.9931 69.9647 21.0776 69.9647 16.0029C69.9647 10.9281 66.2568 7.01367 61.7413 7.01367ZM60.9327 20.8048C58.2706 20.8048 56.2833 18.8636 56.2833 16.0029C56.2833 13.1421 58.2706 11.202 60.9327 11.202C63.6285 11.202 65.6169 13.1432 65.6169 16.0029C65.6169 18.8625 63.6285 20.8048 60.9327 20.8048V20.8048Z" fill="#515151"/>
<path d="M80.3736 7.01367C75.4184 7.01367 71.4775 10.9292 71.4775 16.0029C71.4775 21.0765 75.4195 24.9931 80.3736 24.9931C85.3276 24.9931 89.2991 21.0776 89.2991 16.0029C89.2991 10.9281 85.3266 7.01367 80.3736 7.01367ZM80.3736 20.7026C77.8127 20.7026 75.8243 18.7613 75.8243 16.0029C75.8243 13.2444 77.8127 11.3042 80.3736 11.3042C82.9671 11.3042 84.9555 13.2455 84.9555 16.0029C84.9555 18.7602 82.9671 20.7026 80.3736 20.7026V20.7026Z" fill="#515151"/>
<path d="M96.0464 10.42V7.49107H91.6943V24.5169H96.0464V16.379C96.0464 12.8034 98.9098 11.7816 101.167 12.0544V7.15332C99.0395 7.15119 96.9172 8.09944 96.0464 10.42Z" fill="#515151"/>
<path d="M105.169 0.03125C103.72 0.03125 102.507 1.29061 102.507 2.7556C102.507 3.47362 102.789 4.16224 103.291 4.66996C103.794 5.17767 104.475 5.46291 105.186 5.46291C105.896 5.46291 106.578 5.17767 107.08 4.66996C107.582 4.16224 107.865 3.47362 107.865 2.7556C107.857 2.03547 107.571 1.34702 107.067 0.837772C106.563 0.328529 105.881 0.039009 105.169 0.03125V0.03125Z" fill="#515151"/>
<path d="M107.36 7.48926H103.014V24.5151H107.36V7.48926Z" fill="#515151"/>
<path d="M123.465 7.48993V9.49936C122.253 7.96725 120.433 7.01367 117.974 7.01367C113.492 7.01367 109.785 10.9292 109.785 16.0029C109.785 21.0765 113.492 24.9931 117.974 24.9931C120.433 24.9931 122.253 24.0395 123.465 22.5074V24.5158H127.812V7.48993H123.465ZM118.782 20.808C116.12 20.808 114.132 18.8668 114.132 16.0061C114.132 13.1453 116.12 11.2051 118.782 11.2051C121.478 11.2051 123.465 13.1464 123.465 16.0061C123.465 18.8657 121.478 20.8048 118.782 20.8048V20.808Z" fill="#515151"/>
<path d="M21.0938 8.82831L12.3549 0L3.61915 8.82831C1.97215 10.4924 0.82418 12.593 0.307652 14.888C-0.208875 17.183 -0.0729139 19.5788 0.699854 21.7991C1.13695 19.4256 2.27661 17.2422 3.96812 15.5374L12.3528 7.06073L20.7407 15.5374C22.4345 17.2405 23.5745 19.4247 24.0089 21.7991C24.7822 19.5792 24.9189 17.1836 24.4031 14.8887C23.8873 12.5937 22.7401 10.4928 21.0938 8.82831V8.82831Z" fill="#48CFAD"/>
<path d="M12.354 12.7119L6.76634 18.3588C6.03204 19.1008 5.44955 19.9818 5.05214 20.9513C4.65474 21.9208 4.4502 22.96 4.4502 24.0094C4.4502 25.0588 4.65474 26.098 5.05214 27.0675C5.44955 28.037 6.03204 28.918 6.76634 29.66V29.66C8.24918 31.1584 10.2602 32.0002 12.3572 32.0002C14.4541 32.0002 16.4652 31.1584 17.948 29.66V29.66C18.6823 28.918 19.2648 28.037 19.6622 27.0675C20.0596 26.098 20.2642 25.0588 20.2642 24.0094C20.2642 22.96 20.0596 21.9208 19.6622 20.9513C19.2648 19.9818 18.6823 19.1008 17.948 18.3588L12.354 12.7119ZM14.451 26.1366C14.0363 26.5559 13.5079 26.8415 12.9325 26.9573C12.3572 27.0731 11.7608 27.0139 11.2188 26.7871C10.6768 26.5603 10.2135 26.1761 9.88755 25.6832C9.56159 25.1903 9.38762 24.6108 9.38762 24.0179C9.38762 23.4251 9.56159 22.8455 9.88755 22.3526C10.2135 21.8597 10.6768 21.4756 11.2188 21.2488C11.7608 21.022 12.3572 20.9627 12.9325 21.0785C13.5079 21.1943 14.0363 21.4799 14.451 21.8993C15.0054 22.4609 15.3168 23.2219 15.3168 24.0153C15.3168 24.8086 15.0054 25.5696 14.451 26.1312V26.1366Z" fill="#48CFAD"/>
</svg>
