<svg id="Layer_1" data-name="Layer 1" xmlns="http://www.w3.org/2000/svg" xmlns:xlink="http://www.w3.org/1999/xlink" viewBox="0 0 181.5 164.5"><defs><style>.cls-1{fill:none;}.cls-2{clip-path:url(#clip-path);}.cls-3{fill:#ff6c37;}.cls-4{fill:#fff;}.cls-5{fill:#f36c3d;}</style><clipPath id="clip-path"><rect class="cls-1" x="1.25" y="0.72" width="179" height="183"/></clipPath></defs><g class="cls-2"><path class="cls-3" d="M9.31,136.46H2.48a1.28,1.28,0,0,0-.88.31,1,1,0,0,0-.26.33,1,1,0,0,0-.09.42v24.34a.9.9,0,0,0,.48.8,2.13,2.13,0,0,0,2.11,0,.88.88,0,0,0,.45-.8v-9.35H9.17a8.22,8.22,0,0,0,5.64-1.9c1.41-1.28,2.12-3.26,2.12-6v-.33q0-4-2.12-5.94A8,8,0,0,0,9.31,136.46ZM14,144.8a5.29,5.29,0,0,1-1.24,3.85A4.65,4.65,0,0,1,9.19,150H4.33V139.22H9.21a4.74,4.74,0,0,1,1.9.27,4.69,4.69,0,0,1,1.63,1A5.28,5.28,0,0,1,14,144.35Z"/><path class="cls-3" d="M29.74,138.37c-1.41,1.26-2.12,3.27-2.12,6v10.92c0,2.74.7,4.72,2.12,6a9.35,9.35,0,0,0,11.35,0q2.11-1.89,2.11-6V144.35c0-2.71-.71-4.72-2.11-6a9.39,9.39,0,0,0-11.35,0Zm10.41,16.9a5.39,5.39,0,0,1-1.23,3.86,4.69,4.69,0,0,1-1.63,1,4.58,4.58,0,0,1-1.9.28q-4.72,0-4.73-5.15V144.35c0-3.42,1.58-5.14,4.73-5.14a4.93,4.93,0,0,1,1.9.28,4.69,4.69,0,0,1,1.63,1,5.34,5.34,0,0,1,1.23,3.85Z"/><path class="cls-3" d="M65.31,148.67c-1.19-.53-2.35-1-3.53-1.42a9.15,9.15,0,0,1-3-1.64,3.34,3.34,0,0,1-.92-1.22,3.53,3.53,0,0,1-.27-1.5,3.23,3.23,0,0,1,.3-1.62A3.12,3.12,0,0,1,59,140a6.39,6.39,0,0,1,3.52-.88,7.94,7.94,0,0,1,3.36.69,12.87,12.87,0,0,0,1.63.65,1.1,1.1,0,0,0,.55-.16,1,1,0,0,0,.39-.43,2.1,2.1,0,0,0,.36-1.06c0-.72-.69-1.31-2-1.76a13.91,13.91,0,0,0-4.29-.65,11.31,11.31,0,0,0-2.78.33,9.78,9.78,0,0,0-2.52,1.06,5.07,5.07,0,0,0-1.92,2.13,7.14,7.14,0,0,0-.72,3.31,6.22,6.22,0,0,0,1.22,4,7.59,7.59,0,0,0,3,2.28c1.21.51,2.36,1,3.53,1.4a8.13,8.13,0,0,1,3,1.9A4.51,4.51,0,0,1,66.43,156a4.17,4.17,0,0,1-1.35,3.36,5.49,5.49,0,0,1-3.68,1.13,6.87,6.87,0,0,1-2.65-.44,4.78,4.78,0,0,1-1.7-1.06c-.37-.37-.72-.71-1.06-1a1.36,1.36,0,0,0-.83-.46,1.15,1.15,0,0,0-.5.17,1.09,1.09,0,0,0-.37.37,1.87,1.87,0,0,0-.42,1.13c0,.88.74,1.77,2.27,2.67a10.13,10.13,0,0,0,5.43,1.35,8.33,8.33,0,0,0,5.74-1.9A7,7,0,0,0,69,158.77a6.93,6.93,0,0,0,.43-3.06,7.44,7.44,0,0,0-4.11-7Z"/><path class="cls-3" d="M94.31,136.46H79.6a.87.87,0,0,0-.45.1,1,1,0,0,0-.35.31,1.55,1.55,0,0,0-.29.93,1.6,1.6,0,0,0,.34,1,.85.85,0,0,0,.34.31.71.71,0,0,0,.45.09h5.85v22.65a1,1,0,0,0,.11.46.92.92,0,0,0,.34.34,2.08,2.08,0,0,0,1.06.28,2.1,2.1,0,0,0,1.06-.28.9.9,0,0,0,.33-.34.83.83,0,0,0,.11-.46V139.21h5.81a.77.77,0,0,0,.45-.1,1,1,0,0,0,.35-.31,1.76,1.76,0,0,0,.28-1,1.69,1.69,0,0,0-.28-.93,1,1,0,0,0-.35-.31A.87.87,0,0,0,94.31,136.46Z"/><path class="cls-3" d="M123.46,136.46c-.92,0-1.72.64-2.42,1.93l-5.7,10.93-5.68-10.93c-.65-1.29-1.46-1.93-2.42-1.93a1.93,1.93,0,0,0-.48,0,1.38,1.38,0,0,0-.84.55,1.42,1.42,0,0,0-.22,1v23.87a.88.88,0,0,0,.12.5,1,1,0,0,0,.37.34,2,2,0,0,0,1.06.3,1.91,1.91,0,0,0,1.06-.34.9.9,0,0,0,.33-.34.83.83,0,0,0,.11-.46V142.65l5.46,10.47a1.29,1.29,0,0,0,.43.62,1.27,1.27,0,0,0,.7.28,1.42,1.42,0,0,0,.73-.27,1.36,1.36,0,0,0,.45-.63L122,142.84v19a.91.91,0,0,0,.46.8,2.18,2.18,0,0,0,1.06.28,2.21,2.21,0,0,0,1.06-.28.9.9,0,0,0,.33-.34.93.93,0,0,0,.12-.46V138a1.15,1.15,0,0,0,0-.37,1.12,1.12,0,0,0-.18-.5,1.31,1.31,0,0,0-.35-.39,1.28,1.28,0,0,0-.49-.22A1.3,1.3,0,0,0,123.46,136.46Z"/><path class="cls-3" d="M144.65,136.47c-1.06,0-1.63.37-1.84,1.07l-7.41,23.88a.9.9,0,0,0-.08.28,1.06,1.06,0,0,0,.17.57,1,1,0,0,0,.44.39,2.25,2.25,0,0,0,1.21.36,1,1,0,0,0,1.06-.7l1.59-5.31h9.53l1.58,5.31a1,1,0,0,0,.41.52,1.12,1.12,0,0,0,.64.17,2.49,2.49,0,0,0,1.33-.36,1.09,1.09,0,0,0,.41-.36,1.12,1.12,0,0,0,.18-.52.21.21,0,0,0,0-.11.28.28,0,0,1,0-.13l-7.41-24C146.28,136.84,145.68,136.47,144.65,136.47Zm-4.07,18,4-13.55,4,13.55Z"/><path class="cls-3" d="M179.79,136.72a2.13,2.13,0,0,0-1-.27,2.17,2.17,0,0,0-1.06.27,1,1,0,0,0-.34.32.92.92,0,0,0-.12.45v18.57l-9-17.68a5.13,5.13,0,0,0-1.05-1.47,2,2,0,0,0-1.3-.45c-1.05,0-1.51.35-1.51,1.07v24.34a.83.83,0,0,0,.11.46.9.9,0,0,0,.33.34,2.1,2.1,0,0,0,1.06.28,2.05,2.05,0,0,0,1.06-.28.88.88,0,0,0,.45-.8V143.34l9.4,18.24a2.17,2.17,0,0,0,.75,1,2.32,2.32,0,0,0,1.16.41,2,2,0,0,0,1.06-.3.86.86,0,0,0,.34-.34.93.93,0,0,0,.12-.46V137.49a1,1,0,0,0-.1-.44A.89.89,0,0,0,179.79,136.72Z"/><path class="cls-4" d="M97.62,3.79A54.09,54.09,0,0,0,73.53,108.7a54.06,54.06,0,0,0,59.86-84.31A53.89,53.89,0,0,0,97.62,3.79Z"/><path class="cls-5" d="M123.1,29.18a.65.65,0,0,0-.21.16.59.59,0,0,0-.12.22.54.54,0,0,0,0,.25.72.72,0,0,0,.07.25,2,2,0,0,1,.19,1.1,2,2,0,0,1-.43,1,.69.69,0,0,0-.14.33.72.72,0,0,0,.06.36.67.67,0,0,0,.23.27.67.67,0,0,0,.34.1.72.72,0,0,0,.29-.06.63.63,0,0,0,.22-.18,3.27,3.27,0,0,0,.4-3.56.58.58,0,0,0-.16-.19.48.48,0,0,0-.22-.12.54.54,0,0,0-.25,0A.62.62,0,0,0,123.1,29.18Z"/><path class="cls-3" d="M97.94,1.19a56.72,56.72,0,0,0-25.19,110,56.69,56.69,0,1,0,25.19-110Zm11.65,35.38a4.09,4.09,0,0,0-2.8,1.18l-21,21-4.47-4.49C102,33.65,105.74,33.42,109.59,36.57Zm-22.92,23,20.93-21a2.92,2.92,0,0,1,4.77,1,3,3,0,0,1,.2,1.15,2.9,2.9,0,0,1-.27,1.16,2.86,2.86,0,0,1-.72,1L89.44,62.32Zm1.56,3.27L83,63.94a.31.31,0,0,1-.19,0,.27.27,0,0,1-.13-.13.23.23,0,0,1,0-.18.34.34,0,0,1,.08-.17l3-3.05ZM75,60.69l5.53-5.54,4.14,4.15-9.33,2a.36.36,0,0,1-.23,0,.35.35,0,0,1-.17-.17.34.34,0,0,1-.06-.12.57.57,0,0,1,0-.13.29.29,0,0,1,.05-.13.39.39,0,0,1,.08-.1ZM57.83,89.36a.31.31,0,0,1-.18-.07.36.36,0,0,1-.11-.16.3.3,0,0,1,0-.21.32.32,0,0,1,.09-.17l4.46-4.48,5.76,5.78Zm11.44-5.93a1,1,0,0,0-.49.5,1.05,1.05,0,0,0-.06.7l1,4.09a.62.62,0,0,1,0,.38.59.59,0,0,1-.25.27.54.54,0,0,1-.37.07.6.6,0,0,1-.34-.16l-5.78-5.8L80.61,65.7l8.58-1.84L93.31,68c-5.93,5.11-14,10.31-24,15.36ZM94.14,67.22l-4-4,22.13-19.58a5.21,5.21,0,0,0,.56-.59c-.69,6.36-9.55,15.34-18.73,24.07Zm17.24-30.55A8.6,8.6,0,0,1,123,24l-7.6,7.56a.54.54,0,0,0-.17.4.52.52,0,0,0,0,.21.46.46,0,0,0,.13.18l5.87,5.9a8.49,8.49,0,0,1-9.85-1.62Zm12.14,0a8.09,8.09,0,0,1-1.27,1.07l-5.71-5.8,7.23-7.25a8.62,8.62,0,0,1-.26,11.91Z"/></g></svg>