<svg height="200" viewBox="0 0 200 200" width="200" xmlns="http://www.w3.org/2000/svg" xmlns:xlink="http://www.w3.org/1999/xlink"><linearGradient id="a" gradientTransform="matrix(1.885618 -1.885618 1.885618 1.885618 -402.746663 -841.65332)" gradientUnits="userSpaceOnUse" x1="-191.380005" x2="-41.380001" y1="383.01001" y2="383.01001"><stop offset="0" stop-color="#4d27a8"/><stop offset="1" stop-color="#a166ff"/></linearGradient><path d="m0 0h200v200h-200z" fill="url(#a)"/><g fill="#fff"><path d="m100 73.199219h-13.332031c-1.472657 0-2.667969 1.195312-2.667969 2.667969v48c0 1.472656 1.195312 2.667968 2.667969 2.667968h13.332031c1.472656 0 2.667969-1.195312 2.667969-2.667968v-48c0-1.472657-1.195313-2.667969-2.667969-2.667969zm-2.667969 48h-8v-42.664063h8zm0 0"/><path d="m132.585938 86.585938-29.917969-6.585938-2.082031-.425781c-.792969-.1875-1.628907 0-2.265626.503906-.621093.503906-.980468 1.257813-.988281 2.054687v35.519532c-.007812.816406.355469 1.59375.988281 2.109375.488282.355469 1.074219.550781 1.679688.558593h.585938l2.082031-.480468 29.917969-6.640625c1.242187-.277344 2.113281-1.394531 2.082031-2.664063v-21.335937c.003906-1.25-.859375-2.335938-2.082031-2.613281zm-3.253907 21.839843-26.664062 5.921875v-29.015625l26.664062 5.949219zm0 0"/><path d="m166.667969 85.332031v5.601563c-8.675781 2.449218-17.652344 3.664062-26.667969 3.601562v-5.335937c9.035156.070312 18.023438-1.234375 26.667969-3.867188zm0 0"/><path d="m166.667969 95.734375v5.332031c-8.851563 1.023438-17.757813 1.496094-26.667969 1.414063v-5.332031c8.910156.101562 17.816406-.371094 26.667969-1.414063zm0 0"/><path d="m166.667969 99.09375v5.332031c-8.828125-1.308593-17.742188-1.949219-26.667969-1.917969v-5.335937c8.925781-.027344 17.839844.613281 26.667969 1.921875zm0 0"/><path d="m166.667969 108.933594v5.734375c-8.621094-2.761719-17.621094-4.136719-26.667969-4.082031v-5.332032c9.019531-.078125 18.003906 1.160156 26.667969 3.679688zm0 0"/><path d="m78.667969 86.535156v5.332032c-15.886719-.839844-31.382813-5.242188-45.335938-12.878907v-6.242187c11.761719 7.679687 27.414063 12.292968 45.335938 13.789062zm0 0"/><path d="m78.667969 97.148438v5.332031c-7.734375-.347657-16.535157-1.066407-25.386719-2.347657-6.738281-.914062-13.402344-2.296874-19.949219-4.132812v-5.519531c14.792969 4.023437 30.011719 6.257812 45.335938 6.667969zm0 0"/><path d="m78.667969 97.8125v5.335938c-15.324219.417968-30.539063 2.65625-45.335938 6.664062v-5.519531c6.5625-1.84375 13.246094-3.214844 20-4.105469 8.800781-1.308594 17.601563-2 25.335938-2.375zm0 0"/><path d="m78.667969 77.761719v5.332031c-36.773438-4.265625-45.09375-23.121094-45.09375-39.171875 0-.613281 0-10.667969 0-10.667969h5.332031v10.800782c0 13.707031 7.359375 29.730468 39.761719 33.707031zm0 0"/><path d="m78.667969 108.238281v5.335938c-17.894531 1.492187-33.546875 6.238281-45.335938 13.867187v-6.214844c13.953125-7.65625 29.445313-12.09375 45.335938-12.988281zm0 0"/><path d="m78.667969 117.121094v5.332031c-20.695313 2.535156-39.761719 10.960937-39.761719 33.332031v2.082032 8.398437l-2.1875.1875-3.117188.238281c-.015624-.078125-.015624-.160156 0-.238281 0-.640625 0-2.375 0-8.640625 0-1.121094 0-1.867188 0-2.027344-.027343-15.839844 8.292969-34.425781 45.066407-38.664062zm0 0"/></g></svg>