<svg height="200" viewBox="0 0 200 200" width="200" xmlns="http://www.w3.org/2000/svg" xmlns:xlink="http://www.w3.org/1999/xlink"><linearGradient id="a" gradientTransform="matrix(-1.885618 -1.885618 1.885618 -1.885618 -6448.986979 -2540.586589)" gradientUnits="userSpaceOnUse" x1="-2436.76001" x2="-2436.76001" y1="961.369995" y2="1111.369995"><stop offset="0" stop-color="#b0084d"/><stop offset="1" stop-color="#ff4f8b"/></linearGradient><path d="m0 0h200v200h-200z" fill="url(#a)"/><path d="m100.160156 124c1.085938-.0625 2.027344-.78125 2.375-1.8125l15.839844-47.519531 8.371094 31.410156c.324218 1.199219 1.425781 2.019531 2.667968 1.976563h37.332032v-5.335938h-35.359375l-10.132813-38.027344c-.308594-1.136718-1.328125-1.941406-2.507812-1.972656-1.195313-.0625-2.285156.679688-2.667969 1.816406l-16.53125 49.625-13.121094-28.613281c-.417969-.910156-1.316406-1.507813-2.320312-1.546875-.992188-.042969-1.929688.472656-2.425781 1.332031l-9.894532 17.335938h-27.785156v5.332031h29.332031c.957031.003906 1.84375-.503906 2.320313-1.332031l8-14.1875 13.8125 29.972656c.4375.945313 1.386718 1.550781 2.429687 1.546875zm-61.492187-21.332031h-5.335938v5.332031h5.335938zm102.503906 10.664062-1.304687 1.65625-37.761719 48c-.503907.648438-1.28125 1.03125-2.105469 1.03125s-1.601562-.382812-2.105469-1.03125l-38.773437-49.65625h6.773437l34.105469 43.679688 34.453125-43.679688zm25.496094-43.679687c.007812 5.398437-1.320313 10.710937-3.867188 15.46875-.808593 1.59375-1.746093 3.117187-2.800781 4.558594l-2.1875 2.667968-3.972656 5.066406h-6.667969l8.667969-10.988281c.878906-1.1875 1.671875-2.433593 2.375-3.734375 2.125-3.988281 3.234375-8.4375 3.226562-12.957031-.292968-15.917969-13.417968-28.589844-29.335937-28.320313-14.613281 0-29.332031 7.546876-29.332031 24.453126 0 1.472656-1.195313 2.667968-2.667969 2.667968-1.472657 0-2.664063-1.195312-2.664063-2.667968 0-16.90625-14.722656-24.453126-29.335937-24.453126-15.914063-.269531-29.039063 12.402344-29.332031 28.320313-.042969 4.5 1.027343 8.945313 3.121093 12.933594l11.4375 14.664062h-6.691406l-9.09375-11.652343-.214844-.347657c-2.625-4.804687-3.992187-10.199219-3.972656-15.679687.308594-18.851563 15.8125-33.90625 34.667969-33.652344 15.171875 0 26.960937 6.773438 32 17.464844 5.039062-10.664063 16.824218-17.464844 32-17.464844 18.84375-.238281 34.332031 14.808594 34.640625 33.652344zm0 0" fill="#fff"/></svg>