<svg height="194" viewBox="0 0 200 194" width="200" xmlns="http://www.w3.org/2000/svg"><g transform="matrix(.93414935 0 0 .93414935 6.585017 6.387514)"><path d="m194.13281 0c7.47266 31.703125 7.84375 65.59375-.0898 97.226562-6.98438 27.972658-21.72266 53.703128-42.83594 73.425778-14.6875-3.57422-29.28515-7.46093-44.02734-10.78906 11.21484-12.29687 18.96875-28.11328 25.11328-43.45703 7.63281-19.792969 11.21094-40.652344 12.125-61.792969l.0352-.910156c16.72257-17.742187 32.8671-36.03125 49.6796-53.703125zm0 0" fill="#fdb83f"/><path d="m142.55859 22.59375c1.57813 10.316406 2.28125 20.6875 1.89453 31.109375l-.0352.910156c-28.92188 30.808594-57.191408 62.265629-85.968751 93.234379-8.425781-2.01563-16.832031-4.15235-25.253907-6.25391 36.414063-39.70703 72.789068-79.449219 109.363278-119zm0 0" fill="#fdb31e"/><path d="m144.41797 54.613281c-.91406 21.140625-4.49219 42-12.125 61.792969-6.14453 15.34375-13.89844 31.16016-25.11328 43.45703-16.250002-3.99609-32.464846-8.10937-48.730471-12.01562 28.777343-30.96875 57.046871-62.425785 85.968751-93.234379zm0 0" fill="#f87f00"/><path d="m.132812 138.39062c46.644532 11.59375 93.359376 22.91016 140.019528 34.41407-28.95312-2.27344-59.417965 3.29297-82.914059 21.19531-13.550781-19.73828-30.640625-40.47656-51.613281-52.63281-1.824219-1.01563-3.648438-1.9961-5.492188-2.97657zm0 0" fill="#191e8a"/></g></svg>