<svg height="200" viewBox="0 0 200 200" width="200" xmlns="http://www.w3.org/2000/svg" xmlns:xlink="http://www.w3.org/1999/xlink"><linearGradient id="a" gradientTransform="matrix(5.537073 0 0 5.002794 27.074169 8.053996)" gradientUnits="userSpaceOnUse" x1="28.465668" x2="17.87253" y1="20.726095" y2="27.416498"><stop offset="0" stop-color="#3c9fe6"/><stop offset="1" stop-color="#77cffd"/></linearGradient><linearGradient id="b" gradientTransform="matrix(5.537073 0 0 5.002794 27.074169 67.13821)" gradientUnits="userSpaceOnUse" x1="16.959055" x2="-1.625396" y1="14.19722" y2="2.489016"><stop offset=".36" stop-color="#2285e1"/><stop offset=".79" stop-color="#2581cb"/></linearGradient><path d="m73.292969 157.507812v34.757813l102.902343-58.21875v-34.757813zm0 0" fill="url(#a)"/><path d="m73.292969 74.960938 102.902343 58.21875v-34.757813l-102.902343-58.21875zm0 0" fill="#77cffd"/><path d="m27.074219 101.894531 102.902343 58.21875v-34.757812l-102.902343-58.21875zm0 0" fill="#3195e3"/><path d="m27.074219 101.894531 102.902343 58.21875v-34.757812l-102.902343-58.21875zm0 0" fill="url(#b)"/><path d="m129.976562 8.054688-102.902343 58.214843v34.757813l102.902343-58.214844zm0 0" fill="#3195e3"/><path d="m129.976562 125.4375v34.675781l-30.644531-17.335937zm-56.683593-50.558594v-34.675781l30.648437 17.339844zm0 0" fill="#2285e1"/></svg>