<svg width="41" height="40" viewBox="0 0 41 40" fill="none" xmlns="http://www.w3.org/2000/svg">
<path fill-rule="evenodd" clip-rule="evenodd" d="M33.3521 0L30.6574 1.49069L28.1868 2.98137C27.4403 3.42858 26.6939 3.86833 25.9027 4.32299L23.7828 5.58262C23.8426 5.91057 23.9023 6.24598 23.9545 6.59629C24.074 7.34163 24.1635 8.1466 24.2307 8.92921C24.2307 9.20306 24.2577 9.48289 24.285 9.76681C24.3008 9.93109 24.3168 10.0967 24.3277 10.2634C25.9923 9.42859 27.6792 8.61617 29.3661 7.81865C31.3889 6.86461 33.4192 5.92548 35.457 5.01616C35.1435 4.07703 34.8001 3.16026 34.412 2.25094C34.091 1.50559 33.7327 0.76025 33.3521 0.0149069V0ZM20.9611 7.27885L20.9681 7.27448H20.9606L20.9611 7.27885ZM20.9611 7.27885L19.1767 8.3925L17.4898 9.47324C16.4497 10.1441 15.4197 10.8223 14.3995 11.508C14.3995 11.8211 14.3995 12.1341 14.3324 12.4621C14.29 12.6691 14.2773 12.8851 14.2643 13.1062V13.1062C14.2568 13.2353 14.2491 13.3662 14.2353 13.4981C14.1458 14.2434 14.0487 15.041 13.9293 15.8161C15.0489 15.1677 16.1686 14.5267 17.3106 13.908C18.5795 13.1975 19.8609 12.5093 21.1547 11.8434V10.5465V10.5465C21.1547 10.1366 21.1547 9.74155 21.1174 9.36144C21.1174 8.71866 21.0483 8.08216 20.9792 7.44617L20.9611 7.27885ZM7.32093 16.5317C8.97302 15.3043 10.645 14.1043 12.3369 12.9316L12.3444 12.9242L12.3443 12.9245V12.9245V12.9245V12.9245V12.9245V12.9246V12.9246C12.307 13.23 12.2697 13.5355 12.2324 13.8633L12.2246 13.9326V13.9326L12.2245 13.9327C12.1897 14.2395 12.1536 14.5583 12.0981 14.877C12.0384 15.2199 11.9786 15.5776 11.9189 15.9652C11.8592 16.3528 11.792 16.7404 11.7099 17.1428L10.2768 18.0298L8.91082 18.8869C8.05989 19.431 7.20896 19.99 6.3655 20.5565C6.47 20.1913 6.56703 19.8037 6.6566 19.4459C6.74618 19.0882 6.82828 18.7453 6.91039 18.4025C7.05968 17.7838 7.19403 17.1577 7.32093 16.5317ZM9.91164 20.3105L11.4045 19.4757L11.397 19.4981C11.2925 19.9304 11.1806 20.3776 11.0611 20.8323C10.7999 21.8161 10.5312 22.8 10.2475 23.7764C10.0982 24.3056 9.9415 24.8422 9.77728 25.3938C8.76214 25.841 7.66489 26.3478 6.74678 26.7876C5.82868 27.2273 4.9255 27.6894 4.02232 28.159C4.20147 27.6372 4.37314 27.1453 4.54482 26.6683C4.7165 26.1913 4.88072 25.7292 5.03 25.2745C5.32111 24.4248 5.60475 23.5751 5.87346 22.7254C7.20708 21.8906 8.55314 21.0857 9.91164 20.3105ZM8.97953 28.2409C7.94199 28.6285 6.91192 29.0459 5.89678 29.4782C4.88164 29.9105 4.04564 30.2906 3.135 30.7304C2.38873 32.7573 1.64246 34.7693 0.89619 36.7813L0.895714 36.7826C0.715184 37.257 0.528606 37.7313 0.335981 38.2211L0.335873 38.2214L0.335817 38.2215C0.225849 38.5011 0.11391 38.7857 0 39.0782C0.455321 38.9366 0.910642 38.8099 1.37343 38.6832C2.36618 38.4223 3.35893 38.1913 4.35914 37.9975C4.89657 37.8931 5.44146 37.7962 6.00128 37.7068C6.29985 36.8273 6.59096 35.9478 6.8746 35.0683C7.15078 34.2335 7.41203 33.4211 7.65835 32.6236C7.90467 31.826 8.13607 31.0881 8.35999 30.3875C8.55281 29.7842 8.73456 29.1644 8.91 28.566L8.91007 28.5658L8.91009 28.5657L8.99446 28.2782L8.97953 28.2409ZM20.3728 24.7453L20.3562 24.7495L20.3579 24.7379L20.3728 24.7453ZM20.3562 24.7495C20.2298 25.6027 20.096 26.4564 19.9474 27.3838C19.8233 28.158 19.689 28.9269 19.5443 29.7549L19.4547 30.2683C19.2756 31.2969 19.089 32.3255 18.8725 33.4435C18.656 34.5615 18.4246 35.7242 18.1783 36.9168C17.8533 36.9168 17.53 36.9151 17.2109 36.9134H17.2107H17.2105H17.2104H17.21C16.5842 36.9101 15.9749 36.9069 15.4016 36.9168C14.5358 36.9317 13.6475 36.954 12.9011 36.9913C12.1546 37.0286 11.3709 37.0733 10.6618 37.1329C9.95268 37.1925 9.26597 37.2522 8.59419 37.3342C9.17142 35.5453 9.70885 33.7515 10.2065 31.9528C10.6469 30.4174 11.0649 28.882 11.4754 27.3391C12.1099 27.1155 12.7369 26.9068 13.4236 26.6907L13.4237 26.6906L13.4237 26.6906C14.1104 26.4745 14.7971 26.2583 15.5434 26.0497C17.1403 25.5842 18.7445 25.1508 20.3562 24.7495ZM29.7177 10.1217C31.8724 9.20741 34.0395 8.31797 36.2191 7.45337H36.249C36.6371 8.86952 36.9879 10.2931 37.279 11.7316C37.6523 13.5354 37.9732 15.3466 38.2419 17.1652C36.7715 17.4857 35.3234 17.8211 34.0395 18.1192C32.7557 18.4174 31.5315 18.7155 30.3522 19.0062C28.2771 19.5279 26.212 20.082 24.1568 20.6683C24.1982 20.1207 24.2324 19.5408 24.2645 18.9983L24.2645 18.998L24.2645 18.9979L24.2645 18.9976C24.2787 18.7576 24.2924 18.5249 24.3061 18.3056L24.3184 18.1102C24.3599 17.4531 24.4032 16.769 24.4032 16.159V14.2136V12.4546C25.1623 12.1058 25.8851 11.7872 26.675 11.439L26.6752 11.4389L26.941 11.3217C27.7101 10.9825 28.5012 10.6433 29.3144 10.2947L29.3146 10.2946L29.7177 10.1217ZM34.2701 21.9876C35.6809 21.7491 37.1737 21.5181 38.7487 21.287H38.7636C38.898 22.4498 39.0174 23.5529 39.1443 24.9243C39.2712 26.2957 39.3832 27.6672 39.4877 29.0386C39.5971 30.5939 39.6942 32.1516 39.7788 33.7119C39.8584 35.4113 39.933 37.1877 40.0027 39.0411C38.0023 38.743 36.0392 38.4672 34.3746 38.251C32.7101 38.0349 31.0605 37.8486 29.6423 37.6995C28.2241 37.5504 26.8208 37.4163 25.5966 37.3194C24.3725 37.2225 23.2081 37.1405 22.0884 37.0808C22.4766 34.6883 22.8349 32.2808 23.1558 29.8734C23.4146 27.9156 23.646 25.9429 23.85 23.9553C24.8353 23.7392 25.8056 23.538 26.9104 23.3144C28.0151 23.0908 29.1123 22.8821 30.3589 22.6585C31.3899 22.4735 32.4261 22.2987 33.5519 22.1089C33.7871 22.0692 34.0263 22.0289 34.2701 21.9876Z" fill="white"/>
</svg>
