<svg id="art" xmlns="http://www.w3.org/2000/svg" viewBox="0 0 2090 750"><defs><style>.cls-1{fill:#008c99;fill-rule:evenodd;}</style></defs><path d="M792.91,394.25q-21.93,0-34.48,15.54t-12.56,42.9q0,28.63,12.08,43.32t35,14.69a91.37,91.37,0,0,0,19.16-2q9.27-2,19.27-5.05V525.5q-18.3,6.91-41.51,6.92-34.17,0-52.48-20.71T719,452.48q0-24.27,8.89-42.47a63.36,63.36,0,0,1,25.71-27.89q16.82-9.69,39.49-9.69a98.06,98.06,0,0,1,44.07,10L828,403.62a136.79,136.79,0,0,0-16.66-6.55A60,60,0,0,0,792.91,394.25Z"/><path d="M955.73,471.21q0,28.85-14.79,45t-41.2,16.18q-16.5,0-29.16-7.45a49.16,49.16,0,0,1-19.48-21.4q-6.81-13.94-6.81-32.36,0-28.63,14.68-44.71t41.41-16.07q25.54,0,40.45,16.45T955.73,471.21Zm-85.69,0Q870,512,900.17,512q29.8,0,29.8-40.77,0-40.33-30-40.34-15.76,0-22.84,10.43T870,471.21Z"/><path d="M1020.41,532.42q-22,0-34.39-16t-12.34-44.81q0-29,12.5-45.08t34.65-16.13q23.2,0,35.34,17.14h1.28a149.49,149.49,0,0,1-1.81-20v-42.9h25.12V530.29h-19.59l-4.36-15.44h-1.17Q1043.61,532.42,1020.41,532.42Zm6.7-20.23q15.44,0,22.46-8.67t7.24-28.16v-3.51q0-22.25-7.24-31.61t-22.67-9.37q-13.2,0-20.33,10.7t-7.13,30.49q0,19.59,6.92,29.86T1027.11,512.19Z"/><path d="M1163,532.42q-27.46,0-43-16t-15.48-44.12q0-28.84,14.37-45.35t39.49-16.5q23.31,0,36.83,14.16t13.52,39v13.52h-78.45q.53,17.13,9.26,26.34t24.59,9.21a91,91,0,0,0,19.42-2A100.9,100.9,0,0,0,1203,504.1v20.33a76.54,76.54,0,0,1-18.52,6.18A114.07,114.07,0,0,1,1163,532.42Zm-4.58-103q-11.93,0-19.11,7.56t-8.57,22h53.44q-.23-14.58-7-22.09T1158.46,429.38Z"/><path d="M1325.26,488q0,20.76-15,32.57t-41.4,11.82q-26.4,0-43.22-8.2V500.17a117.1,117.1,0,0,0,22.62,7.87,95.65,95.65,0,0,0,22.3,2.88q15.1,0,22.3-5.75t7.18-15.44a19.34,19.34,0,0,0-6.6-14.79q-6.6-6.07-27.25-14.37-21.29-8.62-30-19.69t-8.73-26.62q0-19.47,13.84-30.65t37.15-11.18a109.28,109.28,0,0,1,44.49,9.79L1314.83,403q-20.76-8.73-37-8.73-12.36,0-18.74,5.38a17.64,17.64,0,0,0-6.38,14.21,20.07,20.07,0,0,0,2.55,10.38,26.19,26.19,0,0,0,8.41,8.14q5.85,3.83,21.08,10.11,17.13,7.14,25.12,13.31a39.17,39.17,0,0,1,11.71,13.94A42,42,0,0,1,1325.26,488Z"/><path d="M1389.62,512.19a60.66,60.66,0,0,0,18.31-2.87v18.84a49.8,49.8,0,0,1-10.69,3,73.44,73.44,0,0,1-13.58,1.23q-35.55,0-35.55-37.47V431.51H1332V420.44l17.24-9.16,8.52-24.9h15.43v26.18h33.53v18.95h-33.53v63q0,9.06,4.53,13.36T1389.62,512.19Z"/><path d="M1485.75,410.43a60.13,60.13,0,0,1,12.45,1.07l-2.45,23.31a47.38,47.38,0,0,0-11.07-1.28q-15,0-24.32,9.79T1451,468.76v61.53h-25V412.56h19.59l3.3,20.76h1.27a46.63,46.63,0,0,1,15.28-16.71A36.28,36.28,0,0,1,1485.75,410.43Z"/><path d="M1565.88,532.42q-27.47,0-43-16t-15.48-44.12q0-28.84,14.37-45.35t39.49-16.5q23.31,0,36.83,14.16t13.52,39v13.52H1533.2q.52,17.13,9.26,26.34t24.59,9.21a91,91,0,0,0,19.42-2,100.9,100.9,0,0,0,19.32-6.55v20.33a76.54,76.54,0,0,1-18.52,6.18A114.07,114.07,0,0,1,1565.88,532.42Zm-4.58-103q-11.92,0-19.11,7.56t-8.57,22h53.44q-.21-14.58-7-22.09T1561.3,429.38Z"/><path d="M1708.17,530.29l-5-16.39h-.86q-8.5,10.74-17.13,14.63T1663,532.42q-17.36,0-27.09-9.37t-9.74-26.5q0-18.21,13.51-27.47t41.2-10.11l20.33-.64v-6.28q0-11.28-5.27-16.87t-16.34-5.59a56.65,56.65,0,0,0-17.35,2.66,132.78,132.78,0,0,0-16,6.28l-8.09-17.88a87.45,87.45,0,0,1,21-7.61,96.49,96.49,0,0,1,21.51-2.61q22.45,0,33.9,9.79T1726.05,451v79.3Zm-37.26-17q13.63,0,21.88-7.61T1701,484.3V474.09l-15.12.63q-17.67.64-25.71,5.91t-8,16.13q0,7.88,4.68,12.19T1670.91,513.26Z"/><path d="M1854.55,530.29h-25.12v-72.6q0-13.51-5.11-20.17t-16-6.65q-14.47,0-21.23,9.42t-6.76,31.35v58.65h-25V412.56h19.59l3.51,15.44h1.28a32.56,32.56,0,0,1,14.21-13,45.85,45.85,0,0,1,20.49-4.58q27.13,0,36,18.52h1.7a35.9,35.9,0,0,1,14.69-13.62,46.55,46.55,0,0,1,21.71-4.9q21.09,0,30.71,10.65t9.64,32.46v76.75h-25v-72.6q0-13.51-5.16-20.17t-16-6.65q-14.58,0-21.34,9.1t-6.76,27.94Z"/><path d="M788.12,312,760.86,254.8c-6.51-13.55-13.2-28.85-15.48-36.06l-.53.53c.88,10.2,1.06,23,1.23,33.77l.7,58.93H726.91V190.24h22.86l29.56,59.46A222.06,222.06,0,0,1,791.82,281l.52-.53c-.52-6.16-1.76-23.57-1.76-34.65l-.35-55.59h19.18V312Z"/><path d="M845.64,272.74v1.41c0,12.31,4.57,25.33,22,25.33,8.26,0,15.48-3,22.16-8.8l7.56,11.79a48.09,48.09,0,0,1-32,11.78c-25.15,0-41-18.11-41-46.61,0-15.66,3.35-26,11.09-34.83,7.21-8.27,16-12,27.26-12,8.8,0,16.89,2.29,24.45,9.15,7.74,7,11.61,17.94,11.61,38.69v4.05Zm17.06-37.29c-10.9,0-16.88,8.62-16.88,23h32.89C878.71,244.07,872.38,235.45,862.7,235.45Z"/><path d="M1001.66,312.32H983.54l-10.9-41c-2.82-10.55-5.81-24.27-5.81-24.27h-.35s-1.41,8.79-5.81,25.15l-10.73,40.11H931.82l-24.27-88.13,19.17-2.64,9.68,43.1C938.86,275.73,941,288,941,288h.53a241.7,241.7,0,0,1,5.1-23.92L958,223h19l10,40.1c3.69,14.43,5.63,25.34,5.63,25.34h.53s2.11-13.55,4.4-23.93l9.14-41.51h20Z"/><path d="M1139.56,312,1129,293.15c-8.45-15-14.08-23.4-20.76-30.09-2.29-2.28-4-3.51-7.92-3.69V312h-19.87V190.24h37.11c27.27,0,39.58,15.83,39.58,34.83,0,17.42-11.26,33.42-30.25,33.42,4.39,2.29,12.49,14.07,18.82,24.28l17.94,29.2ZM1111.42,206.6h-11.09v38.52h10.38c10.56,0,16.19-1.4,19.88-5.1,3.34-3.34,5.45-8.44,5.45-14.77C1136,212.93,1129.36,206.6,1111.42,206.6Z"/><path d="M1190.22,272.74v1.41c0,12.31,4.57,25.33,22,25.33,8.27,0,15.48-3,22.17-8.8l7.56,11.79a48.09,48.09,0,0,1-32,11.78c-25.16,0-41-18.11-41-46.61,0-15.66,3.35-26,11.09-34.83,7.21-8.27,16-12,27.26-12,8.79,0,16.89,2.29,24.45,9.15,7.74,7,11.61,17.94,11.61,38.69v4.05Zm17.06-37.29c-10.91,0-16.89,8.62-16.89,23h32.9C1223.29,244.07,1217,235.45,1207.28,235.45Z"/><path d="M1279.57,313.9c-19.52,0-19.52-17.59-19.52-25.15V212.93c0-12.13-.53-18.64-1.76-26l19.87-4.4c1.41,5.45,1.59,12.84,1.59,24.45v75.47c0,12,.52,13.89,1.93,16,1.06,1.59,4,2.47,6.33,1.41l3.17,12A30.29,30.29,0,0,1,1279.57,313.9Z"/><path d="M1313.17,209.77a12.62,12.62,0,0,1-12.49-12.84,12.75,12.75,0,1,1,12.49,12.84ZM1303.49,312v-87.6l19.53-3.52V312Z"/><path d="M1378.42,314.25c-24.27,0-37.82-17.06-37.82-45.73,0-32.37,19.35-47.85,39.23-47.85,9.68,0,16.71,2.29,24.63,9.68l-9.68,12.84c-5.27-4.75-9.85-6.86-15-6.86a15.11,15.11,0,0,0-14.07,9c-2.64,5.45-3.7,13.72-3.7,24.8,0,12.14,1.94,19.88,6,24.28a15.68,15.68,0,0,0,11.79,5.1c6.16,0,12.14-3,17.94-8.8l9.15,11.79C1398.83,310.56,1390.38,314.25,1378.42,314.25Z"/><ellipse cx="380.98" cy="370.46" rx="72.82" ry="72.88"/><path class="cls-1" d="M409.58,493.34a126.19,126.19,0,0,0,0-245.76V160.74A8.43,8.43,0,0,1,424.16,155L607,349.79a31.45,31.45,0,0,1,0,43L424.16,587.66a8.43,8.43,0,0,1-14.58-5.77Z"/><path class="cls-1" d="M352.57,493.34a126.19,126.19,0,0,1,0-245.76V160.74A8.43,8.43,0,0,0,338,155L155.15,349.79a31.45,31.45,0,0,0,0,43L338,587.66a8.43,8.43,0,0,0,14.58-5.77Z"/></svg>