<svg id="art" xmlns="http://www.w3.org/2000/svg" viewBox="0 0 2090 750"><defs><style>.cls-1{font-size:218px;font-family:OpenSans-SemiBold, Open Sans;font-weight:600;}.cls-2{letter-spacing:-0.05em;}.cls-3{letter-spacing:-0.02em;}.cls-4{letter-spacing:-0.02em;}.cls-5{letter-spacing:-0.02em;}.cls-6{letter-spacing:-0.03em;}.cls-7{letter-spacing:-0.02em;}.cls-8{letter-spacing:-0.03em;}.cls-9{letter-spacing:-0.03em;}.cls-10{fill:#008c99;fill-rule:evenodd;}</style></defs><text class="cls-1" transform="translate(706.16 530.29)"><tspan class="cls-2">C</tspan><tspan class="cls-3" x="127.27" y="0">o</tspan><tspan class="cls-4" x="256.66" y="0">d</tspan><tspan class="cls-5" x="387.58" y="0">e</tspan><tspan class="cls-6" x="508.82" y="0">S</tspan><tspan class="cls-7" x="621.73" y="0">t</tspan><tspan class="cls-8" x="701.99" y="0">re</tspan><tspan class="cls-9" x="910.46" y="0">a</tspan><tspan x="1031.3" y="0">m</tspan></text><path d="M788.12,312,760.86,254.8c-6.51-13.55-13.2-28.85-15.48-36.06l-.53.53c.88,10.2,1.06,23,1.23,33.77l.7,58.93H726.91V190.24h22.86l29.56,59.46A222.06,222.06,0,0,1,791.82,281l.52-.53c-.52-6.16-1.76-23.57-1.76-34.65l-.35-55.59h19.18V312Z"/><path d="M845.64,272.74v1.41c0,12.31,4.57,25.33,22,25.33,8.26,0,15.48-3,22.16-8.8l7.56,11.79a48.09,48.09,0,0,1-32,11.78c-25.15,0-41-18.11-41-46.61,0-15.66,3.35-26,11.09-34.83,7.21-8.27,16-12,27.26-12,8.8,0,16.89,2.29,24.45,9.15,7.74,7,11.61,17.94,11.61,38.69v4.05Zm17.06-37.29c-10.9,0-16.88,8.62-16.88,23h32.89C878.71,244.07,872.38,235.45,862.7,235.45Z"/><path d="M1001.66,312.32H983.54l-10.9-41c-2.82-10.55-5.81-24.27-5.81-24.27h-.35s-1.41,8.79-5.81,25.15l-10.73,40.11H931.82l-24.27-88.13,19.17-2.64,9.68,43.1C938.86,275.73,941,288,941,288h.53a241.7,241.7,0,0,1,5.1-23.92L958,223h19l10,40.1c3.69,14.43,5.63,25.34,5.63,25.34h.53s2.11-13.55,4.4-23.93l9.14-41.51h20Z"/><path d="M1139.56,312,1129,293.15c-8.45-15-14.08-23.4-20.76-30.09-2.29-2.28-4-3.51-7.92-3.69V312h-19.87V190.24h37.11c27.27,0,39.58,15.83,39.58,34.83,0,17.42-11.26,33.42-30.25,33.42,4.39,2.29,12.49,14.07,18.82,24.28l17.94,29.2ZM1111.42,206.6h-11.09v38.52h10.38c10.56,0,16.19-1.4,19.88-5.1,3.34-3.34,5.45-8.44,5.45-14.77C1136,212.93,1129.36,206.6,1111.42,206.6Z"/><path d="M1190.22,272.74v1.41c0,12.31,4.57,25.33,22,25.33,8.27,0,15.48-3,22.17-8.8l7.56,11.79a48.09,48.09,0,0,1-32,11.78c-25.16,0-41-18.11-41-46.61,0-15.66,3.35-26,11.09-34.83,7.21-8.27,16-12,27.26-12,8.79,0,16.89,2.29,24.45,9.15,7.74,7,11.61,17.94,11.61,38.69v4.05Zm17.06-37.29c-10.91,0-16.89,8.62-16.89,23h32.9C1223.29,244.07,1217,235.45,1207.28,235.45Z"/><path d="M1279.57,313.9c-19.52,0-19.52-17.59-19.52-25.15V212.93c0-12.13-.53-18.64-1.76-26l19.87-4.4c1.41,5.45,1.59,12.84,1.59,24.45v75.47c0,12,.52,13.89,1.93,16,1.06,1.59,4,2.47,6.33,1.41l3.17,12A30.29,30.29,0,0,1,1279.57,313.9Z"/><path d="M1313.17,209.77a12.62,12.62,0,0,1-12.49-12.84,12.75,12.75,0,1,1,12.49,12.84ZM1303.49,312v-87.6l19.53-3.52V312Z"/><path d="M1378.42,314.25c-24.27,0-37.82-17.06-37.82-45.73,0-32.37,19.35-47.85,39.23-47.85,9.68,0,16.71,2.29,24.63,9.68l-9.68,12.84c-5.27-4.75-9.85-6.86-15-6.86a15.11,15.11,0,0,0-14.07,9c-2.64,5.45-3.7,13.72-3.7,24.8,0,12.14,1.94,19.88,6,24.28a15.68,15.68,0,0,0,11.79,5.1c6.16,0,12.14-3,17.94-8.8l9.15,11.79C1398.83,310.56,1390.38,314.25,1378.42,314.25Z"/><ellipse cx="380.98" cy="370.46" rx="72.82" ry="72.88"/><path class="cls-10" d="M409.58,493.34a126.19,126.19,0,0,0,0-245.76V160.74A8.43,8.43,0,0,1,424.16,155L607,349.79a31.45,31.45,0,0,1,0,43L424.16,587.66a8.43,8.43,0,0,1-14.58-5.77Z"/><path class="cls-10" d="M352.57,493.34a126.19,126.19,0,0,1,0-245.76V160.74A8.43,8.43,0,0,0,338,155L155.15,349.79a31.45,31.45,0,0,0,0,43L338,587.66a8.43,8.43,0,0,0,14.58-5.77Z"/></svg>