<svg height="200" viewBox="0 0 200 200" width="200" xmlns="http://www.w3.org/2000/svg" xmlns:xlink="http://www.w3.org/1999/xlink"><linearGradient id="a" gradientTransform="matrix(0 -2.666667 2.666667 0 -3816 -3685.333333)" gradientUnits="userSpaceOnUse" x1="-1472.530029" x2="-1366.469971" y1="1415.469971" y2="1521.530029"><stop offset="0" stop-color="#4d27a8"/><stop offset="1" stop-color="#a166ff"/></linearGradient><path d="m0 0h200v200h-200z" fill="url(#a)"/><path d="m132.105469 102.667969c1.390625 8.527343 9.097656 14.5625 17.710937 13.863281 8.613282-.695312 15.246094-7.890625 15.246094-16.53125s-6.632812-15.835938-15.246094-16.53125c-8.613281-.699219-16.320312 5.335938-17.710937 13.863281h-19.890625c-.308594-4.910156-1.578125-9.710937-3.734375-14.132812l24-20.292969c6.066406 4.800781 14.640625 4.769531 20.675781-.070312 6.03125-4.839844 7.917969-13.207032 4.542969-20.167969-3.371094-6.960938-11.109375-10.667969-18.644531-8.933594-7.539063 1.738281-12.878907 8.449219-12.867188 16.1875-.03125 3.21875.894531 6.375 2.664062 9.066406l-23.199218 19.546875c-9.457032-14.171875-27.070313-20.480468-43.375-15.539062-16.300782 4.941406-27.449219 19.96875-27.449219 37.003906s11.148437 32.0625 27.449219 37.003906c16.304687 4.941406 33.917968-1.367187 43.375-15.539062l23.199218 19.546875c-1.769531 2.691406-2.695312 5.847656-2.664062 9.066406-.003906 7.722656 5.328125 14.417969 12.851562 16.148437 7.523438 1.726563 15.242188-1.972656 18.609376-8.917968 3.367187-6.945313 1.488281-15.300782-4.53125-20.132813-6.019532-4.835937-14.578126-4.867187-20.636719-.082031l-24-20.292969c2.15625-4.421875 3.425781-9.222656 3.734375-14.132812zm16.320312-13.921875c6.21875-.015625 11.269531 5.019531 11.28125 11.234375.007813 6.21875-5.027343 11.269531-11.246093 11.273437s-11.261719-5.035156-11.261719-11.253906c0-6.203125 5.023437-11.238281 11.226562-11.253906zm-5.546875-50.078125c6.214844 0 11.253906 5.035156 11.253906 11.253906 0 6.214844-5.039062 11.25-11.253906 11.25s-11.253906-5.035156-11.253906-11.25c0-6.21875 5.039062-11.253906 11.253906-11.253906zm0 100.183593c6.21875 0 11.257813 5.046876 11.253906 11.265626-.003906 6.21875-5.050781 11.253906-11.269531 11.242187-6.21875-.007813-11.25-5.0625-11.238281-11.28125.015625-6.203125 5.050781-11.226563 11.253906-11.226563zm-69.226562-5.519531c-18.410156 0-33.332032-14.921875-33.332032-33.332031s14.921876-33.332031 33.332032-33.332031 33.335937 14.921875 33.335937 33.332031c-.03125 18.398438-14.9375 33.304688-33.335937 33.332031zm0 0" fill="#fff"/></svg>