<svg height="200" viewBox="0 0 200 200" width="200" xmlns="http://www.w3.org/2000/svg"><path d="m104.535156 28.441406c13.714844 3.800782 27.03125 9.429688 40.285156 14.628906 12.773438 5.402344 26.832032 10.714844 37.714844 19.457032 2.230469 1.773437 2.628906 3.742187 1.257813 5.886718-7.199219 7.515626-18.3125 11.714844-27.027344 17.457032l-.828125-.398438c-14.945312-7.03125-30.773438-13.058594-46.429688-18.203125-8.886718-3.140625-18.6875-.085937-27.285156 2.773438-11.945312 4.371093-23.488281 9-34.113281 16.171875l-1.171875.257812-1.230469.253906c-8.597656-4.085937-17.914062-7.65625-25.769531-13.113281-3.660156-3.769531 1.855469-7.800781 4.425781-10.257812 15.457031-12.054688 33.457031-21.140625 51.574219-28.457031 8.828125-3.257813 19.113281-7.140626 28.597656-6.457032zm0 0" fill="#ffc673"/><path d="m109.507812 67.269531c15.65625 5.144531 31.484376 11.171875 46.429688 18.203125-14.828125 6.570313-30.144531 13.113282-45.886719 17.027344-6.714843.742188-12.914062.65625-19.601562-.285156-14.285157-4.402344-29.226563-8.628906-42.339844-16 10.625-7.171875 22.167969-11.800782 34.113281-16.171875 8.597656-2.859375 18.398438-5.914063 27.285156-2.773438zm0 0" fill="#f98d38"/><path d="m45.707031 86.726562 1.230469-.253906 1.171875-.257812c13.113281 7.371094 28.054687 11.597656 42.339844 16-9.96875.484375-18.054688 4.914062-27.027344 8.800781-7.171875 3.140625-14.027344 6.484375-19.855469 11.796875l-1.542968-.570312c-7.972657-3.769532-17.574219-6.972657-24.03125-13.113282 5.117187-10.230468 18.316406-16.542968 27.714843-22.402344zm0 0" fill="#ef6056"/><path d="m155.9375 85.472656.828125.398438c8.3125 4.457031 23.597656 8.972656 28 17.601562-4.230469 8.054688-15.972656 13-23.800781 17.054688l-1.085938.457031c-9.914062-5.800781-20.34375-9.085937-30.886718-13.484375-6.140626-2.542969-12.226563-4.800781-18.941407-5 15.742188-3.914062 31.058594-10.457031 45.886719-17.027344zm0 0" fill="#ef6056"/><path d="m90.449219 102.214844c6.6875.941406 12.886719 1.027344 19.601562.285156 6.714844.199219 12.800781 2.457031 18.941407 5 10.542968 4.398438 22.058593 7.226562 31.972656 13.027344-13.34375 6.628906-27.859375 12.242187-41.886719 17.15625-8.570313 2.6875-17.097656 5.34375-26.128906 2.714844-16.828125-4.683594-34.757813-11.585938-50.925781-18.15625 5.828124-5.3125 14.226562-8.085938 21.398437-11.226563 8.972656-3.886719 17.058594-8.316406 27.027344-8.800781zm0 0" fill="#d93c35"/><path d="m159.878906 120.984375 1.085938-.457031c6.886718 3.570312 14.3125 7 20.457031 11.742187 4.058594 3.144531 4.769531 5.203125.601563 8.800781-14.371094 11.199219-32.457032 18.257813-49.316407 24.886719-10.714843 3.601563-22.515625 8.828125-33.914062 8.800781-16.855469-3.6875-33.226563-10.171874-49.398438-16.117187-10.230469-4.398437-22.058593-8.285156-30.601562-15.570313l-.371094-2.34375c5.570313-7.96875 15.457031-13.511718 23.601563-18.484374l1.542968.570312c16.167969 6.574219 32.683594 12.773438 49.511719 17.457031 9.03125 2.628907 16.914063-.027343 25.488281-2.710937 14.027344-4.917969 27.96875-9.945313 41.3125-16.574219zm0 0" fill="#954f5b"/></svg>