<svg height="200" viewBox="0 0 200 200" width="200" xmlns="http://www.w3.org/2000/svg" xmlns:xlink="http://www.w3.org/1999/xlink"><filter id="a" height="100%" width="100%" x="0%" y="0%"><feColorMatrix in="SourceGraphic" type="matrix" values="0 0 0 0 1 0 0 0 0 1 0 0 0 0 1 0 0 0 1 0"/></filter><mask id="b"><g filter="url(#a)"><path d="m0 0h200v200h-200z" fill-opacity=".15"/></g></mask><clipPath id="c"><path d="m0 0h200v200h-200z"/></clipPath><path d="m168.398438 74v-8.800781c0-17.597657-6.398438-34-17.597657-45.597657-10.402343-12-33.601562-19.601562-50.800781-19.601562s-40.398438 7.601562-50.800781 19.601562c-10.800781 11.597657-17.597657 28-17.597657 45.597657v8.800781l31.597657 3.601562v-8c0-10.402343 3.601562-23.601562 9.601562-30.402343s18.800781-10 27.199219-10.398438c8.398438 0 21.199219 3.597657 27.199219 10.398438s9.601562 15.601562 9.601562 25.601562v12.800781zm0 0" fill="#a0a1a2"/><path d="m31.601562 74c-15.601562 0-21.203124 9.199219-21.203124 21.199219v83.601562c0 10.398438 6.402343 21.199219 18.402343 21.199219h142.398438c13.601562 0 18.402343-10.800781 18.402343-21.199219v-83.601562c0-10.800781-4.402343-21.199219-21.203124-21.199219zm0 0" fill="#59b4d9"/><g clip-path="url(#c)" mask="url(#b)"><path d="m136.398438 74h-104.796876c-15.601562 0-21.203124 9.199219-21.203124 21.199219v83.601562c0 10.398438 6.402343 21.199219 18.402343 21.199219h26.800781zm0 0" fill="#fff"/></g><path d="m76 108.398438 23.199219-23.199219 23.199219 23.199219h-16.398438v16.800781h-14v-16.800781zm-42.800781 35.203124v-13.601562h24v-16l22.402343 22.398438-22.402343 22.402343v-15.601562h-24zm66 45.199219-23.597657-23.601562h16.398438v-16.398438h14v16.398438h16.800781zm66-45.199219h-24v16l-22.800781-22.800781 22.800781-22.800781v16h24zm0 0" fill="#fff"/></svg>