<svg height="200" viewBox="0 0 200 200" width="200" xmlns="http://www.w3.org/2000/svg" xmlns:xlink="http://www.w3.org/1999/xlink"><linearGradient id="a" gradientTransform="matrix(0 2.666667 -2.666667 0 -5205.333333 5336)" gradientUnits="userSpaceOnUse" x1="-1910.469971" x2="-2016.530029" y1="-1936.469971" y2="-2042.530029"><stop offset="0" stop-color="#b0084d"/><stop offset="1" stop-color="#ff4f8b"/></linearGradient><path d="m0 0h200v200h-200z" fill="url(#a)"/><path d="m156 130.265625c-1.878906.035156-3.71875.558594-5.332031 1.519531l-8.535157-10.238281c8.578126-6.574219 15.507813-15.054687 20.242188-24.773437l-4.800781-2.347657c-10.75 21.929688-33.042969 35.832031-57.46875 35.832031-24.421875 0-46.714844-13.902343-57.464844-35.832031l-4.800781 2.347657c4.625 9.511718 11.367187 17.839843 19.707031 24.347656l-8.585937 10.320312c-1.503907-.765625-3.167969-1.167968-4.855469-1.175781-5.890625 0-10.664063 4.777344-10.664063 10.667969s4.773438 10.667968 10.664063 10.667968 10.667969-4.777343 10.667969-10.667968c.003906-2.105469-.636719-4.164063-1.839844-5.894532l8.960937-10.664062c10.421875 6.785156 22.476563 10.644531 34.90625 11.171875v13.785156c-5.125 1.605469-8.261719 6.765625-7.320312 12.054688.945312 5.289062 5.671875 9.050781 11.035156 8.78125s9.691406-4.484375 10.101563-9.839844c.410156-5.351563-3.222657-10.179687-8.484376-11.261719v-13.601562c12.617188-.328125 24.898438-4.128906 35.492188-10.984375l9.042969 11.121093c-.941407 1.617188-1.4375 3.457032-1.441407 5.332032 0 5.890625 4.777344 10.667968 10.667969 10.667968s10.664063-4.777343 10.664063-10.667968-4.773438-10.667969-10.664063-10.667969zm-112 16c-2.945312 0-5.332031-2.386719-5.332031-5.332031 0-2.945313 2.386719-5.332032 5.332031-5.332032s5.332031 2.386719 5.332031 5.332032c0 2.945312-2.386719 5.332031-5.332031 5.332031zm61.332031 13.335937c0 2.945313-2.386719 5.332032-5.332031 5.332032s-5.332031-2.386719-5.332031-5.332032c0-2.945312 2.386719-5.335937 5.332031-5.335937s5.332031 2.390625 5.332031 5.335937zm50.667969-13.335937c-2.945312 0-5.332031-2.386719-5.332031-5.332031 0-2.945313 2.386719-5.332032 5.332031-5.332032s5.332031 2.386719 5.332031 5.332032c0 2.945312-2.386719 5.332031-5.332031 5.332031zm-20.398438-103.597656-34.667968-12.855469c-.605469-.210938-1.261719-.210938-1.867188 0l-34.667968 12.855469c-1.042969.390625-1.734376 1.390625-1.730469 2.503906v38.429687c.207031 7.121094 1.753906 14.140626 4.558593 20.691407 5.253907 13.375 18.417969 21.941406 32.773438 21.332031 36.90625 0 37.332031-39.171875 37.332031-39.597656v-40.695313c.074219-1.171875-.628906-2.257812-1.730469-2.664062zm-3.601562 43.277343c-.191406 5.976563-1.550781 11.855469-4 17.308594-5.332031 11.253906-14.667969 16.960938-27.921875 16.960938-31.542969 0-32-35.121094-32-36.613282v-36.507812l32-11.839844 32 11.839844zm-7.039062-36.078124-24-9.414063c-.625-.214844-1.296876-.214844-1.921876 0l-24 9.414063c-1.023437.394531-1.703124 1.378906-1.707031 2.480468v35.199219c-.011719.160156-.011719.320313 0 .480469.214844 1.144531 5.335938 28 26.667969 28s26.398438-26.855469 26.667969-28c.011719-.160156.011719-.320313 0-.480469v-35.199219c-.003907-1.101562-.683594-2.085937-1.707031-2.480468zm-27.628907 60.585937c-13.757812-2.160156-18.183593-20.90625-18.664062-23.199219v-33.066406l18.664062-7.308594zm24-23.199219c-.480469 2.292969-4.851562 21.039063-18.664062 23.199219v-63.574219l18.664062 7.308594zm0 0" fill="#fff"/></svg>