<svg height="200" viewBox="0 0 200 200" width="200" xmlns="http://www.w3.org/2000/svg" xmlns:xlink="http://www.w3.org/1999/xlink"><clipPath id="a"><path d="m93 125h101v66h-101zm0 0"/></clipPath><clipPath id="b"><path d="m93.269531 155.761719s63.730469 50.3125 88.105469 29.015625c36.890625-32.234375-21.828125-59.144532-21.828125-59.144532zm0 0"/></clipPath><linearGradient id="c"><stop offset="0" stop-color="#fff"/><stop offset=".00016997" stop-color="#fff"/><stop offset="1" stop-color="#231f20"/></linearGradient><linearGradient id="d" gradientTransform="matrix(-50.35573 -62.006404 -62.006404 50.35573 187.669886 205.124393)" gradientUnits="userSpaceOnUse" x1="0" x2="1" xlink:href="#c" y1="0" y2="0"/><clipPath id="e"><path d="m92 126h101v65h-101zm0 0"/></clipPath><clipPath id="f"><path d="m92.492188 156.539062s63.730468 50.3125 88.105468 29.015626c36.894532-32.234376-21.828125-59.148438-21.828125-59.148438zm0 0"/></clipPath><linearGradient id="g" gradientTransform="matrix(74.30408 -98.899794 -98.899794 -74.30408 106.456301 231.262133)" gradientUnits="userSpaceOnUse" x1="0" x2="1" xlink:href="#c" y1="0" y2="0"/><clipPath id="h"><path d="m54 62h111v19h-111zm0 0"/></clipPath><clipPath id="i"><path d="m54.757812 71.25c0 4.925781 24.644532 8.917969 55.046876 8.917969 30.402343 0 54.3125-2.988281 54.3125-7.914063 0-4.925781-23.910157-9.921875-54.3125-9.921875-30.402344 0-55.046876 3.992188-55.046876 8.917969"/></clipPath><linearGradient id="j" gradientTransform="matrix(0 46.978972 46.978972 0 109.441738 46.504868)" gradientUnits="userSpaceOnUse" x1="0" x2="1" xlink:href="#c" y1="0" y2="0"/><clipPath id="k"><path d="m54 71h117v97h-117zm0 0"/></clipPath><clipPath id="l"><path d="m77.050781 78.136719c-.664062-1.210938-2.066406-3.246094-4.496093-5.574219.832031 2.425781.019531 5.210938.019531 5.210938l.042969.109374c-9.625-1.402343-16.179688-3.347656-17.835938-5.539062 2.148438 5.816406 11.976562 33.960938 12.765625 64.367188.160156 6.105468-.042969 12.304687-.75 18.433593 11.84375 11.457031 83.105469 20.777344 97.667969 0 14.5625-20.777343-1.296875-7.710937-2.46875-18.773437-1.992188-18.820313-3.621094-47.339844 2.121094-64.117188-.894532 1.292969-3.496094 2.5-7.425782 3.566406-.140625-.464843-.457031-1.761718-.058594-2.980468-1.5625 1.539062-2.441406 2.84375-2.855468 3.613281-.171875-2.3125.1875-4.097656.1875-4.097656s-3.605469 3.558593-3.570313 3.972656c-.5-1.203125-1.320312-1.542969-2.085937-1.65625.390625.804687.128906 2.117187-.21875 2.925781-9.9375 1.589844-23.597656 2.570313-38.671875 2.570313-8.515625 0-16.578125-.3125-23.773438-.871094-.574219-1.28125-1.050781-3.417969-.515625-4.800781-1.136718.285156-2.347656.949218-3.023437 2.996094.03125-.6875-5.589844-6.070313-5.589844-6.070313s.652344 2.886719.535156 6.714844"/></clipPath><linearGradient id="m" gradientTransform="matrix(199.830601 .258303 .258303 -199.830601 -14.077669 123.689327)" gradientUnits="userSpaceOnUse" x1="0" x2="1" xlink:href="#c" y1="0" y2="0"/><clipPath id="n"><path d="m49.496094 64.3125h108.59375v108.648438h-108.59375zm0 0"/></clipPath><filter id="o" height="100%" width="100%" x="0%" y="0%"><feColorMatrix in="SourceGraphic" type="matrix" values="0 0 0 0 1 0 0 0 0 1 0 0 0 0 1 0 0 0 1 0"/></filter><mask id="p"><g filter="url(#o)"><path d="m0 0h200v200h-200z" fill-opacity=".240005"/></g></mask><clipPath id="q"><path d="m88 79h31v79h-31zm0 0"/></clipPath><clipPath id="r"><path d="m93.152344 147.179688c7.992187 5.71875 16.957031 9.585937 25.824218 10.613281l-2.617187-77.691407c-2.148437.042969-4.332031.066407-6.554687.066407-7.511719 0-14.671876-.246094-21.195313-.6875zm0 0"/></clipPath><linearGradient id="s" gradientTransform="matrix(100.023824 95.359494 95.359494 -100.023824 64.563101 81.359234)" gradientUnits="userSpaceOnUse" x1="0" x2="1" xlink:href="#c" y1="0" y2="0"/><clipPath id="t"><path d="m0 0h200v200h-200z"/></clipPath><clipPath id="u"><path d="m122 98h32v43h-32zm0 0"/></clipPath><clipPath id="v"><path d="m138.289062 98.390625c-8.476562 1.714844-15.34375 11.832031-15.335937 22.601563.003906 8.316406 4.105469 14.585937 9.878906 16.21875l10.015625 2.835937c-5.773437-1.632813-9.875-7.902344-9.878906-16.21875-.007812-10.765625 6.859375-20.886719 15.335938-22.601563 1.933593-.390624 3.78125-.3125 5.484374.167969-3.339843-.945312-6.679687-1.890625-10.019531-2.835937-.96875-.273438-1.988281-.417969-3.042969-.417969-.796874 0-1.605468.082031-2.4375.25"/></clipPath><linearGradient id="w"><stop offset="0" stop-color="#fdd494"/><stop offset=".00123603" stop-color="#fdd494"/><stop offset=".453995" stop-color="#fbb03b"/><stop offset=".454894" stop-color="#fbb03b"/><stop offset="1" stop-color="#8c6239"/></linearGradient><linearGradient id="x" gradientTransform="matrix(0 50.995378 50.995378 0 138.349502 92.767)" gradientUnits="userSpaceOnUse" x1="0" x2="1" xlink:href="#w" y1="0" y2="0"/><clipPath id="y"><path d="m122.953125 113.457031h11.40625v10.285157h-11.40625zm0 0"/></clipPath><mask id="z"><g filter="url(#o)"><path d="m0 0h200v200h-200z" fill-opacity=".429993"/></g></mask><clipPath id="A"><path d="m122.953125 113.457031h11.40625v10.285157h-11.40625zm0 0"/></clipPath><clipPath id="B"><path d="m0 0h200v200h-200z"/></clipPath><clipPath id="C"><path d="m124.757812 109.414062h11.148438v4.316407h-11.148438zm0 0"/></clipPath><mask id="D"><g filter="url(#o)"><path d="m0 0h200v200h-200z" fill-opacity=".429993"/></g></mask><clipPath id="E"><path d="m124.757812 109.414062h11.148438v4.316407h-11.148438zm0 0"/></clipPath><clipPath id="F"><path d="m0 0h200v200h-200z"/></clipPath><clipPath id="G"><path d="m132 100h32v41h-32zm0 0"/></clipPath><clipPath id="H"><path d="m148.304688 101.226562c-8.476563 1.714844-15.34375 11.835938-15.335938 22.601563.007812 10.769531 6.882812 18.105469 15.359375 16.390625 8.476563-1.71875 15.34375-11.835938 15.335937-22.601562-.003906-9.71875-5.601562-16.640626-12.921874-16.640626-.792969 0-1.609376.082032-2.4375.25"/></clipPath><linearGradient id="I" gradientTransform="matrix(30.194545 -.242724 -.242724 -30.194545 132.815522 121.577677)" gradientUnits="userSpaceOnUse" x1="0" x2="1" xlink:href="#w" y1="0" y2="0"/><clipPath id="J"><path d="m67 136h104v32h-104zm0 0"/></clipPath><clipPath id="K"><path d="m114.757812 145.4375c-17.382812 0-33.507812-3.222656-46.820312-8.726562.15625 6.105468-.046875 12.304687-.753906 18.433593 11.84375 11.457031 83.109375 20.777344 97.671875 0 14.5625-20.777343-1.296875-7.710937-2.46875-18.773437-13.46875 5.710937-29.894531 9.066406-47.628907 9.066406"/></clipPath><linearGradient id="L" gradientTransform="matrix(103.041936 4.660194 4.660194 -103.041936 10.194174 151.26214)" gradientUnits="userSpaceOnUse" x1="0" x2="1" xlink:href="#c" y1="0" y2="0"/><clipPath id="M"><path d="m81.972656 132.003906h47.347656v46.972656h-47.347656zm0 0"/></clipPath><mask id="N"><g filter="url(#o)"><path d="m0 0h200v200h-200z" fill-opacity=".419998"/></g></mask><clipPath id="O"><path d="m92 143h27v25h-27zm0 0"/></clipPath><clipPath id="P"><path d="m92.316406 143.578125.835938 21.019531c7.992187 1.511719 16.957031 2.535156 25.824218 2.804688l-.875-22.003906c-1.109374.023437-2.222656.039062-3.34375.039062-7.78125 0-15.304687-.652344-22.441406-1.859375zm0 0"/></clipPath><linearGradient id="Q" gradientTransform="matrix(41.941554 24.336315 24.336315 -41.941554 78.155333 139.502433)" gradientUnits="userSpaceOnUse" x1="0" x2="1" xlink:href="#c" y1="0" y2="0"/><clipPath id="R"><path d="m0 0h200v200h-200z"/></clipPath><clipPath id="S"><path d="m44 141h139v51h-139zm0 0"/></clipPath><clipPath id="T"><path d="m50.917969 141.601562c-2.539063.003907-4.207031.539063-4.785157 1.699219-3.769531 7.570313-4.515624 8.480469 36.261719 26.085938 80.128907 39.351562 99.949219 14.523437 99.949219 14.523437s-10.886719 11.332032-45.320312-8.183594c-31.359376-17.769531-72.066407-34.121093-86.101563-34.125 0 0 0 0-.003906 0"/></clipPath><linearGradient id="U" gradientTransform="matrix(-108.220478 -8.673048 -8.673048 108.220478 209.223282 183.00971)" gradientUnits="userSpaceOnUse" x1="0" x2="1" xlink:href="#c" y1="0" y2="0"/><clipPath id="V"><path d="m43 142h139v51h-139zm0 0"/></clipPath><clipPath id="W"><path d="m50.144531 142.378906c-2.542969 0-4.210937.539063-4.789062 1.699219-3.765625 7.570313-3.347657 9.046875 37.425781 26.652344 80.132812 39.351562 98.785156 13.957031 98.785156 13.957031s-10.886718 11.332031-45.320312-8.183594c-31.359375-17.773437-72.066406-34.121094-86.101563-34.125"/></clipPath><linearGradient id="X" gradientTransform="matrix(-26.011332 67.889049 67.889049 26.011338 132.961153 120.194182)" gradientUnits="userSpaceOnUse" x1="0" x2="1" xlink:href="#c" y1="0" y2="0"/><clipPath id="Y"><path d="m136 104h26v34h-26zm0 0"/></clipPath><clipPath id="Z"><path d="m149.085938 104.871094c-7.0625 1.429687-12.78125 9.859375-12.773438 18.828125.003906 8.964843 5.730469 15.078125 12.792969 13.648437 7.058593-1.429687 12.777343-9.855468 12.769531-18.824218-.003906-8.09375-4.667969-13.855469-10.761719-13.855469-.660156 0-1.339843.066406-2.027343.203125"/></clipPath><radialGradient id="aa" cx="0" cy="0" gradientTransform="matrix(14.3205 -8.301035 -8.301035 -14.3205 160.734209 113.44661)" gradientUnits="userSpaceOnUse" r="1"><stop offset="0" stop-color="#fff"/><stop offset=".00794635" stop-color="#fff"/><stop offset="1" stop-color="#dbd7d6"/></radialGradient><clipPath id="ab"><path d="m135 83h5v6h-5zm0 0"/></clipPath><clipPath id="ac"><path d="m136.730469 83.421875c-1.054688.527344-1.59375 2.105469-1.207031 3.519531.386718 1.414063 1.550781 2.132813 2.605468 1.601563 1.050782-.527344 1.59375-2.101563 1.207032-3.515625-.300782-1.101563-1.070313-1.78125-1.894532-1.78125-.234375 0-.476562.058594-.710937.175781"/></clipPath><linearGradient id="ad" gradientTransform="matrix(-5.242718 0 0 5.242718 140.194162 86.158991)" gradientUnits="userSpaceOnUse" x1="0" x2="1" xlink:href="#w" y1="0" y2="0"/><clipPath id="ae"><path d="m133 83h5v6h-5zm0 0"/></clipPath><clipPath id="af"><path d="m136.023438 83.234375c-.234376 0-.476563.054687-.710938.171875-1.050781.53125-1.59375 2.105469-1.207031 3.519531.296875 1.09375 1.0625 1.769531 1.878906 1.777344l1.417969.015625c-.816406-.007812-1.582032-.683594-1.878906-1.777344-.386719-1.414062.152343-2.992187 1.207031-3.519531.238281-.121094.484375-.175781.726562-.171875-.472656-.007812-.945312-.011719-1.417969-.015625zm0 0"/></clipPath><linearGradient id="ag" gradientTransform="matrix(.388349 0 0 -.388349 0 200)" gradientUnits="userSpaceOnUse" x1="345" x2="353.949219" xlink:href="#w" y1="293.601562" y2="293.601562"/><clipPath id="ah"><path d="m140 95h6v4h-6zm0 0"/></clipPath><clipPath id="ai"><path d="m142.269531 95.933594c-1.421875.269531-2.15625 1.140625-1.648437 1.941406.511718.800781 2.078125 1.226562 3.5.953125s2.160156-1.144531 1.648437-1.941406c-.40625-.636719-1.480469-1.039063-2.617187-1.039063-.292969 0-.589844.027344-.882813.085938"/></clipPath><linearGradient id="aj" gradientTransform="matrix(7.719033 4.466357 4.466357 -7.719033 136.529114 93.622582)" gradientUnits="userSpaceOnUse" x1="0" x2="1" xlink:href="#w" y1="0" y2="0"/><clipPath id="ak"><path d="m140 97h6v4h-6zm0 0"/></clipPath><clipPath id="al"><path d="m140.460938 97.324219c-.011719.359375-.011719 1.09375-.027344 1.449219-.007813.179687.046875.367187.164062.550781.511719.796875 2.074219 1.226562 3.496094.953125 1.097656-.210938 1.789062-.777344 1.808594-1.394532l.027344-1.449218c-.023438.617187-.710938 1.183594-1.808594 1.394531-1.421875.273437-2.988282-.152344-3.5-.953125-.117188-.183594-.167969-.367188-.160156-.550781zm0 0"/></clipPath><linearGradient id="am" gradientTransform="matrix(.388349 0 0 -.388349 0 200)" gradientUnits="userSpaceOnUse" x1="361.617188" x2="375.770508" xlink:href="#w" y1="260.226562" y2="260.226562"/><clipPath id="an"><path d="m136 83h10v16h-10zm0 0"/></clipPath><clipPath id="ao"><path d="m142.90625 83.589844-5.570312.113281s-1.339844.515625-1.300782 2.335937c.035156 1.824219 1.386719 2 1.386719 2l3.484375-.070312.195312 9.445312s.316407.972657 2.242188.933594c1.929688-.039062 2.089844-1.023437 2.089844-1.023437l-.234375-11.574219c-.027344-1.167969-1.082031-2.160156-2.25-2.160156-.015625 0-.027344 0-.042969 0"/></clipPath><linearGradient id="ap" gradientTransform="matrix(7.181876 -.145578 -.145578 -7.181876 138.343434 91.037631)" gradientUnits="userSpaceOnUse" x1="0" x2="1" xlink:href="#w" y1="0" y2="0"/><clipPath id="aq"><path d="m45 40h19v18h-19zm0 0"/></clipPath><clipPath id="ar"><path d="m45.910156 57.210938 17.804688-1.445313-10.996094-15.085937zm0 0"/></clipPath><linearGradient id="as"><stop offset="0" stop-color="#fdd494"/><stop offset=".00123603" stop-color="#fdd494"/><stop offset=".453995" stop-color="#fbb03b"/><stop offset=".454733" stop-color="#fbb03b"/><stop offset=".90184" stop-color="#8c6239"/><stop offset="1" stop-color="#8c6239"/></linearGradient><linearGradient id="at" gradientTransform="matrix(19.60199 -2.231907 -2.231907 -19.60199 44.817957 50.097101)" gradientUnits="userSpaceOnUse" x1="0" x2="1" xlink:href="#as" y1="0" y2="0"/><clipPath id="au"><path d="m45 51h20v15h-20zm0 0"/></clipPath><clipPath id="av"><path d="m51.347656 52.363281c-4.789062 1.628907-7.011718 5.792969-4.96875 9.304688 2.046875 3.511719 7.582032 5.035156 12.371094 3.402343 4.785156-1.628906 7.011719-5.796874 4.964844-9.304687-1.488282-2.554687-4.824219-4.058594-8.375-4.058594-1.332032 0-2.6875.210938-3.992188.65625"/></clipPath><linearGradient id="aw" gradientTransform="matrix(0 -21.314215 -21.314215 0 55.048539 75.097099)" gradientUnits="userSpaceOnUse" x1="0" x2="1" xlink:href="#as" y1="0" y2="0"/><clipPath id="ax"><path d="m75 111h6v2h-6zm0 0"/></clipPath><clipPath id="ay"><path d="m77.207031 111.417969c-.617187.371093-1.261719.570312-1.90625.617187 1.265625-.089844 2.527344-.175781 3.792969-.261718.644531-.042969 1.289062-.242188 1.90625-.613282zm0 0"/></clipPath><linearGradient id="az" gradientTransform="matrix(-.517477 20.315941 20.315941 .517477 78.665042 91.262146)" gradientUnits="userSpaceOnUse" x1="0" x2="1" xlink:href="#as" y1="0" y2="0"/><clipPath id="aA"><path d="m69 97h12v16h-12zm0 0"/></clipPath><clipPath id="aB"><path d="m74.574219 97.382812c-.734375 0-1.476563.203126-2.179688.625-2.707031 1.636719-3.820312 5.960938-2.488281 9.664063 1.328125 3.703125 4.597656 5.378906 7.300781 3.746094 2.703125-1.636719 3.816407-5.960938 2.488281-9.664063-.984374-2.742187-3.027343-4.371094-5.121093-4.371094"/></clipPath><linearGradient id="aC" gradientTransform="matrix(-17.605666 .906242 .906242 17.605666 88.774264 104.514572)" gradientUnits="userSpaceOnUse" x1="0" x2="1" xlink:href="#as" y1="0" y2="0"/><clipPath id="aD"><path d="m74 97h11v15h-11zm0 0"/></clipPath><clipPath id="aE"><path d="m78.367188 97.125c-.089844 0-.183594.003906-.273438.007812l-3.792969.261719c2.1875-.152343 4.367188 1.5 5.394531 4.359375 1.328126 3.703125.214844 8.027344-2.488281 9.664063l3.792969-.257813c2.703125-1.636718 3.820312-5.960937 2.488281-9.664062-.980469-2.742188-3.027343-4.371094-5.121093-4.371094"/></clipPath><linearGradient id="aF" gradientTransform="matrix(-.517323 20.309909 20.309909 .517323 79.89077 91.298553)" gradientUnits="userSpaceOnUse" x1="0" x2="1" xlink:href="#as" y1="0" y2="0"/><clipPath id="aG"><path d="m49 69h16v12h-16zm0 0"/></clipPath><clipPath id="aH"><path d="m54.109375 70.472656c-3.722656 1.265625-5.453125 4.507813-3.863281 7.238282 1.589844 2.730468 5.898437 3.914062 9.621094 2.644531 3.726562-1.265625 5.453124-4.503907 3.863281-7.234375-1.15625-1.988282-3.753907-3.15625-6.515625-3.15625-1.03125 0-2.089844.164062-3.105469.507812"/></clipPath><linearGradient id="aI" gradientTransform="matrix(-.534146 -8.060746 -8.060746 .534146 57.372568 81.535205)" gradientUnits="userSpaceOnUse" x1="0" x2="1" xlink:href="#as" y1="0" y2="0"/><clipPath id="aJ"><path d="m47 54h18v22h-18zm0 0"/></clipPath><clipPath id="aK"><path d="m52.355469 55.023438c-2.875.980468-4.5625 3.140624-4.445313 5.328124l1.757813 15.449219c-.113281-2.191406 1.570312-4.347656 4.445312-5.328125 3.722657-1.269531 8.03125-.089844 9.621094 2.640625.339844.582031.527344 1.1875.578125 1.789063-.140625-1.820313-1.683594-14.085938-1.75-15.320313-.03125-.644531-.222656-1.292969-.585938-1.914062-1.15625-1.984375-3.753906-3.152344-6.515624-3.152344-1.035157 0-2.089844.164063-3.105469.507813m11.960937 19.894531c0-.003907-.003906-.007813-.003906-.015625 0 .007812.003906.011718.003906.015625m.003906.042969c-.003906-.015626-.003906-.027344-.003906-.042969 0 .015625 0 .03125.003906.042969m0 .050781c0-.019531 0-.035157 0-.050781zm.003907.019531c0-.007812-.003907-.015625-.003907-.019531 0 .003906 0 .011719.003907.019531"/></clipPath><linearGradient id="aL" gradientTransform="matrix(19.612158 -2.233069 -2.233069 -19.612152 46.650481 66.237876)" gradientUnits="userSpaceOnUse" x1="0" x2="1" xlink:href="#as" y1="0" y2="0"/><clipPath id="aM"><path d="m51 71h28v42h-28zm0 0"/></clipPath><clipPath id="aN"><path d="m57.300781 71.859375c-.3125 0-.640625.015625-.988281.050781-5.152344.507813-5.296875 4.152344-5.296875 4.152344l3.058594 30.902344c.316406 3.160156 3.417969 5.609375 6.578125 5.296875l14.878906-1.472657s3.46875-1.652343 2.988281-6.519531c-.480469-4.863281-4.132812-5.054687-4.132812-5.054687l-9.300781.921875-2.496094-25.21875s-.980469-3.058594-5.289063-3.058594"/></clipPath><linearGradient id="aO" gradientTransform="matrix(26.027907 -11.654283 -11.654283 -26.027901 49.290047 99.247582)" gradientUnits="userSpaceOnUse" x1="0" x2="1" y1="0" y2="0"><stop offset="0" stop-color="#fdd494"/><stop offset=".190186" stop-color="#fdd494"/><stop offset=".191205" stop-color="#fdd494"/><stop offset=".564423" stop-color="#fbb03b"/><stop offset=".564979" stop-color="#fbb03b"/><stop offset=".90184" stop-color="#8c6239"/><stop offset="1" stop-color="#8c6239"/></linearGradient><clipPath id="aP"><path d="m141 120h16v19h-16zm0 0"/></clipPath><clipPath id="aQ"><path d="m141.3125 136.230469c8.785156 5.984375 15.304688-2.675781 15.304688-2.675781l-6.132813-12.582032zm0 0"/></clipPath><linearGradient id="aR" gradientTransform="matrix(30.222213 -.242944 -.242944 -30.222213 132.864066 131.747579)" gradientUnits="userSpaceOnUse" x1="0" x2="1" xlink:href="#w" y1="0" y2="0"/><clipPath id="aS"><path d="m140 120h11v16h-11zm0 0"/></clipPath><clipPath id="aT"><path d="m149.320312 120.972656-8.859374 13.851563s.5625.535156 1.191406.988281l8.832031-14.839844zm0 0"/></clipPath><linearGradient id="aU" gradientTransform="matrix(6.262135 4.029126 4.029126 -6.262135 140.364065 125.100128)" gradientUnits="userSpaceOnUse" x1="0" x2="1" xlink:href="#w" y1="0" y2="0"/><clipPath id="aV"><path d="m53.605469 71.859375h9.324219v35.054687h-9.324219zm0 0"/></clipPath><mask id="aW"><g filter="url(#o)"><path d="m0 0h200v200h-200z" fill-opacity=".429993"/></g></mask><clipPath id="aX"><path d="m53.605469 71.859375h9.324219v35.054687h-9.324219zm0 0"/></clipPath><clipPath id="aY"><path d="m0 0h200v200h-200z"/></clipPath><clipPath id="aZ"><path d="m49.914062 54.5625h6.042969v17.058594h-6.042969zm0 0"/></clipPath><mask id="a0"><g filter="url(#o)"><path d="m0 0h200v200h-200z" fill-opacity=".429993"/></g></mask><clipPath id="a1"><path d="m49.914062 54.5625h6.042969v17.058594h-6.042969zm0 0"/></clipPath><clipPath id="a2"><path d="m0 0h200v200h-200z"/></clipPath><clipPath id="a3"><path d="m48 58h12v8h-12zm0 0"/></clipPath><clipPath id="a4"><path d="m48.296875 63.761719.160156 1.394531s1.347657-7.679688 10.863281-1.46875c-2.507812-3.441406-5.140624-4.839844-7.207031-4.839844-2.476562 0-4.144531 2.007813-3.816406 4.914063"/></clipPath><linearGradient id="a5" gradientTransform="matrix(-4.652603 -12.978325 -12.978325 4.652603 57.718441 72.688118)" gradientUnits="userSpaceOnUse" x1="0" x2="1" y1="0" y2="0"><stop offset="0" stop-color="#fdd494"/><stop offset=".00123603" stop-color="#fdd494"/><stop offset=".453995" stop-color="#fbb03b"/><stop offset=".454329" stop-color="#fbb03b"/><stop offset=".656448" stop-color="#8c6239"/><stop offset=".975018" stop-color="#42210b"/><stop offset=".975464" stop-color="#42210b"/><stop offset="1" stop-color="#42210b"/></linearGradient><clipPath id="a6"><path d="m49.5 40.679688h4.773438v12.503906h-4.773438zm0 0"/></clipPath><mask id="a7"><g filter="url(#o)"><path d="m0 0h200v200h-200z" fill-opacity=".429993"/></g></mask><clipPath id="a8"><path d="m49.5 40.679688h4.773438v12.503906h-4.773438zm0 0"/></clipPath><clipPath id="a9"><path d="m0 0h200v200h-200z"/></clipPath><clipPath id="ba"><path d="m140.777344 98.070312h1.164062v2.113282h-1.164062zm0 0"/></clipPath><mask id="bb"><g filter="url(#o)"><path d="m0 0h200v200h-200z" fill-opacity=".429993"/></g></mask><clipPath id="bc"><path d="m140.777344 98.070312h1.164062v2.113282h-1.164062zm0 0"/></clipPath><clipPath id="bd"><path d="m0 0h200v200h-200z"/></clipPath><clipPath id="be"><path d="m141.441406 85.683594h2.179688v12.664062h-2.179688zm0 0"/></clipPath><mask id="bf"><g filter="url(#o)"><path d="m0 0h200v200h-200z" fill-opacity=".429993"/></g></mask><clipPath id="bg"><path d="m141.441406 85.683594h2.179688v12.664062h-2.179688zm0 0"/></clipPath><clipPath id="bh"><path d="m0 0h200v200h-200z"/></clipPath><clipPath id="bi"><path d="m133.980469 84.855469h1.605469v1.550781h-1.605469zm0 0"/></clipPath><mask id="bj"><g filter="url(#o)"><path d="m0 0h200v200h-200z" fill-opacity=".429993"/></g></mask><clipPath id="bk"><path d="m133.980469 84.855469h1.605469v1.550781h-1.605469zm0 0"/></clipPath><clipPath id="bl"><path d="m0 0h200v200h-200z"/></clipPath><clipPath id="bm"><path d="m80.113281 103.515625h3.933594v3.144531h-3.933594zm0 0"/></clipPath><mask id="bn"><g filter="url(#o)"><path d="m0 0h200v200h-200z" fill-opacity=".429993"/></g></mask><clipPath id="bo"><path d="m80.113281 103.515625h3.933594v3.144531h-3.933594zm0 0"/></clipPath><clipPath id="bp"><path d="m0 0h200v200h-200z"/></clipPath><g clip-path="url(#a)"><g clip-path="url(#b)"><path d="m93.269531 155.761719s63.730469 50.3125 88.105469 29.015625c36.890625-32.234375-21.828125-59.144532-21.828125-59.144532zm0 0" fill="url(#d)"/></g></g><g clip-path="url(#e)"><g clip-path="url(#f)"><path d="m92.492188 156.539062s63.730468 50.3125 88.105468 29.015626c36.894532-32.234376-21.828125-59.148438-21.828125-59.148438zm0 0" fill="url(#g)"/></g></g><path d="m164.855469 155.144531s13.839843 9.128907 14.6875 17.671875c.84375-8.933594-12.980469-41.410156-21.058594-44.425781-8.074219-3.015625 6.371094 26.753906 6.371094 26.753906" fill="#333"/><g clip-path="url(#h)"><g clip-path="url(#i)"><path d="m54.757812 71.25c0 4.925781 24.644532 8.917969 55.046876 8.917969 30.402343 0 54.3125-2.988281 54.3125-7.914063 0-4.925781-23.910157-9.921875-54.3125-9.921875-30.402344 0-55.046876 3.992188-55.046876 8.917969" fill="url(#j)"/></g></g><path d="m156.691406 75.820312c-.140625-.464843-.109375-1.621093.285156-2.839843-1.636718.757812-2.804687 2.417969-3.214843 3.183593-.175781-2.3125.589843-3.808593.589843-3.808593s-3.042968 1.84375-3.957031 3.972656c-.5-1.203125-.933593-1.542969-1.699219-1.652344.082032 1.003907-.257812 2.113281-.605468 2.921875" fill="#b3b3b3"/><path d="m86.808594 79.296875c-.574219-1.28125-1.828125-3.417969-1.289063-4.800781-1.140625.285156-1.570312.949218-2.246093 2.996094.027343-.683594-6.367188-6.070313-6.367188-6.070313s1.425781 2.886719 1.308594 6.714844c-.664063-1.210938-2.839844-3.246094-5.273438-5.574219.835938 2.425781.800782 5.210938.800782 5.210938l.039062.109374" fill="#4d4d4d"/><g clip-path="url(#k)"><g clip-path="url(#l)"><path d="m77.050781 78.136719c-.664062-1.210938-2.066406-3.246094-4.496093-5.574219.832031 2.425781.019531 5.210938.019531 5.210938l.042969.109374c-9.625-1.402343-16.179688-3.347656-17.835938-5.539062 2.148438 5.816406 11.976562 33.960938 12.765625 64.367188.160156 6.105468-.042969 12.304687-.75 18.433593 11.84375 11.457031 83.105469 20.777344 97.667969 0 14.5625-20.777343-1.296875-7.710937-2.46875-18.773437-1.992188-18.820313-3.621094-47.339844 2.121094-64.117188-.894532 1.292969-3.496094 2.5-7.425782 3.566406-.140625-.464843-.457031-1.761718-.058594-2.980468-1.5625 1.539062-2.441406 2.84375-2.855468 3.613281-.171875-2.3125.1875-4.097656.1875-4.097656s-3.605469 3.558593-3.570313 3.972656c-.5-1.203125-1.320312-1.542969-2.085937-1.65625.390625.804687.128906 2.117187-.21875 2.925781-9.9375 1.589844-23.597656 2.570313-38.671875 2.570313-8.515625 0-16.578125-.3125-23.773438-.871094-.574219-1.28125-1.050781-3.417969-.515625-4.800781-1.136718.285156-2.347656.949218-3.023437 2.996094.03125-.6875-5.589844-6.070313-5.589844-6.070313s.652344 2.886719.535156 6.714844" fill="url(#m)"/></g></g><g clip-path="url(#n)"><g clip-path="url(#t)" mask="url(#p)"><g clip-path="url(#q)"><g clip-path="url(#r)"><path d="m93.152344 147.179688c7.992187 5.71875 16.957031 9.585937 25.824218 10.613281l-2.617187-77.691407c-2.148437.042969-4.332031.066407-6.554687.066407-7.511719 0-14.671876-.246094-21.195313-.6875zm0 0" fill="url(#s)"/></g></g></g></g><path d="m135.175781 83.015625c1.410157-.660156 2.910157.113281 3.347657 1.726563.441406 1.613281-.34375 3.457031-1.753907 4.117187-1.410156.660156-2.90625-.113281-3.347656-1.726563-.441406-1.613281.34375-3.457031 1.753906-4.117187" fill="#4d4d4d"/><path d="m138.03125 98.519531c9.453125-1.796875 17.121094 5.875 17.128906 17.132813.007813 11.257812-7.648437 21.839844-17.101562 23.632812-9.453125 1.792969-17.121094-5.878906-17.128906-17.136718-.007813-11.257813 7.648437-21.835938 17.101562-23.628907" fill="#4d4d4d"/><g clip-path="url(#u)"><g clip-path="url(#v)"><path d="m138.289062 98.390625c-8.476562 1.714844-15.34375 11.832031-15.335937 22.601563.003906 8.316406 4.105469 14.585937 9.878906 16.21875l10.015625 2.835937c-5.773437-1.632813-9.875-7.902344-9.878906-16.21875-.007812-10.765625 6.859375-20.886719 15.335938-22.601563 1.933593-.390624 3.78125-.3125 5.484374.167969-3.339843-.945312-6.679687-1.890625-10.019531-2.835937-.96875-.273438-1.988281-.417969-3.042969-.417969-.796874 0-1.605468.082031-2.4375.25" fill="url(#x)"/></g></g><g clip-path="url(#y)"><g clip-path="url(#B)" mask="url(#z)"><g clip-path="url(#A)"><path d="m134.359375 115.421875c-2.210937-.445313-7.0625-1.367187-10.292969-1.964844-.71875 2.402344-1.113281 4.949219-1.113281 7.535157 0 .375.011719.746093.027344 1.113281 3.316406.53125 7.804687 1.238281 9.988281 1.636719.007812-2.871094.507812-5.691407 1.390625-8.320313" fill="#fff"/></g></g></g><g clip-path="url(#C)"><g clip-path="url(#F)" mask="url(#D)"><g clip-path="url(#E)"><path d="m124.757812 111.4375c3.585938.800781 7.324219 1.640625 10.234376 2.292969.28125-.671875.582031-1.332031.914062-1.972657-3.15625-.722656-6.914062-1.578124-10.265625-2.34375-.320313.65625-.613281 1.332032-.882813 2.023438" fill="#fff"/></g></g></g><path d="m148.304688 101.226562c8.476562-1.714843 15.355468 5.621094 15.359374 16.386719.007813 10.769531-6.859374 20.886719-15.335937 22.605469-8.476563 1.714844-16.136719-5.621094-16.144531-16.390625-.003906-10.765625 7.644531-20.886719 16.121094-22.601563" fill="#8c6239"/><g clip-path="url(#G)"><g clip-path="url(#H)"><path d="m148.304688 101.226562c-8.476563 1.714844-15.34375 11.835938-15.335938 22.601563.007812 10.769531 6.882812 18.105469 15.359375 16.390625 8.476563-1.71875 15.34375-11.835938 15.335937-22.601562-.003906-9.71875-5.601562-16.640626-12.921874-16.640626-.792969 0-1.609376.082032-2.4375.25" fill="url(#I)"/></g></g><path d="m81.746094 112.558594c-3.003906 1.816406-6.640625-.046875-8.117188-4.164063-1.480468-4.121093-.242187-8.929687 2.765625-10.75 3.007813-1.816406 6.644531.046875 8.121094 4.164063 1.476563 4.121094.238281 8.929687-2.769531 10.75" fill="#4d4d4d"/><g clip-path="url(#J)"><g clip-path="url(#K)"><path d="m114.757812 145.4375c-17.382812 0-33.507812-3.222656-46.820312-8.726562.15625 6.105468-.046875 12.304687-.753906 18.433593 11.84375 11.457031 83.109375 20.777344 97.671875 0 14.5625-20.777343-1.296875-7.710937-2.46875-18.773437-13.46875 5.710937-29.894531 9.066406-47.628907 9.066406" fill="url(#L)"/></g></g><g clip-path="url(#M)"><g clip-path="url(#R)" mask="url(#N)"><g clip-path="url(#O)"><g clip-path="url(#P)"><path d="m92.316406 143.578125.835938 21.019531c7.992187 1.511719 16.957031 2.535156 25.824218 2.804688l-.875-22.003906c-1.109374.023437-2.222656.039062-3.34375.039062-7.78125 0-15.304687-.652344-22.441406-1.859375zm0 0" fill="url(#Q)"/></g></g></g></g><g clip-path="url(#S)"><g clip-path="url(#T)"><path d="m50.917969 141.601562c-2.539063.003907-4.207031.539063-4.785157 1.699219-3.769531 7.570313-4.515624 8.480469 36.261719 26.085938 80.128907 39.351562 99.949219 14.523437 99.949219 14.523437s-10.886719 11.332032-45.320312-8.183594c-31.359376-17.769531-72.066407-34.121093-86.101563-34.125 0 0 0 0-.003906 0" fill="url(#U)"/></g></g><g clip-path="url(#V)"><g clip-path="url(#W)"><path d="m50.144531 142.378906c-2.542969 0-4.210937.539063-4.789062 1.699219-3.765625 7.570313-3.347657 9.046875 37.425781 26.652344 80.132812 39.351562 98.785156 13.957031 98.785156 13.957031s-10.886718 11.332031-45.320312-8.183594c-31.359375-17.773437-72.066406-34.121094-86.101563-34.125" fill="url(#X)"/></g></g><g clip-path="url(#Y)"><g clip-path="url(#Z)"><path d="m149.085938 104.871094c-7.0625 1.429687-12.78125 9.859375-12.773438 18.828125.003906 8.964843 5.730469 15.078125 12.792969 13.648437 7.058593-1.429687 12.777343-9.855468 12.769531-18.824218-.003906-8.09375-4.667969-13.855469-10.761719-13.855469-.660156 0-1.339843.066406-2.027343.203125" fill="url(#aa)"/></g></g><g clip-path="url(#ab)"><g clip-path="url(#ac)"><path d="m136.730469 83.421875c-1.054688.527344-1.59375 2.105469-1.207031 3.519531.386718 1.414063 1.550781 2.132813 2.605468 1.601563 1.050782-.527344 1.59375-2.101563 1.207032-3.515625-.300782-1.101563-1.070313-1.78125-1.894532-1.78125-.234375 0-.476562.058594-.710937.175781" fill="url(#ad)"/></g></g><g clip-path="url(#ae)"><g clip-path="url(#af)"><path d="m136.023438 83.234375c-.234376 0-.476563.054687-.710938.171875-1.050781.53125-1.59375 2.105469-1.207031 3.519531.296875 1.09375 1.0625 1.769531 1.878906 1.777344l1.417969.015625c-.816406-.007812-1.582032-.683594-1.878906-1.777344-.386719-1.414062.152343-2.992187 1.207031-3.519531.238281-.121094.484375-.175781.726562-.171875-.472656-.007812-.945312-.011719-1.417969-.015625zm0 0" fill="url(#ag)"/></g></g><path d="m140.519531 99.863281c-.515625-.765625.265625-1.621093 1.742188-1.910156 1.476562-.292969 3.09375.089844 3.609375.855469.515625.761718-.265625 1.617187-1.742188 1.910156-1.480468.289062-3.09375-.09375-3.609375-.855469" fill="#8c6239"/><g clip-path="url(#ah)"><g clip-path="url(#ai)"><path d="m142.269531 95.933594c-1.421875.269531-2.15625 1.140625-1.648437 1.941406.511718.800781 2.078125 1.226562 3.5.953125s2.160156-1.144531 1.648437-1.941406c-.40625-.636719-1.480469-1.039063-2.617187-1.039063-.292969 0-.589844.027344-.882813.085938" fill="url(#aj)"/></g></g><g clip-path="url(#ak)"><g clip-path="url(#al)"><path d="m140.460938 97.324219c-.011719.359375-.011719 1.09375-.027344 1.449219-.007813.179687.046875.367187.164062.550781.511719.796875 2.074219 1.226562 3.496094.953125 1.097656-.210938 1.789062-.777344 1.808594-1.394532l.027344-1.449218c-.023438.617187-.710938 1.183594-1.808594 1.394531-1.421875.273437-2.988282-.152344-3.5-.953125-.117188-.183594-.167969-.367188-.160156-.550781zm0 0" fill="url(#am)"/></g></g><g clip-path="url(#an)"><g clip-path="url(#ao)"><path d="m142.90625 83.589844-5.570312.113281s-1.339844.515625-1.300782 2.335937c.035156 1.824219 1.386719 2 1.386719 2l3.484375-.070312.195312 9.445312s.316407.972657 2.242188.933594c1.929688-.039062 2.089844-1.023437 2.089844-1.023437l-.234375-11.574219c-.027344-1.167969-1.082031-2.160156-2.25-2.160156-.015625 0-.027344 0-.042969 0" fill="url(#ap)"/></g></g><g clip-path="url(#aq)"><g clip-path="url(#ar)"><path d="m45.910156 57.210938 17.804688-1.445313-10.996094-15.085937zm0 0" fill="url(#at)"/></g></g><g clip-path="url(#au)"><g clip-path="url(#av)"><path d="m51.347656 52.363281c-4.789062 1.628907-7.011718 5.792969-4.96875 9.304688 2.046875 3.511719 7.582032 5.035156 12.371094 3.402343 4.785156-1.628906 7.011719-5.796874 4.964844-9.304687-1.488282-2.554687-4.824219-4.058594-8.375-4.058594-1.332032 0-2.6875.210938-3.992188.65625" fill="url(#aw)"/></g></g><g clip-path="url(#ax)"><g clip-path="url(#ay)"><path d="m77.207031 111.417969c-.617187.371093-1.261719.570312-1.90625.617187 1.265625-.089844 2.527344-.175781 3.792969-.261718.644531-.042969 1.289062-.242188 1.90625-.613282zm0 0" fill="url(#az)"/></g></g><g clip-path="url(#aA)"><g clip-path="url(#aB)"><path d="m74.574219 97.382812c-.734375 0-1.476563.203126-2.179688.625-2.707031 1.636719-3.820312 5.960938-2.488281 9.664063 1.328125 3.703125 4.597656 5.378906 7.300781 3.746094 2.703125-1.636719 3.816407-5.960938 2.488281-9.664063-.984374-2.742187-3.027343-4.371094-5.121093-4.371094" fill="url(#aC)"/></g></g><g clip-path="url(#aD)"><g clip-path="url(#aE)"><path d="m78.367188 97.125c-.089844 0-.183594.003906-.273438.007812l-3.792969.261719c2.1875-.152343 4.367188 1.5 5.394531 4.359375 1.328126 3.703125.214844 8.027344-2.488281 9.664063l3.792969-.257813c2.703125-1.636718 3.820312-5.960937 2.488281-9.664062-.980469-2.742188-3.027343-4.371094-5.121093-4.371094" fill="url(#aF)"/></g></g><g clip-path="url(#aG)"><g clip-path="url(#aH)"><path d="m54.109375 70.472656c-3.722656 1.265625-5.453125 4.507813-3.863281 7.238282 1.589844 2.730468 5.898437 3.914062 9.621094 2.644531 3.726562-1.265625 5.453124-4.503907 3.863281-7.234375-1.15625-1.988282-3.753907-3.15625-6.515625-3.15625-1.03125 0-2.089844.164062-3.105469.507812" fill="url(#aI)"/></g></g><g clip-path="url(#aJ)"><g clip-path="url(#aK)"><path d="m52.355469 55.023438c-2.875.980468-4.5625 3.140624-4.445313 5.328124l1.757813 15.449219c-.113281-2.191406 1.570312-4.347656 4.445312-5.328125 3.722657-1.269531 8.03125-.089844 9.621094 2.640625.339844.582031.527344 1.1875.578125 1.789063-.140625-1.820313-1.683594-14.085938-1.75-15.320313-.03125-.644531-.222656-1.292969-.585938-1.914062-1.15625-1.984375-3.753906-3.152344-6.515624-3.152344-1.035157 0-2.089844.164063-3.105469.507813m11.960937 19.894531c0-.003907-.003906-.007813-.003906-.015625 0 .007812.003906.011718.003906.015625m.003906.042969c-.003906-.015626-.003906-.027344-.003906-.042969 0 .015625 0 .03125.003906.042969m0 .050781c0-.019531 0-.035157 0-.050781zm.003907.019531c0-.007812-.003907-.015625-.003907-.019531 0 .003906 0 .011719.003907.019531" fill="url(#aL)"/></g></g><path d="m150.546875 104.6875c5.800781.363281 10.160156 6.011719 10.164063 13.835938.003906 8.96875-5.710938 17.394531-12.773438 18.824218-.492188.097656-.980469.160156-1.460938.1875.847657.050782 1.726563-.007812 2.625-.1875 7.0625-1.429687 12.78125-9.855468 12.773438-18.824218-.003906-8.339844-4.957031-14.207032-11.328125-13.835938" fill="#8c6239"/><path d="m35.941406 50.203125c.210938.011719.417969.023437.632813.023437 5.253906 0 9.511719-4.257812 9.511719-9.511718 0-3.523438-1.921876-6.597656-4.769532-8.242188.664063-.921875 1.058594-2.050781 1.058594-3.273437 0-3.101563-2.515625-5.617188-5.621094-5.617188-.097656 0-.191406.007813-.285156.011719.175781-.753906.269531-1.535156.269531-2.34375 0-5.695312-4.613281-10.3125-10.308593-10.3125-5.695313 0-10.3125 4.617188-10.3125 10.3125v.019531c0-.007812-.25-.019531-.378907-.019531-3.78125 0-6.847656 3.066406-6.847656 6.847656 0 .945313.191406 1.839844.539063 2.660156-1.808594 2.171876-2.890626 4.964844-2.890626 8.011719 0 6.511719 4.953126 11.863281 11.296876 12.496094.359374 3.453125 3.277343 6.144531 6.824218 6.144531 2.277344 0 4.289063-1.113281 5.535156-2.820312 5.753907 8.78125 14.832032 8.726562 14.832032 8.726562-7.5625-3.3125-9.105469-8.980468-9.085938-13.113281" fill="#adadad"/><g clip-path="url(#aM)"><g clip-path="url(#aN)"><path d="m57.300781 71.859375c-.3125 0-.640625.015625-.988281.050781-5.152344.507813-5.296875 4.152344-5.296875 4.152344l3.058594 30.902344c.316406 3.160156 3.417969 5.609375 6.578125 5.296875l14.878906-1.472657s3.46875-1.652343 2.988281-6.519531c-.480469-4.863281-4.132812-5.054687-4.132812-5.054687l-9.300781.921875-2.496094-25.21875s-.980469-3.058594-5.289063-3.058594" fill="url(#aO)"/></g></g><g fill="#666"><path d="m99.515625 137.667969c-4.660156-3.785157-20.976563-8.554688-20.976563-8.554688 1.023438 1.050781 15.34375 8.652344 20.976563 8.554688"/><path d="m96.664062 131.832031c-2.746093-2.765625-12.945312-6.980469-12.945312-6.980469.589844.75 9.304688 6.652344 12.945312 6.980469"/><path d="m95.804688 127.039062c-1.722657-1.738281-8.121094-4.382812-8.121094-4.382812.371094.472656 5.839844 4.175781 8.121094 4.382812"/><path d="m150.417969 83.617188c2.65625-.210938 9.898437-5.304688 9.898437-5.304688-.640625-.066406-7.828125 2.652344-9.898437 5.304688"/><path d="m152.902344 85.292969c1.699218.148437 6.523437-2.40625 6.523437-2.40625-.402343-.109375-5.089843.890625-6.523437 2.40625"/><path d="m154.390625 87.351562c1.066406.09375 4.09375-1.507812 4.09375-1.507812-.25-.070312-3.191406.558594-4.09375 1.507812"/><path d="m179.542969 161.289062c2.660156-.214843 9.898437-5.308593 9.898437-5.308593-.640625-.066407-7.828125 2.65625-9.898437 5.308593"/><path d="m182.027344 162.960938c1.699218.152343 6.523437-2.402344 6.523437-2.402344-.402343-.113282-5.085937.890625-6.523437 2.402344"/><path d="m183.519531 165.023438c1.0625.09375 4.09375-1.507813 4.09375-1.507813-.253906-.070313-3.195312.558594-4.09375 1.507813"/><path d="m51.757812 149.347656c-.800781-.621094-1.445312-5.292968-1.445312-5.292968.339844.265624 1.703125 3.632812 1.445312 5.292968"/><path d="m50.210938 149.882812c-.902344-.226562-2.136719-3.386718-2.136719-3.386718.34375.101562 2.230469 2.152344 2.136719 3.386718"/><path d="m48.15625 151.203125c-.824219-.070313-1.941406-2.242187-1.941406-2.242187.316406.023437 2.007812 1.28125 1.941406 2.242187"/></g><path d="m48.34375 16.609375c0 1.726563-1.402344 3.128906-3.128906 3.128906-1.726563 0-3.125-1.402343-3.125-3.128906s1.398437-3.125 3.125-3.125c1.726562 0 3.128906 1.398437 3.128906 3.125" fill="#adadad"/><path d="m17.863281 8.925781c0 2.574219-2.085937 4.660157-4.660156 4.660157s-4.660156-2.085938-4.660156-4.660157 2.085937-4.660156 4.660156-4.660156 4.660156 2.085937 4.660156 4.660156" fill="#adadad"/><path d="m147.109375 106.996094c.078125-.035156.160156-.074219.238281-.109375l.226563 1.636719c.011719.089843-.035157.183593-.097657.210937-.066406.03125-.128906-.015625-.144531-.105469zm-3.941406 2.902344c.070312-.074219.144531-.148438.214843-.21875l.628907 1.300781c.035156.070312.015625.179687-.039063.238281-.0625.058594-.140625.046875-.175781-.027344zm-3.183594 4.550781c.046875-.097657.101563-.199219.152344-.296875l.921875.792968c.050781.046876.0625.148438.019531.230469s-.125.109375-.183594.0625zm-1.949219 5.542969c.023438-.113282.050782-.226563.078125-.339844l1.027344.226562c.066406.015625.101563.101563.085937.195313-.023437.09375-.09375.15625-.164062.140625zm-.457031 5.683593c-.003906-.105469-.007813-.214843-.011719-.324219l.976563-.265624c.066406-.019532.128906.035156.132812.128906 0 .089844-.054687.175781-.121093.195312zm1.027344 5.03125c-.035157-.085937-.066407-.175781-.097657-.269531l.804688-.613281c.0625-.050781.136719-.03125.160156.046875.027344.074218-.003906.175781-.070312.222656zm18.738281-1.703125c-.046875.089844-.097656.175782-.144531.261719l-.53125-.457031c-.039063-.039063-.046875-.125-.003907-.199219.035157-.074219.101563-.101563.144532-.066406zm1.832031-4.703125c-.03125.097657-.054687.195313-.085937.292969l-.71875-.15625c-.054688-.011719-.078125-.085938-.054688-.167969.015625-.082031.074219-.140625.128906-.128906zm.738281-5.046875c0 .101563-.003906.199219-.007812.300782l-.859375.234374c-.054687.015626-.101563-.039062-.097656-.121093 0-.082031.046875-.160157.105469-.175781zm-.460937-4.882812c.023437.089844.042969.179687.0625.269531l-.90625.695313c-.050781.042968-.113281.015624-.132813-.058594-.011718-.074219.015626-.167969.066407-.210938zm-1.707031-4.171875c.046875.070312.089844.140625.132812.210937l-.8125 1.152344c-.046875.066406-.113281.074219-.152344.015625-.039062-.058594-.035156-.15625.019532-.222656zm-2.832032-2.914063c.0625.042969.128907.085938.1875.125l-.578124 1.527344c-.03125.082031-.097657.121094-.148438.089844-.054688-.03125-.074219-.125-.042969-.210938zm-3.46875-1.144531-.203124 1.703125c-.015626.09375-.078126.164062-.140626.160156-.066406-.003906-.109374-.078125-.09375-.171875l.210938-1.703125c.039062 0 .070312 0 .109375.003906.042969.003907.078125.003907.117187.007813" fill="#4d5569"/><path d="m145.117188 108.179688c.054687-.039063.105468-.074219.15625-.109376l.304687 1.046876c.015625.054687 0 .125-.046875.15625-.042969.027343-.089844.007812-.105469-.046876zm-3.640626 3.78125c.046876-.058594.085938-.121094.125-.179688l.546876.726562c.027343.042969.027343.113282-.011719.164063-.035157.046875-.085938.050781-.117188.011719zm-2.625 5.132812c.027344-.074219.054688-.144531.078126-.21875l.660156.335938c.039062.023437.050781.085937.035156.148437-.023438.058594-.074219.089844-.117188.066406zm-1.230468 5.71875c.003906-.074219.011718-.148438.019531-.226562l.640625-.019532c.046875-.003906.074219.046875.074219.109375-.007813.0625-.050781.113281-.097657.113281zm.285156 5.457031c-.011719-.066406-.027344-.132812-.039062-.203125l.535156-.269531c.039062-.023437.085937.003906.097656.058594.007812.054687-.019531.121093-.070312.144531zm20.457031-1.496093c-.023437.0625-.046875.125-.074219.1875l-.363281-.1875c-.035156-.015626-.046875-.074219-.03125-.125.023438-.050782.066407-.082032.097657-.066407zm1.320313-4.929688c-.011719.066406-.023438.132812-.027344.195312l-.503906.019532c-.035156 0-.058594-.042969-.050782-.097656.007813-.054688.042969-.101563.078126-.101563zm.164062-5.035156c.007813.0625.007813.125.015625.191406l-.589843.300781c-.039063.019531-.070313-.007812-.078126-.058593-.003906-.054688.019532-.113282.058594-.132813zm-1.078125-4.605469c.019531.054687.042969.109375.0625.164063l-.597656.632812c-.03125.035156-.078125.027344-.097656-.015625-.015625-.046875-.003907-.109375.03125-.148437zm-2.285156-3.621094c.039063.035157.074219.074219.113281.113281l-.5.949219c-.03125.050781-.078125.066407-.105468.035157-.03125-.03125-.035157-.097657-.007813-.148438zm-3.300781-2.105469c.046875.015626.09375.03125.144531.046876l-.289063 1.164062c-.015624.058594-.0625.097656-.097656.085938-.039062-.011719-.0625-.070313-.042968-.132813zm-3.804688-.214843v1.203125c0 .0625-.035156.121094-.078125.128906s-.078125-.035156-.074219-.097656l-.003906-1.203125c.050782-.011719.101563-.023438.15625-.03125" fill="#4d5569"/><path d="m149.273438 123.640625s-5.101563-6.707031-7.1875-9.320313l.246093-.242187 7.765625 8.589844zm0 0" fill="#c1272d"/><path d="m149.660156 123.253906s-5.488281-6.320312-7.574218-8.933594l.246093-.242187 8.152344 8.203125zm0 0" fill="#ec145a"/><g clip-path="url(#aP)"><g clip-path="url(#aQ)"><path d="m141.3125 136.230469c8.785156 5.984375 15.304688-2.675781 15.304688-2.675781l-6.132813-12.582032zm0 0" fill="url(#aR)"/></g></g><g clip-path="url(#aS)"><g clip-path="url(#aT)"><path d="m149.320312 120.972656-8.859374 13.851563s.5625.535156 1.191406.988281l8.832031-14.839844zm0 0" fill="url(#aU)"/></g></g><path d="m150.910156 133.550781s.097656-.679687.3125-.421875c.25.304688-.011718.785156-.316406.71875-.308594-.070312-.519531-1.027344.195312-1.988281.691407-.941406 1.195313.125 1.132813.679687-.054687.5625-.316406.417969-.316406.417969s.125.53125.40625.398438c.277343-.136719.21875-.453125.21875-.453125s.339843.996094.8125 1.140625c.457031.140625.707031-.128907.9375-.378907.234375-.25.34375.007813.277343.207032 0 0 .226563-.074219.132813-.332032 0 0 .519531.265626.777344-.414062 0 0-.421875.144531-.355469-.277344.054688-.417968-.347656-.585937-.644531-.074218-.140625.246093-.035157.277343-.035157.277343s-.113281.054688-.039062-.484375c.0625-.539062-.324219-.675781-.480469-.53125-.164062.148438-.496093.59375-.058593 1.03125 0 0 .015624.359375-.527344.144532-.542969-.214844-.546875-1.390626-.546875-1.390626s.222656-.140624.230469-.476562c.007812-.335938-.203126-.503906-.414063-.300781 0 0 .113281-.050781.058594.359375-.058594.414062-.214844.066406-.339844-.097656-.121094-.164063-.238281-.261719-.238281-.261719s.902344-.113281.914062-1.675781c0 0-.164062.449218-.355468.496093-.191407.042969-.308594.011719-.394532.289063 0 0 .226563-.984375-.046875-1.347656-.265625-.363282-.429687-.664063-.453125-.785157-.023437-.125.058594-.550781.21875-.398437 0 0-.195312-.429688-.453125-.207032-.261719.222657-.144531.382813-.144531.382813s-.417969-.324219-.191406-1.21875c0 0 .253906.484375.523437.074219s.15625-1.011719-.125-.839844c-.121093.078125-.171875.144531-.171875.144531s.300782-1.152343-.277344-1.28125c-.582031-.132812-.757812.695313-.757812.695313s.425781-.445313.632812-.179688c.203126.265625.007813.96875-.207031 1.339844-.210937.371094-.296875 1.289062.113281 1.664062 0 0-.394531.214844-.460937 1.074219-.070313.867188.492187 1 .84375.613281.351563-.378906.269531-1.195312-.082031-1.097656-.351563.097656-.371094.523438-.371094.523438s-.011719-.617188.511719-.691406c.523437-.074219.523437.753906.480469 1.1875 0 0-.035157-.257813-.203126-.234376 0 0 .222657.296876-.253906.914063-.488281.628906-1.097656 1.320313-1.1875 2.488281-.097656 1.195313.394532 1.746094.910156 1.492188.410157-.199219.8125-.882813.488282-1.589844-.105469-.242188.074218-.390625.195312-.328125 0 0-.058594-.433594-.414062-.21875 0 0-.074219-.226563-.167969-.144531-.101563.085937-.230469.003906-.230469.003906s.03125.335938-.046875.472656c-.078125.132813.125.148438.125.148438s-.273437.03125-.140625.742187" fill="#754c24"/><path d="m148.097656 134.039062s.011719-.675781-.265625-.328124c-.324219.414062-.125.828124.214844.640624.339844-.183593.734375-1.261718.148437-2.019531-.582031-.753906-1.324218.550781-1.359374 1.121094-.035157.578125.277343.328125.277343.328125s-.234375.613281-.523437.574219c-.285156-.039063-.160156-.402344-.160156-.402344s-.578126 1.207031-1.136719 1.546875c-.558594.339844-.800781.140625-1.027344-.039062-.226563-.179688-.402344.148437-.371094.347656 0 0-.25.007812-.078125-.320313 0 0-.691406.515625-.871094-.144531 0 0 .484376-.011719.492188-.457031.007812-.441407.53125-.789063.785156-.335938.117188.214844-.015625.292969-.015625.292969s.125.015625.144531-.554688c.023438-.566406.503907-.859374.667969-.761718.160157.097656.453125.460937-.140625 1.109375 0 0-.085937.398437.585938-.046875.664062-.441406.875-1.710938.875-1.710938s-.21875-.070312-.164063-.429687c.050781-.359375.320313-.609375.519531-.46875 0 0-.121093-.015625-.132812.40625s.234375-.003907.398438-.21875c.164062-.21875.308593-.363281.308593-.363281s-.980469.1875-.710937-1.484376c0 0 .109375.425782.308594.414063.199218-.015625.335937-.085937.382812.179687 0 0-.078125-.972656.289062-1.441406.359376-.46875.589844-.828125.640626-.964844.042968-.140624.03125-.558593-.171876-.351562 0 0 .289063-.511719.527344-.347656.226563.164062.085938.359375.085938.359375s.496094-.453125.421875-1.320313c0 0-.359375.570313-.574219.214844s.015625-1.015625.277344-.90625c.117187.050781.160156.109375.160156.109375s-.117188-1.125.519531-1.398437c.621094-.265626.660157.539062.660157.539062s-.363282-.355469-.621094-.035156c-.261719.324218-.183594 1.003906-.019532 1.332031.15625.328125.085938 1.246094-.40625 1.75 0 0 .371094.113281.289063.976563-.082031.875-.691406 1.1875-.996094.894531-.304687-.289063-.066406-1.171875.285157-1.171875.351562 0 .300781.4375.300781.4375s.117187-.644532-.425781-.570313c-.546876.078125-.691407.949219-.726563 1.390625 0 0 .085937-.28125.265625-.308594 0 0-.296875.382813.109375.878907.40625.5.921875 1.019531.816406 2.203125-.109375 1.203125-.722656 1.964844-1.230469 1.894531-.410156-.058594-.722656-.632813-.25-1.503906.164063-.292969-.003906-.386719-.148437-.273438 0 0 .144531-.484375.492187-.382812 0 0 .117188-.265625.207032-.210938.09375.054688.246094-.074219.246094-.074219s-.09375.367188-.039063.476563c.0625.113281-.160156.207031-.160156.207031s.289062-.070312.023437.722656" fill="#754c24"/><g clip-path="url(#aV)"><g clip-path="url(#aY)" mask="url(#aW)"><g clip-path="url(#aX)"><path d="m62.332031 105.632812c-2.589843.128907-2.625-1.363281-2.625-1.363281l-2.03125-32.402343c-.417969-.019532-.875-.007813-1.363281.042968-1.125.109375-2.007812.371094-2.707031.707032 1.441406 9.316406 3.945312 28.839843 4.160156 32.097656.292969 4.417968 7.199219.785156 4.566406.917968" fill="#fff"/></g></g></g><g clip-path="url(#aZ)"><g clip-path="url(#a2)" mask="url(#a0)"><g clip-path="url(#a1)"><path d="m49.914062 56.347656c.640626 4.492188 1.367188 10.136719 1.984376 15.273438.625-.464844 1.367187-.859375 2.214843-1.148438.605469-.207031 1.222657-.339844 1.84375-.421875l-1.449219-15.488281c-.722656.070312-1.449218.222656-2.152343.460938-.953125.328124-1.773438.78125-2.441407 1.324218" fill="#fff"/></g></g></g><g clip-path="url(#a3)"><g clip-path="url(#a4)"><path d="m48.296875 63.761719.160156 1.394531s1.347657-7.679688 10.863281-1.46875c-2.507812-3.441406-5.140624-4.839844-7.207031-4.839844-2.476562 0-4.144531 2.007813-3.816406 4.914063" fill="url(#a5)"/></g></g><g clip-path="url(#a6)"><g clip-path="url(#a9)" mask="url(#a7)"><g clip-path="url(#a8)"><path d="m51.347656 52.363281c.957032-.328125 1.941406-.523437 2.925782-.605469l-1.554688-11.078124-3.21875 12.503906c.5625-.316406 1.179688-.59375 1.847656-.820313" fill="#fff"/></g></g></g><g clip-path="url(#ba)"><g clip-path="url(#bd)" mask="url(#bb)"><g clip-path="url(#bc)"><path d="m140.777344 99.542969c.273437.28125.683594.5 1.164062.640625v-1.457032c-.484375-.144531-.898437-.371093-1.164062-.65625zm0 0" fill="#fff"/></g></g></g><g clip-path="url(#be)"><g clip-path="url(#bh)" mask="url(#bf)"><g clip-path="url(#bg)"><path d="m142.132812 98.203125c.308594.09375.703126.152344 1.210938.144531.101562-.003906.191406-.007812.277344-.015625-.183594-3.429687-.386719-10.578125-.347656-11.761719.054687-1.613281-2.578126-.542968-1.621094-.496093.945312.046875.902344.585937.902344.585937zm0 0" fill="#fff"/></g></g></g><g clip-path="url(#bi)"><g clip-path="url(#bl)" mask="url(#bj)"><g clip-path="url(#bk)"><path d="m135.585938 84.855469h-1.421876c-.160156.476562-.21875 1.015625-.15625 1.550781h1.414063c-.058594-.535156 0-1.074219.164063-1.550781" fill="#fff"/></g></g></g><g clip-path="url(#bm)"><g clip-path="url(#bp)" mask="url(#bn)"><g clip-path="url(#bo)"><path d="m80.113281 106.660156 3.816407-.40625c.136718-.886718.15625-1.8125.039062-2.738281l-3.773438.402344c.101563.929687.070313 1.859375-.082031 2.742187" fill="#fff"/></g></g></g></svg>