<svg height="200" viewBox="0 0 200 200" width="200" xmlns="http://www.w3.org/2000/svg"><path d="m124.738281 13.175781c13.914063 3.945313 26.8125 11.316407 37.296875 21.277344 9.265625 8.753906 16.640625 19.488281 21.480469 31.285156 5.191406 12.632813 7.449219 26.492188 6.539063 40.121094-.933594 14.972656-5.703126 29.660156-13.742188 42.324219-6.332031 10.03125-14.671875 18.796875-24.375 25.628906-11.976562 8.46875-26.042969 13.9375-40.609375 15.722656-19.269531 2.480469-39.261719-1.476562-56.101563-11.175781-12.84375-7.320313-23.835937-17.890625-31.695312-30.410156-6.195312-9.839844-10.449219-20.890625-12.429688-32.347657-2.40625-13.664062-1.601562-27.867187 2.324219-41.175781 4.070313-13.859375 11.554688-26.679687 21.601563-37.054687 13-13.542969 30.277344-22.855469 48.765625-26.15625 13.554687-2.496094 27.691406-1.800782 40.945312 1.960937zm0 0" fill="#ff0f69"/><g fill="#fffdfe"><path d="m94.921875 59.957031c3.523437-.03125 7.023437-.332031 10.546875-.269531 3.140625-.011719 6.242188.402344 9.375.472656 3.148438.117188 6.242188-.085937 9.378906-.238281 1.167969-.023437 2.527344-.0625 3.535156.609375 2.117188 1.539062 2.980469 4.394531 2.167969 6.875-.585937 1.796875-2.039062 3.785156-4.113281 3.820312-4.289062.320313-8.621094-.066406-12.921875.15625-6.394531.511719-12.738281.261719-19.140625.332032-1.042969-.035156-2.371094.089844-3.3125-.414063-1.441406-.867187-2.375-2.398437-2.363281-4.097656-.011719-1.867187.089843-4.339844 1.53125-5.722656 1.386719-1.34375 3.496093-1.480469 5.316406-1.523438zm0 0"/><path d="m146.90625 59.699219c4.480469.761719 6.082031 7.65625 2.5 10.394531-1.851562 1.484375-4.222656 1.09375-6.4375 1.171875-1.757812-.042969-4.140625.265625-5.664062-.742187-1.921876-1.34375-2.273438-3.777344-1.566407-5.902344.59375-1.804688 1.566407-4.019532 3.582031-4.5625 2.429688-.648438 5.097657-.605469 7.585938-.359375zm0 0"/><path d="m74.21875 60.171875c1.523438-.09375 3.339844-.292969 4.800781.230469 1.425781.667968 2.464844 2.246094 3 3.683594.835938 2.628906-.324219 6.15625-3.1875 6.960937-2.769531.839844-6.058593-.160156-8.929687.28125-1.59375.246094-3.113282 1.039063-4.394532 1.992187-1.722656 1.308594-3.253906 2.761719-4.3125 4.671876-1.878906 3.140624-1.667968 7.386718-.25 10.660156 1.269532 2.996094 4.082032 4.898437 7.113282 5.8125 2.765625.804687 6.03125.382812 8.851562.039062 3.550782-.53125 7.015625-.386718 10.589844-.449218 2.472656-.003907 4.949219-.074219 7.425781-.03125 3.613281.042968 6.882813 1.230468 10.539063.964843 1.5-.039062 3.3125-.492187 4.648437.359375 2.246094 1.523438 3.238281 4.476563 2.382813 7.058594-.433594 1.300781-.914063 3.046875-2.394532 3.484375-1.949218.613281-4.171874.546875-6.199218.53125-2.800782-.023437-5.417969-.914063-8.199219-1.046875-2.5625-.148438-5.09375-.007812-7.628906.410156-3.953125.652344-7.972657.566406-11.917969-.101562-1.9375-.316406-3.882812-.359375-5.84375-.386719-3.820312-.070313-7.582031-1.027344-10.855469-3.027344-3.277343-2.007812-6.34375-4.339843-8.304687-7.714843-1.949219-3.386719-2.527344-7.5-2.535156-11.351563-.019532-4.222656.683593-8.480469 2.925781-12.125 1.914062-3.125 5-5.3125 8.132812-7.097656 2.449219-1.472657 4.96875-2.707031 7.785157-3.289063 2.292968-.507812 4.402343-.320312 6.757812-.519531zm0 0"/><path d="m126.171875 95.097656c4.234375.101563 8.632813-.179687 12.558594 1.734375 3.378906 1.632813 5.488281 4.765625 7.300781 7.921875 1.980469 3.546875 4.515625 7.105469 5.003906 11.238282.480469 4.265624-1.246094 8.214843-3.285156 11.84375-2.714844 5.171874-7.78125 9.074218-13.265625 10.921874-2.699219.9375-5.476563 1.105469-8.3125 1.128907-2.746094.015625-5.460937.394531-8.203125.445312-5.738281.128907-11.441406-.402343-17.1875-.089843-4.339844.265624-8.679688.21875-13.027344.160156-1.949218-.09375-4.175781-.324219-5.269531-2.183594-1.894531-3.265625-.109375-7.65625 3.1875-9.179688 2.304687-.90625 5.242187-.605468 7.6875-.621093 2.746094-.019531 5.46875.226562 8.207031.40625 7.675782.292969 15.371094.191406 23.042969.578125 2.277344.035156 4.375.207031 6.585937-.496094 2.140626-.664062 4.347657-1.90625 5.703126-3.730469 1.644531-2.246093 2.140624-5.265625 2.089843-7.992187-.011719-2.371094-.980469-4.601563-2.527343-6.378906-1.953126-2.175782-4.078126-4.144532-7.050782-4.707032-2.492187-.421875-5.328125.277344-7.835937-.296875-1.273438-.304687-2.292969-1.125-2.707031-2.390625-.996094-2.816406.640624-6.125 3.070312-7.652344 1.207031-.792968 2.847656-.652343 4.234375-.660156zm0 0"/><path d="m71.121094 128.25c2.675781.058594 4.605468 2.871094 4.804687 5.332031.222657 2.910157-1.957031 6.433594-5.125 6.464844-5.316406.300781-10.902343-.105469-16.128906-.132813-2.808594.023438-5.363281-1.96875-5.875-4.75-.480469-2.558593 1.089844-4.972656 3.332031-6.09375 1.671875-.867187 3.839844-.609374 5.683594-.691406 4.453125-.195312 8.847656-.355468 13.308594-.128906zm0 0"/></g></svg>