<svg height="200" viewBox="0 0 200 200" width="200" xmlns="http://www.w3.org/2000/svg" xmlns:xlink="http://www.w3.org/1999/xlink"><filter id="a" height="100%" width="100%" x="0%" y="0%"><feColorMatrix in="SourceGraphic" type="matrix" values="0 0 0 0 1 0 0 0 0 1 0 0 0 0 1 0 0 0 1 0"/></filter><mask id="b"><g filter="url(#a)"><path d="m0 0h200v200h-200z" fill-opacity=".75"/></g></mask><clipPath id="c"><path d="m0 0h200v200h-200z"/></clipPath><mask id="d"><g filter="url(#a)"><path d="m0 0h200v200h-200z" fill-opacity=".5"/></g></mask><clipPath id="e"><path d="m0 0h200v200h-200z"/></clipPath><path d="m101.761719 15.789062-45.628907 33.683594 30.945313 22.816406 2.84375 2.054688-.054687.023438 3.082031 2.265624 36.550781-27.054687-28.394531-20.945313-27.949219 20.710938 19.792969 14.578125 19.894531-14.816406-11.421875-8.421875v-2.339844l.050781-.082031 13.578125 10.054687 1.054688.789063-1.054688.789062-21.472656 16.027344-.578125.421875-.605469-.421875-21.472656-15.789063-1.078125-.789062 1.050781-.792969 29.605469-21.945312.578125-.421875.605469.421875 30.027344 22.183593 1.078124.789063-1.050781.789063-38.160156 28.289062-.578125.421875-.605469-.421875-4.210937-3.105469-3.050782 2.105469-4.238281 3.210938 11.605469 8.765624 54.761719-40.582031zm0 0"/><path d="m91.074219 53.050781.097656-2.070312-4.539063-2.171875v.988281l4.441407 3.257813zm0 0" fill="#fff"/><path d="m95.167969 53.050781-.097657-2.070312 4.535157-2.171875v.988281zm0 0" fill="#fff"/><g clip-path="url(#c)" mask="url(#b)"><path d="m137.34375 58.894531-8.632812 6.394531 18.816406 14.660157 1.023437.789062-1.023437.734375-55.054688 40.789063-.605468.476562-.578126-.476562-12.972656-9.628907-10 7.339844 23.105469 17.183594 75.683594-56.023438zm-70.1875 1.15625-.050781.027344-28.5 20.632813 7.132812 5.316406 46.128907 34.234375 53.421874-39.578125-18.210937-14.183594-34.050781 25.183594-.605469.449218-.578125-.449218-13.265625-9.972656-1.050781-.789063 1.050781-.789063 7.816406-5.894531zm0 0"/></g><g clip-path="url(#e)" mask="url(#d)"><path d="m52.289062 93.34375-36.5 26.839844 72.5 53.449218 72.660157-53.789062-21.316407-15.871094-47.582031 35.210938-.601562.421875-.605469-.421875-24.765625-18.421875-1.078125-.789063 1.078125-.816406 10.527344-7.789062zm100.632813.8125-11.632813 8.605469 21.894532 16.289062 1.078125.792969-1.078125.789062-73.210938 54.234376 12.660156 9.34375 86.394532-63.605469zm0 0"/></g></svg>