<svg height="200" viewBox="0 0 200 200" width="200" xmlns="http://www.w3.org/2000/svg"><path d="m124.06641 11.910156c-10.96485 0-18.96485 6.808594-18.96485 16.078125 0 17.679688 26.73047 16.84375 26.73047 26.578125 0 4.398438-3.79687 6.765625-8.13281 6.765625-7.96484 0-13.83203-6.765625-13.83203-6.765625l-5.90235 7.367188s6.9336 8.800781 19.53516 8.800781c11.96484 0 18.89844-7.699219 18.89844-16.699219 0-18.734375-26.69922-16.835937-26.69922-26.5 0-3.574218 3.46875-6.085937 8.30078-6.085937 3.76563 0 7.56641 1.777343 7.56641 4.421875v2.570312h9.43359v-5.316406c0-8.089844-10.26563-11.214844-16.93359-11.214844zm-106.898441.949219v8.921875h5.195312v40.152344h-17.125v8.964844h5.195313v42.566402c0 3.83594 1.621094 5.40235 5.476562 5.40235h21.691406l-.136718 1.19922s.03516.0664.101562.0664l-.101562-.0312s.269531.29688.535156.5c1.234375 1.19922 5.199219 4.9336 11.800781 8.83203 6.933594 4.26563 16.367188 8.83203 27.265625 10.86719 15.535156 2.96484 24.535154 2.96484 31.968754.63281h.83203c2.93359-.96875 5.63281-2.26562 8.46484-3.93359 2.06641-1.30078 4.10156-2.63281 6.40235-4.26563l35.73046-23.46874c.13672-.0664.23438-.13282.36719-.16407.63281-.36718 1.16797-.36718 1.76953-.13672.0664.0703.0664.0703.13281.0703.13282.13281.36719.23047.63282.42968l.46484.30079.63281.36718 5.33594-7.63281-3.23437-2.19922c1.36718-2.765624 2.10156-5.765624 2.10156-8.734374 0-.898437-.13281-1.734375-.23438-2.632812l-1.73437 2.53125c.0664 3.601562-.96485 7.300781-3.26563 10.570316-5.76562 8.23047-17.0664 10.23047-25.33203 4.46484-1.0664-.66797-2.0664-1.56641-2.90234-2.43359.90234.16797 2.13281.33203 3.5664.33203h.0664c3.43359 0 7.93359-1 11.83594-5.000002 1.09765.636722 1.96484.968752 2 .968752l.5664-1.902346s-.19921-.09766-.46875-.199219c-1-.367187-2.86718-1.5-3.09765-2.964844l-1.90235.300781c.16797 1.097657.69922 1.898438 1.30079 2.597657-3.33204 3.402341-7.26563 4.199221-10.30079 4.199221-1.39843 0-2.5664-.13281-3.39843-.33203-.4336-.0312-.73438-.19922-.96875-.26563-.23046-.03518-1.39843-.60159-1.39843-.60159s.19922.33594-.0664-.16406c-1.5-2.367191-2.36718-5.101566-2.63281-7.835941l-2.5664-1.632813 3.09765-4.53125c.53516-2.070312 1.43359-4.070312 2.73438-5.902344 2.10156-2.964843 4.83203-5.132812 7.96875-6.398437 0 0 .46484-.167969.69921-.234375l21.33204 10.734375-4.10157 6.265625 4.4336 2.867188 2.70312-4c0 .367187.0312.800781.0312 1.199218l1.80078-2.632812 4.26563-6.199219-2.83203-1.535156-13.73438-17.234375-4.66797 3.734375 4.30078 5.46875c-1.73046-.734375-3.53125-1.066407-5.36718-1.269531l-9.76563-4.863282-2.73437 5.332032 2.76953 1.367187c-2.26953 1-4.30078 2.464844-6.03516 4.332031l-2.30078-1.632812-5.36719 7.667968 1.07032.730469c.42968.300781.86328.667969 1.23046 1l-4.13281 6.433594 3.33203 1.769531-3.69921 17.132814c-3.19922 4.33203-6.76563 7.59766-9.96485 10-2.40234 1.89844-4.69922 3.26562-6.30078 4.13281-.80078.46485-1.43359.80078-1.83203.96485-.10156.0664-.16797.0664-.23438.10156-2.19921.26562-29.43359 3.39843-56.765621-4.90235-.300781-3.19921-.132813-7.5-.566407-12.5664-.601522-6.39844-2.46871-9.031252-3.234334-9.164065-.566407-.101563-2.902344 5.132815-2.933594 8.597655h-1.46875c-1.265625-3.93359-2.765625-5.43359-3.332032-5.43359-.464843 0-1.5 4.13672-1.066406 6.76953-.300781.19922-.699218.33203-1.199218.33203h-13.136719c-1.140625 0-1.789063-.66797-1.789063-1.76562v-13.535161h18.425782v-8.933594h-18.425782v-14.867187h12.859375c1.097657 0 1.734375.601562 1.734375 1.734374v3.46875h9.566406v-8.667968c0-3.832032-1.703124-5.5-5.5-5.5h-6.71875v-13.367188h5.285157c2.964843 0 4.164062.367188 5.398437 2.667969l7.265625 14.332031c1.835938 3.601563 3.703125 4.265625 7.933594 4.265625h5.5v-8.898437h-1c-1.800781 0-3.132813-.167969-4-1.867188l-5.53125-11c-1.066406-2.066406-2.867187-2.867187-2.867187-2.867187v-.164063c2.433593-.5 9.53125-4.703125 9.53125-15 0-10.753906-7.332032-17.175781-17.765626-17.175781zm43.632812 0v8.921875h5.199219v42.585938c0 3.832031 1.632812 5.464843 5.464844 5.464843h25.800781c3.835935 0 5.500005-1.632812 5.500005-5.464843v-8.667969h-9.566411v3.46875c0 1.132812-.632813 1.765625-1.765625 1.765625h-13.132813c-1.132812 0-1.765625-.632813-1.765625-1.765625v-13.566407h18.429688v-8.867187h-18.429688v-14.953125h12.832032c1.132812 0 1.765624.625 1.765624 1.742188v3.441406h9.535158v-8.640625c0-3.785157-1.703126-5.464844-5.433595-5.464844zm87.234379.664063c-3.86719 0-5.13672 1.347656-5.13672 5.132812v8.992188h9.23437v-3.484376c0-1.101562.63281-1.757812 1.69922-1.757812h8.76953l-.0664 48.527344 7.63281 9.601562 2.79687 1.429688h.16797v-59.558594h8.73438c1.13281 0 1.76562.65625 1.76562 1.757812v3.484376h9.23438v-8.992188c0-3.785156-1.30078-5.132812-5.16797-5.132812zm-115.152348 8.257812h8.449219c5.167969 0 8.300781 3.191406 8.300781 8.824219 0 5.695312-3.132812 8.960937-8.433593 8.960937h-8.316407zm34.316407 55.21875c-4.199219 0-14.964844.867188-14.964844 8.433594v4.367187h9.464844v-2.199219c0-2.234374 3.566406-2.734374 5.46875-2.734374 5.199219 0 7.566406 2.199218 7.566406 8.03125v.367187h-1.300781c-6.734375 0-24.332032 1-24.332032 13.835935 0 8.16407 6.632813 12.76563 13.933594 12.76563 9.265625 0 12.363282-7.19922 12.363282-7.19922h.167968s-.101562.69922-.101562 1.76562c0 2.39844 1.5 4.4336 5.269531 4.4336h9.132813v-8.53516h-3.234376c-1.132812 0-1.765624-.63281-1.765624-1.73047v-15.269529c0-9.199219-4.035157-16.332031-17.667969-16.332031zm40.632811 0c-8.499999 0-15.898436 3.800781-15.898436 11.964844 0 13.234376 21.601566 13.203126 21.601566 18.933596 0 2.73437-2.40235 4-5.5 4-7.03516 0-12.234379-6-12.234379-6l-4.800781 6.70312s5.734375 7.26563 17.03516 7.26563c8.86328 0 15.66406-4.83203 15.66406-12.5 0-13.632815-21.76563-12.332034-21.76563-18.734378 0-2.433593 2.46485-3.765624 6.13282-3.765624 2.23437 0 5.10156.964843 5.10156 2.867187v2.066406h9v-4.265625c0-6.667968-8.80078-8.535156-14.33594-8.535156zm29.96875 9.367188c.0664 1.867187 1.23438 5.300781 3.76563 6.234374 2.5664.964844 5.66796-.835937 6.96875-2.203124-1.60157.46875-3.53516 1.800781-6.20313.769531-3.03125-1.167969-3.59766-3.433594-4.53125-4.800781zm-64.699218 13.867192h1.765626v.89843c0 5.03516-3.832032 10.76563-9.332032 10.76563-4.167968 0-6.167968-2.56641-6.167968-5.29688 0-5.63672 8.398437-6.36718 13.734374-6.36718zm64.499998 7.36718.0977.13282c.23437.16406.5.33203.69922.43359l.90234 2.79687-.83594.60157-.73047.53515c-1.90234 1.39844-4.5 3.9336-4.53515 3.9336l-.13281-.0703s1.53515-3.36328 2.10156-5.66406l.36719-1.69922zm-13.80078 7.9336-1.53515 7.36328-.0312.0352-8.46875 5.83203c-.19922 0-.36719.33594-.53125.33594-1.30079.96485-2.9336 1.96485-5.16797 3.29688l-.80078-4.09766v-.13281c2.0664-.96875 9.63281-4.73438 16.53515-12.63281zm0 0" transform="translate(0 26)"/></svg>