<svg height="200" viewBox="0 0 200 200" width="200" xmlns="http://www.w3.org/2000/svg" xmlns:xlink="http://www.w3.org/1999/xlink"><linearGradient id="a" gradientUnits="userSpaceOnUse" x1="-41.41333851" x2="241.41336084333" y1="241.41336084333" y2="-41.41333851"><stop offset="0" stop-color="#bd0816"/><stop offset="1" stop-color="#ff5252"/></linearGradient><path d="m0 0h200v200h-200z" fill="url(#a)"/><path d="m100.292969 160.613281c-10.164063-.003906-20.164063-2.582031-29.066407-7.492187l2.667969-4.667969c21.953125 12.015625 49.25 7.75 66.488281-10.398437 17.238282-18.144532 20.105469-45.625 6.976563-66.933594l-2.667969 13.332031-5.332031-1.039063 3.867187-19.414062c.28125-1.441406 1.675782-2.382812 3.121094-2.105469l19.574219 3.867188-1.042969 5.332031-13.066406-2.667969c11.417969 18.675781 11.871094 42.054688 1.195312 61.160157-10.675781 19.101562-30.828124 30.964843-52.714843 31.027343zm-46.214844-23.253906c-.21875.027344-.441406.027344-.664063 0l-19.335937-4.851563 1.308594-5.175781 12.425781 3.121094c-13.699219-23.476563-10.0625-53.203125 8.890625-72.6875 18.957031-19.480469 48.574219-23.933594 72.417969-10.886719l-2.667969 4.667969c-21.863281-11.832031-48.941406-7.582031-66.128906 10.382813-17.1875 17.964843-20.234375 45.203124-7.445313 66.523437l3.46875-13.785156 5.171875 1.277343-4.851562 19.335938c-.273438 1.210938-1.347657 2.070312-2.589844 2.078125zm67.308594-11.492187c-4.859375-.003907-9.105469-3.292969-10.320313-8h-22c-1.386718 5.363281-6.648437 8.773437-12.109375 7.847656-5.464843-.925782-9.308593-5.878906-8.847656-11.398438.460937-5.523437 5.070313-9.773437 10.609375-9.78125.972656-.003906 1.941406.121094 2.882812.371094l11.144532-19.304688c-3.171875-3.003906-4.191406-7.636718-2.574219-11.695312 1.613281-4.054688 5.539063-6.71875 9.90625-6.71875 4.371094 0 8.296875 2.664062 9.910156 6.71875 1.617188 4.058594.597657 8.691406-2.574219 11.695312l11.144532 19.304688c.921875-.246094 1.875-.371094 2.828125-.371094 5.890625 0 10.667969 4.773438 10.667969 10.664063s-4.777344 10.667969-10.667969 10.667969zm0-16c-2.945313 0-5.332031 2.386718-5.332031 5.332031 0 2.945312 2.386718 5.335937 5.332031 5.335937 2.945312 0 5.332031-2.390625 5.332031-5.335937 0-2.945313-2.386719-5.332031-5.332031-5.332031zm-42.667969 0c-2.945312 0-5.332031 2.386718-5.332031 5.332031 0 2.945312 2.386719 5.335937 5.332031 5.335937s5.335938-2.390625 5.335938-5.335937c0-2.945313-2.390626-5.332031-5.335938-5.332031zm10.347656 2.667968h22c.484375-1.898437 1.480469-3.621094 2.878906-4.988281l-11.199218-19.386719c-1.75.453125-3.582032.453125-5.332032 0l-11.175781 19.414063c1.382813 1.371093 2.359375 3.097656 2.828125 4.984375zm10.988282-40c-2.945313 0-5.335938 2.386719-5.335938 5.332032 0 2.945312 2.390625 5.332031 5.335938 5.332031 2.945312 0 5.332031-2.386719 5.332031-5.332031 0-2.945313-2.386719-5.332032-5.332031-5.332032zm0 0" fill="#fff"/></svg>