<svg height="200" viewBox="0 0 200 200" width="200" xmlns="http://www.w3.org/2000/svg" xmlns:xlink="http://www.w3.org/1999/xlink"><linearGradient id="a" gradientUnits="userSpaceOnUse" x1="98.000001" x2="98.000001" y1="98.000001" y2="195.000861"><stop offset="0" stop-color="#fff"/><stop offset="1" stop-color="#e9e5e5"/></linearGradient><linearGradient id="b" gradientTransform="matrix(7.21875 0 0 84.585938 27.570312 55.761719)" gradientUnits="userSpaceOnUse" x1=".5" x2=".5" y1="0" y2=".87052"><stop offset="0" stop-color="#0339f1"/><stop offset="1" stop-color="#01ade5"/></linearGradient><linearGradient id="c" gradientTransform="matrix(74.296875 0 0 85.804687 41.628906 55.757812)" gradientUnits="userSpaceOnUse" x1=".14011" x2=".73603" y1=".095347" y2=".7534"><stop offset="0" stop-color="#0756ee"/><stop offset=".37448" stop-color="#00a3f5"/><stop offset=".71708" stop-color="#18b5b6"/><stop offset="1" stop-color="#80df43"/></linearGradient><linearGradient id="d" gradientTransform="matrix(59.097656 0 0 85.796875 119.03906 55.765625)" gradientUnits="userSpaceOnUse" x1=".13017" x2=".86649" y1=".030728" y2=".90776"><stop offset="0" stop-color="#20bba6"/><stop offset=".4988" stop-color="#9bec23"/><stop offset="1" stop-color="#d9ef35"/></linearGradient><g fill-rule="evenodd" transform="matrix(.88074853 0 0 .88074853 11.925145 11.925145)"><path d="m45.99875.999141h104.0025c24.85219 0 44.99961 20.147421 44.99961 44.999609v104.0025c0 24.85219-20.14742 44.99961-44.99961 44.99961h-104.0025c-24.852188 0-44.999609-20.14742-44.999609-44.99961v-104.0025c0-24.852188 20.147421-44.999609 44.999609-44.999609zm0 0" fill="url(#a)" stroke="#d9d9d9" transform="scale(1.020408)"/><path d="m33.554688 140.34766h-4.65625v-62.22266h4.65625zm-2.394532-77.476566c-1.964844 0-3.589844-1.558594-3.589844-3.523438 0-2.019531 1.617188-3.585937 3.589844-3.585937 2.019532 0 3.628906 1.558593 3.628906 3.585937 0 1.964844-1.609374 3.523438-3.628906 3.523438zm0 0" fill="url(#b)"/><path d="m78.78125 141.5625c-22.769531 0-37.152344-16.58203-37.152344-42.9375 0-26.222656 14.449219-42.867188 37.152344-42.867188 22.70313 0 37.14453 16.644532 37.14453 42.867188 0 26.35938-14.38672 42.9375-37.14453 42.9375zm0-81.523438c-19.820312 0-32.472656 14.964844-32.472656 38.585938 0 23.64063 12.710937 38.66016 32.472656 38.66016 19.816406 0 32.46875-15.01953 32.46875-38.66016 0-23.628906-12.652344-38.585938-32.46875-38.585938zm0 0" fill="url(#c)"/><path d="m149.08203 141.5625c-17.09375 0-29.34765-9.65234-30.04297-23.45703h4.56641c.69531 11.3164 11.32422 19.23828 25.82422 19.23828 14.15234 0 24.02734-8.03516 24.02734-18.89062 0-8.73438-5.89062-13.75391-19.86719-17.27735l-9.8789-2.42578c-15.41797-3.9375-22.41797-10.175781-22.41797-20.621094 0-13 12.13672-22.363281 27.33203-22.363281 15.71094 0 27.44141 9.246094 27.96484 21.492187h-4.5664c-.63672-9.992187-10.39844-17.273437-23.51563-17.273437-12.54297 0-22.53515 7.511719-22.53515 18.027344 0 8.328125 6.125 13.117187 19.51953 16.460937l9.30468 2.371094c16.11719 3.98438 23.33985 10.17578 23.33985 21.26172 0 13.80078-11.60938 23.45312-29.05469 23.45312zm0 0" fill="url(#d)"/></g></svg>