<svg height="200" viewBox="0 0 200 200" width="200" xmlns="http://www.w3.org/2000/svg"><g transform="matrix(.9207025 0 0 .9207025 7.92975 7.92975)"><path d="m91.601562 86.367188c-2.261718.03906-3.789062.28125-4.582031.511718v14.109374c.941407.21875 2.101563.29297 3.703125.30469 5.980469.0391 9.742184-2.914064 9.742184-7.91797 0-4.496094-3.234371-7.121094-8.863278-7.007812zm0 0"/><path d="m183.33984 16.71875h-60.55078c-.26562 0-.52734.02734-.79297.04297v-16.76172l-118.179684 15.773438v168.046872l118.179684 16.17969v-17.26563c.26563.0156.52735.0391.79297.0391h60.55078c7.08594 0 12.84375-5.76563 12.84375-12.84375v-140.36722c0-7.082031-5.75781-12.84375-12.84375-12.84375zm-149.863278 91.10938c0 12.34765-5.410156 16.3789-13.875 15.94531-1.960937-.0977-4.519531-.60156-6.171874-1.30469l.933593-7.57422c1.164063.47266 2.660157.83985 4.335938.89453 3.617187.13282 5.902343-1.62109 5.902343-8.26172v-26.804684l8.875-.292968zm17.929688 17.50781c-4.851562-.25-9.546875-1.79297-11.867188-3.26953l1.886719-8.14453c2.523438 1.45703 6.441407 2.97265 10.550781 3.11718 4.496094.16407 6.898438-1.71093 6.898438-4.67968 0-2.83204-2.082031-4.48438-7.277344-6.51563-7.027344-2.66406-11.511718-6.75-11.511718-13.128906 0-7.492188 5.910156-13.429688 16-13.777344 4.957031-.167969 8.664062.792969 11.351562 1.941406l-2.285156 8.457032c-1.796875-.859376-4.960938-2.089844-9.257813-2.003907-4.234375.07813-6.257812 2.109375-6.257812 4.425781 0 2.851563 2.410156 4.101563 8.003906 6.304688 7.84375 3.01172 11.621094 7.29688 11.621094 13.82031 0 7.76563-5.839844 14.06641-17.855469 13.45313zm55.85938-20.5625c-3.9961 3.52344-9.808599 5.01172-16.468755 4.875-1.457031-.0312-2.765625-.12891-3.777344-.29688v17.08985l-10.695312-.53516v-46.269531c3.28125-.664063 7.96875-1.242188 14.691406-1.46875 6.964844-.238281 12.027345.90625 15.476565 3.433593 3.33984 2.414063 5.60937 6.507813 5.60937 11.390626 0 4.882812-1.72656 9.011722-4.83593 11.781252zm81.57812 65.15625c0 3.03515-2.46875 5.5039-5.50391 5.5039h-60.55078c-.26953 0-.53125-.0391-.79297-.0781v-44.86719c4.1211.56641 9.85157.90234 17.73828.90234 21.91797 0 31.53907-4.01953 33.11719-5.71484 1.58203-1.71094-.49219-3.05078-.49219-3.05078s.73047.85547-.23437 1.82813c-.97656.96875-9.86719 3.40234-24.11719 4.1289-9.89453.51563-20.375-.33203-26.01562-1.5039v-4.09375c1.90234-.52344 3.73828-.84375 3.73828-.84375-.32422.0391-1.85156.0977-3.73828.26953v-20.01953c3.16406 1.5625 9.71484 2.46875 19.63281 2.12109 17.33203-.62109 19.37109-3.88672 21.18359-5.453126-10.04297 2.734376-36.70703 2.558596-36.89843.546875-.17578-2.007813 8.21875-3.652344 8.21875-3.652344s-8.13672.0039-12.13282 1.613281v-73.425801c.26172-.03906.52344-.08203.79297-.08203h60.55469c3.03516 0 5.50391 2.46875 5.50391 5.503906v140.36719zm0 0"/><path d="m154.41016 61.4375c4.375-7.125-.55079-14.0625-.55079-14.0625s1.09375 5.113281-1.82421 10.410156c-2.92188 5.296875-13.71094 8.40625-17.90625 17.53125-4.19141 9.132813 9.3164 19.546875 9.3164 19.546875s-4.93359-9.503906-4.7539-16.445312c.13671-4.960938 11.32031-9.863281 15.71875-16.980469zm0 0"/><path d="m161.89844 66.003906s-16.80078 6.390625-16.80078 13.695313c0 7.308593 4.5625 9.679687 5.29687 12.054687.73047 2.375-1.27734 6.394532-1.27734 6.394532s6.57422-4.566407 5.47265-9.867188c-1.09765-5.296875-6.21093-6.941406-3.28515-12.234375 1.95312-3.546875 10.59375-10.042969 10.59375-10.042969zm0 0"/><path d="m165.36719 96.320312s7.48828 0 8.21484 4.566408c.72656 4.5625-9.49219 11.32031-9.49219 11.32031s16.09766-3.24219 14.59766-11.49609c-1.82031-10.046878-13.32031-4.390628-13.32031-4.390628zm0 0"/><path d="m129.55859 108.37109c-.71484-1.28125 1.28907-2.00781 1.28907-2.00781-9.14063 2.19922-4.14844 6.02344 6.55859 6.76563 9.17969.62109 19.4375-2.7461 19.4375-2.7461l3.16016-2.55468s-7.23438 1.00781-12.91016 1.64453c-7.60547.85547-16.80078.17968-17.53516-1.10157zm0 0"/><path d="m132.67969 117.14453c-.375-.85547.35937-1.33594.35937-1.33594s-4.14062.11329-4.38281 2.3086c-.24219 2.17969 1.28906 3.28515 11.53516 3.04687 12.19531-.29297 14.23046-1.74218 15.48437-2.80078l2.97266-2.23828c-7.97266 1.03125-8.58985 1.3125-13.10938 1.44141-4.54297.13281-12.5.42187-12.85937-.42188zm0 0"/><path d="m164.32812 132.84766c-9.62109 1.95312-38.82812.72656-38.82812.72656s18.98437 4.5 40.65625.73047c10.35937-1.80469 10.96484-6.82422 10.96484-6.82422s-3.17578 3.41797-12.79297 5.36719zm0 0"/></g></svg>