<svg height="199" viewBox="0 0 200 199" width="200" xmlns="http://www.w3.org/2000/svg"><path d="m104.32003 9.2300991h1.41047l.30831.017719.29415.024807c4.24203.4110909 8.19347 2.2468249 11.01794 5.4575859 4.2952 4.766529 5.31584 11.89683 2.56223 17.683999-1.30415 2.923707-3.49427 4.964986-5.88285 6.999177-2.7536 1.272256-5.41152 2.363773-8.49824 2.409844-4.26684.141755-8.523052-1.445906-11.638129-4.362525-3.377325-3.132797-5.322918-7.676061-5.163444-12.286658.02126-3.338342 1.254537-6.279769 2.884724-9.12551 1.488434-1.623101 2.944971-3.168235 4.840951-4.323543 2.385036-1.506152 5.074848-2.2255611 7.863888-2.4948959zm0 0" fill="#333a6b"/><path d="m91.615191 16.048539c-1.630187 2.845741-2.863461 5.787168-2.884724 9.12551-.159474 4.610597 1.786119 9.153861 5.163444 12.286658 3.115077 2.916619 7.371289 4.50428 11.638129 4.362525 3.08672-.04607 5.74464-1.137588 8.49824-2.409844-1.40338 1.559311-2.82093 3.072551-4.34481 4.514913-23.042352 22.93604-46.066989 45.879167-69.14124 68.779769-2.519704 2.44528-4.507825 4.97562-7.761114 6.51366-5.762361 2.8422-13.016698 1.96686-17.871824-2.261-3.100901-2.61539-4.85867-6.24078-5.6241495-10.17095v-4.42987c.6272681-2.654365 1.5238715-5.269753 3.2143065-7.452788 1.506152-1.945594 3.430483-3.611222 5.156355-5.372533 20.660865-20.561636 41.314641-41.126814 61.97196-61.684905 4.011681-3.915996 7.888694-7.973747 11.985427-11.801145zm0 0" fill="#68c7bd"/><path d="m164.36411 20.421696c5.76236.350844 11.08883 4.001049 13.54119 9.207019 2.09798 4.394421 2.10862 9.742147-.0602 14.11176-1.20138 2.572862-3.12217 4.479473-5.22723 6.322295-3.16824 1.846366-6.60227 3.012305-10.3198 2.760688-6.22661-.202001-11.93228-4.263297-14.26415-10.007938-1.6231-3.891188-1.61955-8.608102.0567-12.485116.39691-.94976.8151-1.892435 1.27226-2.813846 1.31124-1.452993 2.52325-2.856373 4.118-4.015224 3.13279-2.292895 7.01335-3.377325 10.88327-3.079638zm0 0" fill="#333a6b"/><path d="m149.36284 27.516558c-.45716.921411-.87535 1.864086-1.27226 2.813846-1.67625 3.877014-1.6798 8.593928-.0567 12.485116 2.33187 5.744641 8.03754 9.805937 14.26415 10.007938 3.71753.251617 7.15156-.914322 10.3198-2.760688-1.49198 1.566398-2.99105 3.118621-4.5539 4.617685-38.94024 38.741778-77.841486 77.515445-116.813616 116.225335-2.062542 2.01292-3.799048 4.12154-6.361279 5.53201-4.486561 2.52678-10.061096 2.78194-14.76029.67688-4.0294-1.75422-7.218899-5.19534-8.671893-9.33106-2.13342-5.85805-.613093-12.64104 3.848662-17.00711 25.884554-25.74634 51.751388-51.517494 77.628856-77.270925 14.13657-14.058601 28.29794-28.092396 42.41679-42.168716 1.28288-1.336046 2.64373-2.576406 4.01168-3.820311zm0 0" fill="#68c7bd"/><path d="m179.32641 78.77889c4.27746 1.321871 7.91704 4.479474 9.82719 8.515962 2.37086 4.95081 2.02357 11.042753-.93558 15.667528-1.36085 2.17949-3.18596 3.71045-5.1032 5.37253-1.39629.57411-2.82093 1.11633-4.26684 1.55577-4.4653 1.32187-9.50825.55639-13.39589-1.99167-4.77362-3.1009-7.64772-8.579748-7.38192-14.274775.0709-3.054831 1.19074-5.719835 2.51616-8.420276 2.04483-2.381493 4.17116-4.525545 7.11967-5.765906 3.60413-1.644363 7.84971-1.825102 11.62041-.659163zm0 0" fill="#333a6b"/><path d="m160.58633 85.203959c-1.32542 2.700441-2.44528 5.365445-2.51616 8.420276-.2658 5.695027 2.6083 11.173875 7.38192 14.274775 3.88764 2.54806 8.93059 3.31354 13.39589 1.99167 1.44591-.43944 2.87055-.98166 4.26684-1.55577-1.11986 1.2758-2.23974 2.54451-3.4801 3.70691-24.48825 24.31816-48.91982 48.69301-73.39745 73.0218-2.66855 2.665-6.0884 4.04003-9.756321 4.70628h-3.405675c-3.983331-.70169-7.672517-2.30352-10.404854-5.36899-4.624774-4.95436-5.503658-12.74028-2.250369-18.65857 1.350221-2.53387 3.302903-4.25975 5.301656-6.25141 23.492433-23.37903 47.006123-46.74742 70.502103-70.126448 1.40337-1.44945 2.86346-2.813847 4.36252-4.160523zm0 0" fill="#68c7bd"/></svg>