<svg height="200" viewBox="0 0 200 200" width="200" xmlns="http://www.w3.org/2000/svg" xmlns:xlink="http://www.w3.org/1999/xlink"><linearGradient id="a" gradientTransform="matrix(1.885618 -1.885618 1.885618 1.885618 487.65332 1307.946696)" gradientUnits="userSpaceOnUse" x1="142.520004" x2="292.519989" y1="-423.100006" y2="-423.100006"><stop offset="0" stop-color="#4d27a8"/><stop offset="1" stop-color="#a166ff"/></linearGradient><path d="m0 0h200v200h-200z" fill="url(#a)"/><g fill="#fff"><path d="m162.988281 145.121094-12.214843-12.292969c13.082031-19.632813 14.304687-44.867187 3.183593-65.671875-11.125-20.804688-32.792969-33.800781-56.382812-33.824219-24.558594.132813-46.894531 14.234375-57.574219 36.347657l4.800781 2.292968c11.851563-24.667968 39.183594-37.863281 65.871094-31.804687 26.6875 6.0625 45.640625 29.769531 45.675781 57.140625.03125 11.226562-3.203125 22.226562-9.308594 31.652344l-10.105468-10.132813c7.164062-14.5625 5.722656-31.890625-3.746094-45.070313-9.46875-13.179687-25.429688-20.070312-41.515625-17.929687-16.089844 2.144531-29.6875 12.972656-35.378906 28.171875h-17.625v5.332031h16.132812c-.589843 2.628907-.917969 5.308594-.988281 8h-20.480469v5.335938h20.667969c.214844 2.707031.703125 5.390625 1.464844 8h-16.503906v5.332031h18.425781c4.898437 11.4375 14.417969 20.257812 26.195312 24.269531 11.777344 4.011719 24.703125 2.839844 35.566407-3.230469l9.785156 9.789063c-26.933594 17.046875-62.550782 9.46875-80.214844-17.066406l-4.425781 2.957031c19.523437 29.335938 59.085937 37.371094 88.507812 17.972656l12.292969 12.296875c4.933594 4.941407 12.9375 4.945313 17.878906.011719s4.949219-12.9375.015625-17.878906zm-65.226562-7.839844c-21.34375 0-38.648438-17.304688-38.640625-38.648438.003906-21.34375 17.3125-38.644531 38.65625-38.632812s38.636718 17.324219 38.621094 38.667969c-.042969 21.316406-17.320313 38.582031-38.636719 38.613281zm61.332031 21.890625c-2.871094 2.773437-7.421875 2.773437-10.292969 0l-25.121093-25.117187c3.984374-2.949219 7.441406-6.558594 10.214843-10.667969l25.226563 25.359375c1.371094 1.363281 2.140625 3.214844 2.140625 5.148437 0 1.929688-.769531 3.785157-2.140625 5.144531zm0 0"/><path d="m122.347656 102.535156c-1.132812-2.390625-2.859375-4.445312-5.015625-5.976562l1.761719-12.984375v-.722657c0-.132812 0-.265624 0-.371093 0-6.320313-13.921875-8.667969-22.695312-8.667969-8.773438 0-22.664063 2.347656-22.664063 8.667969-.011719.125-.011719.25 0 .371093v.375c-.015625.113282-.015625.230469 0 .347657l4.453125 33.199219c.347656 6.613281 16.292969 6.800781 18.132812 6.800781 3.460938.019531 6.910157-.339844 10.292969-1.066407 1.125-.265624 2.226563-.601562 3.308594-1.015624 2.90625-1.144532 4.425781-2.664063 4.53125-4.71875l1.386719-10.375c.875.191406 1.769531.289062 2.667968.292968 1.367188.199219 2.71875-.457031 3.414063-1.652344.488281-.738281.640625-1.648437.425781-2.503906zm-10.828125-3.070312c-3.414062-1.304688-7.546875-3.089844-11.464843-4.984375-.625-1.839844-2.535157-2.914063-4.433594-2.496094-1.898438.417969-3.175782 2.195313-2.96875 4.128906.203125 1.929688 1.832031 3.398438 3.773437 3.40625.4375.003907.875-.078125 1.28125-.238281 4.257813 2.121094 8.628907 4.011719 13.09375 5.652344l-1.46875 10.988281c-.382812.246094-.792969.453125-1.226562.613281-.867188.320313-1.757813.578125-2.664063.773438-2.980468.644531-6.019531.957031-9.066406.929687-4.410156.257813-8.816406-.535156-12.855469-2.316406l-3.734375-27.761719c10.871094 2.949219 22.332032 2.949219 33.203125 0zm-15.09375-14.425782c-5.722656.285157-11.445312-.625-16.800781-2.664062 5.265625-2.402344 11.023438-3.523438 16.800781-3.28125 5.78125-.242188 11.535157.878906 16.800781 3.28125-5.355468 2.042969-11.074218 2.953125-16.800781 2.664062zm0 0"/></g></svg>