<svg height="218" viewBox="0 0 200 218" width="200" xmlns="http://www.w3.org/2000/svg"><g fill-rule="evenodd"><path d="m56.085938 101.441406c-.410157.019532-.609376-.171875-.710938-.339844 0 0-2.507812-.519531-3.246094-.296874-.734375.222656-4.945312-.515626-6.789062-1.851563-1.847656-1.332031-3.691406-.367187-5.390625-1.40625-1.695313-1.039063-4.28125-.890625-6.195313-.964844-1.917968-.070312-4.355468.074219-5.242187 1.261719-.886719 1.179688-4.351563 4.8125-5.609375 6.292969-1.253906 1.480469-6.34375 6.808593-8.339844 7.621093 0 0 .515625.816407.222656 1.410157-.296875.59375-.074218 2.292969-.074218 2.886719s.148437 1.554687-.367188 2.148437c-.519531.59375-.8125 1.554687-.8125 1.925781 0 .367188-.59375 1.703125 0 3.480469.589844 1.777344 1.105469 3.773437-1.328125 2.960937-2.4375-.8125-1.921875-3.035156-3.910156-3.113281-1.992188-.070312-4.574219 0-5.316407-2.734375-.738281-2.742187-2.140624-7.40625-2.433593-8.148437-.296875-.734375-1.328125-4.144531.589843-7.105469 1.917969-2.960938 2.289063-5.109375 2.585938-5.777344.292969-.664062 1.695312-4.886718 2.726562-5.480468s.664063-2.445313 1.253907-3.257813c.589843-.8125.367187-2.148437.738281-2.886719.367188-.742187.515625-2.886718 1.03125-4.515625.519531-1.628906 2.214844-4.148437 3.25-5.480469 1.03125-1.332031 1.625-3.328124 1.625-3.996093s-.371094-2.070313 1.324219-3.257813c1.695312-1.183594 4.722656-5.035156 5.019531-5.625 0-.148437 0-2.886718-.148438-3.851562-.148437-.960938-.371093-1.851563.589844-2.21875.960938-.375 2.289063-1.1875 2.289063-1.1875s-.921875-1.183594-2.914063-2.183594c-1.996094-1-7.972656-7.773438-8.527344-11.773438-.554687-3.996093-.773437-10.328124 4.652344-12.550781 5.425782-2.222656 11.398438-3.441406 12.289063-3.554687.886719-.109375 3.984375-.777344 5.203125.113281 0 0-1.328125-.222656-1.882813 0-.554687.222656 2.65625.109375 3.429688 1 0 0-1.546875-.445313-2.433594-.332031-.882813.109375 1.550781 1.109375 1.996094 1.886718.4375.777344 2.101562 1.332032 1.878906 2.554688-.21875 1.222656-.328125 3.109375-.109375 3.664062.222656.558594.773438 1.558594.886719 3.109376.113281 1.558593.554687 3.667968.996093 4.664062.441407 1.003906 1.550782 4.109375 1.105469 6.332031 0 0 .445313 1.109375 2.65625-1.441406 2.214844-2.558594 4.429688-3 5.535157-3 1.109374 0 2.769531-1.113281 3.875-.667969 1.109374.445313 2.332031-.109375 3.65625.222656 1.328124.332032 6.863281 0 8.082031-.445312 1.214843-.445312 5.425781-1 6.308593-1 .886719 0-1.105468-1.445312.554688-2.554688 1.660156-1.109374-1.773438-1.664062.777344-4.882812 2.542968-3.222656.105468-4.109375-.335938-4.777344-.441406-.667968-.550781-2.777344-.550781-4s-.332031-4.332031-.332031-4.332031l.441406-.554687s-.355469-.589844-.707031-.796876c-.347657-.210937-.695313-1.472656-.972657-2.3125-.285156-.835937-3.351562-5.386718-4.257812-6.085937-.90625-.703125-1.046875-1.75-.90625-2.730469.140625-.984375.835938-1.820312.695312-2.871094-.140624-1.046874-.070312-2.449218-.140624-2.9375-.066407-.492187.140624-3.429687.769531-3.707031 0 0 .488281-.210937.699219.484375 0 0-.351563-2.4453122.414062-2.4453122 0 0 .910156-.2812498 1.257812.9804682.347657 1.257813.699219 1.957032.769532 2.308594.070312.351563.347656.90625.347656.90625s.765625-.34375 1.394531-.066406c.628907.277344 1.046875.558594 1.046875.910156 0 .347656 0-.28125.769532-.28125.765624 0 1.464843-.210937 1.675781.558594.207031.769531.347656 1.332031.414062 2.101562.074219.769532.210938 1.398438.492188 1.957032.28125.5625.695312 1.539062.695312 2.871094 0 1.332031.488281 3.777343.699219 4.898437.207031 1.121094 2.582031 5.460937 2.582031 5.460937s3.625.699219 5.296875.347657c1.675782-.347657 4.605469.28125 4.257813 1.820312-.347657 1.539063-.554688 6.089844-.695313 9.660157-.140625 3.566406-.699218 10.496093-1.257812 12.945312s-3.976563 8.816406-5.371094 9.867188c-1.390625 1.050781-2.929688 1.75-6.765625 3.570312s-8.300781 3.847656-8.300781 3.847656 2.371094 3.359375 2.929687 3.570313c.554688.207031.488281-.488281 1.183594-.210938.34375.136719 1.550781.613281.785156.296875-.003906.027344 4.203125 1.109375 4.203125 1.109375.402344-.007812.652344-.082031.601563-.320312-.210938-.976563.765625-2.238281 1.183593-2.519531.417969-.277344-.628906 1.261718 0 1.957031.628907.703125 9.648438-1.976563 9.476563-1.496094-.164063.480469.492187.515625 1.066406.066406.570313-.449219 2.957031-2.011719 4.660157-2.003906 1.707031.007813 5.570312.351563 6.605468-.027344 1.035156-.378906 5.742188-3.292969 7.316406-4.0625 1.570313-.777343 6.988282-.703125 9.277344-2.246093 2.289063-1.550782 7.328125-5.171876 9.457032-6.488282 2.125-1.316406 17.902343-10.996094 21.269531-11.523437 3.363281-.527344 11.433593-3.71875 12.8125-4.707031 1.382812-.988282 5.734375-3.390626 6.605469-4.140626.871093-.753906 5.234374 1.160157 7.507812 4.402344 0 0 4.433594-2.175781 5.390625-2.261718.953125-.082032 2.722656-1.320313 4.078125-2.359376 1.355469-1.042968 5.445312-3.808593 7.234375-4.679687 0 0 .902344-.398437 1.078125-1.035156.171875-.636719.894531-1.851563 1.542969-1.601563 0 0 1.425781-1.824218 2-1.277344 0 0 1.253906-1.183593 1.96875-.539062 0 0 .710937.101562.949219.484375 0 0 .898437-.730469 1.316406-.175781 0 0 .648437-.738282 1.742187.125 0 0 .730469.902344-.609375 2.558594 0 0-.839844.433593-1.429687 1.652343-.582031 1.214844-2.21875 3.523438-4.007813 4.429688-1.796875.902343-3.867187 2.492187-3.789062 5.742187.078125 3.253906-1.300782 7.035156-4.703125 6.183594-3.402344-.851562-6.386719.296875-9.367188 1.925781 0 0-.261719 1.714844-.546875 2.125-.292968.40625-1.621094.277344-3.453125 1.425781-1.832031 1.152344-2.949219 1.582032-4.390625 2.664063-1.449218 1.085937-1.757812 1.816406-2.972656 2.382813-1.214844.570312-2.578125 2.113281-3.386719 2.972656-.808593.851562-3.785156 2.957031-7.304687 4.671875-3.519532 1.71875-17.996094 6.902343-21.339844 9.625-3.351562 2.722656-9.507812 7.601562-18.855469 12.191406-.386719.1875-.75.375-1.113281.558594-.566406.515625-8.605469 7.890625-11.355469 9.820312-2.851562 2-3.992187 2.285157-4.847656 6.859375-.5625 3.011719-2.855469 7.878906-4.4375 11.753906-.351563 3.773438-.550781 7.4375-.636719 9.667969-.109375 2.886719-3.792968 31.59375-4.679687 34.695313-.886719 3.109375-1.105469 5.441406-.664063 7.882812.441406 2.4375-.664062 5.324219-1.992187 7.765625-1.332031 2.441407-3.546875 8.214844-3.214844 11.542969s.664063 4.550781-.332031 4.992188c-.996094.445312-4.207032.335937-4.648438 1.445312-.445312 1.109375-2.105468 1.109375-2.105468 1.109375s-.5 4.953125.371093 5.824219c.871094.867187 3.941407 4.515625.207031 7.234375-3.742187 2.71875-7.683593 5.132812-8.605468 7.03125-.921875 1.898437-2.972656 2.980469-3.738282 3.59375-.769531.613281-2.152343 1.488281-2.253906 1.84375-.101562.363281-1.226562 1.027343-2.304687.722656 0 0-.921875.40625-1.894531-.671875 0 0-1.585938.15625-1.894532-.871094 0 0-1.332031.101563-1.484375-.921875 0 0-.667969-1.488281 1.332031-2.105469 1.992188-.617187 5.171876-5.082031 5.273438-5.800781s1.589844-5.183593 2.714844-7.03125c1.125-1.847656 2.609375-6.671875 2.816406-11.085937 0 0-.457031-.304688-.457031-.765625 0-.464844.023437-2.582031.246093-3.394531.222657-.820313.664063-3.183594.371094-6.664063-.296875-3.472656.445313-9.171875 0-13.09375-.441406-3.917969.398438-31.140625 1.578125-34.695313 1.183594-3.550781 1.625-4.363281 1.554688-5.769531-.078125-1.40625 0-5.699219.441406-5.917969.441406-.222656.515625-5.625.367187-6.21875-.148437-.589843-3.324218-2.808593-3.761718-4.363281 0 0 .070312 1.625 0 2.21875-.078125.59375-.148438-.148437-1.332032-1.40625-1.183593-1.257812-3.398437-3.921875-3.542968-5.847656-.265625-.140625-3.535156-2.074219-3.535156-2.074219zm0 0"/><path d="m70.464844 68.296875c-.332032 6.007813-14.390625 33.378906-14.390625 33.378906-.488281 2.421875-.386719 4.683594-.140625 6.027344.597656 3.222656-2.382813 8.058594-2.382813 8.058594l3.246094 1.707031c4.378906-2.539062 2.5-10.152344 2.5-10.152344-.363281-1.363281-.394531-2.675781-.210937-3.90625l.035156.035156s15.941406-31.589843 15.167968-34.078124c0 .003906-1.902343-.269532-3.824218-1.070313zm0 0" fill="#991b21"/></g></svg>