<svg height="200" viewBox="0 0 200 200" width="200" xmlns="http://www.w3.org/2000/svg" xmlns:xlink="http://www.w3.org/1999/xlink"><linearGradient id="a" gradientUnits="userSpaceOnUse" x1="50.8070123517" x2="50.8070123517" y1="136.11017190157" y2="-52.50270892403"><stop offset="0" stop-color="#145643"/><stop offset="1" stop-color="#14c441"/></linearGradient><path d="m104.460938 163.496094 21.8125 22.695312c.714843.757813 1.851562 1.175782 3.03125 1.175782h53.472656c3.117187 0 4.925781-2.820313 3.117187-4.839844l-49.601562-61.265625c-1.050781-1.175781-3.113281-1.175781-4.125.085937l-27.917969 38.566406c-.882812 1.097657-.796875 2.570313.210938 3.582032zm0 0" fill="#b3b3b3"/><path d="m58.609375 25.347656c-4.253906-4.84375-9.980469-7.621094-16.042969-7.621094-10.355468 0-19.492187 8.125-22.355468 19.957032-4.085938 17.054687-6.527344 34.527344-7.328126 52.085937l5.851563 8c10.484375 14.398438 28.589844 15.074219 39.875 2.695313 1.683594-1.390625 3.242187-2.949219 4.632813-4.632813l25.429687-30.78125s-28.503906-38.355469-30.0625-39.703125zm0 0" fill="url(#a)"/><path d="m182.695312 17.726562h-43.75c-7.660156 0-14.820312 3.535157-18.902343 9.390626l-31.328125 37.933593-25.429688 30.78125c-1.433594 1.726563-2.992187 3.242188-4.632812 4.632813-11.242188 12.378906-29.390625 11.703125-39.875-2.695313l-5.851563-8c-.84375 18.398438.125 36.882813 2.90625 55.074219v.125c.210938 1.390625.417969 2.777344.671875 4.167969.042969.210937.085938.464843.125.671875.210938 1.222656.421875 2.445312.632813 3.621094.042969.296874.125.589843.167969.886718.210937 1.179688.464843 2.355469.675781 3.535156.039062.296876.125.546876.167969.84375.25 1.304688.546874 2.609376.839843 3.914063.042969.128906.042969.210937.085938.339844 2.945312 13.304687 12.503906 22.945312 23.832031 24.207031.082031 0 .167969.042969.253906.042969.757813.085937 1.515625.128906 2.273438.128906h.039062c19.285156 0 30.273438-10.863281 35.789063-18.402344l105.558593-144.125c2.191407-3.03125-.210937-7.074219-4.25-7.074219zm0 0" fill="#14c441"/></svg>