<svg height="200" viewBox="0 0 200 200" width="200" xmlns="http://www.w3.org/2000/svg"><g fill-rule="evenodd"><g fill="#de752c"><path d="m80.5 58.089844 18.402344 31.875c2.921875-.78125 6.113281-.554688 9.011718.804687l9.675782-16.757812-16.171875-28.003907-21.109375 12.191407h.003906z"/><path d="m52.757812 99.324219h36.8125c.292969-1.097657.714844-2.175781 1.3125-3.203125 1-1.734375 2.339844-3.140625 3.878907-4.214844l-9.671875-16.753906h-32.34375v24.378906h.011718z"/><path d="m113.773438 109.339844c-1.003907 1.734375-2.339844 3.136718-3.875 4.210937l9.679687 16.765625h32.332031v-24.167968h-36.828125c-.296875 1.097656-.722656 2.167968-1.308593 3.191406"/><path d="m111.660156 93.394531c2.230469 2.222657 3.558594 5.140625 3.828125 8.203125h19.339844l16.171875-28.003906-20.925781-12.085938z"/><path d="m74.582031 143.964844 18.414063-31.898438c-2.222656-2.226562-3.550782-5.136718-3.824219-8.1875h-19.351563l-16.171874 27.992188 21.101562 12.195312z"/><path d="m124.160156 147.371094-18.398437-31.875c-2.921875.789062-6.113281.570312-9.019531-.796875l-9.675782 16.761719 16.160156 27.996093 21.113282-12.1875z"/></g><path d="m102.335938 20.3125c-45.449219 0-82.429688 36.96875-82.429688 82.414062 0 45.453126 36.980469 82.4375 82.429688 82.4375 45.445312 0 82.414062-36.984374 82.414062-82.4375 0-45.445312-36.96875-82.414062-82.414062-82.414062zm0 16.6875c36.300781 0 65.726562 29.421875 65.726562 65.726562 0 36.308594-29.425781 65.75-65.726562 65.75-36.304688 0-65.738282-29.441406-65.738282-65.75 0-36.304687 29.433594-65.726562 65.738282-65.726562zm0 0" fill="#517a9e"/></g></svg>