<svg height="200" viewBox="0 0 200 200" width="200" xmlns="http://www.w3.org/2000/svg"><g fill="#231f20"><path d="m28.289062 59.09375c2.585938-1.199219 5.585938-1.71875 8.417969-1.28125 2.546875.382812 4.957031 1.609375 6.730469 3.484375 2.261719 2.320313 3.445312 5.632813 3.535156 8.839844.074219 2.230469-.484375 4.214843-.285156 6.425781.148438 1.703125.660156 3.472656 1.910156 4.703125 1.171875 1.175781 2.792969 1.683594 4.425782 1.613281 2.28125-.085937 4.28125-1.097656 6.261718-2.132812 3.140625-1.570313 6.15625-3.449219 9.191406-5.25 1.988282-1.265625 4.054688-2.507813 6.238282-3.453125 1.175781-.488281 2.417968-.695313 3.609375-.109375 1.210937.617187 2.132812 1.945312 2.855469 3.058594 1.359374 2.207031 2.601562 4.484374 3.957031 6.695312 1.429687 2.308594 2.59375 5.039062 4.191406 7.253906 1.628906 2.171875 3.925781 3.914063 6.476563 4.859375 1.460937.507813 2.984374.730469 4.367187-.132812 2.019531-1.1875 2.945313-3.726563 3.878906-5.753907 1.128907-2.457031 2.722657-4.871093 4.898438-6.523437 1.8125-1.402344 4.035156-2.234375 6.328125-2.324219 2.789062-.15625 5.566406.6875 7.855468 2.273438 2.699219 1.828125 4.652344 4.484375 5.875 7.488281 1.0625 2.691406 1.4375 5.617187.792969 8.460937-.707031 3.148438-2.734375 6.035157-5.574219 7.609376-2.578124 1.617187-5.585937 2.058593-8.578124 1.796874-2.144532-.167968-4.570313-.59375-6.652344.113282-2.863282.972656-4.554688 4.429687-4.042969 7.332031.359375 2.148437 1.589844 4.273437 2.679687 6.132813 2.289063 3.898437 4.546876 7.8125 6.832032 11.714843.691406 1.203125 1.445312 2.570313 1.675781 3.957031.171875 1.046876-.085937 2.046876-.738281 2.882813-.976563 1.257813-2.515625 2.175781-3.867188 2.972656-3.648437 2.128907-7.304687 4.246094-10.941406 6.390625-1.886719 1.113282-3.859375 2.390625-5.332031 4.03125-1.269531 1.429688-2.117188 3.222656-1.917969 5.175782.167969 1.734374 1.152344 3.167968 2.492188 4.230468 2.015624 1.625 4.378906 2.117188 6.570312 3.4375 3.011719 1.816406 5.339844 4.707032 6.09375 8.183594.714844 3.199219 0 6.550781-1.769531 9.292969-2.121094 3.324219-5.589844 5.789062-9.398438 6.792969-2.964843.816406-6.296875.753906-9.136719-.507813-2.355468-1.03125-4.28125-2.867187-5.433593-5.167969-1.410157-2.691406-1.539063-5.65625-1.464844-8.632812.03125-1.890625.296875-4.042969-.171875-5.882813-.703125-2.824219-3.710938-4.726562-6.554688-4.511719-1.941406.117188-3.539062.964844-5.230468 1.855469-4.332032 2.410157-8.601563 4.960938-12.890625 7.449219-1.308594.761719-2.644531 1.554688-4.144531 1.859375-.964844.195313-1.960938.136719-2.835938-.34375-1.277344-.683594-2.203125-2.027344-2.941406-3.234375-2.460938-4.136719-4.898438-8.285156-7.273438-12.464844-.90625-1.601562-1.855468-3.0625-2.371094-4.84375-.382812-1.289062-.472656-2.636718-.089843-3.933594.625-2.070312 2.238281-3.847656 4.371093-4.40625 2.058594-.5625 3.933594-.199218 6-.035156 2.914063.222656 5.960938-.21875 8.570313-1.589844 2.03125-1.117187 3.722656-2.875 4.738281-4.960937 1.304688-2.636719 1.597656-5.636719 1.03125-8.503906-.484375-2.574219-1.660156-4.871094-3.195312-6.972657-2.058594-2.683593-4.976563-4.707031-8.328125-5.367187-2.652344-.542969-5.472657-.164063-7.867188 1.117187-2.277343 1.1875-4.164062 3.097657-5.382812 5.355469-1.046875 1.917969-1.578125 3.949219-2.882813 5.738281-.90625 1.292969-2.234375 2.296876-3.746094 2.769532-1.765624.5-3.597656.0625-5.101562-.9375-2-1.320313-3.339844-3.507813-4.515625-5.546875-2.496094-4.402344-5.191406-8.722657-7.621094-13.160157-.75-1.46875-1.339843-3.132812-.726562-4.757812.605469-1.636719 2.128906-2.558594 3.546875-3.421875 4.378906-2.734375 8.917968-5.199219 13.324218-7.886719 1.394532-.867187 2.753907-1.875 3.878907-3.078125 1.171875-1.273437 1.929687-2.9375 1.863281-4.6875-.050781-1.875-1.058594-3.578125-2.527344-4.710937-1.902344-1.476563-4.476562-2.128906-6.566406-3.414063-3.210938-1.90625-5.605469-5.1875-6.214844-8.894531-.414062-2.445312-.003906-4.976562 1.082032-7.195312 1.597656-3.289063 4.453124-5.839844 7.765624-7.335938zm0 0"/><path d="m99.117188 17.796875c2.789062-1.242187 5.992187-1.703125 8.988281-1.027344 2.617187.582031 5.003906 2.082031 6.671875 4.179688 1.839844 2.261719 2.796875 5.226562 2.804687 8.128906.015625 2.34375-.617187 4.566406-.300781 6.910156.246094 1.78125.984375 3.5 2.441406 4.621094 1.363282 1.039063 3.09375 1.289063 4.75.980469 1.421875-.28125 2.816406-.992188 4.125-1.605469 4.832032-2.292969 9.503906-5.320313 14.136719-7.871094 1.488281-.753906 3.261719-1.773437 4.988281-1.636719 1.539063.117188 2.628906 1.175782 3.503906 2.355469.882813 1.28125 1.695313 2.617188 2.507813 3.941407 1.996094 3.464843 4.101563 6.875 5.972656 10.402343.984375 1.738281 1.980469 3.269531 2.3125 5.285157.269531 1.566406-.019531 3.144531-.851562 4.5-.921875 1.601562-2.644531 2.722656-4.457031 3.015624-2.3125.359376-4.328126-.234374-6.613282-.222656-3.191406-.011718-6.347656.832032-8.871094 2.851563-2.078124 1.640625-3.449218 4-4.027343 6.570312-.800781 3.460938-.09375 7.179688 1.597656 10.273438 1.386719 2.597656 3.511719 4.863281 6.074219 6.332031 2.425781 1.402344 5.273437 2.003906 8.046875 1.511719 2.136719-.332031 3.992187-1.320313 5.710937-2.597657 1.867188-1.496093 3.300782-3.476562 4.183594-5.695312.742188-1.828125 1.421875-3.542969 2.847656-4.964844 1.335938-1.390625 3.160156-2.25 5.105469-2.070312 1.878906.171875 3.449219 1.292968 4.597656 2.734375 1.4375 1.832031 2.589844 3.890625 3.902344 5.835937 1.691406 2.785156 3.355469 5.59375 4.84375 8.496094.757813 1.433594 1.644531 2.8125 2.328125 4.285156.484375 1.054688.617188 2.226563.175781 3.316406-.589843 1.472657-1.773437 2.386719-3.101562 3.167969-4.109375 2.378907-8.222657 4.757813-12.300781 7.199219-1.878907 1.128906-3.875 2.371094-5.375 3.988281-1.269532 1.382813-2.09375 3.113281-1.921876 5.023438.175782 1.910156 1.296876 3.539062 2.816407 4.660156 1.367187.992187 2.949219 1.46875 4.460937 2.183594 2.289063 1.0625 4.386719 2.695312 5.867188 4.753906 1.664062 2.25 2.519531 5.101563 2.292968 7.894531-.167968 2.414063-1.136718 4.703125-2.554687 6.640625-2.351563 3.144531-5.859375 5.375-9.695313 6.207031-2.898437.636719-6.035156.40625-8.703124-.953124-2.347657-1.167969-4.25-3.144532-5.371094-5.515626-1.070313-2.199218-1.492188-4.730468-1.378906-7.164062.082031-1.738281.519531-3.226562.394531-4.941406-.128907-1.800782-.832031-3.667969-2.1875-4.898438-1.039063-.960937-2.433594-1.453125-3.84375-1.425781-1.941407.027344-3.8125 1.042969-5.539063 1.839844-4.246094 2.125-8.304687 4.535156-12.429687 6.875-1.3125.75-2.636719 1.648437-4.054688 2.179687-1.175781.433594-2.429687.578125-3.613281.082032-1.207031-.503907-1.949219-1.476563-2.628906-2.558594-2.066406-3.4375-4.003906-6.957032-6.097656-10.378906-1.140626-1.953126-2.519532-3.972657-3.222657-6.132813-.359375-1.175781-.632812-2.582031-.324219-3.800781.253907-1.132813 1.445313-1.679688 2.441407-2.027344 1.972656-.628906 3.699219-.179688 5.691406-.144531 2.65625.058593 5.390625-.242188 7.828125-1.347657 3.105469-1.351562 5.667969-3.976562 7.234375-6.953124 1.757813-3.394532 1.914063-7.308594.875-10.949219-1.085937-3.902344-3.25-7.890625-6.511719-10.386719-2.941406-2.300781-6.632812-3.339844-10.335937-3.320312-2.488281.027343-4.945313.6875-7.054688 2.019531-2.382812 1.542969-4.308593 3.851562-5.675781 6.320312-.867188 1.542969-1.335938 3.292969-2.277344 4.765625-.683594 1.078125-1.746094 2-3.023437 2.25-1.21875.214844-2.398438-.292968-3.234375-1.171875-.890625-.976562-1.5-2.214843-2.253906-3.300781-2.625-4.210938-5.09375-8.523438-7.527344-12.84375-.574219-1.070312-1.199219-2.132812-1.648438-3.261719-.527344-1.367187-.160156-2.882812.785156-3.972656 1.164063-1.375 3.128907-2.191406 4.628907-3.179687 1.734375-1.152344 3.625-2.007813 5.367187-3.148438 2.609375-1.667969 5.464844-3.046875 7.9375-4.902344 1.640625-1.265625 3.09375-2.679687 3.726563-4.703125.496093-1.550781.304687-3.203125-.527344-4.605469-1.539063-2.574218-4.117187-3.410156-6.675781-4.597656-3.238282-1.4375-5.929688-3.945312-7.203125-7.296875-1.117188-2.84375-1.042969-6.050781.140625-8.863281 1.53125-3.664062 4.695312-6.574219 8.308594-8.140625zm0 0"/></g></svg>