<svg height="16" viewBox="0 0 175 16" width="175" xmlns="http://www.w3.org/2000/svg"><g fill="#483366"><path d="m158.596028 15.9809092h2.594322l1.280642-2.5160479 1.081684 2.5160479h2.310511l-2.07211-5.0704265 2.833452-5.62715545 2.833305 5.62715545-2.072547 5.0704265h2.310948l1.081684-2.5160479 1.281079 2.5160479h2.593885l-8.028354-15.83734833z"/><path d="m151.91902 15.9809092h2.660691v-15.83734833h-2.660691z"/><path d="m139.240184 8.0622494-8.028792-7.91867417v15.83734837h2.66069v-9.47013655l5.368102 5.29337655 5.344377-5.29337655v9.47013655h2.70741v-15.83734837z"/><path d="m123.90067.14360394v6.59475581h-8.028791v-6.59475581h-2.660691v15.83734836h2.660691v-6.5951865h8.028791v6.5951865h2.683687v-15.83734836z"/><path d="m95.7986915.14360394v2.64668825h5.3676645v13.19066011h2.683686v-13.19066011h5.344815v-2.64668825z"/><path d="m89.1220038 15.9809092h2.6603996v-15.83734833h-2.6603996z"/><path d="m73.7825057 8.0392653v-5.24901618h5.3673733c.7252461 0 1.3497755.25927093 1.8746075.77537227.524104.51839831.7863743 1.13413089.7863743 1.84877691 0 .7308684-.2624157 1.35478395-.7863743 1.87217735-.524832.51724985-1.1493614.7756594-1.8746075.7756594zm-2.6606905-7.89570443v15.83734833h2.6606905v-5.2711246h4.5342795l3.1011068 5.2711246h3.0766555l-3.3085074-5.6818522c.95637-.38057985 1.7428902-1.0119606 2.3601423-1.8947164.632098-.8971119.9483651-1.8935679.9483651-2.9899423 0-1.44479661-.5239585-2.68430119-1.5728945-3.7196622-1.0496635-1.03464321-2.3058541-1.55117523-3.7719194-1.55117523z"/><path d="m55.2593624 11.8041923c-1.0336538-1.0488558-1.5500437-2.2962562-1.5500437-3.7419142 0-1.4452273.5163899-2.68559325 1.5500437-3.71966219 1.0645094-1.03464321 2.3288504-1.55232372 3.7947702-1.55232372 1.4651918 0 2.7222559.51768051 3.7710459 1.55232372 1.048936 1.03406894 1.5733312 2.27443489 1.5733312 3.71966219 0 1.445658-.5243952 2.6930584-1.5733312 3.7419142-1.04879 1.0198564-2.3058541 1.5292104-3.7710459 1.5292104-1.4659198 0-2.7302608-.509354-3.7947702-1.5292104m-1.8743162-9.33332305c-1.5731853 1.55218015-2.3597055 3.41603095-2.3597055 5.59140885 0 2.1904518.7863748 4.0545898 2.3597055 5.5909782 1.5576123 1.5511753 3.4476474 2.327696 5.6690864 2.327696 2.2207109 0 4.1103092-.7765207 5.6686491-2.327696 1.5881767-1.5216017 2.3827018-3.3851654 2.3827018-5.5909782 0-2.1753779-.7945251-4.0392287-2.3827018-5.59140885-1.5583399-1.55261084-3.4479382-2.32726531-5.6686491-2.32726531-2.2371574 0-4.1267557.77465447-5.6690864 2.32726531"/><path d="m34.6304299 2.47082618c-1.5733311 1.55218016-2.3597056 3.41603097-2.3597056 5.59140887 0 2.19045175.7863745 4.05473335 2.3597056 5.59112175 1.5576124 1.5510316 3.4475018 2.3275524 5.6686495 2.3275524.6936629 0 1.3647665-.0828346 2.0130197-.2509444.647671-.1676791 1.2569184-.4068515 1.8275966-.7188093.5702415-.3123884 1.0988575-.6883743 1.5851202-1.1298241.485826-.441306.9137255-.9276903 1.283844-1.4611625v-5.6591696h-6.7095805v2.624867h4.0254572v2.1674821c-.5086764.56362-1.1068624 1.0006193-1.7929571 1.3118592-.6862401.3122449-1.430698.4682956-2.2325001.4682956-1.4656285 0-2.7302607-.509354-3.7943333-1.5292104-1.0336538-1.0489994-1.5504807-2.29639975-1.5504807-3.74205775 0-1.4452273.5168269-2.6854497 1.5504807-3.71966221 1.0640726-1.03449965 2.3287048-1.55218016 3.7943333-1.55218016 1.4809107 0 2.7379746.51768051 3.7710462 1.55218016l1.9208904-1.87174666c-.7405282-.73043772-1.5969093-1.30094863-2.5682703-1.71153272-.9720887-.41101478-2.0133108-.61558903-3.1236663-.61558903-2.2211477 0-4.1110371.77451091-5.6686495 2.32712175z"/><path d="m19.4620479.14363265v15.83734835h10.689919v-2.647406h-8.0289373v-13.18994235z"/><path d="m8.02874803.14363265-8.02879169 15.83734835h2.98510837l1.3650576-2.647406h7.38068409l1.3422072 2.647406h2.9842351zm0 5.9105447 2.35985117 4.65553555h-4.71955674z"/></g></svg>