<?xml version="1.0" standalone="yes"?>
<svg xmlns="http://www.w3.org/2000/svg" width="500" height="500">
<path style="fill:#ffffff; stroke:none;" d="M0 0L0 500L500 500L500 0L0 0z"/>
<path style="fill:#f8b1b1; stroke:none;" d="M276 13L278 15L276 13z"/>
<path style="fill:#eb3234; stroke:none;" d="M276 14C281.589 44.1075 256.348 60.161 236 77.081C222.371 88.4139 210.726 102.06 220.324 120C223.417 125.781 227.798 131.142 232.171 136C237.155 141.538 242.52 147.254 249 151C242.282 135.429 223.936 121.772 231.269 103C240.129 80.3179 267.654 70.5197 278.218 48C283.002 37.8041 284.705 22.6213 276 14z"/>
<path style="fill:#f8b1b1; stroke:none;" d="M276 16L276 19L277 19L276 16M278 16L279 17L278 16M279 18L280 19L279 18M280 20L281 21L280 20M281 22L281 25L282 25L281 22M282 27L282 35L283 35L282 27M276.333 29.6667L276.667 30.3333L276.333 29.6667M275 34L276 35L275 34M274 37L275 38L274 37M281.333 38.6667L281.667 39.3333L281.333 38.6667M273 39L274 40L273 39M272 41L273 42L272 41M280 42L281 43L280 42M271 43L272 44L271 43M270 45L271 46L270 45M279 45L280 46L279 45M278 47L279 48L278 47M268 48L269 49L268 48M267 49L268 50L267 49M277 49L278 50L277 49M266 50L267 51L266 50M276 51L277 52L276 51M275 53L276 54L275 53M273 56L274 57L273 56M272 57L273 58L272 57M271 59L272 60L271 59M270 60L271 61L270 60M255 61L256 62L255 61M269 61L270 62L269 61M254 62L255 63L254 62M253 63L254 64L253 63M304 65L303 68L304 65z"/>
<path style="fill:#eb3234; stroke:none;" d="M305 65L306 66L305 65z"/>
<path style="fill:#f8b1b1; stroke:none;" d="M306 65L307 66L306 65M249 66L250 67L249 66M301 66L302 67L301 66z"/>
<path style="fill:#eb3234; stroke:none;" d="M260 161C263.602 158.992 266.973 156.75 269.985 153.907C272.46 151.571 274.782 148.973 276.467 146C286.501 128.291 263.154 119.36 265.228 103C267.332 86.3919 291.659 75.1658 304 67C297.404 65.6152 287.825 71.3539 282 74.2477C265.473 82.458 246.681 95.8716 251.529 117C254.028 127.889 267.671 136.613 266.439 148C265.893 153.047 262.667 156.912 260 161z"/>
<path style="fill:#f8b1b1; stroke:none;" d="M248 67L249 68L248 67M264 67L265 68L264 67M298 67L299 68L298 67M263 68L264 69L263 68M295 68L296 69L295 68M301 68L302 69L301 68M262 69L263 70L262 69M244 70L245 71L244 70M261 70L262 71L261 70M290 70L291 71L290 70M260 71L261 72L260 71M287 71L288 72L287 71M296 71L297 72L296 71M259 72L260 73L259 72M285 72L286 73L285 72M240 73L241 74L240 73M283 73L284 74L283 73M293 73L294 74L293 73M239 74L240 75L239 74M281 74L282 75L281 74M279 75L280 76L279 75M290 75L291 76L290 75M254 76L255 77L254 76M277 76L278 77L277 76M235 77L236 78L235 77M253 77L254 78L253 77M275 77L276 78L275 77M287 77L288 78L287 77M234 78L235 79L234 78M252 78L253 79L252 78M233 79L234 80L233 79M272 79L273 80L272 79M284 79L285 80L284 79M249 80L250 81L249 80M270 80L271 81L270 80M283 80L284 81L283 80M248 81L249 82L248 81M269 81L270 82L269 81M247 82L248 83L247 82M267 82L268 83L267 82M280 82L281 83L280 82M266 83L267 84L266 83M279 83L280 84L279 83M262 86L263 87L262 86M261 87L262 88L261 87M260 88L261 89L260 88M259 89L260 90L259 89M222 90L223 91L222 90M258 90L259 91L258 90M221 91L222 92L221 91M237 92L238 93L237 92M220 93L221 94L220 93M236 93L237 94L236 93M219 94L220 95L219 94M255 94L256 95L255 94M268 94L269 95L268 94M218 96L219 97L218 96M234 96L235 97L234 96M254 96L255 97L254 96M267 96L268 97L267 96M253 97L254 98L253 97M217 98L218 99L217 98M233 98L234 99L233 98M266 98L267 99L266 98M232 99L233 100L232 99M252.333 99.6667L252.667 100.333L252.333 99.6667M265 100L266 101L265 100M216.333 102.667L216.667 103.333L216.333 102.667M231 102L232 103L231 102M251 102L252 103L251 102M230.333 104.667L230.667 105.333L230.333 104.667M250 107L250 113L251 113L250 107M216.333 108.667L216.667 109.333L216.333 108.667M265 108L266 109L265 108M229 109L229 115L230 115L229 109M266 111L267 112L266 111M217 113L218 114L217 113M267 113L268 114L267 113M218 116L219 117L218 116M269 116L270 117L269 116M251 117L252 118L251 117M219 118L220 119L219 118M230 118L231 119L230 118M270 118L271 119L270 118M271 119L272 120L271 119M220 120L221 121L220 120M252 120L253 121L252 120M231 121L232 122L231 121M253 122L254 123L253 122M273 122L274 123L273 122M222 123L223 124L222 123M232 124L233 125L232 124M254 124L255 125L254 124M275 125L276 126L275 125M224 126L225 127L224 126M233 126L234 127L233 126M255 126L256 127L255 126M276 126L277 127L276 126M225 127L226 128L225 127M277 128L278 129L277 128M235 129L236 130L235 129M257 129L258 130L257 129M227 130L228 131L227 130M278 130L279 131L278 130M228 131L229 132L228 131M236 131L237 132L236 131M229 132L230 133L229 132M237 132L238 133L237 132M260 133L261 134L260 133M238 134L239 135L238 134M261 134L262 135L261 134M239 135L240 136L239 135M279 135L279 138L280 138L279 135M240 137L241 138L240 137M263 137L264 138L263 137M241 138L242 139L241 138M264 138L265 139L264 138M243 141L244 142L243 141M265 141L266 142L265 141M278 141L279 142L278 141M245 144L246 145L245 144M266 144L266 149L267 149L266 144M277 144L278 145L277 144M276 146L277 147L276 146M247 147L248 148L247 147M275 147L276 148L275 147M246 149L247 150L246 149M248 149L249 150L248 149M247 150L248 151L247 150M273 150L274 151L273 150M248 151L250 153L250 151L248 151M272 151L273 152L272 151z"/>
<path style="fill:#a1cce7; stroke:none;" d="M317 151L317 152L320 152L317 151z"/>
<path style="fill:#0b7abf; stroke:none;" d="M311 154L311 155C324.16 153.338 339.165 161.913 331.622 177C326.196 187.852 315.03 194.084 305 200C309.49 200.943 314.833 198.085 319 196.396C328.646 192.485 340.131 185.654 343.211 175C349.016 154.916 325.991 147.633 311 154z"/>
<path style="fill:#a1cce7; stroke:none;" d="M327.667 151.333L328.333 151.667L327.667 151.333z"/>
<path style="fill:#f8b1b1; stroke:none;" d="M265 152L266 153L265 152M271 152L272 153L271 152z"/>
<path style="fill:#a1cce7; stroke:none;" d="M314 152L315 153L314 152M331 152L332 153L331 152M214 153L214 154L220 154L214 153z"/>
<path style="fill:#f8b1b1; stroke:none;" d="M270 153L271 154L270 153z"/>
<path style="fill:#a1cce7; stroke:none;" d="M334 153L335 154L334 153M206 154L206 155L209 155L206 154z"/>
<path style="fill:#0b7abf; stroke:none;" d="M301 165L301 164C265.143 165.54 229.65 175.456 194 166C199.081 159.163 207.979 156.856 216 155C207.519 151.475 192.972 157.689 185 161.012C182.445 162.076 175.267 164.59 177.176 168.596C180.505 175.583 200.589 174.557 207 175.17C236.762 178.014 273.577 177.743 301 165z"/>
<path style="fill:#f8b1b1; stroke:none;" d="M264 154L265 155L264 154M269 154L270 155L269 154z"/>
<path style="fill:#a1cce7; stroke:none;" d="M310 154L310 156L312 156L310 154M314 154L314 155L322 155L314 154M201.667 155.333L202.333 155.667L201.667 155.333M213.667 155.333L214.333 155.667L213.667 155.333z"/>
<path style="fill:#f8b1b1; stroke:none;" d="M268 155L269 156L268 155z"/>
<path style="fill:#a1cce7; stroke:none;" d="M323.667 155.333L324.333 155.667L323.667 155.333M337 155L338 156L337 155M197.667 156.333L198.333 156.667L197.667 156.333M210 156L211 157L210 156z"/>
<path style="fill:#f8b1b1; stroke:none;" d="M263 156L264 157L263 156z"/>
<path style="fill:#a1cce7; stroke:none;" d="M338 156L339 157L338 156M194 157L195 158L194 157M207 157L208 158L207 157z"/>
<path style="fill:#f8b1b1; stroke:none;" d="M262 157L263 158L262 157M265 157L266 158L265 157z"/>
<path style="fill:#a1cce7; stroke:none;" d="M327 157L328 158L327 157M339 157L340 158L339 157M191 158L192 159L191 158M204 158L205 159L204 158z"/>
<path style="fill:#f8b1b1; stroke:none;" d="M264 158L265 159L264 158z"/>
<path style="fill:#a1cce7; stroke:none;" d="M340 158L341 159L340 158M188 159L189 160L188 159M201 159L202 160L201 159z"/>
<path style="fill:#f8b1b1; stroke:none;" d="M262 159L263 160L262 159z"/>
<path style="fill:#a1cce7; stroke:none;" d="M341 159L342 160L341 159M186 160L187 161L186 160M199 160L200 161L199 160z"/>
<path style="fill:#f8b1b1; stroke:none;" d="M261 160L262 161L261 160z"/>
<path style="fill:#a1cce7; stroke:none;" d="M197 161L198 162L197 161z"/>
<path style="fill:#f8b1b1; stroke:none;" d="M259 161L260 162L259 161z"/>
<path style="fill:#a1cce7; stroke:none;" d="M331 161L332 162L331 161M342 161L343 162L342 161M181 162L182 163L181 162M179 163L180 164L179 163M299 163L299 164L302 165L299 163z"/>
<path style="fill:#0b7abf; stroke:none;" d="M302 163L303 164L302 163z"/>
<path style="fill:#a1cce7; stroke:none;" d="M303 163L304 164L303 163M332 163L333 164L332 163M343 163L344 164L343 163M194.333 164.667L194.667 165.333L194.333 164.667M293 164L293 165L296 165L293 164M176 165L177 166L176 165M285 165L285 166L289 166L285 165M299 165L300 166L299 165M333 165L333 168L334 168L333 165M278 166L278 167L281 167L278 166M297 166L298 167L297 166M344 166L344 172L345 172L344 166M198 167L199 168L198 167M269 167L269 168L272 168L269 167M203 168L203 169L206 169L203 168M255 168L255 169L261 169L255 168M294 168L295 169L294 168M212 169L212 170L244 170L212 169M291.667 169.333L292.333 169.667L291.667 169.333M178 170L179 171L178 170M287.667 170.333L288.333 170.667L287.667 170.333M181 171L182 172L181 171M282.667 171.333L283.333 171.667L282.667 171.333M333.333 171.667L333.667 172.333L333.333 171.667M184 172L185 173L184 172M276.667 172.333L277.333 172.667L276.667 172.333M188 173L188 174L191 174L188 173M268 173L268 174L272 174L268 173M194 174L194 175L198 175L194 174M259 174L259 175L264 175L259 174M343.333 174.667L343.667 175.333L343.333 174.667M204 175L204 176L210 176L204 175M246 175L246 176L252 176L246 175M332 175L333 176L332 175M331 177L332 178L331 177M342 177L343 178L342 177M330 179L331 180L330 179M341 179L342 180L341 179M328 182L329 183L328 182M339 182L340 183L339 182M207 183L208 184L207 183z"/>
<path style="fill:#0b7abf; stroke:none;" d="M208 183L209 184L208 183z"/>
<path style="fill:#a1cce7; stroke:none;" d="M327 183L328 184L327 183M338 183L339 184L338 183M204.667 184.333L205.333 184.667L204.667 184.333z"/>
<path style="fill:#0b7abf; stroke:none;" d="M294 196L294 195C273.694 186.14 250.25 195.948 228 193.83C221.579 193.219 205.084 194.034 208 184C206.273 184.414 204.607 184.792 202.98 185.534C185.672 193.429 210.72 200.938 218 201.844C243.221 204.984 269.531 202.879 294 196z"/>
<path style="fill:#a1cce7; stroke:none;" d="M326 184L327 185L326 184M337 184L338 185L337 184M202 185L203 186L202 185M207 185L208 186L207 185M325 185L326 186L325 185M336 185L337 186L336 185M324 186L325 187L324 186M335 186L336 187L335 186M199 187L200 188L199 187M206 187L207 188L206 187M323 187L324 188L323 187M334 187L335 188L334 187M322 188L323 189L322 188M281 189L281 190L285 190L281 189M321 189L322 190L321 189M331 189L332 190L331 189M196.333 190.667L196.667 191.333L196.333 190.667M208 190L209 191L208 190M276.667 190.333L277.333 190.667L276.667 190.333M330 190L331 191L330 190M210 191L211 192L210 191M270.667 191.333L271.333 191.667L270.667 191.333M287 191L288 192L287 191M328 191L329 192L328 191M215 192L215 193L219 193L215 192M261 192L261 193L265 193L261 192M288 192L289 193L288 192M317 192L318 193L317 192M196 193L197 194L196 193M225 193L225 194L234 194L225 193M247 193L247 194L256 194L247 193M290 193L291 194L290 193M325 193L326 194L325 193M292 194L293 195L292 194M314 194L315 195L314 194M323 194L324 195L323 194M294 195L295 196L294 195M321 195L322 196L321 195M199 196L200 197L199 196M292 196L293 197L292 196M311 196L312 197L311 196M318 196L319 197L318 196M201 197L202 198L201 197M288.667 197.333L289.333 197.667L288.667 197.333M309 197L310 198L309 197M316 197L317 198L316 197M203 198L204 199L203 198M283 198L283 199L286 199L283 198M307 198L308 199L307 198M313.667 198.333L314.333 198.667L313.667 198.333M205.667 199.333L206.333 199.667L205.667 199.333M279.667 199.333L280.333 199.667L279.667 199.333M310.667 199.333L311.333 199.667L310.667 199.333M209.667 200.333L210.333 200.667L209.667 200.333M273.667 200.333L274.333 200.667L273.667 200.333M304.333 200.667L304.667 201.333L304.333 200.667M307 200L308 201L307 200M214.667 201.333L215.333 201.667L214.667 201.333M267.667 201.333L268.333 201.667L267.667 201.333M219 202L219 203L224 203L219 202M257 202L257 203L262 203L257 202M230 203L230 204L250 204L230 203M213 211L213 215L214 215L213 211z"/>
<path style="fill:#0b7abf; stroke:none;" d="M214 211L215 212L214 211z"/>
<path style="fill:#a1cce7; stroke:none;" d="M210 212L211 213L210 212z"/>
<path style="fill:#0b7abf; stroke:none;" d="M289 224C279.235 209.686 247.068 221.088 232 219.285C225.72 218.534 215.853 219.572 214 212C207.511 213.176 200.691 218.699 208.059 224.351C213.101 228.219 220.859 229.599 227 230.561C248.724 233.962 268.16 229.571 289 224z"/>
<path style="fill:#a1cce7; stroke:none;" d="M208 213L209 214L208 213M205 215L206 216L205 215M215 216L216 217L215 216M273.667 216.333L274.333 216.667L273.667 216.333M277 216L278 217L277 216M218.667 217.333L219.333 217.667L218.667 217.333M266 217L266 218L269 218L266 217M223 218L223 219L228 219L223 218M259 218L259 219L263 219L259 218M280 218L281 219L280 218M233 219L233 220L240 220L233 219M248 219L248 220L254 220L248 219M282 219L283 220L282 219M284 220L285 221L284 220M204 221L205 222L204 221M287 221L288 222L287 221M205 222L206 223L205 222M289.333 222.667L289.667 223.333L289.333 222.667M206 223L207 224L206 223M286 224L287 225L286 224M209 225L210 226L209 225M284 225L285 226L284 225M211 226L212 227L211 226M280.667 226.333L281.333 226.667L280.667 226.333M214 227L215 228L214 227M277.667 227.333L278.333 227.667L277.667 227.333M217 228L218 229L217 228M273.667 228.333L274.333 228.667L273.667 228.333M185 229L185 230L189 230L185 229z"/>
<path style="fill:#0b7abf; stroke:none;" d="M330 233C326.338 245.929 302.955 245.844 292 247.155C254.354 251.66 206.84 255.625 171 241C176.617 233.458 186.973 231.075 196 231C186.9 226.662 171.22 231.761 163 236.529C153.148 242.245 155.872 248.58 166 250.539C206.546 258.385 252.254 259.4 293 252.565C303.705 250.769 315.088 248.693 324.999 244.099C329.931 241.813 334.784 237.843 330 233z"/>
<path style="fill:#a1cce7; stroke:none;" d="M191 229L191 230L194 230L191 229M220.667 229.333L221.333 229.667L220.667 229.333M269 229L270 230L269 229M179.667 230.333L180.333 230.667L179.667 230.333M226 230L227 231L226 230M263.667 230.333L264.333 230.667L263.667 230.333M175.667 231.333L176.333 231.667L175.667 231.333M188 231L188 232L191 232L188 231M231 231L231 232L237 232L231 231M253 231L253 232L259 232L253 231M172 232L173 233L172 232M184.667 232.333L185.333 232.667L184.667 232.333M329 232L329 234L331 232L329 232M169 233L170 234L169 233M181 233L182 234L181 233M331 233L332 234L331 233M167 234L168 235L167 234M332 234L333 235L332 234M176 235L177 236L176 235M174 236L175 237L174 236M329 236L330 237L329 236M333 236L334 237L333 236M161 237L162 238L161 237M173 237L174 238L173 237M159 238L160 239L159 238M332 238L333 239L332 238M158 239L159 240L158 239M171.333 239.667L171.667 240.333L171.333 239.667M326 239L327 240L326 239M157 240L158 241L157 240M324 240L325 241L324 240M156 241L157 242L156 241M172 241L173 242L172 241M321 241L322 242L321 241M329 241L330 242L329 241M174 242L175 243L174 242M318.667 242.333L319.333 242.667L318.667 242.333M328 242L329 243L328 242M176.667 243.333L177.333 243.667L176.667 243.333M314.667 243.333L315.333 243.667L314.667 243.333M326 243L327 244L326 243M180 244L181 245L180 244M309.667 244.333L310.333 244.667L309.667 244.333M155 245L156 246L155 245M184 245L185 246L184 245M303.667 245.333L304.333 245.667L303.667 245.333M321 245L322 246L321 245M344.333 245.667L344.667 246.333L344.333 245.667M189.667 246.333L190.333 246.667L189.667 246.333M294 246L294 247L298 247L294 246M318.667 246.333L319.333 246.667L318.667 246.333z"/>
<path style="fill:#0b7abf; stroke:none;" d="M343 246C331.338 255.583 314.501 258.155 300 260.586C263.501 266.707 228.54 263.569 192 262L192 263C229.925 270.823 270.84 271.539 309 264.389C317.4 262.815 344.627 258.217 343 246z"/>
<path style="fill:#a1cce7; stroke:none;" d="M157 247L158 248L157 247M195 247L195 248L199 248L195 247M284 247L284 248L290 248L284 247M315.667 247.333L316.333 247.667L315.667 247.333M341 247L342 248L341 247M158 248L159 249L158 248M204 248L204 249L208 249L204 248M273 248L273 249L279 249L273 248M312 248L313 249L312 248M340 248L341 249L340 248M343 248L344 249L343 248M161 249L162 250L161 249M220 249L220 250L230 250L220 249M249 249L249 250L259 250L249 249M308 249L309 250L308 249M338 249L339 250L338 249M165 250L166 251L165 250M303.667 250.333L304.333 250.667L303.667 250.333M336 250L337 251L336 250M169 251L169 252L173 252L169 251M298 251L298 252L301 252L298 251M334 251L335 252L334 251M341 251L342 252L341 251M176 252L176 253L179 253L176 252M293.667 252.333L294.333 252.667L293.667 252.333M331.667 252.333L332.333 252.667L331.667 252.333M340 252L341 253L340 252M184 253L184 254L187 254L184 253M286 253L286 254L289 254L286 253M329 253L330 254L329 253M339 253L340 254L339 253M194.667 254.333L195.333 254.667L194.667 254.333M278.667 254.333L279.333 254.667L278.667 254.333M326 254L327 255L326 254M203 255L203 256L209 256L203 255M266 255L266 256L271 256L266 255M322.667 255.333L323.333 255.667L322.667 255.333M336 255L337 256L336 255M218 256L218 257L258 257C247.488 252.589 229.434 256 218 256M318.667 256.333L319.333 256.667L318.667 256.333M334 256L335 257L334 256M314.667 257.333L315.333 257.667L314.667 257.333M332 257L333 258L332 257M310.667 258.333L311.333 258.667L310.667 258.333M330 258L331 259L330 258M305.667 259.333L306.333 259.667L305.667 259.333M298 260L298 261L301 261L298 260M324.667 260.333L325.333 260.667L324.667 260.333M190 261L191 263L192 263L193 261L190 261M291 261L291 262L295 262L291 261M321.667 261.333L322.333 261.667L321.667 261.333M197 262L197 263L201 263L197 262M283 262L283 263L287 263L283 262M318 262L319 263L318 262M194 263L195 264L194 263M206 263L206 264L210 264L206 263M273 263L273 264L277 264L273 263M313.667 263.333L314.333 263.667L313.667 263.333M198 264L199 265L198 264M221 264L221 265L229 265L221 264M254 264L254 265L262 265L254 264M308.667 264.333L309.333 264.667L308.667 264.333M201 265L201 266L204 266L201 265M302 265L302 266L305 266L302 265M207 266L207 267L211 267L207 266M294 266L294 267L298 267L294 266M215 267L215 268L220 268L215 267M284 267L284 268L289 268L284 267M229 268L229 269L236 269L229 268M267 268L267 269L274 269L267 268z"/>
<path style="fill:#f8b1b1; stroke:none;" d="M162 285L162 357L163 357L163 286L175 286L162 285z"/>
<path style="fill:#eb3234; stroke:none;" d="M163 286L163 344C163 358.123 162.77 370.53 150 379C158.404 392.268 171.527 377.746 173.981 367C179.655 342.157 175 311.475 175 286L163 286z"/>
<path style="fill:#f8b1b1; stroke:none;" d="M202 305L202 306L215 306L202 305M312 305L312 306L325 306L312 305M197.667 306.333L198.333 306.667L197.667 306.333z"/>
<path style="fill:#eb3234; stroke:none;" d="M187 310C190.239 324.675 211.083 305.127 217.258 321.005C218.338 323.783 217.998 327.078 218 330C209.213 330.001 198.388 330.134 191.04 335.638C181.517 342.771 181.097 359.767 193.001 364.772C202.632 368.821 212.12 364.311 220 359C220.723 365.28 224.502 364.996 230 365C230 350.815 236.207 317.733 222.985 308.703C217.334 304.844 208.53 305.612 202 306.09C196.826 306.47 191.824 308.202 187 310z"/>
<path style="fill:#f8b1b1; stroke:none;" d="M218 306L219 307L218 306M237 308L250 307C246.353 305.47 239.758 304.844 237 308M275 309L276 309L289 307C284.751 305.217 277.692 304.848 275 309M307.667 306.333L308.333 306.667L307.667 306.333z"/>
<path style="fill:#eb3234; stroke:none;" d="M297 310L298 317C312.151 315.766 327.943 309.144 328 330C318.713 330 307.582 330.132 300.043 336.39C291.291 343.656 291.443 360.303 303.001 364.852C312.73 368.681 321.866 363.897 330 359C330.496 365.364 334.528 364.996 340 365C340 351.356 345.723 320.453 334.786 310.394C328.931 305.008 319.393 305.548 312 306.09C306.826 306.47 301.824 308.202 297 310z"/>
<path style="fill:#f8b1b1; stroke:none;" d="M327.667 306.333L328.333 306.667L327.667 306.333M341 306L341 307L343 311L344 311L344 307L345 307L348 311L347 308L351 311L349 306L350 309L341 306M194 307L195 308L194 307z"/>
<path style="fill:#eb3234; stroke:none;" d="M238 307L255 365L269.61 363.972L276.681 350L288 307L276.742 308.028L273.4 320L265 353L264 353L251 307L238 307z"/>
<path style="fill:#f8b1b1; stroke:none;" d="M303.667 307.333L304.333 307.667L303.667 307.333M330 307L331 308L330 307z"/>
<path style="fill:#eb3234; stroke:none;" d="M342 307L343 308L342 307M346 307L347 308L346 307M349.333 307.667L349.667 308.333L349.333 307.667z"/>
<path style="fill:#f8b1b1; stroke:none;" d="M300 308L301 309L300 308M332 308L333 309L332 308z"/>
<path style="fill:#eb3234; stroke:none;" d="M347 308L349 311L347 308z"/>
<path style="fill:#f8b1b1; stroke:none;" d="M188 309L189 310L188 309M224 309L225 310L224 309M251.333 309.667L251.667 310.333L251.333 309.667M298 309L299 310L298 309M334 309L335 310L334 309M225 310L226 311L225 310M238.333 310.667L238.667 311.333L238.333 310.667M296 310L297 311L296 310M335 310L336 311L335 310z"/>
<path style="fill:#eb3234; stroke:none;" d="M342 310L343 311L342 310z"/>
<path style="fill:#f8b1b1; stroke:none;" d="M226 311L227 312L226 311M287.333 311.667L287.667 312.333L287.333 311.667M187 312L188 313L187 312M252.333 312.667L252.667 313.333L252.333 312.667M239.333 313.667L239.667 314.333L239.333 313.667M274.333 313.667L274.667 314.333L274.333 313.667M297.333 313.667L297.667 314.333L297.333 313.667M337 313L338 314L337 313M200 314L200 315L211 315L200 314M228 314L229 315L228 314M310 314L310 315L321 315L310 314M195.667 315.333L196.333 315.667L195.667 315.333M212.667 315.333L213.333 315.667L212.667 315.333M286 315L286 318L287 318L286 315M305.667 315.333L306.333 315.667L305.667 315.333M322 315L323 316L322 315M338 315L339 316L338 315M188 316L189 317L188 316M192 316L193 317L192 316M214 316L215 317L214 316M253 316L254 317L253 316M302 316L303 317L302 316M324 316L325 317L324 316M189 317L190 318L189 317M229 317L230 318L229 317M240 317L241 318L240 317M298 317L299 318L298 317M325 317L326 318L325 317M339 317L339 320L340 320L339 317M216 318L217 319L216 318M273.333 318.667L273.667 319.333L273.333 318.667M326 318L327 319L326 318M254 319L255 320L254 319M217 320L218 321L217 320M241 320L242 321L241 320M285.333 320.667L285.667 321.333L285.333 320.667M327.333 321.667L327.667 322.333L327.333 321.667M242.333 323.667L242.667 324.333L242.333 323.667M272.333 323.667L272.667 324.333L272.333 323.667M284.333 324.667L284.667 325.333L284.333 324.667M243.333 326.667L243.667 327.333L243.333 326.667M256 326L257 327L256 326M271.333 327.667L271.667 328.333L271.333 327.667M257.333 328.667L257.667 329.333L257.333 328.667M283.333 328.667L283.667 329.333L283.333 328.667M204 330L204 331L208 331L204 330M244 330L245 331L244 330M313 330L313 331L317 331L313 330M200 331L201 332L200 331M309.667 331.333L310.333 331.667L309.667 331.333M196 332L197 333L196 332M258 332L259 333L258 332M270 332L271 333L270 332M282 332L283 333L282 332M306 332L307 333L306 332M194 333L195 334L194 333M245 333L246 334L245 333M304 333L305 334L304 333M192 334L193 335L192 334M302 334L303 335L302 334M259 335L260 336L259 335M281.333 335.667L281.667 336.333L281.333 335.667M300 335L301 336L300 335M246 336L247 337L246 336M269 336L270 337L269 336M299 336L300 337L299 336M298 337L299 338L298 337M204.667 338.333L205.333 338.667L204.667 338.333z"/>
<path style="fill:#ffffff; stroke:none;" d="M218 338C214.359 338 210.611 337.761 207 338.301C204.976 338.603 202.836 339.092 201.055 340.14C183.951 350.197 213.025 366.959 217.682 349.907C218.676 346.267 218 341.752 218 338z"/>
<path style="fill:#f8b1b1; stroke:none;" d="M280.333 338.667L280.667 339.333L280.333 338.667M297 338L298 339L297 338M313 338L313 339L316 339L313 338z"/>
<path style="fill:#ffffff; stroke:none;" d="M328 338C324.357 338 320.613 337.767 317 338.301C315.01 338.595 312.916 339.067 311.105 339.97C293.493 348.748 322.535 367.847 327.682 349.816C328.704 346.236 328 341.701 328 338z"/>
<path style="fill:#f8b1b1; stroke:none;" d="M201 339L202 340L201 339M247.333 339.667L247.667 340.333L247.333 339.667M260 339L261 340L260 339M268 339L269 340L268 339M296 339L297 340L296 339M311 339L312 340L311 339M186 340L187 341L186 340M199 340L200 341L199 340M309 340L310 341L309 340M198 341L199 342L198 341M295 341L296 342L295 341M197 342L198 343L197 342M248.333 342.667L248.667 343.333L248.333 342.667M261 342L262 343L261 342M267.333 342.667L267.667 343.333L267.333 342.667M307 342L308 343L307 342M294 343L295 344L294 343M184 344L185 345L184 344M196.333 344.667L196.667 345.333L196.333 344.667M306 344L307 345L306 344M262 345L262 348L263 348L262 345M266.333 345.667L266.667 346.333L266.333 345.667M278 345L279 346L278 345M249 346L250 347L249 346M277.333 347.667L277.667 348.333L277.333 347.667M305.333 347.667L305.667 348.333L305.333 347.667M265 348L266 349L265 348M293 348L293 352L294 352L293 348M250 349L251 350L250 349M263 350L265 353L263 350M276 350L277 351L276 350M196 351L197 352L196 351M306 352L307 353L306 352M326 352L327 353L326 352M215 353L216 354L215 353M251 353L252 354L251 353M275 353L276 354L275 353M325 353L326 354L325 353M214 354L215 355L214 354M307 354L308 355L307 354M323 354L324 355L323 354M184 355L185 356L184 355M212 355L213 356L212 355M274 355L275 356L274 355M308 355L309 356L308 355M200 356L201 357L200 356M252 356L253 357L252 356M294 356L295 357L294 356M319 356L320 357L319 356M203 357L203 358L207 358L203 357M313 357L313 358L316 358L313 357M185 358L186 359L185 358M273 358L274 359L273 358M295 358L296 359L295 358M219 359L220 360L219 359M253.333 359.667L253.667 360.333L253.333 359.667M328 359L330 361L330 359L328 359M217 360L218 361L217 360M272 360L273 361L272 360M296 360L297 361L296 360M327 360L328 361L327 360M216 361L217 362L216 361M297 361L298 362L297 361M214 362L215 363L214 362M254 362L255 363L254 362M271 362L272 363L271 362M298 362L299 363L298 362M324 362L325 363L324 362M190 363L191 364L190 363M213 363L214 364L213 363M220.333 363.667L220.667 364.333L220.333 363.667M299 363L300 364L299 363M322 363L323 364L322 363M161.333 364.667L161.667 365.333L161.333 364.667M174.333 364.667L174.667 365.333L174.333 364.667M191 364L192 365L191 364M211 364L212 365L211 364M270 364L271 365L270 364M301 364L302 365L301 364M320 364L321 365L320 364M330 364L331 365L330 364M194 365L195 366L194 365M208 365L209 366L208 365M304 365L305 366L304 365M317.667 365.333L318.333 365.667L317.667 365.333M200 366L200 367L203 367L200 366M310 366L310 367L313 367L310 366M160 368L161 369L160 368M173 369L174 370L173 369M159 370L160 371L159 370M172 372L173 373L172 372M157 373L158 374L157 373M171 373L172 374L171 373M156 374L157 375L156 374M170 375L171 376L170 375M152 377L153 378L152 377M151 378L152 379L151 378M150 380L151 381L150 380M151 381L152 382L151 381M164 381L165 382L164 381M152 382L153 383L152 382M163 382L164 383L163 382M161 383L162 384L161 383M157 385L158 386L157 385M203 418L203 454L204 454C204 443.613 207.011 427.56 203 418z"/>
<path style="fill:#eb3234; stroke:none;" d="M204 418L204 454L213 454L213 441L223.529 452.972L234 454C231.818 449.387 227.233 445.036 225.875 440.17C224.762 436.182 229.944 432.435 229.717 428C229.082 415.615 212.373 418 204 418z"/>
<path style="fill:#f8b1b1; stroke:none;" d="M221.667 418.333L222.333 418.667L221.667 418.333M237 418L237 454L238 454C238 443.613 241.011 427.56 237 418z"/>
<path style="fill:#eb3234; stroke:none;" d="M238 418L238 454L246 454L246 429L247 429L253 454L263 454L269 429L270 429L270 454L279 454L279 418L266.702 419.028L258 443L251 418L238 418z"/>
<path style="fill:#f8b1b1; stroke:none;" d="M265.333 418.667L265.667 419.333L265.333 418.667M286 418L286 454L287 454C287 443.613 290.011 427.56 286 418z"/>
<path style="fill:#eb3234; stroke:none;" d="M287 418L287 454L296 454L296 418L287 418z"/>
<path style="fill:#f8b1b1; stroke:none;" d="M296 418L296 454L297 454C297 443.613 300.011 427.56 296 418M224 419L225 420L224 419M226 420L227 421L226 420M251 420L252 421L251 420M227 421L228 422L227 421M264.333 421.667L264.667 422.333L264.333 421.667M228 422L229 423L228 422M252.333 423.667L252.667 424.333L252.333 423.667M229.333 424.667L229.667 425.333L229.333 424.667M213 425L213 426L218 426L213 425M263 425L264 426L263 425z"/>
<path style="fill:#ffffff; stroke:none;" d="M213 426L213 433C220.633 432.418 220.868 426.258 213 426z"/>
<path style="fill:#f8b1b1; stroke:none;" d="M253.333 426.667L253.667 427.333L253.333 426.667M262.333 428.667L262.667 429.333L262.333 428.667M246.333 429.667L246.667 430.333L246.333 429.667M269.333 429.667L269.667 430.333L269.333 429.667M254 430L255 431L254 430M219 431L220 432L219 431M229.333 431.667L229.667 432.333L229.333 431.667z"/>
<path style="fill:#ffffff; stroke:none;" d="M246 431L246 434L247 434L246 431z"/>
<path style="fill:#f8b1b1; stroke:none;" d="M218 432L219 433L218 432M261 432L262 433L261 432M213 433L213 434L217 434L213 433M247 433L248 434L247 433M255.333 433.667L255.667 434.333L255.333 433.667M268.333 433.667L268.667 434.333L268.333 433.667M228 434L229 435L228 434M246 434L246 454L247 454L246 434M227 435L228 436L227 435M260.333 435.667L260.667 436.333L260.333 435.667M226 436L227 437L226 436M248.333 436.667L248.667 437.333L248.333 436.667M267.333 436.667L267.667 437.333L267.333 436.667M225 437L226 438L225 437M256 437L257 438L256 437M259 439L260 440L259 439M225 440L226 441L225 440M249 440L250 441L249 440M257.333 440.667L257.667 441.333L257.333 440.667M266.333 440.667L266.667 441.333L266.333 440.667M216 442L217 443L216 442M258 442L259 443L258 442M227 443L228 444L227 443M250.333 443.667L250.667 444.333L250.333 443.667M265.333 443.667L265.667 444.333L265.333 443.667M217 444L218 445L217 444M218 445L219 446L218 445M229 446L230 447L229 446M219 447L220 448L219 447M251 447L252 448L251 447M264.333 447.667L264.667 448.333L264.333 447.667M220 449L221 450L220 449M231 449L232 450L231 449M252.333 450.667L252.667 451.333L252.333 450.667M263 451L264 452L263 451M222 452L223 453L222 452M233 452L234 453L233 452z"/>
</svg>
