<?xml version="1.0" standalone="no"?>
<!DOCTYPE svg PUBLIC "-//W3C//DTD SVG 20010904//EN"
 "http://www.w3.org/TR/2001/REC-SVG-20010904/DTD/svg10.dtd">
<svg version="1.0" xmlns="http://www.w3.org/2000/svg"
 width="500.000000pt" height="500.000000pt" viewBox="0 0 500.000000 500.000000"
 preserveAspectRatio="xMidYMid meet">

<g transform="translate(0.000000,500.000000) scale(0.100000,-0.100000)"
fill="#000000" stroke="none">
<path d="M2768 4780 c8 -181 -59 -278 -355 -514 -189 -151 -245 -226 -245
-327 0 -96 56 -191 196 -337 57 -59 135 -125 121 -102 -5 8 -43 67 -85 130
-85 130 -116 208 -106 276 12 90 76 184 190 280 170 141 245 227 299 341 29
61 32 77 32 158 0 74 -4 97 -23 133 -12 23 -23 42 -25 42 -1 0 -1 -36 1 -80z"/>
<path d="M2917 4296 c-205 -84 -323 -171 -377 -279 -56 -112 -37 -215 64 -345
75 -97 83 -159 31 -237 l-25 -36 31 18 c46 27 126 118 139 159 21 64 8 118
-49 200 -62 88 -81 131 -81 180 0 99 86 184 376 371 36 23 -2 12 -109 -31z"/>
<path d="M3175 3481 c-65 -16 -65 -26 0 -26 71 0 103 -17 143 -75 64 -95 -15
-231 -204 -348 -72 -45 -61 -47 43 -5 215 84 320 215 272 340 -31 83 -156 139
-254 114z"/>
<path d="M2035 3444 c-81 -16 -219 -67 -255 -94 l-25 -19 20 -21 c44 -44 338
-77 600 -66 300 11 519 46 599 93 l41 25 -33 -6 c-187 -32 -416 -49 -672 -50
-290 0 -361 9 -368 46 -4 20 53 51 153 84 81 27 52 30 -60 8z"/>
<path d="M2040 3149 c-38 -15 -70 -50 -70 -76 0 -28 51 -56 147 -80 53 -13
114 -17 283 -17 218 0 279 6 451 45 l93 22 -30 15 c-16 8 -37 21 -46 30 -16
13 -35 12 -178 -8 -139 -20 -187 -22 -348 -17 -239 7 -300 24 -272 76 12 23 7
25 -30 10z"/>
<path d="M2092 2863 c-122 -60 1 -148 243 -173 101 -11 209 -7 320 11 75 13
225 57 225 67 0 4 -28 21 -62 38 -62 30 -64 30 -128 17 -102 -20 -293 -27
-410 -14 -107 12 -156 31 -146 57 7 18 -1 17 -42 -3z"/>
<path d="M1745 2676 c-92 -30 -149 -60 -173 -91 -43 -54 -1 -76 198 -104 213
-31 359 -41 605 -41 410 0 724 47 887 133 62 32 80 60 54 85 -15 15 -16 15
-16 -4 0 -45 -59 -74 -210 -102 -181 -35 -350 -46 -685 -46 -337 -1 -458 9
-597 46 -90 23 -109 39 -83 68 21 24 108 57 178 69 l52 9 -70 0 c-48 1 -92 -6
-140 -22z"/>
<path d="M3425 2530 c-10 -15 -91 -54 -165 -78 -174 -57 -426 -91 -740 -99
-200 -5 -491 7 -570 23 -20 4 -22 3 -9 -5 51 -33 462 -66 694 -56 365 16 612
61 727 134 45 29 86 76 75 87 -3 3 -8 0 -12 -6z"/>
<path d="M1628 1743 l-3 -398 -25 -43 c-13 -24 -41 -56 -61 -71 l-37 -27 27
-32 c23 -29 30 -32 51 -24 51 20 106 70 135 123 l30 54 3 408 3 407 -60 0 -59
0 -4 -397z"/>
<path d="M1985 1934 c-11 -3 -41 -12 -67 -20 -45 -14 -48 -18 -42 -42 10 -42
17 -44 79 -27 37 11 79 16 118 13 78 -6 107 -35 107 -107 l0 -48 -77 -7 c-102
-8 -141 -20 -191 -55 -50 -37 -77 -101 -70 -165 15 -128 151 -176 292 -102
l65 34 6 -29 c6 -27 10 -29 51 -29 l45 0 -3 244 c-3 229 -4 246 -24 272 -43
59 -67 68 -172 71 -53 1 -106 -1 -117 -3z m195 -378 c0 -69 -2 -76 -26 -95
-39 -31 -99 -45 -136 -32 -41 15 -57 38 -58 84 0 71 27 95 120 107 109 14 100
20 100 -64z"/>
<path d="M3060 1929 c-83 -23 -92 -29 -84 -63 3 -17 7 -32 9 -34 1 -1 28 4 61
13 114 29 204 13 224 -41 6 -14 10 -42 10 -63 l0 -38 -77 -7 c-180 -15 -253
-68 -261 -189 -3 -52 0 -67 20 -97 49 -72 156 -92 254 -46 28 13 55 29 58 35
12 19 25 12 28 -16 3 -26 7 -28 51 -31 l49 -3 -4 238 c-3 217 -5 241 -23 273
-33 56 -92 80 -195 79 -47 0 -101 -5 -120 -10z m220 -373 c0 -70 -2 -76 -27
-94 -82 -58 -172 -47 -193 25 -22 75 21 123 120 134 110 12 100 19 100 -65z"/>
<path d="M2382 1913 c3 -10 43 -141 89 -290 l83 -273 74 0 73 0 24 55 c54 122
119 335 150 493 l7 32 -61 0 c-68 0 -63 7 -82 -110 -10 -62 -28 -135 -86 -332
-8 -26 -20 -13 -28 29 -6 33 -25 97 -104 353 l-17 55 -63 3 c-57 3 -63 1 -59
-15z"/>
<path d="M3471 1913 c7 -12 15 -20 18 -17 3 2 -3 12 -13 22 -17 16 -18 16 -5
-5z"/>
<path d="M2040 640 l0 -180 45 0 45 0 0 65 c0 86 17 86 67 0 l38 -65 53 0 53
0 -52 76 -51 76 29 30 c22 23 28 39 28 73 0 77 -48 105 -182 105 l-73 0 0
-180z m148 98 c18 -18 14 -56 -7 -68 -40 -21 -51 -13 -51 35 0 40 2 45 23 45
13 0 28 -5 35 -12z"/>
<path d="M2380 640 l0 -180 40 0 39 0 3 128 3 127 35 -125 35 -125 45 -3 45
-3 37 128 36 128 1 -127 1 -128 45 0 45 0 0 180 0 180 -65 0 -64 0 -20 -67
c-11 -38 -27 -94 -36 -126 -9 -31 -20 -55 -24 -53 -4 3 -22 59 -41 125 l-35
121 -62 0 -63 0 0 -180z"/>
<path d="M2870 640 l0 -180 45 0 45 0 0 180 0 180 -45 0 -45 0 0 -180z"/>
</g>
</svg>
