<svg height="200" viewBox="0 0 200 200" width="200" xmlns="http://www.w3.org/2000/svg" xmlns:xlink="http://www.w3.org/1999/xlink"><linearGradient id="a" gradientTransform="matrix(0 2.666667 -2.666667 0 -1658.666667 1789.333333)" gradientUnits="userSpaceOnUse" x1="-580.469971" x2="-686.530029" y1="-606.469971" y2="-712.530029"><stop offset="0" stop-color="#4d27a8"/><stop offset="1" stop-color="#a166ff"/></linearGradient><path d="m0 0h200v200h-200z" fill="url(#a)"/><g fill="#fff"><path d="m140 118.640625h-18.667969v-5.332031h18.667969c6.425781 0 21.332031-1.921875 21.332031-19.734375 0-10.667969-6.265625-17.359375-18.664062-19.867188-1.1875-.238281-2.0625-1.246093-2.132813-2.453125-.613281-10.402344-6.667968-14.105468-11.65625-14.105468-3.429687.03125-6.648437 1.671874-8.691406 4.425781-.589844.769531-1.554688 1.15625-2.511719 1.011719-.957031-.144532-1.765625-.796876-2.101562-1.707032-1.726563-5.023437-4.582031-9.585937-8.347657-13.332031-8.347656-8.664063-21.085937-11.453125-32.292968-7.070313-11.203125 4.378907-18.671875 15.070313-18.933594 27.097657.003906 1.203125.074219 2.402343.214844 3.597656.175781 1.34375-.6875 2.605469-2 2.933594-5.789063 1.414062-15.546875 5.894531-15.546875 19.226562v1.46875c.980469 10.707031 10.132812 18.792969 20.878906 18.453125h13.785156v5.332032h-13.730469c-13.582031.34375-25.074218-9.957032-26.214843-23.492188 0-.585938 0-1.171875 0-1.761719-.445313-10.972656 6.707031-20.816406 17.28125-23.785156 0-.640625 0-1.308594 0-1.972656.3125-14.144531 9.078125-26.71875 22.242187-31.902344 13.164063-5.183594 28.152344-1.964844 38.023438 8.167969 3.335937 3.285156 6.046875 7.15625 8 11.414062 2.816406-2.226562 6.304687-3.4375 9.894531-3.441406 7.464844 0 15.332031 5.335938 16.796875 17.121094 13.546875 3.332031 20.988281 12.027344 20.988281 24.640625.054688 18.425781-13.734375 25.066406-26.613281 25.066406zm0 0"/><path d="m124.828125 150.640625h-.828125v-13.949219c-.203125-4.230468-3.761719-7.519531-8-7.382812h-37.253906c-4.234375-.136719-7.796875 3.152344-8 7.382812v13.949219h-.824219c-4.269531.339844-7.464844 4.050781-7.175781 8.320313v7.679687h5.332031v-7.679687c0-1.707032.988281-2.988282 1.84375-2.988282h54.90625c.851563 0 1.839844 1.28125 1.839844 2.988282v7.679687h5.332031v-7.679687c.292969-4.269532-2.90625-7.980469-7.171875-8.320313zm-48.828125-13.949219c0-1.117187 1.253906-2.050781 2.667969-2.050781h37.253906c1.492187 0 2.664063.933594 2.664063 2.050781v13.949219h-42.664063zm0 0"/><path d="m81.332031 81.308594c-5.359375.011718-9.875 4.003906-10.550781 9.320312s2.699219 10.308594 7.886719 11.664063v24.347656h5.332031v-24.347656c5.183594-1.355469 8.558594-6.347657 7.882812-11.664063-.675781-5.316406-5.191406-9.308594-10.550781-9.320312zm0 16c-2.945312 0-5.332031-2.390625-5.332031-5.335938 0-2.945312 2.386719-5.332031 5.332031-5.332031 2.945313 0 5.335938 2.386719 5.335938 5.332031 0 2.945313-2.390625 5.335938-5.335938 5.335938zm0 0"/><path d="m97.171875 62.640625c-5.367187.042969-9.867187 4.070313-10.503906 9.402344s2.789062 10.304687 8 11.609375v42.988281h5.332031v-43.066406c5.113281-1.441407 8.390625-6.429688 7.679688-11.695313-.714844-5.265625-5.191407-9.207031-10.507813-9.238281zm0 16c-2.945313 0-5.332031-2.386719-5.332031-5.332031 0-2.949219 2.386718-5.335938 5.332031-5.335938s5.335937 2.386719 5.335937 5.335938c0 2.945312-2.390624 5.332031-5.335937 5.332031zm0 0"/><path d="m113.332031 81.308594c-5.359375.011718-9.875 4.003906-10.550781 9.320312s2.699219 10.308594 7.886719 11.664063v24.347656h5.332031v-24.347656c5.183594-1.355469 8.558594-6.347657 7.882812-11.664063-.675781-5.316406-5.191406-9.308594-10.550781-9.320312zm0 16c-2.945312 0-5.332031-2.390625-5.332031-5.335938 0-2.945312 2.386719-5.332031 5.332031-5.332031 2.945313 0 5.335938 2.386719 5.335938 5.332031 0 2.945313-2.390625 5.335938-5.335938 5.335938zm0 0"/></g></svg>