<svg height="200" viewBox="0 0 200 200" width="200" xmlns="http://www.w3.org/2000/svg" xmlns:xlink="http://www.w3.org/1999/xlink"><clipPath id="a"><path d="m200 100c0 55.226562-44.773438 100-100 100s-100-44.773438-100-100 44.773438-100 100-100 100 44.773438 100 100zm0 0"/></clipPath><clipPath id="b"><path d="m51 51h98v98h-98zm0 0"/></clipPath><clipPath id="c"><path d="m200 100c0 55.226562-44.773438 100-100 100s-100-44.773438-100-100 44.773438-100 100-100 100 44.773438 100 100zm0 0"/></clipPath><g clip-path="url(#a)"><path d="m0 0h200v200h-200z" fill="#ffca28"/></g><g clip-path="url(#b)"><g clip-path="url(#c)"><path d="m100 51.386719c-26.832031 0-48.613281 21.78125-48.613281 48.613281s21.78125 48.613281 48.613281 48.613281 48.613281-21.78125 48.613281-48.613281-21.78125-48.613281-48.613281-48.613281zm-4.863281 87.164062c-19.199219-2.382812-34.023438-18.71875-34.023438-38.550781 0-3.011719.386719-5.882812 1.019531-8.699219l23.285157 23.28125v4.863281c0 5.347657 4.375 9.722657 9.71875 9.722657zm33.542969-12.351562c-1.261719-3.9375-4.859376-6.753907-9.234376-6.753907h-4.863281v-14.582031c-.007812-2.683593-2.179687-4.855469-4.859375-4.863281h-29.167968v-9.722656h9.722656c2.683594-.007813 4.855468-2.179688 4.859375-4.859375v-9.722657h9.726562c5.34375 0 9.71875-4.375 9.71875-9.722656v-1.992187c14.242188 5.78125 24.304688 19.734375 24.304688 36.019531 0 10.113281-3.886719 19.300781-10.207031 26.199219zm0 0" fill="#fff" fill-rule="evenodd"/></g></g></svg>