<svg height="200" viewBox="0 0 200 200" width="200" xmlns="http://www.w3.org/2000/svg" xmlns:xlink="http://www.w3.org/1999/xlink"><linearGradient id="a" gradientTransform="matrix(.962471 .264824 .264824 -.962471 8.703897 169.081368)" gradientUnits="userSpaceOnUse" x1="164.658295" x2="-11.7253" y1="112.119102" y2="47.9207"><stop offset=".2986" stop-color="#0097ce"/><stop offset=".3791" stop-color="#0999c5"/><stop offset=".5119" stop-color="#229dad"/><stop offset=".6469" stop-color="#42a38f"/><stop offset=".7352" stop-color="#5dad82"/><stop offset=".9239" stop-color="#a1c661"/><stop offset="1" stop-color="#bed153"/></linearGradient><linearGradient id="b" gradientTransform="matrix(.962471 .264824 .264824 -.962471 8.703897 169.081368)" gradientUnits="userSpaceOnUse" x1="-37.624802" x2="150.252502" y1="106.950798" y2="106.950798"><stop offset=".0819914" stop-color="#3d65af"/><stop offset=".2305" stop-color="#2372b8"/><stop offset=".5058" stop-color="#00b8bb"/></linearGradient><filter id="c" height="100%" width="100%" x="0%" y="0%"><feColorMatrix in="SourceGraphic" type="matrix" values="0 0 0 0 1 0 0 0 0 1 0 0 0 0 1 0 0 0 1 0"/></filter><mask id="d"><g filter="url(#c)"><path d="m0 0h200v200h-200z" fill-opacity=".8"/></g></mask><linearGradient id="e"><stop offset=".1297"/><stop offset=".3277" stop-color="#00334b"/><stop offset=".5276" stop-color="#006190"/><stop offset=".6723" stop-color="#007fbb"/><stop offset=".7457" stop-color="#008acc"/></linearGradient><linearGradient id="f" gradientTransform="matrix(.962471 .264824 .264824 -.962471 8.703897 169.081368)" gradientUnits="userSpaceOnUse" x1="-37.613899" x2="64.3964" xlink:href="#e" y1="127.816704" y2="127.816704"/><clipPath id="g"><path d="m0 0h200v200h-200z"/></clipPath><mask id="h"><g filter="url(#c)"><path d="m0 0h200v200h-200z" fill-opacity=".8"/></g></mask><linearGradient id="i" gradientTransform="matrix(.962471 .264824 .264824 -.962471 8.703897 169.081368)" gradientUnits="userSpaceOnUse" x1="-37.613899" x2="64.3964" xlink:href="#e" y1="131.457901" y2="131.457901"/><clipPath id="j"><path d="m0 0h200v200h-200z"/></clipPath><mask id="k"><g filter="url(#c)"><path d="m0 0h200v200h-200z" fill-opacity=".8"/></g></mask><linearGradient id="l" gradientTransform="matrix(.962471 .264824 .264824 -.962471 8.703897 169.081368)" gradientUnits="userSpaceOnUse" x1="-37.613899" x2="64.3964" xlink:href="#e" y1="131.058899" y2="131.058899"/><clipPath id="m"><path d="m0 0h200v200h-200z"/></clipPath><linearGradient id="n" gradientTransform="matrix(.962471 .264824 .264824 -.962471 8.703897 169.081368)" gradientUnits="userSpaceOnUse" x1="-22.3552" x2="64.334198" y1="110.808098" y2="110.808098"><stop offset=".1297" stop-color="#2483c5"/><stop offset=".1672" stop-color="#2486c7"/><stop offset=".676" stop-color="#29b1df"/><stop offset=".9352" stop-color="#2bc2e8"/></linearGradient><mask id="o"><g filter="url(#c)"><path d="m0 0h200v200h-200z" fill-opacity=".8"/></g></mask><linearGradient id="p" gradientTransform="matrix(.962471 .264824 .264824 -.962471 8.703897 169.081368)" gradientUnits="userSpaceOnUse" x1="-37.613899" x2="64.3964" xlink:href="#e" y1="123.0783" y2="123.0783"/><clipPath id="q"><path d="m0 0h200v200h-200z"/></clipPath><mask id="r"><g filter="url(#c)"><path d="m0 0h200v200h-200z" fill-opacity=".3"/></g></mask><clipPath id="s"><path d="m0 0h200v200h-200z"/></clipPath><mask id="t"><g filter="url(#c)"><path d="m0 0h200v200h-200z" fill-opacity=".3"/></g></mask><linearGradient id="u"><stop offset="0" stop-color="#682c90"/><stop offset=".496" stop-color="#817cb9"/><stop offset="1" stop-color="#fff"/></linearGradient><linearGradient id="v" gradientTransform="matrix(.962471 .264824 .264824 -.962471 8.703897 169.081368)" gradientUnits="userSpaceOnUse" x1="49.150799" x2="-2.5184" xlink:href="#u" y1="131.707306" y2="131.707306"/><clipPath id="w"><path d="m0 0h200v200h-200z"/></clipPath><mask id="x"><g filter="url(#c)"><path d="m0 0h200v200h-200z" fill-opacity=".3"/></g></mask><linearGradient id="y" gradientTransform="matrix(.962471 .264824 .264824 -.962471 8.703897 169.081368)" gradientUnits="userSpaceOnUse" x1="49.150799" x2="-2.5184" xlink:href="#u" y1="125.622101" y2="125.622101"/><clipPath id="z"><path d="m0 0h200v200h-200z"/></clipPath><mask id="A"><g filter="url(#c)"><path d="m0 0h200v200h-200z" fill-opacity=".3"/></g></mask><linearGradient id="B" gradientTransform="matrix(.962471 .264824 .264824 -.962471 8.703897 169.081368)" gradientUnits="userSpaceOnUse" x1="49.150799" x2="-2.5184" xlink:href="#u" y1="130.759598" y2="130.759598"/><clipPath id="C"><path d="m0 0h200v200h-200z"/></clipPath><linearGradient id="D" gradientTransform="matrix(.962471 .264824 .264824 -.962471 8.703897 169.081368)" gradientUnits="userSpaceOnUse" x1="-34.4258" x2="48.366901" y1="92.901604" y2="92.901604"><stop offset=".1297" stop-color="#3b67ad"/><stop offset=".5697" stop-color="#227caa"/><stop offset=".9352" stop-color="#118aa8"/></linearGradient><mask id="E"><g filter="url(#c)"><path d="m0 0h200v200h-200z" fill-opacity=".3"/></g></mask><linearGradient id="F" gradientTransform="matrix(.962471 .264824 .264824 -.962471 8.703897 169.081368)" gradientUnits="userSpaceOnUse" x1="49.150799" x2="-2.5184" xlink:href="#u" y1="131.258408" y2="131.258408"/><clipPath id="G"><path d="m0 0h200v200h-200z"/></clipPath><mask id="H"><g filter="url(#c)"><path d="m0 0h200v200h-200z" fill-opacity=".8"/></g></mask><linearGradient id="I" gradientTransform="matrix(.962471 .264824 .264824 -.962471 8.703897 169.081368)" gradientUnits="userSpaceOnUse" x1="-37.618099" x2="64.392197" xlink:href="#e" y1="111.276398" y2="111.276398"/><clipPath id="J"><path d="m0 0h200v200h-200z"/></clipPath><linearGradient id="K" gradientTransform="matrix(.962471 .264824 .264824 -.962471 8.703897 169.081368)" gradientUnits="userSpaceOnUse" x1="-37.618099" x2="45.380299" y1="111.276398" y2="111.276398"><stop offset=".1297" stop-color="#3a67b0"/><stop offset=".5622" stop-color="#357fbd"/><stop offset=".9352" stop-color="#3290c6"/></linearGradient><linearGradient id="L" gradientTransform="matrix(.962471 .264824 .264824 -.962471 8.703897 169.081368)" gradientUnits="userSpaceOnUse" x1="64.433998" x2="150.277893" y1="122.901001" y2="122.901001"><stop offset=".1724" stop-color="#4e5ca8"/><stop offset=".9937" stop-color="#1fc3f3"/></linearGradient><path d="m192.992188 62.261719c-4.292969-.597657-13.777344-.800781-32.542969 3.09375-2.296875.5-4.492188.800781-6.785157.699219-2.398437-.199219-4.992187-.898438-7.289062-1.597657-10.28125-3.492187-18.765625-2.394531-23.757812.199219-2.792969 1.5-4.988282 3.394531-7.386719 6.589844-3.09375 4.191406-9.582031 16.96875-18.464844 20.363281-4.992187 3.195313-10.382813 6.488281-15.074219 11.179687-2.996094 3.09375-3.792968 10.382813-11.679687 17.46875-8.785157 12.777344-18.867188 22.058594-29.148438 28.847657-14.871093 10.382812-27.347656 13.574219-27.347656 13.574219s33.039063 9.085937 69.273437-7.882813c27.550782-12.976563 41.824219-38.234375 45.121094-43.824219l17.964844-30.542968c1.597656-2.796876 4.492188-6.390626 7.1875-7.785157.898438-.5 1.699219-.800781 1.898438-1 1.996093-1 4.089843-1.796875 6.1875-2.59375 12.578124-4.492187 25.652343-4.894531 31.742187-5.589843.800781-.203126.699219-1.101563.101563-1.199219zm0 0" fill="url(#a)"/><path d="m192.992188 62.261719c-4.292969-.597657-13.777344-.800781-32.542969 3.09375-2.296875.5-4.492188.800781-6.785157.699219-2.398437-.199219-4.992187-.898438-7.289062-1.597657-10.582031-3.492187-18.667969-2.59375-23.757812.199219-2.792969 1.5-4.988282 3.394531-7.386719 6.589844-3.09375 4.191406-9.582031 16.96875-18.464844 20.363281-9.984375-9.382813-18.765625-17.269531-27.253906-24.257813-4.789063-3.792968-9.480469-7.386718-13.472657-9.980468-10.183593-6.988282-20.464843-13.277344-30.746093-18.167969-4.59375-2.097656-9.382813-3.992187-14.671875-5.988281-2.296875-.699219-3.59375.398437-3.996094 2.195312-.199219.597656-.398438 2.195313.601562 4.992188 2.292969 6.1875 5.6875 13.273437 9.78125 20.460937 1.496094 2.695313 3.195313 5.492188 4.992188 8.285157 8.285156 12.976562 18.664062 26.054687 29.246094 36.335937 2.296875 2.195313 4.492187 4.191406 6.886718 6.089844 2.996094 2.492187 6.089844 4.789062 8.984376 6.6875.300781.199219 1.796874 1.097656 2.796874 1.695312 1.996094 1.097657 4.691407 2.394531 6.386719 3.09375 8.386719 3.695313 15.671875 4.792969 22.0625 4.691407 11.078125.300781 20.0625-3.191407 24.453125-9.082032 1.796875-2.496094 3.59375-5.089844 5.09375-7.785156l17.964844-30.546875c1.597656-2.792969 4.492188-6.386719 7.1875-7.785156.898438-.5 1.699219-.796875 1.898438-1 1.894531-.898438 1.894531-.597657 3.890624-1.394531 12.777344-4.492188 28.050782-6.089844 34.140626-6.789063.699218-.101563.597656-1 0-1.097656zm0 0" fill="url(#b)"/><g clip-path="url(#g)" mask="url(#d)"><path d="m6.425781 36.507812c0-.300781.101563-.597656 0-.796874.101563.199218.101563.496093 0 .796874zm0 0" fill="url(#f)"/></g><g clip-path="url(#j)" mask="url(#h)"><path d="m14.8125 34.609375c-.199219-.097656-.300781-.097656-.5-.097656.300781.097656.597656.300781.898438.398437 0-.097656-.199219-.199218-.398438-.300781zm0 0" fill="url(#i)"/></g><g clip-path="url(#m)" mask="url(#k)"><path d="m17.90625 35.910156c-.101562 0-.300781-.101562-.398438-.101562.296876.101562.597657.300781.796876.300781-.199219-.101563-.296876-.199219-.398438-.199219zm0 0" fill="url(#l)"/></g><path d="m76.5 93.40625c7.089844.898438 13.976562.398438 20.164062-1.996094-5.988281-5.589844-11.679687-10.683594-16.96875-15.273437-2.695312-2.296875-5.289062-4.59375-7.785156-6.6875-.101562-.101563-.300781-.199219-.300781-.300781-.699219-.597657-1.296875-1.097657-1.894531-1.597657-.203125-.097656-.300782-.296875-.402344-.296875-4.789062-3.792968-9.480469-7.289062-13.273438-9.984375-10.183593-6.886719-20.363281-13.273437-30.644531-18.167969-.898437-.496093-1.796875-.796874-2.796875-1.296874-.300781-.097657-.597656-.296876-.796875-.296876 39.726563 21.460938 52.402344 40.925782 54.699219 55.898438zm0 0" fill="url(#n)"/><g clip-path="url(#q)" mask="url(#o)"><path d="m7.925781 42.296875c-.300781-.597656-.5-1.296875-.800781-1.996094.300781.597657.5 1.296875.800781 1.996094zm0 0" fill="url(#p)"/></g><g clip-path="url(#s)" mask="url(#r)"><path d="m6.425781 36.808594c0-.101563 0-.101563.101563-.199219 0 .097656 0 .097656-.101563.199219zm0 0" fill="#b496c8"/></g><g clip-path="url(#w)" mask="url(#t)"><path d="m10.71875 33.113281c1.296875.5 2.496094.898438 3.695312 1.398438-1.300781-.5-2.496093-1-3.695312-1.398438zm0 0" fill="url(#v)"/></g><g clip-path="url(#z)" mask="url(#x)"><path d="m6.425781 36.808594c0 .796875.199219 1.996094.699219 3.492187-.5-1.496093-.699219-2.695312-.699219-3.492187zm0 0" fill="url(#y)"/></g><g clip-path="url(#C)" mask="url(#A)"><path d="m21.199219 37.304688.601562.300781c-1.101562-.5-2.296875-.996094-3.496093-1.496094.398437.199219.699218.296875 1.097656.5.601562.199219 1.199218.398437 1.796875.695313zm0 0" fill="url(#B)"/></g><path d="m32.980469 72.441406c-10.683594-8.582031-20.765625-20.5625-25.054688-30.042968 9.980469 25.253906 35.933594 61.089843 59.09375 75.863281.398438.296875 1.796875 1.097656 2.894531 1.695312 2.992188-4.589843 8.484376-14.074219 6.585938-26.550781-14.273438-1.898438-29.644531-9.683594-43.519531-20.964844zm0 0" fill="url(#D)"/><g clip-path="url(#G)" mask="url(#E)"><path d="m17.507812 35.808594c-.699218-.300782-1.398437-.597656-2.097656-.898438.101563 0 .199219.101563.300782.101563.5.199219 1.097656.496093 1.796874.796875zm0 0" fill="url(#F)"/></g><g clip-path="url(#J)" mask="url(#H)"><path d="m32.980469 72.441406c13.875 11.28125 29.246093 18.96875 43.519531 20.863282-2.296875-14.871094-14.972656-34.4375-54.699219-55.699219-.203125-.097657-.5-.199219-.601562-.300781-.597657-.296876-1.195313-.496094-1.695313-.796876-.398437-.199218-.699218-.300781-1.097656-.5-.300781-.097656-.601562-.296874-.800781-.296874-.597657-.300782-1.195313-.5-1.894531-.699219-.101563 0-.199219-.101563-.300782-.101563-.300781-.097656-.597656-.300781-.898437-.398437-1.199219-.398438-2.394531-1-3.691407-1.398438-2.296874-.699219-3.59375.398438-4.09375 2.097657 0 .097656-.101562.296874-.101562.597656-.097656.199218 0 .5 0 .800781 0 .097656 0 .097656-.097656.199219 0 .796875.199218 1.996094.699218 3.492187.199219.699219.496094 1.398438.796876 2.097657 4.191406 9.480468 14.375 21.460937 24.957031 30.042968zm0 0" fill="url(#I)"/></g><path d="m32.980469 72.441406c13.875 11.28125 29.246093 18.96875 43.519531 20.863282-2.296875-14.871094-14.972656-34.4375-54.699219-55.699219-.203125-.097657-.5-.199219-.601562-.300781-.597657-.296876-1.195313-.496094-1.695313-.796876-.398437-.199218-.699218-.300781-1.097656-.5-.300781-.097656-.601562-.296874-.800781-.296874-.597657-.300782-1.195313-.5-1.894531-.699219-.101563 0-.199219-.101563-.300782-.101563-.300781-.097656-.597656-.300781-.898437-.398437-1.199219-.398438-2.394531-1-3.691407-1.398438-2.296874-.699219-3.59375.398438-4.09375 2.097657 0 .097656-.101562.296874-.101562.597656-.097656.199218 0 .5 0 .800781 0 .097656 0 .097656-.097656.199219 0 .796875.199218 1.996094.699218 3.492187.199219.699219.496094 1.398438.796876 2.097657 4.191406 9.480468 14.375 21.460937 24.957031 30.042968zm0 0" fill="url(#K)"/><path d="m192.992188 62.261719c-4.292969-.597657-13.777344-.800781-32.542969 3.09375-2.296875.5-4.492188.800781-6.785157.699219-2.398437-.199219-4.992187-.898438-7.289062-1.597657-5.988281-1.996093-11.078125-2.59375-15.171875-2.296875-3.59375.300782-6.988281 1.398438-9.882813 3.394532-2.097656 1.398437-4.09375 3.09375-5.988281 5.789062-3.09375 4.195312-9.582031 16.972656-18.46875 20.363281 6.988281 6.589844 17.769531 12.078125 27.851563 8.785157 9.683594-3.195313 15.671875-11.777344 17.566406-14.574219 3.996094-5.886719 6.191406-8.085938 6.390625-8.382813.5-.5 4.191406-4.792968 11.878906-7.386718 11.378907-3.792969 28.546875-6.089844 32.640625-6.488282.5-.402344.398438-1.300781-.199218-1.398437zm0 0" fill="url(#L)"/><path d="m137.945312 70.277344c1.59375.4375 2.53125 2.085937 2.09375 3.679687-.4375 1.597657-2.085937 2.535157-3.683593 2.09375-1.59375-.4375-2.53125-2.085937-2.089844-3.679687.4375-1.597656 2.085937-2.53125 3.679687-2.09375zm0 0" fill="#fff"/></svg>