<svg height="200" viewBox="0 0 200 200" width="200" xmlns="http://www.w3.org/2000/svg" xmlns:xlink="http://www.w3.org/1999/xlink"><linearGradient id="a" gradientTransform="matrix(1.885618 1.885618 -1.885618 1.885618 431.65332 -911.41333)" gradientUnits="userSpaceOnUse" x1="180.25" x2="180.25" y1="431.130005" y2="281.130005"><stop offset="0" stop-color="#1b660f"/><stop offset="1" stop-color="#6cae3e"/></linearGradient><path d="m0 0h200v200h-200z" fill="url(#a)"/><g fill="#fff"><path d="m38.667969 42.425781 19.4375 19.46875 3.789062-3.789062-19.46875-19.4375h14.90625v-5.335938h-21.332031c-1.472656 0-2.667969 1.195313-2.667969 2.667969v21.332031h5.335938zm0 0"/><path d="m164 33.332031h-21.332031v5.335938h14.90625l-19.46875 19.4375 3.789062 3.789062 19.4375-19.46875v14.90625h5.335938v-21.332031c0-1.472656-1.195313-2.667969-2.667969-2.667969zm0 0"/><path d="m58.105469 138.105469-19.4375 19.46875v-14.90625h-5.335938v21.332031c0 1.472656 1.195313 2.667969 2.667969 2.667969h21.332031v-5.335938h-14.90625l19.46875-19.4375zm0 0"/><path d="m161.332031 157.574219-19.4375-19.46875-3.789062 3.789062 19.46875 19.4375h-14.90625v5.335938h21.332031c1.472656 0 2.667969-1.195313 2.667969-2.667969v-21.332031h-5.335938zm0 0"/><path d="m78.933594 61.972656c9.664062-4.289062 20.976562-2.058594 28.292968 5.574219 3.179688 3.230469 5.589844 7.144531 7.039063 11.441406.335937.917969 1.144531 1.582031 2.113281 1.726563.96875.144531 1.941406-.25 2.527344-1.035156 1.640625-2.292969 4.273438-3.667969 7.09375-3.707032 4.105469 0 9.066406 3.148438 9.574219 12 .070312 1.207032.949219 2.214844 2.132812 2.453125 10.371094 2.1875 15.625 8 15.625 17.066407 0 8.585937-3.757812 13.679687-11.519531 15.574218l1.253906 5.171875c10.054688-2.425781 15.601563-9.8125 15.601563-20.746093 0-10.933594-6.347657-18.664063-17.949219-21.839844-1.359375-10.34375-8.210938-15.011719-14.71875-15.011719-2.972656-.027344-5.871094.90625-8.265625 2.667969-1.671875-3.585938-3.957031-6.855469-6.746094-9.65625-8.859375-9.132813-22.449219-11.808594-34.109375-6.71875-10.789062 5.074218-17.789062 15.8125-18.078125 27.734375v1.464843c-9.132812 2.90625-15.210937 11.542969-14.855469 21.121094v1.519532c.574219 8.988281 6.546876 16.734374 15.09375 19.574218l1.761719-5.039062c-6.511719-2.128906-11.082031-7.996094-11.546875-14.828125 0-.402344 0-.800781 0-1.226563-.425781-8.035156 5.179688-15.136718 13.09375-16.585937 1.207032-.3125 2.039063-1.421875 2-2.667969-.128906-1.035156-.203125-2.078125-.214844-3.121094.253907-9.804687 5.964844-18.644531 14.800782-22.90625zm0 0"/><path d="m142.535156 114.1875c.265625-.8125.128906-1.707031-.375-2.402344-.496094-.699218-1.300781-1.113281-2.160156-1.117187h-8c-.28125-2.296875-1.335938-4.433594-2.988281-6.054688-1.285157-1.292969-3.050781-2-4.878907-1.945312h-27.414062c-.691406-2.160157-2.027344-4.882813-4.078125-5.335938h-11.175781c-2.371094 0-3.945313 2.988281-4.746094 5.335938h-3.226562c-1.871094-.082031-3.695313.613281-5.039063 1.917969-1.992187 1.953124-3.117187 4.625-3.121094 7.414062v33.332031c0 1.472657 1.195313 2.667969 2.667969 2.667969h61.332031c1.144531-.011719 2.152344-.753906 2.507813-1.839844zm-6.242187 1.8125-4.292969 12.90625v-12.90625zm-9.625 26.667969h-56v-30.667969c-.03125-1.292969.449219-2.546875 1.332031-3.492188.3125-.347656.761719-.53125 1.226562-.507812h5.332032c1.414062.003906 2.582031-1.097656 2.667968-2.507812.261719-.984376.648438-1.933594 1.148438-2.824219h8.558594c.425781.855469.773437 1.746093 1.039062 2.664062 0 1.472657 1.195313 2.667969 2.667969 2.667969h29.546875c.402344.015625.777344.199219 1.039062.507812.917969.929688 1.433594 2.183594 1.441407 3.492188zm0 0"/></g></svg>