<svg height="200" viewBox="0 0 200 200" width="200" xmlns="http://www.w3.org/2000/svg"><g transform="matrix(.91525424 0 0 .91525424 8.474576 8.474576)"><path d="m0 0h200v96.023438l-.26953-.25c-.07031-3.492188-.11719-7.359376-.88672-10.742188-2.59375-17.886719-10.32813-35.007812-21.95703-48.929688-11.09766-13.339843-25.64063-23.6875-41.85547-29.746093-9.33984-3.378907-19.56641-5.824219-29.53125-6.070313-7.769531.050782-14.839844-.3515622-22.5 1.21875-1.910156.511719-3.941406.464844-5.71875 1.265625-1.726562.070313-3.160156.785157-4.78125 1.15625-23.921875 6.699219-44.984375 22.855469-57.875 44.132813-4.824219 7.886718-8.648438 16.542968-10.984375 25.464844-.742187 1.730468-.636719 3.507812-1.410156 5.195312-.246094 2.527344-1.003907 4.890625-1.207031 7.28125-.542969 2.519531-.519532 5.394531-.734376 8 .085938 7.51172-.425781 15.13672 1.136719 22.5 2.828125 17.78516 10.835938 34.78516 22.605469 48.5 15.488281 18.14844 37.464844 30.51562 61 33.85156 3.078125.72266 6.5625.78516 9.75.87891v.26953h-94.78125zm0 0" fill="#fff"/><path d="m105.5.285156c9.96484.246094 20.19141 2.691406 29.53125 6.070313 16.21484 6.058593 30.75781 16.40625 41.85547 29.746093 11.6289 13.921876 19.36328 31.042969 21.95703 48.929688.76953 3.382812.81641 7.25.88672 10.742188l.26953.25v8.203122h-.26953c.0742 3.03907-.3086 6.02735-.46094 9.05469-.44922 1.16797-.57422 2.51953-.71484 3.71875-3.07813 18.73437-11.95313 36.62891-24.89063 50.65625-10.2539 11.19922-23.02344 19.9375-37.1289 25.5-6.35938 2.54687-12.78125 4.18359-19.51172 5.48437-4.02344.67579-8.16406 1.10547-12.29688 1.08985l-.25.26953h-9.69531v-.26953c-3.1875-.0937-6.671875-.15625-9.75-.87891-23.535156-3.33594-45.511719-15.70312-61-33.85156-11.769531-13.71484-19.777344-30.71484-22.605469-48.5-1.5625-7.36328-1.050781-14.98828-1.136719-22.5.214844-2.605469.191407-5.480469.734376-8 .203124-2.390625.960937-4.753906 1.207031-7.28125.773437-1.6875.667969-3.464844 1.410156-5.195312 2.335937-8.921876 6.160156-17.578126 10.984375-25.464844 12.890625-21.277344 33.953125-37.433594 57.875-44.132813 1.621094-.371093 3.054688-1.085937 4.78125-1.15625 1.777344-.800781 3.808594-.753906 5.71875-1.265625 7.660156-1.5703122 14.730469-1.167968 22.5-1.21875zm0 0" fill="#141e2e"/><path d="m69.226562 42.230469c.757813-.06641 1.511719-.109375 2.273438-.101563 13.335938-.0039 26.664062 0 40-.0039 3.41016.08984 6.63672.71875 9.70313 2.15625 4.02343 1.867188 7.43359 5.035156 9.86328 8.71875 3.0625 4.625 4.03515 10.511719 3.26171 15.964844-.70312 5.304687-3.35937 9.949218-7.24218 13.605468l-.03516.429682c2.5 2.71875 5.00391 5.378906 6.07813 9 1.875 4.675781 1.83984 10.22656.52734 15.03125-1.69141 5.83984-6.04687 10.82422-11.29687 13.79297-3.78907 2.05078-8.07422 2.76562-12.35938 2.67187-13.164062-.008-26.335938.0156-39.5-.0117-2.925781-.14063-5.566406-2.44532-5.578125-5.48438-.01172-11.73047.0039-23.753906-.0078-35.5.054675-2.960948 2.679675-5.386729 5.585925-5.480479 13.824219-.03125 27.671875.003907 41.5-.019531 5.94531-.15625 11.11328-5.539062 10.98438-11.5.26953-6.171875-5.28516-11.851562-11.48438-11.683594-13.65625.0039-27.351562-.01953-41 .0078-3.933594-.265625-6.710938-4.222657-5.210938-8.003907.75-1.714843 2.207032-2.957031 3.9375-3.589843zm0 0" fill="#fff"/><path d="m76.21875 88.71875c.40625-.117188.832031-.160156 1.28125-.125 11.320312.0078 22.67578 0 34 .0078 6.09375-.0078 11.51563 5.261719 11.48047 11.398438.24609 6.17578-4.80078 11.61328-10.98047 11.89844-11.15625.043-22.34375-.004-33.5.0234-.730469-.0625-1.59375.13281-2.269531-.15235-.140625-.39062-.191407-.8164-.144531-1.26953 0-6.5 0-13 0-19.5.04297-.734375-.121094-1.585938.132812-2.28125zm0 0" fill="#141e2e"/><path d="m199.73047 104.22656h.26953v95.77344h-95.52344l.25-.26953c4.13282.0156 8.27344-.41406 12.29688-1.08985 6.73047-1.30078 13.15234-2.9375 19.51172-5.48437 14.10546-5.5625 26.875-14.30078 37.1289-25.5 12.9375-14.02734 21.8125-31.92188 24.89063-50.65625.14062-1.19922.26562-2.55078.71484-3.71875.15234-3.02734.53516-6.01562.46094-9.05469zm0 0" fill="#fff"/><path d="m70.5 146.80078c19.136719-.0273 38.35547 0 57.5-.0117.98828.0625 2.25391-.0156 3.10937.53125 2.92188 1.23438 4.21485 4.83985 2.84375 7.67969-.97265 2.12109-3.11328 3.48828-5.45312 3.42969-19.14453.0117-38.363281-.008-57.5.0117-.644531-.0664-1.441406 0-2.03125-.28516-3.277344-.94141-4.917969-4.67969-3.667969-7.79688.839844-2.12109 2.902344-3.55859 5.199219-3.55859zm0 0" fill="#57bfa3"/></g></svg>