<svg height="200" viewBox="0 0 200 200" width="200" xmlns="http://www.w3.org/2000/svg" xmlns:xlink="http://www.w3.org/1999/xlink"><linearGradient id="a" gradientTransform="matrix(0 2.666667 -2.666667 0 -138.666667 269.333333)" gradientUnits="userSpaceOnUse" x1="-10.47" x2="-116.529999" y1="-36.470001" y2="-142.529999"><stop offset="0" stop-color="#2e27ad"/><stop offset="1" stop-color="#527fff"/></linearGradient><path d="m0 0h200v200h-200z" fill="url(#a)"/><path d="m118.585938 86.453125c2.257812 1.078125 4.121093 2.828125 5.335937 5.011719v-38.878906c0-12.507813-23.363281-19.253907-45.335937-19.253907-21.972657 0-45.332032 6.746094-45.332032 19.253907v94.828124c0 12.507813 23.359375 19.253907 45.332032 19.253907 21.972656 0 45.335937-6.746094 45.335937-19.253907v-12.746093h-5.335937v12.746093c0 6.585938-16.425782 13.917969-40 13.917969-23.574219 0-40-7.332031-40-13.917969v-19.789062c8 6.507812 24.453124 9.949219 40 9.949219 4.539062 0 9.074218-.292969 13.574218-.882813-1.132812-1.5-1.949218-3.214844-2.398437-5.039062-3.714844.394531-7.441407.589844-11.175781.585937-23.492188 0-40-7.332031-40-13.917969h.082031v-23.28125c8 6.507813 24.453125 9.949219 40 9.949219 7.996093.058594 15.972656-.835937 23.757812-2.667969-.6875-1.542968-1.042969-3.214843-1.039062-4.90625v-.292968c-7.433594 1.816406-15.066407 2.710937-22.71875 2.664062-23.496094 0-40-7.332031-40-13.917968v-23.734376c8.183593 6.453126 24.453125 9.839844 40 9.839844s31.8125-3.386718 40-9.839844v23.734376c-.011719.195312-.039063.394531-.082031.585937zm-40-19.945313c-23.574219 0-40-7.335937-40-13.921874 0-6.585938 16.425781-13.917969 40-13.917969 23.574218 0 40 7.332031 40 13.917969 0 6.585937-16.347657 13.921874-39.917969 13.921874zm81.414062 68.160157c-3.683594 0-6.667969 2.984375-6.667969 6.664062 0 .476563.054688.953125.160157 1.414063l-8.824219 5.519531c-1.421875-1.355469-3.195313-2.28125-5.121094-2.664063l-.535156-11.867187c4.957031-1.214844 8.832031-5.070313 10.070312-10.015625 1.242188-4.949219-.355469-10.175781-4.148437-13.585938l8.320312-14.132812c.859375.28125 1.761719.425781 2.667969.425781 5.152344 0 9.332031-4.179687 9.332031-9.332031 0-5.15625-4.179687-9.332031-9.332031-9.332031-5.15625 0-9.335937 4.175781-9.335937 9.332031-.007813 2.175781.757812 4.285156 2.160156 5.945312l-8.480469 14.269532c-1.460937-.476563-2.996094-.691406-4.53125-.640625-2.65625-.015625-5.257813.765625-7.46875 2.238281l-8.746094-8.960938c.335938-.828124.5-1.71875.480469-2.613281 0-3.679687-2.984375-6.664062-6.667969-6.664062-3.679687 0-6.664062 2.984375-6.664062 6.664062 0 3.683594 2.984375 6.667969 6.664062 6.667969.800781-.003906 1.597657-.148438 2.347657-.425781l8.746093 8.933593c-1.632812 2.285157-2.5 5.03125-2.480469 7.839844l-10.320312 2.320313c-2.648438-3.753907-7.640625-5.007813-11.75-2.957031-4.109375 2.046874-6.113281 6.789062-4.710938 11.164062 1.398438 4.375 5.78125 7.074219 10.316407 6.355469 4.539062-.71875 7.871093-4.636719 7.851562-9.230469.015625-.089844.015625-.179688 0-.265625l9.734375-2.027344c1.871094 4.421875 5.914063 7.546875 10.667969 8.238281l.53125 11.839844c-5.257813 1.578125-8.460937 6.890625-7.398437 12.28125 1.0625 5.386719 6.039062 9.085938 11.503906 8.550782 5.464844-.53125 9.628906-5.125 9.628906-10.617188.007812-1.085938-.160156-2.167969-.507812-3.199219l9.148437-5.707031c1.015625.601562 2.179687.914062 3.359375.90625 3.683594 0 6.667969-2.984375 6.667969-6.667969 0-3.679687-2.984375-6.664062-6.667969-6.664062zm-4-51.496094c2.210938 0 4 1.792969 4 4 0 2.210937-1.789062 4-4 4s-4-1.789063-4-4c0-2.207031 1.789062-4 4-4zm-42.667969 15.496094c-.734375 0-1.332031-.597657-1.332031-1.335938 0-.734375.597656-1.332031 1.332031-1.332031.738281 0 1.335938.597656 1.335938 1.332031 0 .738281-.597657 1.335938-1.335938 1.335938zm-9.332031 33.332031c-2.210938 0-4-1.789062-4-4s1.789062-4 4-4 4 1.789062 4 4-1.789062 4-4 4zm23.28125-11.652344c0-4.667968 3.785156-8.453125 8.453125-8.453125s8.453125 3.785157 8.453125 8.453125c0 4.667969-3.785156 8.453125-8.453125 8.453125s-8.453125-3.785156-8.453125-8.453125zm10.050781 40.984375c-2.945312 0-5.332031-2.386719-5.332031-5.332031s2.386719-5.332031 5.332031-5.332031c2.945313 0 5.335938 2.386719 5.335938 5.332031s-2.390625 5.332031-5.335938 5.332031zm22.667969-18.664062c-.738281 0-1.332031-.597657-1.332031-1.335938 0-.734375.59375-1.332031 1.332031-1.332031s1.332031.597656 1.332031 1.332031c0 .738281-.59375 1.335938-1.332031 1.335938zm0 0" fill="#fff"/></svg>