<svg height="200" viewBox="0 0 200 200" width="200" xmlns="http://www.w3.org/2000/svg"><path d="m39.199219 131.199219h124v15.199219h-124zm0 0" fill="#68217a"/><path d="m24.480469 125.808594 59.960937-59.960938 10.746094 10.75-59.960938 59.957032zm91.433593-59.863282 59.960938 59.957032-10.742188 10.75-59.964843-59.960938zm0 0" fill="#68217a"/><path d="m100 38.800781c-12.398438 0-22.398438 10-22.398438 22.398438 0 12.402343 10 22.402343 22.398438 22.402343s22.398438-10 22.398438-22.402343c0-12.398438-10-22.398438-22.398438-22.398438zm0 29.597657c-4 0-7.199219-3.199219-7.199219-7.199219s3.199219-7.199219 7.199219-7.199219 7.199219 3.199219 7.199219 7.199219-3.199219 7.199219-7.199219 7.199219zm-77.601562 48c-12.398438 0-22.398438 10-22.398438 22.402343 0 12.398438 10 22.398438 22.398438 22.398438 12.402343 0 22.402343-10 22.402343-22.398438 0-12.402343-10-22.402343-22.402343-22.402343zm0 29.601562c-4 0-7.199219-3.199219-7.199219-7.199219s3.199219-7.199219 7.199219-7.199219 7.203124 3.199219 7.203124 7.199219-3.203124 7.199219-7.203124 7.199219zm155.203124-29.601562c-12.402343 0-22.402343 10-22.402343 22.402343 0 12.398438 10 22.398438 22.402343 22.398438 12.398438 0 22.398438-10 22.398438-22.398438 0-12.402343-10-22.402343-22.398438-22.402343zm0 29.601562c-4 0-7.203124-3.199219-7.203124-7.199219s3.203124-7.199219 7.203124-7.199219 7.199219 3.199219 7.199219 7.199219-3.199219 7.199219-7.199219 7.199219zm0 0" fill="#7fba00"/></svg>