<svg height="200" viewBox="0 0 200 200" width="200" xmlns="http://www.w3.org/2000/svg"><path d="m92.682347 2.5840531c1.505674.2941411 2.610247 1.1559963 4.239339.8885952 3.091564-.4175575 5.932194-.6067954 8.565074 1.3658034 1.91295 1.3514058 2.99694 3.9040598 1.51801 5.9856763-2.38809 2.846796-7.104642 3.433022-10.142736 1.2609-1.787475-1.219761-3.490616-2.3983837-5.564004-3.0936278-1.367861 1.2979258-2.783031 2.5300278-4.399781 3.5152998-2.464206 1.518016-4.449146 3.727162-6.300386 5.936309-4.712435 5.790268-6.973005 13.226081-7.631223 20.573447-.726098 8.978514.454582 18.273794 3.844408 26.649627 3.177962 8.07552 6.201655 16.278574 9.879451 24.14634 1.384317 3.015463 3.262296 5.736787 5.382995 8.281213 1.443966 1.836846 3.494729 3.414514 4.566392 5.485844.545087 1.16217-.01235 2.23588-.835115 3.07512-1.353463 1.37403-3.62226 1.64555-5.438532 1.32878-1.125144-.17279-1.787475-.95649-2.283196-1.91912-.970872-1.93969-1.460422-4.1797-2.174179-6.23457-4.475886-11.584648-9.241802-23.066451-13.503767-34.739549-.627365-1.742221-1.100459-3.527635-1.485105-5.333625-1.425456-6.670636-2.165952-13.466743-1.766907-20.287534.458697-7.242462 2.379872-14.62891 6.125548-20.886102 3.607861-6.185198 8.801618-11.3768977 15.015613-14.951848.74461-.407273 1.546813-.8700829 2.388101-1.0469789zm0 0" fill="#420f00"/><path d="m115.41352 89.87002c-.75078-.0082-1.49745.01854-2.24001.08845-5.30688.230378-7.86776 4.031591-12.78795 5.382992-2.86942.75078-5.689475 1.277355-8.312066 2.752176 1.443966 1.836845 3.494729 3.414512 4.566392 5.485842.545087 1.16217-.01235 2.23588-.835115 3.07512-1.353463 1.37403-3.62226 1.64555-5.438532 1.32878-1.125144-.17279-1.787475-.95649-2.283196-1.91912-.970872-1.93969-1.460422-4.1797-2.174179-6.234568-4.562277 1.892368-9.2562 3.433018-13.773225 5.450868-2.599964 1.17863-5.428248 2.24-7.783435 3.86293-4.453262 3.27874-6.911297 8.21333-7.923308 13.5593-.944132 5.21844-.907108 10.76188.487493 15.89804 1.805987 6.64801 5.123821 13.07798 8.768707 18.89703 1.090174 1.70932 2.11247 3.50915 3.365143 5.10121 2.546483 2.84267 5.31923 5.45088 8.591811 7.44199 3.700422 2.34285 7.571571 3.59963 11.617559 5.1814 5.129992 1.93353 10.017265 3.65105 15.579211 3.6593 5.8746.16043 11.35222-1.49128 16.60562-3.98017 5.50025-2.69047 10.61173-5.88078 14.94775-10.24354 6.04737-6.25925 9.68197-14.43966 10.79477-23.02736.42168-3.08746.31677-6.08647.33529-9.18215.15426-7.81017-1.56945-15.71292-4.93254-22.75997-2.50123-5.08268-5.80261-9.704605-10.16947-13.355667-2.61848-2.91056-6.57396-4.687749-10.31758-5.609255-2.17623-.491606-4.44092-.833058-6.68914-.853626zm0 0" fill="#ae0202"/><path d="m69.050239 162.59907c2.546483 2.84267 5.31923 5.45088 8.591811 7.44199 3.700422 2.34285 7.571571 3.59963 11.617559 5.1814 5.129992 1.93146 10.017265 3.65105 15.579211 3.6593 5.8746.16043 11.35222-1.49128 16.60562-3.98017 5.50025-2.68842 10.61173-5.88283 14.94775-10.24354 1.77511 2.55678 3.82588 4.61577 4.83996 7.58187 1.29175 3.87113 1.05314 8.3244-1.02231 11.88907-1.88826 3.60991-5.21227 6.13172-8.75636 7.97679-5.65245 2.7892-12.18938 3.88555-18.42601 4.3175-3.26846.32088-6.51841.48543-9.79511.13165-6.851648-.47722-13.610731-1.43781-20.215544-3.36104-3.934913-1.13748-7.699101-2.48066-11.185604-4.6713-2.986666-1.8862-5.705932-3.82177-7.583913-6.88661-2.056933-3.33839-3.233499-7.52014-1.808044-11.32753 1.203307-3.36103 3.587291-5.88694 6.610984-7.70938zm0 0" fill="#c7c7c7"/></svg>