<svg height="200" viewBox="0 0 200 200" width="200" xmlns="http://www.w3.org/2000/svg" xmlns:xlink="http://www.w3.org/1999/xlink"><linearGradient id="a"><stop offset="0" stop-color="#f5bc13"/><stop offset="1" stop-color="#eb820d"/></linearGradient><linearGradient id="b" gradientTransform="matrix(11.71273 0 0 -15.496109 7355.955965 9496.869179)" gradientUnits="userSpaceOnUse" x1="-620.609985" x2="-620.609985" xlink:href="#a" y1="607.539978" y2="605.090027"/><linearGradient id="c" gradientTransform="matrix(11.645937 0 0 -14.336763 7335.355067 8775.680275)" gradientUnits="userSpaceOnUse" x1="-617.429993" x2="-617.429993" xlink:href="#a" y1="606.25" y2="603.799988"/><linearGradient id="d" gradientTransform="matrix(11.722272 0 0 -14.336763 7337.802519 8777.316568)" gradientUnits="userSpaceOnUse" x1="-623.599976" x2="-623.599976" xlink:href="#a" y1="606.26001" y2="603.809998"/><linearGradient id="e" gradientTransform="matrix(11.331053 0 0 -12.309101 7093.471565 7515.185434)" gradientUnits="userSpaceOnUse" x1="-621.099976" x2="-621.099976" xlink:href="#a" y1="603.659973" y2="601.210022"/><linearGradient id="f" gradientTransform="matrix(11.087733 0 0 -12.313872 6959.373772 7517.050491)" gradientUnits="userSpaceOnUse" x1="-617.280029" x2="-617.280029" xlink:href="#a" y1="603.659973" y2="601.210022"/><linearGradient id="g" gradientTransform="matrix(11.087733 0 0 -12.313872 6983.405202 7517.036514)" gradientUnits="userSpaceOnUse" x1="-614.150024" x2="-614.150024" xlink:href="#a" y1="603.659973" y2="601.210022"/><path d="m186.285156 79.828125c-.761718-.136719-1.535156-.199219-2.308594-.195313h-16.140624c-3.214844 0-5.214844.617188-6.480469 2.253907-1.617188-1.449219-3.710938-2.25-5.882813-2.253907h-.03125c-.601562 0-1.207031-.027343-1.808594-.027343-2.238281 0-4.476562.121093-6.703124.363281l-.589844.0625c-.714844-.277344-1.476563-.414062-2.238282-.402344h-6.648437c-.28125 0-.566406.019532-.847656.050782-1.792969.214843-3.4375 1.109374-4.589844 2.5-1.214844-1.265626-2.820313-2.09375-4.554687-2.351563-.765626-.136719-1.539063-.199219-2.316407-.195313h-16.125c-3.101562 0-5.066406.574219-6.339843 2.070313-1.527344-1.34375-3.492188-2.085937-5.527344-2.082031-.226563 0-.476563 0-.699219.027344-1.136719.03125-2.136719.050781-3.058594.050781-1.0625 0-2.035156 0-2.96875-.066407-1.226562-1.789062-3.257812-2.859374-5.429687-2.863281-.210938 0-.425782.011719-.636719.035157-.671875.023437-1.433594.035156-2.351563.035156h-3.3125c-3.257812 0-5.628906 1.628906-6.617187 4.347656-1.105469-.761719-2.390625-1.234375-3.730469-1.363281h-.140625c-.546875-.082031-7.738281-.191407-12.570312-.191407-1.597657 0-2.9375 0-3.976563.035157h-.113281c-2.183594.097656-4.289063.859375-6.035156 2.175781-1.113281-1.433594-2.835938-2.25-4.648438-2.210938h-5.652343c-1.570313-.019531-3.117188.398438-4.464844 1.210938-.960938-.839844-2.199219-1.296875-3.476563-1.28125h-2.699219c-2.152343 0-4.816406.027344-5.582031.0625-1.742187.0625-5.875.839844-6.292969 6.679688-.203124 1.519531-2.386718 15.699218-3.871093 25.128906-.425781 1.828125-.042969 3.753906 1.050781 5.285156 1.152344 1.503906 2.960938 2.367188 4.855469 2.3125h8.050781c.269531 0 .539062-.015625.808594-.054688.304687.910157.792968 1.75 1.433594 2.464844 2.179687 2.425782 5.246093 2.457032 6.386718 2.472656h.195313c.574219 0 1.253906.03125 2.214843.03125h2.09375c2.019532 0 5.574219-.742187 6.679688-5.722656 1.339844.5625 2.78125.835938 4.234375.804688h13.671875c.285156 0 .578125.027344.863281.027344 1.949219.007812 3.878907-.417969 5.644531-1.253907l.066407-.03125.066406-.035156c.511719-.277344 1-.597656 1.464844-.953125.132812.199219.28125.390625.441406.570312 1.097656 1.101563 2.59375 1.710938 4.148437 1.6875h5.523438c.476562 0 .898438 0 1.328125.046876h.375c.609375-.003907 1.21875-.066407 1.8125-.191407.1875.914063.597656 1.769531 1.1875 2.488281 1.6875 2.066407 4.296875 2.472657 6.601563 2.597657h.097656c.53125 0 1.175781.023437 1.824218.023437h2.917969c2.515625 0 5.640625-1.058594 6.484375-6.105468v-.082032c1.277344.835938 2.769532 1.277344 4.292969 1.273438.230469 0 .460937-.007813.6875-.027344h12.925781c.425782 0 .878906.027344 1.355469.027344 3.402344 0 5.722656-.882813 7.3125-2.125.027344.035156.046875.074218.078125.105468 1.15625 1.277344 2.8125 1.988282 4.535156 1.949219h7.210938c.425781 0 .847656-.039062 1.269531-.117187.230469.996094.6875 1.921875 1.335937 2.710937.890626 1.082031 2.554688 2.386719 5.425782 2.386719h1.988281c1.546875 0 2.738281 0 3.527344-.03125h.117187c5.667969 0 6.792969-3.734375 6.964844-5.960938v-.085937c1.234375.753906 2.652344 1.152344 4.097656 1.152344.230469 0 .457032-.007813.6875-.027344h12.890625c.417969 0 .878907.027344 1.351563.027344 7.632812 0 9.871094-4.46875 10.496094-7.382813.476562-1.558594 1.070312-5.472656 2.808593-20.460937.121094-1.039063.207031-1.800781.25-2.136719.03125-.179688.054688-.363281.074219-.542969.460938-4.246093-2.519531-8.101562-6.746094-8.722656zm0 0" fill="#fff"/><path d="m77.203125 114.355469h-4.007813c-.683593 0-1.035156-.304688-1.011718-.992188.046875-1.171875 3.890625-27.125 4.054687-29.578125.09375-1.347656.515625-2.359375 2.589844-2.308594 1.949219 0 3.925781.042969 5.882813-.035156.851562-.128906 1.679687.328125 2.027343 1.113282 0 1.949218 2.023438 1.644531 3.296875 1.714843 2.238282.121094 4.476563.097657 6.714844.027344 2.023438-.222656 3.84375 1.238281 4.066406 3.261719.042969.316406.042969.636718 0 .953125-.421875 2.710937-3.839844 25.792969-3.910156 27.792969-.347656 1.644531-.210938 3.03125-2.023438 3.015624-.753906 0-3.128906.046876-4.59375 0-4.375-.234374-3.507812-1.460937-3.273437-3.722656.023437-1.460937 2.496094-22.777344 2.664063-24.753906.28125-1.882812-.257813-2.285156-3.417969-2.097656-.753907.476562-.683594.257812-.890625 1.550781-.023438 1.429687-2.832032 21.148437-2.863282 21.980469-.261718 1.859375-.566406 2.117187-2.148437 2.140625-1.035156-.070313-2.097656-.070313-3.148437-.070313zm0 0" fill="url(#b)"/><path d="m143.753906 84.28125c.351563 0 .824219-.046875 1.015625.160156-.097656 1.011719 2.542969.957032 2.660157.144532 2.644531-.285157 5.300781-.386719 7.960937-.308594 2.328125-.035156 4.246094 1.816406 4.292969 4.144531v.191406c0 1.082031-3.816406 28.304688-3.980469 29.035157-.09375 1.246093-.425781 1.675781-2.472656 1.644531-1.769531.050781-5.464844.03125-5.464844.03125-1.976563 0-2.898437-1.113281-2.046875-5.421875.09375-.753906 3.242188-24.46875 3.242188-24.46875.324218-1.246094-2.859376-1.15625-3.648438-.753906-.992188.519531-.824219 1.882812-1.058594 3.015624-.097656.542969-2.105468 18.820313-2.828125 21.195313-.28125.957031-.636719 1.460937-1.648437 1.460937h-7.183594c-1.390625 0-1.507812-.777343-1.339844-2.335937l3.773438-25.007813c-.078125-.636718.101562-1.285156.5-1.792968.398437-.503906.980468-.832032 1.621094-.910156.1875-.023438.375-.023438.5625 0 1.027343-.050782 5.015624-.050782 6.042968-.023438zm0 0" fill="url(#c)"/><path d="m27.203125 84.234375c.699219-.050781.679687.476563.609375 1.152344-.210938 1.835937-1.621094 13.359375-1.621094 13.359375s-.449218 2.636718 1.105469 2.59375c2.078125.097656 2.238281.074218 2.921875-1.105469.5625-.953125 1.835938-11.492187 1.90625-12.960937.097656-2.054688 1.011719-2.96875 3.082031-2.992188 1.878907 0 3.765625.023438 5.648438 0 .777343 0 1.15625.304688 1.15625 1.105469-.046875 1.578125-1.742188 15.097656-2.023438 16.722656-.261719 1.53125-.683593 4.636719-5.300781 4.523437-.699219.089844-.542969.953126-.515625 1.503907-.074219.519531.289063 1 .808594 1.078125h.042969c2.542968.09375 4.074218.09375 3.765624 2.917968-.304687 2.386719-.445312 3.675782-.75 5.0625-.308593 1.386719-.75 2.09375-2.121093 2.09375-1.367188 0-2.964844 0-4.121094-.023437s-4.332031.28125-3.957031-3.746094c.351562-1.765625.828125-5.722656.917968-7.015625.023438-1.507812.847657-1.910156-1.148437-2.050781-3.203125-.164063-2.21875.589844-2.476563 1.804687-.164062.640626-.957031 4.621094-.988281 4.804688-.003906.742188-.605469 1.339844-1.347656 1.335938h-8.050781c-1.910156 0-1.324219-2.058594-1.324219-2.058594s3.863281-24.753906 3.933594-25.605469c.09375-1.558594.304687-2.386719 1.835937-2.429687.921875-.070313 5.605469-.121094 8.011719-.070313zm0 0" fill="url(#d)"/><path d="m46.933594 114.355469c-2.632813 0-4.121094-.730469-3.785156-3.648438.09375-.78125 2.449218-18.722656 2.726562-20.992187.40625-2.980469 2.882812-5.25 5.886719-5.390625 5.0625-.121094 15.804687.089843 16.113281.113281 2.351562.238281 3.339844 2.476562 2.800781 4.714844-.324219 1.429687-1.910156 17.617187-2.363281 19.902344-.359375 1.941406-1.59375 3.605468-3.339844 4.519531-1.332031.644531-2.816406.921875-4.292968.800781-1.921876-.019531-11.105469 0-13.746094-.019531zm13.476562-24.332031c0-.445313.28125-1.058594-.378906-1.367188-1.835938-.1875-4.054688-.402344-4.144531 1.226562-.121094 1.859376-2.070313 16.699219-2.101563 18.210938 0 .476562.097656 1.035156.660156 1.105469 2.519532.164062 3.90625.378906 3.90625-1.226563 0-.992187 2.074219-17.054687 2.050782-17.949218zm0 0" fill="url(#e)"/><path d="m116.714844 84.28125h8.359375c.542969-.007812 1.089843.046875 1.621093.160156 1.796876.195313 3.09375 1.804688 2.902344 3.597656 0 .105469-.03125.210938-.054687.3125-.183594 1.429688-2.308594 20.675782-2.960938 22.136719-.824219 4.523438-5.535156 3.890625-7.914062 3.863281-4.195313.046876-8.40625 0-12.601563 0-1.445312.191407-2.832031-.625-3.367187-1.980468-.753907-1.105469.777343-10.644532.953125-13.652344.164062-2.308594 1.667968-3.488281 3.671875-4.332031 1.617187-.6875 8.480469-.660157 10.246093-.707031 1.105469-.027344 1.269532-.425782 1.714844-1.746094.921875-3.238282.050782-3.203125-3.128906-3.203125-3.175781 0-6.359375-.023438-9.542969.023437-1.058593 0-1.367187-.347656-1.199219-1.429687.476563-3.0625.476563-3.082031 3.578126-3.082031zm-4.09375 23.78125c0 .539062.164062 1.035156.800781 1.132812 3.226563.117188 3.441406.160157 3.816406-1.246093.234375-1.136719.992188-6.570313 1.035157-7.957031-.066407-.824219.449218-1.621094-1.242188-1.605469-1.058594 0-2.992188-.117188-3.226562.847656-.050782.046875-1.183594 7.988281-1.183594 8.828125zm0 0" fill="url(#f)"/><path d="m175.550781 84.28125h8.359375c.542969-.007812 1.089844.046875 1.621094.160156.863281.09375 1.652344.523438 2.195312 1.199219.542969.675781.792969 1.539063.699219 2.398437-.007812.105469-.023437.210938-.046875.3125-.183594 1.429688-2.304687 20.675782-2.964844 22.136719-.828124 4.523438-5.535156 3.890625-7.917968 3.863281-4.1875.046876-8.402344 0-12.59375 0-1.445313.191407-2.832032-.625-3.367188-1.980468-.753906-1.105469.769532-10.644532.953125-13.652344.160157-2.308594 1.667969-3.488281 3.671875-4.332031 1.625-.6875 8.480469-.660157 10.246094-.707031 1.105469-.027344 1.269531-.425782 1.714844-1.746094.921875-3.238282.050781-3.203125-3.128906-3.203125-3.175782 0-6.359376-.023438-9.542969.023437-1.0625 0-1.371094-.355468-1.210938-1.429687.476563-3.0625.476563-3.082031 3.578125-3.082031zm-4.078125 23.78125c0 .539062.160156 1.035156.800782 1.132812 3.230468.117188 3.441406.160157 3.816406-1.246093.234375-1.136719.988281-6.570313 1.035156-7.957031-.070312-.824219.449219-1.621094-1.246094-1.605469-1.0625 0-2.992187-.117188-3.230468.847656-.042969.046875-1.195313 7.988281-1.175782 8.828125zm0 0" fill="url(#g)"/></svg>