<svg height="200" viewBox="0 0 200 200" width="200" xmlns="http://www.w3.org/2000/svg" xmlns:xlink="http://www.w3.org/1999/xlink"><linearGradient id="a" gradientTransform="matrix(0 2.666667 -2.666667 0 -4698.666667 4829.333333)" gradientUnits="userSpaceOnUse" x1="-1720.469971" x2="-1826.530029" y1="-1746.469971" y2="-1852.530029"><stop offset="0" stop-color="#4d27a8"/><stop offset="1" stop-color="#a166ff"/></linearGradient><path d="m0 0h200v200h-200z" fill="url(#a)"/><g fill="#fff"><path d="m100.160156 166.667969c-.625 0-1.226562-.21875-1.707031-.613281l-16.160156-13.335938c-.863281-.71875-1.183594-1.902344-.800781-2.957031.382812-1.058594 1.386718-1.761719 2.507812-1.761719h8v-8h5.332031v10.667969c0 1.472656-1.191406 2.664062-2.664062 2.664062h-3.253907l8.71875 7.203125 8.558594-7.203125h-3.359375c-1.472656 0-2.664062-1.191406-2.664062-2.664062v-10.667969h5.332031v8h8c1.113281.011719 2.101562.710938 2.480469 1.753906.378906 1.046875.070312 2.21875-.773438 2.9375l-15.839843 13.335938c-.476563.40625-1.082032.632812-1.707032.640625zm0 0"/><path d="m123.921875 66.667969-.640625 5.332031c4.390625.324219 8.71875 1.21875 12.878906 2.667969-4.71875 2.050781-18.027344 4-36.160156 4-18.667969 0-32-2.132813-36.238281-4 3.839843-1.628907 14.878906-3.816407 33.570312-4v-5.335938c-36.292969.375-40 6.640625-40 9.335938-.011719.175781-.011719.355469 0 .53125.054688.328125.164063.644531.320313.933593l.535156.933594c.117188.210938.261719.410156.425781.585938.269531.265625.566407.507812.878907.722656l29.839843 46.53125v7.121094c-.003906 1.117187.6875 2.117187 1.734375 2.507812 2.914063 1.101563 6.003906 1.679688 9.121094 1.703125 3.019531-.007812 6.007812-.605469 8.800781-1.757812 1.003907-.402344 1.667969-1.371094 1.679688-2.453125v-7.148438l29.707031-46.480468c1.359375-.757813 2.230469-2.171876 2.292969-3.730469 0-2.855469-2.214844-6.027344-18.746094-8zm-18.160156 56c-.277344.429687-.425781.925781-.429688 1.4375v6.027343c-3.472656 1.078126-7.191406 1.078126-10.664062 0v-6.027343c-.003907-.511719-.152344-1.007813-.429688-1.4375l-26.476562-41.359375c10.632812 1.929687 21.429687 2.824218 32.238281 2.664062 10.789062.132813 21.566406-.757812 32.1875-2.664062zm0 0"/><path d="m116 73.332031h-10.667969c-1.472656 0-2.664062-1.191406-2.664062-2.664062v-10.667969c0-1.472656 1.191406-2.667969 2.664062-2.667969h10.667969c1.472656 0 2.667969 1.195313 2.667969 2.667969v10.667969c0 1.472656-1.195313 2.664062-2.667969 2.664062zm-8-5.332031h5.332031v-5.332031h-5.332031zm0 0"/><path d="m110.667969 49.332031h-10.667969c-1.472656 0-2.667969-1.191406-2.667969-2.664062v-10.667969c0-1.472656 1.195313-2.667969 2.667969-2.667969h10.667969c1.472656 0 2.664062 1.195313 2.664062 2.667969v10.667969c0 1.472656-1.191406 2.664062-2.664062 2.664062zm-8-5.332031h5.332031v-5.332031h-5.332031zm0 0"/><path d="m89.332031 62.667969h-10.664062c-1.472657 0-2.667969-1.195313-2.667969-2.667969v-10.667969c0-1.472656 1.195312-2.664062 2.667969-2.664062h10.664062c1.472657 0 2.667969 1.191406 2.667969 2.664062v10.667969c0 1.472656-1.195312 2.667969-2.667969 2.667969zm-8-5.335938h5.335938v-5.332031h-5.335938zm0 0"/></g></svg>