<svg height="200" viewBox="0 0 200 200" width="200" xmlns="http://www.w3.org/2000/svg"><path d="m95.855469 151.898438c-.371094-1.867188-.488281-1.945313-.941407-.617188-.425781 1.242188-.785156 1.171875-1.382812-.261719l-.535156-1.289062-.886719 1.414062c-.488281.773438-.976563 1.410157-1.089844 1.410157-.109375 0-.285156-.703126-.382812-1.5625-.273438-2.34375-.398438-2.4375-1.953125-1.4375-.730469.464843-1.464844.847656-1.636719.847656-.214844 0-.320313-.789063-.335937-2.484375l-.023438-2.488281-.535156 1.167968c-.292969.640625-.578125 1.125-.625 1.074219-.050782-.050781-.46875-1.769531-.925782-3.820313-.460937-2.050781-.882812-3.808593-.941406-3.902343-.214844-.347657-2.046875-8.4375-1.933594-8.546875.0625-.0625.769532 1.132812 1.570313 2.65625.800781 1.523437 2.207031 3.839844 3.128906 5.148437 1.574219 2.238281 2.441407 4.328125 2.464844 5.945313.011719.539062.015625.542968.40625.023437s.421875-.515625 1.832031.199219c.792969.402344 1.582032.726562 1.761719.726562.175781 0 .511719.457032.75 1.007813l.425781 1.007813.253906-.738282c.171876-.496094.441407-.738281.835938-.742187.320312-.003907 1.429688-.304688 2.460938-.671875 2.285156-.808594 2.179687-.804688 2.414062-.0625.164062.519531.230469.441406.511719-.597656.234375-.863282.546875-1.324219 1.117187-1.652344 1.355469-.765625 1.949219-.855469 2.085938-.316406.105468.390624.132812.375.15625-.097657.019531-.316406.453125-1.082031.96875-1.699219 1.0625-1.273437 1.472656-2.476562 2.476562-7.328124.390625-1.886719.785156-3.429688.878906-3.429688.324219 0-.242187 4.5625-.894531 7.210938-.363281 1.476562-1.320312 4.359374-2.121093 6.40625-.804688 2.046874-1.609376 4.414062-1.792969 5.265624-.179688.851563-.421875 1.546876-.539063 1.546876-.117187 0-.367187-.730469-.558594-1.621094l-.34375-1.621094-1.207031 1.800781c-1.136719 1.691407-1.230469 1.769531-1.585937 1.285157-.207032-.285157-.449219-.804688-.539063-1.160157-.136719-.535156-.304687-.289062-1.003906 1.457031-.464844 1.15625-.976563 2.148438-1.140625 2.203126-.175781.058593-.4375-.621094-.644531-1.65625zm-1.863281-11.597657c-.667969-.054687-2.441407-.238281-3.941407-.410156l-2.730469-.3125-3.320312-9.023437-5.152344-.085938c-4.699218-.082031-5.265625-.144531-6.492187-.707031-1.519531-.699219-2.933594-1.949219-3.5625-3.144531-.53125-1.019532-1.136719-3.265626-1.140625-4.246094 0-.695313-.066406-.742188-.875-.609375-.480469.078125-2.203125.328125-3.832032.554687-6.34375.890625-15.023437 2.777344-29.765624 6.46875-13.828126 3.460938-23.292969 5.328125-28.425782 5.601563-2.445312.128906-2.472656.125-.671875-.113281 8.804688-1.152344 14.523438-2.386719 29.433594-6.351563 14.761719-3.929687 22.28125-5.582031 29.777344-6.550781 2.261719-.292969 4.164062-.53125 4.234375-.53125.066406 0 .121094-.457032.121094-1.011719l.003906-1.007813-6.65625.183594c-16.785156.453125-49.421875 2.070313-55.535156 2.75-.570313.066406-.933594.023438-.804688-.085937.242188-.210938 4.136719-.558594 21.332031-1.902344 14.519531-1.132813 23.410157-1.613281 33.234375-1.800781l8.640625-.164063.171875-1.070312c.09375-.589844.136719-1.105469.09375-1.144531-.042968-.042969-10.113281-.222657-22.382812-.398438-21.277344-.308594-34.140625-.167969-41.125.453125-1.035156.089844-1.8125.089844-1.730469-.003906.21875-.234375 9.90625-.914063 17.992187-1.257813 8.378907-.355468 35.386719-.355468 45.289063 0 3.992187.144532 8.34375.269532 9.675781.277344 3.964844.027344 2.070313.511719-2.773437.710938-4.703125.195312-4.605469.152343-4.613281 1.910156l-.003907.605468h5.910157c3.253906 0 5.914062.101563 5.914062.226563 0 .300781-4.035156.578125-8.363281.578125-2.632813 0-3.421875.078125-3.34375.335938.058593.183593.171875.640624.25 1.007812l.144531.671875 4.917969-.058594c5.613281-.066406 5.574219.351563-.054688.609375-1.847656.085938-3.632812.210938-3.96875.28125l-.605469.121094.515626 1.015625c.691406 1.351563 2.707031 3.175781 4.246093 3.835937 2.613281 1.117188 6.746094 1.125 9.777344.015626 2.601563-.949219 3.335937-1.246094 3.609375-1.457032.144531-.113281.992188-.6875 1.878906-1.273437.886719-.585938 2.148438-1.527344 2.804688-2.09375l1.1875-1.03125-2.070313-1.429688c-1.136719-.789062-2.011719-1.488281-1.945312-1.554687.066406-.066406.765625-.203125 1.550781-.300782l1.429688-.175781-2.417969-.886719-2.417969-.882812-3.722656-4.726562c-2.046875-2.601563-3.601563-4.800782-3.457032-4.890626.140626-.09375.695313-1.921874 1.226563-4.0625l.96875-3.898437-2.71875-2.5-4.46875 1.171875c-2.460937.644531-4.511719 1.128906-4.5625 1.078125-.097656-.09375 3.140625-1.894531 5.78125-3.21875.773437-.386719 1.410156-.757813 1.410156-.820313 0-.058593-.359375-.367187-.796875-.679687-.703125-.496094-1.40625-.601563-5.714844-.839844-8.015624-.449219-10.625-1.21875-13.328124-3.917969-1.585938-1.585937-2.992188-4.304687-3.5625-6.882812-.320313-1.46875-.382813-1.546875-1.035157-1.417969-1.503906.296875-10.253906 1.265625-10.546875 1.167969-.171875-.058594 1.972656-.742188 4.769532-1.519531 2.796874-.78125 5.808593-1.632813 6.695312-1.894531l1.613281-.476563-3.394531-.203125c-4.457031-.273438-5.042969-.667969-1.039062-.707031 1.699218-.015625 4.238281-.113281 5.644531-.21875l2.550781-.1875 5.15625 1.960937c2.832031 1.078125 5.253906 1.960938 5.378906 1.960938s.871094-.953125 1.660156-2.117188l1.429688-2.121094-.578125-2.25c-.320313-1.234374-1.253906-4.035156-2.074219-6.222656-.820312-2.1875-1.433594-4.035156-1.367187-4.105468.070312-.070313 1.972656 2.953124 4.226562 6.71875l4.097657 6.847656-.183594 3.035156-.183594 3.039062 2.988281 1.117188c2.386719.890625 2.960938 1.027344 2.851563.671875-1.835938-5.957031-2.320313-7.664063-2.25-7.957031.046875-.195313 1.59375 1.675781 3.441406 4.15625l3.359375 4.515625 2.285156.976562 2.285157.980469-1.5625-.152344c-.863282-.082031-1.503907-.050781-1.425782.074219s1.539063.753906 3.246094 1.390625c1.707031.640625 3.101562 1.234375 3.101562 1.324219 0 .089843-1.59375.074219-3.542968-.035157-1.949219-.113281-3.5625-.171874-3.585938-.136718-.023437.035156-.601562 1.0625-1.28125 2.285156l-1.238281 2.222656-.417969 6.757813c-.230468 3.714843-.386718 6.785156-.347656 6.816406.035156.03125 2.363281.925781 5.167969 1.984375l5.101562 1.929688 7.191407-1.554688 7.1875-1.554688-.289063-15.0625-1.921875-4.09375-2.019531-.167968c-1.113281-.09375-3.054688-.171875-4.320313-.171875-1.328125 0-2.1875-.101563-2.039062-.234375.140625-.132813 1.769531-.738282 3.625-1.347656l3.371094-1.113282 3.617187-4.714844c1.988281-2.59375 3.648437-4.558593 3.6875-4.363281.039063.191407-.339844 1.875-.839844 3.742188l-.910156 3.390625 4.296875-1.40625-.183594-2.722656-.179687-2.71875 4.082031-5.746094c2.246094-3.160156 4.382812-6.148438 4.746094-6.636719 1.261718-1.699219.886718-.652344-.769532 2.128906-1.964843 3.308594-3.933593 7.308594-4.144531 8.4375-.136719.722657.046875 1.003907 1.828125 2.765625l1.980469 1.957032 7.191406-2.460938 7.1875-2.464844 5.5625.386719c3.058594.214844 5.378907.460937 5.15625.550781-.21875.089844-2.277343.324219-4.566406.519532l-4.167969.359374 6.839844 1.878907c3.765625 1.035156 6.640625 1.917969 6.398438 1.964843-.246094.050782-2.601563-.167968-5.230469-.480468-2.628907-.3125-5.066407-.589844-5.410157-.621094-.570312-.050781-.695312.160156-1.292968 2.214844-1.539063 5.289062-4.621094 8.246094-9.683594 9.277344-1.007812.207031-4.109375.5-6.890625.652343-4.972656.265625-5.066406.28125-5.917969 1.023438l-.867187.753906 4.785156 2.792969c2.628906 1.539062 4.730469 2.847656 4.667969 2.910156-.066406.0625-2.613282-.679688-5.664063-1.652344-3.046875-.972656-5.699219-1.765625-5.882812-1.765625-.1875 0-.953125.574219-1.699219 1.273438l-1.355469 1.277343.671875 4.355469c.597656 3.863281.734375 4.363281 1.207032 4.433594.398437.0625-.597657 1.039063-3.910157 3.84375-4.316406 3.652344-4.523437 3.789063-6.957031 4.605469l-2.511719.839844 3.492188.476562-2.492188 1.445312c-1.371093.792969-2.550781 1.539063-2.625 1.65625-.1875.304688 1.910157 1.953126 4.386719 3.4375 2.550781 1.535157 6.457031 2.890626 9.507812 3.300782 4.109376.554687 8.039063-.597656 10.304688-3.019532 1.277344-1.363281 1.960938-2.539062 1.65625-2.847656-.101562-.097656-1.710938-.277344-3.578125-.394531s-3.445313-.261719-3.503906-.320313c-.242188-.246093 4.132812-.480468 5.816406-.308593 1.753906.175781 1.828125.15625 1.988281-.449219.09375-.34375.171875-.757812.171875-.921875.003907-.191406-1.441406-.355469-4.230469-.476563-4.605468-.195312-7.265624-.640624-4.097656-.683593.960938-.011719 3.285156-.101563 5.160156-.199219l3.414063-.171875.203125-2.203125.046875 1.089844.046875 1.085937 16.328125.019531c17.054687.023438 29.535156.445313 42.128906 1.4375 5.152344.402344 5.695313.476563 2.691407.367188-2.070313-.074219-6.789063-.246094-10.484376-.378906-3.695312-.132813-16.605468-.246094-28.691406-.253906l-21.972656-.011719v1.78125l4.367188.320312c8.808593.640625 17.269531 1.976563 36.023437 5.6875 12.292969 2.429688 20.570313 3.832031 25.460937 4.316407 1.847657.183593 3.476563.4375 3.617188.570312.15625.140625-.0625.183594-.535156.105469-.441406-.074219-2.128906-.261719-3.753906-.417969-6.445313-.613281-13.515626-1.742188-33.6875-5.371094-15.601563-2.808594-31.035157-4.773437-31.503907-4.015625-.109375.179688-.277343.800781-.371093 1.386719-.363282 2.285156-1.980469 4.308594-4.234376 5.304688-.691406.304687-2.625.863281-4.300781 1.238281-1.671875.375-3.679687.867187-4.457031 1.089843-1.058594.308594-2.007812.363282-3.789062.222657l-2.371094-.183594-.609375 3.324219c-1.136719 6.199218-1.007813 5.824218-2.117188 6.152344-1.007812.292968-8.34375.554687-10.53125.375zm9.191406-1.328125c1.496094-.453125 1.539062-.492187 1.695312-1.570312.089844-.609375.050782-1.59375-.082031-2.183594l-.242187-1.078125-.207032 1.296875c-.449218 2.789062-1.996094 3.4375-8.207031 3.4375-2.933594 0-3.6875-.089844-4.734375-.550781-.6875-.304688-1.390625-.554688-1.570312-.554688-.46875 0-1.398438-1.070312-1.867188-2.152343l-.40625-.9375.019531 1.074218c.046875 2.433594.183594 2.628906 2.109375 3.023438 3.523438.726562 4.777344.839844 8.332032.75 2.421874-.0625 4.136718-.246094 5.160156-.554688zm-14.257813-13.292968c.0625-.1875.507813.007812 1.136719.507812 1.023438.8125 1.6875.820312 2.183594.023438.332031-.539063.9375-.242188 1.421875.699218l.492187.964844.847656-.964844c.464844-.53125.910157-.964844.984376-.964844.078124 0 .421874.558594.769531 1.242188l.628906 1.238281.828125-1.121093.824219-1.125.730469.953124.726562.957032 3.351562-1.875.34375.738281c.191407.40625.410157 1.613281.484376 2.683594.070312 1.066406.226562 1.882812.34375 1.808593.308593-.1875 1.0625-3.675781 1.0625-4.90625v-1.050781l-2.082032-.476562c-3.167968-.726563-9.050781-.851563-12.910156-.277344-1.730469.257813-3.363281.582031-3.621094.714844-.625.328125-.632812 2.574219-.011718 5.007812l.460937 1.804688.449219-3.136719c.25-1.722656.5-3.273438.558594-3.445312zm-13.757812-35.34375c1.300781-.671876 2.957031-2.277344 3.949219-3.820313.492187-.769531.898437-1.457031.898437-1.527344 0-.070312-2.484375-.949219-5.515625-1.957031-4.320312-1.433594-5.613281-1.769531-5.980469-1.542969-.6875.429688-1.195312 1.636719-1.402343 3.320313l-.179688 1.492187-.339844-.808593c-.523437-1.253907-.820312-3.523438-.574218-4.386719l.226562-.78125-3.292969-1.109375c-1.808593-.613282-3.480469-1.113282-3.714843-1.113282-.292969 0-.523438.445313-.746094 1.445313-.640625 2.867187.246094 5.035156 3.160156 7.695313 1.671875 1.527343 2.683594 2.105468 5.207031 2.972656 3.078125 1.058594 6.398438 1.105468 8.304688.121094zm53.257812.015624c3.304688-1.085937 3.917969-1.429687 5.921875-3.316406 2.898438-2.726562 3.730469-5.03125 2.867188-7.917968-.300782-.996094-.371094-1.050782-1.144532-.898438-.453124.089844-1.941406.601562-3.308593 1.144531l-2.484375.980469v1.425781c0 1.378907-.96875 4.394531-1.414063 4.394531-.109375 0-.199219-.578124-.199219-1.285156 0-1.699218-.984374-3.722656-1.75-3.597656-.71875.117188-10.984374 3.292969-11.144531 3.445312-.070312.070313.160157.667969.515625 1.332032.839844 1.585937 3.453125 3.980468 4.90625 4.492187 1.832032.652344 4.914063.566407 7.234375-.199219zm-9.035156 24.335938c-1.390625-.25 1.171875-.417969 17.46875-1.140625 17.402344-.769531 41.164063-.960937 49.832031-.398437 3.609375.230468 6.632813.496093 6.71875.585937.089844.085937-1.167968.058594-2.792968-.0625-5.226563-.398437-23.257813-.167969-35.613282.449219-11.808594.589844-33.5625.9375-35.613281.566406zm-22.265625-20.726562c-.738281-6.929688-.734375-8.246094.054688-13.707032l.757812-5.242187-.109375 8.871093c-.058594 4.875-.203125 9.535157-.3125 10.347657l-.203125 1.476562zm-1.355469-22.007813c-.421875-1.210937-.449219-1.609375-.1875-2.484375.28125-.941406.234375-1.214844-.507812-2.898438-.449219-1.023437-.816407-2.113281-.816407-2.421874 0-.308594-.121093-.53125-.265624-.492188-.148438.035156-.5625-.539062-.921876-1.277344-.613281-1.269531-.652343-1.300781-.679687-.539062-.023437.789062-.042969.78125-.734375-.464844-.636719-1.144531-.742188-1.222656-1.058594-.804688-.308594.410157-.355468.335938-.363281-.609374-.007813-.632813-.265625-1.5-.632813-2.101563-.554687-.917969-.660156-.984375-.980468-.59375-.199219.238281-.726563.695313-1.175782 1.011719-.757812.542968-.796874.546875-.613281.0625.246094-.636719.226563-.617188-1.257812 1.300781-.664063.855469-1.269531 1.460937-1.34375 1.34375-.070313-.121094-.222657-.945313-.332031-1.832031-.109376-.886719-.351563-1.851563-.535157-2.148438-.1875-.296875-.417969-.914062-.515625-1.378906-.164062-.792969-.296875-.871094-2.445312-1.449219-2.214844-.59375-2.75-.929687-1.800782-1.128906.261719-.054687-.828124-.261719-2.417968-.460937-1.589844-.203126-2.890625-.449219-2.890625-.546876 0-.214843 4.816406-.9375 10.082031-1.507812 9.03125-.984375 27.292969-.667969 34.804688.601562.914062.15625.882812.179688-1.140626.863282-1.144531.390625-2.050781.792968-2.015624.898437.035156.105469-.59375.53125-1.398438.941407-1.285156.652343-1.515625.902343-1.851562 1.957031-.460938 1.453125-.546876 1.566406-.824219 1.117187-.128907-.207031-.351563.492188-.5625 1.757813-.191407 1.152343-.398438 2.191406-.464844 2.304687-.0625.117188-1.085937-.601562-2.277344-1.597656-1.566406-1.304688-2.113281-1.640625-1.980469-1.214844.234376.730469-.003906.738282-1.128906.050782-.484375-.292969-.992187-.535157-1.125-.535157-.550781 0-.519531 1.132813.105469 3.90625.363281 1.609375.617187 2.976563.558594 3.03125-.058594.058594-.609375-.898437-1.226563-2.128906l-1.125-2.230469-.566406.777344-.5625.777344-.152344-.636719c-.28125-1.199219-2.003906 2.671875-3.050781 6.851563-.519531 2.070312-.984375 4.125-1.03125 4.570312-.085937.742188-.132813.691406-.589844-.640625zm-51.234375-5.386719c-6.574218-.851562-7.890625-1.101562-9.273437-1.746094-1.371094-.640624-1.53125-.785156-1.074219-.972656.453125-.1875.410156-.222656-.28125-.242187-.769531-.015625-1.464844-.421875-1.464844-.851563 0-.105468.632813-.277344 1.410156-.378906 2.304688-.3125 2.316407-.582031.039063-.792969-2.558594-.234375-3.144531-.558593-5.644531-3.152343-3.0625-3.171876-5.960938-7.890626-6.957032-11.320313-.609374-2.097656-.421874-2.8125.347657-1.335937.886719 1.699218 4.335937 5.71875 6.527343 7.605468 3.5625 3.0625 7.085938 4.933594 13.414063 7.113282 5.453125 1.878906 8.164063 3.277343 10.363281 5.351562 2.269532 2.132812 2.941406 2.066406-7.40625.722656zm104.570313-.714844c2.851562-2.960937 7.285156-5.585937 15.679687-9.269531 8.710938-3.828125 13.875-6.5625 17.855469-9.46875 4.441406-2.566406-6.640625 8.5-8.226563 9.832031-.992187.8125-2.894531 2.027344-4.226562 2.699219-2.445312 1.242188-2.910156 1.601563-1.082031.839844 1.707031-.714844 1.585937-.300781-.277344.957031-4.261719 2.882813-3.460937 2.609375-11.875 4.050782-4.25.726562-7.964844 1.320312-8.25 1.320312-.445313 0-.382813-.144531.402344-.960938zm30.578125-19.238281c-108.4375 100.445313-54.21875 50.222657 0 0zm0 0" fill="#00002f"/></svg>