<svg height="200" viewBox="0 0 200 200" width="200" xmlns="http://www.w3.org/2000/svg"><path d="m79.789062 55.40625c7.117188.035156 14.246094.070312 21.363282.011719 3.296875 4.683593 3.636718 9.777343 3.90625 15.332031-3.398438-.082031-6.785156.046875-10.1875-.023438-.011719 5.035157.011718 10.058594-.023438 15.09375-5.011718-.023437-10.023437-.011718-15.035156.023438-.058594-10.152344-.035156-20.296875-.023438-30.4375zm0 0" fill="#32a81e"/><path d="m97.011719 60.785156c.011719.90625.035156 1.796875.046875 2.703125-.988282 0-1.976563 0-2.964844 0 .683594-2.246093.636719-2.128906 2.917969-2.703125zm0 0" fill="#eee"/><g fill="#32a81e"><path d="m79.742188 89.148438c11.199218.175781 22.519531-.398438 33.671874.246093 3.457032 3.238281 3.269532 10.152344 3.585938 14.519531-12.410156-.082031-24.835938-.023437-37.246094-.035156.035156-4.90625.035156-9.835937-.011718-14.730468zm0 0"/><path d="m8.449219 90.453125c2.433593-.128906 4.894531-.117187 7.339843-.082031 1.882813 6.589844 3.671876 13.1875 5.613282 19.765625 1.632812-6.589844 3.292968-13.164063 4.917968-19.753907 2.128907.011719 4.269532 0 6.410157-.011718 1.660156 6.589844 3.257812 13.1875 4.988281 19.753906 1.882812-6.566406 3.671875-13.164062 5.527344-19.742188 1.988281 0 3.976562-.011718 5.953125-.046874-2.878907 10.222656-5.75 20.449218-8.691407 30.648437-2.09375-.035156-4.210937-.023437-6.308593-.011719-1.714844-6.824218-3.386719-13.671875-5.152344-20.496094-1.726563 6.824219-3.46875 13.648438-5.082031 20.507813-2.175782-.023437-4.363282-.023437-6.539063 0-2.917969-10.1875-6.226562-20.304687-8.976562-30.53125zm0 0"/><path d="m58.765625 90.359375c4.765625-1.28125 10.613281-.90625 14.070313 3.046875 3.449218 3.8125 3.847656 8.238281 4.140624 13.140625-6.824218.035156-13.644531-.011719-20.46875.050781.550782 4.28125.714844 8.128906 5.632813 9.316406 4.378906.789063 6.011719-1.683593 8.296875-4.777343 2.128906.292969 4.246094.601562 6.375.894531-1.742188 3.035156-3.023438 5.953125-6.164062 7.8125-5.246094 3.058594-13.152344 2.597656-17.304688-2.140625-3.789062-4.132813-4.4375-10.273437-3.660156-15.601563.871094-5.152343 3.894531-10.082031 9.082031-11.742187zm0 0"/></g><path d="m136.789062 90.359375c2.257813.023437 4.519532.035156 6.765626.023437-.035157 1.414063-.09375 2.8125-.175782 4.226563 1.503906-1.460937 3.023438-3.273437 4.917969-4.203125 3.703125-1.339844 8.492187-.882812 11.082031 2.414062 5.246094 6.621094 5.011719 17.644532.703125 24.679688-2.386719 3.929688-7.316406 5.097656-11.515625 3.730469-1.730468-.8125-3.320312-2.140625-4.835937-3.28125.140625 4.445312.128906 8.882812.105469 13.316406-2.351563-.011719-4.707032-.011719-7.058594 0 0-13.632813-.023438-27.269531.011718-40.90625zm0 0" fill="#878787"/><path d="m163.402344 90.359375c2.445312.035156 4.894531.011719 7.339844.046875 2.328124 6.472656 4.554687 12.964844 6.953124 19.414062 2.070313-6.460937 4.046876-12.953124 5.988282-19.460937 1.871094.070313 3.742187.046875 5.625-.011719-3.308594 11-7.203125 21.800782-10.683594 32.742188-.929688 2.542968-1.941406 5.953125-4.164062 7.636718-2.460938 1.871094-5.953126 1.140626-8.859376 1.28125.046876-1.929687.035157-3.859374-.046874-5.789062 2.585937-.410156 6.679687.683594 7.800781-2.492188 1.257812-2.273437.1875-4.355468-.472657-6.613281-3.222656-8.894531-6.410156-17.800781-9.480468-26.753906zm0 0" fill="#878787"/><path d="m64.117188 94.855469c4.058593.714843 4.484374 3.679687 5.976562 6.917969-4.597656.117187-9.164062.117187-13.75 0 1.410156-3.90625 2.890625-7.402344 7.773438-6.917969zm0 0" fill="#eee"/><path d="m147.308594 96.523438c2.09375-1.421876 4.75-1.164063 6.339844.871093 2.421874 3.285157 2.550781 8.320313 1.941406 12.175781-.601563 2.847657-1.90625 6.238282-5.292969 6.425782-3.695313.105468-6.214844-3.636719-6.390625-7.011719-.316406-4.246094-.480469-9.695313 3.402344-12.460937zm0 0" fill="#fff"/><path d="m79.789062 107.078125c12.695313.222656 25.542969-.339844 38.199219.246094 3.90625 2.625 3.554688 10.320312 4.070313 14.460937-14.09375.011719-28.199219.011719-42.304688 0 .035156-4.894531.035156-9.800781.035156-14.707031zm0 0" fill="#32a81e"/><path d="m125.613281 114.160156c2.5625-.011718 5.128907-.011718 7.707031-.023437-.011718 2.578125-.011718 5.140625-.023437 7.707031-2.566406.011719-5.132813 0-7.707031.023438.023437-2.578126.011718-5.140626.023437-7.707032zm0 0" fill="#32a81e"/></svg>