<svg height="200" viewBox="0 0 200 200" width="200" xmlns="http://www.w3.org/2000/svg"><path d="m42.847656 78.890625c-.523437 1.957031-1.53125 3.636719-2.550781 5.359375-1.207031 2.140625-2.367187 4.320312-3.578125 6.457031-2.980469 5.285157-5.988281 10.578125-9.300781 15.664063-1.015625 1.457031-2.195313 3.34375-3.992188 3.871094-1.367187.34375-2.566406-.464844-3.121093-1.691407-1.53125-3.1875-2.808594-6.496093-4.324219-9.695312.835937-.890625 1.007812-1.84375 2.472656-1.398438 1.648437 1.285157 3.019531 2.957031 4.515625 4.414063 3.671875-4.53125 7.210938-9.15625 10.890625-13.6875 1.429687-1.777344 2.886719-3.542969 4.34375-5.304688 1.351563-1.421875 2.507813-3.828125 4.644531-3.988281zm0 0" fill="#1167b0"/><path d="m17.980469 79.527344c.671875.679687 1.308593 1.386718 1.949219 2.085937 2.582031-.742187 5.152343-1.34375 7.867187-1.257812 3.757813-.085938 6.949219 1.292969 10.40625 2.523437-1.457031 1.761719-2.914063 3.527344-4.34375 5.304688-3.59375-1.683594-6.898437-1.570313-10.683594-.671875.261719.738281.511719 1.472656.761719 2.214843-3.441406.128907-6.882812.222657-10.335938.273438 1.328126-3.542969 2.910157-6.988281 4.378907-10.472656zm0 0" fill="#aad8b5"/><g fill="#262223"><path d="m64.222656 81.933594c5.101563-.8125 10.039063.886718 13.9375 4.164062-.394531.515625-.792968 1.03125-1.1875 1.542969-2.675781-2.175781-5.664062-3.800781-9.164062-4.089844-3.261719-.34375-6.535156.535157-8.871094 2.914063-2.933594 3.042968-2.835938 8.726562.6875 11.304687 4.804688 3.949219 11.992188 4.078125 16.828125 8.902344 4.449219 4.398437 2.90625 12.628906-2.570313 15.46875-6.871093 3.695313-15.242187 1.292969-20.507812-4.078125.449219-.457031.898438-.921875 1.355469-1.371094 4.644531 4.820313 12.199219 7.351563 18.34375 3.878906 4.457031-2.59375 5.601562-9.355468 1.648437-12.894531-4.578125-4.175781-12.027344-4.527343-16.882812-8.863281-3.085938-2.742188-3.699219-7.578125-1.910156-11.207031 1.625-3.179688 4.832031-5.121094 8.292968-5.671875zm0 0"/><path d="m87.265625 82.421875c.609375.019531 1.222656.054687 1.832031.089844 8.242188 12.214843 16.371094 24.566406 24.582032 36.808593.023437-12.285156.007812-24.5625.007812-36.851562.660156-.003906 1.316406-.003906 1.964844-.011719-.007813 13.628907.007812 27.25-.007813 40.871094-1.191406-.195313-1.742187-.214844-2.382812-1.308594-8.039063-12.035156-15.972657-24.121093-24.03125-36.148437-.019531 12.433594 0 24.871094-.007813 37.3125-.648437-.007813-1.304687-.007813-1.960937-.011719.003906-13.585937 0-27.164063.003906-40.75zm0 0"/><path d="m126.554688 82.425781c.648437.023438 1.304687.050781 1.957031.082031 4.871093 8.105469 9.40625 16.414063 14.304687 24.5 4.878906-8.101562 9.480469-16.378906 14.242188-24.550781.660156.007813 1.324218.007813 1.988281.011719-.007813 13.566406-.007813 27.136719 0 40.703125-.65625.003906-1.316406.003906-1.964844.011719-.023437-12.363282.035157-24.71875-.027343-37.085938-4.617188 7.992188-9.257813 16.078125-13.914063 24.023438-.515625.136718-.867187-.050782-1.042969-.535156-4.488281-7.84375-9.066406-15.652344-13.558594-23.488282-.066406 12.367188-.007812 24.722656-.027343 37.085938-.652344-.007813-1.308594-.007813-1.964844-.011719.007813-13.582031.007813-27.164063.007813-40.746094zm0 0"/><path d="m169.402344 82.464844c3.992187.019531 7.988281-.042969 11.972656.011718 4.148438.152344 8.277344 1.378907 11.007812 4.671876 4.242188 5.394531 3.183594 14.800781-2.992187 18.335937-5.453125 3.335937-11.917969 2.078125-18.015625 2.316406-.015625 5.125 0 10.253907-.007812 15.382813-.648438-.007813-1.308594-.007813-1.964844-.011719.007812-13.566406.007812-27.136719 0-40.707031zm0 0"/></g><path d="m40.296875 84.25c1.984375 2.257812 3.949219 4.199219 5.097656 7.042969 3.324219 7.984375 2.402344 16.8125-1.261719 24.511719-2.144531-1.769532-4.058593-3.769532-6.050781-5.707032 2.414063-6.589844 3.15625-13.492187-1.363281-19.390625 1.210938-2.136719 2.371094-4.316406 3.578125-6.457031zm0 0" fill="#aad8b5"/><path d="m171.375 84.226562c3.335938.03125 6.679688-.035156 10.015625.007813 3.8125.144531 7.664063 1.441406 9.90625 4.714844 2.976563 4.699219 2.132813 11.835937-2.78125 14.949219-4.640625 3.199218-11.710937 1.84375-17.148437 2.136718 0-7.273437-.007813-14.542968.007812-21.808594zm0 0" fill="#fff"/><path d="m6.953125 88.65625c2.042969 1.878906 4.050781 3.808594 5.9375 5.84375-1.738281 4.414062-2.628906 8.976562-1.421875 13.664062.992188 3.800782 3.261719 7.207032 7.046875 8.648438 3.1875 1.277344 6.300781.800781 9.5-.105469-.40625-.6875-.8125-1.371093-1.21875-2.058593 3.542969-.035157 7.078125-.164063 10.621094-.214844-1.515625 3.574218-3.015625 7.144531-4.601563 10.679687-.527344-.773437-1.050781-1.550781-1.578125-2.320312-6.5625 2.113281-13.640625 1.75-19.449219-2.195313-3.757812-2.382812-6.144531-6.148437-7.292968-10.398437-1.914063-7.042969-1.058594-15.128907 2.457031-21.542969zm0 0" fill="#43b4d7"/></svg>