<svg height="200" viewBox="0 0 200 200" width="200" xmlns="http://www.w3.org/2000/svg"><g fill="#f90"><path d="m20.566406 77.378906c4.621094-.480468 9.644532.597656 12.78125 4.257813 1.582032 1.882812 1.941406 4.070312 2.277344 6.425781-2.179688.015625-4.359375.023438-6.535156 0-.578125-1.625-.792969-3.113281-2.421875-4.046875-2.25-1.394531-6.328125-1.4375-8.550781.042969-1.972657 1.25-2.25 4.527344-.015626 5.65625 4.542969 2.085937 10.328126 2.097656 14.703126 4.59375 4.71875 2.691406 4.875 9.976562 1.5 13.777344-3.074219 3.601562-7.816407 4.351562-12.300782 4.121093-4.058594-.207031-8.222656-1.535156-10.652344-5-1.3125-1.820312-1.527343-3.84375-1.828124-6 2.171874-.015625 4.34375-.027343 6.515624-.019531.636719 1.804688.820313 3.449219 2.640626 4.457031 2.472656 1.339844 6.496093 1.304688 9.039062.183594 2.503906-1.0625 3.25-4.941406.5625-6.265625-4.363281-2.097656-10.34375-2.027344-14.628906-4.648438-3.886719-2.398437-4.304688-8.277343-2.371094-12.019531 1.871094-3.507812 5.449219-5.195312 9.285156-5.515625zm0 0"/><path d="m179.265625 80.464844c2.101563 0 4.203125-.007813 6.300781 0-.007812 2.179687.015625 4.355468.007813 6.527344 1.316406.007812 2.628906.015624 3.941406.023437-.003906 1.5-.003906 3.003906.007813 4.511719-1.320313.007812-2.632813.015625-3.949219.015625.050781 4.957031-.15625 9.929687.144531 14.871093 1.261719.128907 2.535156.242188 3.804688.363282-.007813 1.59375-.007813 3.1875-.007813 4.773437-2.734375-.078125-6.613281.320313-8.890625-1.5-1.328125-1.101562-1.285156-2.613281-1.359375-4.195312-.011719-4.769531.023437-9.535157 0-14.304688-1.132813-.015625-2.261719-.023437-3.398437-.03125.015624-1.5.015624-3 .015624-4.503906 1.128907-.007813 2.257813-.015625 3.382813-.023437-.003906-2.179688.015625-4.347657 0-6.527344zm0 0"/><path d="m89.015625 88.8125c1.921875 1.894531 2.085937 4.453125 2.136719 6.996094.007812 5.242187-.011719 10.484375 0 15.71875-2.179688.007812-4.347656.007812-6.519532 0-.015624-4.769532.007813-9.542969 0-14.3125-.078124-1.722656.027344-3.480469-1.488281-4.652344-2.011719-1.3125-5.355469-.839844-6.640625 1.308594-1.058594 1.605468-.988281 3.671875-1.035156 5.523437.011719 4.042969.011719 8.089844.011719 12.132813-2.113281.007812-4.226563.007812-6.339844 0 0-8.085938-.007813-16.171875.003906-24.257813 2.042969 0 4.09375-.003906 6.144531 0-.015624 1.125-.027343 2.246094-.050781 3.367188 1.285157-1.585938 2.378907-3.066407 4.441407-3.671875 3.039062-.886719 6.980468-.402344 9.335937 1.847656zm0 0"/><path d="m114.144531 88.707031c1.996094 1.507813 2.402344 3.585938 2.921875 5.886719-2.0625.011719-4.128906.027344-6.183594.007812-.59375-.972656-.902343-2.28125-2.03125-2.730468-1.628906-.636719-4.003906-.722656-5.527343.242187-1.085938.792969-1.09375 2.386719.164062 2.988281 3.773438 1.621094 8.84375 1.460938 12.101563 4.304688 2.925781 2.507812 2.5625 7.351562-.007813 9.972656-2.335937 2.484375-6.070312 2.886719-9.292969 2.871094-3.414062-.078125-7.042968-.707031-9.199218-3.628906-1.1875-1.457032-1.421875-3.128906-1.722656-4.921875 2.121093-.011719 4.242187-.027344 6.363281-.011719.585937 1.339844.671875 2.582031 2.230469 3.148438 1.878906.640624 4.328124.742187 6.171874-.050782 1.464844-.648437 1.476563-2.714844.011719-3.34375-3.585937-1.554687-8.5-1.734375-11.742187-4-1.90625-1.335937-2.40625-3.585937-2.121094-5.785156.484375-3.527344 3.421875-6.078125 6.808594-6.777344 3.554687-.679687 8.042968-.394531 11.054687 1.828125zm0 0"/><path d="m144.195312 91.507812c1.992188 3.683594 1.929688 8.578126.992188 12.5625-1.042969 4.195313-4.433594 7.523438-8.863281 7.765626-3.449219.285156-5.726563-.964844-7.777344-3.628907.113281 4.199219.035156 8.40625.054687 12.605469-2.097656.007812-4.199218.007812-6.296874 0 .011718-11.285156-.015626-22.578125.011718-33.863281 2.03125-.007813 4.058594 0 6.085938 0 0 1.1875-.011719 2.371093-.027344 3.558593 1.257812-1.40625 2.320312-2.773437 4.179688-3.429687 4.390624-1.570313 9.382812.371094 11.640624 4.429687zm0 0"/><path d="m156.589844 86.851562c4.089844-1.246093 9.71875-.972656 13.007812 2.089844 5.191406 4.929688 5.476563 14.230469.898438 19.644532-1.957032 2.328124-4.777344 3.378906-7.75 3.605468-3.542969.246094-7.300782-.304687-9.964844-2.847656-3.386719-3.328125-4.441406-8.25-3.707031-12.835938.691406-4.179687 3.277343-8.351562 7.515625-9.65625zm0 0"/><path d="m41.058594 87.257812c2.171875-.007812 4.34375-.007812 6.523437 0 .136719 5.664063-.292969 11.441407.222657 17.078126.585937 2.941406 4 3.171874 6.253906 2.09375 2.09375-1.1875 2.429687-3.378907 2.496094-5.585938.0625-4.53125-.007813-9.058594.011718-13.585938 2.152344-.007812 4.300782-.015624 6.457032 0 0 8.09375 0 16.191407-.007813 24.292969-2.0625.007813-4.125.007813-6.191406.007813.023437-1.058594.042969-2.109375.070312-3.160156-1.464843 1.609374-2.792969 3.085937-5.019531 3.566406-2.792969.59375-6.359375.347656-8.484375-1.792969-2.058594-2.09375-2.238281-5.152344-2.324219-7.914063-.035156-5 0-10-.007812-15zm0 0"/></g><path d="m159.410156 91.8125c2.671875-.777344 5.558594.109375 6.734375 2.765625 1.214844 2.621094 1.203125 6.9375-.113281 9.523437-1.5625 3.355469-6.699219 3.761719-8.949219.941407-1.644531-2.066407-1.792969-5.308594-1.484375-7.820313.304688-2.34375 1.414063-4.644531 3.8125-5.410156zm0 0" fill="#fff"/><path d="m131.566406 92.527344c2.15625-.863282 5.085938-.46875 6.363282 1.671875 1.714843 2.714843 1.722656 7.066406.195312 9.851562-1.523438 2.964844-5.921875 3.292969-8.09375.914063-1.671875-1.816406-1.765625-4.714844-1.5625-7.027344.210938-2.167969.96875-4.445312 3.097656-5.410156zm0 0" fill="#fff"/></svg>