<svg height="200" viewBox="0 0 200 200" width="200" xmlns="http://www.w3.org/2000/svg" xmlns:xlink="http://www.w3.org/1999/xlink"><linearGradient id="a" gradientTransform="matrix(-.00000061 13.920393 -13.920393 -.00000061 -35.413683 236.819344)" gradientUnits="userSpaceOnUse" x1="-15.614694" x2="-6.741007" y1="-9.108298" y2="-9.108298"><stop offset="0" stop-color="#97d9f6"/><stop offset=".920245" stop-color="#0f80cc"/><stop offset="1" stop-color="#0f80cc"/></linearGradient><path d="m107.753906 152.816406c-.085937-1.09375-.136718-1.804687-.136718-1.804687s-3.316407-22.359375-7.261719-29.027344c-.625-1.058594.066406-5.402344 1.808593-11.835937 1.019532 1.761718 5.320313 9.296874 6.183594 11.726562.972656 2.742188 1.175782 3.53125 1.175782 3.53125s-2.359376-12.136719-6.226563-19.21875c.847656-2.863281 1.859375-6.027344 3.007813-9.410156 1.464843 2.570312 4.976562 8.800781 5.75 10.960937.152343.441407.285156.820313.402343 1.164063.039063-.207032.078125-.414063.117188-.621094-.886719-3.761719-2.628907-10.304688-5.011719-15.136719 5.285156-27.519531 23.320312-64.300781 41.804688-80.710937h-120.59375c-8.082032 0-14.691407 6.613281-14.691407 14.695312v132.992188c0 8.082031 6.609375 14.691406 14.691407 14.691406h79.425781c-.570313-6.929688-.761719-14.601562-.445313-21.996094" fill="#0f80cc"/><path d="m102.164062 110.148438c1.019532 1.761718 5.320313 9.296874 6.183594 11.726562.972656 2.742188 1.175782 3.53125 1.175782 3.53125s-2.359376-12.136719-6.226563-19.21875c.847656-2.863281 1.859375-6.027344 3.007813-9.410156 1.339843 2.351562 4.386718 7.753906 5.488281 10.316406.039062-.484375.082031-.96875.125-1.445312-.976563-3.75-2.457031-8.660157-4.355469-12.503907 4.867188-25.335937 20.539062-58.511719 37.425781-76.425781h-116.214843c-5.738282 0-10.40625 4.671875-10.40625 10.410156v123.289063c26.320312-10.101563 58.054687-19.335938 85.367187-18.941407-1.015625-3.910156-2.167969-7.445312-3.378906-9.492187-.625-1.058594.066406-5.402344 1.808593-11.835937" fill="url(#a)"/><path d="m177.496094 8.082031c-8.257813-7.367187-18.257813-4.40625-28.128906 4.351563-1.464844 1.300781-2.925782 2.746094-4.378907 4.285156-16.886719 17.914062-32.558593 51.089844-37.425781 76.425781 1.898438 3.84375 3.378906 8.753907 4.355469 12.503907.25.960937.472656 1.863281.65625 2.632812.425781 1.816406.65625 2.996094.65625 2.996094s-.152344-.574219-.773438-2.375c-.117187-.34375-.25-.722656-.402343-1.164063-.070313-.183593-.160157-.40625-.261719-.644531-1.101563-2.5625-4.148438-7.964844-5.488281-10.316406-1.148438 3.382812-2.160157 6.546875-3.007813 9.410156 3.867187 7.082031 6.226563 19.21875 6.226563 19.21875s-.203126-.789062-1.175782-3.53125c-.863281-2.429688-5.164062-9.964844-6.183594-11.726562-1.742187 6.433593-2.433593 10.777343-1.808593 11.835937 1.210937 2.046875 2.363281 5.582031 3.378906 9.492187 2.289063 8.808594 3.882813 19.535157 3.882813 19.535157s.050781.710937.136718 1.804687c-.316406 7.394532-.125 15.066406.445313 21.996094.761719 9.179688 2.1875 17.0625 4.007812 21.28125l1.238281-.675781c-2.675781-8.308594-3.761718-19.203125-3.285156-31.765625.71875-19.203125 5.140625-42.363282 13.304688-66.5 13.792968-36.433594 32.933594-65.667969 50.449218-79.628906-15.964843 14.417968-37.574218 61.089843-44.042968 78.371093-7.242188 19.355469-12.375 37.519531-15.46875 54.917969 5.339844-16.3125 22.59375-23.324219 22.59375-23.324219s8.464844-10.4375 18.355468-25.351562c-5.925781 1.351562-15.652343 3.664062-18.914062 5.035156-4.804688 2.015625-6.101562 2.703125-6.101562 2.703125s15.570312-9.480469 28.929687-13.773438c18.371094-28.933593 38.386719-70.039062 18.230469-88.019531" fill="#003b57"/></svg>