<?xml version="1.0" encoding="UTF-8"?>
<svg width="32px" height="32px" viewBox="0 0 32 32" version="1.1" xmlns="http://www.w3.org/2000/svg" xmlns:xlink="http://www.w3.org/1999/xlink">
    <!-- Generator: Sketch 57.1 (83088) - https://sketch.com -->
    <title>Provider / Kafka</title>
    <desc>Created with Sketch.</desc>
    <g id="Provider-/-Kafka" stroke="none" stroke-width="1" fill="none" fill-rule="evenodd">
        <g id="kafka" transform="translate(8.000000, 3.000000)" fill="#000000" fill-rule="nonzero">
            <path d="M12.3787013,14.1206599 C11.3859075,14.1206599 10.4958526,14.5605044 9.88635108,15.2529943 L8.32453799,14.1473413 C8.49033074,13.6908745 8.58552509,13.200734 8.58552509,12.6877149 C8.58552509,12.1835896 8.49364291,11.7016682 8.33330912,11.2519485 L9.89162602,10.1580107 C10.5010662,10.8470044 11.3887904,11.2844569 12.3787013,11.2844569 C14.2111313,11.2844569 15.702162,9.79367152 15.702162,7.96099613 C15.702162,6.12832075 14.2111313,4.63753541 12.3787013,4.63753541 C10.5462712,4.63753541 9.05524055,6.12832075 9.05524055,7.96099613 C9.05524055,8.28902411 9.1048005,8.60533681 9.19373852,8.90490461 L7.6343789,9.99939438 C6.98298452,9.19128506 6.04508702,8.62704995 4.9764813,8.45481686 L4.9764813,6.57546435 C6.48192608,6.25927433 7.61622327,4.92170774 7.61622327,3.32346073 C7.61622327,1.49078534 6.12519258,0 4.29276255,0 C2.46033251,0 0.969301821,1.49078534 0.969301821,3.32346073 C0.969301821,4.90030128 2.0742188,6.22136833 3.54954732,6.5601302 L3.54954732,8.46389467 C1.53611307,8.81731599 0,10.5744861 0,12.6877149 C0,14.8112483 1.55132454,16.5748587 3.57929556,16.9162581 L3.57929556,18.9265028 C2.08887824,19.2541015 0.969301821,20.5832649 0.969301821,22.1708394 C0.969301821,24.0035148 2.46033251,25.4943001 4.29276255,25.4943001 C6.12519258,25.4943001 7.61622327,24.0035148 7.61622327,22.1708394 C7.61622327,20.5832649 6.49664685,19.2541015 5.00622953,18.9265028 L5.00622953,16.9161967 C6.03268936,16.7432982 6.96131797,16.2032113 7.61916743,15.3965219 L9.19140773,16.5093513 C9.10412579,16.8062203 9.05524055,17.1194048 9.05524055,17.4441206 C9.05524055,19.276796 10.5462712,20.7675813 12.3787013,20.7675813 C14.2111313,20.7675813 15.702162,19.276796 15.702162,17.4441206 C15.702162,15.6114452 14.2111313,14.1206599 12.3787013,14.1206599 Z M12.3787013,6.3496231 C13.2672842,6.3496231 13.990013,7.07265859 13.990013,7.96099613 C13.990013,8.84933368 13.2672842,9.57230784 12.3787013,9.57230784 C11.4901184,9.57230784 10.7673896,8.84933368 10.7673896,7.96099613 C10.7673896,7.07265859 11.4901184,6.3496231 12.3787013,6.3496231 L12.3787013,6.3496231 Z M2.68138951,3.32346073 C2.68138951,2.43512318 3.40417965,1.71214902 4.29276255,1.71214902 C5.18134544,1.71214902 5.90407425,2.43512318 5.90407425,3.32346073 C5.90407425,4.21179827 5.18134544,4.93477243 4.29276255,4.93477243 C3.40417965,4.93477243 2.68138951,4.21179827 2.68138951,3.32346073 Z M5.90407425,22.1708394 C5.90407425,23.0591769 5.18134544,23.7821511 4.29276255,23.7821511 C3.40417965,23.7821511 2.68138951,23.0591769 2.68138951,22.1708394 C2.68138951,21.2825018 3.40417965,20.5595277 4.29276255,20.5595277 C5.18134544,20.5595277 5.90407425,21.2825018 5.90407425,22.1708394 Z M4.29263987,14.9349642 C3.05333447,14.9349642 2.04514526,13.926959 2.04514526,12.6877149 C2.04514526,11.4484095 3.05333447,10.4402203 4.29263987,10.4402203 C5.53188394,10.4402203 6.54007315,11.4484095 6.54007315,12.6877149 C6.54007315,13.926959 5.53188394,14.9349642 4.29263987,14.9349642 Z M12.3787013,19.0554936 C11.4901184,19.0554936 10.7673896,18.3324581 10.7673896,17.4441206 C10.7673896,16.555783 11.4901184,15.8328089 12.3787013,15.8328089 C13.2672842,15.8328089 13.990013,16.555783 13.990013,17.4441206 C13.990013,18.3324581 13.2672842,19.0554936 12.3787013,19.0554936 Z" id="Shape"></path>
        </g>
    </g>
</svg>