<svg height="200" viewBox="0 0 200 200" width="200" xmlns="http://www.w3.org/2000/svg"><path d="m0 0h200v200h-200z" fill="#fff"/><path d="m72.25 21.832031c5.925781 1.601563 11.824219 4.042969 17.875 5.269531 4.675781.375 9.410156.171876 14.089844.191407 5.527344.191406 11.167968-2.09375 16.433594-3.617188 3.527343-1.050781 7.835937-3.109375 11.453124-1.785156 6.347657 1.710937 12.515626 4.433594 18.457032 6.859375 10.78125 4.457031 21.734375 8.582031 32.425781 13.257812 2.648437 1.117188 4.183594 2.640626 4.875 5.5-.519531 3.808594-1.902344 7.550782-3.035156 11.226563-2.574219 7.523437-4.972657 15.105469-7.589844 22.617187-.769531 2.289063-2.585937 4.941407-5.027344 5.589844-3.492187.46875-7.03125-.007812-10.53125.550782-2.941406.441406-5.882812.472656-8.851562.53125-.164063 2.601562-.367188 5.210937-.398438 7.808593-.015625 23.292969.023438 46.710938-.015625 69.984375.316406 4.042969-3.609375 6.910156-7.359375 6.898438-29.652343.058594-59.59375-.007813-89.285156.027344-3.25.089843-6.214844-1.285157-7.730469-4.242188-.519531-2.183594-.328125-4.582031-.359375-6.816406.050781-21.390625 0-42.785156.023438-64.183594.035156-3.175781.066406-6.332031-.347657-9.492188-3.027343-.050781-6.027343-.074218-9.027343-.53125-3.632813-.542968-7.164063-.125-10.789063-.402343-2.226562-.015625-4.027344-1.933594-4.984375-3.773438-2.632812-5.34375-3.402343-10.660156-5.324219-16.226562-1.828124-5.449219-3.308593-10.992188-4.867187-16.523438-1.066406-3.566406 1.507813-7.050781 4.78125-8.308593 14.59375-6.234376 29.308594-12.292969 43.941406-18.417969 3.394531-1.222657 7.585938-3.242188 11.167969-1.992188zm0 0" fill="#1b1a19"/><g fill="#f8c623"><path d="m66.300781 29.992188c1.640625 3.632812 2.875 7.765624 5.390625 10.839843 3.082032 3.769531 6.949219 7.09375 11.34375 9.25 9.105469 4.425781 20.324219 5.050781 29.921875 1.925781 6.269531-1.90625 11.382813-6.132812 15.226563-11.339843 2.273437-3.152344 3.292968-7.050781 4.648437-10.667969 4.292969.867188 8.007813 2.867188 12.050781 4.425781 5.507813 2.074219 10.875 4.507813 16.332032 6.699219 5.867187 2.441406 11.875 4.425781 17.675781 7.015625-.507813 4.316406-2.289063 7.875-3.582031 11.96875-1.699219 4.898437-3.082032 9.890625-4.75 14.789063-.726563 1.550781-.910156 3.558593-3.058594 3.484374-6.609375.484376-13.300781-.15625-19.917969.226563-2.148437-.050781-3.191406 2.082031-3.5 3.914063-.414062 3.84375-.105469 7.777343-.171875 11.644531-.050781 22.949219.097656 45.914062-.070312 68.867187-2.390625.074219-4.78125.105469-7.164063.097656-26.792969-.117187-53.625.117188-80.410156-.117187-.132813-26.566406.007813-53.183594-.058594-79.75.183594-2.257813-1.40625-4.65625-3.789062-4.683594-7.59375-.421875-15.34375.507813-22.882813-.464843-3.117187-9.601563-5.675781-19.367188-8.976562-28.925782 4.707031-2.75 9.699218-4.257812 14.824218-6.507812 7.140626-3.160156 14.359376-6.148438 21.59375-9.09375 3.089844-1.296875 6.066407-2.75 9.324219-3.597656zm0 0"/><path d="m76.691406 31.699219c4.324219.527343 8.351563 2.050781 12.632813 2.792969 9.21875 1.648437 18.910156.90625 27.835937-1.910157 1.929688-.574219 3.863282-1.039062 5.847656-1.390625-1.832031 6.523438-7.339843 10.75-13.589843 12.734375-7.777344 2.65625-16.351563 1.582031-23.527344-2.257812-3.980469-2.375-7.550781-5.507813-9.199219-9.96875zm0 0"/></g></svg>