<svg height="200" viewBox="0 0 200 200" width="200" xmlns="http://www.w3.org/2000/svg" xmlns:xlink="http://www.w3.org/1999/xlink"><radialGradient id="a" cx="125.97" cy="125.709" gradientTransform="matrix(.781149 0 0 .287085 0 62.169977)" gradientUnits="userSpaceOnUse" r="129.90601"><stop offset=".694" stop-color="#afadae"/><stop offset=".968" stop-color="#afadae" stop-opacity="0"/></radialGradient><radialGradient id="b" cx="178.61" cy="90.851997" gradientTransform="matrix(-.769901 .132014 -.0716002 -.418161 283.54396 85.426757)" gradientUnits="userSpaceOnUse" r="177.39101"><stop offset=".476" stop-color="#f3efe9"/><stop offset=".568" stop-color="#eeeae3"/><stop offset=".688" stop-color="#e1dbd2"/><stop offset=".824" stop-color="#cdc5b7"/><stop offset=".963" stop-color="#b4aa98"/></radialGradient><linearGradient id="c" gradientTransform="scale(.781149 .781609)" gradientUnits="userSpaceOnUse" x1="53.661999" x2="197.06599" y1="47.580002" y2="58.424999"><stop offset=".094" stop-color="#d7d0c6"/><stop offset=".248" stop-color="#cdc7bb"/><stop offset=".401" stop-color="#c7c2b5"/><stop offset=".525" stop-color="#cbc6ba"/><stop offset=".669" stop-color="#d7d1c7"/><stop offset=".78" stop-color="#e6dfd6"/><stop offset=".892" stop-color="#e7e3d9"/><stop offset=".934" stop-color="#e5dfd3"/><stop offset=".98" stop-color="#dfd5c6"/></linearGradient><radialGradient id="d" cx="110.123" cy="23.771" gradientTransform="matrix(.0688661 .778561 -2.096761 .18571 128.28192 -71.571954)" gradientUnits="userSpaceOnUse" r="53.766998"><stop offset=".067" stop-color="#b2a797"/><stop offset=".29" stop-color="#c7bdae"/><stop offset=".481" stop-color="#d6cebf"/><stop offset=".688" stop-color="#e2dcd0"/><stop offset=".942" stop-color="#f7f5ee"/></radialGradient><linearGradient id="e" gradientTransform="scale(.781149 .781609)" gradientUnits="userSpaceOnUse" x1="69.277" x2="177.061" y1="15.553" y2="15.553"><stop offset=".056" stop-color="#f7f5ee"/><stop offset=".226" stop-color="#e6e1d6"/><stop offset=".43" stop-color="#d8d1c3"/><stop offset=".639" stop-color="#d0c8b9"/><stop offset=".857" stop-color="#cec5b5"/></linearGradient><linearGradient id="f" gradientTransform="scale(.781149 .781609)" gradientUnits="userSpaceOnUse" x1="42.470001" x2="196.375" y1="94.529999" y2="94.529999"><stop offset=".018" stop-color="#262222"/><stop offset=".096" stop-color="#2f2c2c"/><stop offset=".3" stop-color="#424143"/><stop offset=".402" stop-color="#4a4a4c"/><stop offset=".514" stop-color="#4a4a4c"/><stop offset=".78" stop-color="#383536"/><stop offset="1" stop-color="#262222"/></linearGradient><g transform="matrix(.92507135 0 0 .92507135 8.067255 41.406988)"><path d="m3.90625 96.136719c0-21.726563 43.898438-39.3125 98.03516-39.3125 54.13281 0 98.03125 17.585937 98.03125 39.3125 0 21.730471-43.89844 39.316401-98.03125 39.316401-54.136722.07813-98.03516-17.58593-98.03516-39.316401zm0 0" fill="url(#a)"/><path d="m2.265625 99.890625s-16.09375-31.265625 37.027344-48.773437c24.839843-8.207032 53.976562-13.601563 79.988281-14.539063 29.68359-1.015625 56.00781 4.144531 67.49219 21.652344 8.28125 12.660156 3.28125 28.136719-12.73438 40.175781-9.60547 7.1875-30.69922 14.37891-44.75781 18.44531-14.0625 3.98438-41.636719 9.37891-64.210938 8.12891-22.574218-1.25-50.617187-4.53516-62.804687-25.089845zm0 0" fill="url(#b)"/><path d="m2.265625 99.890625s-16.09375-31.265625 37.027344-48.773437c24.839843-8.207032 53.976562-13.601563 79.988281-14.539063 29.68359-1.015625 56.00781 4.144531 67.49219 21.652344 8.28125 12.660156 3.28125 28.136719-12.73438 40.175781-9.60547 7.1875-30.69922 14.37891-44.75781 18.44531-14.0625 3.98438-41.636719 9.37891-64.210938 8.12891-22.574218-1.25-50.617187-4.53516-62.804687-25.089845zm63.273437 24.152345c22.027344 1.25 48.898438-4.06641 62.570308-7.97266 13.66797-3.91015 34.52735-10.63281 43.89844-17.66406 15.625-11.726562 21.95313-26.34375 13.20313-39.785156-11.09375-17.195313-38.04297-22.511719-66.94531-21.496094-25.308599.859375-53.742192 6.878906-77.957036 14.851562-51.792969 17.117188-36.089844 47.601563-36.089844 47.601563 11.949219 20.007815 39.292969 23.210935 61.320312 24.464845zm0 0" fill="#ccc7ba"/><path d="m44.761719 74.957031c-4.609375-3.363281-11.09375-19.855469-8.59375-23.449219s6.25-11.097656 8.359375-18.445312c2.105468-7.269531 5.074218-22.746094 10.933594-28.214844 5.859374-5.472656 14.609374-5.472656 26.167968-4.222656 11.484375 1.25 45.152344 7.347656 53.355464 10.238281 8.1211 2.894531 18.7461 8.363281 18.1211 21.105469-.625 12.738281.54687 19.070312-.9375 26.183594-1.48438 7.113281-16.94922 20.945312-36.40234 21.960937-19.527349 1.175781-66.398442-1.796875-71.003911-5.15625zm0 0" fill="url(#c)"/><path d="m99.832031 59.246094s20.074219-2.65625 32.183589-13.992188c12.10547-11.332031 1.40625-19.460937-1.875-21.492187-3.28124-2.03125-14.29687-7.347657-31.714839-6.566407-17.421875.78125-34.605469.9375-33.433593 13.835938 1.171874 12.816406 15.230468 28.214844 34.839843 28.214844zm0 0" fill="url(#d)"/><path d="m55.460938 20.476562c-2.1875-1.40625-2.5-9.066406 5.625-14.300781 8.125-5.160156 29.058593-2.035156 42.652342 1.25 13.66797 3.28125 35.69531 7.894531 34.52344 9.144531-1.17188 1.171876-33.97656-2.8125-48.976564-2.03125-20.386718 1.09375-30.386718 8.128907-33.824218 5.9375zm0 0" fill="url(#e)"/><path d="m152.79297 56.042969c-.23438 0-.3125.703125-.625 1.09375-2.57813 4.21875-10.23438 11.410156-27.65234 11.410156h-47.339849c-29.839843 0-38.507812-8.050781-40.695312-13.835937-.15625-.546876-.390625-1.25-.625-1.25s-.390625 1.25-.390625 1.25l-2.265625 21.652343c0 9.925781 25.699219 17.976563 58.742187 17.976563 33.042974 0 61.398434-4.6875 61.398434-17.976563 0 0 .15625-13.210937.0781-19.070312 0-.625-.0781-1.25-.625-1.25zm0 0" fill="url(#f)"/></g></svg>