<svg height="200" viewBox="0 0 200 200" width="200" xmlns="http://www.w3.org/2000/svg"><path d="m182.08203 11.636719c-2.78125 6.667969-6.37891 12.964843-10.71094 18.746093-25.25781-26.132812-62.72265-36.46875-97.80859-26.988281-35.082031 9.480469-62.242188 37.28125-70.898438 72.578125-8.660156 35.292974 2.550782 72.507814 29.261719 97.148434l3.707031 3.29688c28.6875 24.1914 68.535158 30.23047 103.101558 15.62109 34.57032-14.60937 58.00782-47.39453 60.64844-84.82812 2.88281-25.128909-4.73828-57.261721-17.30078-95.574221zm-135.73828 162.308591c-2.957031 3.63281-8.300781 4.1836-11.933594 1.22656-3.636718-2.95312-4.1875-8.29687-1.234375-11.93359s8.292969-4.19141 11.933594-1.24219c3.546875 3.00782 4.09375 8.27735 1.234375 11.94922zm135.11719-29.86719c-24.50782 32.75-77.23828 21.62891-110.812502 23.27344 0 0-5.972657.41406-11.945313 1.23828 0 0 2.265625-1.03125 5.148437-2.05859 23.6875-8.24219 34.808594-9.88672 49.226568-17.30469 26.98437-13.80078 53.96484-44.07812 59.32031-75.386716-10.29688 30.074216-41.60547 56.027346-70.03125 66.531246-19.566409 7.20703-54.789065 14.21094-54.789065 14.21094l-1.441406-.82422c-23.890625-11.73828-24.714844-63.644529 18.949219-80.328122 19.15625-7.414063 37.281252-3.296876 58.085942-8.238282 22.03906-5.148437 47.57812-21.628906 57.8789-43.253906 11.53516 34.808594 25.53906 88.77344.41016 122.14062zm0 0" fill="#6bb33d" transform="matrix(.92371737 0 0 .92371737 7.619791 7.622214)"/></svg>