<svg height="200" viewBox="0 0 200 200" width="200" xmlns="http://www.w3.org/2000/svg" xmlns:xlink="http://www.w3.org/1999/xlink"><filter id="a" height="100%" width="100%" x="0%" y="0%"><feColorMatrix in="SourceGraphic" type="matrix" values="0 0 0 0 1 0 0 0 0 1 0 0 0 0 1 0 0 0 1 0"/></filter><mask id="b"><g filter="url(#a)"><path d="m0 0h200v200h-200z" fill-opacity=".1"/></g></mask><clipPath id="c"><path d="m0 0h200v200h-200z"/></clipPath><g transform="matrix(.915255 0 0 .915255 8.4745 8.4745)"><path d="m200 100c0 55.22656-44.77344 100-100 100-55.226562 0-100-44.77344-100-100 0-55.226562 44.773438-100 100-100 55.22656 0 100 44.773438 100 100zm0 0" fill="#5c2b8f"/><g clip-path="url(#c)" height="100%" mask="url(#b)" width="100%"><path d="m30.6875 28.125c-27.699219 24.683594-39.457031 62.671875-30.542969 98.683594 8.914063 36.015625 37.03125 64.132812 73.046875 73.046875 36.011719 8.914062 74-2.84375 98.683594-30.542969zm0 0" fill="#fff"/></g><g fill="#fff"><path d="m23.125 116.40625c-1.179688.0195-2.3125-.45703-3.125-1.3125-.835938-.82422-1.296875-1.95312-1.28125-3.125-.0078-1.17187.453125-2.29687 1.28125-3.125.804688-.87109 1.941406-1.35937 3.125-1.34375 1.183594-.004 2.3125.48438 3.125 1.34375.84375.82031 1.316406 1.94922 1.3125 3.125.01172 1.17969-.464844 2.30859-1.3125 3.125-.820312.84375-1.949219 1.32031-3.125 1.3125zm0 0"/><path d="m85.21875 115.625h-8.1875l-29.28125-45.4375c-.730469-1.121094-1.335938-2.3125-1.8125-3.5625h-.25c.277344 2.59375.382812 5.203125.3125 7.8125v41.1875h-6.65625v-56.96875h8.65625l28.5 44.625c1.1875 1.85547 1.957031 3.125 2.3125 3.8125h.15625c-.328125-2.77734-.464844-5.57812-.40625-8.375v-40.0625h6.65625zm0 0"/><path d="m130.28125 115.625h-30.28125v-56.96875h28.875v6.03125h-22.0625v18.9375h20.5625v6h-20.5625v19.75h23.5zm0 0"/><path d="m175 64.6875h-16.5625v50.9375h-6.65625v-50.9375h-16.375v-6.03125h39.59375zm0 0"/></g><path d="m81.625 154.375c-2.257812 1.09375-4.746094 1.61719-7.25 1.53125-3.367188.15234-6.636719-1.16016-8.96875-3.59375-2.296875-2.57031-3.507812-5.92969-3.375-9.375-.167969-3.76563 1.195312-7.44141 3.78125-10.1875 2.523438-2.58594 6.015625-3.99219 9.625-3.875 2.136719-.0742 4.265625.30078 6.25 1.09375v3.125c-1.910156-1.05859-4.066406-1.59766-6.25-1.5625-2.785156-.0781-5.46875 1.0625-7.34375 3.125-1.949219 2.21875-2.957031 5.11328-2.8125 8.0625-.144531 2.79687.792969 5.53906 2.625 7.65625 1.777344 1.91016 4.300781 2.94922 6.90625 2.84375 2.398438.0625 4.769531-.54297 6.84375-1.75zm0 0" fill="#f0f0f0"/><path d="m94.40625 155.90625c-2.515625.082-4.945312-.93359-6.65625-2.78125-1.707031-1.90625-2.597656-4.41016-2.46875-6.96875-.15625-2.70703.777344-5.36328 2.59375-7.375 1.855469-1.8125 4.378906-2.77344 6.96875-2.65625 2.453125-.12891 4.835938.81641 6.53125 2.59375 1.66016 2 2.5 4.55859 2.34375 7.15625.13281 2.63672-.77734 5.21484-2.53125 7.1875-1.742188 1.88281-4.214844 2.92187-6.78125 2.84375zm.21875-17.09375c-1.742188-.0742-3.421875.65234-4.5625 1.96875-1.203125 1.54687-1.800781 3.48047-1.6875 5.4375-.109375 1.89844.492188 3.76953 1.6875 5.25 1.152344 1.29687 2.828125 2.00781 4.5625 1.9375 1.699219.10156 3.351562-.59375 4.46875-1.875 1.13672-1.55078 1.6875-3.45703 1.5625-5.375.125-1.92969-.42969-3.83984-1.5625-5.40625-1.105469-1.30859-2.757812-2.02734-4.46875-1.9375zm0 0" fill="#f0f0f0"/><path d="m118.3125 139.75c-.67578-.44141-1.47656-.65234-2.28125-.59375-1.27734.0469-2.44922.72656-3.125 1.8125-.92969 1.47266-1.37891 3.19922-1.28125 4.9375v9.5625h-3.125v-18.75h3.125v3.90625c.34375-1.20703 1.02734-2.29297 1.96875-3.125.81641-.70703 1.85938-1.09766 2.9375-1.09375.60547-.0273 1.20703.0586 1.78125.25zm0 0" fill="#f0f0f0"/><path d="m136.625 146.875h-13.21875c-.0898 1.74609.48047 3.46484 1.59375 4.8125 1.17188 1.16797 2.78516 1.78125 4.4375 1.6875 2.11719-.0195 4.16797-.75781 5.8125-2.09375v2.8125c-1.93359 1.27344-4.21875 1.89844-6.53125 1.78125-2.35937.12109-4.65234-.82031-6.25-2.5625-1.625-2.02734-2.44141-4.58984-2.28125-7.1875-.11328-2.60156.76953-5.14844 2.46875-7.125 1.56641-1.80859 3.85938-2.81641 6.25-2.75 2.16016-.12109 4.25391.75391 5.6875 2.375 1.4375 1.89844 2.14844 4.25 2 6.625zm-3.125-2.53125c.0625-1.44922-.37891-2.875-1.25-4.03125-.86719-.98047-2.13281-1.50781-3.4375-1.4375-1.35937-.0156-2.66406.53906-3.59375 1.53125-1.02734 1.08984-1.67578 2.48047-1.84375 3.96875zm0 0" fill="#f0f0f0"/></g></svg>