<svg height="200" viewBox="0 0 200 200" width="200" xmlns="http://www.w3.org/2000/svg"><path d="m84.03125 15.996094c27.667969.039062 55.371094-.023438 83.039062-.03125 4.902344-.140625 9.390626 1.898437 12.652344 5.507812 1.75 4.890625 2.929688 9.941406 2.910156 15.160156-.160156 24.339844-.132812 48.683594-.113281 73.023438-.046875 7.066406.761719 15.019531-3.21875 21.269531-2.558593 4.128907-6.851562 5.839844-11.480469 6.527344-9.300781 1.320313-18.738281-.1875-28.160156.839844-1.078125 9.75.300782 19.613281-.710937 29.3125-.527344 5.6875-4.238281 10.378906-9.398438 12.667969-3.789062 1.699218-8.449219 1.761718-12.53125 1.792968-20-.183594-40 .046875-60 .007813-8.910156.160156-17.488281-.601563-26.347656.761719-7.449219-1.671876-14.152344-9.230469-13.351563-17.152344.039063-29.667969.0625-59.417969.050782-89.089844-.058594-4.417969 1.570312-8.738281 4.699218-11.878906 3.492188-3.191406 8.230469-4.550782 12.890626-4.570313 8.5-.121093 17.011718.210938 25.519531-.058593.269531-9.152344-.179688-18.332032.121093-27.480469.269532-5.859375 2.609376-11.539063 8.019532-14.390625 4.898437-2.921875 9.949218-2.109375 15.410156-2.21875zm0 0" fill="#87b74b"/><path d="m179.722656 21.472656c3.066406 3.472656 5.1875 7.34375 5 12.121094-.011718 29.710938-.011718 59.421875-.023437 89.128906.320312 8.300782-7.378907 16.070313-15.597657 16.3125-9.171874.371094-18.378906-.171875-27.5625.1875-.46875 9.492188.171876 19.023438-.269531 28.5-.367187 8.242188-7.808593 15.832032-16.1875 15.613282-29.351562-.082032-58.710937-.042969-88.050781-.011719-2.128906-.019531-4.261719-.148438-6.359375-.488281 8.859375-1.363282 17.4375-.601563 26.347656-.761719 20 .039062 40-.191407 60-.007813 4.082031-.03125 8.742188-.09375 12.53125-1.792968 5.160157-2.289063 8.871094-6.980469 9.398438-12.667969 1.011719-9.699219-.367188-19.5625.710937-29.3125 9.421875-1.027344 18.859375.480469 28.160156-.839844 4.628907-.6875 8.921876-2.398437 11.480469-6.527344 3.980469-6.25 3.171875-14.203125 3.21875-21.269531-.019531-24.339844-.046875-48.683594.113281-73.023438.019532-5.21875-1.160156-10.269531-2.910156-15.160156zm0 0" fill="#686465"/><path d="m90.980469 37.984375c20.359375.082031 40.71875.082031 61.082031.011719 2.726562.136718 5.609375-.152344 7.707031 1.929687 2.390625 2.097657 1.960938 4.789063 2.101563 7.667969-.148438 21.332031.03125 42.761719-.082032 64.070312.023438 3.511719-1.578124 5.679688-5.027343 6.390626-5.851563.640624-11.851563.089843-17.742188.238281-6.707031.171875-13.757812-.589844-20.308593.660156-.160157 12.25.191406 24.542969-.070313 36.792969.03125 2.988281-1.699219 5.539062-4.667969 6.207031-3.261718.5-6.660156.3125-9.953125.339844-16-.019531-32-.019531-48-.007813-4-.03125-8.058593.21875-12.039062-.160156-2.660157-.191406-5.371094-2.699219-5.46875-5.421875-.410157-3.980469-.160157-8.046875-.179688-12.046875.007813-15 .027344-30-.011719-45 .019532-3.960938-.25-8.023438.21875-11.960938.570313-3.671874 3.902344-5.640624 7.433594-5.570312 11.757813-.242188 23.546875.320312 35.296875-.191406.28125-11.769532.011719-23.570313.082031-35.347656.109376-2.5.039063-4.742188 2.007813-6.589844 2.113281-2.101563 4.863281-1.882813 7.621094-2.011719zm0 0" fill="#fff"/><path d="m107.960938 55.042969c9.039062.101562 18.070312.121093 27.109374.011719 3.121094.121093 6.160157-.339844 8.628907 1.960937 2.390625 1.96875 2.773437 4.617187 2.761719 7.558594-.019532 9.371093-.101563 18.742187.019531 28.121093-.058594 2.640626.152343 6.019532-1.21875 8.371094-1.601563 2.476563-4.460938 2.949219-7.191407 3.066406-11.449218.210938-22.9375-.359374-34.378906.191407-.46875 8.761719-.109375 17.558593-.179687 26.332031-.082031 4.058594.398437 8.398438-.429688 12.386719-1.28125 3.8125-5.292969 5.230469-9.011719 5.179687-9.359374.0625-18.71875-.117187-28.089843.042969-3.28125-.101563-6.929688.339844-9.46875-2.171875-2.582031-2.597656-2.800781-5.890625-2.839844-9.359375.050781-8.378906.117187-16.75-.011719-25.128906.039063-3.609375-.199218-7.082031 2.371094-9.960938 2.140625-2.398437 4.917969-2.5 7.929688-2.570312 8.359374-.019531 16.738281.148437 25.101562.082031 2.546875-.011719 5-.53125 7.476562-1.089844.492188-11.472656 0-22.992187.160157-34.472656.070312-2.289062.453125-4.417969 2.203125-6.050781 2.589844-2.589844 5.648437-2.4375 9.058594-2.5zm0 0" fill="#f6c43f"/></svg>