<svg height="200" viewBox="0 0 200 200" width="200" xmlns="http://www.w3.org/2000/svg"><g fill="#472a2b"><path d="m108.648438 106.625h-5.457032v-10.796875h5.457032c3.007812 0 5.460937 2.421875 5.460937 5.460937-.03125 3.035157-2.574219 5.335938-5.460937 5.335938m0-20.089844h-15.027344v29.414063h15.027344c8.101562 0 14.664062-6.5 14.664062-14.753907-.03125-8.128906-6.5625-14.660156-14.664062-14.660156"/><path d="m156.410156 101.042969c-.121094-8.097657-6.65625-14.507813-14.660156-14.507813h-14.664062v29.414063h9.570312v-19.84375h5.09375c2.914062 0 5.183594 2.269531 5.183594 5.183593v14.753907h9.570312zm0 0"/><path d="m190.335938 101.042969c-.121094-8.097657-6.65625-14.507813-14.660157-14.507813h-14.753906v29.414063h9.570313v-19.84375h5.183593c2.789063 0 5.183594 2.269531 5.183594 5.183593v14.753907h9.570313zm0 0"/></g><path d="m54.816406 86.535156v-22.117187c-3.742187-1.351563-7.882812-2.054688-12.117187-2.054688h-36.289063v48.402344h24.203125v-24.230469zm0 0" fill="#ef3e42"/><path d="m54.816406 86.535156h-24.234375v24.199219h12.117188c6.65625 0 12.117187-5.457031 12.117187-12.113281zm0 0" fill="#fff"/><path d="m54.816406 64.417969v22.117187h22.117188c-3.742188-10.277344-11.839844-18.527344-22.117188-22.117187zm-48.40625 70.519531h24.203125v-24.203125h-24.203125zm0 0" fill="#472a2b"/><path d="m76.933594 86.535156h-22.117188v12.113282c0 6.660156-5.460937 12.117187-12.117187 12.117187h-12.117188v24.203125h12.117188c20.09375 0 36.289062-16.195312 36.289062-36.289062 0-4.261719-.738281-8.371094-2.054687-12.144532zm0 0" fill="#00a4e4"/></svg>