<svg height="200" viewBox="0 0 200 200" width="200" xmlns="http://www.w3.org/2000/svg"><path d="m34.199219 15.585938c2.234375-.527344 4.714843-.332032 7.003906-.335938 4.277344.109375 8.382813-.246094 12.632813.25.144531 6.4375.144531 12.941406 0 19.386719-4.054688.484375-8.007813.15625-12.074219.25-2.550781.054687-5.097657.039062-7.636719-.246094-.175781-4.4375-.015625-8.863281-.085938-13.308594 0-1.984375-.097656-4.023437.160157-5.996093zm0 0" fill="#056290"/><path d="m88.132812 15.613281c2.203126-.566406 4.695313-.359375 6.960938-.371093 4.265625.105468 8.425781-.207032 12.675781.222656.308594 4.265625.085938 8.511718.167969 12.785156.035156 2.226562-.027344 4.441406-.167969 6.664062-4.058593.429688-8.054687.132813-12.121093.222657-2.539063.054687-5.066407.039062-7.589844-.265625-.148438-4.433594-.003906-8.855469-.066406-13.289063-.003907-1.972656-.105469-4.007812.140624-5.96875zm0 0" fill="#056290"/><path d="m35.855469 17.308594c5.222656-.5 10.605469-.078125 15.855469.027344-.128907 1.535156.160156 3.171874-.960938 4.382812-1.519531 1.785156-3.339844 3.3125-4.96875 4.996094-1.6875 1.628906-3.214844 3.449218-4.992188 4.972656-1.324218 1.175781-2.917968 1.175781-4.574218 1.464844-.445313-2.367188-.386719-4.730469-.355469-7.125.046875-2.886719-.320313-5.855469-.003906-8.71875zm0 0" fill="#167bbb"/><path d="m90.027344 17.179688c5.222656-.171876 10.488281-.058594 15.710937.179687-.132812 1.601563-.316406 2.738281-1.550781 3.878906-3.457031 3.386719-6.859375 6.828125-10.273438 10.261719-1.125 1.164062-2.117187 1.332031-3.6875 1.375-.261718-5.203125-.488281-10.484375-.199218-15.695312zm0 0" fill="#167bbb"/><g fill="#056290"><path d="m59.121094 19.03125c3.0625-.394531 6.222656-.105469 9.3125-.207031 2.007812.085937 4.296875-.242188 5.796875 1.394531 1.867187 1.722656 1.234375 5.128906 1.230469 7.40625-.585938.007812-1.167969.007812-1.75 0-.078126-1.753906.015624-3.625-.421876-5.332031-.328124-.996094-1.242187-1.417969-2.21875-1.507813-2.53125-.226562-5.097656-.03125-7.644531-.105468-1.449219.039062-3.136719-.148438-4.515625.351562-1.628906.855469-1.46875 2.882812-1.515625 4.449219.054688 1.546875.097657 3.46875 1.882813 3.988281 2.058594.339844 4.203125.234375 6.289062.40625-.023437.523438-.046875 1.046875-.066406 1.5625-2.355469.082031-5.390625.550781-7.566406-.5-2.710938-1.496094-2.5-5.054688-2.285156-7.699219.160156-2.011719 1.40625-3.835937 3.472656-4.207031zm0 0"/><path d="m78.949219 18.742188c2.386719-.003907 5.328125-.09375 6.6875 2.277343.960937 1.949219.828125 4.546875.5625 6.652344-.265625 2.042969-1.863281 3.621094-3.929688 3.765625-2.9375.242188-5.910156.050781-8.855469.121094-2.039062-.070313-4.230468.207031-5.742187-1.449219-1.777344-1.738281-1.207031-5.101563-1.230469-7.359375.578125-.007812 1.15625-.011719 1.734375-.019531.09375 1.757812.046875 3.617187.472657 5.324219.285156.988281 1.171874 1.445312 2.132812 1.542968 2.535156.246094 5.105469.039063 7.644531.117188 1.46875-.035156 3.132813.132812 4.535157-.34375 1.515624-.773438 1.464843-2.410156 1.542968-3.890625-.042968-1.566407.117188-3.648438-1.542968-4.472657-2.191407-.507812-4.550782-.210937-6.785157-.582031.09375-1.734375 1.460938-1.523437 2.773438-1.683593zm0 0"/><path d="m119.617188 20.480469c2.214843-.472657 4.789062.449219 6.714843 1.535156 1.867188 1.011719 3.300781 2.433594 5.445313 2.710937 2.671875.410157 5.222656.65625 7.644531 1.976563 7.503906 4.113281 14.15625 10.332031 18.117187 17.976563 2.070313 4.675781 4.066407 9.539062 6.503907 14.074218.863281 1.609375 2.394531 2.011719 3.933593 2.746094 2.039063.855469 3.882813 1.890625 5.667969 3.191406 2.789063 2.0625 5.488281 3.835938 7.265625 6.921875-3.15625 1.191407-6.523437 1.195313-9.707031 2.316407 2.140625 2.472656 5.085937 3.574218 7.441406 5.769531 1.6875 1.480469 3.09375 3.222656 4.304688 5.097656-2.515625-1.59375-4.894531-3.332031-7.640625-4.554687-3.5-1.636719-6.53125-3.851563-8.054688-7.539063 3.367188-1.921875 6.894532-2.070313 10.65625-2.371094-3.339844-2.75-7.1875-5.601562-11.378906-6.832031-1.253906-.457031-2.816406-.851562-3.808594-1.769531-1.101562-1.148438-1.789062-2.777344-2.46875-4.203125-1.238281-2.808594-2.628906-5.546875-3.820312-8.375-3.453125-9.003906-10.679688-16.546875-19.355469-20.683594-2.574219-1.28125-5.183594-.992188-7.863281-1.683594-2.511719-1.082031-4.453125-3.046875-7.234375-3.777344-.992188-.191406-2.203125-.605468-2.84375.457032-.210938 2.109375 2.054687 4.261718 3.15625 5.917968 2.457031 3.058594 3.035156 6.519532 4.371093 10.078126.824219 2.269531 2.605469 3.902343 3.5625 6.054687-.527343 3.625-2.292968 6.695313-1.898437 10.53125.242187 2.917969.742187 7.445313 3.671875 8.953125.414062-2.136719.585938-4.363281 1.210938-6.441406.425781-1.386719 1.414062-2.328125 2.335937-3.394532 1.578125 3.351563 2.96875 6.746094 4.964844 9.890626 1.582031 2.738281 3.648437 5.066406 5.726562 7.433593-2.144531-1.640625-4.339843-3.347656-6.207031-5.296875-1.777344-1.847656-2.910156-4.082031-4.316406-6.265625-.394532 1.683594-.636719 3.457031-1.253906 5.074219-.46875 1.21875-2.140626 1.769531-3.285157 1.175781-1.421875-.6875-2.4375-2.160156-3.136719-3.539062-1.691406-3.355469-1.980468-7.1875-1.5625-10.878907.25-2.265624 1.207032-4.425781 1.390626-6.6875-.570313-1.660156-1.789063-3.105468-2.5625-4.6875-1.890626-3.613281-2.105469-7.417968-4.496094-10.519531-1.28125-1.796875-3.277344-3.742187-3.699219-5.953125-.332031-1.890625.515625-3.957031 2.507813-4.429687zm0 0"/><path d="m130.625 31.492188c1.164062.1875 2.167969.074218 2.800781 1.257812.683594 1.058594-.054687 1.914062-.382812 2.960938-1.027344-1.296876-1.957031-2.605469-2.417969-4.21875zm0 0"/><path d="m41.214844 37.035156c1.960937-.316406 4.082031-.34375 6.023437.117188 1.777344.488281 2.859375 2.050781 2.988281 3.851562.238282 2.957032.054688 5.949219.121094 8.910156-.070312 2.089844.125 4.339844-1.691406 5.777344-1.878906 1.539063-5.058594 1.011719-7.300781.828125 0-.488281 0-.976562 0-1.464843 1.726562-.117188 3.492187-.132813 5.191406-.449219 1.019531-.179688 1.613281-1.011719 1.734375-1.996094.324219-2.34375.140625-4.773437.191406-7.132813-.03125-1.71875.097656-3.59375-.375-5.257812-.492187-1.359375-2.316406-1.488281-3.539062-1.570312-1.359375-.011719-3.648438-.054688-4.527344 1.207031-.945312 2.171875-.042969 5.070312-1.109375 7.1875-.839844-.050781-1.105469-.828125-1.191406-1.550781-.214844-1.804688-.226563-3.714844.191406-5.492188.394531-1.585938 1.699219-2.695312 3.292969-2.964844zm0 0"/><path d="m95.109375 37.046875c1.949219-.332031 4.09375-.347656 6.027344.085937 2.039062.554688 3.191406 2.382813 3.15625 4.441407.042969 3.519531.050781 7.050781-.003907 10.566406.015626 1.902344-1.019531 3.453125-2.761718 4.191406-1.929688.714844-4.230469.417969-6.210938.097657-.007812-.4375-.007812-.871094 0-1.308594 1.839844-.21875 3.742188-.199219 5.550782-.605469 1.082031-.324219 1.34375-1.378906 1.460937-2.375.242187-2.765625.082031-5.570313.125-8.347656-.054687-1.265625.035156-2.84375-.570313-3.996094-.796874-1.121094-2.777343-1.132813-4.015624-1.160156-1.222657.050781-3.175782.078125-3.894532 1.265625-1.011718 2.300781.332032 5.640625-1.601562 7.453125-1.027344-2.320313-1.042969-4.878907-.488282-7.320313.410157-1.554687 1.648438-2.6875 3.226563-2.988281zm0 0"/><path d="m46.554688 47.808594c.027343.488281.050781.976562.070312 1.460937-1.714844.140625-3.46875.160157-5.164062.46875-1.023438.164063-1.632813.9375-1.777344 1.9375-.378906 2.515625-.171875 5.140625-.222656 7.683594.050781 1.632813-.113282 3.566406.519531 5.105469.746093 1.199218 2.757812 1.214844 4 1.253906 1.25-.039062 3.246093-.058594 3.996093-1.257812.65625-2.101563.429688-4.546876.566407-6.730469.535156-.011719 1.066406-.03125 1.601562-.070313.164063 2.121094.453125 4.542969-.078125 6.621094-.410156 1.621094-1.789062 2.871094-3.445312 3.121094-1.6875.257812-3.589844.257812-5.277344 0-1.828125-.269532-3.328125-1.753906-3.535156-3.605469-.335938-3.117187-.085938-6.304687-.171875-9.441406.074219-2.089844-.144531-4.324219 1.722656-5.734375 1.929687-1.484375 4.9375-1.007813 7.195313-.8125zm0 0"/><path d="m100.515625 47.769531c.015625.511719.027344 1.015625.042969 1.527344-1.722656.128906-3.5.128906-5.199219.445313-1.210937.25-1.695313 1.300781-1.777344 2.4375-.214843 2.757812-.050781 5.539062-.105469 8.300781.042969 1.269531-.070312 2.777343.4375 3.960937.863282 1.308594 3.15625 1.273438 4.535157 1.273438 1.210937-.066406 3.207031-.183594 3.636719-1.589844.484374-2.050781.335937-4.28125.433593-6.382812.585938.007812 1.167969.011718 1.75.023437.046875 2.082031.242188 4.28125-.132812 6.332031-.480469 2.171875-2.445313 3.40625-4.59375 3.433594-2.136719.066406-5.167969.367188-6.707031-1.457031-1.382813-1.402344-1.199219-3.78125-1.253907-5.605469.074219-2.949219-.148437-5.941406.15625-8.882812.160157-1.585938 1.105469-2.914063 2.582031-3.53125 1.855469-.738282 4.238282-.421876 6.195313-.285157zm0 0"/><path d="m34.210938 69.527344c2.242187-.480469 4.703124-.3125 6.992187-.316406 4.25.097656 8.390625-.210938 12.625.230468.183594 6.445313.105469 12.917969.046875 19.363282-3.363281.632812-6.453125.238281-9.894531.304687-3.414063-.0625-6.53125.3125-9.898438-.292969-.101562-4.636718.015625-9.269531-.050781-13.902344-.003906-1.777343-.070312-3.621093.179688-5.386718zm0 0"/><path d="m88.136719 69.535156c2.230469-.492187 4.679687-.320312 6.957031-.324218 4.253906.097656 8.421875-.195313 12.667969.210937.296875 6.433594.203125 12.96875.054687 19.414063-3.355468.550781-6.566406.230468-9.945312.273437-2.761719-.035156-5.535156.140625-8.289063 0-.675781-.039063-1.472656-.148437-1.496093-1-.265626-3.078125-.019532-6.210937-.074219-9.304687.054687-3.078126-.207031-6.207032.125-9.269532zm0 0"/></g><path d="m35.871094 71.226562c5.207031-.515624 10.5625.011719 15.792968.042969-.078124 1.640625.300782 3.585938-.921874 4.890625-1.414063 1.695313-3.144532 3.132813-4.683594 4.714844-1.683594 1.628906-3.210938 3.484375-5.039063 4.945312-1.34375 1.109376-3.132812 1.0625-4.777343 1.289063-.675782-3.171875-.277344-6.210937-.414063-9.417969-.046875-2.125-.222656-4.347656.042969-6.464844zm0 0" fill="#167bbb"/><path d="m90.039062 71.09375c5.226563-.066406 10.578126-.257812 15.757813.503906-.226563 1.402344-.527344 2.539063-1.597656 3.535156-3.257813 3.226563-6.535157 6.421876-9.710938 9.726563-1.199219 1.316406-2.515625 1.871094-4.21875 2.273437-.316406-5.3125-.539062-10.730468-.230469-16.039062zm0 0" fill="#167bbb"/><path d="m62.304688 72.785156c2.945312.070313 5.910156-.09375 8.851562.089844 1.859375.074219 3.476562 1.207031 4.070312 2.984375.632813 2.09375.3125 4.148437-.101562 6.25-.464844-.238281-.9375-.46875-1.402344-.695313-.078125-1.710937-.019531-3.539062-.453125-5.195312-.371093-1.1875-1.527343-1.320312-2.59375-1.441406-2.59375-.179688-5.210937-.058594-7.804687-.089844-1.351563.039062-2.917969-.035156-4.171875.488281-1.304688.792969-1.261719 2.855469-1.300781 4.1875.035156 1.5625.0625 3.5 1.867187 4.046875 2.054687.359375 4.199219.253906 6.28125.414063-.015625.511719-.027344 1.03125-.042969 1.539062-2.367187.164063-5.433594.597657-7.621094-.476562-1.894531-1.0625-2.246093-2.9375-2.335937-4.949219-.03125-1.949219-.035156-4.40625 1.496094-5.851562 1.410156-1.476563 3.394531-1.226563 5.261719-1.300782zm0 0" fill="#056290"/><path d="m80.097656 72.738281c1.695313.066407 3.449219.039063 4.75 1.296875 1.5 1.328125 1.507813 3.484375 1.535156 5.328125-.050781 1.683594-.128906 3.617188-1.433593 4.855469-1.367188 1.414062-3.589844 1.28125-5.402344 1.347656-2.960937-.050781-5.949219.125-8.890625-.136718-1.589844-.125-3.03125-.910157-3.703125-2.398438-.816406-1.898438-.449219-4.417969-.28125-6.433594.511719.039063 1.027344.074219 1.539063.113282.085937 1.84375-.039063 3.902343.550781 5.671874.855469 1.503907 3.175781 1.214844 4.644531 1.292969 3.035156-.117187 6.191406.234375 9.191406-.234375 1.863282-.542968 1.835938-2.476562 1.90625-4.078125-.0625-1.34375.132813-3.519531-1.339844-4.210937-2.121093-.765625-4.777343-.046875-6.882812-.902344l-.003906-.875c1.058594-.703125 2.59375-.617188 3.820312-.636719zm0 0" fill="#056290"/><path d="m28.433594 93.902344c3.835937.023437 6.144531 2.195312 9.292968 3.851562 3.089844 1.050782 6.328126.777344 9.300782 2.460938 8.660156 4.671875 16.445312 12.445312 19.878906 21.789062 1.203125 2.960938 2.636719 5.84375 4.015625 8.734375.722656 1.359375 1.226563 2.6875 2.722656 3.367188 2.25 1.109375 4.566407 1.9375 6.636719 3.398437 3.179688 2.261719 6.199219 4.25 8.390625 7.5625-3.113281 1.410156-6.527344 1.066406-9.628906 2.582032 1.140625 1.121093 2.339843 2.117187 3.695312 2.960937 3.273438 2.027344 6.117188 4.601563 8.042969 7.964844-2.339844-1.574219-4.519531-3.289063-7.121094-4.449219-3.738281-1.828125-7.1875-3.816406-8.628906-7.976562 3.402344-1.761719 6.933594-1.917969 10.679688-2.128907-3.773438-3.328125-7.96875-6.070312-12.851563-7.4375-2.417969-.621093-3.4375-2.351562-4.410156-4.472656-1.777344-3.96875-3.695313-7.859375-5.367188-11.871094-3.15625-6.703125-8.488281-12.445312-14.789062-16.3125-2.265625-1.371093-4.671875-2.675781-7.339844-2.996093-1.753906-.277344-3.671875-.191407-5.199219-1.160157-2.367187-1.414062-4.566406-3.117187-7.417968-3.5-1.058594-.058593-1.675782.789063-1.398438 1.8125.710938 2.214844 2.707031 4.089844 3.921875 6.066407 2.035156 3.039062 2.367187 6.320312 3.8125 9.539062.84375 1.886719 2.34375 3.359375 3.222656 5.199219 0 2.394531-1.382812 4.738281-1.65625 7.144531-.460937 3.523438-.128906 7.460938 1.523438 10.660156.414062.90625 1.1875 1.257813 1.992187 1.738282.34375-2.007813.488282-4.136719 1.09375-6.09375.46875-1.5 1.441406-2.503907 2.441406-3.660157 2.605469 6.351563 5.875 12.253907 10.488282 17.382813-2.085938-1.734375-4.199219-3.460938-6.09375-5.398438-1.808594-1.839844-2.839844-4.132812-4.378906-6.351562-.3125 1.671875-.476563 3.433594-1.011719 5.050781-.4375 1.316406-1.820313 1.851563-3.101563 1.476563-1.359375-.4375-2.421875-1.828126-3.109375-3.019532-1.949219-3.453125-2.351562-7.773437-1.851562-11.644531.269531-2.246094 1.273437-4.457031 1.316406-6.707031-.597656-1.5-1.660156-2.8125-2.390625-4.253906-1.996094-3.722657-2.144531-7.539063-4.703125-10.875-1.277344-1.835938-3.414063-3.90625-3.742187-6.171876-.355469-2.28125 1.414062-4.304687 3.722656-4.261718zm0 0" fill="#056290"/><path d="m119.070312 96.082031c2.199219-.511719 4.796876.40625 6.71875 1.472657 1.832032.964843 3.367188 2.476562 5.433594 2.730468 2.683594.425782 5.230469.640625 7.664063 1.964844 7.617187 4.171875 14.378906 10.503906 18.324219 18.296875 1.621093 3.734375 3.164062 7.480469 5 11.125.835937 1.582031 1.53125 3.726563 3.292968 4.476563 2.371094 1.148437 4.792969 2.054687 6.945313 3.621093 3.066406 2.238281 6.011719 4.085938 8 7.417969-3.199219 1.339844-6.5625.933594-9.617188 2.597656 2.3125 2.242188 5.25 3.511719 7.589844 5.695313 1.582031 1.421875 2.882813 3.089843 4.011719 4.890625-2.546875-1.589844-4.933594-3.34375-7.691406-4.5625-3.492188-1.632813-6.492188-3.878906-8.011719-7.539063 3.367187-1.859375 6.902343-1.992187 10.625-2.398437-3.824219-3.15625-7.828125-5.929688-12.679688-7.234375-3.128906-.828125-3.855469-3.359375-5.128906-5.964844-1.703125-3.695313-3.390625-7.378906-5.007813-11.113281-3.824218-7.570313-10.355468-13.90625-18.027343-17.515625-2.570313-1.285157-5.195313-.945313-7.851563-1.671875-1.976562-.839844-3.628906-2.351563-5.621094-3.207032-1.300781-.609374-2.628906-.726562-4.035156-.914062-.097656.710938-.449218 1.636719-.132812 2.316406.878906 2.027344 2.628906 3.757813 3.820312 5.632813 2.546875 3.820312 2.433594 8.230469 5.261719 11.972656.710937 1.214844 2.273437 2.542969 1.679687 4.058594-.976562 3.328125-2.152343 6.363281-1.75 9.929687.300782 2.960938.800782 6.742188 3.578126 8.445313.410156-2.117188.566406-4.367188 1.230468-6.425781.46875-1.375 1.429688-2.371094 2.347656-3.460938 1.660157 3.445312 3.082032 6.957031 5.160157 10.195312 1.589843 2.734376 3.65625 5.054688 5.828125 7.328126-2.277344-1.65625-4.605469-3.449219-6.539063-5.5-1.726562-1.8125-2.863281-4.054688-4.277343-6.195313-.484376 1.851563-.59375 4.132813-1.640626 5.757813-1.515624 1.226562-3.382812.570312-4.53125-.800782-2.730468-3.195312-3.507812-8.0625-3.183593-12.128906.136719-2.660156 1.277343-5.125 1.503906-7.742188-.621094-1.664062-1.804687-3.117187-2.582031-4.722656-1.40625-2.710937-1.933594-5.761718-3.238282-8.472656-1.285156-2.640625-3.929687-4.738281-4.835937-7.472656-.644531-1.929688.273437-4.371094 2.367187-4.882813zm0 0" fill="#056290"/><path d="m38.4375 104.964844c1.539062.144531 2.679688.648437 3.050781 2.265625-.167969.75-.496093 1.472656-.785156 2.183593-1-1.386718-1.933594-2.738281-2.265625-4.449218zm0 0" fill="#056290"/><path d="m130.085938 107.066406c1.136718.1875 2.15625.082032 2.824218 1.1875.800782 1.183594.050782 1.949219-.40625 3.0625-1.003906-1.316406-1.921875-2.652344-2.417968-4.25zm0 0" fill="#056290"/><path d="m13.699219 153.636719c1.800781-.4375 3.707031-.445313 5.511719-.054688 6.214843 1.40625 10.550781 7.28125 10.777343 13.542969.5 6.105469-2.699219 12.304688-8.339843 14.90625-3.777344 1.777344-8.1875 1.410156-11.644532-.917969-5.605468-3.675781-7.839844-10.988281-6.054687-17.335937 1.320312-4.777344 4.886719-8.816406 9.75-10.140625zm0 0" fill="#056290"/><path d="m105.648438 154.742188c4.988281.121093 9.996093-.171876 14.96875.171874-.019532 1.246094-.035157 2.484376-.050782 3.726563-5.15625.15625-10.328125 0-15.484375.03125-1.289062.054687-2.789062.042969-3.976562.582031-1.027344.59375-.933594 2.410156-.957031 3.425782.082031 1.535156.25 3.050781 1.984374 3.496093 4.164063.898438 9.867188-.566406 14.328126 1.238281 1.59375.667969 3.449218 1.757813 3.738281 3.621094.320312 1.941406.320312 4.140625-.042969 6.070313-.351562 1.832031-2.058594 2.953125-3.609375 3.726562-2.621094 1.28125-5.285156 1.082031-8.125 1.089844-4.757813-.085937-9.515625.039063-14.273437-.035156.054687-1.277344.113281-2.5625.171874-3.84375 5.441407-.339844 10.921876.082031 16.363282-.144531 1.121094-.113282 2.699218-.183594 3.355468-1.261719.621094-1.300781.566407-2.988281.34375-4.378907-.226562-1.394531-1.511718-1.898437-2.757812-2.082031-3.53125-.433593-7.242188.207031-10.84375-.4375-1.871094-.328125-3.882812-1.105469-5.25-2.46875-1.199219-1.148437-1.199219-3.019531-1.253906-4.570312.050781-2.027344.066406-4.316407 1.765625-5.71875 2.640625-2.269531 6.328125-2.222657 9.605469-2.238281zm0 0" fill="#ce8b2c"/><path d="m137.316406 154.832031c3.355469.082031 6.949219-.25 10.238282.417969 2.195312.476562 4.628906 1.710938 5.417968 3.960938.605469 2.148437.363282 4.597656.394532 6.816406-.105469 3.492187.1875 7.027344-.128907 10.507812-.089843 1.855469-1.84375 3.175782-3.023437 4.453125 1.726562 1.546875 3.449218 3.085938 4.984375 4.835938-1.972657.105469-4.105469.339843-6.054688-.054688-2.058593-.710937-3.535156-3.476562-5.707031-3.816406-4.234375-.292969-9.167969.574219-13.410156-.328125-2.167969-.503906-4.644532-1.710938-5.472656-3.921875-.667969-2.078125-.421876-4.523437-.457032-6.675781.117188-3.5-.164062-7.023438.105469-10.507813.140625-2.1875 1.671875-3.726562 3.578125-4.582031 2.839844-1.296875 6.472656-1.09375 9.535156-1.105469zm0 0" fill="#ce8b2c"/><path d="m157.054688 155.066406c1.84375-.535156 3.84375-.308594 5.738281-.183594.253906 6.121094.054687 12.265626.039062 18.386719.050781 1.105469.039063 2.390625.5 3.40625.765625 1.144531 2.734375 1.15625 3.960938 1.253907 5.195312.089843 10.398437-.066407 15.601562-.003907.054688 1.328125.054688 2.648438.003907 3.984375-4.457032.03125-8.90625-.0625-13.359376.011719-3.589843.039063-7.75-.023437-10.652343-2.460937-2.367188-2.035157-1.871094-5.078126-1.9375-7.878907.15625-5.5-.15625-11.035156.105469-16.515625zm0 0" fill="#ce8b2c"/><path d="m14.777344 158.53125c1.804687-.421875 3.847656-.273438 5.484375.648438 4 2.230468 5.691406 7.363281 4.648437 11.679687-.933594 4.003906-4.328125 7.484375-8.644531 7.273437-4.503906-.285156-7.648437-4.480468-8.027344-8.746093-.523437-4.578125 1.921875-9.53125 6.539063-10.855469zm0 0" fill="#fff"/><path d="m134.515625 158.816406c3.09375-.152344 6.390625-.164062 9.476563.007813 1.535156.128906 3.40625.53125 3.683593 2.335937.441407 3.425782.023438 6.960938.199219 10.421875-.132812 2.210938.484375 4.316407-1.480469 5.847657-1.484375-1.179688-2.941406-2.835938-4.710937-3.554688-1.941406-.421875-4.097656-.15625-6.0625-.03125 1.40625 1.464844 2.871094 2.867188 4.371094 4.238281-2.464844-.035156-5.28125.320313-7.648438-.445312-2.207031-.855469-1.796875-3.601563-1.90625-5.5.15625-3.660157-.246094-7.421875.226562-11.054688.300782-1.824219 2.335938-2.132812 3.851563-2.265625zm0 0" fill="#fff"/><path d="m79.292969 160.882812c2.824219-1.140624 6.246093-.0625 8.074219 2.316407.96875 1.316406.410156 3.515625-1.28125 3.894531-1.769532.109375-3.894532-2.246094-5.664063-1.296875-2.152344 1-4.496094 2.667969-6.023437 4.488281-.855469 2.125-.328126 5-.28125 7.269532 2.671874.085937 5.425781-.171876 8.070312.214843 2.082031.472657 1.9375 4.144531-.167969 4.546875-2.992187.421875-6.121093.066406-9.148437.152344-2.527344-.039062-5.117188.195312-7.628906-.09375-2.078126-.160156-2.570313-3.320312-.953126-4.398438 1.5-.441406 3.175782-.410156 4.730469-.511718.269531-3.710938.3125-7.4375-.019531-11.148438-1.25-.246094-2.707031-.328125-3.851562-.933594-1.222657-1.195312-.9375-3.5.789062-4.027343 2.433594-.667969 5.277344-.378907 7.777344-.214844.167968.890625.332031 1.78125.5 2.667969 1.667968-.988282 3.296875-2.175782 5.078125-2.925782zm0 0" fill="#056290"/><path d="m33.710938 161.320312c2.195312-.617187 4.765624-.328124 7.027343-.226562.382813 4.433594.015625 8.835938.144531 13.269531.066407 1.335938.210938 2.535157 1.492188 3.242188 2.96875 1.492187 7.105469.066406 8.5-2.929688.472656-2.707031.164062-5.59375.125-8.332031-1.246094-.230469-2.589844-.363281-3.761719-.839844-1.382812-.863281-1.257812-3.59375.425781-4.113281 2.496094-.753906 5.457032-.390625 8.035157-.285156.417969 5.371093-.132813 10.726562.277343 16.085937.859376.507813 1.894532.984375 2.566407 1.734375.4375 1.351563-.011719 3.027344-1.515625 3.40625-1.757813.371094-3.707032.15625-5.496094.066407-.234375-.5625-.472656-1.128907-.703125-1.6875-2.011719 1.175781-3.835937 2.546874-6.285156 2.453124-3.53125-.011718-7.273438-2-8.117188-5.648437-.703125-3.617187-.109375-7.457031-.410156-11.140625-1.011719-.300781-2.117187-.539062-3.050781-1.042969-1.25-1.011719-.878906-3.554687.746094-4.011719zm0 0" fill="#056290"/></svg>