<svg height="200" viewBox="0 0 200 200" width="200" xmlns="http://www.w3.org/2000/svg" xmlns:xlink="http://www.w3.org/1999/xlink"><linearGradient id="a" gradientTransform="matrix(-1.885618 -1.885618 1.885618 -1.885618 470.47998 325.546672)" gradientUnits="userSpaceOnUse" x1="158.050003" x2="158.050003" y1="-113.43" y2="36.57"><stop offset="0" stop-color="#c8511b"/><stop offset="1" stop-color="#f90"/></linearGradient><path d="m0 0h200v200h-200z" fill="url(#a)"/><g fill="#fff"><path d="m99.441406 171.839844c-.5.011718-.988281-.121094-1.414062-.375l-60.695313-34.984375c-.875-.507813-1.414062-1.441407-1.410156-2.453125v-70.878906c-.003906-1.011719.535156-1.949219 1.410156-2.457032l55.816407-32.15625c.84375-.59375 1.957031-.644531 2.851562-.128906.898438.511719 1.417969 1.496094 1.332031 2.527344v30.691406c-.003906.96875-.507812 1.867188-1.332031 2.375l-27.921875 16v37.171875l31.441406 18.160156 27.492188-16c.828125-.476562 1.84375-.476562 2.667969 0l26.453124 15.203125c.875.503906 1.414063 1.441406 1.414063 2.453125.027344 1.011719-.519531 1.949219-1.414063 2.425781l-55.332031 32c-.40625.261719-.878906.410157-1.359375.425782zm-58.109375-39.734375 59.546875 34.375 51.121094-29.546875-21.332031-12.292969-28.347657 16.371094c-.902343.511719-2.003906.511719-2.90625 0l-35.414062-20.425781c-.871094-.496094-1.410156-1.421876-1.414062-2.425782v-39.601562c-.027344-1.011719.519531-1.949219 1.414062-2.425782l27.921875-16v-24.480468l-50.667969 29.335937zm0 0"/><path d="m161.171875 130.667969c-.492187-.007813-.980469-.136719-1.410156-.375l-26.429688-15.28125c-.890625-.472657-1.441406-1.414063-1.410156-2.425781v-32.292969l-27.921875-16.105469c-.871094-.496094-1.410156-1.421875-1.414062-2.425781v-30.695313c-.023438-.996094.511718-1.921875 1.386718-2.398437.824219-.476563 1.84375-.476563 2.667969 0l56.027344 32.183593c.871093.5 1.410156 1.425782 1.410156 2.429688v64.453125c.003906 1.011719-.535156 1.945313-1.410156 2.453125-.445313.292969-.960938.457031-1.496094.480469zm-23.839844-19.867188 21.335938 12.265625v-58l-50.667969-29.332031v24.34375l28 16.214844c.894531.476562 1.441406 1.414062 1.414062 2.425781zm0 0"/></g></svg>