<svg height="200" viewBox="0 0 200 200" width="200" xmlns="http://www.w3.org/2000/svg" xmlns:xlink="http://www.w3.org/1999/xlink"><linearGradient id="a" gradientTransform="matrix(0 -2.666667 2.666667 0 -1789.333333 -1658.666667)" gradientUnits="userSpaceOnUse" x1="-712.539978" x2="-606.469971" y1="655.469971" y2="761.539978"><stop offset="0" stop-color="#4d27a8"/><stop offset="1" stop-color="#a166ff"/></linearGradient><path d="m0 0h200v200h-200z" fill="url(#a)"/><g fill="#fff"><path d="m166.667969 86.691406v5.335938h-23.519531c-7.8125.011718-15.621094-.386719-23.386719-1.199219-49.976563-5.335937-86.402344-27.148437-86.402344-54.109375-.007813-1.121094.0625-2.246094.214844-3.359375h5.332031c-.179688 1.113281-.269531 2.234375-.265625 3.359375 0 27.574219 46.90625 50 104.585937 50zm0 0"/><path d="m166.667969 97.359375v5.332031h-5.65625c-1.773438-1.957031-3.726563-3.742187-5.839844-5.332031zm0 0"/><path d="m107.332031 96.507812c-.851562.585938-1.597656 1.171876-2.398437 1.8125-1.191406.941407-2.332032 1.945313-3.414063 3.011719-.851562.855469-1.679687 1.761719-2.453125 2.667969-33.757812 3.011719-57.386718 10.480469-65.734375 21.332031v-7.730469c11.65625-9.894531 33.203125-15.015624 54.347657-17.628906-21.144532-2.664062-42.667969-7.785156-54.347657-17.679687v-7.625c9.015625 11.597656 35.839844 19.386719 74 21.839843zm0 0"/><path d="m166.667969 97.386719v5.332031h-5.65625c-1.773438-1.957031-3.726563-3.742188-5.839844-5.332031zm0 0"/><path d="m166.667969 76.027344v5.332031h-11.042969c-53.332031 0-92.238281-18.105469-92.238281-43.039063 0 0 0-3.066406 0-4.878906h5.332031v4.878906c0 21.332032 37.335938 37.839844 86.90625 37.839844zm0 0"/><path d="m92.828125 114.054688c-.890625 1.96875-1.605469 4.011718-2.136719 6.105468-31.144531 8.667969-52.132812 24.800782-52.132812 43.226563 0 1.097656.082031 2.195312.242187 3.28125h-5.335937c-.148438-1.089844-.222656-2.183594-.210938-3.28125.078125-21.8125 23.972656-40.320313 59.574219-49.332031zm0 0"/><path d="m68.71875 161.519531v5.148438h-5.332031c0-1.761719 0-5.09375 0-5.148438 0-12.371093 9.652343-23.066406 25.945312-30.667969.007813 1.894532.148438 3.785157.429688 5.65625-13.226563 6.53125-21.042969 15.226563-21.042969 25.011719zm0 0"/><path d="m130.667969 94.667969c-19.882813 0-36 16.117187-36 36 0 19.882812 16.117187 36 36 36 19.882812 0 36-16.117188 36-36-.03125-19.871094-16.132813-35.972657-36-36zm29.332031 45.332031c-.894531 2.855469-2.226562 5.550781-3.945312 8h-13.335938v5.332031h8.640625c-11.691406 10.671875-29.589844 10.671875-41.28125 0h3.253906v-5.332031h-8c-1.71875-2.449219-3.050781-5.144531-3.945312-8h11.945312v-5.332031h-13.066406c-.355469-2.65625-.355469-5.347657 0-8h15.734375v-5.335938h-14.535156c.898437-2.851562 2.230468-5.550781 3.949218-8h29.332032v-5.332031h-24.71875c11.691406-10.671875 29.589844-10.671875 41.28125 0h-8.640625c-1.472657 0-2.667969 1.195312-2.667969 2.667969v13.332031c0 1.472656 1.195312 2.667969 2.667969 2.667969h13.332031c1.472656 0 2.667969-1.195313 2.667969-2.667969v-5.8125c1.757812 3.925781 2.667969 8.175781 2.664062 12.480469.007813 1.335937-.082031 2.671875-.265625 4h-18.398437v5.332031zm-6.535156-26.667969v8h-8v-8zm0 0"/><path d="m121.332031 121.332031h13.335938v5.335938h-13.335938zm0 0"/><path d="m134.667969 153.332031h-13.335938c-1.472656 0-2.664062-1.191406-2.664062-2.664062v-13.335938c0-1.472656 1.191406-2.664062 2.664062-2.664062h13.335938c1.472656 0 2.664062 1.191406 2.664062 2.664062v13.335938c0 1.472656-1.191406 2.664062-2.664062 2.664062zm-10.667969-5.332031h8v-8h-8zm0 0"/></g></svg>