<svg height="200" viewBox="0 0 200 200" width="200" xmlns="http://www.w3.org/2000/svg"><path d="m157.601562 156.515625c25.667969 20.519531 42.113282-40.757813 1.214844-52.054687-34.320312-9.507813-68.855468 6.792968-103.460937 44.832031 0 0 63.921875-23.382813 102.246093 7.222656zm0 0" fill="#0b5567"/><path d="m55.925781 148.792969c24.597657-25.527344 65.496094-53.984375 103.605469-43.472657 8.867188 2.5 15.15625 7.648438 19.234375 13.800782l-36.039063-72.71875c-5.144531-8.222656-18.300781-6.507813-25.738281-.214844l-95.238281 79.796875c-8.652344 7.433594-9.152344 20.664063-1.144531 28.671875 7.078125 7.078125 18.304687 7.722656 26.097656 1.429688zm0 0" fill="#15a9ce"/></svg>