<svg height="200" viewBox="0 0 200 200" width="200" xmlns="http://www.w3.org/2000/svg" xmlns:xlink="http://www.w3.org/1999/xlink"><linearGradient id="a" gradientTransform="matrix(-1.885618 1.885618 -1.885618 -1.885618 562.880005 -102.480001)" gradientUnits="userSpaceOnUse" x1="251.429993" x2="101.43" y1="69.050003" y2="69.050003"><stop offset="0" stop-color="#2e27ad"/><stop offset="1" stop-color="#527fff"/></linearGradient><path d="m0 0h200v200h-200z" fill="url(#a)"/><g fill="#fff"><path d="m100.054688 72c-17.894532 0-36.054688 4.667969-36.054688 13.601562v60.796876c0 8.933593 18.078125 13.601562 35.972656 13.601562 17.894532 0 36.027344-4.667969 36.027344-13.601562v-60.796876c0-8.933593-18.105469-13.601562-35.945312-13.601562zm0 82.667969c-19.839844 0-30.722657-5.335938-30.722657-8.269531v-12.824219c6.667969 4.050781 18.667969 6.160156 30.640625 6.160156s24-2.109375 30.613282-6.132813v12.796876c.082031 2.933593-10.746094 8.269531-30.53125 8.269531zm0-20.269531c-19.839844 0-30.640626-5.332032-30.640626-8.265626v-12.800781c6.664063 4.027344 18.664063 6.132813 30.640626 6.132813 11.972656 0 24-2.105469 30.613281-6.132813v12.800781c0 2.800782-10.828125 8.265626-30.613281 8.265626zm0-20.265626c-19.839844 0-30.640626-5.332031-30.640626-8.265624v-12.828126c6.664063 4.054688 18.664063 6.160157 30.640626 6.160157 11.972656 0 24-2.105469 30.613281-6.160157v12.828126c0 2.800781-10.828125 8.265624-30.613281 8.265624zm0-20.265624c-19.839844 0-30.722657-5.46875-30.722657-8.265626 0-2.800781 10.667969-8.269531 30.640625-8.269531s30.695313 5.46875 30.695313 8.269531c0 2.796876-10.828125 8.265626-30.613281 8.265626zm0 0"/><path d="m165.332031 51.171875c1.472657 0 2.667969-1.191406 2.667969-2.664063v-5.839843c0-1.472657-1.195312-2.667969-2.667969-2.667969h-130.664062c-1.472657 0-2.667969 1.195312-2.667969 2.667969v5.8125c0 1.472656 1.195312 2.667969 2.667969 2.667969 3.035156.289062 5.359375 2.839843 5.359375 5.890624 0 3.054688-2.324219 5.605469-5.359375 5.894532-1.472657 0-2.667969 1.195312-2.667969 2.667968v46.398438c0 1.472656 1.195312 2.667969 2.667969 2.667969h24v-5.335938h-10.667969v-2.664062h10.667969v-5.335938h-13.335938c-1.472656 0-2.664062 1.195313-2.664062 2.667969v5.332031h-5.335938v-41.410156c4.78125-1.457031 8.050781-5.871094 8.050781-10.867187 0-5-3.269531-9.410157-8.050781-10.867188v-.855469h125.335938v.882813c-4.710938 1.511718-7.902344 5.894531-7.902344 10.839844 0 4.945312 3.191406 9.324218 7.902344 10.839843v41.4375h-2.667969v-5.332031c0-1.472656-1.195312-2.667969-2.667969-2.667969h-16v5.335938h13.335938v2.664062h-13.335938v5.335938h24c1.472657 0 2.667969-1.195313 2.667969-2.667969v-46.398438c0-1.472656-1.195312-2.667968-2.667969-2.667968-2.980469-.347656-5.230469-2.875-5.230469-5.878906 0-3.003907 2.25-5.53125 5.230469-5.882813zm0 0"/><path d="m98.667969 66.667969v-13.335938c0-1.472656-1.195313-2.664062-2.667969-2.664062h-18.667969c-1.472656 0-2.664062 1.191406-2.664062 2.664062v16h5.332031v-13.332031h13.332031v10.667969zm0 0"/><path d="m125.332031 69.332031v-16c0-1.472656-1.191406-2.664062-2.664062-2.664062h-18.667969c-1.472656 0-2.667969 1.191406-2.667969 2.664062v13.335938h5.335938v-10.667969h13.332031v13.332031zm0 0"/><path d="m141.332031 90.667969v5.332031h8c1.472657 0 2.667969-1.195312 2.667969-2.667969v-40c0-1.472656-1.195312-2.664062-2.667969-2.664062h-18.664062c-1.472657 0-2.667969 1.191406-2.667969 2.664062v18.667969h5.332031v-16h13.335938v34.667969zm0 0"/><path d="m53.332031 56h13.335938v16h5.332031v-18.667969c0-1.472656-1.195312-2.664062-2.667969-2.664062h-18.664062c-1.472657 0-2.667969 1.191406-2.667969 2.664062v40c0 1.472657 1.195312 2.667969 2.667969 2.667969h8v-5.332031h-5.335938zm0 0"/></g></svg>