<svg height="200" viewBox="0 0 200 200" width="200" xmlns="http://www.w3.org/2000/svg" xmlns:xlink="http://www.w3.org/1999/xlink"><linearGradient id="a" gradientTransform="matrix(0 2.666667 -2.666667 0 1888 -1757.333333)" gradientUnits="userSpaceOnUse" x1="749.530029" x2="643.469971" y1="723.530029" y2="617.469971"><stop offset="0" stop-color="#1b660f"/><stop offset="1" stop-color="#6cae3e"/></linearGradient><path d="m0 0h200v200h-200z" fill="url(#a)"/><g fill="#fff"><path d="m131.921875 69.039062c-.054687-.351562-.136719-.699218-.242187-1.039062-2.371094-7.253906-17.121094-11.011719-31.679688-11.011719s-29.332031 3.757813-31.679688 11.011719c-.105468.339844-.1875.6875-.242187 1.039062-.023437.339844-.023437.675782 0 1.015626v59.546874c0 8.585938 16 13.066407 32 13.066407s32-4.480469 32-13.066407v-59.546874c-.023437-.34375-.078125-.683594-.15625-1.015626zm-32-6.71875c15.25 0 24.371094 4 26.292969 6.71875-1.976563 2.667969-11.09375 6.695313-26.292969 6.695313-15.203125 0-24.320313-3.949219-26.296875-6.695313 2-2.71875 11.121094-6.71875 26.375-6.71875zm26.664063 67.28125c0 2.664063-9.414063 7.730469-26.664063 7.730469-17.253906 0-26.667969-5.117187-26.667969-7.730469v-54.027343c6.054688 3.625 16.398438 5.492187 26.667969 5.492187 10.265625 0 20.613281-1.867187 26.664063-5.492187zm0 0"/><path d="m68.320312 68c-.105468.339844-.1875.6875-.242187 1.039062-.023437-.34375-.023437-.691406 0-1.039062zm0 0"/><path d="m132 68c.027344.347656.027344.695312 0 1.039062-.054688-.351562-.132812-.699218-.238281-1.039062zm0 0"/><path d="m61.894531 58.105469-3.789062 3.789062-19.4375-19.441406v14.878906h-5.335938v-21.332031c0-1.472656 1.195313-2.667969 2.667969-2.667969h21.332031v5.335938h-14.878906zm0 0"/><path d="m166.667969 36v21.332031h-5.335938v-14.878906l-19.4375 19.441406-3.789062-3.789062 19.441406-19.4375h-14.878906v-5.335938h21.332031c1.472656 0 2.667969 1.195313 2.667969 2.667969zm0 0"/><path d="m42.453125 161.332031h14.878906v5.335938h-21.332031c-1.472656 0-2.667969-1.195313-2.667969-2.667969v-21.332031h5.335938v14.878906l19.4375-19.441406 3.789062 3.789062zm0 0"/><path d="m166.667969 142.667969v21.332031c0 1.472656-1.195313 2.667969-2.667969 2.667969h-21.332031v-5.335938h14.878906l-19.441406-19.4375 3.789062-3.789062 19.4375 19.441406v-14.878906zm0 0"/></g></svg>