<svg height="200" viewBox="0 0 200 200" width="200" xmlns="http://www.w3.org/2000/svg" xmlns:xlink="http://www.w3.org/1999/xlink"><filter id="a" height="100%" width="100%" x="0%" y="0%"><feColorMatrix in="SourceGraphic" type="matrix" values="0 0 0 0 1 0 0 0 0 1 0 0 0 0 1 0 0 0 1 0"/></filter><mask id="b"><g filter="url(#a)"><path d="m0 0h200v200h-200z" fill-opacity=".1"/></g></mask><clipPath id="c"><path d="m0 0h200v200h-200z"/></clipPath><mask id="d"><g filter="url(#a)"><path d="m0 0h200v200h-200z" fill-opacity=".9"/></g></mask><clipPath id="e"><path d="m0 0h200v200h-200z"/></clipPath><path d="m113.722656 110.246094c0 3.246094-1.015625 5.851562-3.054687 7.820312-2.046875 1.972656-5.015625 3.1875-8.921875 3.632813v6.359375h-4.277344v-6.183594c-4.023438-.039062-7.710938-.933594-11.074219-2.695312v-8.113282c1.058594.863282 2.738281 1.695313 5.058594 2.503906 2.3125.808594 4.320313 1.273438 6.015625 1.394532v-10.664063c-4.3125-1.601562-7.375-3.355469-9.171875-5.257812-1.796875-1.90625-2.695313-4.410157-2.695313-7.515625 0-3.101563 1.105469-5.726563 3.308594-7.867188 2.214844-2.136718 5.066406-3.382812 8.558594-3.734375v-5.449219h4.277344v5.332032c4.117187.195312 7.199218.859375 9.230468 1.992187v7.910157c-2.71875-1.640626-5.789062-2.65625-9.230468-3.046876v11.101563c4.3125 1.566406 7.394531 3.324219 9.230468 5.269531 1.835938 1.960938 2.746094 4.359375 2.746094 7.210938zm-16.253906-14.179688v-9.285156c-2.710938.488281-4.074219 1.90625-4.074219 4.25 0 2.042969 1.363281 3.730469 4.074219 5.035156zm8.46875 14.589844c0-1.890625-1.402344-3.453125-4.191406-4.6875v8.878906c2.789062-.453125 4.191406-1.847656 4.191406-4.191406zm0 0" fill="#0f0f0f"/><path d="m100 155.238281c-30.507812 0-55.242188-24.730469-55.242188-55.234375s24.730469-55.234375 55.238282-55.238281c30.507812 0 55.238281 24.726563 55.238281 55.234375h44.761719c0-55.226562-44.769532-100-100-100v.00390625c-55.230469.00390625-99.996094 44.77343775-99.996094 99.99999975 0 55.226563 44.769531 100 100 100 25.570312 0 48.882812-9.613281 66.5625-25.398437l-29.828125-33.433594c-9.769531 8.722656-22.613281 14.066406-36.734375 14.066406zm0 0" fill="#7fba00"/><g clip-path="url(#c)" mask="url(#b)"><path d="m100 155.238281c-30.507812 0-55.242188-24.730469-55.242188-55.234375s24.730469-55.234375 55.238282-55.238281c30.507812 0 55.238281 24.726563 55.238281 55.234375h44.761719c0-55.226562-44.769532-100-100-100v.00390625c-55.230469.00390625-99.996094 44.77343775-99.996094 99.99999975 0 55.226563 44.769531 100 100 100 25.570312 0 48.882812-9.613281 66.5625-25.398437l-29.828125-33.433594c-9.769531 8.722656-22.613281 14.066406-36.734375 14.066406zm0 0" fill="#fff"/></g><path d="m200 100h-44.765625c0 16.382812-7.171875 31.054688-18.5 41.167969l29.828125 33.4375c20.507812-18.316407 33.4375-44.945313 33.4375-74.605469" fill="#fcd116"/><g clip-path="url(#e)" mask="url(#d)"><path d="m155.234375 100h44.761719c0-55.226562-44.769532-100-100-100v44.765625c30.503906 0 55.238281 24.726563 55.238281 55.234375" fill="#b8d432"/></g></svg>