<svg height="200" viewBox="0 0 200 200" width="200" xmlns="http://www.w3.org/2000/svg"><g fill="#c00" fill-rule="evenodd"><path d="m169.597656 121.867188v8.617187h15.570313c3.191406 0 8.667969-2.332031 8.855469-8.855469v-3.332031c0-5.574219-4.570313-8.859375-8.855469-8.859375h-7.761719v-4h15.382812v-8.664062h-14.765624c-3.808594 0-8.902344 3.140624-8.902344 9v3c0 5.855468 5.046875 8.855468 8.902344 8.855468 10.714843.046875-2.570313 0 7.335937 0v4.191406m-99.191406-2.046874s8.332031-.714844 8.332031-11.476563-10.09375-11.761719-10.09375-11.761719h-18.191406v33.949219h9.144531v-8.1875l7.902344 8.1875h13.527343zm-3.523438-6.953126h-7.285156v-7.761718h7.332031s2.046875.761718 2.046875 3.855468c0 3.097657-2.09375 3.90625-2.09375 3.90625zm34.429688-16.046874h-9.285157c-6.621093 0-8.859374 6-8.859374 8.855468v24.855469h9.285156v-5.949219h8.714844v5.949219h9v-24.855469c0-7.238281-6.570313-8.855468-8.855469-8.855468zm-.144531 18.140624h-8.761719v-8.238281s0-1.855469 2.90625-1.855469h3.1875c2.574219 0 2.621093 1.855469 2.621093 1.855469v8.238281zm0 0"/><path d="m130.167969 96.773438h9.667969v33.710937h-9.667969zm0 0"/><path d="m153.40625 130.484375h13v-8.710937h-13v-25h-9.617188v33.710937zm0 0"/><path d="m8.835938 130.484375h37.617187s-7.191406-32.808594 16.621094-46.09375c5.1875-2.523437 21.714843-11.953125 48.761719 8.046875.855468-.714844 1.664062-1.285156 1.664062-1.285156s-24.761719-24.714844-52.332031-21.953125c-13.855469 1.238281-30.90625 13.859375-40.90625 30.523437-10 16.667969-11.425781 30.761719-11.425781 30.761719zm0 0"/><path d="m8.835938 130.484375h37.617187s-7.191406-32.808594 16.621094-46.09375c5.1875-2.523437 21.714843-11.953125 48.761719 8.046875.855468-.714844 1.664062-1.285156 1.664062-1.285156s-24.761719-24.714844-52.332031-21.953125c-13.855469 1.238281-30.90625 13.859375-40.90625 30.523437-10 16.667969-11.425781 30.761719-11.425781 30.761719zm0 0"/><path d="m8.835938 130.484375h37.617187s-7.191406-32.808594 16.621094-46.09375c5.1875-2.523437 21.714843-11.953125 48.761719 8.046875.855468-.714844 1.664062-1.285156 1.664062-1.285156s-24.761719-24.714844-52.332031-21.953125c-13.90625 1.238281-30.953125 13.859375-40.953125 30.523437-10 16.667969-11.378906 30.761719-11.378906 30.761719zm78.378906-58.617187.191406-3.191407c-.429688-.238281-1.617188-.808593-4.617188-1.664062l-.191406 3.140625c1.570313.523437 3.09375 1.09375 4.617188 1.714844zm0 0"/><path d="m82.691406 81.960938-.191406 3c1.574219.050781 3.144531.238281 4.714844.574218l.191406-2.953125c-1.617188-.335937-3.191406-.523437-4.714844-.621093zm-17.617187-14.855469h.476562l-.953125-2.90625c-1.476562 0-3 .097656-4.574218.285156l.90625 2.8125c1.382812-.144531 2.761718-.191406 4.144531-.191406zm2.285156 17.523437 1.09375 3.285156c1.382813-.667968 2.761719-1.238281 4.144531-1.667968l-1.046875-3.140625c-1.621093.476562-3 1-4.191406 1.523437zm-21.621094-12.523437-2.140625-3.285157c-1.191406.617188-2.429687 1.285157-3.714844 2.046876l2.191407 3.332031c1.238281-.761719 2.425781-1.476563 3.664062-2.09375zm9.761719 21.429687 2.289062 3.425782c.808594-1.1875 1.761719-2.285157 2.808594-3.378907l-2.144531-3.238281c-1.09375 1-2.09375 2.09375-2.953125 3.191406zm-6.902344 15.332032 3.855469 3.046874c.191406-1.855468.523437-3.714843 1-5.570312l-3.429687-2.714844c-.617188 1.761719-1.046876 3.523438-1.425782 5.238282zm-20.859375-22.621094-3.378906-2.949219c-1.238281 1.1875-2.429687 2.378906-3.523437 3.570313l3.664062 3.144531c1-1.289063 2.097656-2.574219 3.238281-3.765625zm-14.378906 21.289062-5.476563-2c-.90625 2.046875-1.90625 4.425782-2.382812 5.710938l5.476562 2c.621094-1.617188 1.621094-3.949219 2.382813-5.710938zm34.523437 13.425782c.09375 2.523437.332032 4.574218.570313 6l5.714844 2.050781c-.429688-1.859375-.855469-3.953125-1.144531-6.191407zm0 0"/></g></svg>