<svg height="2500" viewBox="153 50.5 414 619" width="1148" xmlns="http://www.w3.org/2000/svg"><path d="m360 172.3c-109.6 0-198.7 89.1-198.7 198.7s89.1 198.7 198.7 198.7 198.7-89.1 198.7-198.7c0-109.5-89.1-198.7-198.7-198.7z" fill="#fff"/><path d="m360 578.1c-114.2 0-207-92.9-207-207s92.9-207 207-207c114.2 0 207 92.9 207 207s-92.8 207-207 207zm0-405.8c-109.6 0-198.7 89.1-198.7 198.7s89.1 198.7 198.7 198.7 198.7-89.1 198.7-198.7c0-109.5-89.1-198.7-198.7-198.7z"/><path d="m490.6 113.1-82.1 153.9-8.2 15.4 17.1-3.3 35.2-6.8-73.4 117.3-9.4 15 17.5-2.3 24.2-3.2-187.5 210.8 74.1-136.2 7.8-14.3-16.1 2.1-30.7 3.9 75.1-124.3 9.6-15.8-18.2 3.4-23.7 4.4zm42.8-62.6-253.2 295 46.9-8.7-84 139.1 47.8-6.1-108.8 199.7 250.5-281.7-46.4 6.1 83.5-133.5-53.9 10.5z"/><path d="m490.6 113.1-82.1 153.9-8.2 15.4 17.1-3.3 35.2-6.8-73.4 117.3-9.4 15 17.5-2.3 24.2-3.2-187.5 210.8 74.1-136.2 7.8-14.3-16.1 2.1-30.7 3.9 75.1-124.3 9.6-15.8-18.2 3.4-23.7 4.4z" fill="#fff200"/><path d="m472.7 550.5h4.4v.6h-1.8v4.8h-.7v-4.8h-1.8v-.6zm9.5 5.4v-3.2-1.4l-1.5 4.6h-.7l-1.5-4.5v4.5h-.7v-5.4h1l1.5 4.6 1.5-4.6h1v5.4z"/></svg>