<svg height="200" viewBox="0 0 200 200" width="200" xmlns="http://www.w3.org/2000/svg" xmlns:xlink="http://www.w3.org/1999/xlink"><linearGradient id="a" gradientTransform="matrix(-1.885618 1.885618 -1.885618 -1.885618 1427.813314 -460.746663)" gradientUnits="userSpaceOnUse" x1="575.580017" x2="425.98999" y1="207.320007" y2="199.479996"><stop offset="0" stop-color="#b0084d"/><stop offset="1" stop-color="#ff4f8b"/></linearGradient><path d="m0 0h200v200h-200z" fill="url(#a)"/><g fill="#fff"><path d="m57.839844 58.667969c14.386718-14.359375 35.140625-20.328125 54.957031-15.800781 19.8125 4.527343 35.917969 18.910156 42.644531 38.09375l5.039063-1.761719c-9.046875-25.871094-33.460938-43.199219-60.867188-43.199219s-51.820312 17.328125-60.867187 43.199219l5.039062 1.761719c2.921875-8.40625 7.730469-16.035157 14.054688-22.292969zm0 0"/><path d="m141.332031 141.332031c-23.101562 23.070313-60.523437 23.070313-83.625 0-6.335937-6.3125-11.140625-13.992187-14.054687-22.453125l-5.039063 1.761719c7.285157 20.964844 24.84375 36.710937 46.476563 41.679687 21.632812 4.96875 44.300781-1.539062 60.003906-17.226562 6.972656-6.925781 12.246094-15.367188 15.414062-24.667969l-5.042968-1.707031c-2.910156 8.523438-7.746094 16.261719-14.132813 22.613281zm0 0"/><path d="m53.734375 99.894531c.011719-7.433593-5.230469-13.835937-12.519531-15.296875-7.285156-1.457031-14.589844 2.4375-17.4375 9.300782-2.851563 6.867187-.453125 14.785156 5.726562 18.917968 6.179688 4.128906 14.414063 3.320313 19.667969-1.9375 2.929687-2.902344 4.574219-6.859375 4.5625-10.984375zm-8.402344 7.226563c-4.042969 3.835937-10.382812 3.835937-14.425781 0-2.902344-2.921875-3.765625-7.296875-2.195312-11.105469 1.574218-3.804687 5.277343-6.292969 9.394531-6.308594 2.710937.003907 5.304687 1.078125 7.226562 2.984375 3.976563 3.988282 3.976563 10.441406 0 14.429688zm0 0"/><path d="m172.800781 89.09375c-6.0625-6.0625-15.886719-6.0625-21.949219 0-6.0625 6.058594-6.0625 15.886719 0 21.949219 6.0625 6.058593 15.886719 6.058593 21.949219-.003907 6.058594-6.058593 6.058594-15.886718 0-21.945312zm-3.789062 18.160156c-3.976563 3.972656-10.421875 3.972656-14.398438 0-1.914062-1.90625-2.992187-4.5-2.992187-7.199218 0-2.703126 1.078125-5.292969 2.992187-7.203126 2.546875-2.695312 6.359375-3.796874 9.949219-2.871093 3.59375.921875 6.398438 3.730469 7.324219 7.320312.925781 3.59375-.175781 7.40625-2.875 9.953125zm0 0"/><path d="m77.8125 125.8125c10.933594-10.933594 33.199219-10.933594 44.132812 0 .5.492188 1.167969.769531 1.867188.773438 1.472656 0 2.667969-1.191407 2.667969-2.664063.003906-.710937-.273438-1.390625-.773438-1.894531-5.445312-6.023438-8.316406-13.941406-8-22.054688-.3125-8.113281 2.558594-16.027344 8-22.050781 1.035157-1.042969 1.035157-2.722656 0-3.761719-1.039062-1.035156-2.71875-1.035156-3.761719 0-10.933593 10.90625-33.199218 10.90625-44.132812 0-1.039062-1.035156-2.71875-1.035156-3.757812 0-1.035157 1.039063-1.035157 2.71875 0 3.761719 5.488281 6.003906 8.40625 13.917969 8.132812 22.050781.277344 8.132813-2.640625 16.050782-8.132812 22.054688-.5.503906-.777344 1.183594-.773438 1.894531-.003906.707031.273438 1.386719.773438 1.890625 1.039062 1.035156 2.71875 1.035156 3.757812 0zm6.90625-40.960938c9.746094 3.816407 20.574219 3.816407 30.320312 0-3.734374 9.746094-3.734374 20.523438 0 30.269532-9.746093-3.816406-20.574218-3.816406-30.320312 0 3.734375-9.746094 3.734375-20.523438 0-30.269532zm0 0"/><path d="m132.347656 110.90625 8.984375-9.09375c1.035157-1.039062 1.035157-2.71875 0-3.757812l-9.039062-9.042969-3.785157 3.761719 4.558594 4.535156h-12.054687v5.332031h12.054687l-4.507812 4.507813zm0 0"/><path d="m67.894531 110.960938 9.09375-9.09375c1.03125-1.039063 1.03125-2.71875 0-3.761719l-9.09375-9.09375-3.761719 3.761719 4.535157 4.535156h-11.65625v5.332031h11.65625l-4.535157 4.558594zm0 0"/></g></svg>