<svg height="200" viewBox="0 0 200 200" width="200" xmlns="http://www.w3.org/2000/svg" xmlns:xlink="http://www.w3.org/1999/xlink"><linearGradient id="a" gradientTransform="matrix(1.885618 1.885618 -1.885618 1.885618 580.053345 -1269.680013)" gradientUnits="userSpaceOnUse" x1="235.899994" x2="235.899994" y1="565.47998" y2="415.480011"><stop offset="0" stop-color="#2e27ad"/><stop offset="1" stop-color="#527fff"/></linearGradient><path d="m0 0h200v200h-200z" fill="url(#a)"/><g fill="#fff"><path d="m145.867188 78.132812c-.558594-8.398437-4.828126-14.640624-11.628907-16.878906-5.199219-1.71875-10.917969-.71875-15.226562 2.667969-1.925781-4.390625-4.636719-8.394531-8-11.816406-10.167969-10.683594-25.957031-13.820313-39.4375-7.839844-12.582031 6.007813-20.679688 18.621094-20.90625 32.5625v1.945313c-10.808594 3.167968-18.035157 13.335937-17.46875 24.585937-.21875 9.679687 4.714843 18.746094 12.960937 23.8125 2.535156 1.46875 5.449219 2.148437 8.375 1.949219l24 .210937v26.667969c0 1.003906.566406 1.921875 1.464844 2.375.863281.410156 1.878906.328125 2.667969-.214844l39.546875-28.828125h20.636718c.242188 0 23.816407-2.050781 23.816407-25.757812 0-18.109375-13.949219-23.761719-20.800781-25.441407zm-3.199219 45.867188h-21.335938c-.5625-.003906-1.113281.175781-1.570312.507812l-35.761719 26.238282v-24c0-1.472656-1.195312-2.667969-2.667969-2.667969h-26.664062c-1.929688.097656-3.847657-.363281-5.519531-1.332031-6.726563-4.070313-10.730469-11.449219-10.480469-19.304688-.519531-9.628906 6.117187-18.171875 15.570312-20.054687 1.210938-.3125 2.042969-1.417969 2-2.667969l-.238281-4.050781c.316406-11.699219 7.097656-22.257813 17.601562-27.414063 3.867188-1.707031 8.039063-2.613281 12.265626-2.667968 8.058593.191406 15.722656 3.542968 21.332031 9.335937 3.765625 3.875 6.609375 8.550781 8.320312 13.679687.328125.9375 1.148438 1.613282 2.132813 1.757813.972656.148437 1.945312-.253906 2.535156-1.039063 2.808594-3.890624 7.804688-5.527343 12.371094-4.054687 5.066406 1.679687 8 6.667969 8 13.574219-.226563 1.433594.734375 2.78125 2.160156 3.039062 5.601562.960938 18.667969 4.882813 18.667969 20.640625-.054688 18.773438-18.160157 20.425781-18.71875 20.480469zm0 0"/><path d="m128 78.667969c-5.15625 0-9.332031 4.175781-9.332031 9.332031-.042969 1.738281.417969 3.453125 1.332031 4.933594l-9.414062 10.667968c1.695312.753907 3.121093 2.007813 4.082031 3.597657l9.464843-10.664063c1.210938.558594 2.535157.832032 3.867188.796875 5.15625 0 9.332031-4.175781 9.332031-9.332031s-4.175781-9.332031-9.332031-9.332031zm0 13.332031c-2.210938 0-4-1.789062-4-4s1.789062-4 4-4 4 1.789062 4 4-1.789062 4-4 4zm0 0"/><path d="m114.667969 107.199219c-.925781-1.566407-2.300781-2.824219-3.949219-3.597657-1.257812-.628906-2.644531-.945312-4.050781-.933593-.902344-.015625-1.804688.113281-2.667969.371093l-9.253906-14.105468c1.632812-1.679688 2.558594-3.921875 2.585937-6.265625 0-5.15625-4.175781-9.335938-9.332031-9.335938s-9.332031 4.179688-9.332031 9.335938c.035156 1.601562.496093 3.164062 1.332031 4.53125l-11.386719 11.28125c-3.660156-2.082031-8.261719-1.453125-11.234375 1.535156-2.96875 2.984375-3.566406 7.589844-1.464844 11.238281 2.105469 3.648438 6.390626 5.4375 10.464844 4.363282 4.070313-1.070313 6.921875-4.738282 6.953125-8.949219.007813-1.539063-.378906-3.054688-1.117187-4.402344l11.4375-11.359375c2.035156 1.09375 4.40625 1.378906 6.640625.800781l9.332031 14.214844c-1.480469 1.675781-2.296875 3.839844-2.292969 6.078125 0 5.15625 4.179688 9.332031 9.335938 9.332031 5.152343 0 9.332031-4.175781 9.332031-9.332031.015625-1.695312-.445312-3.359375-1.332031-4.800781zm-50.667969 3.46875c-2.210938 0-4-1.792969-4-4 0-2.210938 1.789062-4 4-4s4 1.789062 4 4c0 2.207031-1.789062 4-4 4zm24-24c-2.210938 0-4-1.792969-4-4 0-2.210938 1.789062-4 4-4s4 1.789062 4 4c0 2.207031-1.789062 4-4 4zm18.667969 29.332031c-2.210938 0-4-1.789062-4-4s1.789062-4 4-4c2.207031 0 4 1.789062 4 4s-1.792969 4-4 4zm0 0"/></g></svg>