<svg height="200" viewBox="0 0 200 200" width="200" xmlns="http://www.w3.org/2000/svg" xmlns:xlink="http://www.w3.org/1999/xlink"><linearGradient id="a" gradientUnits="userSpaceOnUse" x1="-41.44000518" x2="241.41336084333" y1="241.44003284667" y2="-41.41333851"><stop offset="0" stop-color="#4d27a8"/><stop offset="1" stop-color="#a166ff"/></linearGradient><path d="m0 0h200v200h-200z" fill="url(#a)"/><g fill="#fff"><path d="m129.359375 164c-.5625.003906-1.113281-.175781-1.574219-.507812-.699218-.496094-1.113281-1.300782-1.117187-2.160157v-122.664062c.003906-.929688.488281-1.785157 1.277343-2.269531.800782-.515626 1.820313-.566407 2.667969-.132813l34.667969 16.933594c.90625.445312 1.484375 1.363281 1.492188 2.375v94.238281c.058593 1.203125-.695313 2.296875-1.839844 2.667969l-34.667969 11.519531c-.300781.042969-.605469.042969-.90625 0zm2.667969-121.039062v114.664062l29.332031-9.730469v-90.667969zm0 0"/><path d="m70.667969 164c-.285157.039062-.570313.039062-.855469 0l-34.664062-11.519531c-1.136719-.382813-1.878907-1.472657-1.816407-2.667969v-94.238281c.007813-1.011719.585938-1.929688 1.496094-2.375l34.664063-16.933594c.851562-.433594 1.867187-.382813 2.667968.132813.78125.488281 1.253906 1.347656 1.253906 2.269531v122.664062c-.003906.859375-.421874 1.664063-1.121093 2.160157-.464844.355468-1.042969.535156-1.625.507812zm-32-16 29.332031 9.734375v-114.667969l-29.332031 14.320313zm0 0"/><path d="m126.667969 73.332031h-8v-5.332031h8zm-16 0h-8v-5.332031h8zm-16 0h-8v-5.332031h8zm-16 0h-8v-5.332031h8zm0 0"/><path d="m126.667969 132h-8v-5.332031h8zm-16 0h-8v-5.332031h8zm-16 0h-8v-5.332031h8zm-16 0h-8v-5.332031h8zm0 0"/><path d="m88.292969 109.171875-10.027344-8.558594c-.589844-.507812-.933594-1.246093-.933594-2.027343 0-.777344.34375-1.519532.933594-2.027344l10-8.558594 3.46875 4.054688-7.628906 6.613281 7.628906 6.53125zm0 0"/><path d="m111.734375 109.171875-3.46875-4.050781 7.628906-6.453125-7.65625-6.507813 3.46875-4.160156 10.027344 8.535156c.589844.503906.933594 1.246094.933594 2.023438 0 .78125-.34375 1.519531-.933594 2.027344zm0 0"/><path d="m92.15625 114.796875 10.601562-31.351563 5.050782 1.710938-10.597656 31.347656zm0 0"/></g></svg>