<svg height="200" viewBox="0 0 200 200" width="200" xmlns="http://www.w3.org/2000/svg"><g fill="#693cc5"><path d="m100 194c-51.914062 0-94-42.085938-94-94s42.085938-94 94-94 94 42.085938 94 94c-.042969 51.894531-42.105469 93.957031-94 94zm0-180c-47.496094 0-86 38.503906-86 86s38.503906 86 86 86 86-38.503906 86-86c-.042969-47.476562-38.523438-85.957031-86-86zm0 0"/><path d="m141.519531 88.761719h-8v-41h-70.757812v41h-8v-45c0-2.210938 1.789062-4 4-4h78.757812c2.210938 0 4 1.789062 4 4zm0 0"/><path d="m137.519531 160.238281h-78.757812c-2.210938 0-4-1.789062-4-4v-45h8v41h70.757812v-41h8v45c0 2.210938-1.789062 4-4 4zm0 0"/><path d="m70 58.519531h56.238281v8h-56.238281zm0 0"/><path d="m70 77.238281h56.238281v8h-56.238281zm0 0"/><path d="m70 114.761719h56.238281v8h-56.238281zm0 0"/><path d="m70 133.519531h56.238281v8h-56.238281zm0 0"/><path d="m28.761719 96h146.238281v8h-146.238281zm0 0"/><path d="m159.078125 121.558594-5.636719-5.558594 16-16-16-16 5.636719-5.640625 18.761719 18.71875c.757812.753906 1.183594 1.773437 1.183594 2.84375 0 1.066406-.425782 2.085937-1.183594 2.839844zm0 0"/></g></svg>