<svg height="200" viewBox="0 0 200 200" width="200" xmlns="http://www.w3.org/2000/svg"><path d="m150.53906 80.191406c1.55078-.546875 3.46094.722656 3.33594 2.425782.10156 1.195312-.71875 2.300781-1.87109 2.574218-.71094.09375-1.46094.128906-2.07032-.3125-.78515-.484375-1.23828-1.34375-1.23828-2.265625.0625-1.089843.78906-2.105469 1.84375-2.421875zm0 0" fill="#234adc"/><path d="m159.14062 81.796875c1.36719-.433594 2.97657.117187 3.75391 1.328125.89453 1.3125.72266 3.195312-.4375 4.289062-1.10937 1.09375-2.89844 1.285157-4.1875.398438-1.42187-.878906-1.88672-2.855469-1.13672-4.332031.40235-.78125 1.15625-1.449219 2.00781-1.683594zm0 0" fill="#234adc"/><path d="m145.38672 85.078125c.42969-.07422.85547-.07422 1.22656.179687.85156.503907.99219 1.851563.20313 2.480469-.62891.617188-1.6836.519531-2.22266-.164062-.375-.382813-.35156-.847657-.3125-1.347657.0898-.578124.5625-.996093 1.10547-1.148437zm0 0" fill="#234adc"/><path d="m167.57812 87.761719c1.77735-.375 3.6211.421875 4.51563 2.007812.98047 1.75.60937 4.160157-1.03516 5.371099-1.48437 1.22265-3.74609 1.21093-5.21875-.0234-1.53125-1.167974-1.95312-3.398443-1.1289-5.105474.49609-1.148438 1.67578-1.972657 2.86718-2.25zm0 0" fill="#234adc"/><path d="m145.02344 91.398438c.67187-.136719 1.46875.375 1.46875 1.105468.10156.742188-.59766 1.445313-1.33594 1.328125-.59375-.03516-1.11328-.554687-1.06641-1.171875-.0508-.648437.33985-1.074218.9336-1.261718zm0 0" fill="#234adc"/><g fill="#11193a"><path d="m13.59375 97.47266c2.867188.004 5.730469.004 8.59375 0 1.253906-.0273 2.492188.69922 3.128906 1.77734.394532.60547.496094 1.33203.503906 2.04297-.0039 1.83203 0 3.66016-.0039 5.49219-.0039.86718.07422 1.64453-.265625 2.47265-.519531 1.23438-1.84375 2.23828-3.207031 2.19141-2.914062.008-5.835938 0-8.75.004-.34375-.0156-.761719.0195-1.054688-.1875-.460937-.28125-.742187-.79688-.734374-1.33984-.0078-3.60547 0-7.22657-.0078-10.83204-.0039-.49218.148437-.95312.535156-1.26953.367169-.32421.796856-.34374 1.2617-.35155zm0 0"/><path d="m35.9375 97.47656c2.238281-.008 4.480469 0 6.71875 0 1.011719-.008 1.996094.39063 2.738281 1.07032.640625.63671.976563 1.52734.957031 2.42968-.0078 3.08985-.0039 6.17969 0 9.26563.06641.72265-.644531 1.38281-1.347656 1.29297-.664062-.043-1.195312-.6211-1.160156-1.29688-.0078-1.3789.02344-2.75781-.01172-4.13281-2.914062.004-5.824219.008-8.738281-.004-.09375.0586-.191406.12109-.285156.17969-.0039 1.37109.01953 2.74218-.0078 4.11328.02734.91015-1.164062 1.4375-1.886719.98047-.550781-.3086-.617187-.8711-.621093-1.45313.0039-2.61328.0039-5.23047 0-7.84375.0039-.8125-.05859-1.54687.234375-2.32422.523437-1.39843 1.941406-2.27734 3.410156-2.27734zm0 0"/><path d="m53.125 97.47656c3.070312-.004 6.148438.004 9.21875-.004.464844.004.886719.0273 1.214844.39844.390625.35938.355468.86719.265625 1.35156-.183594.47266-.652344.78516-1.164063.76172-1.183594.0117-2.367187.008-3.550781-.004-.04687 3.3125.0039 6.63281-.02344 9.94922-.02734.36719-.04688.84375-.300782 1.13281-.425781.58594-1.414062.64844-1.910156.11719-.269531-.24609-.367188-.57813-.363281-.9375-.01563-3.42188.02344-6.84375-.01953-10.26563-1.226563.0156-2.453126.0234-3.679688.008-.519531.004-.957031-.375-1.101562-.86328-.195313-.60547.07812-1.14844.5625-1.51172.28125-.0781.5625-.13281.851562-.13281zm0 0"/><path d="m72.34375 97.57813c.632812-.14063 1.234375-.10157 1.875-.10547 1.925781.004 3.855469-.004 5.78125.004.890625.004 1.757812.32422 2.445312.89062.765626.64063 1.234376 1.60156 1.21875 2.60938 0 3.08203.0039 6.18359 0 9.26562.0039.54297-.328124 1.07031-.863281 1.22266-.777343.3164-1.761719-.36719-1.683593-1.22266 0-1.3789 0-2.76172.0039-4.14062-3.007813.0117-6.011719.004-9.019532.004-.02344 1.42968.0078 2.86718-.01562 4.29687-.02344.73047-.765626 1.26172-1.46875 1.11719-.527344-.0703-1.050782-.58203-1.015626-1.13672-.01172-3.18359-.0039-6.37891-.0039-9.5625-.0039-1.58594 1.246094-2.90625 2.746094-3.24219zm0 0"/><path d="m93.75 97.47266c2.65625.0117 5.320312-.0117 7.97266.0117.92968.0195 1.42187.95703 1.08984 1.78515-.21094.46485-.58984.72266-1.10156.71485-2.707034.0117-5.421878-.004-8.132815.008-.445313-.008-.699219.41796-.8125.80078-.21875.85156-.15625 1.86718.585937 2.44922 2.480469-.0195 4.957032-.004 7.433598-.008.91797-.0391 1.89062.32031 2.48828 1.03515.71094.8086 1.05859 1.92188 1.04297 2.98438.043 1.19922-.33985 2.4414-1.17969 3.3125-.57422.59375-1.375.90625-2.19922.88281-3.023438.0117-6.042969 0-9.0625.008-.410156-.0195-.78125.0391-1.101562-.26562-.667969-.44141-.652344-1.61719.03125-2.03516.335937-.22266.683593-.21484 1.070312-.21875 2.914062.008 5.84375-.004 8.75781.008.36328 0 .625-.0469.83203-.37109.4961-.875.42188-2.09375-.34375-2.80078-2.08984-.0352-4.18359-.008-6.27734-.0156-.628906-.008-1.269531.0391-1.894531-.0352-.863281-.125-1.585938-.67187-2.070313-1.38671-.675781-.97306-.867187-2.19181-.753906-3.35197.148438-1.14843.644531-2.28515 1.605469-2.97265.601562-.41797 1.296875-.55469 2.019531-.53907zm0 0"/><path d="m110.3125 97.46875c3.01953.0117 6.04297.004 9.0625.008.47266 0 .96094-.0234 1.42969.0312.55469.10156.97265.53516 1 1.10938.0625.64062-.34766 1.30859-1.01563 1.35546-1.26562.0391-2.53515.004-3.80078.0156-.004 3.41407-.004 6.84375 0 10.25391.0742.87891-.89062 1.51953-1.6875 1.23438-.60547-.20313-.90234-.76954-.89062-1.39063-.0234-3.37109.082-6.73047.0312-10.10156-1.37891.008-2.75391 0-4.12891.008-.41016-.0117-.78125.0312-1.11328-.25781-.61328-.4961-.62891-1.4336-.0469-1.95704.34375-.27343.73829-.30859 1.16016-.30859zm0 0"/><path d="m131.25 97.47266c2.1875 0 4.375.004 6.5625 0 1.26562-.0195 2.53516.58203 3.23828 1.65234.33203.51172.49219 1.08594.48828 1.69531 0 3.08594-.008 6.17578 0 9.26172-.008.36719.008.69531-.24609.99219-.48047.66797-1.6211.58203-2.05469-.0977-.16406-.26953-.22656-.57812-.22266-.89453-.008-1.32813.008-2.65234-.008-3.97656-2.97656 0-5.95312.0117-8.92969-.008-.0469 1.43359.0117 2.87109-.0312 4.30468-.0625.91016-1.16796 1.4336-1.92968.95704-.44141-.23047-.59375-.63282-.58594-1.11719-.004-3.08203 0-6.1836-.004-9.26563-.0352-1.2539.69922-2.47265 1.8086-3.04297.58984-.33203 1.24218-.45703 1.91406-.46093zm0 0"/><path d="m149.38281 97.44531c.52735.0859.86719.53125 1.22656.87891 1.44141 1.44531 2.87891 2.89062 4.3125 4.34375 1.51563-1.52734 3.04688-3.04297 4.55079-4.58203.32421-.33203.66796-.58203 1.15625-.57031.61718-.004 1.17187.48437 1.21484 1.10937.0625.48828-.13672.88281-.47656 1.21094-1.54297 1.53906-3.06641 3.10547-4.6211 4.6289.85547.90235 1.83594 1.66407 2.71094 2.54297.72266.64453 1.45313 1.26563 2.12109 1.96485.46485.47265.46875 1.27734.008 1.75781-.46094.57422-1.41797.50391-1.89063-.0273-.625-.63281-1.29297-1.21094-1.95312-1.8125-.89063-.90235-1.89063-1.6836-2.77344-2.59375-1.67578 1.59375-3.25781 3.3164-4.93359 4.90625-.40235.375-.875.21484-1.3711.20703-.19531-.19922-.46094-.40234-.57812-.66016-.1836-.52343-.10547-1.10937.30468-1.5 1.56641-1.60156 3.16407-3.18359 4.74219-4.77734-1.58594-1.51562-3.07812-3.125-4.65625-4.64453-.38672-.38281-.68359-.78516-.54687-1.36719.1289-.69922.76172-1.11328 1.45312-1.01562zm0 0"/></g><path d="m173.00391 97.71875c1.35546-.30859 2.86328.30469 3.57421 1.51953.83594 1.32813.58204 3.11328-.55468 4.17969-1.16016 1.16406-3.15625 1.20312-4.41407.18359-1.22656-.9414-1.60546-2.74219-.89843-4.11328.43359-.90234 1.32031-1.57031 2.29297-1.76953zm0 0" fill="#234adc"/><path d="m14.347656 100 .121094-.004c2.578125-.0117 5.15625-.0117 7.730469-.004.59375.004 1.097656.53516 1.0625 1.13281 0 2.25391.0039 4.51563 0 6.76563.01953.57031-.507813 1.0664-1.070313 1.01953-2.621094-.0234-5.234375.0586-7.851562.0273.0078-2.98047-.0078-5.96094.0078-8.9375zm0 0" fill="#fff"/><path d="m35.757812 99.98828c2.25 0 4.492188.004 6.742188-.004.425781-.0195.742188.17969 1.117188.33985.113281.26562.246093.5039.230468.80468.0039.85157.0039 1.70703-.01953 2.5625-2.972656-.008-5.949219-.0117-8.921875 0-.02344-1.07031-.05469-2.14843.01953-3.21875.265625-.18359.53125-.35937.832031-.48437zm0 0" fill="#fff"/><path d="m80.175781 99.98438c.269531.13671.601563.23828.773438.5039.214843.3086.164062.75781.175781 1.11719-.01953.71094.04297 1.39453-.07813 2.09766-2.976563-.0352-5.957031-.0156-8.933594-.0117-.02344-.9336-.04687-1.87501 0-2.8086.08203-.55469.445313-.6875.902344-.87891 2.386719-.039 4.777344.004 7.160156-.0195zm0 0" fill="#fff"/><path d="m131.23437 99.99219c2.19532-.008 4.39063-.008 6.58594 0 .52344.008.84375.22265 1.1836.59765.0117 1.03125.0352 2.07032-.0156 3.10157-2.97266-.0117-5.94141-.008-8.91016 0-.0312-1.03125-.0156-2.0625-.0117-3.09375.32421-.36328.66406-.59766 1.16796-.60547zm0 0" fill="#fff"/><path d="m172.65625 107.06641c.51562.0859 1.00781.15625 1.44531.46875.8086.61328 1.17969 1.69531.86719 2.67578-.33594 1.05469-1.375 1.74609-2.47656 1.6289-.95313-.0547-1.77344-.73828-2.08203-1.63281-.10547-.76172-.16016-1.54687.375-2.16797.45703-.63281 1.1289-.86328 1.87109-.97265zm0 0" fill="#234adc"/><path d="m179.60156 110.01953c1.11719-.24609 2.22656.0391 3.03906.85938 1.29688 1.26172 1.14063 3.59765-.29687 4.6875-1.14844.9375-2.875.90625-4.00391-.0508-1.27734-1.01563-1.48047-3.03907-.51172-4.33204.44922-.5664 1.07813-.98046 1.77344-1.16406zm0 0" fill="#11193a"/><path d="m179.91406 110.48828c.78906-.17187 1.57813.1211 2.1836.625.85546.78906 1.04687 2.14453.55468 3.1836-.45703.98046-1.58593 1.60156-2.65625 1.40625-1.02343-.13282-1.92578-.9961-2.10937-2.01172-.043-.625-.10156-1.33203.23437-1.88672.35938-.70703 1.03516-1.14844 1.79297-1.31641zm0 0" fill="#fff"/><path d="m181.28906 111.34375c.64063.22266.62891.92578.48828 1.47656-.1875.32422-.49609.39453-.80859.54688.34375.5625.72656 1.01562.92578 1.62109-.17578.004-.34766.008-.51953.0117-.39844-.50781-.66406-1.11328-1.07813-1.60156-.15625-.0664-.33593-.0977-.53906-.0898-.0195.44922-.0117.89453-.0195 1.34375.0586.39062-.32422.30469-.58203.37109-.0352-1.26172 0-2.52344-.0234-3.78515.69531.0273 1.48828-.0977 2.15625.10546zm0 0" fill="#11193a"/><path d="m166.03125 111.44922c.63672-.16016 1.34375.0156 1.69922.59766.45312.72265.16797 1.6914-.60156 2.05078-.85938.42968-1.98438-.21875-2.03516-1.1875-.0703-.66797.375-1.1836.9375-1.46094zm0 0" fill="#234adc"/><path d="m179.76172 111.73438c.51562-.0703.95312-.004 1.43359.17968 0 .23438.0234.48438-.0234.71094-.3125.35156-1.00781.19531-1.4375.23047.004-.37109-.008-.75.0273-1.12109zm0 0" fill="#fff"/></svg>