<svg height="200" viewBox="0 0 200 200" width="200" xmlns="http://www.w3.org/2000/svg" xmlns:xlink="http://www.w3.org/1999/xlink"><linearGradient id="a" gradientTransform="matrix(-2.666667 0 0 -2.666667 2632 130.666667)" gradientUnits="userSpaceOnUse" x1="1002.530029" x2="896.460022" y1="-41.529999" y2="64.540001"><stop offset="0" stop-color="#bd0816"/><stop offset="1" stop-color="#ff5252"/></linearGradient><path d="m0 0h200v200h-200z" fill="url(#a)"/><g fill="#fff"><path d="m146.667969 40h-102.773438c-5.746093.300781-10.167969 5.1875-9.894531 10.933594v66.132812c-.273438 5.746094 4.148438 10.632813 9.894531 10.933594h56.773438v-5.332031h-56.773438c-2.746093-.398438-4.726562-2.832031-4.5625-5.601563v-45.066406h48v40c0 1.472656 1.195313 2.667969 2.667969 2.667969h21.332031v-5.335938h-17.464843v-.796875c-.015626-9.144531 5.984374-17.203125 14.746093-19.816406 4.164063 1.90625 8.953125 1.90625 13.121094 0 4.917969 1.484375 9.113281 4.734375 11.785156 9.121094l4.535157-2.667969c-2.746094-4.480469-6.78125-8.03125-11.574219-10.183594 2.1875-2.597656 3.386719-5.886719 3.386719-9.28125 0-8.101562-6.566407-14.667969-14.667969-14.667969-8.097657 0-14.664063 6.566407-14.664063 14.667969.066406 3.339844 1.292969 6.554688 3.464844 9.09375-4.613281 2.046875-8.527344 5.402344-11.253906 9.652344v-35.785156h45.332031v37.332031h5.335937v-24h8v26.667969h5.332032v-47.734375c.128906-2.792969-.863282-5.519532-2.757813-7.570313-1.890625-2.054687-4.53125-3.265625-7.320312-3.363281zm-31.46875 26.320312c5.125-.03125 9.304687 4.101563 9.335937 9.226563-.023437 3.347656-1.875 6.417969-4.828125 8-2.820312 1.523437-6.21875 1.523437-9.039062 0-2.9375-1.59375-4.777344-4.660156-4.800781-8 .027343-5.125 4.207031-9.257813 9.332031-9.226563zm28.132812.347657v-10.667969c0-1.472656-1.191406-2.667969-2.664062-2.667969h-50.667969c-1.472656 0-2.667969 1.195313-2.667969 2.667969v10.667969h-48v-15.734375c-.164062-2.769532 1.816407-5.203125 4.5625-5.601563h102.773438c2.765625.375 4.777343 2.816407 4.613281 5.601563v15.734375zm0 0"/><path d="m44.71875 85.199219h29.28125v5.335937h-29.28125zm0 0"/><path d="m44.71875 98.535156h18.613281v5.332032h-18.613281zm0 0"/><path d="m68.71875 98.535156h7.949219v5.332032h-7.949219zm0 0"/><path d="m139.039062 160.132812c-10.050781.046876-19.296874-5.5-23.980468-14.394531-4.6875-8.894531-4.035156-19.65625 1.691406-27.917969 5.722656-8.261718 15.570312-12.65625 25.542969-11.394531 9.855469 1.21875 18.246093 7.75 21.84375 17.003907 3.597656 9.253906 1.824219 19.734374-4.617188 27.289062-2.496093 2.875-5.554687 5.207031-8.984375 6.855469-3.601562 1.683593-7.523437 2.554687-11.496094 2.558593zm0-48.585937c-3.425781 0-6.800781.820313-9.839843 2.398437-10.441407 5.421876-14.636719 18.191407-9.441407 28.746094 5.195313 10.554688 17.871094 15.023438 28.535157 10.054688 2.769531-1.3125 5.230469-3.191406 7.226562-5.519532 5.179688-6.058593 6.605469-14.476562 3.710938-21.902343s-9.636719-12.660157-17.550781-13.617188c-.894532-.109375-1.792969-.164062-2.691407-.160156zm0 0"/><path d="m134.800781 144.535156c-.710937.003906-1.390625-.277344-1.894531-.773437l-8.613281-8.613281 3.707031-3.761719 6.71875 6.71875 15.203125-15.226563 3.785156 3.789063-17.121093 17.09375c-.476563.472656-1.113282.75-1.785157.773437zm0 0"/></g></svg>