<?xml version="1.0" encoding="utf-8"?>
<!-- Generator: Adobe Illustrator 24.0.1, SVG Export Plug-In . SVG Version: 6.00 Build 0)  -->
<svg version="1.1" xmlns="http://www.w3.org/2000/svg" xmlns:xlink="http://www.w3.org/1999/xlink" x="0px" y="0px"
	 viewBox="0 0 650 650" style="enable-background:new 0 0 650 650;" xml:space="preserve">
<style type="text/css">
	.st0{display:none;}
	.st1{display:inline;}
	.st2{display:inline;fill-rule:evenodd;clip-rule:evenodd;}
	.st3{display:inline;fill:#A91917;}
	.st4{display:inline;fill-rule:evenodd;clip-rule:evenodd;fill:#A91917;}
	.st5{fill-rule:evenodd;clip-rule:evenodd;fill:#FFC000;}
	.st6{fill:#FFC000;}
	.st7{fill-rule:evenodd;clip-rule:evenodd;fill:#FFFFFF;}
	.st8{fill:none;}
	.st9{fill-rule:evenodd;clip-rule:evenodd;}
	.st10{opacity:0.5;fill:#FFFFFF;}
	.st11{fill:#FFFFFF;}
	.st12{fill:#676767;}
	.st13{fill:url(#SVGID_1_);}
	.st14{fill:url(#SVGID_2_);}
	.st15{fill:url(#SVGID_3_);}
	.st16{fill:url(#SVGID_4_);}
	.st17{fill:url(#SVGID_5_);}
	.st18{fill:url(#SVGID_6_);}
	.st19{fill:url(#SVGID_7_);}
	.st20{fill:url(#SVGID_8_);}
	.st21{fill:url(#SVGID_9_);}
	.st22{fill:url(#SVGID_10_);}
	.st23{fill:url(#SVGID_11_);}
	.st24{fill:#333333;}
	.st25{fill:url(#SVGID_12_);}
	.st26{opacity:0.2;}
	.st27{fill:url(#SVGID_13_);}
	.st28{fill:url(#SVGID_14_);}
	.st29{fill:url(#SVGID_15_);}
	.st30{fill:url(#SVGID_16_);}
	.st31{fill:url(#SVGID_17_);}
	.st32{fill:url(#SVGID_18_);}
	.st33{fill:url(#SVGID_19_);}
	.st34{fill:url(#SVGID_20_);}
	.st35{fill:url(#SVGID_21_);}
	.st36{fill:url(#SVGID_22_);}
	.st37{fill:url(#SVGID_23_);}
	.st38{fill:url(#SVGID_24_);}
	.st39{fill:url(#SVGID_25_);}
	.st40{fill:url(#SVGID_26_);}
	.st41{fill:url(#SVGID_27_);}
	.st42{fill:url(#SVGID_28_);}
	.st43{fill:url(#SVGID_29_);}
	.st44{fill:url(#SVGID_30_);}
	.st45{fill:url(#SVGID_31_);}
	.st46{fill:url(#SVGID_32_);}
	.st47{fill:url(#SVGID_33_);}
	.st48{fill:url(#SVGID_34_);}
	.st49{fill:url(#SVGID_35_);}
	.st50{fill:url(#SVGID_36_);}
	.st51{fill:url(#SVGID_37_);}
	.st52{fill:url(#SVGID_38_);}
	.st53{fill:url(#SVGID_39_);}
	.st54{fill:url(#SVGID_40_);}
	.st55{fill:url(#SVGID_41_);}
	.st56{fill:url(#SVGID_42_);}
	.st57{fill:url(#SVGID_43_);}
	.st58{fill:url(#SVGID_44_);}
	.st59{fill:url(#SVGID_45_);}
	.st60{fill:url(#SVGID_46_);}
	.st61{fill:url(#SVGID_47_);}
	.st62{fill:url(#SVGID_48_);}
	.st63{clip-path:url(#SVGID_50_);}
	.st64{clip-path:url(#SVGID_52_);}
	.st65{stroke:#000000;stroke-width:0.2835;stroke-miterlimit:10;}
</style>
<g id="non-print-backgrounds" class="st0">
</g>
<g id="Logos">
	<g>
		<circle class="st5" cx="325.2" cy="324.1" r="260.3"/>
		<path d="M325,607C169.5,607,43,480.5,43,325S169.5,43,325,43s282,126.5,282,282S480.5,607,325,607z M325,66.9
			C182.7,66.9,66.9,182.7,66.9,325S182.7,583.1,325,583.1S583.1,467.3,583.1,325S467.3,66.9,325,66.9z"/>
		<path class="st7" d="M456.4,424c-7.4,11.1-28.9,6.1-63.3-4.3c-1.6-0.5-3.1-0.4-4.6,0.2c10.5-15.3,12.8-43.4,9.1-63.9
			c0-0.1,0-0.2,0-0.3c0-0.1,0-0.1,0-0.2c-1.1-8-2.9-14.4-4.9-17.2C438.4,375.1,463.9,411.1,456.4,424z"/>
		<g>
			<path class="st9" d="M268.6,396.9c2.8,9.2,7.1,17.8,13,25.3h88.7c6-7.5,10.3-16.1,13-25.3H268.6z M455.9,305.5
				c-2.8,2.6-2.9,7-0.3,9.9l1,1.1c40.3-34.4,64.6-61,52.5-82c-13.3-18.5-69.4-9.8-138.1,21.2c3.5-7,5.2-14.7,5.2-22.3
				c0-2.8-0.2-5.7-0.7-8.5c-1.6-9.9-6.3-19.4-13.9-26.9c-4.1-4.2-8.9-7.4-13.9-9.8l0.2-0.5h0l5.3-11.5c0.8-1.8,0-4-1.8-4.9
				c-1.8-0.8-4,0-4.9,1.8l-5.7,12.4c-9.5-2.9-19.8-2.9-29.3,0l-5.7-12.4c-0.8-1.8-3-2.6-4.9-1.8c-1.8,0.8-2.6,3-1.8,4.9l5.1,11.1
				l0.4,0.9c-5,2.4-9.8,5.7-13.9,9.8c-10,10-14.8,23.2-14.6,36.3c0.1,7.1,1.7,14.2,4.9,20.8c-17.8-8-116.5-48.8-136.4-21
				c-18,25.4,37.3,69.8,52.1,82.4l1-1.1c2.6-2.8,2.4-7.2-0.3-9.9c-7.3-6.8-18.7-18.1-26.6-29.1c-10.4-14.5-10.7-23-5.7-27.7
				c15.7-14.8,74,4.8,92.1,11.7c17.4,6.7,36.1,15.1,55.4,25.3c-92.4,53.6-155.2,117.6-140.4,143.3c9.3,16.1,48,14,97.6-3.5l-1.8-2.9
				c-1.7-2.8-4.9-4.1-8.1-3.1c-34.5,10.4-55.9,15.4-63.3,4.3c-10.4-17.9,42.2-79.7,123.8-126.9l6.1-3.5c2.1,1.1,4.1,2.3,6.2,3.5
				c81.7,47.1,134.2,108.9,123.8,126.9c-7.4,11.1-28.9,6.1-63.3-4.3c-3.1-1-6.4,0.3-8.1,3.1l-1.8,2.9c49.7,17.5,88.3,19.6,97.6,3.5
				c14.8-25.7-48-89.7-140.4-143.3c65.1-34.3,123.7-49.6,145.2-38.6C505.1,256.8,471.2,291,455.9,305.5z M284.2,239.8
				c-3-18.6,6.8-37.2,23.9-45.1C311.2,213.3,301.3,231.8,284.2,239.8z M367.4,239.8c-17.1-8-26.9-26.5-23.9-45.1
				C360.5,202.6,370.4,221.2,367.4,239.8z M382.4,345.2c-17-12.4-35.9-24.9-56.4-36.8c-20.4,11.9-39.4,24.4-56.3,36.8
				c-3.4,9.7-4.9,20.2-4.5,30.5h121.7C387.2,365.3,385.7,354.9,382.4,345.2z M301,443.4c7.6,8,13.6,15.1,25,35.7
				c11.4-20.6,17.4-27.7,25-35.7H301z"/>
			<path class="st7" d="M284.2,239.8c-3-18.6,6.8-37.2,23.9-45.1C311.2,213.3,301.3,231.8,284.2,239.8z"/>
			<path class="st7" d="M199.1,311.9c0,0,1.5-3.6-2-6.8c-15.3-14.5-49.2-48.7-29.9-58.5c21.5-10.9,80.2,4.7,145.3,39
				c-32.8,19-55.3,34.7-79.1,53.9C207.2,320.2,202.5,315.9,199.1,311.9z"/>
			<path class="st7" d="M420.1,339.9c-23.2-19.5-46.7-35.2-79.6-54.2c65.1-34.3,123.7-49.6,145.2-38.6c19.3,9.8-14.6,44-29.9,58.5
				c-2.7,2.6-2.1,3.7-2,6.8C450.5,316.3,446.4,320.6,420.1,339.9z"/>
			<path class="st7" d="M260.4,337.8c-2,2.8-3.8,9.2-4.9,17.2c0,0,0,0.1,0,0.2c0,0.1,0,0.2,0,0.3c-3.7,20.5-1.4,48.6,9.1,63.9
				c-1.4-0.6-3-0.6-4.6-0.2c-34.5,10.4-55.9,15.4-63.3,4.3C189.1,410.6,214.6,374.6,260.4,337.8z"/>
			<path class="st7" d="M367.4,239.8c-17.1-8-26.9-26.5-23.9-45.1C360.5,202.6,370.4,221.2,367.4,239.8z"/>
		</g>
	</g>
</g>
<g id="Ebene_3">
</g>
</svg>
