<svg version="1.1" id="Ebene_1" xmlns="http://www.w3.org/2000/svg" x="0" y="0" viewBox="0 0 1366 323" xml:space="preserve"><style>.st0{fill:#fff}.st2,.st3{fill-rule:evenodd;clip-rule:evenodd}.st3{fill:#fff}</style><path class="st0" d="M518.6 75.5V236c0 3.7-3.1 6.6-6.9 6.6l-35.9-.3v-62.7c0-3.7-3.1-6.6-6.9-6.6h-57.4c-3.8 0-6.9 3-6.9 6.6l-.2 62.7c-34.2 0-35.7.3-35.7.3-3.8 0-6.9-3-6.9-6.6V75.5c0-3.7 3.1-6.6 6.9-6.6l35.7.2c0 60.6.2 61.9.2 61.9 0 3.7 3.1 6.6 6.9 6.6h57.4c3.8 0 6.9-3 6.9-6.6l-.1-62c40.1 0 36-.1 36-.1 3.8 0 6.9 3 6.9 6.6zM562.7 89h25.7c3.4 0 6.1 2.6 6.1 5.9V237c0 3.2-2.7 5.9-6.1 5.9h-25.7c-3.4 0-6.1-2.6-6.1-5.9V94.9c0-3.3 2.7-5.9 6.1-5.9zM774.7 96.8l-51.6 144c-.8 2.4-3.2 4-5.8 4H678c-2.6 0-4.9-1.6-5.8-3.9l-51.8-144c-1.4-3.8 1.6-7.8 5.8-7.8h26c2.6 0 4.9 1.6 5.8 4l33.9 97.3c1.9 5.3 9.7 5.3 11.5 0L737.2 93c.8-2.4 3.2-4 5.8-4h26c4.1 0 7.1 4 5.7 7.8zM907.2 219.5V237c0 3.2-2.7 5.9-6.1 5.9h-94.4c-3.4 0-6.1-2.6-6.1-5.9V94.9c0-3.2 2.7-5.9 6.1-5.9H900c3.4 0 6.1 2.6 6.1 5.9v17.5c0 3.2-2.7 5.9-6.1 5.9h-55.4c-3.4 0-6.1 2.6-6.1 5.9 0 0-.1-.1-.1 26.9 0 0-.8.1 56.8.1v28.7c-59.4 0-57 .2-57 .2 0 28.2.2 27.8.2 27.8 0 3.2 2.7 5.9 6.1 5.9H901c3.5-.1 6.2 2.5 6.2 5.7zM1136.2 75.5V236c0 3.7-3.1 6.6-6.9 6.6h-29.1c-3.8 0-6.9-3-6.9-6.6l-.4-102c0-6.5-38.4 48.2-38.4 48.2a7.01 7.01 0 0 1-5.7 2.9h-14.2c-2.3 0-4.4-1.1-5.7-2.9 0 0-38.1-55.1-38.1-48.5L991 236c0 3.7-3.1 6.6-6.9 6.6H955c-3.8 0-6.9-3-6.9-6.6V75.5c0-3.7 3.1-6.6 6.9-6.6h38.9c2.3 0 4.4 1.1 5.7 2.9l36.7 53c2.7 3.9 8.7 3.9 11.4 0l36.7-53c1.3-1.8 3.4-2.9 5.7-2.9h38.9c4.1 0 7.2 3 7.2 6.6zM1341.1 196.6c-4.3 10.2-10.4 19-18.1 26.3-2.6 2.4-2.7 6.4-.3 9.1l23.7 25.1c-43.4 0-45.8.3-45.8.3-2 0-3.9-.8-5.2-2.3l-7.8-8.8c-1.7-1.9-4.3-2.7-6.9-2.1-7.5 1.6-15.6 2.4-24.4 2.4-20 0-36.9-3.9-50.9-11.8s-24.4-18.6-31.4-32.3c-7-13.7-10.5-29.1-10.5-46.4 0-17 3.5-32.2 10.5-45.8 7-13.6 17.4-24.4 31.4-32.4s30.9-12 50.9-12c19.7 0 36.5 4 50.4 12 13.9 8 24.4 18.9 31.5 32.6 7.1 13.7 10.6 28.9 10.6 45.7 0 14.6-2.6 28.1-7.7 40.4zm-121.2-.1c8.4 10.2 20.5 15.2 36.4 15.2h.5l-11.1-12.4c-3.8-4.3-.7-11 5.2-11h29.4c2 0 3.9.8 5.2 2.3 3.1 3.4 7.7 6.3 10.1 2.4 1.9-3.3 4.7-10.3 6-14.2 2.4-7.1 3.6-14.9 3.6-23.5 0-10.5-1.9-19.9-5.7-28.2s-9.4-14.7-16.8-19.5c-7.4-4.7-16.1-7.1-26.3-7.1-15.7 0-27.8 5.1-36.3 15.4-8.5 10.2-12.7 23.6-12.7 40.1-.1 16.8 4.1 30.3 12.5 40.5z"/><g><circle cx="160.7" cy="161" r="131.8" fill-rule="evenodd" clip-rule="evenodd" fill="#fcc414"/><path class="st0" d="M160.6 316C75.4 316 6.1 246.7 6.1 161.5S75.4 7 160.6 7s154.5 69.3 154.5 154.5S245.8 316 160.6 316zm0-295.9c-78 0-141.4 63.5-141.4 141.4s63.4 141.4 141.4 141.4S302 239.5 302 161.5 238.6 20.1 160.6 20.1z"/><path class="st2" d="M182.1 123.9c-8.7-4-13.6-13.4-12.1-22.8 8.6 4 13.6 13.4 12.1 22.8z"/><path class="st2" d="M132 203.4c1.4 4.6 3.6 9 6.6 12.8h44.9c3-3.8 5.2-8.2 6.6-12.8H132zm94.8-46.2c-1.4 1.3-1.5 3.6-.2 5l.5.5c20.4-17.4 32.7-30.9 26.6-41.5-6.7-9.4-35.1-4.9-69.9 10.7 1.8-3.5 2.6-7.4 2.6-11.3 0-1.4-.1-2.9-.4-4.3-.8-5-3.2-9.8-7-13.6-2.1-2.1-4.5-3.8-7-5l.1-.3 2.7-5.8c.4-.9 0-2-.9-2.5-.9-.4-2 0-2.5.9l-2.9 6.3c-4.8-1.5-10-1.5-14.8 0l-2.9-6.3c-.4-.9-1.5-1.3-2.5-.9-.9.4-1.3 1.5-.9 2.5l2.6 5.6.2.4c-2.6 1.2-4.9 2.9-7 5-5.1 5.1-7.5 11.7-7.4 18.4.1 3.6.9 7.2 2.5 10.5-9-4-59-24.7-69-10.6-9.1 12.8 18.9 35.3 26.4 41.7l.5-.5c1.3-1.4 1.2-3.7-.2-5-3.7-3.5-9.4-9.2-13.5-14.7-5.3-7.3-5.4-11.6-2.9-14 8-7.5 37.5 2.4 46.6 5.9 8.8 3.4 18.3 7.7 28 12.8-46.8 27.1-78.6 59.5-71.1 72.5 4.7 8.1 24.3 7.1 49.4-1.8l-.9-1.5c-.9-1.4-2.5-2.1-4.1-1.6-17.4 5.3-28.3 7.8-32.1 2.2-5.2-9.1 21.4-40.4 62.7-64.2l3.1-1.8c1 .6 2.1 1.2 3.1 1.8 41.3 23.8 67.9 55.1 62.7 64.2-3.8 5.6-14.6 3.1-32.1-2.2-1.6-.5-3.2.2-4.1 1.6l-.9 1.5c25.1 8.9 44.7 9.9 49.4 1.8 7.5-13-24.3-45.4-71.1-72.5 32.9-17.4 62.6-25.1 73.5-19.6 10 5-7.1 22.3-14.9 29.7zM140 123.9c-1.5-9.4 3.5-18.8 12.1-22.8 1.5 9.4-3.5 18.8-12.1 22.8zm42.1 0c-8.7-4-13.6-13.4-12.1-22.8 8.6 4 13.6 13.4 12.1 22.8zm7.5 53.4c-8.6-6.3-18.2-12.6-28.5-18.6-10.3 6-19.9 12.3-28.5 18.6-1.7 4.9-2.5 10.2-2.3 15.4h61.6c.2-5.2-.6-10.5-2.3-15.4zM148.4 227c3.9 4 6.9 7.6 12.7 18.1 5.8-10.4 8.8-14 12.7-18.1h-25.4z"/><path class="st3" d="M182.1 123.9c-8.7-4-13.6-13.4-12.1-22.8 8.6 4 13.6 13.4 12.1 22.8zM140 123.9c-1.5-9.4 3.5-18.8 12.1-22.8 1.5 9.4-3.5 18.8-12.1 22.8zM96.9 160.4s.7-1.8-1-3.4c-7.8-7.3-24.9-24.6-15.1-29.6 10.9-5.5 40.6 2.4 73.5 19.7-16.6 9.6-28 17.6-40 27.3-13.3-9.8-15.7-11.9-17.4-14zM227.1 217.2c-3.8 5.6-14.6 3.1-32.1-2.2-.8-.2-1.6-.2-2.3.1 5.3-7.7 6.5-22 4.6-32.3v-.2-.1c-.6-4.1-1.5-7.3-2.5-8.7 23.2 18.6 36.1 36.8 32.3 43.4zM208.7 174.6c-11.7-9.9-23.7-17.8-40.3-27.4 32.9-17.4 62.6-25.1 73.5-19.6 9.8 5-7.4 22.3-15.1 29.6-1.4 1.3-1 1.9-1 3.4-1.7 2.1-3.8 4.2-17.1 14zM127.9 173.5c-1 1.4-1.9 4.6-2.5 8.7V182.5c-1.9 10.4-.7 24.6 4.6 32.3-.7-.3-1.5-.3-2.3-.1-17.4 5.3-28.3 7.8-32.1 2.2-3.8-6.5 9.1-24.7 32.3-43.4z"/></g></svg>