<svg width="96" height="96" viewBox="0 0 96 96" fill="none" xmlns="http://www.w3.org/2000/svg">
<mask id="mask0" mask-type="alpha" maskUnits="userSpaceOnUse" x="0" y="0" width="96" height="96">
<rect width="96" height="96" fill="white"/>
</mask>
<g mask="url(#mask0)">
<path d="M2.70691 65.5685C2.34859 65.5742 1.99298 65.5053 1.66257 65.3661C1.33216 65.227 1.03412 65.0206 0.787286 64.7601C0.533679 64.5089 0.333254 64.209 0.198015 63.8782C0.0627763 63.5475 -0.00449447 63.1928 0.000232945 62.8354C-0.00232763 62.4783 0.0659339 62.1243 0.201049 61.7938C0.336163 61.4634 0.535437 61.1632 0.787286 60.9107C1.0317 60.6458 1.32884 60.4352 1.6595 60.2926C1.99018 60.1501 2.347 60.0787 2.70691 60.0831C3.06631 60.0822 3.42207 60.1552 3.75223 60.2975C4.0824 60.4399 4.37996 60.6486 4.62655 60.9107C4.88274 61.161 5.08613 61.4603 5.22464 61.791C5.36314 62.1216 5.43393 62.4768 5.4328 62.8354C5.43615 63.1944 5.36637 63.5502 5.22773 63.8812C5.0891 64.2121 4.88452 64.5112 4.62655 64.7601C4.37762 65.0179 4.07919 65.2224 3.74926 65.3613C3.41933 65.5003 3.06476 65.5708 2.70691 65.5685Z" fill="#621EE5"/>
<path d="M40.8523 65.0876H35.8229L17.8359 37.1022C17.3879 36.4127 17.0146 35.6771 16.7225 34.908H16.569C16.7399 36.5059 16.804 38.1134 16.7609 39.7198V65.0876H12.6721V30H17.9895L35.4966 57.4849C36.226 58.627 36.6996 59.4097 36.9171 59.8331H37.0131C36.8105 58.1216 36.7271 56.3981 36.7635 54.6749V30H40.8523V65.0876Z" fill="#621EE5"/>
<path d="M68.5295 65.0876H49.9282V30H67.6657V33.7147H54.113V45.3785H66.7442V49.0739H54.113V61.2382H68.5487L68.5295 65.0876Z" fill="#621EE5"/>
<path d="M96 33.7147H85.826V65.0876H81.7372V33.7147H71.6783V30H96V33.7147Z" fill="#621EE5"/>
</g>
</svg>
