<svg height="200" viewBox="0 0 200 200" width="200" xmlns="http://www.w3.org/2000/svg"><path d="m100.917969 11.167969c2.300781 3.378906 4.371093 6.917969 6.5 10.410156 2.402343 4.070313 5.132812 7.839844 7.371093 11.996094 2.230469 4.1875 4.917969 7.960937 7.367188 12.015625 2.667969 4.601562 5.707031 8.976562 8.242188 13.644531 4.027343 6.769531 8.363281 13.339844 12.402343 20.101563 2.429688 4.550781 5.425781 8.761718 8.011719 13.222656 2.492188 4.363281 5.511719 8.351562 7.789062 12.839844 4.671876 7.800781 9.6875 15.394531 14.265626 23.261718 4.457031 7.644532 9.363281 15 13.882812 22.605469-3.210938 1.433594-6.300781 3.132813-9.53125 4.511719-3.648438 1.457031-7.019531 3.488281-10.601562 5.109375-6.921876 3.234375-13.636719 6.972656-20.660157 9.960937-8.667969 4.21875-17.292969 8.550782-25.964843 12.75-4.75 1.992188-9.242188 4.492188-13.921876 6.648438-.007812-34.128906-.070312-68.28125.03125-102.410156 2.511719 4.378906 4.898438 8.832031 7.5 13.167968 1.941407 3.855469 3.953126 7.664063 6.148438 11.386719 2.988281 4.980469 5.632812 10.15625 8.601562 15.15625 1.453126 2.777344 2.84375 5.589844 4.441407 8.289063-3.738281 1.875-7.210938 4.023437-11.054688 5.710937-2.074219.902344-4.074219 1.957031-6.0625 3.042969-.027343 3.988281-.039062 7.984375.011719 11.976562 7.492188-2.8125 14.644531-6.542968 22.007812-9.6875 4.253907-1.792968 8.304688-3.96875 12.625-5.601562-2.59375-4.136719-5.226562-8.234375-7.570312-12.515625-3.542969-5.457031-6.773438-11.109375-10.355469-16.546875-2.34375-3.554688-4.214843-7.378906-6.53125-10.960938-3.699219-5.707031-7.230469-11.519531-10.777343-17.324218-4.660157-8.089844-9.867188-15.789063-14.648438-23.792969-2.238281 3.46875-4.261719 7.066406-6.542969 10.511719-4.558593 7.167968-8.761719 14.53125-13.261719 21.730468-2.933593 5.011719-6.28125 9.648438-9.015624 14.769532-1.441407 2.675781-3.136719 5.15625-4.753907 7.71875-2.894531 4.617187-5.65625 9.316406-8.605469 13.898437-2.277343 4.132813-4.789062 8.113281-7.269531 12.121094 2.34375.78125 4.535157 1.75 6.71875 2.898437 5.46875 2.679688 11.050781 5.105469 16.480469 7.855469 3.644531 1.636719 7.15625 3.574219 10.917969 4.839844.3125-3.945313.488281-7.890625.605469-11.84375-1.890626-1.089844-3.824219-2.109375-5.824219-2.988281-3.925781-1.75-7.488281-3.851563-11.285157-5.832032 5.191407-9.738281 10.636719-19.242187 16.09375-28.835937 3.210938-6.484375 6.992188-12.671875 10.53125-18.976563-.0625 5.375.078126 10.742188.011719 16.117188-.183593 28.714844-.226562 57.421875-.507812 86.132812-3.167969-1.53125-6.332031-3.070312-9.46875-4.65625-5.3125-2.257812-10.503907-4.851562-15.648438-7.46875-4.621093-2.257812-9.300781-4.367187-13.855469-6.757812-8.359374-3.515625-16.28125-7.90625-24.527343-11.710938-5.417969-2.914062-11.167969-5.042968-16.613281-7.914062 3.757812-6.140625 7.675781-12.171875 11.414062-18.328125 4.601562-7.839844 9.394531-15.582031 14.28125-23.246094 2.054688-3.199219 3.695312-6.625 5.792969-9.800781 3.574219-5.441406 6.8125-11.085938 10.332031-16.566406 4.460938-7.945313 9.539062-15.445313 14.21875-23.246094 2.667969-4.953125 5.929688-9.542969 8.742188-14.421875 1.890624-3.277344 4.15625-6.3125 6-9.613281 2.351562-4.40625 5.113281-8.605469 7.808593-12.808594 2.550781-4.191406 5.085938-8.398438 7.710938-12.546875zm0 0" fill="#fe7139"/></svg>