<svg height="200" viewBox="0 0 200 200" width="200" xmlns="http://www.w3.org/2000/svg" xmlns:xlink="http://www.w3.org/1999/xlink"><linearGradient id="a" gradientTransform="matrix(-1.885618 -1.885618 1.885618 -1.885618 -4719.120117 -1824.053385)" gradientUnits="userSpaceOnUse" x1="-1788.050049" x2="-1788.050049" y1="692.669983" y2="842.669983"><stop offset="0" stop-color="#c8511b"/><stop offset="1" stop-color="#f90"/></linearGradient><path d="m0 0h200v200h-200z" fill="url(#a)"/><g fill="#fff"><path d="m161.332031 166.667969h-32.851562c-1.027344-.003907-1.960938-.59375-2.402344-1.519531l-46.453125-97.148438h-19.652344c-1.472656 0-2.664062-1.195312-2.664062-2.667969v-29.332031c0-1.472656 1.191406-2.667969 2.664062-2.667969h41.066406c1.027344.003907 1.960938.59375 2.402344 1.519531l46.238282 97.148438h11.652343c1.472657 0 2.667969 1.195312 2.667969 2.667969v29.332031c0 1.472656-1.195312 2.667969-2.667969 2.667969zm-31.171875-5.335938h28.507813v-24h-10.667969c-1.027344 0-1.957031-.59375-2.398438-1.519531l-46.242187-97.144531h-36.691406v24h18.664062c1.027344 0 1.960938.59375 2.402344 1.519531zm0 0"/><path d="m73.28125 166.667969h-34.667969c-.921875 0-1.777343-.472657-2.265625-1.253907-.519531-.800781-.570312-1.820312-.132812-2.667968l36.265625-75.757813c.441406-.925781 1.375-1.519531 2.398437-1.523437 1.019532 0 1.953125.578125 2.402344 1.496094l17.359375 35.707031c.351563.730469.351563 1.585937 0 2.320312l-18.933594 40c-.398437.996094-1.355469 1.65625-2.425781 1.679688zm-30.402344-5.335938h28.722656l17.679688-37.332031-14.375-29.734375zm0 0"/></g></svg>