<svg height="200" viewBox="0 0 200 200" width="200" xmlns="http://www.w3.org/2000/svg"><g fill="#6c3c97"><path d="m38.011719 90.035156c0-5.160156-4.152344-9.3125-9.226563-9.3125h-4.578125v18.546875h4.578125c5.074219 0 9.226563-4.15625 9.226563-9.234375m20.816406 36.980469h-16.800781l-13.335938-18.507813h-4.484375v18.464844h-14.804687v-55.480468h21.210937c12.222657 0 22.203125 8.316406 22.203125 18.542968 0 6.238282-3.824218 11.8125-9.648437 15.222656zm0 0"/><path d="m75.523438 93.367188c-3.910157 0-7.234376 5.3125-7.234376 11.890624 0 6.578126 3.324219 11.898438 7.234376 11.898438 4 0 7.320312-5.320312 7.320312-11.898438 0-6.578124-3.320312-11.890624-7.320312-11.890624m22.785156 11.890624c0 12.566407-10.21875 22.628907-22.785156 22.628907-12.5625 0-22.707032-10.0625-22.707032-22.628907 0-12.558593 10.144532-22.625 22.707032-22.625 12.566406 0 22.785156 10.066407 22.785156 22.625"/><path d="m133.046875 83.554688-17.050781 17.046874v-17.105468h-14.800782v43.476562h14.800782v-17.636718l17.800781 17.636718h18.632813l-22.625-22.625 18.738281-18.734375v25.800781c0 8.566407 5.152343 16.472657 18.125 16.472657 6.160156 0 11.8125-3.492188 14.558593-6.652344l6.65625 5.738281h3.15625v-43.417968h-14.800781v28.109374c-1.664062 2.910157-3.988281 4.738282-7.578125 4.738282-3.640625 0-5.3125-2.15625-5.3125-9.0625v-23.785156zm0 0"/></g></svg>