<svg height="195" viewBox="0 0 200 195" width="200" xmlns="http://www.w3.org/2000/svg"><g transform="matrix(.88432203 0 0 .88432203 11.567797 11.278602)"><path d="m59.007812 18.28125-28.199218 15.6875-26.632813-15.6875 27.679688-15.6875zm0 0" fill="#7f7f7f"/><path d="m92.949219 37.628906-28.195313 15.164063-27.15625-15.164063 27.675782-16.210937zm0 0" fill="#7f7f7f"/><path d="m162.92578 37.105469-28.19922 15.6875-26.63281-15.6875 27.67578-16.210938zm0 0" fill="#c5c5c5"/><path d="m197.39062 17.757812-28.19921 15.164063-26.63282-15.164063 27.67578-16.210937zm0 0" fill="#c5c5c5"/><g fill="#00aecf"><path d="m27.675781 73.707031v-33.988281l-27.675781-16.207031v34.507812zm0 0"/><path d="m62.664062 92.53125v-33.464844l-28.199218-16.210937v34.511719zm0 0"/><path d="m96.082031 110.83203v-33.464842l-27.675781-16.207032v34.507813zm0 0"/></g><path d="m171.80078 74.230469v-33.988281l28.19922-16.210938v34.511719zm0 0" fill="#4ae1ff"/><path d="m137.33594 93.054688v-33.464844l27.67578-16.210938v34.511719zm0 0" fill="#4ae1ff"/><path d="m103.39453 111.35547v-33.464845l27.67578-16.210937v34.511718zm0 0" fill="#4ae1ff"/><path d="m27.675781 114.49609v-33.468746l-27.675781-16.207032v34.511719zm0 0" fill="#00aecf"/><path d="m62.664062 133.83984v-33.46484l-28.199218-16.730469v34.511719zm0 0" fill="#00aecf"/><path d="m96.082031 151.62109v-33.46484l-27.675781-16.21094v34.51172zm0 0" fill="#00aecf"/><path d="m171.80078 115.01563v-33.464849l28.19922-16.210937v34.511718zm0 0" fill="#4ae1ff"/><path d="m137.33594 134.36328v-33.46484l27.67578-16.21094v34.51172zm0 0" fill="#4ae1ff"/><path d="m103.39453 152.14453v-33.46875l27.67578-16.20703v34.51172zm0 0" fill="#4ae1ff"/><path d="m27.675781 155.80469v-33.98828l-27.675781-16.21094v34.51172zm0 0" fill="#00aecf"/><path d="m62.664062 174.62891v-33.46875l-28.199218-16.20703v34.51171zm0 0" fill="#00aecf"/><path d="m96.082031 192.92969v-33.46485l-27.675781-16.21093v34.51171zm0 0" fill="#00aecf"/><path d="m171.80078 156.32422v-33.46484l28.19922-16.73047v34.51171zm0 0" fill="#4ae1ff"/><path d="m137.33594 175.15234v-33.46875l27.67578-16.20703v34.51172zm0 0" fill="#4ae1ff"/><path d="m103.39453 193.45312v-33.46484l27.67578-16.21094v34.51172zm0 0" fill="#4ae1ff"/><path d="m99.738281 71.617188.523439-31.375-27.675782 16.210937zm0 0" fill="#7f7f7f"/><path d="m127.41406 56.453125-27.15234-16.210937-.523439 31.375zm0 0" fill="#c5c5c5"/></g></svg>