<?xml version="1.0" encoding="UTF-8"?>
<svg width="80px" height="80px" viewBox="0 0 80 80" version="1.1" xmlns="http://www.w3.org/2000/svg" xmlns:xlink="http://www.w3.org/1999/xlink">
    <title>Icon-Architecture/64/Arch_Amazon-EFS_64</title>
    <defs>
        <linearGradient x1="0%" y1="100%" x2="100%" y2="0%" id="linearGradient-1">
            <stop stop-color="#1B660F" offset="0%"></stop>
            <stop stop-color="#6CAE3E" offset="100%"></stop>
        </linearGradient>
    </defs>
    <g id="Icon-Architecture/64/Arch_Amazon-EFS_64" stroke="none" stroke-width="1" fill="none" fill-rule="evenodd">
        <g id="Rectangle" fill="url(#linearGradient-1)">
            <rect x="0" y="0" width="80" height="80"></rect>
        </g>
        <g id="Icon-Service/64/Amazon-EFS_64" transform="translate(7.982214, 8.000000)" fill="#FFFFFF">
            <path d="M23.3953463,16.0244294 C29.6594582,13.4043359 34.0955374,16.8504589 35.7115663,18.4525162 C37.0295898,19.7615629 38.0576082,21.4336226 38.7676209,23.4196936 C38.890623,23.7657059 39.1956285,24.0167149 39.558635,24.0717168 C39.9266415,24.1227187 40.287648,23.9787135 40.5076519,23.684703 C41.295666,22.6366656 42.4496866,22.0356441 43.6707084,22.0356441 C45.495741,22.0356441 47.7077805,23.4206936 47.9367846,27.323833 C47.962785,27.7748491 48.2877909,28.1508625 48.7297987,28.2438659 C53.2628797,29.1958999 55.5619207,31.7109897 55.5619207,35.7161327 C55.5619207,39.4382657 53.8578903,41.7383478 50.4988303,42.5533769 L50.9688387,44.4964463 C55.2209147,43.4664095 57.5619565,40.3482982 57.5619565,35.7161327 C57.5619565,31.0009643 54.8359078,27.7348477 49.865819,26.455802 C49.3238094,22.0276438 46.4267576,20.0355727 43.6707084,20.0355727 C42.3536849,20.0355727 41.0976625,20.4835887 40.061644,21.3006179 C39.3006304,19.6505589 38.3156128,18.2205079 37.1215915,17.0324654 C33.1575207,13.1073253 27.7404239,12.0402872 22.6233326,14.1793635 C18.2472544,16.0154291 14.9471955,21.0766099 14.9471955,25.9547841 C14.9471955,26.1947927 14.9551956,26.4418015 14.9701959,26.6968106 C10.9531242,28.0188578 8.58208182,31.3119754 8.58208182,35.6581306 C8.58208182,35.8771385 8.592082,36.0951463 8.60408222,36.3071538 C8.81108591,40.065288 11.3211307,43.3154041 14.9991964,44.5854495 L15.6512081,42.6943819 C12.7461562,41.6913461 10.7631208,39.140255 10.6011179,36.20115 C10.5921177,36.0251438 10.5821175,35.8421372 10.5821175,35.6581306 C10.5821175,30.5749491 14.1551813,28.9278903 16.2842194,28.3988714 C16.7732281,28.276867 17.0952338,27.8098504 17.0362328,27.3088325 C16.9762317,26.8138148 16.9472312,26.370799 16.9472312,25.9547841 C16.9472312,21.9026394 19.7802818,17.5414836 23.3953463,16.0244294 L23.3953463,16.0244294 Z M43.9997143,37.0011786 C43.9997143,36.6041644 43.9147128,36.3051538 43.75871,36.1591485 C43.5877069,36.0001429 43.2897016,35.9851423 43.0666976,35.9991428 L29.9994643,36.0011429 C29.4474544,36.0011429 28.9994464,35.5531269 28.9994464,35.0011072 C28.9994464,34.7300975 28.8984446,33.9710704 28.7824425,33.5000536 L25.3233808,33.5000536 C25.170378,33.96007 25.0063751,34.7410979 24.999375,35.0051073 C24.9853747,35.5471267 24.5413668,36.0011429 23.9993571,36.0011429 L20.9993036,36.0011429 C20.7062983,35.9821422 20.4112931,36.0001429 20.24129,36.1591485 C20.0852872,36.3051538 19.9992857,36.6041644 19.9992857,37.0011786 L19.9992857,51.0016786 L43.9997143,51.0016786 L43.9997143,37.0011786 Z M45.99975,39.00125 L45.99975,46.2295082 L48.5817961,39.00125 L45.99975,39.00125 Z M45.941749,52.3387264 L45.9327488,52.3357263 C45.7947463,52.7217401 45.4347399,53.0017501 44.9997321,53.0017501 L18.9992678,53.0017501 C18.447258,53.0017501 17.99925,52.5537341 17.99925,52.0017143 L17.99925,37.0011786 C17.99925,35.7751348 18.4752585,35.0721097 18.8742656,34.6980964 C19.2572725,34.3400836 19.9372846,33.9210686 21.0663048,34.0040716 L23.1163414,34.0020715 C23.2943445,32.9670345 23.7383525,31.4999821 24.8073716,31.4999821 L29.3594528,31.4999821 C29.4204539,31.4999821 29.482455,31.5059824 29.5434561,31.5169827 C30.4844729,31.692989 30.8174789,33.0280367 30.935481,34.0010715 L42.9996964,34.0010715 C44.0567153,33.9280689 44.7417275,34.3400836 45.1247344,34.6980964 C45.5247415,35.0721097 45.99975,35.7751348 45.99975,37.0011786 L49.9998214,37.0011786 C50.3258272,37.0011786 50.6298327,37.1591843 50.817836,37.4251938 C51.0048394,37.6912033 51.0508402,38.0312154 50.9418382,38.3372263 L45.941749,52.3387264 Z M57.9999643,56.5868781 L50.3938285,48.9806065 L48.9798032,50.394657 L56.584939,57.9999286 L51.0818407,57.9999286 L51.0818407,60 L58.9999821,60 C59.552992,60 60,59.551984 60,58.9999643 L60,51.0816815 L57.9999643,51.0816815 L57.9999643,56.5868781 Z M14.64219,48.9456052 L6.00003571,56.7488839 L6.00003571,51.0816815 L4,51.0816815 L4,58.9999643 C4,59.551984 4.448008,60 5.00001786,60 L13.9191771,60 L13.9191771,57.9999286 L7.59906427,57.9999286 L15.982214,50.4296582 L14.64219,48.9456052 Z M58.9999821,4 L50.0818229,4 L50.0818229,6.00007143 L56.7489419,6.00007143 L48.9448026,14.6423801 L50.4288291,15.9824279 L57.9999643,7.59912854 L57.9999643,13.9193543 L60,13.9193543 L60,5.00003572 C60,4.448016 59.552992,4 58.9999821,4 L58.9999821,4 Z M6.00003571,13.9193543 L4,13.9193543 L4,5.00003572 C4,4.448016 4.448008,4 5.00001786,4 L13.9191771,4 L13.9191771,6.00007143 L7.41406097,6.00007143 L16.0192146,14.6053788 L14.6051894,16.0194293 L6.00003571,7.41512197 L6.00003571,13.9193543 Z" id="Amazon-EFS_Icon_64_Squid"></path>
        </g>
    </g>
</svg>