<svg height="200" viewBox="0 0 200 200" width="200" xmlns="http://www.w3.org/2000/svg"><path d="m0 0h200v200h-200z" fill="#00729c"/><path d="m172.359375 36.035156-44.511719 88.714844s-1.160156 2.144531-3.238281 2.988281c-2.257813.917969-4.953125.292969-6.773437-1.371093l-38.074219-38.074219-40.628907 80.96875-11.179687-5.609375 44.515625-88.714844s1.15625-2.144531 3.238281-2.988281c2.253907-.917969 4.949219-.292969 6.773438 1.371093l38.074219 38.074219 40.628906-80.96875c3.722656 1.867188 7.449218 3.738281 11.175781 5.609375zm0 0" fill="#fff"/><g fill="#00a3c4" fill-rule="evenodd"><path d="m22.257812 22.257812h22.257813v22.257813h-22.257813zm0 0"/><path d="m66.769531 22.257812h22.257813v22.257813h-22.257813zm0 0"/><path d="m111.285156 22.257812h22.257813v22.257813h-22.257813zm0 0"/><path d="m66.769531 66.457031h22.257813v22.257813h-22.257813zm0 0"/><path d="m111.285156 66.457031h22.257813v22.257813h-22.257813zm0 0"/><path d="m155.484375 22.257812h22.257813v22.257813h-22.257813zm0 0"/><path d="m155.484375 66.457031h22.257813v22.257813h-22.257813zm0 0"/><path d="m22.257812 66.457031h22.257813v22.257813h-22.257813zm0 0"/><path d="m22.257812 110.972656h22.257813v22.257813h-22.257813zm0 0"/><path d="m66.769531 110.972656h22.257813v22.257813h-22.257813zm0 0"/><path d="m155.484375 110.972656h22.257813v22.257813h-22.257813zm0 0"/><path d="m22.257812 155.171875h22.257813v22.257813h-22.257813zm0 0"/><path d="m66.769531 155.171875h22.257813v22.257813h-22.257813zm0 0"/><path d="m111.285156 155.171875h22.257813v22.257813h-22.257813zm0 0"/><path d="m111.285156 110.972656h22.257813v22.257813h-22.257813zm0 0"/><path d="m155.484375 155.171875h22.257813v22.257813h-22.257813zm0 0"/></g></svg>