<svg height="200" viewBox="0 0 200 200" width="200" xmlns="http://www.w3.org/2000/svg"><g fill="#353535"><path d="m20.613281 82.613281-3.222656 7.328125h-5.808594l14.195313-32.214844h5.808594l14.195312 32.214844h-5.808594l-3.226562-7.328125zm13.921875-5.023437-5.855468-13.273438-5.851563 13.273438zm0 0"/><path d="m62.65625 65.054688c3.289062 0 6.097656 1.136718 8.433594 3.410156 2.335937 2.273437 3.503906 5.300781 3.503906 9.078125 0 3.78125-1.167969 6.851562-3.503906 9.21875-2.304688 2.367187-5.007813 3.546875-8.109375 3.546875-3.074219 0-5.839844-1.351563-8.296875-4.054688v12.628906h-5.164063v-33.460937h5.164063v4.285156c2.027344-3.101562 4.683594-4.652343 7.972656-4.652343zm-8.066406 12.671874c0 2.335938.707031 4.257813 2.121094 5.761719 1.414062 1.476563 3.132812 2.214844 5.164062 2.214844 2.027344 0 3.792969-.738281 5.296875-2.214844 1.507813-1.472656 2.261719-3.378906 2.261719-5.714843 0-2.363282-.738282-4.316407-2.214844-5.851563-1.472656-1.566406-3.242188-2.351563-5.300781-2.351563-2.058594 0-3.792969.785157-5.207031 2.351563-1.414063 1.535156-2.121094 3.472656-2.121094 5.804687zm0 0"/><path d="m100.351562 89.941406h-4.699218v-3.273437c-2.03125 2.429687-4.75 3.640625-8.160156 3.640625-2.550782 0-4.667969-.71875-6.359376-2.164063-1.660156-1.445312-2.488281-3.363281-2.488281-5.761719 0-2.425781.890625-4.238281 2.671875-5.4375 1.78125-1.199218 4.195313-1.796874 7.238282-1.796874h6.679687v-.921876c0-3.257812-1.8125-4.886718-5.4375-4.886718-2.273437 0-4.640625.828125-7.097656 2.488281l-2.304688-3.226563c2.980469-2.363281 6.359375-3.546874 10.140625-3.546874 2.886719 0 5.238282.738281 7.050782 2.210937 1.84375 1.445313 2.765624 3.734375 2.765624 6.867187zm-5.160156-9.125v-2.074218h-5.808594c-3.71875 0-5.578124 1.167968-5.578124 3.503906 0 1.195312.460937 2.117187 1.382812 2.765625.921875.613281 2.199219.921875 3.828125.921875 1.65625 0 3.101563-.460938 4.332031-1.382813 1.226563-.921875 1.84375-2.167969 1.84375-3.734375zm0 0"/><path d="m118.460938 90.308594c-3.414063 0-6.347657-1.148438-8.804688-3.453125-2.457031-2.335938-3.6875-5.378907-3.6875-9.128907 0-3.746093 1.277344-6.789062 3.824219-9.125 2.582031-2.363281 5.714843-3.546874 9.402343-3.546874s6.808594 1.273437 9.359376 3.824218l-3.042969 3.734375c-2.121094-1.84375-4.257813-2.765625-6.40625-2.765625-2.152344 0-4.027344.722656-5.625 2.164063-1.566407 1.414062-2.347657 3.257812-2.347657 5.53125 0 2.242187.78125 4.148437 2.347657 5.714843 1.566406 1.566407 3.488281 2.351563 5.761719 2.351563 2.304687 0 4.472656-1.042969 6.5-3.132813l3.042968 3.316407c-2.980468 3.011719-6.421875 4.515625-10.324218 4.515625zm0 0"/><path d="m139.300781 76.667969v13.273437h-5.164062v-34.152344h5.164062v14.105469c.734375-1.507812 1.84375-2.691406 3.316407-3.550781 1.507812-.859375 3.121093-1.289062 4.839843-1.289062 2.765625 0 4.992188.84375 6.683594 2.535156 1.71875 1.6875 2.582031 4.132812 2.582031 7.328125v15.023437h-5.164062v-13.457031c0-4.515625-1.875-6.777344-5.621094-6.777344-1.785156 0-3.335938.601563-4.65625 1.800781-1.320312 1.167969-1.980469 2.886719-1.980469 5.160157zm0 0"/><path d="m186.746094 79.941406h-19.21875c.125 1.78125.9375 3.226563 2.445312 4.332032 1.503906 1.074218 3.222656 1.613281 5.160156 1.613281 3.074219 0 5.40625-.96875 7.003907-2.90625l2.953125 3.226562c-2.644532 2.734375-6.085938 4.101563-10.324219 4.101563-3.441406 0-6.378906-1.136719-8.804687-3.410156-2.398438-2.304688-3.59375-5.375-3.59375-9.214844 0-3.871094 1.226562-6.945313 3.6875-9.21875 2.457031-2.273438 5.34375-3.410156 8.664062-3.410156 3.347656 0 6.191406 1.011718 8.527344 3.042968 2.332031 1.996094 3.5 4.761719 3.5 8.292969zm-19.21875-4.058594h14.058594c0-2.058593-.644532-3.640624-1.9375-4.746093-1.289063-1.105469-2.886719-1.660157-4.792969-1.660157-1.875 0-3.5625.585938-5.070313 1.753907-1.503906 1.136719-2.257812 2.6875-2.257812 4.652343zm0 0"/><path d="m49.507812 118.382812v27.238282h-5.441406v-27.238282h-9.769531v-4.976562h24.980469v4.976562zm0 0"/><path d="m69.308594 132.347656v13.273438h-5.164063v-34.148438h5.164063v14.101563c.738281-1.503907 1.84375-2.6875 3.316406-3.546875 1.507812-.863282 3.121094-1.292969 4.839844-1.292969 2.765625 0 4.996094.84375 6.683594 2.535156 1.722656 1.691407 2.582031 4.132813 2.582031 7.328125v15.023438h-5.164063v-13.457032c0-4.515624-1.871094-6.773437-5.621094-6.773437-1.78125 0-3.332031.597656-4.65625 1.796875-1.320312 1.167969-1.980468 2.886719-1.980468 5.160156zm0 0"/><path d="m106.800781 125.941406c-2.550781 0-4.46875.832032-5.761719 2.492188-1.289062 1.65625-1.933593 3.886718-1.933593 6.679687v10.507813h-5.164063v-24.515625h5.164063v4.929687c.828125-1.535156 1.949219-2.796875 3.363281-3.777344 1.445312-.984374 2.964844-1.492187 4.5625-1.523437l.046875 5.207031c-.09375 0-.183594 0-.277344 0zm0 0"/><path d="m117.378906 145.621094h-5.164062v-24.515625h5.164062zm-4.839844-29.402344c-.644531-.644531-.96875-1.414062-.96875-2.304688 0-.890624.324219-1.660156.96875-2.304687.644532-.644531 1.414063-.96875 2.304688-.96875s1.65625.324219 2.304688.96875c.644531.644531.964843 1.414063.964843 2.304687 0 .890626-.320312 1.660157-.964843 2.304688-.648438.644531-1.414063.96875-2.304688.96875s-1.660156-.324219-2.304688-.96875zm0 0"/><path d="m131.179688 119.074219v2.03125h6.449218v4.144531h-6.449218v20.371094h-5.164063v-20.371094h-3.085937v-4.144531h3.085937v-1.890625c0-2.582032.769531-4.625 2.304687-6.128906 1.566407-1.539063 3.441407-2.304688 5.625-2.304688 2.210938 0 4.222657.8125 6.035157 2.441406l-2.121094 3.640625c-1.011719-1.074219-2.074219-1.613281-3.179687-1.613281-1.105469 0-1.964844.355469-2.578126 1.058594-.617187.679687-.921874 1.601562-.921874 2.765625zm0 0"/><path d="m149 125.25v12.445312c0 1.167969.308594 2.105469.921875 2.8125.617187.675782 1.476563 1.011719 2.582031 1.011719 1.105469 0 2.167969-.535156 3.179688-1.613281l2.121094 3.644531c-1.8125 1.625-3.824219 2.441407-6.039063 2.441407-2.179687 0-4.054687-.753907-5.621094-2.257813-1.535156-1.539063-2.304687-3.597656-2.304687-6.175781v-12.308594h-3.089844v-4.144531h3.089844v-7.699219h5.160156v7.699219h6.453125v4.144531zm0 0"/><path d="m157.53125 108.011719v7.167969h-1.433594v-7.167969h-2.570312v-1.308594h6.574218v1.308594zm0 0"/><path d="m163.078125 115.179688h-1.429687v-8.476563h2.230468l2.558594 5.324219 2.558594-5.324219h2.21875v8.476563h-1.429688v-6.621094l-2.960937 5.878906h-.800781l-2.945313-5.878906zm0 0"/></g></svg>