<svg clip-rule="evenodd" fill-rule="evenodd" stroke-linejoin="round" stroke-miterlimit="1.41421" viewBox="0 0 560 400" xmlns="http://www.w3.org/2000/svg" xmlns:xlink="http://www.w3.org/1999/xlink"><linearGradient id="a" gradientTransform="matrix(-31.02 24.21 -24.21 -31.02 64.01 30.27)" gradientUnits="userSpaceOnUse" x1="0" x2="1" y1="0" y2="0"><stop offset="0" stop-color="#0052cc"/><stop offset=".18" stop-color="#0052cc"/><stop offset="1" stop-color="#2684ff"/></linearGradient><g transform="matrix(1.12751 0 0 1.12751 30.0291 164.329)"><path d="m282.75 62.39h-7.57v-7.22c-2.744 5.085-8.123 8.22-13.9 8.1-10.12 0-15.93-7-15.93-19.1v-25.78h7.57v26.61c0 7.92 3.17 11.44 10.38 11.44 7 0 11.88-4.66 11.88-13.55v-24.5h7.57zm97.41-18.69c1.06 7.48 5.9 12.32 16.28 12.32 4.564-.001 9.093-.803 13.38-2.37v7c-3.61 1.92-9.15 2.62-13.64 2.62-16.46 0-23.67-9.5-23.67-23 0-13.29 7.39-22.79 20.77-22.79 13.55 0 19 9.42 19 22.79v3.43zm-175.21 18.69h-7.57v-62.39h7.62v26.31c2.82-5.81 8.1-8.8 14.87-8.8 11.7 0 17.6 9.94 17.6 22.88-.04 12.41-6.2 22.88-18.52 22.88-6.42 0-11.35-2.9-14-8.62zm120.3-1.14c-2.64 1.41-6.69 2-10.74 2-15.66 0-23-9.5-23-23 0-13.29 7.3-22.79 23-22.79 3.617-.106 7.209.634 10.49 2.16v7c-3.127-1.459-6.551-2.168-10-2.07-11.44 0-16.1 7.21-16.1 15.75s4.75 15.75 16.28 15.75c3.402.09 6.792-.445 10-1.58zm-206.97 1.15h-23.85v-57.82h22.44c11.79 0 17.51 5.81 17.51 15.14 0 7-3.17 11.26-9.68 12.85 8.54 1.41 12.76 6.07 12.76 14.25 0 9.24-6.25 15.58-19.18 15.58zm35.82 0h-7.57v-44h7.57zm187.34-.01h-7.56v-62.39h7.57v39l18.92-20.59h9.86l-20.69 21.59 21.56 22.39h-10.3l-19.36-20.59zm90.28-44h11.7v7h-11.7v23.1c.01 3.87 2.28 6.51 6.96 6.51 1.6-.048 3.191-.255 4.75-.62v7.3c-1.658.474-3.375.71-5.1.7-9.42 0-14-5.54-14-13.73v-23.22h-7.13v-7h7.13v-9.37h7.39zm-255.72 0h11.7v7h-11.7v23.1c0 3.87 2.29 6.51 7 6.51 1.6-.048 3.191-.255 4.75-.62v7.3c-1.658.474-3.375.71-5.1.7-9.42 0-14-5.54-14-13.73v-23.22h-7.13v-7h7.13v-9.37h7.35zm41.8 6.16c-6.8 0-12.8 4.31-12.8 14.08v3.52c0 9.77 5.54 14.08 12 14.08 8.54 0 12.94-5.63 12.94-15.84-.08-10.56-4.3-15.84-12.14-15.84zm-115.45 11.89v18h16.19c7.57 0 11-2.73 11-8.54 0-6.16-3.26-9.5-11.17-9.5zm277.73.83h24.55c-.44-8.18-4.14-12.85-11.7-12.85-8.02-.04-12.06 5.15-12.85 12.8zm-277.73-25.12v17.24h13.46c7.48 0 10.56-3.43 10.56-9s-3.34-8.27-10.56-8.27zm48.05-10.65c.117-.008.235-.013.353-.013 2.71 0 4.94 2.23 4.94 4.94 0 .118-.005.236-.013.353 0 2.897-2.383 5.28-5.28 5.28s-5.28-2.383-5.28-5.28c-.008-.117-.013-.235-.013-.353 0-2.71 2.23-4.94 4.94-4.94.118 0 .236.005.353.013z" fill="#253858" fill-rule="nonzero"/><path d="m24.7 43.51h13.05l3.15-18.39h-19.67z" fill="none"/><g fill-rule="nonzero"><path d="m2 6.26c-.009 0-.017 0-.026 0-1.097 0-2 .903-2 2 0 .107.009.214.026.32l8.49 51.54c.217 1.297 1.345 2.259 2.66 2.27h40.73c.986.013 1.842-.706 2-1.68l8.49-52.12c.017-.106.026-.213.026-.32 0-1.097-.903-2-2-2-.009 0-.017 0-.026 0zm35.75 37.25h-13l-3.52-18.39h19.67z" fill="#2684ff"/><path d="m59.67 25.12h-18.77l-3.15 18.39h-13l-15.35 18.22c.486.421 1.107.655 1.75.66h40.74c.986.013 1.842-.706 2-1.68z" fill="url(#a)"/></g></g></svg>