<svg height="200" viewBox="0 0 200 200" width="200" xmlns="http://www.w3.org/2000/svg" xmlns:xlink="http://www.w3.org/1999/xlink"><linearGradient id="a" gradientTransform="matrix(3.031653 0 0 2.545162 10.805085 25.211864)" gradientUnits="userSpaceOnUse" x1="29.290945" x2="29.290945" y1="0" y2="58.577366"><stop offset="0" stop-color="#448ff6"/><stop offset="1" stop-color="#04129f"/></linearGradient><g fill-rule="evenodd"><path d="m104.632812 174.300781h-10.0625c-.742187-.003906-1.441406-.359375-1.875-.964843l-8.917968-12.410157c-.1875-.257812-.316406-.550781-.382813-.859375l-.207031-.953125-.28125-.230469c-.519531.941407-1.46875 2.121094-3.019531 2.238282-.921875.074218-4.972657.03125-6.667969.011718-.554688-.007812-1.085938-.214843-1.5-.578124l-14.527344-12.71875c-.445312-.386719-.726562-.933594-.785156-1.519532l-1.171875-11.761718-5.453125-5.019532c-.558594-.367187-1.394531-1.210937-1.394531-2.941406 0-.726562-.199219-7.347656-.332031-11.488281l-3.117188-2.160157c-.628906-.433593-1-1.148437-1-1.910156v-11.304687c0-1.097657.710938-2.496094 2.277344-2.964844.277344-.085937 2.347656-.957031 5.304687-2.242187-.332031-1.0625-1.113281-3.257813-2.113281-5.863282-.195312-.226562-.414062-.433594-.648438-.625-.609374-.292968-4.015624-2.441406-36.503906-24.585937-.347656-.238281-.625-.566407-.800781-.953125-.511719-1.136719-.722656-2.386719-.613281-3.632813.140625-1.25 1.105468-5.796875 1.515625-7.691406.082031-.390625.265625-.753906.527343-1.054687.917969-1.035157 2.570313-1.90625 4.464844-1.242188 1.15625.410156 39.15625 13.109375 44.628906 14.9375.0625-.097656.125-.199219.179688-.300781 1.1875-2.226563 5.671875-6.042969 7.019531-7.160157.386719-.324218.867188-.511718 1.371094-.53125l.902344-.035156c1.777343-1.695312 6.890625-6.070312 13.398437-7.410156l.007813-.007812c.300781-.734376 2.332031-9.328126 4.628906-19.550782.0625-.289062.179687-.558594.347656-.800781.609375-.894531 1.585938-2.027344 2.777344-2.390625.230469-.070312.917969-.277344 5.960937-.367188v-.046874l.964844.027343.066406.9375.035157-.9375.949219-.015625v.035156c5.082031.089844 5.777343.296876 6.011718.367188 1.1875.363281 2.164063 1.496094 2.773438 2.390625.167968.242187.285156.515625.351562.804687 2.296875 10.222657 4.328125 18.8125 4.628906 19.550782 6.511719 1.34375 11.621094 5.71875 13.402344 7.414062l.902344.035156c.503906.019532.984375.207032 1.375.527344 1.347656 1.121094 5.828125 4.9375 7.019531 7.167969.0625.117187.121094.214844.175781.300781 5.59375-1.875 43.492188-14.539062 44.632813-14.941406 1.894531-.664062 3.546875.207031 4.460937 1.246094.261719.296875.445313.65625.527344 1.046875.320313 1.472656 1.367188 6.371093 1.511719 7.695312.195313 1.730469-.417969 3.222657-.609375 3.636719-.175781.382812-.449219.707031-.796875.945312-33.246094 22.660157-36.035156 24.386719-36.546875 24.609376-.042969.035156-.304688.261718-.613281.605468-.75 1.9375-1.457031 3.890625-2.117188 5.859375 2.964844 1.289063 5.039063 2.160157 5.316407 2.246094 1.5625.472656 2.277343 1.867187 2.277343 2.964844v11.304687c0 .761719-.375 1.476563-1 1.910156l-3.121093 2.160157c-.128907 4.140625-.332032 10.761719-.332032 11.488281 0 1.726562-.835937 2.574219-1.390625 2.945312l-5.460937 5.015626-1.171875 11.761718c-.054688.589844-.332031 1.132813-.777344 1.519532l-14.535156 12.71875c-.414063.367187-.945313.570312-1.496094.578124-1.695313.019532-5.742187.058594-6.667969-.011718-1.546875-.117188-2.5-1.296875-3.015625-2.242188l-.285156.234375-.203125.945313c-.066406.3125-.199219.609375-.386719.871094l-8.914062 12.40625c-.4375.601562-1.132813.960937-1.878907.964843" fill="url(#a)"/><path d="m104.632812 174.300781h-10.0625c-.742187-.003906-1.441406-.359375-1.875-.964843l-8.917968-12.410157c-.1875-.257812-.316406-.550781-.382813-.859375l-.207031-.953125-.28125-.230469c-.519531.941407-1.46875 2.121094-3.019531 2.238282-.921875.074218-4.972657.03125-6.667969.011718-.554688-.007812-1.085938-.214843-1.5-.578124l-14.527344-12.71875c-.445312-.386719-.726562-.933594-.785156-1.519532l-1.171875-11.761718-5.453125-5.019532c-.558594-.367187-1.394531-1.210937-1.394531-2.941406 0-.726562-.199219-7.347656-.332031-11.488281l-3.117188-2.160157c-.628906-.433593-1-1.148437-1-1.910156v-11.304687c0-1.097657.710938-2.496094 2.277344-2.964844.277344-.085937 2.347656-.957031 5.304687-2.242187-.332031-1.0625-1.113281-3.257813-2.113281-5.863282-.195312-.226562-.414062-.433594-.648438-.625-.609374-.292968-4.015624-2.441406-36.503906-24.585937-.347656-.238281-.625-.566407-.800781-.953125-.511719-1.136719-.722656-2.386719-.613281-3.632813.140625-1.25 1.105468-5.796875 1.515625-7.691406.082031-.390625.265625-.753906.527343-1.054687.917969-1.035157 2.570313-1.90625 4.464844-1.242188 1.15625.410156 39.15625 13.109375 44.628906 14.9375.0625-.097656.125-.199219.179688-.300781 1.1875-2.226563 5.671875-6.042969 7.019531-7.160157.386719-.324218.867188-.511718 1.371094-.53125l.902344-.035156c1.777343-1.695312 6.890625-6.070312 13.398437-7.410156l.007813-.007812c.300781-.734376 2.332031-9.328126 4.628906-19.550782.0625-.289062.179687-.558594.347656-.800781.609375-.894531 1.585938-2.027344 2.777344-2.390625.230469-.070312.917969-.277344 5.960937-.367188v-.046874l.964844.027343.066406.9375.035157-.9375.949219-.015625v.035156c5.082031.089844 5.777343.296876 6.011718.367188 1.1875.363281 2.164063 1.496094 2.773438 2.390625.167968.242187.285156.515625.351562.804687 2.296875 10.222657 4.328125 18.8125 4.628906 19.550782 6.511719 1.34375 11.621094 5.71875 13.402344 7.414062l.902344.035156c.503906.019532.984375.207032 1.375.527344 1.347656 1.121094 5.828125 4.9375 7.019531 7.167969.0625.117187.121094.214844.175781.300781 5.59375-1.875 43.492188-14.539062 44.632813-14.941406 1.894531-.664062 3.546875.207031 4.460937 1.246094.261719.296875.445313.65625.527344 1.046875.320313 1.472656 1.367188 6.371093 1.511719 7.695312.195313 1.730469-.417969 3.222657-.609375 3.636719-.175781.382812-.449219.707031-.796875.945312-33.246094 22.660157-36.035156 24.386719-36.546875 24.609376-.042969.035156-.304688.261718-.613281.605468-.75 1.9375-1.457031 3.890625-2.117188 5.859375 2.964844 1.289063 5.039063 2.160157 5.316407 2.246094 1.5625.472656 2.277343 1.867187 2.277343 2.964844v11.304687c0 .761719-.375 1.476563-1 1.910156l-3.121093 2.160157c-.128907 4.140625-.332032 10.761719-.332032 11.488281 0 1.726562-.835937 2.574219-1.390625 2.945312l-5.460937 5.015626-1.171875 11.761718c-.054688.589844-.332031 1.132813-.777344 1.519532l-14.535156 12.71875c-.414063.367187-.945313.570312-1.496094.578124-1.695313.019532-5.742187.058594-6.667969-.011718-1.546875-.117188-2.5-1.296875-3.015625-2.242188l-.285156.234375-.203125.945313c-.066406.3125-.199219.609375-.386719.871094l-8.914062 12.40625c-.4375.601562-1.132813.960937-1.878907.964843" fill="#0e121b"/><g fill="#fefefe"><path d="m126.03125 121.480469s-1.109375 20.367187-2 30.636719c0 0-.277344 2.0625-1.335938 2.34375-1.058593.277343-.722656-3.847657-.722656-3.847657l1.5-28.855469s.386719-1.730468 1.503906-1.785156c1.390626-.003906 1.054688 1.507813 1.054688 1.507813m-5.871094-10.859375s1.976563 3.269531-.695312 7.84375c-2.671875 4.574218-8.960938 1.144531-8.960938 1.144531s-3.59375-1.980469.25-4.46875c3.839844-2.480469 7.59375-4.519531 7.59375-4.519531s1.457032-.828125 1.8125 0m6.152344 2.179687c.277344.835938 1.027344 0 1.027344 0l5.066406-5.890625.417969-1.03125s.140625-1.757812.054687-2.203125c-.082031-.445312.167969-.667969.167969-.667969s8.074219-9.851562 8.351563-10.773437c.277343-.917969-.277344-.699219-.277344-.699219-6.960938 3.851563-10.550782 6.445313-10.550782 6.445313s-6.734374 5.167969-7.238281 5.695312c-.5.527344 0 1.199219 0 1.199219m15.527344 10.675781-2.898437 26.59375s.074218.746094-.445313 1.488281c-.519531.746094-8.980469 8.710938-8.980469 8.710938s-.484375.59375-.464844-1.417969c.019532-2.007812 1.28125-11.457031 1.355469-30.582031l.148438-1.335938s.074219-1.121093.816406-1.789062 8.167969-9.078125 8.167969-9.078125.589844-.445313.589844-1.191406v-3.867188s-.144532-.820312 1.039062-1.710937c.925781-.660156 1.890625-1.257813 2.894531-1.785156l8.242188 1.859374s.667969.222657.667969 1.484376v4.390624s-.074219.894532-.96875 1.488282c-.886719.59375-10.164063 6.742187-10.164063 6.742187m28.5-46.253906-48.472656 29.320313s-2.6875 1.84375-1.855469-1.042969c.816406-3.273438 2.972656-10.191407 2.972656-10.191407s.273438-1.035156.863282-1.414062c1.359374-.667969 27.433593-13.414062 28.382812-13.917969.796875-.40625 1.484375-1.933593 1.484375-1.933593l2.054687-4.046876s.34375-.410156.867188-.601562l15.558594-5.769531s1.039062-.59375.667968.597656c-.371093 1.191406-1.484374 7.589844-1.484374 7.589844s-.121094.859375-1.039063 1.414062"/><path d="m150.25 67.679688-1 1.953124s-.5 1.058594-1.558594 1.671876c-1.058594.617187-27.390625 12.835937-27.390625 12.835937s-.410156.28125-.726562-.777344c-.332031-1.285156-2.695313-3.910156-2.695313-3.910156s-.699218-.871094.75-1.339844c1.777344-.609375 32.621094-11.71875 32.621094-11.71875s.75-.179687 0 1.285157m-64.332031-9.988282c-6.335938 2.730469-10.472657 6.789063-11.121094 7.421875-.117187.117188-.203125-.039062-.203125-.039062l-2.109375-2.363281c-.519531-.667969-1.523437.1875-1.523437.1875-2.859376 2.230468-4.527344 4.648437-4.972657 5.429687-.382812.65625.296875.859375.296875.859375s14.363282 5.097656 14.957032 5.207031c1.125.335938 1.21875.296875 1.40625-.367187.105468-.371094 3.417968-14.921875 3.492187-15.707032.164063-.855468-.222656-.628906-.222656-.628906m47.296875 10.636719c-.441406-.777344-2.117188-3.195313-4.972656-5.429687 0 0-1-.855469-1.523438-.1875l-2.109375 2.363281s-.085937.15625-.203125.042969c-.644531-.636719-4.785156-4.695313-11.121094-7.425782 0 0-.386718-.222656-.222656.628906.074219.785157 3.386719 15.332032 3.492188 15.707032.1875.664062.277343.703125 1.40625.367187.59375-.109375 14.957031-5.210937 14.957031-5.210937s.679687-.199219.296875-.855469m-27.777344-1.429687h-11.667969s-.890625-.015626-.890625-.511719c0-.496094 2.671875-26.554688 2.671875-26.554688s.5-.277343.554688.222657c.054687.5-.269531 17.550781-.269531 17.550781s-.035157.5.605468.527343c.554688.027344 2.597656.027344 3.191406.027344h.160157c.566406 0 2.417969 0 2.96875-.027344.640625-.027343.605469-.527343.605469-.527343s-.324219-17.050781-.269532-17.554688c.054688-.5.554688-.222656.554688-.222656s2.675781 26.0625 2.675781 26.558594c0 .496093-.890625.511719-.890625.511719m-1.167969-34.996094c-.113281-.722656-.839843-.722656-.839843-.722656l-3.796876-.167969h-.0625l-3.796874.167969s-.722657 0-.835938.722656c-.109375.730468-7.792969 41.078125-7.792969 41.078125s-.222656 1.058593.777344.722656c4.753906-2.386719 11.429687-2.558594 11.679687-2.5625.25.003906 6.925782.175781 11.679688 2.566406 1 .332031.777344-.726562.777344-.726562s-7.679688-40.351563-7.789063-41.078125m-15.816406 83.242187c-2.480469-1.59375-5.015625-3.101562-7.601563-4.523437 0 0-1.453124-.828125-1.808593 0 0 0-1.976563 3.265625.695312 7.84375s8.964844 1.144531 8.964844 1.144531 3.589844-1.980469-.25-4.464844m-19.820313-17.160156s-3.589843-2.597656-10.550781-6.445313c0 0-.554687-.222656-.277343.695313.277343.921875 8.351562 10.773437 8.351562 10.773437s.25.222657.164062.664063c-.082031.449219.058594 2.207031.058594 2.207031l.414063 1.03125 5.066406 5.890625s.75.835938 1.03125 0l2.976563-7.925781s.5-.667969 0-1.199219c-.5-.527343-7.234376-5.695312-7.234376-5.695312m8.601563 52.632812-1.5-28.855469s-.394531-1.730468-1.507813-1.789062c-1.386718 0-1.054687 1.511719-1.054687 1.511719s1.109375 20.367187 2.003906 30.636719c0 0 .277344 2.0625 1.335938 2.34375 1.054687.277343.722656-3.847657.722656-3.847657m-5.457031-30.269531-.148438-1.335938s-.074218-1.121093-.816406-1.789062-8.164062-9.078125-8.164062-9.078125-.59375-.445313-.59375-1.191406v-3.867188s.148437-.820312-1.039063-1.714843c-.925781-.65625-1.894531-1.253907-2.898437-1.78125l-8.238282 1.859374s-.664062.222657-.664062 1.484376v4.390624s.074218.894532.960937 1.488282l10.171875 6.742187 2.894532 26.59375s-.074219.746094.445312 1.488281c.519531.746094 8.980469 8.710938 8.980469 8.710938s.488281.59375.46875-1.417969c-.023438-2.007812-1.285157-11.457031-1.359375-30.582031m10.390625-22.769531c-.816407-3.277344-2.964844-10.195313-2.964844-10.195313s-.277344-1.035156-.863281-1.414062c-1.367188-.667969-27.4375-13.410156-28.382813-13.917969-.800781-.40625-1.484375-1.933594-1.484375-1.933594l-2.054687-4.046875s-.347657-.40625-.871094-.597656l-15.558594-5.769531s-1.039062-.59375-.667969.59375c.371094 1.191406 1.484376 7.589843 1.484376 7.589843s.121093.863282 1.039062 1.414063l48.472656 29.316406s2.6875 1.84375 1.851563-1.039062"/><path d="m49.957031 69.632812s.5 1.058594 1.554688 1.671876c1.058593.613281 27.390625 12.835937 27.390625 12.835937s.410156.28125.726562-.777344c.332032-1.289062 2.695313-3.910156 2.695313-3.910156s.699219-.871094-.75-1.339844c-1.777344-.613281-32.621094-11.722656-32.621094-11.722656s-.75-.175781 0 1.289063zm49.644531 30.988282c-5.207031-.097656-9.617187-4.355469-9.617187-9.59375 0-5.242188 4.410156-9.5 9.617187-9.597656 5.210938.097656 9.621094 4.355468 9.621094 9.597656 0 5.238281-4.410156 9.5-9.621094 9.59375m17.507813-15.585938c-5.722656-10.316406-16.257813-10.046875-17.507813-9.980468-1.25-.066407-11.785156-.332032-17.503906 9.980468 0 0-.296875.707032-.296875 1.265625 0 .554688 5.714844 21.355469 5.714844 21.355469s.113281.261719.59375.964844c.480469.710937 6.199219 4.875 6.199219 4.875s.40625.558594 1.855468.636718c1.242188.0625 2.972657.015626 3.4375 0 .46875.015626 2.195313.0625 3.441407 0 1.445312-.078124 1.855469-.636718 1.855469-.636718s5.714843-4.164063 6.199218-4.875c.480469-.703125.589844-.964844.589844-.964844s5.71875-20.796875 5.71875-21.355469c0-.558593-.296875-1.265625-.296875-1.265625m1.777344 61.578125v-5.136719c0-.667968-.703125.039063-.703125.039063l-3.375 2.453125c-1.078125.855469-1.859375.222656-1.859375.222656s-3.636719-3.722656-4.15625-4.460937c-.519531-.746094-1.222657-.671875-1.222657-.671875h-15.9375s-.707031-.074219-1.222656.667968c-.519531.746094-4.15625 4.464844-4.15625 4.464844s-.78125.632813-1.855468-.222656l-3.378907-2.453125s-.707031-.710937-.707031-.039063v5.136719s-.035156.964844.777344 1.597657c.820312.632812 6.574218 4.539062 6.574218 4.539062s1.109376.621094 1.890626-.964844l3.5625-6.441406s.222656-.519531 1.597656-.554688c1.230468-.035156 8.515625-.035156 9.777344 0 1.367187.035157 1.59375.554688 1.59375.554688l3.5625 6.441406c.785156 1.585938 1.894531.964844 1.894531.964844s5.75-3.90625 6.566406-4.539062c.816406-.632813.777344-1.597657.777344-1.597657"/><path d="m118.609375 122.992188-4.867187 2.113281c-.007813 0-.015626.003906-.019532.007812-.109375.066407-1.335937.757813-2.960937-.308593 0 0-9.597657-5.796876-10.941407-5.796876h-.558593c-.042969 0-.085938.011719-.121094.035157-1.976563.492187-10.699219 5.765625-10.699219 5.765625-1.628906 1.0625-2.851562.371094-2.960937.304687-.007813-.003906-.011719-.007812-.019531-.011719l-4.867188-2.109374c-.011719-.003907-1.75-1-1.6875.515624 0 .109376.960938 12.460938.960938 12.460938.039062 2.179688.863281 2.796875.960937 2.863281l.011719.007813 2.582031 1.402344c.003906.003906 1.417969.875 2.027344.351562l.042969-.027344c.15625-.144531 1.230468-1.160156 1.984374-2.402344.457032-.777343 1.25-1.300781 2.148438-1.414062h19.957031c.09375.007812 1.359375.128906 2.144531 1.417969.757813 1.238281 1.832032 2.253906 1.988282 2.398437.007812.011719.027344.019532.039062.027344.609375.523438 2.019532-.347656 2.027344-.351562l2.582031-1.402344.015625-.011719c.09375-.0625.921875-.679687.957032-2.859375 0 0 .957031-12.351562.964843-12.460938.0625-1.511718-1.675781-.519531-1.691406-.515624"/></g></g></svg>