<svg height="200" viewBox="0 0 200 200" width="200" xmlns="http://www.w3.org/2000/svg"><g fill="#165e39"><path d="m63.261719 70.164062c2.484375-.007812 5.003906-.003906 7.492187 0 .128906.171876.242188.359376.386719.515626.535156.96875 1.125 1.625 1.730469 2.65625.410156.535156.882812 1.347656 1.292968 1.9375.578126.742187 1.085938 1.734374 1.683594 2.449218.136719.121094.144532.324219.324219.441406.125.320313.25.5625.519531.777344.332032.6875 1.046875 1.53125 1.417969 2.191406 1.503906 2.214844 3.011719 4.488282 4.5 6.730469.6875.980469 1.179687 1.839844 1.851563 2.769531.15625.328126.472656.597657.605468.960938.207032.21875.402344.5.515625.777344.296875.226562.425781.703125.691407.96875.242187.28125.289062.617187.609374.824218.207032.621094.886719 1.207032 1.152344 1.820313.265625.167969.269532.597656.527344.761719.1875.144531.179688.371094.386719.515625.269531.566406.703125 1.105469 1.058593 1.617187.238282.46875.574219.847656.828126 1.292969.136718.195313.152343.375.363281.515625 2.273437 3.390625 4.535156 6.792969 6.816406 10.199219.210937.257812.34375.621093.609375.828125.292969.640625.800781 1.203125 1.152344 1.820312.242187.140625.144531.367188.398437.515625.085938-.171875.058594-.398437.0625-.589843 0-14.320313 0-28.644532 0-42.96875 0-.113282.019531-.222657.054688-.328126 2.289062-.007812 4.617187 0 6.90625-.003906.167969.007813.238281.179688.207031.332032-.003906 18.554687.003906 37.132812-.007812 55.683593-.097657.046875-.207032.070313-.328126.074219-2.359374 0-4.738281-.003906-7.09375 0-.257812.023438-.328124-.152344-.460937-.328125-2.15625-3.246094-4.363281-6.507813-6.5-9.757813-1.113281-1.648437-2.292969-3.355468-3.359375-5.03125-.269531-.28125-.421875-.707031-.71875-.957031-.160156-.472656-.589844-.832031-.765625-1.300781-.238281-.128906-.167969-.375-.394531-.503906-.285156-.46875-.621094-.921875-.921875-1.390625-.109375-.183594-.269531-.265625-.316407-.488281-.21875-.339844-.5-.664063-.667968-1.03125-.035156-.152344-.277344-.222657-.316406-.386719-2.929688-4.488281-5.992188-8.964844-8.925782-13.425781-.289062-.4375-.722656-.984376-.945312-1.414063-.316406-.480469-.570313-.78125-.863282-1.292969-.269531-.164062-.210937-.414062-.464843-.570312-.160157-.472656-.585938-.835938-.761719-1.304688-.371094-.386718-.710938-1.058594-1.066406-1.476562-.035156-.132813-.113282-.238282-.234375-.316406-.042969-.164063-.136719-.273438-.257813-.386719-.117187-.277344-.300781-.566407-.515625-.773438-.183593-.457031-.472656-.660156-.691406-1.101562-.144531-.167969-.277344-.523438-.476563-.597657-.042968.101563-.058593.214844-.050781.335938v43.097656c.007813.125-.003906.242188-.046875.347656-.101562.046876-.214844.066407-.34375.054688-2.191406-.003906-4.386718.003906-6.582031-.003906l-.089844-.039063c-.042969-.109375-.058593-.230469-.046875-.359375 0-18.449218 0-36.902344 0-55.355468 0-.117188.023438-.226563.070313-.328126zm0 0"/><path d="m138.484375 70.164062c2.917969-.003906 5.871094-.003906 8.785156 0 .207031.417969.5625.753907.765625 1.175782.136719.160156.289063.214844.347656.4375.296876.34375.472657.824218.824219 1.097656.214844.480469.636719.933594.929688 1.382812.238281.285157.316406.585938.617187.8125.144532.375.503906.660157.636719 1.042969.101563.085938.246094.1875.296875.316407.296875.484374.679688.929687.964844 1.417968.046875.152344.28125.222656.324218.386719.160157.34375.480469.617187.605469.972656.328125.195313.347657.566407.65625.765625.15625.414063.453125.640625.660157 1.011719.320312.324219.542968.910156.886718 1.179687.351563.648438.917969 1.296876 1.28125 1.949219.285156.164063.296875.429688.527344.632813.179688.359375.546875.703125.738281 1.082031.167969.1875.226563.445313.410157.605469.597656.820312 1.042968 1.535156 1.59375 2.390625.042968.136719.117187.238281.226562.308593.289062.601563.785156 1.1875 1.019531 1.816407.207031.105469.183594.476562.417969.40625.710938-1.179688 1.382812-2.066407 2.097656-3.191407.199219-.253906.449219-.542968.601563-.8125.824219-1.175781 1.613281-2.15625 2.480469-3.316406.082031-.253906.28125-.394531.476562-.570312.121094-.359375.492188-.492188.59375-.835938.355469-.453125.667969-.957031 1.085938-1.355468.070312-.230469.269531-.417969.40625-.613282 1.476562-1.976562 2.992187-3.925781 4.457031-5.882812.265625-.316406.488281-.746094.8125-.988282.160156-.429687.609375-.738281.765625-1.171874.617187-.617188 1.324218-1.75 1.933594-2.453126 2.617187-.003906 5.265624-.007812 7.882812 0 .128906.269532-.164062.417969-.285156.621094-1.089844 1.507813-2.238282 2.941406-3.308594 4.445313-.304688.394531-.519531.617187-.769531 1.070312-.261719.328125-.617188.707031-.796875 1.101563-.425782.335937-.523438.679687-.867188 1.085937-.53125.679688-.851562 1.167969-1.371094 1.8125-.09375.164063-.195312.339844-.355468.445313-.183594.421875-.601563.742187-.761719 1.171875-.464844.328125-.714844 1.035156-1.171875 1.410156-.417969.839844-1.113281 1.347656-1.539062 2.203125-.285157.183594-.355469.476562-.589844.699219-.394532.535156-.765625 1.128906-1.226563 1.613281-.089843.191406-.214843.390625-.386719.515625-.183593.421875-.605468.742187-.765624 1.171875-.386719.289062-.644532.898438-.96875 1.21875-1.070313 1.425781-2.109376 2.863281-3.199219 4.261719-.089844.160156-.203125.335937-.355469.441406-.171875.355469-.460938.660156-.683594.984375-.125.164062-.050781.394531.105469.507812.617187.898438 1.164063 1.609376 1.800781 2.585938.324219.234375.429688.710938.722656.957031.414063.605469.714844 1.054688 1.183594 1.617188 1.160156 1.714843 2.410156 3.386719 3.601563 5.074219 2.835937 3.972656 5.839843 8.144531 8.667969 12.101562.078124.273438.355468.332031.441406.613281.625.886719 1.238281 1.738281 1.875 2.617188.070312.191406.203125.304687.359375.425781.066406.210938.230469.382812.351562.566406.535157.671875 1.257813 1.835938 1.839844 2.53125.042969.117188.019531.183594-.070313.199219-.210937.03125-.429687.007813-.644531.015625-2.726562-.011719-5.539062.019531-8.257812-.015625-.457031-.292969-.671875-1.003906-1.101563-1.347656-.277344-.613281-.902344-1.21875-1.246094-1.875-.195312-.292969-.492187-.574219-.648437-.890625-1-1.425782-2.003906-2.800782-2.984375-4.234375-.191406-.300781-.417969-.613281-.667969-.871094-.265625-.566406-.746093-1.070313-1.089843-1.617187-.316407-.539063-.824219-1.058594-1.09375-1.621094-.371094-.269532-.507813-.769532-.851563-1.085938-.859375-1.351562-2.113281-2.953125-2.957031-4.265625-.683594-.847656-1.410156-2.027343-2.089844-2.957031-.238281-.398438-.535156-.652344-.683594-1.109375-.371094-.355469-.539062-.941406-.914062-1.28125-.046875-.160156-.144532-.273437-.230469-.417969-.203125-.085937-.304687.207032-.371094.34375-.238281.273438-.417969.734375-.613281 1.042969-.3125.453125-.628906.941406-.9375 1.40625-.300781.304687-.300781.722656-.683594.972656-.203125.472657-.605468.878907-.882812 1.316407-.222656.285156-.410156.621093-.667969.875-.09375.1875-.210937.394531-.386719.515624-.464844.863282-1.207031 1.601563-1.667968 2.460938-.320313.195312-.359376.558594-.65625.765625-.152344.355469-.441407.675781-.671876.972656-.351562.617188-.601562.828125-1.023437 1.449219-.546875.796875-1.09375 1.472656-1.566406 2.175781-.171875.371094-.589844.671875-.726563 1.089844-.101562.070313-.183594.160156-.25.269531-1.054687 1.4375-2.066406 2.902344-3.136718 4.304688-.398438.601562-.84375 1.253906-1.292969 1.808594-.289063.511718-.742188.957031-.996094 1.488281-.207031.121093-.191406.324219-.457031.332031-2.824219-.003906-5.703125.007812-8.515625-.007812l-.09375-.042969c-.019531-.082031.003906-.160157.070312-.230469.390625-.523438.757813-1.019531 1.15625-1.554688.046875-.128906.121094-.230468.226563-.300781.3125-.417969.601562-.839843.929687-1.234375 1.128907-1.582031 2.382813-3.195312 3.511719-4.777344.34375-.375.597656-.882812.976562-1.214843.085938-.339844.378907-.421875.46875-.710938.902344-1.207031 1.78125-2.421875 2.691407-3.617187.261719-.46875.71875-.855469.960937-1.359375.257813-.167969.296875-.460938.515625-.648438.523438-.664062 1.136719-1.585937 1.65625-2.21875.667969-.890625 1.304688-1.777343 1.976563-2.660156.199218-.257813.382812-.574219.632812-.785156.1875-.425781.585938-.746094.765625-1.171875.1875-.164063.414063-.328125.472657-.574219.222656-.296875.460937-.59375.65625-.90625.285156-.386719.632812-.75.882812-1.160156.507812-.578125 1.1875-1.726563 1.742188-2.253907.089843-.289062.351562-.519531.503906-.785156.195312-.21875.265625-.464844.527344-.632812.082031-.203125.273437-.382813.066406-.59375-.511719-.71875-1.054688-1.394532-1.550782-2.191406-.3125-.328126-.519531-.769532-.847656-1.085938-.070312-.203125-.230468-.382812-.355468-.558594-.371094-.46875-.558594-.898437-.964844-1.316406-.667969-1.082031-1.710938-2.355469-2.347656-3.359375-.59375-.761719-1.082032-1.566406-1.6875-2.3125-.3125-.492187-.660157-.957031-1.003907-1.425781-.667969-.925782-1.625-2.355469-2.3125-3.226563-.183593-.285156-.335937-.632812-.621093-.832031-.128907-.359375-.449219-.628906-.609376-.972656-.707031-.894532-1.515624-2.144532-2.257812-3.097656-.304688-.550782-.570312-.804688-.90625-1.300782-.058594-.25-.296875-.292968-.382812-.507812-.300782-.527344-.699219-.890625-.992188-1.488282-.285156-.265624-.472656-.667968-.714844-.960937-.292968-.316406-.507812-.773437-.816406-1.128906-.175781-.175781-.292969-.546875-.546875-.609375-.007813-.089844-.007813-.175782 0-.269532zm0 0"/><path d="m6.863281 70.273438c.097657-.050782.207031-.070313.335938-.058594h6.710937c.128906-.007813.238282.015625.328125.078125.042969.1875.015625.394531.023438.585937 0 10.925782 0 21.855469.003906 32.777344.039063 2.027344.183594 4.613281.511719 6.585938.15625.601562.179687 1.324218.492187 1.855468.035157.421875.257813.820313.351563 1.234375.253906.46875.300781.9375.683594 1.347657.066406.265624.242187.433593.375.660156.367187.527344.566406.832031 1.019531 1.300781.316406.386719.71875.648437 1.042969 1.019531.585937.261719 1.105468.820313 1.691406 1.023438.246094.289062.753906.410156 1.097656.558594.441406.234374.980469.460937 1.484375.472656.15625.167968.3125.109375.511719.128906.089844.101562.21875.144531.390625.128906.195312.175782.40625.105469.644531.128906.1875.171876.417969.105469.648438.128907.3125.191406.777343.046875 1.085937.195312 1.414063.085938 2.84375.070313 4.257813.015625.121093 0 .226562-.027344.316406-.082031.660156.03125 1.292968-.109375 1.949218-.117187.195313-.15625.421876-.113282.648438-.128907.191406-.132812.421875-.117187.644531-.128906.160157-.113281.328125-.117187.515625-.128906.171875-.15625.417969-.066407.578125-.179688 1.152344-.496093 2.164063-.695312 3.148438-1.511719.273437-.148437.648437-.359374.84375-.578124 1.238281-1.011719 2.117187-2.324219 2.640625-3.808594.203125-.28125.199218-.613282.398437-.890625.089844-.574219.351563-.980469.375-1.5625.238281-.253907.0625-.503907.269531-.757813 0-.285156.03125-.5625.101563-.835937.242187-1.300781.402344-2.882813.40625-4.210938.046875-.09375.066406-.199219.058594-.316406.117187-3.136719.039062-6.28125.0625-9.417969.003906-8.425781-.011719-17.101562.007812-25.492187.085938-.0625.199219-.085938.328125-.078125 2.3125.007812 4.65625-.011719 6.964844.011718l.085938.042969c.035156.109375.046874.226563.035156.351563v32.128906c0 .820312.003906 1.636719-.042969 2.453125.027344.832031-.121094 1.394531-.132813 2.324219-.089843.519531-.125 1.085937-.132812 1.621094-.253906.460937-.066406.9375-.269531 1.402343-.023438.753907-.21875 1.671875-.40625 2.402344-.25.789063-.421875 1.839844-.773438 2.574219-.121093.441406-.316406.835937-.46875 1.261718-.222656.433594-.347656.871094-.671875 1.246094-.191406.550782-.554687.867188-.84375 1.363282-.140625.152343-.128906.335937-.324218.4375-.917969 1.246093-2.125 2.453124-3.414063 3.296874-.199219.238282-.515625.347657-.699219.59375-.332031.085938-.585937.394532-.914062.503907-.105469.179687-.324219.230469-.515625.257812-.222657.25-.601563.363281-.890625.527344-.753906.367187-1.730469.691406-2.523438.976563-.742187.160156-1.109375.4375-1.878906.433593-.15625.164063-.3125.109375-.515625.128907-.21875.175781-.515625.101562-.773437.128906-.308594.238281-.628907.011718-.960938.210937-.394531.0625-.722656-.011719-1.089844.183594-1.699218.0625-3.398437.164063-5.101562.089844-.804688.003906-1.597656-.097657-2.398438-.089844-.414062-.199219-.949218-.023437-1.34375-.207031-.285156-.058594-.5625-.039063-.847656-.050782-.183594-.164062-.421875-.105468-.644531-.128906-.203125-.152344-.410157-.109375-.644531-.128906-.160157-.136719-.324219-.113281-.519532-.128906-.175781-.171875-.410156-.058594-.578125-.171875-.769531-.230469-1.554687-.511719-2.316406-.726563-.453125-.164062-.953125-.519531-1.417969-.632812-.492187-.195313-.605468-.359375-1.039062-.574219-.308594-.121094-.5-.382813-.839844-.472656-.1875-.222657-.476562-.289063-.632812-.527344-.285157-.101563-.539063-.328125-.773438-.515625-1.09375-.800781-1.960938-1.820312-2.769531-2.898438-.046875-.21875-.183594-.304687-.324219-.464843-.277344-.382813-.527344-.792969-.75-1.214844-.257812-.5625-.648438-1.148437-.800781-1.746094-.242188-.394531-.273438-.894531-.527344-1.277343 0-.152344-.046875-.28125-.128906-.386719-.117188-.875-.542969-1.761719-.628907-2.652344.03125-.195313-.058593-.285156-.144531-.445313-.007812-.441406-.132812-.863281-.121093-1.304687-.136719-.304687-.109376-.703125-.128907-1.03125-.230469-.433594-.105469-.863281-.195312-1.347656-.179688-1.539063-.136719-2.765625-.242188-4.257813-.007812-11.054687 0-22.109375-.003906-33.164062-.007813-.121094.003906-.234375.035156-.347656zm0 0"/><path d="m121.066406 70.292969c.09375-.058594.203125-.085938.328125-.078125h6.710938c.128906-.011719.242187.011718.339843.0625.035157.109375.050782.222656.042969.34375-.003906 18.410156 0 36.820312-.003906 55.226562.007813.121094-.003906.234375-.042969.339844-.097656.050781-.210937.074219-.335937.0625-2.238281 0-4.476563 0-6.710938 0-.125.007812-.234375-.015625-.328125-.074219-.039062-1.683593-.003906-3.410156-.015625-5.101562 0-16.816407 0-33.632813 0-50.453125-.003906-.109375 0-.21875.015625-.328125zm0 0"/><path d="m190.039062 75.601562c.382813.011719.871094-.046874 1.21875.125.273438.027344.605469.0625.835938.21875 1.351562.414063 2.5 1.519532 3.082031 2.804688.171875.269531.160157.578125.351563.832031.199218.816407.085937 1.675781.113281 2.523438-.136719.730469-.386719 1.441406-.792969 2.066406-.597656 1.097656-1.832031 1.984375-3 2.324219-.773437.296875-1.59375.144531-2.453125.179687-.734375.019531-1.234375-.304687-1.878906-.5-.160156-.257812-.597656-.253906-.757813-.527343-.589843-.347657-.785156-.769532-1.210937-1.226563-.253906-.351563-.449219-.761719-.632813-1.152344-.214843-.320312-.121093-.792969-.363281-1.089843-.035156-.671876-.050781-1.28125 0-1.953126.238281-.316406.132813-.742187.347657-1.085937.480468-1.292969 1.433593-2.382813 2.695312-2.957031.507812-.226563.890625-.46875 1.484375-.457032.253906-.171874.664063-.113281.960937-.125zm0 0"/></g><path d="m190.296875 76.515625c.574219.03125 1.113281.101563 1.636719.355469.183594.113281.371094.0625.488281.273437.800781.300781 1.449219 1.128907 1.84375 1.871094.210937.402344.328125.933594.488281 1.339844.070313.890625.109375 1.941406-.398437 2.710937-.292969.804688-.96875 1.65625-1.734375 2.039063-.074219.027343-.136719.085937-.1875.167969-.621094.257812-1.191406.539062-1.878906.542968-.949219.078125-1.820313-.050781-2.636719-.554687-.867188-.347657-1.542969-1.1875-1.976563-1.992188-.175781-.265625-.160156-.582031-.359375-.832031-.003906-.253906-.078125-.480469-.132812-.71875.023437-.402344-.054688-.917969.039062-1.296875.210938-1.070313.75-2.097656 1.59375-2.8125.265625-.058594.316407-.316406.574219-.335937.695312-.59375 1.746094-.78125 2.640625-.757813zm0 0" fill="#fff"/><path d="m187.976562 78.308594c.945313.003906 1.890626-.003906 2.835938.003906.222656.066406.589844.023438.703125.25.6875.246094.816406.953125.769531 1.609375-.132812.554687-.535156 1.171875-1.15625 1.21875-.097656.089844-.226562.132813-.386718.128906-.042969.132813.082031.265625.199218.285157.4375.214843.523438.605468.84375.878906.203125.527344.679688.988281.90625 1.558594-.285156.058593-.890625.0625-1.171875 0-.160156-.203126-.175781-.511719-.386719-.644532-.132812-.347656-.34375-.679687-.550781-.988281-.042969-.132813-.121093-.230469-.234375-.292969-.210937-.257812-.464844-.554687-.824218-.574218-.265626-.011719-.605469-.078126-.851563.019531-.121094.796875.058594 1.714843-.097656 2.492187-.230469.042969-.589844.039063-.824219.003906-.0625-.09375-.089844-.210937-.074219-.34375 0-1.808593-.003906-3.613281 0-5.421874.03125-.140626.132813-.199219.300781-.183594zm0 0" fill="#165e39"/><path d="m188.679688 79.070312c.601562-.027343 1.214843-.007812 1.820312 0 .195312.140626.582031.230469.667969.457032.164062.21875.109375.457031.101562.714844-.171875.101562-.160156.230468-.257812.386718-.492188.296875-1.179688.222656-1.746094.242188-.183594-.023438-.460937.050781-.605469-.078125-.039062-.535157-.0625-1.195313.019532-1.722657zm0 0" fill="#fff"/></svg>