<svg height="200" viewBox="0 0 200 200" width="200" xmlns="http://www.w3.org/2000/svg" xmlns:xlink="http://www.w3.org/1999/xlink"><clipPath id="a"><path d="m11 27h179v146h-179zm0 0"/></clipPath><clipPath id="b"><path d="m14.863281 31.835938c-6.292969 7.417968-2.9375 24.589843 10.128907 45.261718 12.847656 20.296875 33.316406 36.273438 29.414062 58.773438-5 28.765625-42.699219 31.390625-42.699219 31.390625s42.25 13.035156 76.523438-.738281c41.140625-16.535157 46.628906-47.175782 70.671875-67.992188 10.066406-8.699219 21.171875-9.320312 26.964844-9.246094h3.183593c2.304688 0-.015625-2.652344-2.363281-4.035156-1.902344-.984375-3.679688-2.1875-5.300781-3.585938-1.511719-1.46875-3.210938-5.445312-3.902344-6.613281-2.046875-3.472656-5.128906-6.191406-11.4375-7-8.804687-1.140625-16.878906 1.679688-25.238281 4.496094-10.425782 3.515625-21.289063 7.03125-34.542969 2.863281-20.632813-6.492187-58.957031-48.222656-81.097656-48.222656-3.96875-.128906-7.773438 1.589844-10.304688 4.648438"/></clipPath><clipPath id="c"><path d="m11 27h102v85h-102zm0 0"/></clipPath><clipPath id="d"><path d="m14.863281 31.835938c-6.292969 7.417968-2.9375 24.589843 10.140625 45.261718.132813.214844.273438.417969.40625.632813 6.8125 10.546875 26.574219 35.25 73.421875 34.199219 3.082031-3.269532 7.765625-9.449219 13.8125-16.179688-9.808593-15.859375-24.589843-29.6875-36.542969-39.425781-5.90625-4.492188-12-9.203125-17.992187-13.496094-1.34375-.957031-2.691406-1.902344-4.050781-2.839844-10.679688-7.308593-20.847656-12.800781-28.882813-12.800781-3.96875-.128906-7.777343 1.589844-10.3125 4.648438"/></clipPath><linearGradient id="e" gradientUnits="userSpaceOnUse" x1="4.244828" x2="192.757691" y1="70.317492" y2="70.317492"><stop offset="0" stop-color="#91d3f2"/><stop offset=".266" stop-color="#6fb2de"/><stop offset=".521" stop-color="#5598ce"/><stop offset=".673" stop-color="#4b8fc8"/><stop offset="1" stop-color="#4b8fc8"/></linearGradient><clipPath id="f"><path d="m11 110h113v63h-113zm0 0"/></clipPath><clipPath id="g"><path d="m98.832031 111.929688c-5.734375 6.09375-18.828125 22.371093-40.523437 37.035156-28.878906 19.53125-46.585938 18.292968-46.585938 18.292968s42.265625 13.039063 76.519532-.734374c10.628906-4.144532 20.390624-10.234376 28.78125-17.960938 1.210937-1.152344 6.039062-7.175781 6.296874-17.707031.132813-7.042969-1.0625-14.054688-3.53125-20.65625-6.941406 1.019531-13.941406 1.597656-20.957031 1.730469"/></clipPath><linearGradient id="h" gradientUnits="userSpaceOnUse" x1="11.449875" x2="190.979584" y1="145.226713" y2="145.226713"><stop offset="0" stop-color="#2c9ec7"/><stop offset=".404" stop-color="#2c63a5"/><stop offset="1" stop-color="#395da1"/></linearGradient><clipPath id="i"><path d="m98 95h22v17h-22zm0 0"/></clipPath><clipPath id="j"><path d="m98.847656 111.929688c7.015625-.128907 14.015625-.707032 20.957032-1.730469-.726563-2.011719-1.554688-3.988281-2.476563-5.917969-1.402344-2.925781-2.960937-5.773438-4.667969-8.53125-6.050781 6.714844-10.746094 12.910156-13.8125 16.179688"/></clipPath><linearGradient id="k" gradientUnits="userSpaceOnUse" x1="11.429383" x2="190.959076" y1="104.316465" y2="104.316465"><stop offset="0" stop-color="#4faac4"/><stop offset=".002" stop-color="#2f75b1"/><stop offset="1" stop-color="#356eac"/></linearGradient><clipPath id="l"><path d="m76 56h72v40h-72zm0 0"/></clipPath><clipPath id="m"><path d="m112.660156 95.75c8.960938-9.921875 20.917969-21.015625 35.121094-25.480469-12.648438 3.832031-25.28125 10.242188-41.515625 5.140625-8.039063-2.519531-18.769531-10.398437-30.164063-19.085937 11.953126 9.738281 26.734376 23.554687 36.558594 39.425781"/></clipPath><linearGradient id="n" gradientUnits="userSpaceOnUse" x1="76.319626" x2="192.5253" y1="76.263239" y2="76.263239"><stop offset="0" stop-color="#4faac4"/><stop offset=".002" stop-color="#2f81b6"/><stop offset="1" stop-color="#3b5ea9"/></linearGradient><clipPath id="o"><path d="m117 92h52v57h-52zm0 0"/></clipPath><clipPath id="p"><path d="m168.421875 92.523438c-11.046875 4.640624-23.03125 13.816406-48.617187 17.675781 2.46875 6.601562 3.664062 13.613281 3.53125 20.65625-.273438 10.515625-5.101563 16.539062-6.3125 17.707031 17.300781-16.003906 25.039062-35.4375 41.890624-50.03125 2.851563-2.472656 6.0625-4.5 9.523438-6.007812zm0 0"/></clipPath><linearGradient id="q" gradientUnits="userSpaceOnUse" x1="76.288651" x2="192.494324" y1="120.535444" y2="120.535444"><stop offset="0" stop-color="#4faac4"/><stop offset=".002" stop-color="#1e3773"/><stop offset="1" stop-color="#203370"/></linearGradient><clipPath id="r"><path d="m112 67h78v44h-78zm0 0"/></clipPath><clipPath id="s"><path d="m147.792969 70.285156c-14.203125 4.464844-26.171875 15.554688-35.132813 25.480469 1.710938 2.75 3.269532 5.59375 4.667969 8.515625.914063 1.933594 1.742187 3.910156 2.476563 5.917969 25.597656-3.859375 37.570312-13.035157 48.617187-17.675781h.015625c5.515625-2.316407 11.464844-3.421876 17.441406-3.238282h3.171875c2.304688 0-.015625-2.652344-2.347656-4.019531-1.894531-.996094-3.671875-2.199219-5.300781-3.585937-1.527344-1.472657-3.226563-5.460938-3.90625-6.613282-2.058594-3.488281-5.128906-6.195312-11.4375-7-1.347656-.175781-2.703125-.261718-4.0625-.261718-4.832032.121093-9.617188.957031-14.203125 2.480468"/></clipPath><linearGradient id="t" gradientTransform="matrix(0 -442.515503 442.515503 0 -77036.038177 -7116.224329)" gradientUnits="userSpaceOnUse" x1="-16.375999" x2="-16.232" y1="174.429993" y2="174.429993"><stop offset="0" stop-color="#4faac4"/><stop offset=".002" stop-color="#2c5a9a"/><stop offset="1" stop-color="#374580"/></linearGradient><clipPath id="u"><path d="m11 77h88v91h-88zm0 0"/></clipPath><clipPath id="v"><path d="m54.421875 135.871094c-5 28.765625-42.699219 31.390625-42.699219 31.390625s17.707032 1.234375 46.585938-18.296875c21.695312-14.664063 34.789062-30.941406 40.523437-37.035156-46.847656 1.050781-66.609375-23.652344-73.421875-34.199219 12.863282 20.011719 32.871094 35.882812 29.011719 58.140625"/></clipPath><linearGradient id="w" gradientUnits="userSpaceOnUse" x1="-7.462234" x2="124.777802" y1="123.463285" y2="123.463285"><stop offset="0" stop-color="#38b1da"/><stop offset=".112" stop-color="#38b1da"/><stop offset="1" stop-color="#326fb5"/></linearGradient><g clip-path="url(#a)"><g clip-path="url(#b)"><path d="m8.570312 27.1875h182.785157v153.109375h-182.785157zm0 0" fill="#2a59a2"/></g></g><g clip-path="url(#c)"><g clip-path="url(#d)"><path d="m8.570312 27.1875h104.074219v85.792969h-104.074219zm0 0" fill="url(#e)"/></g></g><g clip-path="url(#f)"><g clip-path="url(#g)"><path d="m11.722656 110.199219h111.785156v70.097656h-111.785156zm0 0" fill="url(#h)"/></g></g><g clip-path="url(#i)"><g clip-path="url(#j)"><path d="m98.847656 95.75h20.957032v16.179688h-20.957032zm0 0" fill="url(#k)"/></g></g><g clip-path="url(#l)"><g clip-path="url(#m)"><path d="m76.101562 56.324219h71.679688v39.425781h-71.679688zm0 0" fill="url(#n)"/></g></g><g clip-path="url(#o)"><g clip-path="url(#p)"><path d="m117.023438 92.523438h51.414062v56.039062h-51.414062zm0 0" fill="url(#q)"/></g></g><g clip-path="url(#r)"><g clip-path="url(#s)"><path d="m112.660156 67.808594h78.695313v42.390625h-78.695313zm0 0" fill="url(#t)"/></g></g><g clip-path="url(#u)"><g clip-path="url(#v)"><path d="m11.722656 77.730469h87.109375v90.765625h-87.109375zm0 0" fill="url(#w)"/></g></g></svg>