<svg width="128" height="128" viewBox="0 0 128 128" fill="none" xmlns="http://www.w3.org/2000/svg">
<path d="M47.2494 101.429L47.1862 112.018C47.1728 114.261 44.7147 115.629 42.7711 114.44L37.8653 111.248L36.6912 110.576C36.6074 110.528 29.8215 106.55 15.0766 97.9045L13.9055 97.2234C12.7508 96.5475 11.806 95.5847 11.156 94.4256C10.5132 93.2753 10.1829 91.9724 10.2033 90.6799L10.355 64.3088L10.5126 37.8955C10.521 36.4933 10.9251 35.1266 11.6691 33.9541C12.4053 32.7778 13.4668 31.8139 14.5673 31.2899L36.0344 19.0512L37.2067 18.3743C37.5966 18.1539 37.5966 18.1539 38.3894 17.7084L58.9508 5.9982L60.1505 5.29701C61.4021 4.58579 62.815 4.25236 64.2449 4.32755C65.6332 4.40326 66.9996 4.86671 67.9553 5.55573L89.2039 18.0072L90.3813 18.681C90.4665 18.731 97.5533 22.886 111.981 31.3449L113.159 32.0282C114.313 32.7056 115.256 33.6671 115.906 34.8261C116.547 35.9733 116.877 37.2761 116.858 38.5724L116.72 62.5858C116.707 64.8051 114.296 66.1775 112.381 65.0552L103.213 59.6815C102.325 59.1612 101.782 58.207 101.788 57.1781L101.875 42.7496L83.2082 31.8044C83.0468 31.7232 82.6832 31.5128 81.6737 30.9197L63.7932 20.4257L45.0612 31.0981C44.8815 31.2148 44.8815 31.2148 44.774 31.2822C44.7307 31.3086 44.2887 31.5623 43.4481 32.0435L25.451 42.2947L25.1873 86.5014L43.8626 97.4506C43.9821 97.5113 44.2389 97.6604 45.4297 98.3574L45.8138 98.7025L46.1311 99.1321C46.8371 99.6782 47.2548 100.526 47.2494 101.429ZM101.685 74.536C101.698 72.3189 104.105 70.9466 106.02 72.0647L115.188 77.4193C116.078 77.939 116.622 78.8944 116.616 79.9249L116.564 88.699C116.559 89.4508 116.261 90.1711 115.732 90.7076L111.368 95.1038C109.73 97.1733 107.337 97.9864 105.213 96.7462L71.1468 76.7221L70.9151 114.119C71.0269 115.523 70.4393 116.893 69.3326 117.774C68.2492 118.639 68.2492 118.639 62.9978 122.83C62.2103 123.551 61.1822 123.95 60.1092 123.943C57.7702 123.929 55.8856 122.021 55.8996 119.681L56.2136 67.9673L50.4727 64.6028L47.5504 66.2602C47.4109 66.3567 47.4603 66.3284 44.5105 68.008C42.4314 69.2078 39.8264 68.5509 38.6469 66.488C38.3665 65.9969 38.3665 65.9969 37.0406 63.6738L35.4486 60.8897C34.2559 58.8033 34.9148 56.2029 36.9789 55.0256C37.4836 54.7396 37.4836 54.7396 39.8174 53.4181L46.8561 49.4217L48.125 48.7152C49.4783 47.7642 51.2649 47.6875 52.7071 48.5316L54.2991 49.4719L101.669 77.228L101.685 74.536Z" fill="#0EBAC5"/>
</svg>
