<?xml version="1.0" encoding="utf-8"?>
<!-- Generator: Adobe Illustrator 27.3.1, SVG Export Plug-In . SVG Version: 6.00 Build 0)  -->
<svg version="1.1" id="Layer_1" xmlns="http://www.w3.org/2000/svg" xmlns:xlink="http://www.w3.org/1999/xlink" x="0px" y="0px"
	 viewBox="0 0 154 48" style="enable-background:new 0 0 154 48;" xml:space="preserve">
<style type="text/css">
	.st0{fill:#242628;}
</style>
<g>
	<g>
		<path class="st0" d="M95.7,0c-3.32,0-6.01,2.69-6.01,6v18c0,6.62-5.4,12-12.03,12c-6.64,0-12.03-5.38-12.03-12V6
			c0-3.31-2.69-6-6.01-6c-3.32,0-6.01,2.69-6.01,6v18c0,13.23,10.79,24,24.06,24c13.27,0,24.06-10.77,24.06-24V6
			C101.72,2.69,99.02,0,95.7,0L95.7,0z M95.7,8.98c-1.65,0-2.98-1.33-2.98-2.98s1.34-2.98,2.98-2.98c1.65,0,2.98,1.33,2.98,2.98
			S97.35,8.98,95.7,8.98z"/>
		<path class="st0" d="M121.43,24l-13.8,13.76c-2.35,2.34-2.35,6.14,0,8.48c2.35,2.34,6.16,2.34,8.51,0l13.79-13.76l13.8,13.76
			c2.35,2.34,6.16,2.34,8.51,0c2.35-2.34,2.35-6.14,0-8.48L138.44,24l13.8-13.76c2.35-2.34,2.35-6.14,0-8.48
			c-2.35-2.34-6.16-2.34-8.51,0l-13.8,13.76L116.14,1.76c-2.35-2.34-6.16-2.34-8.51,0c-2.35,2.34-2.35,6.14,0,8.48L121.43,24z
			 M147.99,44.98c-1.65,0-2.98-1.33-2.98-2.98c0-1.64,1.34-2.98,2.98-2.98c1.65,0,2.98,1.33,2.98,2.98
			C150.97,43.64,149.63,44.98,147.99,44.98z"/>
		<path class="st0" d="M44.41,0.46c-2.25-0.93-4.83-0.42-6.55,1.3l-13.8,13.76L10.27,1.76c-1.72-1.72-4.31-2.23-6.55-1.3S0,3.57,0,6
			v36c0,3.31,2.69,6,6.01,6c3.32,0,6.01-2.69,6.01-6V20.48l7.78,7.76c2.35,2.34,6.16,2.34,8.51,0l7.78-7.76V42c0,3.31,2.69,6,6.01,6
			c3.32,0,6.01-2.69,6.01-6V6C48.13,3.57,46.66,1.39,44.41,0.46L44.41,0.46z M42.11,44.98c-1.65,0-2.98-1.33-2.98-2.98
			c0-1.64,1.34-2.98,2.98-2.98S45.1,40.36,45.1,42C45.1,43.65,43.76,44.98,42.11,44.98z"/>
	</g>
</g>
</svg>
