<svg height="200" viewBox="0 0 200 200" width="200" xmlns="http://www.w3.org/2000/svg"><g transform="matrix(.94799679 0 0 .94799679 5.200321 36.957624)"><path d="m.25 0h199.5v132.98047c-66.45313.043-133.035156.004-199.5.0156zm0 0" fill="#0087b0"/><path d="m25.808594 22.152344c11.273437-.04297 22.546875-.01563 33.816406-.01563-.0039 11.253906-.0039 22.5 0 33.746093-11.277344-.0039-22.550781.04297-33.824219-.01953.01172-11.238281-.01172-22.472656.0078-33.710937zm0 0" fill="#fff"/><path d="m64.398438 22.175781c11.207031-.09766 22.496093-.01953 33.714843-.03906-.0078 11.246093-.01953 22.492187.0039 33.742187-11.25.01953-22.503907.01563-33.753907 0 .05078-11.199218-.03125-22.515625.03516-33.703125zm0 0" fill="#fff"/><path d="m102.9375 22.175781c11.18359-.09766 22.46875-.01953 33.66016-.03906-.004 11.246093-.0156 22.492187.004 33.742187-11.23047.01563-22.47265.01563-33.70703 0 .0508-11.207031-.0391-22.515625.043-33.703125zm0 0" fill="#fff"/><path d="m175.14062 22.136719c-.0156 11.246093-.0234 22.492187.008 33.742187-11.25391.0078-22.51172.03125-33.76563-.01172.0312-11.242188.0117-22.484376.0117-33.730469 11.25-.0039 22.5-.01172 33.74609 0zm0 0" fill="#fff"/><path d="m27.898438 24.238281c9.878906-.03125 19.757812-.0078 29.636718-.01563-.01563 9.859375 0 19.71875-.0039 29.574219-9.878906-.02734-19.753906.01953-29.628906-.02344-.0039-9.847657 0-19.691407-.0039-29.535157zm0 0" fill="#d41100"/><path d="m66.453125 24.222656c9.859375-.0039 19.714844.0078 29.574219-.0039-.02344 9.863281.0039 19.722656-.01172 29.585938-9.851563-.03516-19.703125-.0039-29.550781-.01563.0039-9.851562.01953-19.707031-.01172-29.566406zm0 0" fill="#4a7d2e"/><path d="m105.02344 24.265625c9.80469-.101563 19.68359-.01563 29.5-.04297-.0234 9.859375-.0117 19.714844-.008 29.574219-9.83984-.01172-19.67968-.0078-29.52343-.0078.0312-9.816406-.0352-19.71875.0312-29.523437zm0 0" fill="#069"/><path d="m173.03516 24.222656c-.0273 9.859375-.0156 19.714844-.004 29.566406-9.84766.01172-19.69531-.01562-29.53516.01172-.0234-9.859375.008-19.71875-.0156-29.578125 9.85156-.0039 19.70312-.0039 29.55469 0zm0 0" fill="#f39919"/><g fill="#fff"><path d="m55.40625 70.507812c.03125 1.582032.03906 3.15625.03906 4.734376-4.449216-2.320313-9.933591-2.992188-14.63281-1.042969-3.839844 1.648437-6.726562 5.265625-7.703125 9.3125-.878906 3.652343-.847656 7.683593.378906 11.253906 1.40625 4.003906 4.730469 7.199215 8.914063 8.125005 4.421875.91796 9.109375.15234 13.035156-2.08204 0 1.42188-.0039 2.84766 0 4.27344-3.242188 1.58985-6.789062 2.17188-10.386719 2.08985-3.503906.0312-6.941406-.8125-9.84375-2.82422-3.246093-2.23828-5.523437-5.656254-6.53125-9.449222-1.152343-4.464844-1.011719-9.300782.445313-13.675782 1.957031-5.695312 6.859375-10.25 12.753906-11.582031 4.445312-.996094 9.238281-.636719 13.53125.867187zm0 0"/><path d="m74.929688 69.175781c3.269531-.214843 6.667968-.05859 9.734374 1.195313-.0039 1.644531-.0039 3.292968.0039 4.9375-1.582031-.867188-3.144531-1.648438-4.949219-1.933594-2.808594-.5-6.367188-.550781-8.886719.988281-1.976562 1.175781-2.890625 3.492188-2.234375 5.710938.523438 1.917969 2.199219 3.140625 3.824219 4.09375 3.183594 1.820312 6.929687 3.269531 9.851563 5.636719 1.765624 1.441406 3.34375 3.449218 3.730468 5.746093.507813 2.761719-.117187 5.859379-2.066406 7.957029-1.941406 2.14063-4.96875 3.14453-7.765625 3.4961-4.140625.46484-8.566406-.0312-12.363281-1.8086.0078-1.73437 0-3.46484-.04297-5.199216 3.214844 2.269536 7.234375 3.468746 11.167969 3.234376 1.847656-.13672 3.859375-.57031 5.230468-1.91797 1.335938-1.339844 1.679688-3.4375 1.21875-5.222656-.601562-1.972656-2.1875-3.160156-3.867187-4.195313-3.054687-1.804687-6.683594-3.246093-9.574219-5.351562-1.8125-1.3125-3.308594-3.078125-3.851562-5.292969-.527344-2.585938-.265625-5.308594 1.355468-7.46875 2.164063-2.988281 5.9375-4.28125 9.484376-4.605469zm0 0"/><path d="m160.03125 69.722656c.5-.585937 1.05078-.632812 1.66016-.148437.74609.328125.44531 1.789062-.44532 1.84375-1.01172.328125-1.75781-.808594-1.21484-1.695313zm0 0"/><path d="m96.078125 69.734375c1.453125-.0039 2.902344 0 4.355465.0078-.0273 10.960937-.008 21.925781-.0117 32.886725 4.9375.0156 9.88281-.008 14.82421.008-.008 1.31641-.008 2.62891-.008 3.94141-6.38281.0156-12.77344 0-19.160155.0117 0-12.285155 0-24.574218 0-36.855468zm0 0"/><path d="m134.80078 69.804688c1.49219-.15625 3.02734-.05859 4.53516-.05469 4.70703 12.285156 9.4414 24.554688 14.17187 36.828132-1.62109.0117-3.24219.0117-4.86719 0-1.30468-3.42188-2.57812-6.855476-3.89062-10.269538-5.1875-.01563-10.375-.01172-15.5625-.0078-1.22656 3.421875-2.42578 6.855468-3.65625 10.269528-1.63281.0195-3.26172.0195-4.89453.008 4.73828-12.203129 9.3789-24.613285 14.16406-36.773441zm0 0"/><path d="m160.04687 74.316406c4.6211-.0078 9.23438 0 13.85157 0 0 .691406.008 1.386719.0117 2.082032-3.82032 2.4375-7.63282 4.894531-11.48047 7.300781 3.84375.05469 7.6875-.08594 11.52734.07031-.0352.566407-.0664 1.136719-.10547 1.703125-4.59375-.01563-9.1914-.0078-13.78906-.0078 0-.699219 0-1.398438 0-2.089844 3.83984-2.46875 7.67578-4.9375 11.50781-7.425781-3.84375-.02344-7.68359.01172-11.52344-.0078 0-.542968 0-1.082031 0-1.625zm0 0"/></g><path d="m136.87891 74.304688c1.8164 6.078124 4.28125 11.988281 6.42968 17.957031-4.21484.05469-8.42968.01172-12.64062.02734 1.80078-4.863281 3.54687-9.742187 5.34765-14.601562.40235-1.097656.66407-2.234375.86329-3.382812zm0 0" fill="#0087b0"/><path d="m160.05078 88.957031c4.61719-.0039 9.23438 0 13.85547 0-.008 2.332031-.008 4.664063 0 6.996094-.51172 0-1.01953 0-1.53125.0078 0-1.792969 0-3.582032.004-5.375-1.50782 0-3.02344 0-4.53516.0039.0117 1.675781.008 3.347656 0 5.023437-.48438 0-.97266.0039-1.46484.0039 0-1.675782-.004-3.351563 0-5.03125-1.60157 0-3.20704 0-4.80469-.0078 0 1.914063-.008 3.824219 0 5.730469h-1.52344c0-2.453125 0-4.902344 0-7.351563zm0 0" fill="#fff"/><path d="m172.375 97.492188 1.51953-.01953v.421875c.004 3.066407.004 6.140627.004 9.210937-.51172-.004-1.02344-.0117-1.53125-.0156.008-1.3125.008-2.63281.0156-3.94531-4.10937-.0117-8.21875 0-12.33203 0 0-.55078 0-1.09375-.004-1.64453 4.10547.008 8.21485.0117 12.31641 0 .004-1.33203.0117-2.671873.0117-4.00781zm0 0" fill="#fff"/></g></svg>