<svg height="200" viewBox="0 0 200 200" width="200" xmlns="http://www.w3.org/2000/svg" xmlns:xlink="http://www.w3.org/1999/xlink"><linearGradient id="a" gradientTransform="matrix(0 2.666667 -2.666667 0 874.666667 -744)" gradientUnits="userSpaceOnUse" x1="369.529999" x2="263.470001" y1="343.529999" y2="237.470001"><stop offset="0" stop-color="#2e27ad"/><stop offset="1" stop-color="#527fff"/></linearGradient><path d="m0 0h200v200h-200z" fill="url(#a)"/><g fill="#fff"><path d="m100 33.332031c-25.003906.011719-47.894531 14.011719-59.300781 36.261719-11.402344 22.25-9.398438 49.011719 5.195312 69.3125l4.320313-3.121094c-15.5-21.542968-15.386719-50.613281.285156-72.03125 15.667969-21.421875 43.339844-30.332031 68.5625-22.082031 25.226562 8.25 42.285156 31.789063 42.269531 58.328125.027344 12.847656-4.011719 25.375-11.546875 35.785156l4.320313 3.121094c14.59375-20.300781 16.597656-47.0625 5.195312-69.3125-11.40625-22.25-34.296875-36.25-59.300781-36.261719zm0 0"/><path d="m134.667969 138.988281v-9.65625c0-1.472656-1.195313-2.664062-2.667969-2.664062h-29.332031v-16h29.332031c1.472656 0 2.667969-1.195313 2.667969-2.667969v-40c0-1.472656-1.195313-2.667969-2.667969-2.667969h-64c-1.472656 0-2.667969 1.195313-2.667969 2.667969v40c0 1.472656 1.195313 2.667969 2.667969 2.667969h29.332031v16h-29.332031c-1.472656 0-2.667969 1.191406-2.667969 2.664062v9.65625c-5.953125 1.355469-9.941406 6.96875-9.257812 13.039063.683593 6.070312 5.816406 10.660156 11.925781 10.660156s11.242188-4.589844 11.925781-10.660156c.683594-6.070313-3.304687-11.683594-9.257812-13.039063v-6.988281h26.664062v10.988281c-5.953125 1.355469-9.941406 6.96875-9.257812 13.039063.683593 6.070312 5.816406 10.660156 11.925781 10.660156s11.242188-4.589844 11.925781-10.660156c.683594-6.070313-3.304687-11.683594-9.257812-13.039063v-10.988281h26.664062v6.988281c-5.953125 1.355469-9.941406 6.96875-9.257812 13.039063.683593 6.070312 5.816406 10.660156 11.925781 10.660156s11.242188-4.589844 11.925781-10.660156c.683594-6.070313-3.304687-11.683594-9.257812-13.039063zm-23.28125-50.855469 17.945312-14.53125v28.851563zm-11.386719 2.347657-24.480469-19.8125h48.960938zm-11.492188-2.480469-17.839843 14.398438v-28.796876zm4.238282 3.441406 5.574218 4.558594c.980469.792969 2.378907.792969 3.359376 0l5.332031-4.425781 17.226562 13.757812h-48.691406zm-18.078125 59.226563c0 3.679687-2.984375 6.664062-6.667969 6.664062s-6.667969-2.984375-6.667969-6.664062c0-3.683594 2.984375-6.667969 6.667969-6.667969s6.667969 2.984375 6.667969 6.667969zm32 4c0 3.679687-2.984375 6.664062-6.667969 6.664062s-6.667969-2.984375-6.667969-6.664062c0-3.683594 2.984375-6.667969 6.667969-6.667969s6.667969 2.984375 6.667969 6.667969zm25.332031 2.664062c-3.683594 0-6.667969-2.984375-6.667969-6.664062 0-3.683594 2.984375-6.667969 6.667969-6.667969s6.667969 2.984375 6.667969 6.667969c0 3.679687-2.984375 6.664062-6.667969 6.664062zm0 0"/></g></svg>