<svg xmlns="http://www.w3.org/2000/svg" width="313.698" height="61.221" viewBox="0 0 313.698 61.221"><path data-name="Path 952" d="M126.68 41.6a11.77 11.77 0 1 1 11.76-11.71 11.77 11.77 0 0 1-11.76 11.71m0-31.63a19.78 19.78 0 1 0 14.088 5.814A19.86 19.86 0 0 0 126.68 9.97m58.24.56h-5.28a1.34 1.34 0 0 0-1.32 1.26v17.48a1.33 1.33 0 0 1-2.23 1l-1.88-1.77-18.7-17.53a1.34 1.34 0 0 0-2.27.94v35.93a1.32 1.32 0 0 0 1.33 1.33h5.32a1.34 1.34 0 0 0 1.32-1.26V30a1.32 1.32 0 0 1 2.27-.93l11.41 11.13 8.64 8.51a1.66 1.66 0 0 0 2.75-1.24V11.85a1.32 1.32 0 0 0-1.33-1.33m42.2 0h-5.87a1.35 1.35 0 0 0-1.19.77l-3.66 8.11-4.84 10.7a1.33 1.33 0 0 1-2.43 0l-4.85-10.74c-1.91-4.21-3.65-8.07-3.67-8.11a1.34 1.34 0 0 0-1.19-.77h-5.87a1.33 1.33 0 0 0-1.21 1.87l3.25 7 13.49 29.1a1.33 1.33 0 0 0 2.41 0l13.58-29.1 3.24-7a1.33 1.33 0 0 0-1.21-1.87m56 0h-5.87a1.34 1.34 0 0 0-1.19.77s-1.76 3.9-3.67 8.11l-4.84 10.7a1.32 1.32 0 0 1-2.42 0l-4.86-10.74-3.66-8.11a1.35 1.35 0 0 0-1.19-.77h-5.87a1.33 1.33 0 0 0-1.21 1.87l3.24 7 13.49 29.1a1.33 1.33 0 0 0 2.41 0l13.58-29.1 3.24-7a1.33 1.33 0 0 0-1.21-1.87m-42.13 38.6a1.31 1.31 0 0 0 1.31-1.31v-36a1.31 1.31 0 0 0-1.31-1.32h-5.36a1.32 1.32 0 0 0-1.31 1.32v36a1.31 1.31 0 0 0 1.31 1.31h5.36m57.6-12.62h-5.91a1.32 1.32 0 0 1-1.2-1.87l2.95-6.45a1.33 1.33 0 0 1 2.41 0l3 6.43a1.32 1.32 0 0 1-1.21 1.88m15 10.7l-1.14-2.51-15.58-33.46a1.33 1.33 0 0 0-2.4 0l-15.6 33.46-1.21 2.59a1.32 1.32 0 0 0 1.19 1.92h5c1 0 1.24-.27 1.6-1.07l1.55-3.44.26-.58a1.3 1.3 0 0 1 1.2-.78h14.27a1.33 1.33 0 0 1 1.2.76l.27.6 1.55 3.44c.36.8.61 1.07 1.6 1.07h5a1.33 1.33 0 0 0 1.19-1.92M79.94 29.6a12.19 12.19 0 0 1 3.2-8.32 10.93 10.93 0 0 1 8.08-3.51 11.75 11.75 0 0 1 7.29 2.54 1.34 1.34 0 0 0 1.77-.14l3.3-3.43a1.3 1.3 0 0 0-.13-1.91 18 18 0 0 0-12.5-4.53 19.47 19.47 0 0 0-19.51 19.3v.33a19.47 19.47 0 0 0 19.51 19.3 18 18 0 0 0 12.5-4.52 1.32 1.32 0 0 0 .13-1.92l-3.3-3.43a1.33 1.33 0 0 0-1.77-.13 11.75 11.75 0 0 1-7.29 2.54 10.9 10.9 0 0 1-8.08-3.52 12.16 12.16 0 0 1-3.2-8.32z" fill="#6f7273"/><path data-name="Path 953" d="M36.24 22.66a1.68 1.68 0 0 1 .61-2.3l8.52-4.92a.89.89 0 0 0 0-1.55L28.48 4.14a1.77 1.77 0 0 0-1.78 0L9.8 13.89a.9.9 0 0 0 0 1.55l8.52 4.92a1.68 1.68 0 0 1 .62 2.3 1.69 1.69 0 0 1-2.31.62L4.38 16.21a1.78 1.78 0 0 1 0-3.09L26.7.24a1.77 1.77 0 0 1 1.78 0l22.31 12.88a1.78 1.78 0 0 1 0 3.09l-12.25 7.07a1.68 1.68 0 0 1-2.3-.62z" fill="#6f7273"/><path data-name="Path 954" d="M45.69 40.06l-15.47-8.93a1.77 1.77 0 0 1-.89-1.55V11.71A1.78 1.78 0 0 1 32 10.17l5.65 3.26a1.69 1.69 0 0 1 .62 2.31 1.69 1.69 0 0 1-2.3.62l-1.93-1.11a.89.89 0 0 0-1.34.77V27.6a1.79 1.79 0 0 0 .89 1.55l11.4 6.58v-3.77a1.69 1.69 0 0 1 1.69-1.69 1.69 1.69 0 0 1 1.69 1.69v6.53a1.78 1.78 0 0 1-2.68 1.57z" fill="#85c300"/><path data-name="Path 955" d="M29.33 59.42V45.27a1.69 1.69 0 0 1 1.69-1.67 1.69 1.69 0 0 1 1.68 1.69v9.84a.89.89 0 0 0 1.34.77l16.9-9.75a1.79 1.79 0 0 0 .89-1.55V25.07a.89.89 0 0 0-1.34-.77l-8.52 4.92a1.67 1.67 0 0 1-2.3-.62 1.69 1.69 0 0 1 .61-2.31l12.25-7.07a1.78 1.78 0 0 1 2.67 1.54v25.77a1.77 1.77 0 0 1-.89 1.55L32 60.96a1.78 1.78 0 0 1-2.67-1.54z" fill="#6f7273"/><path data-name="Path 956" d="M6.81 38.52v-6.53A1.69 1.69 0 0 1 8.5 30.3a1.69 1.69 0 0 1 1.68 1.69v3.77l11.4-6.58a1.79 1.79 0 0 0 .89-1.55V16.02a.88.88 0 0 0-1.33-.77l-1.93 1.11a1.7 1.7 0 0 1-2.31-.62 1.7 1.7 0 0 1 .62-2.31l5.66-3.26a1.78 1.78 0 0 1 2.71 1.54V29.6a1.79 1.79 0 0 1-.89 1.55L9.52 40.08a1.78 1.78 0 0 1-2.71-1.56z" fill="#85c300"/><path data-name="Path 957" d="M23.17 60.96L.89 48.08A1.79 1.79 0 0 1 0 46.53V20.76a1.78 1.78 0 0 1 2.67-1.54l12.22 7.07a1.7 1.7 0 0 1 .62 2.31 1.69 1.69 0 0 1-2.31.62L4.68 24.3a.89.89 0 0 0-1.33.77V44.6a1.77 1.77 0 0 0 .89 1.55l16.89 9.75a.89.89 0 0 0 1.34-.77v-9.84a1.69 1.69 0 0 1 1.69-1.69 1.69 1.69 0 0 1 1.73 1.67v14.15a1.79 1.79 0 0 1-2.72 1.54z" fill="#6f7273"/><path data-name="Path 958" d="M35.99 48.81a1.7 1.7 0 0 1 .62-2.31l1.93-1.11a.89.89 0 0 0 0-1.54l-10.06-5.81a1.77 1.77 0 0 0-1.78 0l-10.06 5.81a.88.88 0 0 0 0 1.54l1.92 1.11a1.69 1.69 0 0 1 .62 2.31 1.69 1.69 0 0 1-2.31.61l-5.65-3.26a1.78 1.78 0 0 1 0-3.09l15.48-8.93a1.77 1.77 0 0 1 1.78 0l15.48 8.93a1.79 1.79 0 0 1 0 3.09l-5.66 3.26a1.69 1.69 0 0 1-2.31-.61z" fill="#85c300"/></svg>