<svg height="195" viewBox="0 0 200 195" width="200" xmlns="http://www.w3.org/2000/svg"><g fill="none" stroke="#000"><path d="m384.86999 445.76122c0 58.30243-45.45755 105.56861-101.52222 105.56861s-101.52222-47.26618-101.52222-105.56861c0-58.29121 45.45755-105.55738 101.52222-105.55738s101.52222 47.26617 101.52222 105.55738zm0 0" stroke-width="39.680439" transform="matrix(-.33473891666 0 0 -.32139643373 194.84764045284 236.4976955731)"/><path d="m99.28317 310.1887c0 2.94936-2.325433 5.33828-5.194294 5.33828s-5.194294-2.38892-5.194294-5.33828 2.325433-5.33828 5.194294-5.33828 5.194294 2.38892 5.194294 5.33828zm0 0" stroke-width="2" transform="matrix(0 -1.30807600298 1.27482233064 0 -295.43536322714 302.55399708404)"/><path d="m90.656919 379.89894h33.690151" stroke-linecap="square" stroke-width="3.213077" transform="matrix(0 -1.07811030996 1.07988850711 0 -310.20876372262 268.42316087211)"/><path d="m99.283647 310.19002c.000894 2.94744-2.326143 5.33704-5.195459 5.33897-2.868882-.002-5.195496-2.39225-5.194237-5.34146-.000894-2.94744 2.326143-5.33703 5.195458-5.33896 2.867163-.00016 5.193777 2.39003 5.194238 5.34145zm0 0" stroke-width="2" transform="matrix(-1.02438196756 -.81557174008 .79483842316 -.99505510877 17.37587645527 532.39618622894)"/><path d="m90.657524 379.90049 33.688236-.003" stroke-linecap="square" stroke-width="3.213077" transform="matrix(-.84429077875 -.67219085412 .67329934066 -.84290055188 -18.56376591637 522.64725960474)"/><path d="m99.283643 310.18786c.0013 2.9492-2.325316 5.33942-5.196352 5.33973-2.867162-.00015-5.194217-2.38972-5.195497-5.33893.0026-2.94965 2.32747-5.33765 5.196352-5.33973 2.869316.002 5.19637 2.39149 5.195497 5.33893zm0 0" stroke-width="2" transform="matrix(1.02438843373 -.81556435017 .79483103325 .9950606512 -310.47440328358 -84.91628179921)"/><path d="m90.658619 379.89809 33.688241.003" stroke-linecap="square" stroke-width="3.213077" transform="matrix(.84429539744 -.67218438795 .67329287449 .84290517058 -292.95665800922 -117.72767540247)"/><path d="m99.282547 310.18822c.000489 2.94888-2.324403 5.34064-5.194086 5.33923-2.870297.001-5.194985-2.39059-5.195474-5.33948-.000489-2.94888 2.326473-5.33724 5.19677-5.3386 2.866998.00079 5.194986 2.39059 5.19279 5.33885zm0 0" stroke-width="2" transform="matrix(-1.27738385827 .29107101332 -.28367186569 -1.24081396371 392.40393990154 431.53822016664)"/><path d="m90.657535 379.90064 33.687585-.001" stroke-linecap="square" stroke-width="3.213077" transform="matrix(-1.05281372347 .23989957986 -.24029494006 -1.05107986578 362.36129440826 453.51226606348)"/><path d="m99.282557 310.18918c.0022 2.94826-2.325791 5.33806-5.192789 5.33885-2.870297-.001-5.197259-2.38972-5.196771-5.33861.000489-2.94888 2.325178-5.34082 5.195475-5.33947 2.869683-.001 5.194574 2.39035 5.194085 5.33923zm0 0" stroke-width="2" transform="matrix(1.27738385827 .29107101332 -.28367186569 1.24081396371 -16.42060788654 -338.23448653759)"/><path d="m90.657644 379.89924 33.687586.001" stroke-linecap="square" stroke-width="3.213077" transform="matrix(1.05281372347 .23989957986 -.24029494006 1.05107986578 20.19675391583 -345.01904304289)"/><path d="m99.28437 310.18768c-.0011 2.94939-2.326986 5.33878-5.195848 5.33885-2.870057.003-5.19409-2.38858-5.195461-5.33921-.000081-2.94685 2.326986-5.33878 5.195848-5.33885s5.19538 2.39236 5.195461 5.33921zm0 0" stroke-width="2" transform="matrix(.56848270129 1.17853826638 -1.14857772279 .55220827147 365.30476031856 -266.65300778706)"/><path d="m90.657429 379.90045 33.690161-.001" stroke-linecap="square" stroke-width="3.213077" transform="matrix(.46854155521 .9713455055 -.97294819229 .46776930959 393.4482543045 -242.30143378086)"/><path d="m99.284341 310.18974c-.000081 2.94685-2.326599 5.33927-5.195461 5.33921-2.868862-.00007-5.195929-2.39201-5.195848-5.33885.0014-2.95063 2.325404-5.34183 5.194266-5.34176 2.870057.003 5.195929 2.392 5.197043 5.3414zm0 0" stroke-width="2" transform="matrix(-.56848270129 1.17853826638 -1.14857772279 -.55220827147 547.24678909774 75.92433032017)"/><path d="m90.657685 379.90169 33.688715-.002" stroke-linecap="square" stroke-width="3.213077" transform="matrix(-.46854155521 .9713455055 -.97294819229 -.46776930959 545.72411656757 113.0745369817)"/></g></svg>