<svg height="200" viewBox="0 0 200 200" width="200" xmlns="http://www.w3.org/2000/svg"><g transform="translate(0 50)"><path d="m0 0h200v100h-200z" fill="#fff"/><path d="m143.56641 28.542969c2.91015-1.28125 4.15625 2.914062 2.14062 4.433593-1.14062.789063-2.71875.261719-3.15625-1.03125-.22266-1.238281-.35156-2.789062 1.01563-3.402343zm0 0"/><path d="m78.117188 30.601562c-.367188 1.070313-.722657 2.148438-1.0625 3.238282-3.484376-1.289063-8.25-2.578125-11.738282-.730469-2.945312 1.570313-2.90625 6.101563-.339844 7.984375 2.851563 2.066406 6.191407 2.546875 9.171876 4.195312 1.816406.988282 3.390624 2.222657 4.195312 4.1875 1.238281 3.167969.589844 7.300782-2.109375 9.550782-1.804687 1.574218-4.019531 2.195312-6.34375 2.539062-3.667969.371094-7.394531-.04297-10.875-1.265625-.05078-1.222656-.07031-2.449219-.08594-3.671875 4.054687 1.414063 9.476562 2.648438 13.558593.84375 3.183594-1.402344 3.691407-6.089844 1.046875-8.226562-3.601559-2.683594-8.230465-2.847656-11.734372-6.058594-2.378906-2.171875-2.972656-6.105469-1.949219-9.058594.871094-2.417968 3.320313-4.152344 5.753907-4.75 4.027343-1.105468 8.679687-.300781 12.511719 1.222656zm0 0"/><path d="m96.199219 28.964844c3.535156-.332032 7.468751.105468 10.484371 2.117187 3.25391 2.132813 5.21094 5.722657 5.90625 9.496094.73047 4.15625.59375 8.722656-.94921 12.683594-1.46875 3.671875-4.21875 6.449219-7.9961 7.695312 2.54297 2.609375 5.01172 5.292969 7.53906 7.921875-1.79296.01563-3.59375.01563-5.39062 0-1.98828-2.421875-4.05859-4.773437-6.066408-7.179687-3.714843.08594-7.742187-.5-10.675781-2.972657-3.277343-2.660156-4.796875-6.832031-5.105469-10.941406-.449218-4.839844.226563-10.425781 3.421876-14.300781 2.25-2.730469 5.398437-4.019531 8.832031-4.519531zm0 0"/><path d="m12.148438 29.449219c4.617187.191406 9.816406-.578125 14.230468.824219 2.828125.835937 5.015625 3.003906 5.625 5.925781.441406 2.480469.351563 5.402343-.949218 7.628906-1.4375 2.570313-4.292969 4.144531-7.125 4.644531-2.714844.648438-5.363282.355469-8.117188.421875.0039 4.070313.0039 8.144531 0 12.214844-1.21875 0-2.441406 0-3.664062 0-.0039-10.554687-.0039-21.109375 0-31.660156zm0 0"/><path d="m119.92969 29.445312h3.66015c.004 9.445313.004 18.882813 0 28.328126 4.6836.01562 9.35938-.0078 14.04297.01172-.004 1.105469-.004 2.214844 0 3.320313-5.90625.01172-11.80468.0039-17.70312 0-.008-10.550781-.008-21.105469 0-31.660157zm0 0"/><path d="m155.63281 31.699219c.6875-.03906 1.37891-.05078 2.07422-.04297-.008 1.855469 0 3.710938 0 5.558594 2.29297.01172 4.58594.0078 6.88672.01172-.004.921876-.004 1.84375 0 2.769532-2.30078.0039-4.59375 0-6.88672.0078 0 4.816406-.0117 9.644532 0 14.46875-.008 1.539063.35938 2.988282 1.72266 3.878906 1.53125.96875 3.67187.4375 5.36328.164063-.004.863281-.008 1.722656-.008 2.585937-2.64454.714844-5.28125.964844-7.80079-.324218-2.04687-1.242188-2.85156-3.503906-2.86718-5.8125-.0234-4.988282.004-9.976563-.008-14.960938-1.13634-.003895-2.27697-.003895-3.41369-.007801.004-.589844.0117-1.179688.0195-1.761719 1.12891-.472656 2.2461-.960937 3.35157-1.472656.55468-1.679688.94531-3.417969 1.5664-5.0625zm0 0"/><path d="m95.292969 32.566406c2.875-.667968 6.285161-.511718 8.875001 1.015625 2.47656 1.421875 3.89453 4.113281 4.45312 6.839844.73047 3.476563.70704 7.222656-.24218 10.65625-.79688 2.816406-2.5 5.3125-5.29688 6.425781-3.183592 1.269532-7.160155 1.183594-10.191405-.464844-2.984375-1.671874-4.445313-4.867187-4.894531-8.132812-.519532-3.699219-.414063-7.933594 1.203125-11.367188 1.210937-2.542968 3.363281-4.300781 6.09375-4.972656zm0 0" fill="#fff"/><path d="m15.8125 32.785156c3.5.09375 7.871094-.578125 10.828125 1.703125 2.855469 2.511719 2.332031 8.734375-1.5 10.121094-3.097656 1.273437-6.074219.902344-9.328125.941406.0039-4.257812.0039-8.511719 0-12.765625zm0 0" fill="#fff"/><path d="m186.25391 40.417969c1.99218 2.761719 1.93359 5.765625 1.9414 9.019531-5.48047.02734-10.96094-.02734-16.4414.03516.23437 3.433594.78906 6.777344 4.07421 8.597656 3.31641 1.679688 8.01563.570313 11.30469-.777343.008 1.011719.0117 2.023437.0156 3.027343-3.92188 1.433594-8.90235 2.058594-12.82813.367188-3.46094-1.515625-5.53515-4.777344-6.05859-8.441406-.5625-3.996094-.10547-8.75 2.5-12.011719 3.60547-4.785156 12.08203-4.875 15.49219.183594zm0 0"/><path d="m34.484375 37.226562c1.292969-.0039 2.585937-.0039 3.886719-.0039 2.460937 6.804688 5.46875 13.488282 7.441406 20.445313 2.046875-6.90625 4.726562-13.640625 7.121094-20.433594 1.289062-.01172 2.570312-.01172 3.859375-.01172-3.472657 9.171875-6.914063 18.34375-10.386719 27.523438-.890625 2.183594-2.105469 4.53125-4.167969 5.816406-2.339843 1.382812-4.910156 1.328125-7.484375.730469.02344-.921875.03906-1.835938.05078-2.757813 2.027343.648438 4.5.605469 6.125-.941406 1.652343-1.554688 2.28125-4.277344 3.136718-6.339844-3.222656-8-6.371094-16.027344-9.582031-24.027344zm0 0"/><path d="m142.70703 37.222656h3.625v23.886719c-1.21094 0-2.41406 0-3.625 0-.008-7.960937-.008-15.925781 0-23.886719zm0 0"/><path d="m182.4375 40.917969c1.57422 1.578125 1.75 3.617187 1.92187 5.722656-4.17578.05469-8.35937.01953-12.54296.01563.28906-1.746094.57421-3.371094 1.67187-4.816406 1.91797-2.796875 6.51172-3.273438 8.94922-.921875zm0 0" fill="#fff"/></g></svg>