<svg height="200" viewBox="0 0 200 200" width="200" xmlns="http://www.w3.org/2000/svg"><g transform="translate(0 50)"><path d="m0 0h200v100h-200z" fill="#fff"/><path d="m58.554688 39.445312h1.851562v16.664063c-.617188 0-1.234375 0-1.851562 0 0-5.554687 0-11.109375 0-16.664063zm0 0"/><path d="m168 39.445312h1.85547c.004 2.175782.0273 4.34375-.13281 6.515626 1.3789-.84375 2.53125-1.714844 4.24218-1.539063 1.8086.07422 3.53125.878906 3.85547 2.824219.37891 2.914062.10156 5.925781.17969 8.863281-.60547 0-1.21094 0-1.81641 0-.0234-2.414063.0703-4.835937-.0352-7.253906-.0859-.832031-.125-1.820313-.9336-2.304688-1.6914-.988281-4.79297-.445312-5.16406 1.792969-.41016 2.535156-.12109 5.199219-.19531 7.765625-.61719 0-1.23828 0-1.85547 0 .00005-5.554687.00005-11.109375.00005-16.664063zm0 0"/><path d="m22.148438 40.003906c2.445312.06641 5.460937-.359375 7.730468.652344 3.289063 1.433594 3.085938 7.136719-.128906 8.554688-1.871094.933593-3.699219.773437-5.726562.828124.01562 2.023438.01562 4.050782.01562 6.070313-.632812 0-1.261718 0-1.890624 0 0-5.363281 0-10.738281 0-16.105469zm0 0"/><path d="m46.59375 40h8.890625v1.667969c-2.335937 0-4.667969 0-7 0v5h6.585937v1.664062c-2.191406 0-4.390624 0-6.585937 0v6.113281h7v1.664063c-2.96875 0-5.929687 0-8.890625 0 0-5.371094 0-10.738281 0-16.109375zm0 0"/><path d="m96.65625 39.957031c.742188.804688.75 1.503907 0 2.308594-1.046875.08594-1.296875-.488281-1.941406-1.15625.644531-.664063.894531-1.238281 1.941406-1.152344zm0 0"/><path d="m120.19531 40.789062c-.18359.53125-.36718 1.066407-.55078 1.59375-1.71094-.421874-4.25-1.277343-5.86719-.277343-1.44531.695312-1.46093 2.882812-.27343 3.816406 1.66797 1.25 4.30859 1.550781 5.92968 3 1.85157 1.726563 1.38282 5.128906-.82812 6.351563-2.47656 1.347656-5.38281.875-8 .242187-.0234-.625-.0508-1.253906-.0703-1.886719 2.12109.609375 4.6875 1.320313 6.82031.40625 1.56641-.644531 1.82422-3.15625.44922-4.074218-1.6836-1.160157-3.88672-1.4375-5.57031-2.761719-1.98438-1.453125-1.95704-5.128907.26562-6.359375 2.49609-1.46875 5.10547-.789063 7.69531-.05078zm0 0"/><path d="m24.039062 41.632812c1.5625.06641 3.425782-.15625 4.832032.5625 2.171875 1.070313 1.902344 4.9375-.382813 5.726563-1.339843.523437-3.023437.398437-4.449219.457031 0-2.25 0-4.496094 0-6.746094zm0 0" fill="#fff"/><path d="m89.222656 41.234375c.09375 1.066406.148438 2.136719.1875 3.210937h3.441406v1.664063c-1.15625 0-2.316406 0-3.480468 0 .06641 2.355469-.199219 4.808594.164062 7.136719.554688 1.6875 2.363282 1.042968 3.714844 1.175781-.261719.496094-.539062.976563-.839844 1.449219-1.621094.71875-4.355468.101562-4.675781-1.988282-.367187-2.484374-.132813-5.089843-.140625-7.59375-.742188-.167968-1.488281-.371093-2.226562-.605468.726562-.476563 1.453124-.933594 2.199218-1.371094.371094-1.21875.578125-2.273438 1.65625-3.078125zm0 0"/><path d="m33.410156 44.472656c.601563-.03516 1.207032-.04297 1.816406-.03906 1.378907 3.320312 2.664063 6.722656 3.796876 10.132812 1.09375-3.40625 2.335937-6.753906 3.558593-10.117187.644531-.0039 1.285157-.0039 1.929688-.0039-1.960938 4.933594-3.640625 10.019532-5.734375 14.894532-1.078125 2.203125-2.90625 2.386718-5.121094 2.386718-.09375-.519531-.183594-1.042968-.277344-1.566406.9375-.136718 1.976563-.15625 2.867188-.503906.992187-.722656 1.433594-2.296875 1.9375-3.367188-1.59375-3.933593-3.277344-7.84375-4.773438-11.816406zm0 0"/><path d="m70.300781 44.628906c1.308594.347656 2.242188 1.191406 2.367188 2.59375.261719 2.945313.04297 5.9375.109375 8.894532-.457032-.0078-.910156-.01172-1.367188-.01172-.08984-.5-.175781-1-.269531-1.5-1.875 1.390625-4.007813 2.101562-6.25 1.066406-1.996094-.871094-2.261719-3.945313-.394531-5.105469 1.859375-1.15625 4.636718-1.078125 6.757812-1.234375-.347656-1.011718-.289062-2.648436-1.503906-3.011718-1.371094-.640624-3.34375.207032-4.707031.617188l-.480469-1.476562c1.921875-.734376 3.644531-1.410157 5.738281-.832032zm0 0"/><path d="m84.003906 45.320312-.960937 1.269532c-1.503907-.128906-3.570313-.890625-4.976563-.210938-1.023437.464844-.761718.753906-.617187 1.699219 1.613281 1.261719 4.015625 1.492187 5.632812 2.742187 1.484375 1.203126 1.15625 3.652344-.460937 4.5625-2.214844 1.171876-4.625.761719-6.953125.222657-.04687-.542969-.08984-1.082031-.132813-1.621094 1.835938.320313 4.105469.792969 5.902344.175781.867188-.582031 1.117188-.777344.707031-1.832031-1.472656-1.539063-4.195312-1.707031-5.832031-3.089844-1.167969-1.128906-.863281-3.265625.566406-4.058593 2.371094-1.308594 4.726563-.703126 7.125.140624zm0 0"/><path d="m95.222656 44.445312h1.777344v11.664063c-.59375 0-1.183594 0-1.777344 0 0-3.886719 0-7.777344 0-11.664063zm0 0"/><path d="m108.71094 44.917969c-.13281.539062-.26563 1.078125-.40625 1.617187-1.94922-.335937-4.00391-1.046875-5.5.742188-1.16016 1.640625-1.15625 4.828125.27734 6.316406 1.67188 1.460938 3.57813.695312 5.4961.339844-.0117.570312-.0234 1.144531-.0352 1.714844-2.27734.519531-4.39453.902343-6.4375-.539063-2.01563-1.566406-2.226564-4.320313-1.77344-6.652344.32813-1.601562 1.31641-2.972656 2.86719-3.574219 1.88281-.800781 3.61328-.367187 5.51172.03516zm0 0"/><path d="m131.73828 46.042969c1.22656 1.519531 1.17969 3.195312 1.35547 5.039062-2.84766.0625-5.69531-.02734-8.55078.09766.42969.875.69531 2.171874 1.60547 2.652343 1.94531 1.21875 4.39062.417969 6.42968-.09766-.0742.59375-.14453 1.1875-.22265 1.78125-1.3711.3125-2.67188.679687-4.10156.613281-2.13672-.05078-4.17188-1.191406-4.92578-3.261718-.6875-2.066407-.58985-4.761719.76562-6.546876 1.74609-2.347656 5.78516-2.613281 7.64453-.277342zm0 0"/><path d="m141.96094 44.628906c1.3164.347656 2.25 1.191406 2.37109 2.59375.26172 2.945313.0469 5.9375.11328 8.894532-.45703-.0078-.91015-.01172-1.36719-.01172-.0898-.5-.17968-1-.27343-1.5-1.8711 1.390625-4 2.101562-6.25 1.066406-1.99219-.867187-2.26172-3.945313-.39453-5.105469 1.86328-1.15625 4.64062-1.078125 6.76171-1.234375-.35156-1.011719-.28906-2.648437-1.5039-3.011719-1.375-.640624-3.34766.207032-4.70703.617188l-.48438-1.476562c1.92188-.734376 3.64453-1.410157 5.73438-.832031zm0 0"/><path d="m148 44.445312h1.53516c.0312.734376.0586 1.472657.0859 2.203126.72266-.652344 1.45703-1.4375 2.32422-1.898438.90625-.316406 1.9336-.3125 2.88281-.417969-.0391.550781-.0781 1.105469-.11718 1.65625-.79297.08203-1.60157.132813-2.37891.289063-1.39844.421875-2.32812 1.695312-2.46484 3.128906-.19922 2.222656-.0547 4.476562-.082 6.703125-.59766 0-1.19141 0-1.78516 0 0-3.886719 0-7.777344 0-11.664063zm0 0"/><path d="m165.37891 44.917969c-.13282.539062-.26954 1.078125-.40625 1.617187-1.94922-.335937-4.00782-1.046875-5.5.742188-1.16016 1.640625-1.15625 4.828125.27734 6.316406 1.67187 1.460938 3.57812.695312 5.49609.339844-.0117.570312-.0234 1.144531-.0352 1.714844-2.27735.519531-4.39453.902343-6.4375-.539063-2.01953-1.566406-2.23047-4.320313-1.77344-6.652344.32812-1.601562 1.31641-2.972656 2.86719-3.574219 1.88281-.800781 3.60937-.367187 5.51172.03516zm0 0"/><g fill="#fff"><path d="m130.01562 46.699219c.6836.65625.90625 1.828125 1.26954 2.683593-2.23047.08984-4.45313.09375-6.67969-.0039.47656-1.105468 1.00391-2.140625 1.8125-3.046875 1.29297-.1875 2.46094-.503906 3.59765.367188zm0 0"/><path d="m71.183594 51.148438c-.3125.929687-.277344 2.15625-1.246094 2.679687-1.121094.707031-2.910156.882813-4.105469.320313-1-.371094-.859375-1.78125-.09766-2.332032 1.59375-.804687 3.714844-.710937 5.449219-.667968zm0 0"/><path d="m142.85156 51.148438c-.3125.929687-.28125 2.15625-1.24609 2.679687-1.1211.707031-2.91016.882813-4.10547.320313-1-.371094-.85938-1.78125-.10156-2.332032 1.59765-.804687 3.71875-.710937 5.45312-.667968zm0 0"/></g></g></svg>