<svg height="200" viewBox="0 0 200 200" width="200" xmlns="http://www.w3.org/2000/svg"><path d="m37.683594 31.214844v-13.707032c0-4.789062 3.878906-8.753906 8.746094-8.753906 3.546874 0 6.761718 2.230469 8.164062 5.53125zm63.183596-12.140625c0-5.695313 3.29687-9.824219 8.66015-9.824219 5.27735 0 8.74219 3.960938 8.74219 9.660156v22.710938c0 5.285156-2.14453 10.238281-9.15625 10.238281h-2.22656v9.082031h2.22656c6.51563 0 10.0625-2.3125 15.58985-7.84375l37.53124-37.65625v32.785156c0 9.246094 5.44141 13.128907 11.62891 13.128907 4.20703 0 6.76172-1.484375 10.64063-5.367188l15.25781-15.277343-6.26953-5.945313-15.42188 15.277344c-2.0625 1.980469-2.97265 2.3125-3.79297 2.3125-1.98047 0-3.21875-1.488281-3.21875-3.632813v-43.273437c0-2.804688-1.40234-5.035157-4.37109-5.035157-1.23828 0-2.30859.410157-4.45313 2.558594l-35.14062 35.261719v-20.726563c0-9.664062-7.91797-17.507812-17.56641-17.507812-5.28125 0-8.99218 1.734375-14.269528 7.019531l-41.242187 41.289063c-3.050781 3.054687-4.78125 4.046875-7.753906 4.046875-4.617188 0-8.578125-3.882813-8.578125-8.671875l24.828125-24.9375c.992187-.992188 1.484375-2.394532 1.320312-3.800782-1.320312-8.503906-8.742187-14.945312-17.402343-14.945312-4.785157 0-8.746094 1.320312-14.519532 7.101562l-31.671875 31.792969 6.269531 6.191407 22.351563-22.375v19.734374c0 11.5625 7.671875 18.664063 17.570313 18.664063 5.691406 0 9.070312-1.816406 14.101562-6.855469l31.507812-31.542968v59.289062h8.828128z" fill="#f03d38" transform="matrix(.92489308 0 0 .92489308 7.510692 70.079384)"/></svg>