<svg fill="none" height="111" viewBox="0 0 507 111" width="507" xmlns="http://www.w3.org/2000/svg" xmlns:xlink="http://www.w3.org/1999/xlink"><linearGradient id="a" gradientUnits="userSpaceOnUse" x1="75.3947" x2="-21.0661" y1="-27.5658" y2="24.4264"><stop offset="0" stop-color="#ff7bff"/><stop offset=".350158" stop-color="#a0f"/><stop offset=".998876" stop-color="#80c"/></linearGradient><linearGradient id="b" gradientUnits="userSpaceOnUse" x1="28.5064" x2="87.8342" y1="-11.9171" y2="38.8066"><stop offset=".0354358" stop-color="#ff7bff"/><stop offset=".576537" stop-color="#80c"/><stop offset="1" stop-color="#311b92"/></linearGradient><path d="m55.401 0c11.3568 3.15862 21.7041 11.1183 25.9944 20.8469 6.5617 15.7931 5.0475 35.7556-2.1451 47.632-6.057 9.7285-15.3948 14.9087-26.1207 14.7823-16.6566-.1263-30.1585-13.3925-30.2847-30.07 0-16.6776 13.1234-30.4491 30.2847-30.4491 2.7761 0 6.7789.385 11.3216 2.2801 0 0-3.2658-1.9343-11.6533-3.2337-24.1016-3.1586-52.540386 15.1042-45.97869 57.177 9.08539 16.1721 26.49919 27.1645 46.31039 27.0375 29.1491-.126 52.9984-24.0052 52.8724-53.3172 0-28.0486-22.84-51.927731-50.601-52.6858z" fill="url(#a)"/><path d="m75.2114 22.3618c-4.0379-8.4651-12.3662-15.16142-22.5873-17.81466-2.2714-.63172-4.6689-.88442-7.3188-1.01076-3.9118 0-7.6974.50539-11.6092 1.51615-9.7164 2.90593-16.5304 8.59147-20.5684 13.01347-5.17364 5.9382-8.58068 12.1291-10.59966 18.32 0 .1264-.12619.2527-.12619.5054-.12619.5054-.63093 2.0215-.63093 2.4006-.12619.2527-.12619.6317-.25237.8844-.12619.5054-.25238 1.0107-.37856 1.5161 0 .1264 0 .2527-.12619.379-3.28085 16.2985 2.16943 30.9248 5.45028 36.3576.82061 1.3589 1.49447 2.4926 2.16982 3.5328-7.445-40.4304 13.9578-59.7265 38.3118-60.2319 12.7448-.2526 25.4896 4.9275 31.6728 15.2878-.3786-5.6856-.7571-8.8442-3.4071-14.656z" fill="url(#b)"/><g fill="#fff"><path d="m132.603 82.8571c-2.558-.4039-4.866-1.0002-6.963-1.7504v-8.8869c4.963 1.6158 9.656 2.4045 14.1 2.4045 3.866 0 6.732-.7502 8.637-2.2506 1.885-1.5004 2.827-3.674 2.827-6.5594 0-1.6158-.288-2.9623-.865-4.078-.577-1.1156-1.539-2.0966-2.886-2.9622-1.346-.8656-3.174-1.6928-5.52-2.4814l-3.771-1.2696c-9.213-3.1354-13.83-8.9831-13.83-17.5045 0-3.8086.827-7.0787 2.501-9.8101 1.673-2.7315 4.155-4.8282 7.463-6.2901 3.309-1.4427 7.406-2.1736 12.253-2.1736 2.193 0 4.386.1346 6.54.4231 2.155.2886 4.059.6733 5.694 1.1926v8.8485c-3.405-1.0772-7.194-1.6158-11.349-1.6158-8.406 0-12.619 2.8853-12.619 8.6368 0 1.5581.27 2.8469.789 3.8856s1.404 1.9813 2.616 2.7892c1.231.8271 2.924 1.5965 5.098 2.3275l3.77 1.2695c4.79 1.6158 8.425 3.8472 10.906 6.7133 2.463 2.8661 3.713 6.5978 3.713 11.1951 0 3.8664-.846 7.1942-2.558 9.9641-1.712 2.77-4.194 4.9051-7.464 6.3863-3.27 1.4811-7.213 2.2121-11.811 2.2121-2.289 0-4.712-.1924-7.271-.6156z"/><path d="m168.69 30.3242c-.943-.8849-1.404-2.1352-1.404-3.751s.461-2.8661 1.404-3.7702c.942-.8848 2.327-1.3465 4.155-1.3465 1.827 0 3.231.4617 4.174 1.3658.942.9041 1.423 2.1544 1.423 3.7509 0 1.6158-.461 2.8661-1.404 3.751-.942.8848-2.327 1.3272-4.193 1.3272-1.828 0-3.213-.4424-4.155-1.3272z"/><path d="m178.345 36.4977h-10.291v46.1656h10.291z"/><path d="m187.463 36.4995h8.541l.769 4.9436h.558c1.462-1.8274 3.193-3.2316 5.174-4.2126s4.174-1.4619 6.579-1.4619c3.924 0 7.04 1.231 9.329 3.6932s3.443 6.444 3.443 11.9069v31.2772h-10.233v-30.4885c0-2.5969-.519-4.4435-1.558-5.5399s-2.52-1.6543-4.444-1.6543c-1.462 0-2.943.3655-4.405 1.0772s-2.635 1.8082-3.52 3.2893v33.3547h-10.233z"/><path d="m242.939 93.8973c3.924 0 6.809-.9041 8.675-2.7123 1.866-1.8081 2.789-4.8473 2.789-9.1369v-4.0587h-.5c-.981 1.6158-2.347 2.8853-4.058 3.8471-1.712.9618-3.675 1.4427-5.887 1.4427-2.77 0-5.289-.7695-7.578-2.3083-2.29-1.5389-4.136-4.0203-5.521-7.425-1.404-3.4047-2.097-7.7712-2.097-13.0802 0-8.2329 1.847-14.4075 5.521-18.4855 3.674-4.0972 9.252-6.1554 16.735-6.1747 2.308 0 4.693.1924 7.156.5963 2.462.404 4.616.9234 6.482 1.6158v42.357c0 7.6366-1.731 13.1957-5.155 16.6388-3.443 3.4436-8.675 5.1556-15.696 5.1556-.366 0-.501 0-.866-.02zm8.714-20.1398c1.173-.5771 2.096-1.385 2.77-2.3852v-27.0838c-1.405-.3078-2.828-.4617-4.232-.4617-3.636 0-6.367 1.1926-8.195 3.5971-1.827 2.4044-2.731 6.4247-2.731 12.0992 0 3.9433.346 7.0403 1.058 9.2524s1.693 3.7509 2.943 4.5973 2.847 1.2696 4.77 1.2696c1.231 0 2.443-.2886 3.617-.8849z"/><path d="m273.794 82.6831v-68.4021h10.233v68.3828h-10.233z"/><path d="m325.808 62.8716h-24.16c.115 3.1354.577 5.5784 1.404 7.3673.827 1.7697 2.077 3.0392 3.77 3.8086 1.693.7695 3.943 1.135 6.771 1.135 2.905 0 6.271-.5387 10.08-1.6158v8.329c-2.059.5578-3.982.981-5.771 1.2311-1.789.25-3.636.3847-5.521.3847-4.905 0-8.906-.8079-12.003-2.4429-3.097-1.6351-5.386-4.1934-6.886-7.6943-1.501-3.5201-2.251-8.1559-2.251-13.9459 0-7.9058 1.558-13.8112 4.674-17.7545 3.117-3.9433 7.522-5.9053 13.235-5.9053 11.118 0 16.677 7.9828 16.677 23.9484v3.1546zm-20.679-18.8702c-1.058.7887-1.904 2.1737-2.519 4.1549-.616 1.9813-.943 4.6935-.982 8.1752h14.523c-.019-3.4624-.327-6.1939-.884-8.1752-.558-1.9812-1.347-3.3662-2.366-4.1549-1.02-.7886-2.289-1.1926-3.809-1.1926-1.577 0-2.905.404-3.963 1.1926z"/><path d="m339.46 82.8558c-2.558-.4039-4.866-1.0002-6.963-1.7504v-8.8869c4.963 1.6158 9.656 2.4045 14.1 2.4045 3.866 0 6.732-.7502 8.637-2.2506 1.885-1.5004 2.827-3.674 2.827-6.5594 0-1.6158-.288-2.9623-.865-4.0779-.577-1.1157-1.539-2.0967-2.886-2.9623-1.346-.8656-3.174-1.6928-5.52-2.4814l-3.771-1.2696c-9.233-3.1546-13.83-9.0023-13.83-17.5237 0-3.8086.827-7.0787 2.501-9.8102 1.673-2.7314 4.155-4.8281 7.463-6.29 3.309-1.4427 7.406-2.1737 12.253-2.1737 2.193 0 4.386.1347 6.54.4232 2.155.2886 4.059.6733 5.694 1.1926v8.8485c-3.405-1.0772-7.194-1.6159-11.349-1.6159-8.406 0-12.619 2.8854-12.619 8.6369 0 1.5581.27 2.8468.789 3.8856.519 1.0387 1.404 1.9813 2.616 2.7892 1.231.8271 2.924 1.5965 5.098 2.3275l3.77 1.2695c4.789 1.6158 8.425 3.8471 10.906 6.7133 2.463 2.8661 3.713 6.5978 3.713 11.1951 0 3.8664-.847 7.1942-2.558 9.9641-1.712 2.7699-4.194 4.9051-7.464 6.3862-3.27 1.4812-7.213 2.2121-11.811 2.2121-2.308.0193-4.732-.1731-7.271-.5963z"/><path d="m398.687 74.124v8.5407c-2.232.5386-4.54.8079-6.944.8079-4.829 0-8.483-1.2696-11.003-3.8279-2.52-2.5584-3.77-6.6171-3.77-12.157v-22.8135h-7.06v-8.1751h7.06l1.827-16.4658h8.425v16.4658h11.08v8.1751h-11.08v21.5825c0 2.1159.231 3.7894.712 5.0012.481 1.2119 1.231 2.0775 2.251 2.5968 1.019.5194 2.385.7887 4.097.7887 1.038 0 2.5-.1731 4.405-.5194z"/><path d="m406.459 77.738c-3.193-3.8471-4.79-9.8486-4.79-17.9661 0-16.0041 6.175-23.9869 18.505-23.9869 5.924 0 10.483 1.9621 13.695 5.8861 3.194 3.9241 4.809 9.9257 4.809 18.0239 0 15.8886-6.174 23.833-18.485 23.833-5.963 0-10.541-1.9428-13.734-5.79zm18.1-3.4047c1.135-.9041 2.02-2.5199 2.655-4.8281.635-2.3083.923-5.5207.923-9.6563 0-4.2319-.308-7.5404-.923-9.9064-.616-2.366-1.5-4.0203-2.674-4.9436-1.173-.9233-2.616-1.4042-4.366-1.4042-1.77 0-3.251.4617-4.405 1.385s-2.039 2.5391-2.655 4.8858c-.615 2.3468-.923 5.5784-.923 9.7333 0 4.2126.308 7.4827.923 9.8102.616 2.3467 1.501 3.9625 2.655 4.8859 1.135.9233 2.616 1.3849 4.424 1.3849 1.77.0192 3.212-.4424 4.366-1.3465z"/><path d="m445.812 36.4968h8.464l.808 6.3478h.5c1.135-2.366 2.655-4.1165 4.598-5.2321 1.923-1.1157 4.116-1.6735 6.578-1.6735.981 0 1.962.0769 2.924.25v9.5602c-.962-.1732-2.135-.2501-3.559-.2501-2.058 0-4.001.4809-5.847 1.4234-1.828.9426-3.251 2.2506-4.232 3.9241v31.8158h-10.234z"/><path d="m506.714 62.8716h-24.16c.115 3.1354.577 5.5784 1.404 7.3673.827 1.7697 2.078 3.0392 3.77 3.8086 1.693.7695 3.944 1.135 6.771 1.135 2.905 0 6.271-.5387 10.08-1.6158v8.329c-2.058.5578-3.982.981-5.771 1.2311-1.789.25-3.635.3847-5.521.3847-4.905 0-8.906-.8079-12.003-2.4429-3.097-1.6351-5.386-4.1934-6.886-7.6943-1.5-3.5201-2.251-8.1559-2.251-13.9459 0-7.9058 1.559-13.8112 4.675-17.7545s7.521-5.9053 13.234-5.9053c11.118 0 16.677 7.9828 16.677 23.9484v3.1546zm-20.678-18.8702c-1.058.7887-1.905 2.1737-2.52 4.1549-.616 1.9813-.943 4.6935-.981 8.1752h14.523c-.02-3.4624-.327-6.1939-.885-8.1752-.558-1.9812-1.347-3.3662-2.366-4.1549-1.02-.7886-2.289-1.1926-3.809-1.1926-1.577 0-2.904.404-3.962 1.1926z"/></g></svg>