<svg height="200" viewBox="0 0 200 200" width="200" xmlns="http://www.w3.org/2000/svg" xmlns:xlink="http://www.w3.org/1999/xlink"><linearGradient id="a" gradientUnits="userSpaceOnUse" x1="-41.41333851" x2="241.41336084333" y1="241.41336084333" y2="-41.41333851"><stop offset="0" stop-color="#b0084d"/><stop offset="1" stop-color="#ff4f8b"/></linearGradient><path d="m0 0h200v200h-200z" fill="url(#a)"/><g fill="#fff"><path d="m142.667969 84v-16c0-1.472656-1.195313-2.667969-2.667969-2.667969h-37.332031v-5.597656c6.707031-1.371094 11.285156-7.59375 10.597656-14.40625-.6875-6.808594-6.421875-11.992187-13.265625-11.992187s-12.578125 5.183593-13.265625 11.992187c-.6875 6.8125 3.890625 13.035156 10.597656 14.40625v5.597656h-37.332031c-1.472656 0-2.667969 1.195313-2.667969 2.667969v10.667969h-21.332031c-1.472656 0-2.667969 1.191406-2.667969 2.664062v13.335938c0 1.472656 1.195313 2.664062 2.667969 2.664062h21.332031v5.335938h-21.332031c-1.472656 0-2.667969 1.191406-2.667969 2.664062v13.335938c0 1.472656 1.195313 2.664062 2.667969 2.664062h21.332031v10.667969c0 1.472656 1.195313 2.667969 2.667969 2.667969h37.332031v5.597656c-6.707031 1.371094-11.285156 7.59375-10.597656 14.40625.6875 6.808594 6.421875 11.992187 13.265625 11.992187s12.578125-5.183593 13.265625-11.992187c.6875-6.8125-3.890625-13.035156-10.597656-14.40625v-5.597656h37.332031c1.472656 0 2.667969-1.195313 2.667969-2.667969v-13.332031h-5.335938v10.664062h-74.664062v-8h21.332031c1.472656 0 2.667969-1.191406 2.667969-2.664062v-13.335938c0-1.472656-1.195313-2.664062-2.667969-2.664062h-21.332031v-5.335938h21.332031c1.472656 0 2.667969-1.191406 2.667969-2.664062v-13.335938c0-1.472656-1.195313-2.664062-2.667969-2.664062h-21.332031v-8h74.664062v13.332031zm-34.667969 69.332031c0 4.417969-3.582031 8-8 8s-8-3.582031-8-8 3.582031-8 8-8 8 3.582031 8 8zm-26.667969-45.332031v8h-42.664062v-8zm0-24v8h-42.664062v-8zm10.667969-37.332031c0-4.417969 3.582031-8 8-8s8 3.582031 8 8-3.582031 8-8 8-8-3.582031-8-8zm0 0"/><path d="m164 89.332031h-53.332031c-1.472657 0-2.667969 1.195313-2.667969 2.667969v18.667969c0 1.472656 1.195312 2.664062 2.667969 2.664062h53.332031c1.472656 0 2.667969-1.191406 2.667969-2.664062v-18.667969c0-1.472656-1.195313-2.667969-2.667969-2.667969zm-2.667969 18.667969h-48v-13.332031h48zm0 0"/></g></svg>