<svg height="200" viewBox="0 0 200 200" width="200" xmlns="http://www.w3.org/2000/svg" xmlns:xlink="http://www.w3.org/1999/xlink"><clipPath id="a"><path d="m9 37h55v116h-55zm0 0"/></clipPath><clipPath id="b"><path d="m21.386719 48.75c-8.277344 2.195312-13.207031 10.683594-11.011719 18.960938l22.429688 84.542968 30.882812-114.726562zm0 0"/></clipPath><linearGradient id="c"><stop offset="0" stop-color="#f00"/><stop offset="1" stop-color="#b5202c"/></linearGradient><radialGradient id="d" cx="0" cy="0" gradientTransform="matrix(32.455369 75.928575 -75.928575 32.455369 32.647811 49.39103)" gradientUnits="userSpaceOnUse" r="1" xlink:href="#c"/><clipPath id="e"><path d="m89 16h71v15h-71zm0 0"/></clipPath><clipPath id="f"><path d="m139.773438 17.34375-50.269532 13.335938h69.847656l-.617187-2.324219c-1.84375-6.941407-8.117187-11.53125-14.976563-11.53125-1.316406 0-2.652343.167969-3.984374.519531"/></clipPath><radialGradient id="g" cx="0" cy="0" gradientTransform="matrix(12.730181 29.781958 -29.781958 12.730181 119.078121 18.255345)" gradientUnits="userSpaceOnUse" r="1" xlink:href="#c"/><clipPath id="h"><path d="m64 47h125v142h-125zm0 0"/></clipPath><clipPath id="i"><path d="m159.238281 63.238281h-62.003906l-7.140625 29.457031h62.304688l-8.625 31.007813h-62.308594l-17.289063 64.472656 112.964844-29.964843c8.273437-2.195313 13.203125-10.6875 11.007813-18.964844l-24.324219-91.703125zm0 0"/></clipPath><radialGradient id="j" cx="0" cy="0" gradientTransform="matrix(43.826146 102.530176 -102.530176 43.826122 116.888805 62.087097)" gradientUnits="userSpaceOnUse" r="1" xlink:href="#c"/><g clip-path="url(#a)"><g clip-path="url(#b)"><path d="m21.386719 48.75c-8.277344 2.195312-13.207031 10.683594-11.011719 18.960938l22.429688 84.542968 30.882812-114.726562zm0 0" fill="url(#d)"/></g></g><g clip-path="url(#e)"><g clip-path="url(#f)"><path d="m139.773438 17.34375-50.269532 13.335938h69.847656l-.617187-2.324219c-1.84375-6.941407-8.117187-11.53125-14.976563-11.53125-1.316406 0-2.652343.167969-3.984374.519531" fill="url(#g)"/></g></g><g clip-path="url(#h)"><g clip-path="url(#i)"><path d="m159.238281 63.238281h-62.003906l-7.140625 29.457031h62.304688l-8.625 31.007813h-62.308594l-17.289063 64.472656 112.964844-29.964843c8.273437-2.195313 13.203125-10.6875 11.007813-18.964844l-24.324219-91.703125zm0 0" fill="url(#j)"/></g></g></svg>