<svg height="200" viewBox="0 0 200 200" width="200" xmlns="http://www.w3.org/2000/svg"><path d="m117.207031 78.582031h8.757813v7.867188h-8.757813zm0 0" fill="#356388"/><path d="m156.496094 78.582031h8.578125v8.355469h-8.578125zm0 0" fill="#39b54a"/><path d="m130.363281 112.449219h8.578125v8.355469h-8.578125zm0 0" fill="#39b54a"/><path d="m117.207031 88.9375h8.757813v8.355469h-8.757813zm0 0" fill="#39b54a"/><path d="m117.207031 99.78125v9.867188c0 2.308593-1.242187 3.734374-3.332031 3.734374-1.953125 0-3.378906-1.246093-3.378906-3.78125v-31.019531h-1.242188c-5.246094 0-8.046875 3.375-8.046875 9.953125v21.335938c0 8 4.578125 11.597656 12.136719 11.597656 7.109375 0 12.664062-4.085938 12.621094-11.777344v-9.867187h-8.757813zm0 0" fill="#356388"/><path d="m86.808594 78.582031h-5.554688c-5.246094 0-8.046875 3.375-8.046875 9.953125v32.3125h9.246094v-15.023437h4.089844c7.644531 0 10.886719-5.332031 10.886719-14.175781 0-8.621094-3.6875-13.066407-10.621094-13.066407zm-1.6875 19.730469h-2.667969v-12.132812h2.710937c2.179688 0 3.246094 1.644531 3.246094 5.734374 0 4.355469-1.15625 6.398438-3.289062 6.398438zm0 0" fill="#3c9cd7"/><path d="m29.832031 78.582031h-5.554687c-5.246094 0-8.046875 3.375-8.046875 9.953125v32.3125h9.246093v-15.023437h4.085938c7.644531 0 10.890625-5.332031 10.890625-14.175781 0-8.621094-3.6875-13.066407-10.621094-13.066407zm-1.734375 19.730469h-2.667968v-12.132812h2.710937c2.179687 0 3.246094 1.644531 3.246094 5.734374.042969 4.355469-1.15625 6.398438-3.289063 6.398438zm0 0" fill="#3c9cd7"/><path d="m67.429688 78.582031c-5.242188 0-8.042969 3.375-8.042969 9.953125v6.890625h-6.578125v-16.84375h-1.199219c-5.246094 0-8.046875 3.375-8.046875 9.953125v32.3125h9.246094v-17.066406h6.578125v17.066406h9.199219v-42.222656h-1.15625zm0 0" fill="#3c9cd7"/><g fill="#356388"><path d="m184.277344 95.871094v-6.625h-4.3125v-7.152344h-2.710938c-3.777344 0-5.824218 2.441406-5.824218 7.152344h-2.796876v6.625h2.796876v18.664062c0 4.667969 3.335937 6.757813 7.511718 6.757813 1.644532 0 3.734375-.3125 5.289063-.84375v-6.800781c-.667969.132812-1.597657.175781-2.488281.175781-1.378907 0-1.777344-.664063-1.777344-1.820313v-16.132812zm0 0"/><path d="m145.519531 88.226562c-2.800781 0-5.023437 1.199219-6.578125 3.421876v-2.710938h-2.800781c-3.777344 0-5.820313 2.445312-5.820313 7.15625v13.863281h8.578126v-11.242187c0-1.910156.933593-3.332032 2.355468-3.332032 1.910156 0 2.308594 1.464844 2.308594 2.796876v22.625h8.535156v-25.824219c.089844-4.175781-2.890625-6.753907-6.578125-6.753907zm0 0"/><path d="m162.320312 89.246094c-3.777343 0-5.824218 2.445312-5.824218 7.15625v24.402344h8.578125v-31.558594zm0 0"/></g></svg>