<svg height="200" viewBox="0 0 200 200" width="200" xmlns="http://www.w3.org/2000/svg" xmlns:xlink="http://www.w3.org/1999/xlink"><linearGradient id="a" gradientTransform="matrix(0 2.666667 -2.666667 0 368 -237.333333)" gradientUnits="userSpaceOnUse" x1="179.529999" x2="73.470001" y1="153.529999" y2="47.470001"><stop offset="0" stop-color="#b0084d"/><stop offset="1" stop-color="#ff4f8b"/></linearGradient><path d="m0 0h200v200h-200z" fill="url(#a)"/><path d="m147.945312 93.332031c-.046874-6.640625-4.199218-12.566406-10.425781-14.878906-4.667969-1.546875-9.796875-.710937-13.734375 2.238281-1.738281-3.789062-4.140625-7.238281-7.09375-10.183594-9.253906-9.515624-23.441406-12.289062-35.597656-6.960937-11.285156 5.261719-18.589844 16.484375-18.828125 28.933594v1.441406c-6.570313 1.980469-11.84375 6.910156-14.265625 13.332031h5.8125c2.476562-4.558594 6.820312-7.800781 11.894531-8.878906 1.207031-.3125 2.039063-1.421875 2-2.667969l-.214843-3.386719c.335937-10.230468 6.328124-19.425781 15.546874-23.867187 10.195313-4.464844 22.09375-2.125 29.839844 5.867187 3.332032 3.371094 5.847656 7.457032 7.359375 11.945313.335938.929687 1.15625 1.597656 2.136719 1.734375.960938.136719 1.921875-.261719 2.503906-1.039062 2.496094-3.371094 6.875-4.757813 10.855469-3.441407 4.398437 1.46875 6.90625 5.761719 6.90625 11.574219-.226563 1.441406.75 2.792969 2.1875 3.039062 4.90625.855469 16.371094 4.265626 16.371094 17.867188 0 16.238281-16 17.945312-16.480469 18h-55.332031v5.332031h55.679687c7.46875-.664062 21.546875-6.398437 21.546875-23.332031 0-13.519531-9.28125-20.480469-18.667969-22.667969zm-109.332031 46h-5.332031v-5.332031h5.332031zm24 0h-18.667969v-5.332031h18.667969zm21.332031 0h-16v-5.332031h16zm-24-10.664062h-24v-5.335938h24zm50.667969 0h-32v-5.335938h32zm-26.667969-10.667969h-16v-5.332031h16zm-21.332031 0h-21.332031v-5.332031h21.332031zm10.667969 10.667969h-8v-5.335938h8zm0 0" fill="#fff"/></svg>