<svg height="200" viewBox="0 0 200 200" width="200" xmlns="http://www.w3.org/2000/svg"><g transform="translate(0 50)"><path d="m0 0h200v100h-200z" fill="#fff"/><path d="m105.77734 39.445312h1.85157v16.664063c-.61719 0-1.23438 0-1.85157 0 0-5.554687 0-11.109375 0-16.664063zm0 0"/><path d="m10.484375 40h1.886719v16.109375c-.632813 0-1.261719 0-1.886719 0 0-5.371094 0-10.738281 0-16.109375zm0 0"/><path d="m61.894531 40.054688c2.3125-.304688 4.976563.238281 6.5625 2.066406 1.871094 2.117187 2.136719 4.890625 1.835938 7.59375-.277344 2.242187-1.375 4.402344-3.410157 5.519531-2.328124 1.226563-5.316406 1.199219-7.644531-.0078-2.117187-1.1875-3.160156-3.410156-3.378906-5.761718-.21875-2.535156.04687-5.375 1.839844-7.34375 1.09375-1.253906 2.589843-1.804688 4.195312-2.066406zm0 0"/><path d="m129.92969 40.003906c2.95312.113282 6.4414-.492187 9.09375.929688 2.33593 1.234375 3.5 3.714844 3.58203 6.277344.11719 2.8125-.45703 5.761718-2.92188 7.449218-2.83984 2.039063-6.48828 1.335938-9.7539 1.449219 0-5.371094 0-10.738281 0-16.105469zm0 0"/><path d="m155.04297 39.851562c.67187.191407 1.74219.304688 1.61719 1.257813.125.957031-.94532 1.070313-1.61719 1.261719-.21094-.414063-.41406-.835938-.60547-1.261719.19141-.421875.39453-.84375.60547-1.257813zm0 0"/><path d="m44.3125 41.355469c.03906 1.027343.05859 2.0625.07031 3.089843h3.46875v1.664063c-1.15625 0-2.316406 0-3.472656 0 .05469 2.351563-.195312 4.78125.144532 7.101563.597656 1.738281 2.230468 1.082031 3.648437 1.195312-.226563 2.914062-5.238281 1.90625-5.445313-.539062-.355468-2.488282-.125-5.082032-.136718-7.601563-.738282-.136719-1.472656-.34375-2.199219-.609375.742187-.445312 1.476563-.894531 2.199219-1.378906.445312-1.210938.371094-2.347656 1.722656-2.921875zm0 0"/><path d="m61.726562 41.777344c1.730469-.332032 3.96875-.109375 5.195313 1.3125 1.488281 1.660156 1.644531 4.214844 1.4375 6.328125-.191406 1.828125-.921875 3.636719-2.644531 4.503906-2.179688.972656-5.175782.75-6.714844-1.253906-1.34375-1.738281-1.371094-4.453125-1.101562-6.527344.316406-2.128906 1.636718-3.933594 3.828124-4.363281zm0 0" fill="#fff"/><path d="m131.81641 41.65625c2.08984.05078 4.39843-.277344 6.26562.828125 1.71875.972656 2.45703 2.808594 2.55078 4.710937.0781 2.222657-.13672 4.421876-1.97656 5.914063-1.96875 1.589844-4.47656 1.324219-6.83984 1.351563 0-4.265626 0-8.53125 0-12.804688zm0 0" fill="#fff"/><path d="m16.332031 44.445312h1.539063c.04687.550782.08984 1.097657.132812 1.648438 1.375-.9375 2.5625-1.847656 4.339844-1.664062 1.796875.06641 3.511719.910156 3.816406 2.847656.375 2.902344.09375 5.90625.171875 8.832031-.605469 0-1.210937 0-1.816406 0-.03906-2.582031.117187-5.1875-.07813-7.757813.02344-3.25-5.699219-2.835937-6.058594.0039-.40625 2.527343-.117187 5.195312-.191406 7.753906-.617188 0-1.238281 0-1.855469 0 0-3.886719 0-7.777344 0-11.664063zm0 0"/><path d="m38.144531 45.738281c1.464844 1.554688 1.445313 3.351563 1.605469 5.355469-2.839844.04687-5.671875-.02734-8.511719.0625.402344.898438.640625 2.1875 1.578125 2.671875 1.949219 1.226563 4.382813.433594 6.429688-.113281-.06641.597656-.140625 1.191406-.207032 1.785156-2.421874.628906-4.800781 1.128906-7.089843-.226562-2.582031-1.546876-2.859375-5.417969-1.792969-7.933594 1.28125-3.066406 5.636719-3.921875 7.988281-1.601563zm0 0"/><path d="m73.554688 44.445312h1.527343c.03906.742188.07813 1.488282.113281 2.238282.714844-.679688 1.445313-1.5 2.320313-1.957032.90625-.292968 1.929687-.28125 2.875-.375-.04687.554688-.09766 1.109376-.140625 1.664063-.777344.0625-1.570312.105469-2.339844.246094-1.398437.425781-2.355468 1.703125-2.488281 3.148437-.207031 2.21875-.05469 4.472656-.08203 6.699219-.59375 0-1.191406 0-1.785156 0 0-3.886719 0-7.777344-.000001-11.664063zm0 0"/><path d="m88.660156 44.632812c1.296875.355469 2.222656 1.207032 2.339844 2.582032.261719 2.945312.05078 5.941406.109375 8.894531-.453125 0-.902344 0-1.359375 0-.09375-.507813-.183594-1.015625-.277344-1.519531-1.855468 1.425781-4.015625 2.117187-6.261718 1.078125-1.984376-.867188-2.25-3.941407-.390626-5.097657 1.859376-1.152343 4.613282-1.097656 6.734376-1.214843-.332032-1.066407-.183594-2.617188-1.472657-3.035157-1.386719-.640624-3.328125.203126-4.6875.625l-.511719-1.472656c1.929688-.75 3.671876-1.429687 5.777344-.839844zm0 0"/><path d="m103.16016 44.933594c-.13672.539062-.27735 1.070312-.42188 1.609375-1.93359-.355469-3.999999-1.046875-5.484374.734375-1.171875 1.628906-1.152344 4.828125.269532 6.316406 1.675781 1.460938 3.578122.71875 5.488282.324219 0 .570312-.008 1.144531-.0117 1.714843-2.27344.550782-4.394531.910157-6.445312-.523437-2-1.566406-2.214844-4.203125-1.804688-6.539063.320312-1.652343 1.285156-3.054687 2.882812-3.679687 1.882813-.808594 3.628908-.386719 5.527348.04297zm0 0"/><path d="m119.25391 45.738281c1.46875 1.554688 1.44531 3.351563 1.60547 5.355469-2.83594.04687-5.67188-.02734-8.50782.0625.39844.894531.63672 2.1875 1.57813 2.671875 1.94922 1.234375 4.38281.433594 6.42578-.113281-.0664.597656-.14063 1.191406-.20703 1.785156-2.42188.628906-4.79688 1.128906-7.08594-.226562-2.58594-1.546876-2.85547-5.394532-1.80078-7.921876 1.27344-3.078124 5.64453-3.941406 7.99219-1.613281zm0 0"/><path d="m145.77734 44.445312h1.52735c.0391.742188.0781 1.488282.11328 2.238282.71484-.679688 1.4414-1.5 2.32031-1.957032.90625-.292968 1.92969-.28125 2.87109-.375-.043.554688-.0937 1.109376-.13671 1.664063-.77735.0625-1.57422.105469-2.33985.246094-1.39844.425781-2.35547 1.703125-2.48828 3.148437-.20703 2.21875-.0547 4.472656-.082 6.699219-.59766 0-1.19141 0-1.78516 0 0-3.886719 0-7.777344 0-11.664063zm0 0"/><path d="m154.66797 44.445312h1.77734v11.664063c-.59375 0-1.18359 0-1.77734 0 0-3.886719 0-7.777344 0-11.664063zm0 0"/><path d="m158.38281 44.472656c.60156-.03516 1.20703-.04297 1.81641-.03516 1.32812 3.308594 2.55469 6.664062 3.6914 10.039062 1.14454-3.371093 2.40235-6.699218 3.64844-10.03125.64063.0039 1.27735.0039 1.91797.01172-1.5 3.886719-3.00781 7.769531-4.50781 11.652344-.69922 0-1.40625 0-2.10547 0-1.46484-3.882813-3.05078-7.730469-4.46094-11.636719zm0 0"/><path d="m179.25391 45.738281c1.46875 1.554688 1.44531 3.351563 1.60546 5.355469-2.83593.04687-5.67187-.02734-8.50781.0625.39844.898438.63672 2.1875 1.57813 2.671875 1.94922 1.226563 4.38281.433594 6.42578-.113281-.0664.597656-.14063 1.191406-.20703 1.785156-2.42188.628906-4.79688 1.128906-7.08594-.226562-2.58594-1.546876-2.85547-5.394532-1.80078-7.921876 1.27344-3.078124 5.64453-3.941406 7.99219-1.613281zm0 0"/><path d="m184.10937 44.445312h1.53125c.0391.742188.0742 1.488282.10938 2.238282.71484-.679688 1.44531-1.5 2.32031-1.957032.90625-.292968 1.92969-.28125 2.875-.375-.0469.554688-.0937 1.109376-.14062 1.664063-.77735.0625-1.57032.105469-2.33985.246094-1.39843.425781-2.35547 1.703125-2.48828 3.148437-.20312 2.21875-.0547 4.472656-.082 6.699219-.59375 0-1.1875 0-1.78516 0 0-3.886719 0-7.777344 0-11.664063zm0 0"/><g fill="#fff"><path d="m35.003906 46.09375c2.152344.144531 2.347656 1.59375 2.90625 3.300781-2.199218.06641-4.398437.07031-6.597656.0039.699219-1.902344 1.335938-3.414063 3.691406-3.304688zm0 0"/><path d="m116.11719 46.09375c2.14844.144531 2.34375 1.59375 2.90625 3.300781-2.20313.06641-4.40235.07031-6.60156.0039.69921-1.902344 1.33984-3.414063 3.69531-3.304688zm0 0"/><path d="m176.11719 46.09375c2.14843.144531 2.34375 1.59375 2.90625 3.300781-2.20313.06641-4.40235.07031-6.60157.0039.69922-1.902344 1.33985-3.414063 3.69532-3.304688zm0 0"/><path d="m89.464844 51.078125c-.21875.78125-.1875 1.988281-.875 2.515625-1.035156.910156-3.222656 1.15625-4.421875.554688-1-.402344-.875-1.769532-.08984-2.335938 1.550781-.789062 3.6875-.683594 5.386719-.734375zm0 0"/></g></g></svg>