<svg height="200" viewBox="0 0 200 200" width="200" xmlns="http://www.w3.org/2000/svg"><g stroke="#000" stroke-linecap="round" stroke-linejoin="round" stroke-miterlimit="30" stroke-width="10" transform="matrix(.333333 0 0 .333333 -56.615061 -31.479083)"><path d="m233.864716 186.886467v396.128906l.339843.09375 312.339844 91.6875.632813.1875v-.65625l.117187-419.097656v-.398438l-.398437-.09375-312.445313-67.722656zm.996093 1.21875 311.4375 67.5-.128906 418.066406-311.308594-91.371094zm0 0"/><path d="m704.794403 192.452873-.679687.28125-157.59375 62.214844-.316407.128906v.339844l.1875 419.132812v.75l.691407-.28125 156.058593-63.1875.316407-.128906v-.339844l1.335937-418.160156zm-.996094 1.441406-1.347656 417.117188-155.0625 62.789062-.1875-418.03125zm0 0"/><path d="m413.267059 123.265373-.152343.058594-178.570313 63.597656.351563.9375 178.429687-63.5625 291.035156 69.09375.222657-.972656-291.164063-69.117188zm0 0"/><path d="m413.302216 263.386467-.128907.035156-178.933593 47.964844-1.816407.46875 1.816407.503906 311.625 83.496094.152343.035156.128907-.058594 157.59375-53.660156 1.558593-.527344-1.59375-.445312-290.285156-77.777344zm0 1.03125 288.585937 77.34375-155.929687 53.097656-309.65625-83.003906zm0 0"/><path d="m412.798309 226.800529v37.125h.996094v-37.125zm0 0"/><path d="m233.864716 188.515373v393.28125h.996093v-393.28125zm0 0"/><path d="m413.302216 394.859123-.128907.035156-178.59375 46.78125-1.78125.46875 1.78125.492188 311.285157 88.21875.152343.035156.128907-.058594 156.714843-56.25 1.464844-.539062-1.523437-.398438-289.382813-78.75zm0 1.03125 287.683593 78.28125-155.027343 55.6875-309.351563-87.691406zm0 0"/><path d="m413.302216 529.859123-.164063.035156-178.558594 52.3125.28125.960938 178.441407-52.277344 289.59375 80.25.28125-.972656-289.757813-80.273438zm0 0"/><path d="m412.798309 360.206779v35.15625h.996094v-35.15625zm0 0"/><path d="m412.763153 492.886467v37.441406h1.03125v-37.441406zm0 0"/></g></svg>