<svg height="200" viewBox="0 0 200 200" width="200" xmlns="http://www.w3.org/2000/svg" xmlns:xlink="http://www.w3.org/1999/xlink"><linearGradient id="a" gradientUnits="userSpaceOnUse" x1="-41.44000518" x2="241.41336084333" y1="241.44003284667" y2="-41.41333851"><stop offset="0" stop-color="#2e27ad"/><stop offset="1" stop-color="#527fff"/></linearGradient><path d="m0 0h200v200h-200z" fill="url(#a)"/><g fill="#fff"><path d="m100 166.667969c-21.972656 0-45.332031-6.375-45.332031-18.1875v-96.960938h5.332031v96.960938c0 5.332031 15.226562 12.851562 40 12.851562s40-7.464843 40-12.851562v-96.960938h5.332031v96.960938c0 11.8125-23.359375 18.1875-45.332031 18.1875zm0 0"/><path d="m100 166.667969c-21.972656 0-45.332031-6.375-45.332031-18.1875v-96.960938h5.332031v96.960938c0 5.332031 15.226562 12.851562 40 12.851562s40-7.464843 40-12.851562v-96.960938h5.332031v96.960938c0 11.8125-23.359375 18.1875-45.332031 18.1875zm0 0"/><path d="m100 69.679688c-21.972656 0-45.332031-6.371094-45.332031-18.160157 0-11.785156 23.359375-18.1875 45.332031-18.1875s45.332031 6.375 45.332031 18.1875-23.359375 18.160157-45.332031 18.160157zm0-31.011719c-24.773438 0-40 7.464843-40 12.851562s15.226562 12.828125 40 12.828125 40-7.46875 40-12.828125-15.226562-12.851562-40-12.851562zm0 0"/><path d="m91.257812 110.421875 1.183594-5.203125 16.171875 3.679688-1.179687 5.199218zm0 0"/><path d="m114.960938 104.914062 6.167968-15.625 4.960938 1.957032-6.167969 15.628906zm0 0"/><path d="m74.84375 124.234375 5.441406-12.753906 4.90625 2.09375-5.441406 12.753906zm0 0"/><path d="m74.667969 140.71875c-5.15625 0-9.335938-4.175781-9.335938-9.332031s4.179688-9.332031 9.335938-9.332031c5.152343 0 9.332031 4.175781 9.332031 9.332031s-4.179688 9.332031-9.332031 9.332031zm0-13.332031c-2.210938 0-4 1.789062-4 4 0 2.210937 1.789062 4 4 4 2.207031 0 4-1.789063 4-4 0-2.210938-1.792969-4-4-4zm0 0"/><path d="m85.332031 115.707031c-5.152343 0-9.332031-4.179687-9.332031-9.332031 0-5.15625 4.179688-9.335938 9.332031-9.335938 5.15625 0 9.335938 4.179688 9.335938 9.335938 0 5.152344-4.179688 9.332031-9.335938 9.332031zm0-13.332031c-2.207031 0-4 1.789062-4 4 0 2.207031 1.792969 4 4 4 2.210938 0 4-1.792969 4-4 0-2.210938-1.789062-4-4-4zm0 0"/><path d="m114.667969 121.332031c-5.15625 0-9.335938-4.175781-9.335938-9.332031s4.179688-9.332031 9.335938-9.332031c5.152343 0 9.332031 4.175781 9.332031 9.332031s-4.179688 9.332031-9.332031 9.332031zm0-13.332031c-2.210938 0-4 1.789062-4 4s1.789062 4 4 4c2.207031 0 4-1.789062 4-4s-1.792969-4-4-4zm0 0"/><path d="m125.332031 93.332031c-5.152343 0-9.332031-4.175781-9.332031-9.332031s4.179688-9.332031 9.332031-9.332031c5.15625 0 9.335938 4.175781 9.335938 9.332031v.132812c-.089844 5.097657-4.238281 9.1875-9.335938 9.199219zm0-13.332031c-2.191406 0-3.972656 1.765625-3.996093 3.957031-.023438 2.191407 1.71875 3.992188 3.910156 4.042969 2.191406.046875 4.015625-1.675781 4.085937-3.867188.039063-1.082031-.367187-2.136718-1.121093-2.914062-.753907-.78125-1.792969-1.21875-2.878907-1.21875zm0 0"/></g></svg>