<svg height="200" viewBox="0 0 200 200" width="200" xmlns="http://www.w3.org/2000/svg" xmlns:xlink="http://www.w3.org/1999/xlink"><clipPath id="a"><path d="m15 0h173v322h-173zm0 0"/></clipPath><clipPath id="b"><path d="m15.539062 302.59375s97.687498 48.42969 172.425778-9.12891c-19.49218-52.25781-53.71484-203.019528-73.92187-269.601559-4.30859-14.195312-5.01172-15.609375-6.77734-19.507812-9.863286-21.808594-20.238286 42.320312-37.113286 106.875001-6.042969 23.13672-54.613282 191.36328-54.613282 191.36328zm0 0"/></clipPath><linearGradient id="c"><stop offset="0" stop-color="#3871c1"/><stop offset=".515" stop-color="#2c3792"/><stop offset=".865" stop-color="#24265d"/><stop offset="1" stop-color="#252761"/></linearGradient><linearGradient id="d" gradientTransform="matrix(-263.11296 139.55707 -139.69841 -262.84674 276.10652 78.427459)" gradientUnits="userSpaceOnUse" x1="0" x2="1" xlink:href="#c" y1="0" y2="0"/><clipPath id="e"><path d="m35 5h153v310h-153zm0 0"/></clipPath><clipPath id="f"><path d="m35.242188 291.89062s83.574222 48.98829 152.722652 1.57422c-1.85156-8.25-6.57031-21.49609-9.77343-33.83593-17.02344-65.5625-47.83594-176.25391-62.84766-231.207035-16.273438-59.5-21.535156 10.074219-40.519531 84.105465-5.765625 22.51172-39.582031 179.36328-39.582031 179.36328zm0 0"/></clipPath><linearGradient id="g" gradientTransform="matrix(-153.54647 40.015435 -40.055963 -153.39112 148.80114 152.5596)" gradientUnits="userSpaceOnUse" x1="0" x2="1" xlink:href="#c" y1="0" y2="0"/><g transform="matrix(.58213413 0 0 .58213413 42.518667 6.205219)"><g clip-path="url(#a)"><g clip-path="url(#b)"><path d="m15.539062 302.59375s97.687498 48.42969 172.425778-9.12891c-19.49218-52.25781-53.71484-203.019528-73.92187-269.601559-4.30859-14.195312-5.01172-15.609375-6.77734-19.507812-9.863286-21.808594-20.238286 42.320312-37.113286 106.875001-6.042969 23.13672-54.613282 191.36328-54.613282 191.36328" fill="url(#d)"/></g></g><g clip-path="url(#e)"><g clip-path="url(#f)"><path d="m35.242188 291.89062s83.574222 48.98829 152.722652 1.57422c-1.85156-8.25-6.57031-21.49609-9.77343-33.83593-17.02344-65.5625-47.83594-176.25391-62.84766-231.207035-16.273438-59.5-21.535156 10.074219-40.519531 84.105465-5.765625 22.51172-39.582031 179.36328-39.582031 179.36328" fill="url(#g)"/></g></g><path d="m57.890625 249.44531 8.683594-14.97265 8.117187 15.77343-9.285156 20.33985zm70.929685-56.66015 8.6875-14.97266 8.11719 15.77344-9.29297 20.33984zm-48.562498-59.79297 8.6875-14.96875 8.113282 15.77343-9.289063 20.33985z" fill="#f8a628"/><path d="m57.890625 249.44531 8.699219-17.53125 8.101562 18.33203-9.273437 15zm70.929685-56.66015 8.70313-17.53125 8.10156 18.33203-9.27344 14.99609zm-48.562498-59.79297 8.699219-17.52735 8.101563 18.33203-9.273438 14.9961z" fill="#fff000"/><path d="m66.550781 290.44922s62.214839 10.36719 103.175779-15.82422c-5.13672 15.82422-51.0625 33.85547-103.175779 15.82422" fill="#23235c"/></g></svg>