<svg height="200" viewBox="0 0 200 200" width="200" xmlns="http://www.w3.org/2000/svg"><path d="m105.699219 109.058594c-8.199219 8.199218-8.199219 21.496094 0 29.695312 8.203125 8.199219 21.496093 8.199219 29.695312 0 8.203125-8.199218 8.203125-21.496094 0-29.695312-8.199219-8.199219-21.492187-8.199219-29.695312 0zm22.199219 22.21875c-4.058594 4.058594-10.640626 4.058594-14.699219 0-4.0625-4.0625-4.0625-10.640625 0-14.703125 4.058593-4.058594 10.640625-4.058594 14.699219 0 4.0625 4.042969 4.0625 10.640625 0 14.703125zm7.144531-125.539063-12.863281 12.867188c-2.519532 2.519531-2.519532 6.65625 0 9.175781l50.234374 50.234375c2.519532 2.519531 6.65625 2.519531 9.175782 0l12.867187-12.867187c2.515625-2.515626 2.515625-6.65625 0-9.175782l-50.253906-50.234375c-2.519531-2.515625-6.640625-2.515625-9.160156 0zm-90.136719 164.410157c2.28125-2.285157 2.28125-6.011719 0-8.296876l-6.542969-6.542968c-2.285156-2.28125-6.011719-2.28125-8.296875 0l-13.53125 13.53125-3.707031-3.710938c-2.050781-2.046875-5.390625-2.046875-7.421875 0-2.046875 2.050782-2.046875 5.390625 0 7.421875l22.257812 22.257813c2.050782 2.046875 5.390626 2.046875 7.417969 0 2.03125-2.050782 2.050781-5.390625 0-7.421875l-3.707031-3.707031zm0 0" fill="#f5a800"/><path d="m112.964844 42.679688-28.582032 28.582031c-2.539062 2.539062-2.539062 6.714843 0 9.253906l17.648438 17.648437c12.476562-8.980468 29.96875-7.867187 41.195312 3.359376l14.289063-14.292969c2.539063-2.535157 2.539063-6.714844 0-9.253907l-35.296875-35.296874c-2.539062-2.558594-6.71875-2.558594-9.253906 0zm-18.351563 62.921874-10.425781-10.425781c-2.441406-2.4375-6.445312-2.4375-8.886719 0l-36.761719 36.785157c-2.441406 2.441406-2.441406 6.441406 0 8.882812l20.832032 20.832031c2.441406 2.441407 6.441406 2.441407 8.882812 0l23.644532-23.683593c-5-10.328126-4.101563-22.804688 2.714843-32.390626zm0 0" fill="#425cc7"/></svg>