<svg height="200" viewBox="0 0 200 200" width="200" xmlns="http://www.w3.org/2000/svg" xmlns:xlink="http://www.w3.org/1999/xlink"><clipPath id="a"><path d="m200 100c0 55.226562-44.773438 100-100 100s-100-44.773438-100-100 44.773438-100 100-100 100 44.773438 100 100zm0 0"/></clipPath><clipPath id="b"><path d="m51 61h98v78h-98zm0 0"/></clipPath><clipPath id="c"><path d="m200 100c0 55.226562-44.773438 100-100 100s-100-44.773438-100-100 44.773438-100 100-100 100 44.773438 100 100zm0 0"/></clipPath><g clip-path="url(#a)"><path d="m0 0h200v200h-200z" fill="#ffca28"/></g><g clip-path="url(#b)"><g clip-path="url(#c)"><path d="m90.277344 61.113281h-29.164063c-5.351562 0-9.675781 4.375-9.675781 9.71875l-.050781 58.335938c0 5.34375 4.375 9.71875 9.726562 9.71875h77.773438c5.351562 0 9.726562-4.375 9.726562-9.71875v-48.613281c0-5.347657-4.375-9.722657-9.726562-9.722657h-38.886719zm7.046875 56.921875 15.636719-18.035156 21.066406 24.304688h-63.195313l15.800781-19.441407zm0 0" fill="#fff" fill-rule="evenodd"/></g></g></svg>