<svg height="200" viewBox="0 0 200 200" width="200" xmlns="http://www.w3.org/2000/svg"><path d="m185.25 45.601562c-.46875-.386718-1.0625-.585937-1.671875-.558593-1.664063 0-3.816406 1.128906-4.976563 1.734375l-.457031.234375c-1.945312.941406-4.058593 1.472656-6.21875 1.566406-2.210937.070313-4.117187.199219-6.597656.457031-14.707031 1.511719-21.265625 12.785156-27.582031 23.683594-3.441406 5.929688-6.996094 12.089844-11.867188 16.792969-1.007812.976562-2.078125 1.886719-3.207031 2.722656-5.039063 3.75-11.367187 6.425781-16.292969 8.320313-4.742187 1.8125-9.917968 3.441406-14.917968 5.015624-4.582032 1.441407-8.90625 2.808594-12.882813 4.285157-1.792969.664062-3.316406 1.175781-4.664063 1.621093-3.621093 1.175782-6.234374 2.078126-10.050781 4.707032-1.488281 1.015625-2.984375 2.117187-3.996093 2.941406-3.03125 2.417969-5.710938 5.242188-7.96875 8.394531-1.941407 2.90625-4.1875 5.597657-6.695313 8.035157-.804687.789062-2.234375 1.175781-4.375 1.175781-2.507813 0-5.546875-.519531-8.765625-1.066407-3.316406-.585937-6.746094-1.144531-9.6875-1.144531-2.390625 0-4.21875.386719-5.582031 1.175781 0 0-2.300781 1.339844-3.273438 3.078126l.953125.425781c1.480469.804687 2.847656 1.792969 4.070313 2.941406 1.277343 1.179687 2.703125 2.195313 4.238281 3.011719.488281.179687.933594.464844 1.304688.832031-.402344.585937-.988282 1.347656-1.605469 2.15625-3.394531 4.441406-5.378907 7.25-4.242188 8.777344.542969.285156 1.152344.421875 1.765625.402343 7.398438 0 11.375-1.925781 16.40625-4.359374 1.457032-.707032 2.941406-1.429688 4.703125-2.175782 2.941407-1.277344 6.105469-3.3125 9.464844-5.464844 4.394531-2.867187 8.988281-5.808593 13.449219-7.226562 3.664062-1.117188 7.480468-1.652344 11.3125-1.585938 4.703125 0 9.65625.628907 14.433594 1.238282 3.558593.460937 7.246093.929687 10.863281 1.148437 1.40625.082031 2.707031.125 3.972656.125 1.691406.003907 3.382813-.085937 5.0625-.265625l.40625-.140625c2.535156-1.558593 3.726563-4.90625 4.878906-8.140625.738281-2.082031 1.363281-3.953125 2.351563-5.140625.058594-.058593.121094-.113281.1875-.160156.097656-.054687.214844-.035156.289062.046875v.09375c-.589844 12.652344-5.683594 20.6875-10.835937 27.828125l-3.441407 3.691406s4.820313 0 7.558594-1.058593c10-2.988282 17.546875-9.578126 23.042969-20.085938 1.355469-2.695312 2.566406-5.460938 3.628906-8.285156.09375-.238282.957031-.671875.875.546875-.027343.359375-.050781.757812-.082031 1.175781 0 .246094 0 .5-.046875.753906-.140625 1.761719-.558594 5.492188-.558594 5.492188l3.089844-1.652344c7.445313-4.707031 13.1875-14.199219 17.539063-28.972656 1.8125-6.152344 3.140624-12.261719 4.3125-17.644532 1.402343-6.472656 2.605468-12.019531 3.988281-14.171874 2.171875-3.375 5.484375-5.65625 8.6875-7.875.4375-.300782.878906-.589844 1.308593-.90625 4.027344-2.828126 8.035157-6.09375 8.917969-12.183594v-.132813c.640625-4.542969.097657-5.703125-.519531-6.230469zm0 0" fill="#003545"/></svg>