<?xml version="1.0" encoding="UTF-8"?>
<svg width="718px" height="198px" viewBox="0 0 718 198" version="1.1" xmlns="http://www.w3.org/2000/svg" xmlns:xlink="http://www.w3.org/1999/xlink">
    <title>Rockset logo</title>
    <g id="Rockset-logo" stroke="none" stroke-width="1" fill="none" fill-rule="evenodd">
        <g id="RsLogo_[Rockset]-Color-Copy" fill-rule="nonzero">
            <path d="M127.55,81.75 C127.55,63.75 115.23,50.59 95.09,50.59 L49.87,50.59 L49.87,147.26 L70.45,147.26 L70.45,112.62 L85.52,112.62 L104.52,147.26 L128.14,147.26 L106.4,110.45 C116.83,108 127.55,98.86 127.55,81.75 Z" id="Path" fill="#660099"></path>
            <path d="M185.39,49 C156.26,49 135,69.87 135,99 C135,128.13 156.3,149 185.43,149 C214.71,149 236.01,128.13 236.01,99 C236.01,69.87 214.67,49 185.39,49 Z M185.39,130.74 C167.56,130.74 156.12,116.97 156.12,99 C156.12,80.88 167.56,67.26 185.39,67.26 C203.22,67.26 214.81,80.88 214.81,99 C214.81,117 203.22,130.74 185.39,130.74 Z" id="Shape" fill="#660099"></path>
            <path d="M294.28,67.26 C304.107893,67.2223528 313.146349,72.6369541 317.75,81.32 L335.44,72.62 C328.62,60.62 316.31,49 294.28,49 C266.01,49 243.55,69.29 243.55,99 C243.55,128.71 266.01,149 294.28,149 C316.28,149 328.48,137.26 335.44,125.23 L317.75,116.68 C313.190942,125.405242 304.124058,130.836874 294.28,130.74 C277.46,130.74 264.71,117.26 264.71,99 C264.71,80.74 277.46,67.26 294.28,67.26 Z" id="Path" fill="#660099"></path>
            <polygon id="Path" fill="#660099" points="425.84 50.59 400.48 50.59 366.28 93.78 366.28 50.59 345.7 50.59 345.7 147.26 366.28 147.26 366.28 117.55 373.81 108.56 403.09 147.26 428.45 147.26 387.44 95.96"></polygon>
            <path d="M471.45,88.13 C460.29,85.52 452.17,83.49 452.17,76.97 C452.17,71.17 457.1,67.12 466.38,67.12 C476.598984,67.094504 486.46331,70.8649004 494.06,77.7 L505.51,62.62 C495.94,53.78 483.19,49.14 467.83,49.14 C445.07,49.14 431.16,62.19 431.16,78.28 C431.16,99.87 451.45,104.22 467.25,107.84 C478.41,110.45 486.81,112.91 486.81,120.16 C486.81,125.67 481.3,131.03 470,131.03 C458.413449,131.078272 447.312363,126.380547 439.28,118.03 L428,133.64 C437.13,142.77 450.47,149 469,149 C495.08,149 507.69,135.67 507.69,118 C507.68,96.54 487.39,91.75 471.45,88.13 Z" id="Path" fill="#660099"></path>
            <polygon id="Path" fill="#660099" points="520.07 147.26 588.48 147.26 588.48 129.44 540.65 129.44 540.65 106.97 587.47 106.97 587.47 89.29 540.65 89.29 540.65 68.28 588.48 68.28 588.48 50.59 520.07 50.59"></polygon>
            <polygon id="Path" fill="#660099" points="596.03 50.59 596.03 68.71 624.29 68.71 624.29 147.26 645.02 147.26 645.02 68.71 673.13 68.71 673.13 50.59"></polygon>
            <polygon id="Path" fill="#63C0DD" points="60 20 60 0 0 0 0 10 0 20 0 178 0 188 0 198 60 198 60 178 20 178 20 20"></polygon>
            <polygon id="Path" fill="#63C0DD" points="658 20 658 0 718 0 718 10 718 20 718 178 718 188 718 198 658 198 658 178 698 178 698 20"></polygon>
        </g>
    </g>
</svg>