<?xml version="1.0" encoding="UTF-8"?>
<svg width="32px" height="32px" viewBox="0 0 32 32" version="1.1" xmlns="http://www.w3.org/2000/svg" xmlns:xlink="http://www.w3.org/1999/xlink">
    <!-- Generator: Sketch 55.2 (78181) - https://sketchapp.com -->
    <title>Provider / elasticsearch</title>
    <desc>Created with Sketch.</desc>
    <g id="Provider-/-elasticsearch" stroke="none" stroke-width="1" fill="none" fill-rule="evenodd">
        <g transform="translate(4.500000, 2.500000)" id="Shape">
            <path d="M1.77635684e-15,12.7242823 C0.00451996029,13.7689883 0.148711222,14.8089517 0.429136029,15.819378 L16.3480392,15.819378 C18.1537938,15.819378 19.6176471,14.4336564 19.6176471,12.7242823 C19.6176471,11.0149081 18.1537938,9.6291866 16.3480392,9.6291866 L0.445484069,9.6291866 C0.159541136,10.6389427 0.00985529784,11.678917 1.77635684e-15,12.7242823 Z" fill="#343741"></path>
            <path d="M21.7456241,6.43952502 C22.197492,6.00867793 22.6168563,5.54222545 23,5.04430189 C20.2412823,1.44450015 15.9027365,-0.428595496 11.5088955,0.0832068529 C7.11505448,0.595009202 3.28060389,3.42010988 1.35294118,7.56578947 L18.9908373,7.56578947 C20.0123588,7.56467626 20.9959674,7.16253864 21.7456241,6.43952502 Z" fill="#FEC514"></path>
            <path d="M18.9908373,18.5705742 L1.35294118,18.5705742 C3.28060389,22.7162538 7.11505448,25.5413544 11.5088955,26.0531568 C15.9027365,26.5649591 20.2412823,24.6918635 23,21.0920617 C22.6168563,20.5941382 22.197492,20.1276857 21.7456241,19.6968386 C20.9959674,18.973825 20.0123588,18.5716874 18.9908373,18.5705742 Z" fill="#00BFB3"></path>
        </g>
    </g>
</svg>