<svg height="200" viewBox="0 0 200 200" width="200" xmlns="http://www.w3.org/2000/svg"><path d="m0 0h200v200h-200z" fill="#49659f"/><g fill="#fff"><path d="m44.210938 78.640625c2.089843-.027344 4.179687.003906 6.273437-.007813.007813 2 0 4 0 6.003907-1.296875.027343-2.609375-.042969-3.90625.03125-.6875.039062-1.269531.519531-1.398437 1.203125-.210938 1.21875-.128907 2.511718-.128907 3.75 1.828125.011718 3.65625.003906 5.484375.003906-.191406 1.996094-.40625 3.992188-.652344 5.980469-1.613281.003906-3.222656 0-4.835937.003906-.035156 5.738281.050781 11.484375-.046875 17.222656-2.332031-.027343-4.675781-.027343-7.007812-.003906-.097657-5.734375-.015626-11.480469-.042969-17.21875-1.167969 0-2.335938 0-3.503907 0-.007812-1.992187-.007812-3.988281-.003906-5.980469 1.167969 0 2.332032 0 3.5-.007812.035156-1.582032-.042968-3.175782.035156-4.753906.140626-1.660157.695313-3.433594 1.972657-4.578126 1.089843-1.0625 2.773437-1.535156 4.261719-1.648437zm0 0"/><path d="m83.089844 89.289062c2.699218-.09375 5.363281.269532 7.980468.925782.007813 1.964844-.007812 3.929687.007813 5.894531-2.289063-.398437-4.648437-.792969-6.976563-.816406-1.140624.101562-2.71875.199219-3.320312 1.351562-.503906 1.410157-.355469 3.175781-.371094 4.65625.019532 1.382813-.136718 3.023438.335938 4.339844.296875.90625 1.472656 1.292969 2.328125 1.410156 2.5625.359375 5.441406-.394531 7.992187-.75 0 1.964844.027344 3.933594-.015625 5.898438-3.414062.75-7.191406 1.265625-10.652343.617187-2.507813-.492187-4.777344-1.859375-6.019532-4.148437-1.453125-2.46875-1.179687-5.945313-1.210937-8.710938.035156-2.433593.179687-5.152343 1.78125-7.125 1.863281-2.582031 5.078125-3.535156 8.140625-3.542969zm0 0"/><path d="m105.230469 89.304688c3.105469.304687 6.054687 1.621093 7.378906 4.617187 1.136719 2.78125.6875 6.40625.769531 9.390625-4.339844.003906-8.675781-.003906-13.019531.003906.082031.980469.015625 2.050782.664063 2.859375.476562.589844 1.136718.703125 1.84375.8125 3.414062.320313 6.585937-.171875 9.933593-.71875-.007812 1.988281 0 3.976563-.003906 5.964844-3.058594.648437-6.125.921875-9.25.902344-2.570313-.101563-5.25-.503907-7.304687-2.183594-2.078126-1.636719-3.03125-4.386719-3.027344-6.964844.019531-2.242187-.003906-4.484375.007812-6.726562.054688-2.445313 1.03125-4.8125 3.0625-6.257813 2.414063-1.8125 6.066406-1.941406 8.945313-1.699218zm0 0"/><path d="m129.726562 89.304688c1.394532.105468 2.894532.382812 4.058594 1.207031 1.566406 1.101562 2.65625 2.804687 2.996094 4.6875.554688 2.953125.414062 6.125.398438 9.125-.128907 1.902343-.097657 4.292969-1.179688 5.941406-.679688 1.171875-2 1.804687-3.257812 2.164063-3.035157.777343-6.152344.566406-9.140626-.328126 0 3.257813.019532 6.515626-.003906 9.777344-2.414062.4375-4.828125.863282-7.238281 1.316406.011719-11.207031.003906-22.417968.003906-33.632812 1.996094-.003906 3.992188-.003906 5.988281-.003906.121094.472656.242188.941406.363282 1.40625 2.238281-1.050782 4.496094-1.800782 7.011718-1.660156zm0 0"/><path d="m53.761719 89.652344c2.953125-.042969 5.917969-.042969 8.875 0 2.222656.164062 4.949219.683594 6.378906 2.578125 1.277344 1.71875 1.335937 4.328125 1.433594 6.382812.003906 4.730469.007812 9.460938-.003907 14.191407-1.953124-.007813-3.914062.046874-5.859374-.011719-.363282-.242188-.378907-.957031-.546876-1.34375-2.699218 1.320312-5.640624 1.964843-8.625 1.394531-2.238281-.523438-3.875-2.347656-4.398437-4.554688-.390625-1.582031-.335937-3.480468.164063-5.035156.628906-1.761718 2.234374-2.980468 4.054687-3.289062 2.570313-.476563 5.351563-.179688 7.976563-.296875-.058594-1.023438.039062-2.292969-.425782-3.230469-.558594-.664062-1.679687-.816406-2.496094-.832031-2.398437-.007813-4.792968.007812-7.191406 0 .207032-1.988281.402344-3.980469.664063-5.953125zm0 0"/><path d="m146.492188 89.609375c1.890624 4.640625 3.484374 9.410156 5.402343 14.035156 1.484375-4.671875 3.019531-9.332031 4.503907-14.003906 2.648437-.019531 5.300781-.011719 7.953124-.003906-2.816406 8.109375-5.777343 16.167969-8.628906 24.261719-.976562 2.738281-2.304687 5.328124-4.949218 6.785156-2.832032 1.480468-6.171876 1.214844-9.25 1.167968.007812-2.027343-.007813-4.050781.011718-6.078124 1.792969.097656 4.113282.347656 5.710938-.632813.773437-.707031 1.054687-2.128906.550781-3.0625-3.125-7.457031-6.195313-14.945313-9.355469-22.386719 2.679688-.148437 5.371094 0 8.050782-.082031zm0 0"/></g><path d="m105.414062 95.425781c.722657.691407.644532 2.070313.746094 2.992188-1.929687.011719-3.859375.015625-5.792968-.003907.070312-1.195312-.105469-2.523437 1.011718-3.304687 1.144532-.664063 3.015625-.566406 4.035156.316406zm0 0" fill="#49659f"/><path d="m127.367188 95.71875c1.238281.023438 2.285156.804688 2.496093 2.050781.183594 1.378907.042969 2.808594.082031 4.203125-.015624 1.015625.085938 2.082032-.097656 3.085938-.238281 1.09375-1.398437 1.757812-2.472656 1.695312-1.375.078125-2.613281-.320312-3.785156-1.007812.039062-3.070313.011718-6.144532.011718-9.214844 1.097657-.519531 2.5625-.800781 3.765626-.8125zm0 0" fill="#49659f"/><path d="m59.261719 104.558594c1.289062-.113282 2.59375-.007813 3.886719-.074219.042968.820313.058593 1.640625.050781 2.464844-1.222657.488281-2.773438 1.222656-4.097657.835937-1.398437-.324218-1.601562-3.273437.160157-3.226562zm0 0" fill="#49659f"/></svg>