<svg height="200" viewBox="0 0 200 200" width="200" xmlns="http://www.w3.org/2000/svg"><path d="m174.832031 84.476562c-1.054687-1.09375-2.800781-1.09375-3.859375.003907-1.191406 1.1875-1.050781 3.234375.425782 4.214843.902343.597657 2.109374.597657 3.007812 0 1.472656-.980468 1.617188-3.027343.425781-4.21875m-3.53125-9.28125c-7.296875-1.710937-13.851562 4.84375-12.136719 12.136719.867188 3.71875 3.820313 6.667969 7.535157 7.539063 7.300781 1.714844 13.855469-4.851563 12.140625-12.144532-.875-3.71875-3.824219-6.664062-7.539063-7.53125m-48.175781 41.082032c-4.753906-1.761719-6.59375-1.40625-12.671875-1.324219-4.214844.054687-4.367187-.089844-9.175781-.089844-1.488282 0-2.035156 7.121094 3.339844 8.597657 2.355468.652343 4.898437 1.058593 6.664062 2.871093.789062.796875 1.226562 2.003907-.585938 2.003907h-13.34375c-2.335937 0-4.542968.058593-6.328124-1.457032-2.695313-2.273437-3.953126-5.410156-5.300782-8.519531-1.398437-3.230469-2.910156-6.414063-4.679687-9.460937-3.527344-6.058594-8.183594-11.539063-14.4375-14.890626-7.804688-4.183593-21.050781-6.257812-31.539063 1.792969-11.054687 8.492188-8.683594 24.386719.984375 32.164063 3.816407 3.074218 8.792969 4.359375 13.6875 4.070312 9.558594-.558594 16.609375-7.601562 14.859375-16.273437-.582031-2.90625-2.277344-5.652344-4.828125-7.148438-1.8125-1.058593-3.960937-1.441406-6.066406-1.445312-2.257813-.003907-4.65625.464843-6.28125 2.035156-1.917969 1.859375-2.230469 5.140625-.695313 7.335937.847657 1.210938 2.234376 2.234376 2 3.816407-.160156 1.070312-1.042968 1.863281-2.097656 2.097656-1.796875.398437-3.4375-.621094-4.644531-1.867187-3.109375-3.203126-4.085937-8.300782-2.371094-12.417969 2.234375-5.398438 8.453125-8.367188 14.292969-8.175781 7.523438.253906 14.621094 5.21875 17.703125 12.089843 3.089844 6.871094 2.160156 15.304688-2.089844 21.523438-9.453125 13.816406-32.792969 12.179687-43.632812.53125-6.800781-7.304688-10.5-14.398438-9.980469-27.601563.363281-9.335937 5.746094-18.527344 12.613281-24.992187 11.183594-10.539063 25.910157-17.746094 40.898438-20.859375 9.105469-1.875 18.503906-2.320313 27.738281-1.398438 8.152344.8125 16.253906 2.304688 24.085938 4.730469 3.886718 1.210937 7.707031 2.648437 11.40625 4.347656 3.261718 1.496094 7.539062 3.128907 10.082031 5.71875 0-4.683593-.1875-9.832031-.1875-13.414062 0-1.371094 1.441406-2.292969 2.671875-1.710938 5.300781 2.464844 17.855468 8.394531 26.226562 12.222657 11.222656 5.125 12.015625 17.222656 12.40625 27.949218.011719.234375.023438.484375-.085937.695313-.355469.734375-2.246094.539062-2.9375.546875-1.339844.015625-3.371094.003906-4.707031.0625-2.679688.121094-5.289063.070312-7.96875-.0625-4.953126-.242188-9.742188-2.449219-12.953126-5.136719-.316406-.265625-1.351562-.5625-1.839843-.054687-.507813.523437-.332031 1.339843-.058594 1.621093 1.839844 1.855469 3.832031 3.054688 6.152344 4.253907 2.949219 1.511718 6.160156 1.898437 9.417969 2.085937 3.488281.207031 7.003906.15625 10.488281-.203125 2.902343-.292969 3.652343-.496094.785156 1.636719-2.519531 1.871093-5.441406 3.21875-8.40625 4.214843-4.25 1.445313-8.742187 2.164063-13.226563 2.285157-2.714843.074219-5.433593-.066407-8.128906-.417969-1.394531-.171875-2.777344-.425781-4.179687-.566406-1.132813-.117188-2.3125-.328125-3.445313-.085938-1.027344.226563-1.976562.78125-2.625 1.617188-.886718 1.15625-1.191406 4.335937-.679687 5.71875.992187 2.664062 3.167969 4.21875 5.460937 5.585937 2.492188 1.480469 5.765625 1.984375 6.402344 4.816407.132812.589843-5.160156.605468-5.757812.59375h-7.042969s-3.828125.09375-5.316407-.449219c-.054687-.011719-.089843-.039063-.136718-.058594-.8125-.4375-1.164063-1.519531-1.4375-2.339844-.390625-1.160156-1.082032-2.320312-1.917969-3.519531-1.589844-2.265625-4.035156-4.75-6.578125-5.691406m53.320312-31.253906c0 4.128906-3.335937 7.472656-7.464843 7.472656-4.125 0-7.464844-3.34375-7.464844-7.472656 0-4.121094 3.339844-7.464844 7.464844-7.464844 4.128906 0 7.464843 3.34375 7.464843 7.464844" fill="#30ba78"/></svg>