<svg height="200" viewBox="0 0 200 200" width="200" xmlns="http://www.w3.org/2000/svg"><g transform="translate(0 50)"><path d="m0 0h200v100h-200z" fill="#fff"/><path d="m129.95703 29.449219c1.1875 0 2.375-.0039 3.55859-.01172.0625 11.300781.0625 22.601562 0 33.902344-1.18359-.0078-2.37109-.01172-3.55859-.01172-.0508-11.292969-.0508-22.582031 0-33.878906zm0 0"/><path d="m152.73437 29.449219c1.1875 0 2.375-.0039 3.5586-.01172.0586 4.285156.13672 8.585938-.13672 12.855469 1.35937-1.164063 2.52734-2.308594 4.27344-2.898438 3.41015-1.109375 7.67578-.527343 10.17187 2.226563 2.35547 2.472656 3.03906 6.191406 3.04688 9.484375.0312 3.523437-.60547 7.34375-3.07813 10.027343-2.4414 2.734376-6.67969 3.371094-10.05859 2.265626-1.8125-.570313-3.00781-1.753907-4.39453-2.964844-.28516.945312-.55078 1.886718-.8125 2.839844-.84766.03125-1.69532.05859-2.54297.08594-.11719-11.296877-.0625-22.609377-.02735-33.910158zm0 0"/><path d="m142.48828 30.75c2.89063-1.214844 4.11328 2.929688 2.10547 4.457031-1.13672.777344-2.76172.25-3.16016-1.074219-.23437-1.238281-.32422-2.789062 1.05469-3.382812zm0 0"/><path d="m118.51172 34.265625c3.13672 2.75 4.57812 6.628906 4.9375 10.710937.42187 4.972657-.23438 10.414063-3.55078 14.367188-1.49219 1.878906-3.44922 2.84375-5.53125 3.921875 2.37109 2.679687 4.92578 5.171875 7.32812 7.824219-1.80078.05078-3.60156.04297-5.40234-.04687-1.94922-2.371094-3.96484-4.691407-5.94141-7.046875-3.63672-.136719-7.05078-.375-10.11718-2.558594-3.539068-2.542969-5.250005-6.636719-5.679692-10.867188-.503907-4.652343-.03125-9.9375 2.65625-13.921874 1.996093-2.96875 5.195312-4.75 8.695312-5.296876 4.22266-.734374 9.30469-.01172 12.60547 2.914063zm0 0"/><path d="m35.84375 31.820312c.972656-.1875 2.007812-.179687 2.996094-.230468.683594 1.4375 1.28125 2.914062 1.847656 4.410156 3.546875 9.117188 7.21875 18.195312 10.71875 27.332031-1.085938-.125-2.988281.351563-3.851562-.320312-1.410157-3.144531-2.539063-6.429688-3.832032-9.621094-3.46875-.125-6.945312-.02344-10.417968-.07422-.738282.07813-1.816407-.167968-2.421876.3125-1.382812 3.164063-2.488281 6.464844-3.800781 9.664063-1.238281.02734-2.476562.04687-3.714843.04687 4.109374-10.488282 8.273437-21.066406 12.476562-31.519532zm0 0"/><path d="m56.066406 31.6875c1.839844-.03906 3.671875-.03906 5.511719-.0078 3.003906 7.777343 5.988281 15.558593 8.976563 23.335937.375.945313.785156 1.867187 1.230468 2.773437 3.402344-8.667968 6.765625-17.355468 10.109375-26.042968 1.839844-.105469 3.675781-.101563 5.515625-.06641.05469 10.546874.0625 21.105468 0 31.660156-1.214844-.0078-2.425781-.01172-3.636718-.01172.03125-9.417969-.285157-18.871094.289062-28.273437-3.777344 9.351562-7.351562 18.796874-10.960938 28.21875-.996093.03906-1.992187.05859-2.992187.08594-3.371094-8.574219-6.597656-17.214844-9.9375-25.804687-.292969-.726563-.617187-1.4375-.960937-2.144532.398437 9.300782.195312 18.625.21875 27.929688-1.125-.0078-2.242188-.01172-3.359376-.01172-.06641-10.542969-.04687-21.09375-.0039-31.640625zm0 0"/><path d="m105.81641 34.800781c3.11718-.746093 6.93359-.496093 9.58984 1.449219 2.31641 1.699219 3.44922 4.394531 3.92578 7.144531.58594 3.539063.5 7.382813-.6875 10.792969-.95703 2.757812-2.97656 4.996094-5.8164 5.839844-3.65625 1.113281-8.4375.671875-11.23829-2.171875-2.499996-2.539063-3.144528-6.070313-3.300778-9.5-.08984-3.207031.292969-6.90625 2.070318-9.667969 1.23437-1.972656 3.20703-3.332031 5.45703-3.886719zm0 0" fill="#fff"/><path d="m37.445312 36.042969c1.410157 4.746093 3.464844 9.242187 5.03125 13.933593-3.398437.03906-6.804687.04688-10.199218-.0039 1.757812-4.632812 3.578125-9.234375 5.167968-13.929687zm0 0" fill="#fff"/><path d="m141.62109 39.449219c1.19141 0 2.37891-.0039 3.5625-.01172.0664 7.960938.0664 15.941406 0 23.902344-1.18359-.0078-2.37109-.01172-3.5625-.01172-.0508-7.957031-.0508-15.921875 0-23.878906zm0 0"/><path d="m160.80469 41.960938c2.60547-.714844 5.79687-.351563 7.4414 2.027343 1.66016 2.40625 1.75 5.984375 1.6211 8.800781-.1836 2.726563-.82422 6.089844-3.41016 7.5625-2.94531 1.632813-7.8125.769532-9.14062-2.644531-1.22266-2.953125-1.10938-6.558593-.8125-9.683593.36328-2.757813 1.39453-5.257813 4.30078-6.0625zm0 0" fill="#fff"/></g></svg>