<svg width="83" height="16" viewBox="0 0 83 16" fill="none" xmlns="http://www.w3.org/2000/svg">
  <g clip-path="url(#a)">
    <path d="M11.191 5.539v4.922l-4.262 2.462V16l6.928-4V4l-2.666 1.539Z" fill="#00AC69"/>
    <path d="m6.929 3.078 4.262 2.46L13.857 4 6.93 0 0 4l2.665 1.539L6.93 3.078Z" fill="#1CE783"/>
    <path d="M4.263 9.54v4.922L6.93 16V8L0 4v3.078l4.263 2.461ZM23.367 3.989c-1.491 0-2.198.942-2.198.942h-.078l-.156-.785h-1.807v8.007h1.963v-4.63c0-1.02.704-1.727 1.727-1.727 1.022 0 1.727.705 1.727 1.727v4.63h1.963V7.364c0-2.04-1.335-3.375-3.14-3.375ZM44.534 9.406h-.113l-1.335-5.26H41.09l-1.335 5.26h-.112l-1.335-5.26h-2.041l2.04 8.007h2.391l1.334-5.181h.112l1.335 5.181h2.39l2.04-8.007h-2.04l-1.335 5.26ZM53.92 4.852h-.08l-.156-.704h-1.649v8.006h1.963v-4.63c0-1.02.47-1.491 1.491-1.491h1.007V4.147h-1.168a1.767 1.767 0 0 0-1.409.705ZM60.839 3.989c-2.355 0-4.082 1.727-4.082 4.16 0 2.434 1.63 4.161 4.082 4.161 1.985 0 3.181-1.168 3.68-2.028l-1.802-.642c-.178.326-.897.953-1.878.953-1.145 0-1.962-.716-2.119-1.811h5.965c.056-.258.082-.522.079-.786 0-2.28-1.727-4.007-3.925-4.007ZM58.72 7.443c.236-1.02.942-1.806 2.119-1.806 1.1 0 1.805.785 1.962 1.806H58.72ZM31.845 3.989c-2.355 0-4.082 1.727-4.082 4.16 0 2.434 1.626 4.161 4.082 4.161 1.986 0 3.18-1.168 3.679-2.028l-1.802-.642c-.178.326-.896.953-1.877.953-1.144 0-1.963-.716-2.12-1.811h5.967a3.57 3.57 0 0 0 .078-.786c0-2.28-1.727-4.007-3.925-4.007Zm-2.12 3.454c.236-1.02.942-1.806 2.12-1.806 1.1 0 1.806.785 1.963 1.806h-4.083ZM71.625.984h-1.963v1.963h1.963V.984ZM77.041 10.505c-1.178 0-2.12-.942-2.12-2.356 0-1.413.942-2.355 2.12-2.355 1.178 0 1.649.785 1.806 1.256l1.777-.632c-.43-1.118-1.488-2.43-3.583-2.43-2.355 0-4.082 1.728-4.082 4.161 0 2.434 1.727 4.161 4.082 4.161 2.114 0 3.17-1.332 3.593-2.504l-1.787-.636c-.157.55-.628 1.335-1.806 1.335ZM64.981 2.729h1.115v9.424h1.962V.984h-3.077V2.73ZM71.625 4.146h-1.963v8.007h1.963V4.146ZM81.685 10.617a.758.758 0 1 0 .746.757.732.732 0 0 0-.746-.757Zm0 1.398a.641.641 0 1 1 .63-.64.617.617 0 0 1-.63.636v.004Z" fill="#1D252C"/>
    <path d="M82.01 11.234a.266.266 0 0 0-.284-.263h-.336v.789h.116v-.274h.105l.273.274h.144l-.273-.274a.255.255 0 0 0 .255-.252Zm-.503.136v-.284h.22a.149.149 0 0 1 .117.037.152.152 0 0 1 .051.111c0 .084-.053.136-.169.136h-.22Z" fill="#1D252C"/>
  </g>
  <defs>
    <clipPath id="a">
      <path fill="#fff" d="M0 0h82.431v16H0z"/>
    </clipPath>
  </defs>
</svg>
