<?xml version="1.0" encoding="UTF-8" standalone="no"?>
<svg
   xmlns:dc="http://purl.org/dc/elements/1.1/"
   xmlns:cc="http://creativecommons.org/ns#"
   xmlns:rdf="http://www.w3.org/1999/02/22-rdf-syntax-ns#"
   xmlns:svg="http://www.w3.org/2000/svg"
   xmlns="http://www.w3.org/2000/svg"
   id="svg27"
   version="1.1"
   width="200"
   viewBox="0 0 200 200"
   height="200">
  <metadata
     id="metadata33">
    <rdf:RDF>
      <cc:Work
         rdf:about="">
        <dc:format>image/svg+xml</dc:format>
        <dc:type
           rdf:resource="http://purl.org/dc/dcmitype/StillImage" />
        <dc:title></dc:title>
      </cc:Work>
    </rdf:RDF>
  </metadata>
  <defs
     id="defs31" />
  <linearGradient
     y2="239.4111"
     y1="239.4111"
     x2="200.97169"
     x1="0"
     gradientUnits="userSpaceOnUse"
     gradientTransform="matrix(0.44943164,0,0,0.44802418,4.238122,35.866246)"
     id="a">
    <stop
       id="stop2"
       stop-color="#575757"
       offset="0" />
    <stop
       id="stop4"
       offset="1" />
  </linearGradient>
  <linearGradient
     y2="89.016602"
     y1="89.016602"
     x2="325.44531"
     x1="59.991199"
     gradientUnits="userSpaceOnUse"
     gradientTransform="matrix(0.44943164,0,0,0.44802418,4.238122,35.866246)"
     id="b">
    <stop
       id="stop7"
       stop-color="#666"
       offset="0" />
    <stop
       id="stop9"
       offset="1" />
  </linearGradient>
  <linearGradient
     y2="131.0654"
     y1="131.0654"
     x2="425.5303"
     x1="244.4375"
     gradientUnits="userSpaceOnUse"
     gradientTransform="matrix(0.44943164,0,0,0.44802418,4.238122,35.866246)"
     id="c">
    <stop
       id="stop12"
       stop-color="#616161"
       offset="0" />
    <stop
       id="stop14"
       offset="1" />
  </linearGradient>
  <path
     style="fill:#ffffff;stroke-width:0.95875883"
     id="path17"
     d="m 108.59833,95.552734 c 0,0 -62.562753,19.864286 -74.944226,20.077756 0,0 -0.295867,5.63645 3.258282,17.64715 4.022294,1.43065 49.862951,-10.22426 54.963849,-12.89456 20.448525,-10.70364 13.733475,-16.11538 63.334255,-33.313119 0,0 -0.94377,-4.291941 -4.70765,-10.36658 0,0 -18.2726,12.388967 -41.90451,18.849353 z m 0,0" />
  <path
     style="fill:url(#a);stroke-width:0.95875883"
     id="path19"
     d="m 37.515356,133.10162 c -1.61416,-2.13848 -3.928665,-15.49369 -3.928665,-15.49369 0,0 -32.8000386,14.21285 -29.0586317,37.92341 1.7564759,11.13808 11.2729067,12.65486 15.3438867,13.11552 8.808597,0.99996 21.60578,-5.7151 28.897591,-10.7823 14.669759,-10.18681 22.568284,-20.01783 45.791971,-38.92335 0,0 -32.871198,12.49382 -57.046152,14.16041 z m 0,0" />
  <path
     style="fill:url(#b);stroke-width:0.95875883"
     id="path21"
     d="m 33.654104,115.63049 c 0,0 -12.718535,-46.859341 18.519776,-64.693753 10.430248,-5.954792 30.699009,-12.456375 40.780958,-13.789649 10.085692,-1.333275 33.837452,-5.54657 46.054132,14.534934 4.46422,7.336753 10.2692,20.321193 11.49387,25.021359 C 137.74311,90.575423 47.799542,114.7354 33.654104,115.63049 Z m 0,0" />
  <path
     style="fill:url(#c);stroke-width:0.95875883"
     id="path23"
     d="m 114.09622,107.86304 c 0,0 21.26871,-4.19457 49.08396,-5.29189 22.22747,-0.87637 35.00593,-10.07446 31.86001,-14.804593 -3.14968,-4.733872 -27.29092,-19.182665 -80.94397,20.096483 z m 0,0" />
  <path
     style="stroke-width:0.95875883"
     id="path25"
     d="m 195.75177,87.227255 c 0,0 -33.35807,-37.852246 -138.851508,62.697585 -23.613183,18.6958 -45.889345,21.98029 -51.5744856,8.31049 4.5129076,13.03688 17.4037206,12.81217 33.3318506,7.50154 20.845515,-6.951 49.769322,-34.43292 53.413354,-37.14067 28.538059,-21.23126 77.344879,-55.495654 103.306269,-38.211781 0,0 0.92131,-1.685316 0.37452,-3.157164 z m 0,0" />
</svg>
