<svg height="200" viewBox="0 0 200 200" width="200" xmlns="http://www.w3.org/2000/svg"><g fill="#be1e2d"><path d="m116.710938 96.28125c2.578124.011719 4.660156 2.109375 4.648437 4.6875-.007813 2.578125-2.105469 4.664062-4.6875 4.652344-2.574219-.011719-4.660156-2.109375-4.652344-4.6875.015625-2.578125 2.113281-4.664063 4.691407-4.652344"/><path d="m132.703125 105.003906c2.664063 1.8125 3.359375 5.441406 1.542969 8.105469-1.8125 2.667969-5.441406 3.359375-8.105469 1.546875s-3.355469-5.441406-1.546875-8.109375c1.816406-2.664063 5.445312-3.355469 8.109375-1.542969"/><path d="m143.183594 125.222656c1.496094 3.738282-.328125 7.984375-4.070313 9.476563-3.738281 1.496093-7.984375-.324219-9.480469-4.066407-1.496093-3.742187.324219-7.984374 4.070313-9.480468 3.738281-1.496094 7.984375.328125 9.480469 4.070312"/><path d="m139.910156 153.496094c-1.066406 4.921875-5.921875 8.046875-10.84375 6.980468-4.921875-1.066406-8.046875-5.917968-6.980468-10.839843 1.066406-4.921875 5.917968-8.050781 10.84375-6.984375 4.921874 1.066406 8.046874 5.921875 6.980468 10.84375"/><path d="m116.753906 180.507812c-4.542968 4.359376-11.761718 4.207032-16.117187-.34375-4.355469-4.542968-4.203125-11.757812.34375-16.113281 4.546875-4.359375 11.761719-4.203125 16.117187.339844 4.355469 4.546875 4.199219 11.765625-.34375 16.117187"/><path d="m73.875 192.316406c-7.753906 1.339844-15.128906-3.863281-16.460938-11.621094-1.339843-7.753906 3.863282-15.125 11.621094-16.460937 7.753906-1.335937 15.125 3.863281 16.460938 11.625 1.335937 7.75-3.863282 15.125-11.621094 16.457031"/><path d="m21.183594 174.582031c-8.972656-4.035156-12.972656-14.578125-8.9375-23.546875 4.039062-8.972656 14.582031-12.972656 23.550781-8.9375 8.972656 4.035156 12.972656 14.578125 8.9375 23.550782-4.035156 8.96875-14.578125 12.972656-23.550781 8.933593"/><path d="m77.261719 119.25c-1.28125-2.238281-.503907-5.09375 1.730469-6.371094 2.238281-1.28125 5.09375-.507812 6.375 1.734375 1.277343 2.238281.503906 5.085938-1.734376 6.367188-2.238281 1.28125-5.089843.507812-6.371093-1.730469"/><path d="m76.8125 101.039062c.238281-3.214843 3.039062-5.628906 6.257812-5.394531 3.210938.238281 5.625 3.035157 5.386719 6.25-.238281 3.21875-3.035156 5.628907-6.25 5.394531-3.214843-.238281-5.628906-3.035156-5.394531-6.25"/><path d="m89.085938 81.855469c2.492187-3.167969 7.078124-3.710938 10.246093-1.21875 3.164063 2.492187 3.710938 7.078125 1.21875 10.246093-2.496093 3.164063-7.082031 3.710938-10.246093 1.214844-3.164063-2.492187-3.710938-7.078125-1.21875-10.242187"/><path d="m115.207031 70.550781c4.796875-1.539062 9.933594 1.101563 11.472657 5.898438 1.535156 4.796875-1.105469 9.933593-5.902344 11.46875-4.792969 1.539062-9.929688-1.101563-11.46875-5.898438-1.539063-4.796875 1.105468-9.929687 5.898437-11.46875"/><path d="m150.179688 77.097656c6.046874 1.757813 9.523437 8.085938 7.761718 14.128906-1.757812 6.042969-8.082031 9.519532-14.128906 7.761719-6.042969-1.757812-9.519531-8.085937-7.761719-14.128906 1.761719-6.046875 8.085938-9.519531 14.128907-7.761719"/><path d="m181.851562 108.324219c5.035157 6.050781 4.210938 15.035156-1.835937 20.070312-6.046875 5.035157-15.03125 4.214844-20.066406-1.832031-5.039063-6.046875-4.214844-15.03125 1.832031-20.070312 6.050781-5.035157 15.03125-4.214844 20.070312 1.832031"/><path d="m192.835938 162.824219c.992187 9.785156-6.140626 18.527343-15.925782 19.515625-9.789062.988281-18.527344-6.136719-19.515625-15.925782-.988281-9.789062 6.140625-18.527343 15.929688-19.515624 9.785156-.988282 18.519531 6.140624 19.511719 15.925781"/><path d="m116.875 141.929688c-1.292969 2.226562-4.15625 2.984374-6.386719 1.683593-2.222656-1.296875-2.980469-4.15625-1.683593-6.382812 1.300781-2.226563 4.160156-2.984375 6.386718-1.683594 2.230469 1.296875 2.980469 4.15625 1.683594 6.382813"/><path d="m101.324219 151.417969c-2.902344 1.40625-6.390625.1875-7.789063-2.714844-1.40625-2.902344-.1875-6.390625 2.714844-7.792969 2.902344-1.398437 6.390625-.1875 7.792969 2.714844 1.402343 2.902344.1875 6.394531-2.71875 7.792969"/><path d="m78.578125 150.386719c-3.988281-.574219-6.753906-4.277344-6.175781-8.261719.574218-3.988281 4.273437-6.757812 8.261718-6.179688 3.988282.578126 6.753907 4.277344 6.175782 8.261719-.574219 3.988281-4.273438 6.757813-8.261719 6.179688"/><path d="m55.726562 133.414062c-3.726562-3.382812-4.011718-9.152343-.625-12.882812 3.382813-3.726562 9.152344-4.007812 12.882813-.625 3.730469 3.386719 4.007813 9.152344.625 12.882812-3.386719 3.730469-9.152344 4.007813-12.882813.625"/><path d="m43.910156 99.855469c-1.5-6.117188 2.242188-12.289063 8.355469-13.789063 6.113281-1.496094 12.289063 2.242188 13.785156 8.355469 1.5 6.113281-2.238281 12.285156-8.355469 13.789063-6.113281 1.5-12.289062-2.242188-13.785156-8.355469"/><path d="m55.121094 56.8125c2.71875-7.382812 10.914062-11.164062 18.296875-8.445312 7.382812 2.722656 11.167969 10.910156 8.445312 18.296874-2.71875 7.386719-10.910156 11.167969-18.296875 8.445313-7.382812-2.71875-11.164062-10.910156-8.445312-18.296875"/><path d="m96.828125 20.050781c7.980469-5.753906 19.113281-3.945312 24.859375 4.035157 5.753906 7.980468 3.949219 19.113281-4.035156 24.863281-7.976563 5.753906-19.109375 3.945312-24.863282-4.035157-5.75-7.980468-3.945312-19.113281 4.039063-24.863281"/></g></svg>