<svg fill="none" xmlns="http://www.w3.org/2000/svg" viewBox="0 0 32 32" height="100" width="100">
  <path d="M16.962 20.123a6.447 6.447 0 0 1-4.104.535 6.496 6.496 0 0 1-3.593-2.073 6.646 6.646 0 0 1-.65-7.908L6.878 8.71a9.133 9.133 0 0 0-1.537 3.271c.349.137.646.382.848.7a1.808 1.808 0 0 1-.115 2.103 1.77 1.77 0 0 1-.919.6 9.188 9.188 0 0 0 1.24 3.523 1.754 1.754 0 0 1 1.999.45 1.802 1.802 0 0 1 .244 2.057 8.856 8.856 0 0 0 3.328 1.617c.136-.352.378-.652.693-.856a1.757 1.757 0 0 1 2.08.12c.289.24.496.565.592.93a8.991 8.991 0 0 0 3.383-1.178l-1.753-1.924Z" fill="#A7A9AC"/><path d="m9.999 8.323.53.632a7.086 7.086 0 0 1 9.145 10.736l.53.632A7.895 7.895 0 0 0 10 8.323Z" fill="#FFA400"/><path d="M14.841 0v3.87a11.447 11.447 0 0 1 7.535 3.512A11.046 11.046 0 0 1 25.438 15c0 2.828-1.094 5.552-3.062 7.618a11.447 11.447 0 0 1-7.535 3.512V30a15.42 15.42 0 0 0 10.316-4.65A14.874 14.874 0 0 0 29.37 15c0-3.853-1.508-7.558-4.212-10.35A15.42 15.42 0 0 0 14.841 0Z" fill="#FAA31A"/><path d="M12.904 27.338c-2.991-.28-5.773-1.7-7.799-3.983A12.593 12.593 0 0 1 1.957 15c0-3.092 1.123-6.072 3.148-8.354 2.026-2.283 4.808-3.704 7.8-3.984V.968c-3.43.28-6.629 1.881-8.962 4.482C1.609 8.05.313 11.46.313 15c0 3.54 1.296 6.95 3.63 9.55 2.333 2.601 5.533 4.201 8.961 4.482v-1.694Z" fill="#808285"/>
</svg>