<svg height="200" viewBox="0 0 200 200" width="200" xmlns="http://www.w3.org/2000/svg" xmlns:xlink="http://www.w3.org/1999/xlink"><linearGradient id="a" gradientTransform="matrix(1.885618 1.885618 -1.885618 1.885618 -755.546631 1954.720052)" gradientUnits="userSpaceOnUse" x1="-264.950012" x2="-264.950012" y1="-643.669983" y2="-793.669983"><stop offset="0" stop-color="#4d27a8"/><stop offset="1" stop-color="#a166ff"/></linearGradient><path d="m0 0h200v200h-200z" fill="url(#a)"/><g fill="#fff"><path d="m100 64.691406c-7 0-12.671875-5.675781-12.667969-12.671875.007813-7 5.6875-12.667969 12.6875-12.660156 6.996094.011719 12.660157 5.695313 12.648438 12.695313-.015625 6.984374-5.683594 12.636718-12.667969 12.636718zm0-19.972656c-4.050781 0-7.332031 3.285156-7.332031 7.335938 0 4.046874 3.28125 7.332031 7.332031 7.332031s7.332031-3.285157 7.332031-7.332031c0-4.050782-3.28125-7.335938-7.332031-7.335938zm0 0"/><path d="m147.945312 112.667969c-6.996093 0-12.664062-5.671875-12.664062-12.667969s5.667969-12.667969 12.664062-12.667969c6.996094 0 12.667969 5.671875 12.667969 12.667969s-5.671875 12.667969-12.667969 12.667969zm0-20c-4.046874 0-7.332031 3.28125-7.332031 7.332031s3.285157 7.332031 7.332031 7.332031c4.050782 0 7.335938-3.28125 7.335938-7.332031s-3.285156-7.332031-7.335938-7.332031zm0 0"/><path d="m100 160.613281c-6.996094 0-12.667969-5.671875-12.667969-12.667969 0-6.996093 5.671875-12.664062 12.667969-12.664062s12.667969 5.667969 12.667969 12.664062c0 6.996094-5.671875 12.667969-12.667969 12.667969zm0-19.972656c-2.96875 0-5.644531 1.789063-6.777344 4.53125-1.132812 2.746094-.5 5.902344 1.601563 7.996094 2.101562 2.09375 5.261719 2.714843 8 1.574219 2.738281-1.144532 4.519531-3.828126 4.507812-6.796876-.011719-4.039062-3.292969-7.304687-7.332031-7.304687zm0 0"/><path d="m52.054688 112.667969c-7 .011719-12.683594-5.652344-12.695313-12.648438-.007813-7 5.660156-12.679687 12.660156-12.6875 6.996094-.003906 12.671875 5.667969 12.671875 12.667969 0 6.984375-5.652344 12.652344-12.636718 12.667969zm0-20c-2.96875-.011719-5.652344 1.769531-6.796876 4.507812-1.140624 2.738281-.519531 5.898438 1.574219 8 2.09375 2.101563 5.25 2.734375 7.996094 1.601563 2.742187-1.132813 4.53125-3.808594 4.53125-6.777344 0-4.039062-3.265625-7.320312-7.304687-7.332031zm0 0"/><path d="m100 164.613281c-35.683594 0-64.613281-28.929687-64.613281-64.613281s28.929687-64.613281 64.613281-64.613281 64.613281 28.929687 64.613281 64.613281c-.042969 35.667969-28.945312 64.570312-64.613281 64.613281zm0-123.894531c-32.738281 0-59.28125 26.542969-59.28125 59.28125s26.542969 59.28125 59.28125 59.28125 59.28125-26.542969 59.28125-59.28125c-.046875-32.722656-26.558594-59.234375-59.28125-59.28125zm0 0"/><path d="m100 118.480469c-10.207031 0-18.480469-8.273438-18.480469-18.480469s8.273438-18.480469 18.480469-18.480469 18.480469 8.273438 18.480469 18.480469c-.015625 10.199219-8.28125 18.464844-18.480469 18.480469zm0-31.628907c-7.261719 0-13.148438 5.886719-13.148438 13.148438s5.886719 13.148438 13.148438 13.148438 13.148438-5.886719 13.148438-13.148438-5.886719-13.148438-13.148438-13.148438zm0 0"/><path d="m62.027344 97.332031h22.132812v5.335938h-22.132812zm0 0"/><path d="m115.8125 97.332031h22.132812v5.335938h-22.132812zm0 0"/><path d="m97.332031 115.8125h5.335938v22.132812h-5.335938zm0 0"/><path d="m97.332031 62.027344h5.335938v22.132812h-5.335938zm0 0"/></g></svg>