<?xml version="1.0" encoding="UTF-8"?>
<svg width="5.33in" height="2.03in" inkscape:version="1.0.2 (e86c870879, 2021-01-15, custom)" sodipodi:docname="Apache_HTTP_server_logo_(2016).svg" version="1.1" viewBox="0 0 480 183" xmlns="http://www.w3.org/2000/svg" xmlns:cc="http://creativecommons.org/ns#" xmlns:dc="http://purl.org/dc/elements/1.1/" xmlns:inkscape="http://www.inkscape.org/namespaces/inkscape" xmlns:rdf="http://www.w3.org/1999/02/22-rdf-syntax-ns#" xmlns:sodipodi="http://sodipodi.sourceforge.net/DTD/sodipodi-0.dtd" xmlns:xlink="http://www.w3.org/1999/xlink">
 <sodipodi:namedview bordercolor="#666666" borderopacity="1" fit-margin-bottom="0" fit-margin-left="0" fit-margin-right="0" fit-margin-top="0" gridtolerance="10" guidetolerance="10" inkscape:current-layer="layer1" inkscape:cx="64.345089" inkscape:cy="93.927004" inkscape:document-rotation="0" inkscape:pageopacity="0" inkscape:pageshadow="2" inkscape:window-height="1014" inkscape:window-maximized="1" inkscape:window-width="1920" inkscape:window-x="0" inkscape:window-y="36" inkscape:zoom="2.9731626" objecttolerance="10" pagecolor="#ffffff" showgrid="false"/>
 <defs>
  <linearGradient id="cvfj" x1="-6874" x2="-6636" y1="2774" y2="2497" gradientTransform="matrix(.434 -.932 -.932 -.434 6223 -5053)" gradientUnits="userSpaceOnUse" inkscape:collect="always">
   <stop style="stop-color:#F59723" offset="0"/>
   <stop style="stop-color:#F69822" offset=".312"/>
   <stop style="stop-color:#E87726" offset=".838"/>
  </linearGradient>
  <linearGradient id="cvfi" x1="-8631" x2="-6937" y1="2805" y2="2805" gradientTransform="matrix(.434 -.932 -.932 -.434 6223 -5053)" gradientUnits="userSpaceOnUse" inkscape:collect="always">
   <stop style="stop-color:#9C2063" offset=".323"/>
   <stop style="stop-color:#C82037" offset=".63"/>
   <stop style="stop-color:#CC2135" offset=".751"/>
   <stop style="stop-color:#E87726" offset="1"/>
  </linearGradient>
  <linearGradient id="cvfh" x1="-8426" x2="-7417" y1="2635" y2="2635" gradientTransform="matrix(.434 -.932 -.932 -.434 6223 -5053)" gradientUnits="userSpaceOnUse" inkscape:collect="always">
   <stop style="stop-color:#282661" offset="0"/>
   <stop style="stop-color:#662E8C" offset=".0955"/>
   <stop style="stop-color:#9E2064" offset=".788"/>
   <stop style="stop-color:#CC2032" offset=".949"/>
  </linearGradient>
  <linearGradient id="cvfg" x1="-8536" x2="-6842" y1="2821" y2="2821" gradientTransform="matrix(.434 -.932 -.932 -.434 6223 -5053)" gradientUnits="userSpaceOnUse" inkscape:collect="always">
   <stop style="stop-color:#9C2063" offset=".323"/>
   <stop style="stop-color:#C82037" offset=".63"/>
   <stop style="stop-color:#CC2135" offset=".751"/>
   <stop style="stop-color:#E87726" offset="1"/>
  </linearGradient>
  <linearGradient id="cvff" x1="-8412" x2="-7522" y1="2798" y2="2798" gradientTransform="matrix(.434 -.932 -.932 -.434 6223 -5053)" gradientUnits="userSpaceOnUse" inkscape:collect="always">
   <stop style="stop-color:#282661" offset="0"/>
   <stop style="stop-color:#662E8C" offset=".0955"/>
   <stop style="stop-color:#9E2064" offset=".788"/>
   <stop style="stop-color:#CC2032" offset=".949"/>
  </linearGradient>
  <linearGradient id="cvfe" x1="-8536" x2="-6842" y1="2645" y2="2645" gradientTransform="matrix(.434 -.932 -.932 -.434 6223 -5053)" gradientUnits="userSpaceOnUse" inkscape:collect="always">
   <stop style="stop-color:#9C2063" offset=".323"/>
   <stop style="stop-color:#C82037" offset=".63"/>
   <stop style="stop-color:#CC2135" offset=".751"/>
   <stop style="stop-color:#E87726" offset="1"/>
  </linearGradient>
  <linearGradient id="cvfd" x1="-8641" x2="-6947" y1="2654" y2="2654" gradientTransform="matrix(.434 -.932 -.932 -.434 6223 -5053)" gradientUnits="userSpaceOnUse" inkscape:collect="always">
   <stop style="stop-color:#9C2063" offset=".323"/>
   <stop style="stop-color:#C82037" offset=".63"/>
   <stop style="stop-color:#CC2135" offset=".751"/>
   <stop style="stop-color:#E87726" offset="1"/>
  </linearGradient>
  <linearGradient id="cvfc" x1="-8536" x2="-6842" y1="2593" y2="2593" gradientTransform="matrix(.434 -.932 -.932 -.434 6223 -5053)" gradientUnits="userSpaceOnUse" inkscape:collect="always">
   <stop style="stop-color:#9C2063" offset=".323"/>
   <stop style="stop-color:#C82037" offset=".63"/>
   <stop style="stop-color:#CC2135" offset=".751"/>
   <stop style="stop-color:#E87726" offset="1"/>
  </linearGradient>
  <linearGradient id="cvfb" x1="-8536" x2="-6842" y1="2599" y2="2599" gradientTransform="matrix(.434 -.932 -.932 -.434 6223 -5053)" gradientUnits="userSpaceOnUse" inkscape:collect="always">
   <stop style="stop-color:#9C2063" offset=".323"/>
   <stop style="stop-color:#C82037" offset=".63"/>
   <stop style="stop-color:#CC2135" offset=".751"/>
   <stop style="stop-color:#E87726" offset="1"/>
  </linearGradient>
  <linearGradient id="cvfa" x1="-7584" x2="-7210" y1="2601" y2="2601" gradientTransform="matrix(.434 -.932 -.932 -.434 6223 -5053)" gradientUnits="userSpaceOnUse" inkscape:collect="always">
   <stop style="stop-color:#9C2063" offset=".323"/>
   <stop style="stop-color:#C82037" offset=".63"/>
   <stop style="stop-color:#CC2135" offset=".751"/>
   <stop style="stop-color:#E87726" offset="1"/>
  </linearGradient>
 </defs>
 <title>Apache HTTP Server logo</title>
 <metadata>
  <rdf:RDF>
   <cc:Work rdf:about="">
    <dc:format>image/svg+xml</dc:format>
    <dc:type rdf:resource="http://purl.org/dc/dcmitype/StillImage"/>
    <dc:title/>
   </cc:Work>
  </rdf:RDF>
 </metadata>
 <g transform="matrix(.469 0 0 .469 -33.9 -219)">
  <g transform="matrix(.996 0 0 .99 2.73 6.71)">
   <g transform="matrix(.226 0 0 .226 72.2 467)">
    <path d="m736 8.1c-27.1 16-72.2 61.3-126 127l49.3 93.2c34.7-49.5 69.9-94.2 105-132 2.8-3 4.1-4.4 4.1-4.4-1.3 1.4-2.8 3-4.1 4.4-11.5 12.6-46.4 53.4-99 134 50.7-2.5 128-12.9 192-23.7 19-106-18.5-154-18.5-154s-47.6-77-103-44.1z" style="fill:url(#cvfj)" inkscape:connector-curvature="0"/>
    <path d="m652 540c.3-.1.7-.1 1.1-.2l-7.1.8-1.2.6c2.3-.5 4.8-.9 7.2-1.2z" style="fill:none" inkscape:connector-curvature="0"/>
    <path d="m602 707c-4 .9-8.1 1.6-12.3 2.3 4.2-.7 8.3-1.5 12.3-2.3z" style="fill:none" inkscape:connector-curvature="0"/>
    <path d="m259 1081c.5-1.3 1-2.8 1.5-4.1 10.9-28.7 21.7-56.6 32.3-83.8 11.9-30.5 23.7-60 35.5-88.6 12.3-30.1 24.5-59.3 36.4-87.5 12.5-29.5 24.9-58 37.1-85.4 9.9-22.3 19.6-43.9 29.2-64.8 3.2-7 6.4-13.9 9.6-20.7 6.3-13.6 12.5-26.8 18.7-39.8 5.7-11.9 11.3-23.6 17-35.2 1.9-3.8 3.7-7.6 5.6-11.4.3-.6.6-1.2.9-1.9l-6.1.6-4.8-9.5c-.5.9-.9 1.9-1.4 2.8-8.6 17.3-17.3 34.6-25.8 52.1-4.9 10.2-9.8 20.4-14.7 30.5-13.5 28.3-26.7 57-39.8 85.6-13.2 29.1-26.1 58.3-38.9 87.6-12.4 28.8-24.7 57.6-36.6 86.3s-23.6 57.3-35 85.6c-11.9 29.6-23.4 59-34.6 88-2.6 6.6-5 13.1-7.6 19.6-9 23.4-17.8 46.6-26.3 69.4l7.6 15 6.8-.7c.2-.7.5-1.3.7-2.1 11.1-29.8 22-59.1 32.7-87.6z" style="fill:none" inkscape:connector-curvature="0"/>
    <path d="m587 710" style="fill:none" inkscape:connector-curvature="0"/>
    <path d="m570 791c-6.3 1.1-12.7 2.3-19.4 3.4 0 0-.1 0-.1.1 3.4-.5 6.7-1 10-1.5 3.1-.7 6.3-1.3 9.5-2z" style="fill:#bd202e" inkscape:connector-curvature="0"/>
    <path d="m570 791c-6.3 1.1-12.7 2.3-19.4 3.4 0 0-.1 0-.1.1 3.4-.5 6.7-1 10-1.5 3.1-.7 6.3-1.3 9.5-2z" inkscape:connector-curvature="0"/>
    <path d="m587 710v0c-.1 0-.1 0-.1.1 1-.1 2.1-.3 3.1-.5 4.2-.6 8.3-1.3 12.3-2.3-5 .9-10 1.8-15.3 2.7z" style="fill:#bd202e" inkscape:connector-curvature="0"/>
    <path d="m587 710v0c-.1 0-.1 0-.1.1 1-.1 2.1-.3 3.1-.5 4.2-.6 8.3-1.3 12.3-2.3-5 .9-10 1.8-15.3 2.7z" inkscape:connector-curvature="0"/>
    <path d="m514 469c15-28.1 30.2-55.5 45.5-82.1 15.9-27.8 32.1-54.6 48.4-80.6.9-1.5 2-3.1 2.9-4.6 16.1-25.5 32.4-50.1 48.7-73.5l-49.3-93.2c-3.7 4.5-7.4 9.1-11.2 13.9-14.3 17.8-29 36.8-44.2 57.1-17.1 22.8-34.6 47.2-52.5 72.8-16.4 23.6-33.2 48.3-50 74-14.3 21.8-28.5 44.2-42.7 67.2-.5.8-1 1.7-1.5 2.6l64.3 127c13.6-27.5 27.6-54.4 41.6-80.6z" style="fill:url(#cvfi)" inkscape:connector-curvature="0"/>
    <path d="m221 1184c-8.5 23.3-17.1 47.2-25.6 71.5-.1.3-.2.7-.4 1-1.2 3.4-2.5 6.9-3.6 10.3-5.8 16.4-10.8 31.2-22.3 64.7 18.9 8.6 34.1 31.4 48.5 57.2-1.5-26.7-12.5-51.8-33.6-71.2 93.3 4.2 174-19.4 215-87.6 3.7-6.1 7.1-12.4 10.2-19.3-18.9 24-42.4 34.1-86.5 31.7-.1 0-.2.1-.3.1.1 0 .2-.1.3-.1 65-29.1 97.5-57 126-103 6.8-11 13.5-22.9 20.3-36.2-56.8 58.3-122 74.9-192 62.3l-52 5.7c-1.7 4.4-3.2 8.7-4.9 13.1z" style="fill:url(#cvfh)" inkscape:connector-curvature="0"/>
    <path d="m246 1068c11.2-29 22.8-58.4 34.6-88 11.4-28.4 23-57 35-85.6s24.2-57.5 36.6-86.3c12.6-29.3 25.6-58.5 38.9-87.6 13.1-28.8 26.3-57.4 39.8-85.6 4.8-10.2 9.8-20.4 14.7-30.5 8.5-17.5 17.1-34.9 25.8-52.1.5-.9.9-1.9 1.4-2.8l-64.3-127c-1 1.7-2.1 3.5-3.2 5.1-15 24.5-29.9 49.5-44.5 75-14.8 25.8-29.3 52.1-43.5 78.8-11.9 22.5-23.6 45.1-35.1 68.1-2.3 4.6-4.5 9.3-6.8 13.9-14 28.9-26.6 56.6-38.1 83.5-13 30.3-24.4 59.3-34.3 86.8-6.6 18.1-12.5 35.5-18 52.3-4.5 14.3-8.7 28.7-12.9 43-9.6 33.6-17.9 67.2-24.7 101l64.6 128c8.5-22.8 17.3-46 26.3-69.4 2.7-6.7 5.1-13.3 7.7-19.7z" style="fill:url(#cvfg)" inkscape:connector-curvature="0"/>
    <path d="m146 1034c-8.1 40.8-13.9 81.4-16.8 122l-.3 4.2c-20.2-32.3-74.1-63.8-74-63.5 38.7 56 68 112 72.3 166-20.7 4.2-49-1.9-81.7-13.9 34.1 31.4 59.7 40 69.8 42.4-31.4 2-64 23.5-96.9 48.3 48.1-19.6 87-27.4 115-21.1-44.2 125-88.4 263-133 410 13.6-4 21.7-13.2 26.2-25.5 7.9-26.5 60.2-201 142-429 2.4-6.5 4.7-13.1 7.1-19.6.6-1.9 1.3-3.7 2-5.4 8.6-24 17.7-48.5 26.9-73.5 2.1-5.7 4.2-11.4 6.4-17.1 0-.1.1-.2.1-.3l-64.7-128c-.2 1.3-.5 2.8-.8 4.3z" style="fill:url(#cvff)" inkscape:connector-curvature="0"/>
    <path d="m482 560c-1.9 3.8-3.7 7.6-5.6 11.4-5.6 11.5-11.2 23.2-17 35.2-6.2 13-12.4 26.2-18.7 39.8-3.2 6.8-6.4 13.7-9.6 20.7-9.6 20.9-19.3 42.5-29.2 64.8-12.1 27.3-24.6 55.8-37.1 85.4-11.9 28.2-24.2 57.3-36.4 87.5-11.7 28.6-23.5 58.2-35.5 88.6-10.7 27.1-21.5 55.1-32.3 83.8-.5 1.3-1 2.8-1.5 4.1-10.8 28.5-21.7 57.8-32.6 87.8-.2.7-.5 1.3-.7 2.1l52-5.7c-1-.2-2.1-.3-3.1-.5 62.1-7.7 145-54.2 198-112 24.6-26.4 46.9-57.6 67.5-94.1 15.3-27.1 29.8-57.3 43.6-90.6 12-29.1 23.5-60.7 34.6-94.8-14.3 7.5-30.6 13.1-48.6 16.9-3.2.7-6.4 1.3-9.7 1.9s-6.6 1.1-10 1.5c0 0 .1 0 .1-.1 58-22.3 94.5-65.3 121-118-15.2 10.4-40 24-69.7 30.5-4 .9-8.1 1.6-12.3 2.3-1 .1-2.1.3-3.1.5h.1.1c20.2-8.4 37.1-17.9 51.8-29 3.2-2.4 6.3-4.8 9.1-7.4 4.5-3.9 8.7-8 12.9-12.2 2.6-2.8 5.1-5.6 7.6-8.5 5.8-6.9 11.2-14.3 16.2-22.3 1.5-2.5 3.1-4.9 4.5-7.5 2-3.7 3.8-7.4 5.6-10.9 8.1-16.2 14.6-30.8 19.7-43.5 2.6-6.4 4.8-12.2 6.8-17.8.8-2.2 1.5-4.3 2.2-6.4 2.1-6.1 3.7-11.5 5-16.3 2-7.2 3.2-12.9 3.8-17-2 1.5-4.2 3.1-6.8 4.6-17.5 10.5-47.5 19.9-71.7 24.4l47.7-5.2-47.7 5.2c-.3.1-.7.1-1.1.2-2.5.4-4.8.8-7.3 1.1l1.2-.6-163 17.9c0 .4-.3 1.1-.6 1.7z" style="fill:url(#cvfe)" inkscape:connector-curvature="0"/>
    <path d="m666 230c-14.5 22.3-30.3 47.6-47.5 76.3-.9 1.4-1.9 3.1-2.7 4.5-14.7 24.8-30.3 52-46.9 81.9-14.2 25.8-29 53.4-44.4 83.1-13.4 25.9-27.2 53.4-41.5 82.5l163-17.9c47.6-21.9 68.8-41.6 89.4-70.3 5.4-7.9 11-16.1 16.4-24.7 16.8-26.2 33.2-55 47.9-83.7 14.2-27.7 26.7-55.1 36.3-79.9 6.1-15.7 11-30.3 14.4-43.2 3-11.3 5.3-22.1 7.1-32.4-63.3 10.9-141 21.3-192 23.8z" style="fill:url(#cvfd)" inkscape:connector-curvature="0"/>
    <path d="m560 793c-3.3.6-6.6 1.1-10 1.5 3.4-.3 6.8-.9 10-1.5z" style="fill:#bd202e" inkscape:connector-curvature="0"/>
    <path d="m560 793c-3.3.6-6.6 1.1-10 1.5 3.4-.3 6.8-.9 10-1.5z" style="fill:#bd202e;opacity:.35" inkscape:connector-curvature="0"/>
    <path d="m560 793c-3.3.6-6.6 1.1-10 1.5 3.4-.3 6.8-.9 10-1.5z" style="fill:url(#cvfc)" inkscape:connector-curvature="0"/>
    <path d="m587 710c1-.1 2.1-.3 3.1-.5-1 .1-2 .4-3.1.5z" style="fill:#bd202e" inkscape:connector-curvature="0"/>
    <path d="m587 710c1-.1 2.1-.3 3.1-.5-1 .1-2 .4-3.1.5z" style="fill:#bd202e;opacity:.35" inkscape:connector-curvature="0"/>
    <path d="m587 710c1-.1 2.1-.3 3.1-.5-1 .1-2 .4-3.1.5z" style="fill:url(#cvfb)" inkscape:connector-curvature="0"/>
    <path d="m587 710c.1 0 .1-.1 0 0 .1-.1.1 0 0 0z" style="fill:#bd202e" inkscape:connector-curvature="0"/>
    <path d="m587 710c.1 0 .1-.1 0 0 .1-.1.1 0 0 0z" style="fill:#bd202e;opacity:.35" inkscape:connector-curvature="0"/>
    <path d="m587 710c.1 0 .1-.1 0 0 .1-.1.1 0 0 0z" style="fill:url(#cvfa)" inkscape:connector-curvature="0"/>
   </g>
   <path d="m733 730c-2.26-.406-10.8-2.6-12.1-3.11-3.14-1.21-13.9-6.73-15.2-7.77-1.69-1.39-1.91-1.56-4.99-3.86-3.05-2.27-9.59-8.82-11.9-11.9-.971-1.3-2.03-2.7-2.36-3.09-.326-.396-.872-1.06-1.21-1.48-.718-.879-6.79-11.1-6.79-11.5 0-.123-.631-1.63-1.4-3.35-.772-1.72-1.87-4.46-2.43-6.09-.567-1.63-1.26-3.5-1.54-4.15-.627-1.46-2.34-9.52-2.96-13.9-.654-4.66-.634-17.4.034-21.6 1.76-11 3.15-15.7 7.17-24.3.62-1.33 1.13-2.73 1.13-3.11 0-.386.267-.702.593-.702.326 0 .593-.344.593-.766 0-.421 1.65-3.26 3.66-6.31 3.26-4.95 10.7-13.2 15.6-17.2 5.07-4.22 15.1-9.71 21.1-11.6 1.76-.542 3.87-1.22 4.68-1.5 3.01-1.04 8.8-1.8 16.3-2.13 9.67-.431 19.8.831 27 3.36 5.35 1.89 10.2 4.15 10.6 4.88.109.245.457.445.773.445 1.25 0 7.98 5.1 12 9.1 4.67 4.64 7.73 8.7 10.2 13.5 1.52 3 1.54 3.14.476 3.87-.606.418-1.38.969-1.72 1.22s-1.32.865-2.17 1.35c-.85.489-2.77 1.65-4.28 2.58-3.06 1.89-4.23 1.76-5.13-.611-2.51-6.61-14-17.5-21.9-20.6-8.64-3.46-13.9-4.49-22.8-4.48-9.42.01-15.5 1.16-23 4.4-2.57 1.1-8.06 4.38-9.22 5.51-.431.419-.965.762-1.19.762-.63 0-7.22 6.51-10.1 9.99-3.14 3.77-8.59 13.5-9.88 17.6-.512 1.63-1.16 3.5-1.45 4.15-2.52 5.74-4 19.6-3.08 28.9.628 6.34 1.95 13 3.09 15.6.289.652.702 1.85.919 2.67.955 3.59 6.54 14 9.46 17.6 2.92 3.63 8.25 9.23 10.7 11.2 2.77 2.27 11.8 7.9 12.6 7.9.218 0 1.08.363 1.93.802.842.439 3.91 1.44 6.82 2.22 4.44 1.19 6.56 1.41 13.3 1.35 11.3-.101 18.4-2.04 27.9-7.58 6.2-3.62 14.8-12 17.8-17.4 1.14-2.03 2.34-3.7 2.67-3.71 1.26-.017 12.7 6.23 12.7 6.93 0 .83-3.45 7.42-4.13 7.88-.24.163-.743.88-1.12 1.59-1.41 2.69-7.9 9.03-14 13.7-3.24 2.48-11.8 6.84-17.8 9.03-7.91 2.91-12.7 3.69-23.7 3.86-5.87.09-11.3.044-12.1-.103zm-473-.829c0-.33.257-1.06.572-1.63.314-.566 1.13-2.36 1.81-3.99.681-1.63 1.47-3.5 1.76-4.15.287-.652 2.15-5.05 4.14-9.78 1.99-4.73 3.86-9.13 4.16-9.78.296-.652 1.23-2.92 2.07-5.04.844-2.12 1.77-4.39 2.07-5.04s1.1-2.52 1.79-4.15c.693-1.63 1.64-3.8 2.11-4.83s.846-2.04.846-2.26c0-.336 1.14-3.07 2.97-7.14.294-.652 1.22-2.92 2.07-5.04s1.78-4.39 2.07-5.04c.297-.652 1.23-2.92 2.07-5.04.844-2.12 1.78-4.39 2.07-5.04.294-.652 1.1-2.52 1.78-4.15.688-1.63 1.49-3.5 1.77-4.15.287-.652 1.75-4.12 3.26-7.7 1.5-3.59 2.98-7.05 3.27-7.7.293-.652 1.63-3.85 2.96-7.11 1.34-3.26 2.67-6.46 2.96-7.11.291-.652 1.46-3.45 2.6-6.22 6.39-15.5 7.85-19 9.27-22.2.289-.652 1.22-2.92 2.07-5.04.85-2.12 2.06-4.99 2.7-6.37l1.15-2.52h12.9l1.32 3.11c1.65 3.87 3.46 8.07 4.16 9.63 2.02 4.53 2.96 6.8 2.96 7.11 0 .331 1.14 3.02 3.3 7.79.465 1.03.846 2.04.846 2.26 0 .335.916 2.54 2.96 7.14 2.02 4.53 2.96 6.8 2.96 7.11 0 .199.553 1.61 1.23 3.14s1.63 3.72 2.11 4.86c.488 1.14 1.12 2.61 1.41 3.26.289.652 1.22 2.92 2.06 5.04.844 2.12 1.77 4.39 2.06 5.04.291.652 2.16 5.05 4.16 9.78 2 4.73 3.87 9.13 4.16 9.78.291.652.963 2.25 1.49 3.56 5.45 13.4 7.61 18.6 8.29 20.2.438.978 1.89 4.44 3.24 7.7 1.34 3.26 2.68 6.46 2.97 7.11s1.09 2.52 1.78 4.15c.688 1.63 1.49 3.5 1.78 4.15s1.22 2.92 2.07 5.04c.844 2.12 1.78 4.39 2.07 5.04 2.87 6.36 6.52 15.3 6.52 16 0 .718-1.45.865-8.55.865-8.36 0-8.56-.031-8.96-1.33-.364-1.19-1.74-4.54-3.23-7.85-.294-.652-1.23-2.92-2.08-5.04-1.45-3.61-2.62-6.4-3.86-9.19-.289-.652-1.22-2.92-2.06-5.04-.844-2.12-1.78-4.39-2.07-5.04-1.8-3.99-2.97-6.8-2.97-7.11 0-.199-.496-1.48-1.1-2.85-.606-1.37-1.47-3.35-1.92-4.41l-.822-1.93h-70.1l-1.2 2.82c-.658 1.55-1.93 4.68-2.82 6.96-.892 2.28-2.12 5.27-2.73 6.64-.61 1.37-1.11 2.65-1.11 2.85 0 .314-1.17 3.12-2.97 7.11-.294.652-1.22 2.92-2.07 5.04s-1.78 4.39-2.09 5.04c-.304.652-1.52 3.59-2.69 6.52-1.18 2.93-2.28 5.67-2.45 6.07-.39.941-17.4 1.08-17.4.14zm104-62.3c0-.566-.874-2.7-3.3-8.06-.465-1.03-.846-2.05-.846-2.28 0-.228-.388-1.25-.861-2.28-.474-1.03-2.35-5.6-4.16-10.2-1.81-4.56-3.55-8.83-3.85-9.48-.302-.652-1.78-4.39-3.27-8.3-1.5-3.91-2.96-7.65-3.25-8.3-.29-.652-.926-2.12-1.41-3.26-.488-1.14-1.44-3.33-2.11-4.86-.676-1.53-1.23-3-1.23-3.26 0-.262-.348-1.14-.769-1.96-.421-.815-1.41-3.22-2.19-5.33-.784-2.12-1.77-4.52-2.19-5.33-.421-.815-.767-1.82-.769-2.22-.01-1.25-1.08-.823-1.51.593-.221.733-.755 2.13-1.19 3.11-.431.978-1.88 4.45-3.22 7.7-1.34 3.26-3.22 7.79-4.17 10.1-.948 2.28-5.98 14.4-11.2 27-5.2 12.5-9.89 23.8-10.4 25l-.94 2.22h31.4c21.6 0 31.4-.195 31.4-.625zm58.1-16.6v-79.4l33 .01c34.5.01 40.8.328 46.3 2.39 3.91 1.46 9.96 4.46 11.1 5.48.424.393 1.66 1.38 2.75 2.19 7.65 5.69 15 17 17.7 27.6 2.7 10.2 1.59 24.1-2.68 33.8-6.14 13.9-16.5 23.5-29.5 27.5-2.62.793-7.82.978-32.9 1.17l-29.8.223v58.6h-16v-79.4zm70.3 5.88c10.9-1.51 19.8-9.84 24.2-22.8 1.52-4.45 1.87-16.7.612-21.7-1.71-6.7-4.84-12.3-9.49-16.9-2.31-2.28-4.99-4.55-5.97-5.04-.974-.488-1.9-1.03-2.07-1.21-.163-.176-1.5-.836-2.96-1.47-2.49-1.07-4.52-1.16-30.7-1.34l-28-.19v71.2h24.8c14.6 0 26.8-.265 29.5-.641zm33.2 73.1c-.143-.244.762-2.84 2.01-5.78 1.25-2.93 4.57-10.9 7.39-17.8 2.81-6.85 5.47-13.2 5.91-14.2.44-.978 1.9-4.45 3.25-7.7 2.36-5.71 3.64-8.74 4.75-11.3.288-.652 1.62-3.85 2.96-7.11 1.34-3.26 2.79-6.73 3.22-7.7s2.16-5.11 3.84-9.19c1.68-4.07 3.83-9.28 4.77-11.6 2.01-4.86 8.74-20.8 9.51-22.5.291-.652 1.22-2.92 2.06-5.04.844-2.12 1.77-4.39 2.07-5.04.294-.652 1.1-2.52 1.79-4.15.693-1.63 1.64-3.8 2.11-4.83.465-1.03.846-2.04.846-2.26 0-.335.916-2.54 2.96-7.14 1.18-2.64 2.87-6.72 4.18-10.1.766-1.96 1.64-3.89 1.94-4.3.377-.513 2.5-.741 6.92-.741h6.38l.773 1.93c1.55 3.87 8.36 20 10 23.9.288.652 1.62 3.85 2.95 7.11s2.68 6.46 2.98 7.11c.3.652 2.57 6.12 5.03 12.2 2.47 6.03 4.73 11.5 5.02 12.1.293.652 1.92 4.52 3.61 8.59 4.01 9.63 8.17 19.5 8.84 21 .291.652 1.09 2.52 1.78 4.15.688 1.63 1.49 3.5 1.78 4.15.294.652 1.23 2.92 2.08 5.04 1.45 3.61 2.62 6.4 3.86 9.19.289.652 1.22 2.92 2.07 5.04.85 2.12 1.93 4.69 2.4 5.72.469 1.03.852 2.05.852 2.27 0 .224.8 2.14 1.78 4.25.978 2.11 1.78 3.98 1.78 4.16s.383 1.15.852 2.18 1.55 3.6 2.4 5.72c.85 2.12 1.79 4.39 2.08 5.04 2.05 4.56 2.97 6.83 2.97 7.38 0 .953-16.3.842-17-.116-.327-.408-2.93-6.48-5.77-13.5-2.85-7.01-5.53-13.5-5.96-14.5-.43-.978-1.48-3.51-2.33-5.63-.85-2.12-1.79-4.39-2.08-5.04-.804-1.78-2.68-6.27-3.54-8.45l-.76-1.93-70.5.306-3.51 8.59c-1.93 4.73-3.77 9.21-4.08 9.97-.314.755-.571 1.5-.571 1.66 0 .254-1.29 3.3-2.97 7.04-.294.652-1.23 2.92-2.08 5.04-.85 2.12-1.9 4.65-2.32 5.63-.428.978-1.66 3.98-2.75 6.67l-1.97 4.89h-8.15c-4.48 0-8.26-.2-8.41-.444zm103-62.1c0-.292-2.04-5.37-3.8-9.46-.421-.978-1.39-3.51-2.16-5.63-.766-2.12-1.74-4.52-2.16-5.33-.421-.815-.767-1.7-.769-1.96-.01-.413-1.05-2.95-2.97-7.23-.294-.652-1.23-2.92-2.08-5.04-.85-2.12-1.89-4.65-2.32-5.63-.427-.978-1.27-3.11-1.87-4.74-.599-1.63-1.43-3.63-1.85-4.45-.418-.815-.762-1.71-.764-1.98 0-.277-.389-1.34-.86-2.37-.471-1.03-1.84-4.4-3.04-7.5s-2.64-6.7-3.21-8c-.566-1.3-1.4-3.24-1.85-4.3-1.03-2.4-1.7-2.21-2.71.775-.434 1.29-1.04 2.87-1.35 3.52-.308.652-1.12 2.52-1.81 4.15-.688 1.63-1.49 3.5-1.79 4.15-.482 1.07-6.93 16.5-14.9 35.6-1.63 3.91-3.2 7.65-3.49 8.3s-1.62 3.85-2.95 7.11c-1.33 3.26-2.81 6.8-3.29 7.87s-.87 2.07-.87 2.22c0 .152 14.1.276 31.4.276 17.3 0 31.4-.142 31.4-.314zm199 61.8c-.159-.417-.22-36.1-.136-79.3l.152-78.5h15.4l.153 35.1.153 35.1h93v-70.5h16v159h-16v-74.1h-93l-.305 73.8-7.57.166c-5.73.126-7.64-.018-7.86-.593zm160-78.7v-79.4h104v14.8h-88.3v55.7h77v14.2h-77v59.3h90.1v14.8h-106z" style="fill:#a00" inkscape:connector-curvature="0"/>
   <g>
    <path d="m256 798v-49.2h8.3v21.3h24.4v-21.3h8.3v49.2h-8.3v-20.1h-24.4v20.1z" style="stroke-width:2.56px" inkscape:connector-curvature="0"/>
    <path d="m329 757v41.6h-8.3v-41.6h-14.9v-7.6h38.1v7.6z" style="stroke-width:2.56px" inkscape:connector-curvature="0"/>
    <path d="m371 757v41.6h-8.3v-41.6h-14.9v-7.6h38.1v7.6z" style="stroke-width:2.56px" inkscape:connector-curvature="0"/>
    <path d="m412 749q11.2 0 16.3 4.29 5.13 4.29 5.13 13.2 0 8.93-5.28 13.1-5.2 4.15-16 4.15h-8.72v14.4h-8.3v-49.2zm1.06 27.2q6.89 0 9.35-2.6 2.53-2.67 2.53-7.74 0-5.13-3.17-7.24t-9.92-2.11h-8.44v19.7z" style="stroke-width:2.56px" inkscape:connector-curvature="0"/>
    <path d="m477 755q-3.59 0-5.91 1.48-2.32 1.48-2.32 4.5 0 2.95 2.32 4.57 2.32 1.55 9.85 3.38 7.6 1.83 11.4 5.13 3.87 3.31 3.87 9.78 0 6.4-4.85 10.4t-12.7 4.01q-11.5 0-20.5-7.95l5.2-6.26q7.46 6.47 15.5 6.47 4.01 0 6.33-1.69 2.39-1.76 2.39-4.57 0-2.88-2.25-4.43-2.18-1.62-7.6-2.88-5.42-1.34-8.23-2.39-2.81-1.13-4.99-2.88-4.36-3.31-4.36-10.1 0-6.82 4.92-10.5 4.99-3.73 12.3-3.73 4.71 0 9.35 1.55 4.64 1.55 8.02 4.36l-4.43 6.26q-2.18-1.97-5.91-3.24-3.73-1.27-7.39-1.27z" style="stroke-width:2.56px" inkscape:connector-curvature="0"/>
    <path d="m542 749v7.81h-26.2v13h23.6v7.39h-23.6v13.2h27.1v7.81h-35.4v-49.2z" style="stroke-width:2.56px" inkscape:connector-curvature="0"/>
    <path d="m592 765q0 12.2-10.6 15.3l12.9 17.9h-10.6l-11.7-16.5h-10.9v16.5h-8.3v-49.2h18.3q11.3 0 16.1 3.8 4.85 3.8 4.85 12.2zm-20.6 9.14q7.03 0 9.57-2.18t2.53-6.96q0-4.85-2.6-6.61-2.6-1.83-9.28-1.83h-10.6v17.6z" style="stroke-width:2.56px" inkscape:connector-curvature="0"/>
    <path d="m626 798h-9.28l-19.8-49.2h9.28l15.1 36.7 15.1-36.7h9.28z" style="stroke-width:2.56px" inkscape:connector-curvature="0"/>
    <path d="m687 749v7.81h-26.2v13h23.6v7.39h-23.6v13.2h27.1v7.81h-35.4v-49.2z" style="stroke-width:2.56px" inkscape:connector-curvature="0"/>
    <path d="m738 765q0 12.2-10.6 15.3l12.9 17.9h-10.6l-11.7-16.5h-10.9v16.5h-8.3v-49.2h18.3q11.3 0 16.1 3.8 4.85 3.8 4.85 12.2zm-20.6 9.14q7.03 0 9.57-2.18t2.53-6.96q0-4.85-2.6-6.61-2.6-1.83-9.28-1.83h-10.6v17.6z" style="stroke-width:2.56px" inkscape:connector-curvature="0"/>
    <path d="m786 749q11.2 0 16.3 4.29 5.13 4.29 5.13 13.2 0 8.93-5.28 13.1-5.2 4.15-16 4.15h-8.72v14.4h-8.3v-49.2zm1.06 27.2q6.89 0 9.35-2.6 2.53-2.67 2.53-7.74 0-5.13-3.17-7.24t-9.92-2.11h-8.44v19.7z" style="stroke-width:2.56px" inkscape:connector-curvature="0"/>
    <path d="m857 765q0 12.2-10.6 15.3l12.9 17.9h-10.6l-11.7-16.5h-10.9v16.5h-8.3v-49.2h18.3q11.3 0 16.1 3.8 4.85 3.8 4.85 12.2zm-20.6 9.14q7.03 0 9.57-2.18t2.53-6.96q0-4.85-2.6-6.61-2.6-1.83-9.28-1.83h-10.6v17.6z" style="stroke-width:2.56px" inkscape:connector-curvature="0"/>
    <path d="m904 761q-4.99-5.2-12.3-5.2t-12.4 5.2q-4.99 5.2-4.99 12.7 0 7.39 4.99 12.6 5.06 5.2 12.4 5.2t12.3-5.2q5.06-5.2 5.06-12.6 0-7.46-5.06-12.7zm6.12 30.8q-7.46 7.24-18.4 7.24t-18.4-7.24q-7.46-7.31-7.46-18.1 0-10.9 7.46-18.1 7.46-7.31 18.4-7.31t18.4 7.31q7.46 7.24 7.46 18.1 0 10.8-7.46 18.1z" style="stroke-width:2.56px" inkscape:connector-curvature="0"/>
    <path d="m928 756v-7.46h23.9v32.4q0 8.58-4.36 12.9-4.36 4.29-11.2 4.29-8.58 0-14.6-6.05l4.71-6.54q4.78 4.57 9.35 4.57 3.24 0 5.49-2.18 2.32-2.18 2.32-6.54v-25.4z" style="stroke-width:2.56px" inkscape:connector-curvature="0"/>
    <path d="m999 749v7.81h-26.2v13h23.6v7.39h-23.6v13.2h27.1v7.81h-35.4v-49.2z" style="stroke-width:2.56px" inkscape:connector-curvature="0"/>
    <path d="m1033 791q4.29 0 7.39-1.41 3.09-1.48 6.47-4.64l5.35 5.49q-7.81 8.65-19 8.65-11.1 0-18.5-7.17-7.31-7.17-7.31-18.1t7.46-18.3q7.53-7.31 18.9-7.31 11.5 0 19.1 8.44l-5.28 5.77q-3.52-3.38-6.68-4.71-3.09-1.34-7.31-1.34-7.46 0-12.5 4.85-5.06 4.78-5.06 12.3 0 7.46 4.99 12.5 5.06 4.99 12 4.99z" style="stroke-width:2.56px" inkscape:connector-curvature="0"/>
    <path d="m1081 757v41.6h-8.3v-41.6h-14.9v-7.6h38.1v7.6z" style="stroke-width:2.56px" inkscape:connector-curvature="0"/>
   </g>
  </g>
 </g>
</svg>
