<?xml version="1.0" encoding="utf-8"?>
<!-- Generator: Adobe Illustrator 25.4.1, SVG Export Plug-In . SVG Version: 6.00 Build 0)  -->
<svg version="1.1" id="Layer_1" xmlns="http://www.w3.org/2000/svg" xmlns:xlink="http://www.w3.org/1999/xlink" x="200px" y="200px"
	 viewBox="0 0 611.26 224.22" style="enable-background:new 0 0 611.26 224.22;" xml:space="preserve">
<style type="text/css">
	.st0{fill:#08B09C;}
	.st1{fill:#233941;}
</style>
<g>
	<path class="st0" d="M58.98,60.44L70.33,79.8l11.18-19.36H58.98z M75.98,81.85h19.6L85.04,66.16L75.98,81.85z M105.52,81.85h23.02
		l-11.51-19.65L105.52,81.85z M111.21,60.44H88.34l12.22,18.2L111.21,60.44z M85.1,105.02l10.13-17.3H74.97L85.1,105.02z
		 M106.22,87.72l10.89,18.6l10.89-18.6H106.22z M111.63,108.68l-10.91-18.63l-10.91,18.63H111.63z M117.44,160.33l10.86-18.54
		h-21.67L117.44,160.33z M128.3,135.92l-10.83-18.49l-10.83,18.49H128.3z M122.66,114.56l10.8,18.44l10.8-18.44H122.66z
		 M136.89,138.85L136.89,138.85v0.01l15.1,25.88l2.57,4.4h-38.81l-0.86-1.48l-13.38-22.93L88.14,167.6l-0.86,1.48H48.46l2.57-4.4
		l31.08-53.07L51.26,58.95l-2.57-4.39h70.73l0.87,1.48l31.7,54.13l0.85,1.45l-0.85,1.46L136.89,138.85z M133.46,144.72l-10.86,18.54
		h21.67L133.46,144.72z M80.42,163.21l-10.84-18.5l-10.83,18.5H80.42z M74.73,141.79l10.83,18.5l10.79-18.5H74.73z M96.17,135.92
		l-11.05-17.74l-10.39,17.74H96.17z M89.85,114.56l11.56,18.57l0.08-0.14v0l10.8-18.43H89.85z M133.43,90.19l-10.83,18.49h21.66
		L133.43,90.19z"/>
	<polygon class="st0" points="539.13,74.34 523.32,98.94 531.05,111.5 556.17,74.98 556.17,74.34 	"/>
	<polygon class="st1" points="519.19,105.38 502.25,77.82 500.11,74.34 483.28,74.34 483.28,74.98 512.11,118.45 512.11,149.49 
		526.26,149.49 526.28,116.9 	"/>
	<g>
		<path class="st1" d="M238.37,99.27c0-13.03-9.33-24.82-27.01-24.93c-11.9,0.11-23.8,0-35.7,0v75.14h14.15V124.4h13.61l21.87,25.08
			h16.83v-0.97l-22.73-25.62C233.65,120.01,238.37,109.61,238.37,99.27 M211.35,87.53c8.9,0,12.86,6.02,12.86,12.06
			c0,6.04-3.86,12.06-12.86,12.06h-21.55V87.53H211.35z"/>
	</g>
	<path class="st1" d="M280.51,74.34l-33.66,75.14h15.33l6.43-14.15h39.23l6.33,14.15h15.43l-33.66-75.14H280.51z M274.3,122.15
		l13.94-32.01l13.93,32.01H274.3z"/>
	<polygon class="st1" points="341.53,74.56 341.53,149.49 355.68,149.49 355.68,121.72 393.3,121.72 393.3,108.65 355.68,108.65 
		355.68,88.17 395.45,88.17 395.45,74.56 	"/>
	<path class="st1" d="M437.81,74.34l-33.66,75.14h15.33l6.43-14.15h39.23l6.33,14.15h15.44l-33.66-75.14H437.81z M431.59,122.15
		l13.94-32.01l13.93,32.01H431.59z"/>
</g>
</svg>
