<svg width="528" height="384" viewBox="0 0 528 384" fill="none" xmlns="http://www.w3.org/2000/svg">
<rect width="528" height="384" fill="#F9FAFA"/>
<g clip-path="url(#clip0_10_9)">
<path d="M131.537 181.517V203.307L112.67 214.205V227.824L143.339 210.119V174.705L131.537 181.517Z" fill="#00AC69"/>
<path d="M112.67 170.624L131.537 181.517L143.339 174.705L112.67 157L82 174.705L93.7973 181.517L112.67 170.624Z" fill="#1CE783"/>
<path d="M100.872 199.226V221.017L112.67 227.824V192.414L82 174.705V188.329L100.872 199.226Z" fill="#1D252C"/>
<path d="M185.436 174.656C178.834 174.656 175.706 178.826 175.706 178.826H175.358L174.668 175.351H166.671V210.796H175.358V190.303C175.358 185.785 178.477 182.658 183.004 182.658C187.53 182.658 190.649 185.776 190.649 190.303V210.796H199.336V189.599C199.336 180.564 193.429 174.656 185.436 174.656Z" fill="#1D252C"/>
<path d="M279.129 198.634H278.63L272.722 175.351H263.883L257.976 198.634H257.481L251.569 175.351H242.534L251.569 210.796H262.15L268.053 187.861H268.552L274.46 210.796H285.036L294.071 175.351H285.036L279.129 198.634Z" fill="#1D252C"/>
<path d="M320.673 178.479H320.326L319.631 175.36H312.333V210.801H321.021V190.307C321.021 185.79 323.106 183.704 327.623 183.704H332.079V175.355H326.911C325.7 175.358 324.507 175.641 323.425 176.183C322.342 176.725 321.401 177.511 320.673 178.479V178.479Z" fill="#1D252C"/>
<path d="M351.303 174.656C340.882 174.656 333.237 182.301 333.237 193.074C333.237 203.846 340.45 211.492 351.303 211.492C360.093 211.492 365.386 206.319 367.591 202.514L359.616 199.672C358.828 201.115 355.647 203.891 351.303 203.891C346.237 203.891 342.62 200.719 341.925 195.872H368.331C368.575 194.73 368.691 193.564 368.678 192.397C368.678 182.301 361.033 174.656 351.303 174.656ZM341.925 189.946C342.967 185.429 346.095 181.954 351.303 181.954C356.172 181.954 359.295 185.429 359.99 189.946H341.925Z" fill="#1D252C"/>
<path d="M222.962 174.656C212.537 174.656 204.892 182.301 204.892 193.074C204.892 203.846 212.092 211.492 222.962 211.492C231.752 211.492 237.041 206.319 239.246 202.514L231.271 199.672C230.483 201.115 227.306 203.891 222.962 203.891C217.897 203.891 214.275 200.719 213.58 195.872H239.99C240.234 194.73 240.351 193.564 240.337 192.397C240.337 182.301 232.692 174.656 222.962 174.656ZM213.58 189.946C214.622 185.429 217.75 181.954 222.962 181.954C227.827 181.954 230.955 185.429 231.65 189.946H213.58Z" fill="#1D252C"/>
<path d="M399.049 161.357H390.361V170.045H399.049V161.357Z" fill="#1D252C"/>
<path d="M423.022 203.499C417.81 203.499 413.64 199.329 413.64 193.074C413.64 186.819 417.81 182.649 423.022 182.649C428.235 182.649 430.32 186.124 431.015 188.209L438.883 185.411C436.976 180.461 432.298 174.656 423.022 174.656C412.597 174.656 404.952 182.301 404.952 193.074C404.952 203.846 412.597 211.492 423.022 211.492C432.378 211.492 437.056 205.593 438.928 200.407L431.015 197.591C430.32 200.024 428.235 203.499 423.022 203.499Z" fill="#1D252C"/>
<path d="M369.64 169.078H374.572V210.796H383.26V161.357H369.64V169.078Z" fill="#1D252C"/>
<path d="M399.049 175.351H390.361V210.796H399.049V175.351Z" fill="#1D252C"/>
<path d="M443.579 203.998C442.914 203.988 442.262 204.176 441.704 204.539C441.147 204.901 440.71 205.42 440.449 206.032C440.188 206.643 440.114 207.318 440.238 207.971C440.362 208.624 440.677 209.226 441.143 209.699C441.61 210.173 442.207 210.497 442.858 210.63C443.509 210.763 444.185 210.7 444.8 210.448C445.415 210.196 445.941 209.766 446.312 209.214C446.682 208.663 446.88 208.013 446.88 207.348C446.895 206.908 446.82 206.47 446.659 206.06C446.499 205.651 446.257 205.278 445.949 204.964C445.64 204.651 445.27 204.404 444.863 204.237C444.456 204.071 444.019 203.99 443.579 203.998ZM443.579 210.186C443.015 210.196 442.462 210.038 441.989 209.732C441.516 209.426 441.144 208.986 440.922 208.469C440.7 207.951 440.637 207.379 440.74 206.825C440.844 206.271 441.111 205.761 441.506 205.359C441.9 204.958 442.406 204.682 442.958 204.569C443.51 204.455 444.083 204.509 444.604 204.722C445.126 204.935 445.572 205.299 445.886 205.767C446.2 206.234 446.368 206.785 446.368 207.348C446.38 207.719 446.317 208.089 446.182 208.435C446.047 208.781 445.843 209.096 445.581 209.36C445.32 209.624 445.008 209.832 444.664 209.971C444.319 210.11 443.95 210.177 443.579 210.168V210.186Z" fill="#1D252C"/>
<path d="M445.018 206.729C445.017 206.568 444.983 206.409 444.919 206.262C444.854 206.115 444.76 205.983 444.642 205.873C444.524 205.764 444.386 205.68 444.234 205.626C444.083 205.573 443.922 205.551 443.761 205.562H442.273V209.054H442.786V207.843H443.253L444.461 209.054H445.098L443.891 207.843C444.187 207.843 444.472 207.726 444.683 207.517C444.894 207.309 445.014 207.025 445.018 206.729V206.729ZM442.79 207.33V206.074H443.761C443.854 206.063 443.949 206.071 444.039 206.099C444.128 206.126 444.211 206.173 444.282 206.234C444.352 206.296 444.409 206.372 444.448 206.457C444.488 206.543 444.509 206.635 444.51 206.729C444.51 207.099 444.274 207.33 443.761 207.33H442.79Z" fill="#1D252C"/>
</g>
<defs>
<clipPath id="clip0_10_9">
<rect width="364.88" height="70.8241" fill="white" transform="translate(82 157)"/>
</clipPath>
</defs>
</svg>
