<svg height="200" viewBox="0 0 200 200" width="200" xmlns="http://www.w3.org/2000/svg"><path d="m0 0h200v200h-200z" fill="#9bbb78"/><path d="m100 20.496094c3.714844-.082032 7.335938-.15625 10.988281.457031 7.792969 1.183594 15.421875 4.714844 21.078125 10.25.503906.445313.824219.609375 1.511719.582031 3.136719.023438 6.25-.335937 9.390625-.226562 4.226562.078125 9.296875-.382813 13.25 1.28125 4.203125 1.8125 7.621094 5.328125 9.027344 9.714844.886718 2.492187.710937 4.851562.726562 7.445312-.003906 13.542969-.003906 27.085938 0 40.625.121094 6.480469-4.527344 12.703125-10.65625 14.695312-3.359375 1.277344-6.457031.652344-9.984375.871094.015625.625.035157 1.246094.0625 1.871094 1.796875.542969 3.492188.960938 5.109375 1.972656 3.640625 2.246094 6.207032 6.359375 6.410156 10.660156.082032 1.949219-.03125 3.90625.03125 5.859376 1.0625 1.15625 2.332032 2.21875 2.351563 3.921874-.0625 1.351563-.621094 2.714844-1.003906 4.003907-.492188 1.429687-.8125 2.941406-1.4375 4.316406-.351563.722656-1.308594 1.554687-2.148438 1.101563-1.457031-.441407-1.671875-2.167969-2.167969-3.386719-.59375-1.980469-1.730468-3.992188-1.898437-6.054688.136719-2.097656 1.488281-2.96875 3.066406-4.039062.019531-2.453125.347657-5.175781-.308593-7.554688-1.074219-3.738281-4.175782-6.683593-8.007813-7.460937-.148437 1.800781-.058594 3.59375-.027344 5.394531-.007812 16.277344 0 32.554687-.003906 48.828125.070313 3.742188-1.316406 7.8125-4.132813 10.363281-2.265624 2.21875-5.179687 3.8125-8.402343 3.914063-3.257813.105468-6.523438.054687-9.78125.023437-5.625-.078125-10.664063-3.984375-12.457031-9.269531-1.019532-2.742188-.675782-5.289062-.738282-8.15625-.039062-2.476562.074219-4.957031-.035156-7.429688-.109375-2.484374-1.613281-4.808593-3.734375-6.066406-2.96875-1.582031-6.71875-1.34375-9.242187.972656-1.660157 1.460938-2.539063 3.683594-2.496094 5.878907.015625 3.519531.007812 7.035156.011718 10.550781-.003906 6.589844-5.351562 12.722656-11.9375 13.457031-2.328124.1875-4.6875.066407-7.023437.085938-2.558594-.058594-4.925781.210937-7.355469-.726563-5.347656-1.921875-9.121094-7.105468-9.199218-12.8125.003906-26.851562-.003907-53.617187.019531-80.472656-.027344-2.332031.105469-4.621094-.148438-6.941406-.632812.160156-1.261719.316406-1.898437.460937-.113282 6.585938-.011719 13.175781-.050782 19.761719-.070312 2.976562.304688 5.652344-.582031 8.554688-1.457031 5.550781-6.699219 9.71875-12.421875 9.960937-3.382812.089844-6.773437-.007813-10.160156.046875-3.777344.0625-7.460938-1.484375-10.152344-4.113281-2.441406-2.566407-4.050781-6.179688-3.898437-9.761719.027343-4.691406-.015625-9.386719.015625-14.074219-.054688-2.449219 1.683594-4.648437 4.050781-5.222656 2.222656-.488281 4.617187-.363281 6.875-.171875 1.480469.105469 2.867187.828125 3.847656 1.933594 1.015625 1.214844 1.242188 2.714844 1.304688 4.25.0625 2.871094-.035157 5.746094.015625 8.613281.015625 1.082031.332031 2.214844 1.230468 2.890625.902344.160156 2.386719.355469 2.980469-.53125.769531-.808594.671875-1.726562.710938-2.761719-.039063-7.421875.003906-14.847656-.023438-22.269531.007813-2.300781.242188-4.519531 1.234375-6.625 1.644532-3.6875 5.007813-6.476562 8.867188-7.582031 2.628906-.71875 5.675781-.335938 8.429687-.476563.429688-8.503906 3.394531-16.824218 8.40625-23.699218 2.730469-3.636719 5.980469-6.789063 9.613281-9.519532 6.683594-4.800781 14.671876-7.6875 22.898438-8.164062zm0 0" fill="#719e41"/><path d="m103.125 24.316406c5.605469-.121094 11.183594.828125 16.324219 3.101563 3.226562 1.304687 5.976562 3.28125 8.714843 5.390625-5.25 1.683594-10.046874 4.914062-13.328124 9.371094-3.761719 4.929687-5.660157 11.164062-5.359376 17.351562 1.285157.007812 2.570313.007812 3.855469-.015625-.332031-7.609375 3.109375-15.179687 9.351563-19.617187 4.082031-3.054688 8.980468-4.371094 14.035156-4.453126 4.558594.03125 9.125-.070312 13.679688.050782 4.230468.152344 8.207031 2.539062 10.238281 6.269531 1.121093 1.90625 1.589843 4.082031 1.585937 6.28125-.015625 13.019531.003906 26.042969-.007812 39.0625-.003906 2.011719.101562 3.902344-.34375 5.882813-1.171875 5.195312-6.117188 9.289062-11.480469 9.257812-4.816406 0-9.636719.007812-14.457031-.003906-7.097656.1875-14.1875-3.601563-18.273438-9.355469-3.011718-4.09375-4.4375-9.101563-4.335937-14.164063-1.28125.003907-2.558594.003907-3.835938.007813-.335937 7.472656 2.765625 14.878906 8.09375 20.085937 4.910157 4.617188 11.570313 7.484376 18.355469 7.3125 1.773438.003907 3.542969.027344 5.316406-.039062.09375.4375.164063.878906.21875 1.320312-.007812 19.535157.003906 39.074219-.007812 58.605469.078125 4.960938-3.789063 9.523438-8.761719 10.003907-3.089844.101562-6.1875.019531-9.273437.039062-5.007813.125-9.472657-4.308594-9.683594-9.253906-.105469-4.03125.082031-8.078125-.078125-12.105469-.296875-3.925781-2.339844-7.15625-5.746094-9.109375-2.480469-1.539062-5.101563-1.464844-7.917969-1.285156-5.253906.753906-9.390625 5.464844-9.515625 10.765625-.003906 3.648437.015625 7.296875.007813 10.941406.136718 3.941406-2.539063 7.789063-6.109375 9.332031-2.28125 1.011719-4.597657.671875-7.042969.71875-2.121094-.046875-4.277344.113282-6.390625-.105468-4.484375-.707032-8.183594-5.023438-8.242187-9.554688-.015626-30.402344.027343-60.8125-.019532-91.214844-2.074218.140625-4.339844-.246094-6.351562.269532-2.011719.671874-3.488282 2.421874-3.453125 4.597656-.027344 7.941406-.007813 15.902344-.011719 23.847656.011719 2.769531-1.25 5.527344-3.289062 7.394531-1.8125 1.609375-4.160157 2.585938-6.597657 2.601563-3.136719.011718-6.273437-.011719-9.410156.007812-3.867187.125-7.75-2.296875-9.296875-5.855468-.644531-1.316407-.941406-2.679688-.941406-4.144532-.007813-4.167968.023437-8.335937-.023438-12.5.015625-.640625-.03125-1.328125.132813-1.953125.3125-.820312 1.074219-1.125 1.890625-1.222656 1.917968-.121094 3.917968-.144531 5.800781.242187.332031.707032.695313 1.316407.640625 2.132813.027344 3-.027344 6.003906.011719 9.003906.074219 2.300781 1.042969 4.507813 3.023437 5.773438 1.316406.851562 2.753906.820312 4.261719.71875 1.742187-.117188 3.3125-1.179688 4.289063-2.589844.835937-1.304687 1.085937-2.765625 1.078124-4.292969-.007812-7.808594-.007812-15.640625-.003906-23.445312.011719-2.535156.941406-4.941406 2.613282-6.839844 1.773437-1.886719 4.246093-3.050781 6.84375-3.136719 2.949218-.085937 5.90625 0 8.859374-.054687.050782-2.003906.28125-3.996094.382813-6 1.246094-11.46875 7.625-22.203125 17.257813-28.59375 6.621093-4.519532 14.703124-6.984375 22.726562-6.835938zm0 0" fill="#fefefe"/><path d="m150.058594 39.832031c2.195312.632813 4.734375 1.683594 6.199218 3.507813 1.675782 2.175781 2.195313 5.175781 2.410157 7.84375.0625.949218-.347657 1.671875-1.285157 1.929687-1.007812.398438-1.652343-.265625-2.464843-.722656-.40625-2.441406-.308594-4.847656-2.046875-6.808594-1.816406-1.792969-4.703125-2.332031-7.160156-2.429687-.726563-.082032-1.433594.0625-1.972657-.523438-.878906-.984375-.738281-2.496094.285157-3.324218 1.960937-.335938 4.121093.0625 6.035156.527343zm0 0" fill="#719e41"/><path d="m80.988281 54.414062c2.523438-1.21875 5.644531.132813 6.617188 2.707032.3125 1.535156.371093 3.519531-.722657 4.785156-.859374 1.066406-2.324218 1.78125-3.683593 1.875-1.789063-.007812-3.707031-.964844-4.503907-2.628906-1.253906-2.433594-.292968-5.652344 2.292969-6.738282zm0 0" fill="#719e41"/><path d="m156.8125 130.417969c-.335938 2-1.109375 3.949219-1.730469 5.875-.488281-1.546875-1.0625-3.0625-1.585937-4.597657-.199219-.691406-.4375-1.378906-.011719-2.042968 1.066406-.988282 2.964844-.863282 3.328125.765625zm0 0" fill="#fefefe"/></svg>