<svg height="200" viewBox="0 0 200 200" width="200" xmlns="http://www.w3.org/2000/svg" xmlns:xlink="http://www.w3.org/1999/xlink"><linearGradient id="a" gradientTransform="matrix(-1.885618 -1.885618 1.885618 -1.885618 -2989.253255 -1107.52002)" gradientUnits="userSpaceOnUse" x1="-1139.349976" x2="-1139.349976" y1="423.970001" y2="573.969971"><stop offset="0" stop-color="#c8511b"/><stop offset="1" stop-color="#f90"/></linearGradient><path d="m0 0h200v200h-200z" fill="url(#a)"/><g fill="#fff"><path d="m140 125.332031v-5.332031c6.425781 0 21.332031-1.921875 21.332031-19.734375 0-10.664063-6.265625-17.359375-18.664062-19.839844-1.195313-.242187-2.074219-1.261719-2.132813-2.480469-.613281-10.398437-6.667968-14.105468-11.65625-14.105468-3.429687.035156-6.648437 1.671875-8.691406 4.425781-.589844.769531-1.554688 1.15625-2.511719 1.011719-.957031-.140625-1.765625-.796875-2.101562-1.703125-1.726563-5.027344-4.582031-9.589844-8.347657-13.335938-8.34375-8.65625-21.078124-11.449219-32.28125-7.074219-11.203124 4.371094-18.675781 15.054688-18.945312 27.074219.003906 1.195313.074219 2.390625.214844 3.574219.160156 1.335938-.699219 2.582031-2 2.90625-5.816406 1.441406-15.574219 5.867188-15.574219 19.308594v1.464844c.957031 10.761718 10.164063 18.890624 20.960937 18.507812h3.066407v5.332031h-3.066407c-13.582031.347657-25.074218-9.957031-26.214843-23.492187 0-.558594 0-1.148438 0-1.761719-.476563-11.003906 6.675781-20.898437 17.28125-23.890625 0-.640625 0-1.28125 0-1.949219.324219-14.132812 9.089843-26.699219 22.246093-31.882812 13.152344-5.1875 28.132813-1.984375 38.019532 8.125 3.328125 3.292969 6.039062 7.160156 8 11.414062 2.804687-2.230469 6.28125-3.445312 9.867187-3.441406 7.464844 0 15.332031 5.332031 16.800781 17.121094 13.546876 3.332031 20.984376 12.027343 20.984376 24.640625.082031 18.503906-13.707032 25.117187-26.585938 25.117187zm0 0"/><path d="m121.332031 98.214844c-7.453125.050781-13.65625 5.742187-14.34375 13.164062s4.359375 14.160156 11.679688 15.582032v11.707031h-16v-45.519531c7.363281-1.378907 12.46875-8.140626 11.777343-15.601563-.691406-7.460937-6.953124-13.167969-14.445312-13.167969s-13.753906 5.707032-14.445312 13.167969c-.691407 7.460937 4.414062 14.222656 11.777343 15.601563v32.183593h-16v-5.144531c7.367188-1.378906 12.472657-8.136719 11.78125-15.597656-.695312-7.460938-6.953125-13.167969-14.445312-13.167969-7.496094 0-13.753907 5.707031-14.445313 13.167969-.691406 7.460937 4.410156 14.21875 11.777344 15.597656v7.8125c0 1.472656 1.195312 2.667969 2.667969 2.667969h18.664062v29.332031h5.335938v-16h18.664062c1.472657 0 2.667969-1.195312 2.667969-2.667969v-14.371093c7.316406-1.421876 12.367188-8.160157 11.675781-15.582032-.6875-7.421875-6.886719-13.113281-14.34375-13.164062zm-51.839843 7.757812c-.011719-5.070312 4.085937-9.191406 9.15625-9.199218 5.070312-.011719 9.1875 4.09375 9.191406 9.164062s-4.101563 9.183594-9.171875 9.183594c-5.058594 0-9.160157-4.09375-9.175781-9.148438zm21.335937-27.066406c-.035156-3.71875 2.179687-7.085938 5.605469-8.53125 3.425781-1.445312 7.382812-.679688 10.023437 1.9375s3.441407 6.566406 2.027344 10.007812c-1.417969 3.4375-4.765625 5.679688-8.484375 5.679688-5.035156 0-9.128906-4.058594-9.171875-9.09375zm30.503906 42.988281c-5.066406 0-9.171875-4.109375-9.171875-9.175781s4.105469-9.171875 9.171875-9.171875c5.066407 0 9.175781 4.105469 9.175781 9.171875s-4.109374 9.175781-9.175781 9.175781zm0 0"/></g></svg>