<svg height="200" viewBox="0 0 200 200" width="200" xmlns="http://www.w3.org/2000/svg"><g transform="matrix(.90380075 0 0 .90380075 9.61993 80.88598)"><path d="m0 .0429688h3.921875c-1.9375.8984372-3 1.9335932-3.921875 3.8710932zm0 0" fill="#fff"/><path d="m3.921875.0429688h29.640625l.359375.1757812.320313.179688c1.378906.894531 2.574218 1.953124 2.988281 3.621093.597656 2.300781-.25 4.757813-2.226563 6.085938-1.148437.808593-2.386718.835937-3.738281.851562-6.949219-.03516-13.894531-.02734-20.84375-.01172-.0039 1.808594-.0039 3.617188 0 5.429688 7.355469.04297 14.738281-.03516 22.085937.02344 2.792969.03516 5.160157 2.613281 5.007813 5.410156-.04297 5.457031.02734 10.917968-.03125 16.371094-.04687 2.839843-2.570313 5.152343-5.378906 5.023437-8.617188.01172-17.25-.03516-25.867188.01563-1.367187-.01953-2.625.0078-3.820312-.765625-1.203125-.761725-1.84375-1.906256-2.417969-3.167975v-3.109375c.667969-1.308593 1.402344-2.492187 2.699219-3.25 1.113281-.660156 2.292969-.617187 3.539062-.640625 6.808594.03516 13.617188.02344 20.425781.01172.0039-1.671875.0039-3.339844 0-5.011719-6.808593-.01172-13.617187-.01953-20.425781.01172-1.25-.02344-2.414062-.0078-3.53125-.644531-1.34375-.757815-2.042969-1.972658-2.707031-3.320315v-19.417969c.921875-1.9375 1.984375-2.972656 3.921875-3.8710932zm0 0" fill="#2e94b3"/><path d="m33.5625.0429688h13.800781c-1.675781.7265622-3.21875 1.5468752-4.378906 3.0039062-1.160156 1.390625-1.730469 3.125-1.734375 4.933594-.0039 14.34375.0078 28.839843-.0078 43.179687.02344 1.605469-.140626 3.304688.171874 4.882813.488282 1.96875 2.109376 3.03125 3.785157 3.914062h-45.199231v-20.671875c.574219 1.261719 1.214844 2.40625 2.417969 3.167969 1.195312.773437 2.453125.746094 3.820312.765625 8.617188-.05078 17.25-.0039 25.867188-.01563 2.808593.128906 5.332031-2.183594 5.378906-5.023437.05859-5.453126-.01172-10.914063.03125-16.371094.152344-2.796875-2.214844-5.375-5.007813-5.410156-7.347656-.05859-14.730468.01953-22.085937-.02344-.0039-1.8125-.0039-3.621094 0-5.429688 6.949219-.01562 13.894531-.02344 20.84375.01172 1.351563-.01563 2.589844-.04297 3.738281-.851562 1.976563-1.328119 2.824219-3.785151 2.226563-6.085932-.414063-1.667969-1.609375-2.726562-2.988281-3.621093l-.320313-.179688zm0 0" fill="#fff"/><path d="m47.363281.0429688h25.3125c2.03125.8828122 3.839844 2.0664062 5.019531 4.0000002.824219 1.324219 1.070313 2.820312 1.066407 4.363281-.02344 8.949219-.0078 17.902344-.0078 26.851562.171875 4.25-3.6875 8.089844-7.898437 7.949219-6.25 0-12.515625-.02734-18.765625 0-.01172 3.351563-.01953 6.703125.01563 10.054688-.02734 1.363281.0625 2.746093-.65625 3.957031-.777344 1.375-2.011719 2.070312-3.382813 2.738281h-2.867187c-1.675781-.882812-3.296875-1.945312-3.785157-3.914062-.3125-1.578125-.148437-3.277344-.171874-4.882813.01562-14.339844.0039-28.835937.0078-43.179687.0039-1.808594.574219-3.542969 1.734375-4.933594 1.160156-1.457031 2.703125-2.277344 4.378906-3.0039062zm0 0" fill="#2e94b3"/><path d="m72.675781.0429688h15.972657c-3.277344 1.2968752-5.960938 3.7890622-6.132813 7.5234372-.05859 9.773438.02344 19.585938-.03516 29.359375.0078 1.476563.03906 2.828125.96875 4.050781 1.902343 2.75 6.414062 3.074219 8.59375.503907.960937-1.03125 1.308593-2.320313 1.296875-3.707031-.0039-8.933594-.01953-17.894532 0-26.828126 5.976562-.01562 11.95313-.02344 17.92188.01172 1.35937-.01953 2.59766-.01953 3.75781-.835937 1.96094-1.3125 2.78125-3.761719 2.17188-6.027344-.38672-1.691406-1.55469-2.789062-2.95313-3.6875l-.3164-.183594-.35938-.1796872h11.63281c-1.99218.9453122-3.57812 2.3710932-3.85937 4.6835932-.53906 3.0625 1.73828 6.164063 4.90234 6.191407 7.21094.05859 14.45313-.01172 21.67578.02734.004 1.808594.004 3.617188 0 5.429688-6.2539.02344-12.51953 0-18.76953.0039-4.03125-.1875-7.88281 3.464844-7.88672 7.527344-.0625 3.078125.0352 6.15625-.0195 9.234375.0117 1.726563-.13672 3.683594.60156 5.285156 1.27735 2.660157 3.85157 4.738281 6.88672 4.761719 6.94531.04687 13.90625-.02734 20.85547.03125 1.75781 0 3.37891.0039 4.95703-.890625 2.06641-1.175781 3.90235-3.394531 4.14063-5.839844.16797-1.800781.0547-3.636719.0703-5.441406.008-7.40625-.0156-14.8125.0156-22.21875.0117-1.589844-.12109-3.113281-.91406-4.523437-1.15234-2.105469-3.03906-3.332032-5.17578-4.2617192h47.32422v3.8945392c-.98828-3.199219-4.44141-4.363281-7.4375-3.492188-2.17969.847657-3.50781 3.117188-3.40234 5.441407.008 8.792969.0156 17.609375 0 26.410156-5.27344.01172-10.54688.01172-15.82032 0-.0234-8.921875 0-17.914063-.004-26.828125.0547-2.335938-1.51172-4.496094-3.76563-5.085938-2.11328-.574218-4.44531-.023437-5.84765 1.726563-.96094 1.066406-1.26172 2.367187-1.23438 3.777344.0234 9.789062.0117 19.578125.004 29.371093-.1211 4.269532 3.67187 8.03125 7.90234 7.941407 6.25.01563 12.51563-.02344 18.76563.0078.0117 1.949219.0117 3.902344 0 5.847657-6.94922.01953-13.90235.0078-20.84766-.0039-1.39844-.0078-2.71484.242188-3.79297 1.207031-2.13281 1.761719-2.54297 5.128907-.98437 7.394532.73046 1.0625 1.7539 1.691406 2.85156 2.304687h-6.05469c.73047-.582031 1.58984-1.121093 1.67578-2.144531.17188-1.65625.0977-3.339844.0937-5-.0547-1.078125.0156-2.105469-.86719-2.886719-1.42968-1.269531-4.08984-.695312-4.46093 1.320313-.21485 2.039062-.13672 4.144531-.0742 6.195312.0117 1.210938.80078 1.804688 1.63281 2.515625h-3.82812c.89453-.6875 1.71093-1.265625 1.71093-2.515625.0625-2.050781.14453-4.15625-.0742-6.195312-.37109-2.015625-3.02734-2.589844-4.45703-1.316406-.88672.78125-.8125 1.800781-.86328 2.878906.008 1.664062-.0742 3.347656.0898 5.003906.0898.957031.92578 1.5625 1.59375 2.144531h-3.83204c.89454-.6875 1.71094-1.265625 1.71094-2.515625.0586-2.050781.14063-4.15625-.0742-6.195312-.37109-2.015625-3.03125-2.589844-4.45703-1.316406-.88672.777343-.8125 1.804687-.86719 2.878906-.004 1.664062-.0859 3.351562.0937 5.003906.0937.960938.92188 1.5625 1.59375 2.144531h-4.25c.72266-.582031 1.58204-1.125 1.66797-2.144531.17188-1.65625.0977-3.339844.0937-5-.0547-1.078125.0156-2.105469-.86718-2.886719-1.42969-1.269531-4.08594-.695312-4.45704 1.320313-.23046 2.039062-.15625 4.144531-.0742 6.195312.0156 1.210938.79687 1.808594 1.63671 2.515625h-4.66796c.72656-.582031 1.58203-1.125 1.67187-2.144531.17188-1.65625.0937-3.339844.0898-5.003906-.0547-1.074219.0195-2.101563-.86718-2.878906-1.42578-1.273438-4.08594-.699219-4.45703 1.316406-.23047 2.039062-.15235 4.144531-.0742 6.195312.0156 1.210938.80078 1.808594 1.63672 2.515625h-5.50375c.73047-.582031 1.58594-1.125 1.67578-2.144531.17188-1.65625.0937-3.339844.0898-5-.0547-1.078125.0195-2.105469-.86718-2.886719-1.42578-1.269531-4.08594-.695312-4.45703 1.320313-.23047 2.039062-.15235 4.144531-.0742 6.195312.0156 1.210938.80078 1.808594 1.63672 2.515625h-6.33594c.72656-.582031 1.58594-1.125 1.67187-2.144531.17188-1.65625.0977-3.339844.0937-5.003906-.0547-1.074219.0156-2.101563-.86718-2.882813-1.42969-1.269531-4.08594-.695312-4.45703 1.320313-.23047 2.039062-.15625 4.144531-.0742 6.195312.0156 1.210938.79687 1.808594 1.64062 2.515625h-8.42573c.73047-.582031 1.58594-1.121093 1.67578-2.144531.17188-1.65625.0937-3.339844.0898-5-.0547-1.078125.0195-2.105469-.86719-2.882812-1.42578-1.273438-4.08594-.699219-4.45703 1.316406-.23047 2.039062-.15235 4.144531-.0742 6.195312.0156 1.210938.80078 1.808594 1.64062 2.515625h-11.75778c.730469-.582031 1.585938-1.121093 1.675781-2.144531.171875-1.65625.09375-3.339844.08984-5-.05469-1.078125.01953-2.105469-.867187-2.882812-1.425782-1.273438-4.085938-.699219-4.457032 1.316406-.230468 2.039062-.152344 4.144531-.07422 6.195312.01562 1.210938.800781 1.808594 1.640624 2.515625h-17.179681c.734375-.582026 1.59375-1.121088 1.679687-2.144526.171876-1.65625.09766-3.339844.09375-5-.05469-1.078125.01563-2.105469-.867187-2.882812-1.429687-1.273438-4.089844-.699219-4.460937 1.316406-.226563 2.039062-.152344 4.144531-.07422 6.195312.01172 1.210938.800781 1.808594 1.640625 2.515625h-26.523437c1.371094-.667969 2.605469-1.363281 3.382813-2.738281.71875-1.210938.628906-2.59375.65625-3.957031-.03516-3.351563-.02734-6.703125-.01563-10.054688 6.25-.02734 12.515625 0 18.765625 0 4.210937.140625 8.070312-3.699219 7.898437-7.949219 0-8.949218-.01563-17.902343.0078-26.851562.0039-1.542969-.24217-3.039062-1.066389-4.363281-1.179687-1.933594-2.988281-3.117188-5.019531-4.0000002zm0 0" fill="#fff"/><path d="m88.648438.0429688h24.914062l.35938.1796872.3164.183594c1.39844.898438 2.56641 1.996094 2.95313 3.6875.60937 2.265625-.21094 4.714844-2.17188 6.027344-1.16015.816406-2.39844.816406-3.75781.835937-5.96875-.03516-11.945314-.02734-17.921876-.01172-.01953 8.933594-.0039 17.894532 0 26.828126.01172 1.386718-.335938 2.675781-1.296875 3.707031-2.179688 2.570312-6.691407 2.246093-8.59375-.503907-.929688-1.222656-.960938-2.574218-.96875-4.050781.05859-9.773437-.02344-19.585937.03516-29.359375.171875-3.734375 2.855469-6.226562 6.132813-7.5234372zm0 0" fill="#2e94b3"/><path d="m125.19531.0429688h27.48047c2.13672.9296872 4.02344 2.1562502 5.17578 4.2617192.79297 1.410156.92578 2.933593.91406 4.523437-.0312 7.40625-.008 14.8125-.0156 22.21875-.0156 1.804687.0977 3.640625-.0703 5.441406-.23828 2.445313-2.07422 4.664063-4.14063 5.839844-1.57812.894531-3.19922.890625-4.95703.890625-6.94922-.05859-13.91016.01563-20.85547-.03125-3.03515-.02344-5.60937-2.101562-6.88672-4.761719-.73828-1.601562-.58984-3.558593-.60156-5.285156.0547-3.078125-.043-6.15625.0195-9.234375.004-4.0625 3.85547-7.714844 7.88672-7.527344 6.25-.0039 12.51563.01953 18.76953-.0039.004-1.8125.004-3.621094 0-5.429688-7.22265-.03906-14.46484.03125-21.67578-.02734-3.16406-.02734-5.4414-3.128907-4.90234-6.191407.28125-2.3125 1.86719-3.738281 3.85937-4.6835932zm0 0" fill="#2e94b3"/><path d="m169.57031.382812c2.25391.589844 3.82031 2.75 3.76563 5.085938.004 8.914062-.0195 17.90625.004 26.828125 5.27344.01172 10.54688.01172 15.82032 0 .0156-8.800781.008-17.617187 0-26.410156-.10547-2.324219 1.22265-4.59375 3.40234-5.441407 2.99609-.871093 6.44922.292969 7.4375 3.492188v49.238281c-.66406 3.546875-3.27734 6.171875-6.82422 6.78125h-26.78906c-1.09766-.613281-2.1211-1.242187-2.85156-2.304687-1.5586-2.265625-1.14844-5.632813.98437-7.394532 1.07813-.964843 2.39453-1.214843 3.79297-1.207031 6.94531.01172 13.89844.02344 20.84766.0039.0117-1.945313.0117-3.898438 0-5.847657-6.25-.03125-12.51563.0078-18.76563-.0078-4.23047.08984-8.02344-3.671875-7.90234-7.941407.008-9.792968.0195-19.582031-.004-29.371093-.0273-1.410157.27344-2.710938 1.23438-3.777344 1.40234-1.75 3.73437-2.300781 5.84765-1.726563zm0 0" fill="#2e94b3"/><path d="m52.152344 11.007812c5.238281-.175781 10.511718-.02734 15.757812-.0625.01172 7.117188.01172 14.230469 0 21.351563-5.273437.01172-10.546875.01563-15.820312 0-.02734-6.285156.01953-12.570313-.02344-18.855469 0-.804687 0-1.632812.08594-2.433594zm0 0" fill="#fff"/><path d="m0 23.332031c.664062 1.347657 1.363281 2.5625 2.707031 3.320313 1.117188.636718 2.28125.621094 3.53125.644531 6.808594-.03125 13.617188-.02344 20.425781-.01172.0039 1.671875.0039 3.339844 0 5.011719-6.808593.01172-13.617187.02344-20.425781-.01172-1.246093.02344-2.425781-.019529-3.539062.640627-1.296875.757813-2.03125 1.941407-2.699219 3.25zm0 0" fill="#fff"/><path d="m132.15234 24.414062c5.23828-.175781 10.51172-.02344 15.75782-.0625.0156 2.648438.0156 5.296876 0 7.945313-5.27735.01172-10.54688.01563-15.82032 0 .0391-2.625-.13281-5.265625.0625-7.882813zm0 0" fill="#fff"/><g fill="#2e94b3"><path d="m77.484375 49.929688c.882813.777343.8125 1.804687.867187 2.882812.0039 1.660156.07813 3.34375-.09375 5-.08594 1.023438-.945312 1.5625-1.679687 2.144531h-1.988281c-.839844-.707031-1.628906-1.304687-1.640625-2.515625-.07813-2.050781-.152344-4.15625.07422-6.195312.371093-2.015625 3.03125-2.589844 4.460936-1.316406zm0 0"/><path d="m96.648438 49.929688c.886718.777343.8125 1.804687.867187 2.882812.0039 1.660156.08203 3.34375-.08984 5-.08984 1.023438-.945312 1.5625-1.675781 2.144531h-1.992188c-.839843-.707031-1.625-1.304687-1.640624-2.515625-.07813-2.050781-.15625-4.15625.07422-6.195312.371094-2.015625 3.03125-2.589844 4.457032-1.316406zm0 0"/><path d="m110.39844 49.929688c.88672.777343.8125 1.804687.86719 2.882812.004 1.660156.082 3.34375-.0898 5-.0898 1.023438-.94531 1.5625-1.67578 2.144531h-1.99219c-.83984-.707031-1.625-1.304687-1.64062-2.515625-.0781-2.050781-.15625-4.15625.0742-6.195312.37109-2.015625 3.03125-2.589844 4.45703-1.316406zm0 0"/><path d="m120.81641 49.925781c.88281.78125.8125 1.808594.86718 2.882813.004 1.664062.0781 3.347656-.0937 5.003906-.0859 1.019531-.94531 1.5625-1.67187 2.144531h-1.99219c-.84375-.707031-1.625-1.304687-1.64062-2.515625-.082-2.050781-.15625-4.15625.0742-6.195312.37109-2.015625 3.02734-2.589844 4.45703-1.320313zm0 0"/><path d="m129.14844 49.925781c.88672.78125.8125 1.808594.86718 2.886719.004 1.660156.082 3.34375-.0898 5-.0898 1.019531-.94531 1.5625-1.67578 2.144531h-1.99609c-.83594-.707031-1.6211-1.304687-1.63672-2.515625-.0781-2.050781-.15625-4.15625.0742-6.195312.37109-2.015625 3.03125-2.589844 4.45703-1.320313zm0 0"/><path d="m136.64844 49.929688c.88672.777343.8125 1.804687.86718 2.878906.004 1.664062.082 3.347656-.0898 5.003906-.0898 1.019531-.94531 1.5625-1.67187 2.144531h-2c-.83594-.707031-1.6211-1.304687-1.63672-2.515625-.0781-2.050781-.15625-4.15625.0742-6.195312.37109-2.015625 3.03125-2.589844 4.45703-1.316406zm0 0"/><path d="m143.31641 49.925781c.88281.78125.8125 1.808594.86718 2.886719.004 1.660156.0781 3.34375-.0937 5-.0859 1.019531-.94531 1.5625-1.66797 2.144531h-2c-.83984-.707031-1.62109-1.304687-1.63671-2.515625-.082-2.050781-.15625-4.15625.0742-6.195312.3711-2.015625 3.02735-2.589844 4.45704-1.320313zm0 0"/><path d="m150.30859 51.246094c.21485 2.039062.13282 4.144531.0742 6.195312 0 1.25-.8164 1.828125-1.71094 2.515625h-2c-.67185-.582031-1.49998-1.183593-1.59373-2.144531-.17968-1.652344-.0977-3.339844-.0937-5.003906.0547-1.074219-.0195-2.101563.86719-2.878906 1.42578-1.273438 4.08594-.699219 4.45703 1.316406zm0 0"/><path d="m156.14062 51.246094c.21875 2.039062.13672 4.144531.0742 6.195312 0 1.25-.8164 1.828125-1.71093 2.515625h-2c-.66795-.582031-1.50389-1.1875-1.59373-2.144531-.16407-1.65625-.082-3.339844-.0898-5.003906.0508-1.078125-.0234-2.097656.86328-2.878906 1.42969-1.273438 4.08594-.699219 4.45703 1.316406zm0 0"/><path d="m161.23437 49.925781c.88282.78125.8125 1.808594.86719 2.886719.004 1.660156.0781 3.34375-.0937 5-.0859 1.023438-.94531 1.5625-1.67578 2.144531h-2c-.83203-.710937-1.62109-1.304687-1.63281-2.515625-.0625-2.050781-.14063-4.15625.0742-6.195312.37109-2.015625 3.03125-2.589844 4.46093-1.320313zm0 0"/></g><path d="m200 53.175781v6.78125h-6.82422c3.54688-.609375 6.16016-3.234375 6.82422-6.78125zm0 0" fill="#fff"/></g></svg>