<svg version="1.1" id="Layer_1" xmlns="http://www.w3.org/2000/svg" xmlns:xlink="http://www.w3.org/1999/xlink" x="0px" y="0px"
	 width="100%" viewBox="0 0 460 460" enable-background="new 0 0 460 460" xml:space="preserve">
<path fill="#782B90" opacity="1.000000" stroke="none" 
	d="
M1.241704,418.288971 
	C1.000000,317.979095 1.000000,217.958206 1.000000,117.468658 
	C5.130350,116.138115 5.669940,119.723709 6.535561,122.050163 
	C8.927858,128.479782 12.243386,134.458755 14.987452,140.704987 
	C23.886765,160.962158 32.724583,181.244843 41.703262,201.468307 
	C52.638321,226.098282 63.363487,250.826675 74.356461,275.432983 
	C84.263878,297.609406 93.620705,320.028320 103.917015,342.036072 
	C106.658737,347.896362 108.714035,354.071167 111.918594,359.755707 
	C113.422371,362.423248 115.401909,363.590210 118.346024,363.585327 
	C122.179016,363.579010 126.011986,363.593994 129.845230,363.578003 
	C133.558975,363.562500 135.607132,361.621216 135.474930,358.054962 
	C135.050552,346.606049 140.099945,336.959564 145.781372,327.743652 
	C151.386505,318.651489 159.850235,312.068634 169.072830,307.093323 
	C174.948105,303.923737 177.853119,299.382629 180.214417,293.767029 
	C184.782578,282.903076 189.694290,272.183838 194.822800,261.579224 
	C198.158249,254.682220 201.210281,247.647232 204.241287,240.643234 
	C211.247620,224.453156 218.804398,208.512085 226.051132,192.439316 
	C231.380493,180.619080 236.535370,168.686691 242.357635,157.081238 
	C244.515320,152.780350 247.993011,152.597717 251.342285,156.808411 
	C255.381180,161.886078 258.986328,167.299545 262.777435,172.562759 
	C271.133453,184.163406 279.437042,195.800766 287.815308,207.385681 
	C292.378662,213.695633 297.255524,219.838440 301.219818,226.600266 
	C302.972748,229.590271 302.597351,232.140182 300.908203,234.989746 
	C296.910187,241.734299 291.920197,247.781342 287.397583,254.137863 
	C279.402527,265.374847 271.347412,276.577240 263.236969,287.734741 
	C258.145325,294.739349 253.397049,301.980743 248.193344,308.907837 
	C243.262436,315.471741 243.569000,317.033142 248.942337,323.129608 
	C257.226654,332.528809 261.811890,343.661957 263.277191,355.999878 
	C263.746674,359.952881 265.207336,361.780579 269.178741,361.607727 
	C271.173492,361.520935 273.235321,361.297729 275.167908,361.660370 
	C284.558624,363.422668 289.996277,358.428162 294.613678,351.152771 
	C303.975433,336.401947 314.578247,322.496399 324.686432,308.260529 
	C334.884766,293.897644 344.983459,279.459106 355.285706,265.165833 
	C366.259735,249.940521 376.969757,234.508286 387.731689,219.122452 
	C394.684082,209.182999 401.938660,199.437973 408.978119,189.562775 
	C417.651733,177.395279 426.256470,165.165939 434.770935,152.885727 
	C441.395111,143.331741 448.276886,133.952072 454.724152,124.272392 
	C456.042511,122.293015 457.107330,119.612984 460.709839,120.767593 
	C461.000000,197.354233 461.000000,273.708466 461.000000,350.531342 
	C458.538818,352.775848 457.072968,351.321198 455.659790,349.423004 
	C447.028503,337.829315 438.439209,326.183228 430.099518,314.401550 
	C420.227753,300.455444 409.479401,287.131042 400.305145,272.683136 
	C397.265320,267.895905 395.221985,267.775604 391.623840,272.378906 
	C387.025146,278.262177 382.943146,284.547180 378.662231,290.672241 
	C373.715210,297.750427 368.971008,304.970459 363.937500,311.994873 
	C359.581421,318.073883 359.565002,319.678162 363.890503,325.845764 
	C370.563080,335.359985 376.867950,345.120331 383.373962,354.744873 
	C386.168243,358.878448 389.478943,360.730347 394.550568,360.682281 
	C414.030334,360.497681 433.513336,360.568420 452.994873,360.640015 
	C455.594696,360.649567 458.409332,360.141510 460.735321,362.742798 
	C461.000000,381.020905 461.000000,399.041779 461.000000,417.531342 
	C460.214417,418.730713 459.992523,419.701508 459.917419,420.703369 
	C458.956085,433.524963 450.056061,441.213043 441.406586,448.929718 
	C433.530182,455.956696 424.070251,459.572510 413.289368,460.758759 
	C291.979095,461.000000 170.958206,461.000000 49.468658,461.000000 
	C47.855278,459.727081 46.230476,459.937195 44.806461,459.817963 
	C32.886475,458.819641 23.853415,452.336823 15.668317,444.395081 
	C13.191563,441.991974 10.898355,439.347504 8.543306,436.803223 
	C3.714520,431.586548 3.153285,424.908783 1.241704,418.288971 
z"/>
<path fill="#FEFEFF" opacity="1.000000" stroke="none" 
	d="
M461.000000,120.531349 
	C456.186340,123.080917 455.252930,128.327759 452.520691,131.999130 
	C441.257141,147.134186 431.103485,163.095612 419.829590,178.222443 
	C412.010559,188.713715 404.912750,199.700699 396.880707,210.053574 
	C389.192505,219.963333 382.757507,230.835419 375.508301,241.098480 
	C368.260223,251.359924 360.385376,261.188538 353.372833,271.602539 
	C349.485657,277.375122 345.376038,282.981201 341.414459,288.692535 
	C333.393219,300.256561 325.119324,311.645050 316.990631,323.134949 
	C310.398468,332.452942 303.677979,341.689240 297.396362,351.213715 
	C294.732513,355.252777 291.352417,358.711121 288.857941,362.828918 
	C287.961182,364.309265 286.633026,364.060211 285.348511,364.064667 
	C278.516083,364.088379 271.681976,363.991119 264.851959,364.120728 
	C262.353149,364.168152 261.314545,363.464752 261.242340,360.796173 
	C260.790924,344.124512 253.369736,330.563690 242.025253,318.884674 
	C240.368683,317.179260 240.034668,316.451416 241.664993,314.210419 
	C248.963608,304.177979 255.438217,293.528259 263.002869,283.712158 
	C270.892639,273.474182 277.966614,262.666138 285.773712,252.369827 
	C290.747375,245.810318 295.799011,239.181641 300.097687,232.082672 
	C300.777557,230.959930 301.020416,230.147995 300.173767,228.980286 
	C295.131500,222.026291 290.144012,215.032410 285.166809,208.031509 
	C280.080658,200.877426 275.289337,193.495712 269.896973,186.581757 
	C262.333221,176.883743 255.680099,166.553543 248.383881,156.677979 
	C246.517899,154.152313 245.623459,155.041443 244.494675,157.650040 
	C239.697571,168.735992 234.759094,179.766479 229.591476,190.684311 
	C226.332977,197.568665 223.336517,204.570587 220.068024,211.453476 
	C212.814117,226.728958 206.741013,242.571365 199.318832,257.758606 
	C194.226608,268.178284 190.373398,279.173767 184.487732,289.213470 
	C183.580338,290.761322 183.197769,292.613098 182.540054,294.311768 
	C180.162689,300.451538 177.493271,305.587006 170.803116,309.130615 
	C151.321732,319.449280 139.263016,335.446655 137.799423,358.259521 
	C137.330063,365.575500 137.184067,365.566742 129.849182,365.566956 
	C124.849815,365.567108 119.848473,365.482452 114.851952,365.601288 
	C112.548851,365.656097 111.510521,364.833893 110.461327,362.649933 
	C101.055771,343.071320 93.029900,322.882904 83.987762,303.155487 
	C78.874390,291.999512 73.777443,280.798004 68.941582,269.552612 
	C62.202660,253.881775 54.705395,238.542068 48.461361,222.639984 
	C44.170597,211.712433 38.553741,201.312622 33.782387,190.564713 
	C29.344177,180.567230 25.361097,170.368256 20.960861,160.353241 
	C14.629806,145.943619 8.102424,131.620285 1.329417,117.130058 
	C1.000000,109.979050 1.000000,102.958107 1.000000,95.468582 
	C2.457256,93.076706 4.510277,92.655609 6.765404,92.645149 
	C23.927572,92.565567 41.089535,92.589951 58.251789,92.627060 
	C62.437424,92.636116 64.959435,94.265167 66.608597,98.243523 
	C76.544228,122.211601 87.197258,145.874176 97.424423,169.719193 
	C105.358704,188.218246 113.422455,206.681778 121.650681,225.064163 
	C124.436005,231.286758 126.974991,237.623856 130.081375,243.703217 
	C130.663681,244.842789 130.942535,246.544235 132.487015,246.631256 
	C134.382690,246.738083 134.710876,244.871155 135.264755,243.556946 
	C144.568741,221.481079 155.070908,199.945648 164.972504,178.141861 
	C172.464111,161.644989 180.065811,145.183182 187.719360,128.753403 
	C192.559448,118.363235 197.717850,108.101051 202.009949,97.459808 
	C203.395142,94.025528 205.765762,92.679787 209.329025,92.663643 
	C234.655655,92.548805 259.981964,92.548080 285.308594,92.663933 
	C288.360870,92.677902 290.779633,93.685104 292.633636,96.165230 
	C298.111145,103.492500 303.296387,111.033409 308.431671,118.592117 
	C318.062439,132.767807 327.921478,146.786972 337.454529,161.030304 
	C340.824493,166.065323 343.408264,165.826889 346.792175,160.595398 
	C359.447327,141.030533 373.497772,122.403976 385.882294,102.665504 
	C390.542755,95.237671 396.238831,91.868202 405.471069,92.361763 
	C421.255798,93.205643 437.117920,92.548065 452.947144,92.633530 
	C455.541168,92.647537 458.366028,92.103683 460.718262,94.724052 
	C461.000000,103.354233 461.000000,111.708466 461.000000,120.531349 
z"/>
<path fill="#782A90" opacity="1.000000" stroke="none" 
	d="
M461.000000,94.531342 
	C440.518066,95.082481 420.035645,95.263794 399.554718,95.154381 
	C395.960388,95.135178 394.041687,96.394569 391.889832,99.185394 
	C383.894714,109.554482 376.967346,120.664139 369.443176,131.346298 
	C360.501038,144.041656 351.939789,157.024979 342.888916,169.660583 
	C342.612274,170.046768 342.162476,170.308884 341.791870,170.630173 
	C332.592590,159.710938 325.332336,147.485260 317.137970,135.941742 
	C308.344574,123.554329 299.944550,110.863625 291.281830,98.365967 
	C289.658478,96.023994 287.950623,95.179665 285.150970,95.190475 
	C259.831360,95.288254 234.511017,95.297951 209.191650,95.175507 
	C206.449844,95.162247 205.290665,96.026512 204.170868,98.496269 
	C195.012390,118.695778 185.571411,138.767151 176.402115,158.961838 
	C169.826584,173.443954 163.329056,187.950455 156.395721,202.275955 
	C148.755630,218.061691 142.076477,234.311935 134.929977,250.338089 
	C134.283859,251.787033 133.884644,254.158936 132.158112,254.070435 
	C129.993759,253.959427 130.243515,251.368179 129.555283,249.751923 
	C125.077484,239.236069 120.495247,228.764664 116.022057,218.246872 
	C111.357918,207.280106 106.499962,196.394119 101.793533,185.448120 
	C97.542404,175.561050 92.964371,165.780136 88.889771,155.816223 
	C84.747894,145.687775 79.738770,135.958252 75.860268,125.700500 
	C72.177834,115.961319 67.416931,106.634430 63.349773,97.033257 
	C62.226826,94.382362 60.279716,94.944168 58.405022,94.941429 
	C39.581837,94.913887 20.758589,94.930702 1.467679,94.967514 
	C1.000000,78.312439 1.000000,61.624878 1.000000,44.468658 
	C1.785626,43.269302 2.007529,42.298477 2.082636,41.296646 
	C3.043868,28.475071 11.943872,20.787014 20.593285,13.070386 
	C28.469702,6.043387 37.929661,2.427387 48.710651,1.241237 
	C170.020889,1.000000 291.041779,1.000000 412.531342,1.000000 
	C414.144592,2.272492 415.765198,2.011876 417.192963,2.190266 
	C436.013885,4.541799 447.628479,16.935545 457.507660,31.464979 
	C459.798889,34.834660 459.057617,39.530701 460.758331,43.711170 
	C461.000000,60.687561 461.000000,77.375122 461.000000,94.531342 
z"/>
<path fill="#FEFEFE" opacity="1.000000" stroke="none" 
	d="
M461.000000,362.539368 
	C437.037048,363.061035 413.074127,363.126801 389.111145,363.169861 
	C387.840454,363.172150 386.556061,363.423340 385.572113,362.010956 
	C379.529419,353.337494 373.618500,344.585388 367.950043,335.655640 
	C364.850800,330.773285 361.098297,326.305664 358.068787,321.333588 
	C356.834381,319.307678 356.871643,317.998169 358.292145,316.055450 
	C367.263550,303.786133 375.569672,291.045441 384.356049,278.640259 
	C387.946625,273.570862 392.479492,269.015320 395.110809,262.617065 
	C397.763611,265.722260 400.598572,268.256073 402.465759,271.370148 
	C408.603912,281.607361 416.156372,290.831696 423.157532,300.422424 
	C433.580505,314.700531 443.399078,329.437805 454.648163,343.108582 
	C456.730591,345.639343 456.996704,349.448425 460.646484,351.061707 
	C461.000000,354.692902 461.000000,358.385834 461.000000,362.539368 
z"/>
<path fill="#010001" opacity="1.000000" stroke="none" 
	d="
M461.000000,43.531342 
	C457.743927,43.328865 457.910004,39.991001 457.288330,38.042778 
	C453.518585,26.228561 444.777161,18.907583 435.491028,11.692142 
	C428.638214,6.367404 420.182312,5.343791 412.863159,1.378854 
	C428.093384,1.000000 443.187439,1.071626 458.279419,0.926469 
	C460.674896,0.903430 461.090210,1.451512 461.066193,3.754247 
	C460.929657,16.855867 461.000000,29.959641 461.000000,43.531342 
z"/>
<path fill="#000000" opacity="1.000000" stroke="none" 
	d="
M48.531342,1.000000 
	C49.604179,2.844894 48.220463,2.761163 47.101837,2.992689 
	C29.450951,6.645961 16.747089,17.297945 6.908387,31.782986 
	C4.370736,35.519043 4.676593,40.623085 1.362962,44.151958 
	C1.000000,30.731098 1.110671,17.460541 0.912114,4.194611 
	C0.869386,1.339898 1.597731,0.895594 4.276112,0.924665 
	C18.870188,1.083071 33.466888,1.000000 48.531342,1.000000 
z"/>
<path fill="#010001" opacity="1.000000" stroke="none" 
	d="
M1.000000,418.468658 
	C4.262382,418.656586 4.127225,422.014130 4.703126,423.936829 
	C8.299898,435.945099 17.334955,443.066681 26.577602,450.335907 
	C33.383728,455.688873 41.849487,456.655548 49.140705,460.621643 
	C33.906620,461.000000 18.812555,460.928375 3.720573,461.073547 
	C1.325058,461.096588 0.909816,460.548462 0.933814,458.245728 
	C1.070355,445.144135 1.000000,432.040344 1.000000,418.468658 
z"/>
<path fill="#010001" opacity="1.000000" stroke="none" 
	d="
M413.468658,461.000000 
	C412.385895,459.153748 413.776642,459.232025 414.891663,459.002045 
	C432.556610,455.358582 445.260376,444.677277 455.120178,430.214508 
	C457.653748,426.498108 457.323883,421.375397 460.637329,417.846558 
	C461.000000,431.268890 460.889343,444.539459 461.087891,457.805389 
	C461.130615,460.660095 460.402252,461.104401 457.723877,461.075348 
	C443.129822,460.916931 428.533112,461.000000 413.468658,461.000000 
z"/>
<path fill="#FEFEFE" opacity="1.000000" stroke="none" 
	d="
M175.046783,394.051941 
	C167.973907,387.030579 162.712219,379.392975 161.713135,369.443909 
	C160.590485,358.264435 162.522354,348.101440 170.507324,339.535736 
	C185.297379,323.669983 205.337448,321.052826 222.695633,334.008331 
	C234.010849,342.453644 238.006454,354.668060 236.867935,368.790192 
	C236.097977,378.340790 231.381744,385.748108 225.264618,392.400513 
	C215.019592,403.542114 194.219543,405.834320 181.446762,397.631317 
	C179.494659,396.377625 177.404831,395.338379 175.046783,394.051941 
z"/>
</svg>