<svg height="200" viewBox="0 0 200 200" width="200" xmlns="http://www.w3.org/2000/svg"><g transform="translate(0 50)"><path d="m0 0h200v100h-200z" fill="#fff"/><path d="m95.070312 30.003906c1.414063-.0039 2.820313-.0039 4.230469 0-.0078 13.144532-.0078 26.289063 0 39.433594-1.410156.0078-2.816406.0078-4.230469 0 .0078-13.144531 0-26.289062 0-39.433594zm0 0"/><path d="m108.40625 30.003906c1.41016-.0039 2.81641-.0039 4.22656 0-.004 13.144532-.004 26.289063 0 39.433594-1.41015.0078-2.8164.0078-4.22656 0 .004-13.144531 0-26.289062 0-39.433594zm0 0"/><path d="m134.51562 30.003906c1.41407-.0039 2.81641-.0039 4.23047 0-.0391 5.167969.11328 10.269532-.23437 15.425782 3.9375-5.601563 13.46094-5.863282 17.63281-.445313 2.72266 3.464844 3.21094 8.542969 2.85938 12.792969-.35938 4.167968-1.85547 8.363281-5.53907 10.6875-4.82031 2.785156-11.61328 1.855468-15.0039-2.765625-.30078 1.246093-.60547 2.496093-.92188 3.734375-1.0039.0039-2.01562.01172-3.02344.01172.008-13.144531 0-26.296874 0-39.441406zm0 0"/><path d="m122.88281 31.222656c1.03907-.292968 2.16016-.08984 2.91016.714844.70312.878906.60156 2.011719.46094 3.0625-.52735 1.390625-2 2.035156-3.375 1.5-2.09375-.753906-2.0625-4.503906.004-5.277344zm0 0"/><path d="m90 41.445312c-.183594 1.269532-.367188 2.542969-.539062 3.816407-2-.179688-3.753907-.601563-5.695313.195312-3.394531 1.371094-5.492187 4.804688-5.566406 8.414063-.039063 5.191406-.003907 10.378906-.011719 15.566406-1.410156.0078-2.816406.0078-4.226562 0 0-9.253906.0039-18.507812 0-27.769531 1.148437 0 2.300781 0 3.449218.0039.160156 1.722656.324219 3.449219.472656 5.171875 1.421876-1.859375 2.613282-3.628906 4.773438-4.734375 2.308594-1.242181 4.839844-1.210931 7.34375-.664057zm0 0"/><path d="m41.410156 41.667969h4.289063c.0078 6.121093.0078 12.238281 0 18.355469 0 2.066406.394531 4.132812 2.089843 5.492187 2.9375 1.972656 8.53125 1.507813 10.828126-1.34375 1.621093-2.148437 1.871093-4.898437 1.9375-7.5.0078-5-.0039-10.003906 0-15.003906 1.410156 0 2.816406 0 4.230468.0039-.0078 9.257813-.0078 18.511719 0 27.765625-1.167968.0078-2.328125.0078-3.492187-.0039-.210938-1.25-.425781-2.5-.648438-3.75-3.273437 4.816406-10.511719 5.417968-15.355469 2.921875-2.921874-1.738281-3.753906-4.839844-3.871093-8.042969-.02344-6.296875-.0078-12.601562-.0078-18.894531zm0 0"/><path d="m121.66797 41.667969c1.43359 0 2.86719 0 4.29687.0039-.004 9.257813-.004 18.511719 0 27.765625-1.42968.0078-2.86328.0078-4.29687.0078 0-9.261718 0-18.515624 0-27.777343zm0 0"/><path d="m144.11719 44.75c2.15625-.554688 4.67578-.464844 6.67187.589844 2.05078 1.199218 3.02735 3.230468 3.4961 5.488281.65234 3.398437.64453 7.042969-.32422 10.386719-.71485 2.308594-2.07813 4.351562-4.48438 5.101562-2.55469.765625-5.72265.421875-7.85937-1.261718-1.96094-1.53125-2.50782-4.386719-2.76563-6.726563-.23047-3.0625-.23437-6.398437.73047-9.34375.70313-2.152344 2.33594-3.683594 4.53516-4.234375zm0 0" fill="#fff"/></g></svg>