<svg width="200" height="47" viewBox="0 0 200 47" fill="none" xmlns="http://www.w3.org/2000/svg">
<g clip-path="url(#clip0_328_3477)">
<path d="M41.1 15.26V14.53L40.85 14.38L40.47 14.16L31.53 9V5.29L22.45 0L13.37 5.3V9.02L4.44001 14.17L4.06001 14.39L3.81001 14.54V24.48L0.0100098 26.7V37.28L9.09001 42.58L12.08 40.84L21.83 46.47L22.21 46.69L22.46 46.84L22.71 46.69L23.09 46.47L32.84 40.85L35.83 42.59L44.91 37.29V26.71L41.11 24.49V15.28L41.1 15.26ZM21.4 11.13V18.1L15.49 14.65V7.7L21.4 11.13ZM26.74 26.69V37.27L30.31 39.35L22.45 43.89L14.59 39.35L18.16 37.27V26.69L9.08001 21.39L6.34001 22.99V16L13.37 11.94V15.87L22.45 21.17L31.53 15.87V11.93L38.57 15.99V22.99L35.82 21.39L26.74 26.69ZM29.41 14.65L23.51 18.09V11.12L29.41 7.7V14.65ZM9.08001 23.84L14.96 27.27L9.08001 30.68L3.20001 27.27L9.08001 23.84ZM10.14 32.51L16.04 29.09V36.04L10.14 39.48V32.51ZM28.85 36.04V29.09L34.76 32.52V39.49L28.85 36.04ZM35.81 30.68L29.93 27.27L35.81 23.84L41.69 27.27L35.81 30.68ZM28.32 5.88L22.44 9.29L16.56 5.88L22.44 2.45L28.32 5.88ZM2.12001 29.1L8.03001 32.53V39.5L2.12001 36.05V29.1ZM36.88 39.49V32.52L42.78 29.1V36.05L36.88 39.49Z" fill="black"/>
<path d="M82.3804 13.9706C81.3104 12.8606 80.0204 11.9906 78.5004 11.3606C76.9804 10.7106 75.3204 10.3906 73.5204 10.3906C71.7204 10.3906 70.0504 10.7106 68.5404 11.3606C67.0204 11.9806 65.7204 12.8506 64.6304 13.9706C63.5604 15.0806 62.7104 16.4006 62.0904 17.9206C61.4904 19.4406 61.1904 21.0706 61.1904 22.8406C61.1904 24.6106 61.4904 26.2406 62.0904 27.7606C62.7104 29.2806 63.5604 30.5906 64.6304 31.7106C65.7204 32.8206 67.0304 33.7106 68.5404 34.3506C70.0604 34.9706 71.7204 35.2906 73.5204 35.2906C75.3204 35.2906 76.9904 34.9806 78.5004 34.3506C80.0204 33.7006 81.3104 32.8206 82.3804 31.7106C83.4704 30.6006 84.3204 29.2806 84.9204 27.7606C85.5404 26.2406 85.8604 24.6106 85.8604 22.8406C85.8604 21.0706 85.5504 19.4406 84.9204 17.9206C84.3204 16.4006 83.4704 15.0906 82.3804 13.9706ZM81.8104 26.5106C81.3904 27.6506 80.7804 28.6406 80.0004 29.4906C79.2204 30.3406 78.2804 31.0206 77.1904 31.5306C76.1004 32.0206 74.8704 32.2706 73.5104 32.2706C72.1504 32.2706 70.9204 32.0206 69.8304 31.5306C68.7404 31.0206 67.8004 30.3406 67.0204 29.4906C66.2404 28.6406 65.6404 27.6506 65.2104 26.5106C64.7904 25.3506 64.5704 24.1206 64.5704 22.8306C64.5704 21.5406 64.7804 20.3206 65.2104 19.1806C65.6304 18.0206 66.2404 17.0206 67.0204 16.1706C67.8004 15.3206 68.7404 14.6506 69.8304 14.1606C70.9204 13.6506 72.1504 13.3906 73.5104 13.3906C74.8704 13.3906 76.1004 13.6506 77.1904 14.1606C78.2804 14.6506 79.2204 15.3206 80.0004 16.1706C80.7804 17.0206 81.3804 18.0206 81.8104 19.1806C82.2304 20.3206 82.4504 21.5306 82.4504 22.8306C82.4504 24.1306 82.2404 25.3506 81.8104 26.5106Z" fill="black"/>
<path d="M190.87 21.0902C190.25 20.2902 189.44 19.6402 188.46 19.1502C187.5 18.6602 186.32 18.4102 184.92 18.4102C183.74 18.4102 182.65 18.6202 181.64 19.0502C180.63 19.4802 179.77 20.0602 179.03 20.8202C178.32 21.5602 177.75 22.4402 177.32 23.4602C176.92 24.4602 176.72 25.5602 176.72 26.7402C176.72 27.9202 176.91 29.0302 177.29 30.0502C177.67 31.0502 178.2 31.9302 178.9 32.6902C179.61 33.4302 180.47 34.0102 181.48 34.4302C182.51 34.8502 183.64 35.0702 184.89 35.0702C187.9 35.0702 190.24 33.9902 191.91 31.8302L189.64 30.0902C189.06 30.8002 188.42 31.3802 187.73 31.8302C187.04 32.2502 186.23 32.4702 185.29 32.4702C184.6 32.4702 183.93 32.3602 183.28 32.1402C182.63 31.9202 182.06 31.6002 181.57 31.2002C181.08 30.8002 180.68 30.3202 180.37 29.7602C180.08 29.1802 179.94 28.5402 179.94 27.8502H192.65V26.7802C192.65 25.7502 192.51 24.7502 192.22 23.7702C191.95 22.7702 191.51 21.8702 190.88 21.0902H190.87ZM179.93 25.4402C179.93 24.9002 180.04 24.3702 180.26 23.8302C180.51 23.2702 180.84 22.7702 181.26 22.3302C181.68 21.8802 182.2 21.5302 182.8 21.2602C183.42 20.9702 184.1 20.8302 184.84 20.8302C185.58 20.8302 186.26 20.9502 186.81 21.2002C187.39 21.4202 187.87 21.7502 188.25 22.1702C188.63 22.5702 188.91 23.0502 189.09 23.6102C189.29 24.1702 189.4 24.7802 189.42 25.4502H179.92L179.93 25.4402Z" fill="black"/>
<path d="M199.49 9.39062H196.48V34.6706H199.49V9.39062Z" fill="black"/>
<path d="M120.02 26.9099C119.62 26.5499 119.13 26.2599 118.55 26.0399C117.99 25.8199 117.39 25.6299 116.74 25.4699C116.41 25.3999 116 25.3299 115.54 25.2399C115.07 25.1499 114.63 25.0199 114.2 24.8399C113.8 24.6599 113.44 24.4299 113.13 24.1399C112.84 23.8499 112.7 23.4699 112.7 22.9999C112.7 22.4199 112.96 21.9899 113.47 21.6999C114.01 21.3899 114.63 21.2299 115.34 21.2299C116.1 21.2299 116.73 21.3899 117.25 21.6999C117.79 21.9899 118.23 22.3599 118.59 22.7999L120.93 21.0299C120.35 20.0899 119.57 19.4199 118.59 19.0199C117.61 18.6199 116.58 18.4199 115.51 18.4199C114.77 18.4199 114.04 18.5199 113.3 18.7199C112.59 18.9199 111.94 19.2199 111.36 19.6199C110.8 20.0199 110.35 20.5299 109.99 21.1599C109.66 21.7599 109.49 22.4799 109.49 23.2999C109.49 24.0599 109.62 24.6899 109.89 25.2099C110.16 25.7199 110.51 26.1499 110.96 26.4799C111.41 26.8099 111.92 27.0799 112.5 27.2799C113.08 27.4799 113.69 27.6599 114.34 27.8199C114.67 27.8899 115.05 27.9799 115.48 28.0899C115.93 28.1799 116.34 28.3099 116.72 28.4899C117.12 28.6499 117.46 28.8699 117.72 29.1599C118.01 29.4499 118.15 29.8199 118.15 30.2599C118.15 30.5899 118.05 30.8999 117.85 31.1599C117.67 31.4099 117.43 31.6199 117.11 31.7999C116.82 31.9599 116.47 32.0799 116.07 32.1699C115.69 32.2399 115.31 32.2699 114.93 32.2699C114.06 32.2699 113.32 32.0799 112.72 31.6999C112.12 31.3199 111.57 30.8899 111.08 30.3999L108.81 32.2699C109.59 33.3399 110.47 34.0799 111.45 34.4799C112.45 34.8799 113.61 35.0799 114.93 35.0799C115.71 35.0799 116.48 34.9899 117.24 34.8099C118.02 34.6299 118.71 34.3399 119.31 33.9399C119.91 33.5399 120.4 33.0299 120.78 32.3999C121.16 31.7499 121.35 30.9799 121.35 30.0899C121.35 29.3499 121.23 28.7299 120.98 28.2199C120.76 27.7099 120.43 27.2699 120.01 26.9199L120.02 26.9099Z" fill="black"/>
<path d="M104.16 20.8202C103.47 20.0602 102.62 19.4702 101.62 19.0502C100.64 18.6302 99.5397 18.4102 98.3097 18.4102C97.2397 18.4102 96.1897 18.6402 95.1697 19.1102C94.1697 19.5802 93.3797 20.2402 92.7997 21.0802H92.7297V18.8102H89.7197V44.0902H92.7297V32.3902H92.7997C93.3397 33.2102 94.0997 33.8702 95.1097 34.3602C96.1097 34.8302 97.1797 35.0602 98.3197 35.0602C99.5497 35.0602 100.65 34.8502 101.63 34.4202C102.63 34.0002 103.48 33.4202 104.17 32.6802C104.88 31.9202 105.43 31.0402 105.81 30.0402C106.19 29.0102 106.38 27.9102 106.38 26.7302C106.38 25.5502 106.19 24.4902 105.81 23.4902C105.43 22.4602 104.88 21.5702 104.17 20.8102L104.16 20.8202ZM102.79 28.9802C102.54 29.6502 102.2 30.2302 101.75 30.7202C101.3 31.1902 100.76 31.5702 100.11 31.8602C99.4597 32.1302 98.7397 32.2602 97.9397 32.2602C97.1397 32.2602 96.4097 32.1302 95.7697 31.8602C95.1197 31.5702 94.5797 31.1902 94.1297 30.7202C93.6797 30.2302 93.3397 29.6502 93.0897 28.9802C92.8397 28.2902 92.7197 27.5402 92.7197 26.7402C92.7197 25.9402 92.8397 25.2002 93.0897 24.5302C93.3397 23.8402 93.6797 23.2602 94.1297 22.7902C94.5797 22.3002 95.1197 21.9202 95.7697 21.6502C96.4197 21.3602 97.1397 21.2202 97.9397 21.2202C98.7397 21.2202 99.4697 21.3602 100.11 21.6502C100.76 21.9202 101.3 22.3002 101.75 22.7902C102.2 23.2602 102.54 23.8402 102.79 24.5302C103.04 25.2002 103.16 25.9302 103.16 26.7402C103.16 27.5502 103.04 28.2902 102.79 28.9802Z" fill="black"/>
<path d="M128.99 10.9902H125.78V34.6702H139.86V31.6602H128.99V10.9902Z" fill="black"/>
<path d="M155.57 21.0902C154.95 20.2902 154.14 19.6402 153.16 19.1502C152.2 18.6602 151.02 18.4102 149.62 18.4102C148.44 18.4102 147.35 18.6202 146.34 19.0502C145.33 19.4802 144.47 20.0602 143.73 20.8202C143.02 21.5602 142.45 22.4402 142.02 23.4602C141.62 24.4602 141.42 25.5602 141.42 26.7402C141.42 27.9202 141.61 29.0302 141.99 30.0502C142.37 31.0502 142.9 31.9302 143.6 32.6902C144.31 33.4302 145.17 34.0102 146.18 34.4302C147.21 34.8502 148.34 35.0702 149.59 35.0702C152.6 35.0702 154.94 33.9902 156.61 31.8302L154.34 30.0902C153.76 30.8002 153.12 31.3802 152.43 31.8302C151.74 32.2502 150.93 32.4702 149.99 32.4702C149.3 32.4702 148.63 32.3602 147.98 32.1402C147.33 31.9202 146.76 31.6002 146.27 31.2002C145.78 30.8002 145.38 30.3202 145.07 29.7602C144.78 29.1802 144.64 28.5402 144.64 27.8502H157.35V26.7802C157.35 25.7502 157.21 24.7502 156.92 23.7702C156.65 22.7702 156.21 21.8702 155.58 21.0902H155.57ZM144.63 25.4402C144.63 24.9002 144.74 24.3702 144.96 23.8302C145.21 23.2702 145.54 22.7702 145.96 22.3302C146.38 21.8802 146.9 21.5302 147.5 21.2602C148.12 20.9702 148.8 20.8302 149.54 20.8302C150.28 20.8302 150.96 20.9502 151.51 21.2002C152.09 21.4202 152.57 21.7502 152.95 22.1702C153.33 22.5702 153.61 23.0502 153.79 23.6102C153.99 24.1702 154.1 24.7802 154.12 25.4502H144.62L144.63 25.4402Z" fill="black"/>
<path d="M167.26 30.9603L162.51 18.8203H159.03L165.49 34.6703H168.8L175.02 18.8203H171.81L167.26 30.9603Z" fill="black"/>
</g>
<defs>
<clipPath id="clip0_328_3477">
<rect width="199.49" height="46.81" fill="white"/>
</clipPath>
</defs>
</svg>
