<?xml version="1.0" encoding="UTF-8"?>
<svg id="Layer_1" data-name="Layer 1" xmlns="http://www.w3.org/2000/svg" xmlns:xlink="http://www.w3.org/1999/xlink" viewBox="0 0 500 556.05768">
  <defs>
    <style>
      .cls-1 {
        fill: url(#linear-gradient);
      }

      .cls-2 {
        fill: url(#linear-gradient-2);
      }
    </style>
    <linearGradient id="linear-gradient" x1="-34.9586" y1="1811.33021" x2="325.60865" y2="1450.76554" gradientTransform="translate(0 1950) scale(1 -1)" gradientUnits="userSpaceOnUse">
      <stop offset=".02757" stop-color="#05cfc4"/>
      <stop offset="1" stop-color="#0a53e0"/>
    </linearGradient>
    <linearGradient id="linear-gradient-2" x1="94.50109" y1="1888.92956" x2="492.08534" y2="1491.34684" gradientTransform="translate(0 1950) scale(1 -1)" gradientUnits="userSpaceOnUse">
      <stop offset=".02757" stop-color="#05cfc4"/>
      <stop offset=".834" stop-color="#0a53e0"/>
    </linearGradient>
  </defs>
  <g id="Logo_Mark" data-name="Logo Mark">
    <path class="cls-1" d="m124.61499,329.51924V61.44269l-88.84653,51.53846C13.84539,125.67346,0,149.135,0,174.51961v206.53848c0,25.38423,13.46077,48.84576,35.76846,61.53805l196.53884,113.46154v-143.84613l-89.99961-51.92308c-11.15385-6.5381-17.6927-18.07656-17.6927-30.76923Z"/>
    <path class="cls-2" d="m464.23076,112.59615L285.3854,9.51923c-21.92309-12.69231-49.23078-12.69231-71.15386,0l-54.23114,31.15385v143.84615l71.92192-41.53884c11.15384-6.53846,24.61655-6.53846,35.77037,0l89.99962,51.92308c11.15385,6.53885,17.69268,18.07731,17.69268,30.76923v103.84614c0,12.6927-6.92344,24.61577-17.69268,30.76923l-89.99962,51.92349v143.84613l196.53807-113.46154c21.92309-12.69229,35.76924-36.15382,35.76924-61.53846v-206.53845c0-25.76923-13.46154-49.23077-35.76924-61.92308Z"/>
  </g>
</svg>