<svg height="200" viewBox="0 0 200 200" width="200" xmlns="http://www.w3.org/2000/svg" xmlns:xlink="http://www.w3.org/1999/xlink"><linearGradient id="a" gradientTransform="matrix(-2.666667 0 0 -2.666667 -2434.666667 130.666667)" gradientUnits="userSpaceOnUse" x1="-897.469971" x2="-1003.539978" y1="-41.529999" y2="64.540001"><stop offset="0" stop-color="#2e27ad"/><stop offset="1" stop-color="#527fff"/></linearGradient><path d="m0 0h200v200h-200z" fill="url(#a)"/><g fill="#fff"><path d="m129.199219 75.28125c0-7.734375-15.171875-11.308594-29.332031-11.308594-14.160157 0-29.332032 3.574219-29.332032 11.308594-.011718.386719.03125.773438.132813 1.144531v48.132813c-.132813 8 15.066406 11.414062 29.332031 11.414062s29.332031-3.519531 29.332031-11.253906v-49.4375zm-29.277344-5.949219c15.542969 0 24 4.242188 24 5.976563 0 1.730468-8.402344 5.972656-24 5.972656-15.601563 0-24-4.214844-24-5.972656 0-1.761719 8.453125-5.976563 24-5.976563zm24 55.414063c0 1.707031-8.429687 5.921875-24 5.921875-15.574219 0-24-4.214844-24-5.921875v-8.425782c5.625 3.066407 15.066406 4.53125 24 4.53125 8.929687 0 18.292969-1.4375 24-4.453124zm0-15.171875c0 1.707031-8.402344 5.972656-24 5.972656-15.601563 0-24-4.265625-24-5.972656h.078125v-10.1875c5.625 3.039062 15.066406 4.507812 24 4.507812s18.292969-1.441406 24-4.453125zm0-16.988281c0 1.734374-8.402344 6-24 6-15.601563 0-24-4.265626-24-6h.078125v-10.398438c5.679688 3.011719 15.011719 4.398438 24 4.398438s18.425781-1.4375 24-4.507813zm0 0"/><path d="m42.425781 161.359375h17.574219v5.332031h-24c-1.472656 0-2.667969-1.191406-2.667969-2.664062v-24h5.335938v17.519531l20-19.972656 3.730469 3.757812zm0 0"/><path d="m166.667969 140.027344v24c0 1.472656-1.195313 2.664062-2.667969 2.664062h-24v-5.332031h17.574219l-19.707031-19.757813 3.757812-3.734374 19.707031 19.679687v-17.519531zm0 0"/><path d="m166.667969 36.027344v24h-5.335938v-17.601563l-19.707031 19.707031-3.757812-3.757812 19.679687-19.683594h-17.546875v-5.332031h24c1.472656 0 2.667969 1.195313 2.667969 2.667969zm0 0"/><path d="m62.398438 58.667969-3.730469 3.730469-20-19.972657v17.546875h-5.335938v-24c0-1.472656 1.195313-2.664062 2.667969-2.664062h24v5.332031h-17.574219zm0 0"/><path d="m59.09375 123.894531c-16.292969-5.867187-25.628906-14.828125-25.628906-24.5625 0-9.730469 9.335937-18.664062 25.628906-24.558593l1.8125 5.011718c-13.839844 4.988282-22.105469 12.292969-22.105469 19.546875 0 7.253907 8.265625 14.5625 22.105469 19.546875zm0 0"/><path d="m139.414062 124.480469-1.707031-5.066407c14.800781-4.988281 23.625-12.507812 23.625-20.082031 0-7.570312-8.824219-15.09375-23.625-20.105469l1.707031-5.039062c17.304688 5.8125 27.253907 15.039062 27.253907 25.144531 0 10.109375-9.949219 19.28125-27.253907 25.148438zm0 0"/></g></svg>