<svg height="200" viewBox="0 0 200 200" width="200" xmlns="http://www.w3.org/2000/svg"><path d="m13.792969 186.207031h172.414062v-172.414062h-172.414062zm0 0" fill="#ffa61a"/><g fill="#fff"><path d="m66.714844 126.539062h-5.75v-25.875h5.75v1.652344c.71875-1.011718 2.574218-1.984375 4.605468-1.984375 5.496094 0 8.558594 4.566407 8.558594 9.894531 0 5.328126-3.027344 9.855469-8.527344 9.855469-2.03125 0-3.917968-.972656-4.636718-1.988281zm0-13.222656c.71875 1.308594 1.898437 2.199219 3.421875 2.199219 2.832031 0 4.457031-2.285156 4.457031-5.289063 0-3.042968-1.589844-5.328124-4.425781-5.328124-1.5625 0-2.734375.929687-3.453125 2.199218zm0 0"/><path d="m99.058594 119.351562h-5.75v-1.425781c-.71875 1.183594-2.765625 2.15625-4.96875 2.15625-4.226563 0-6.53125-2.789062-6.53125-6.976562v-12.441407h5.03125v11.382813c0 1.988281.992187 3.339844 3.066406 3.339844 1.605469 0 3.402344-.972657 3.402344-2.621094v-12.101563h5.75zm0 0"/><path d="m107.683594 126.539062h-5.03125v-25.875h5.03125v1.652344c.71875-1.011718 2.644531-1.984375 4.675781-1.984375 5.496094 0 8.59375 4.566407 8.59375 9.894531 0 5.328126-3.082031 9.855469-8.578125 9.855469-2.03125 0-3.972656-.972656-4.691406-1.988281zm0-13.222656c.71875 1.308594 1.96875 2.199219 3.492187 2.199219 2.832031 0 4.492188-2.285156 4.492188-5.289063 0-3.042968-1.644531-5.328124-4.476563-5.328124-1.566406 0-2.789062.929687-3.507812 2.199218zm0 0"/><path d="m128.527344 126.539062h-5.03125v-25.875h5.03125v1.652344c.71875-1.011718 2.667968-1.984375 4.699218-1.984375 5.5 0 8.609376 4.566407 8.609376 9.894531 0 5.328126-3.101563 9.855469-8.601563 9.855469-2.027344 0-3.988281-.972656-4.707031-1.988281zm0-13.222656c.71875 1.308594 1.992187 2.199219 3.515625 2.199219 2.832031 0 4.507812-2.285156 4.507812-5.289063 0-3.042968-1.664062-5.328124-4.496093-5.328124-1.566407 0-2.808594.929687-3.527344 2.199218zm0 0"/><path d="m160.636719 113.601562c-.675781 3.59375-3.636719 6.539063-8.375 6.539063-5.496094 0-9.175781-4.046875-9.175781-9.882813 0-5.710937 3.859374-9.914062 9.148437-9.914062 5.539063 0 8.636719 3.835938 8.636719 9.375v1.726562h-12.707032c.167969 2.875 1.773438 4.523438 4.097657 4.523438 1.78125 0 3.089843-.929688 3.511719-2.367188zm-12.347657-5.75h7.316407c-.042969-1.4375-1.226563-3.554687-3.382813-3.554687-2.03125 0-3.46875 1.398437-3.933594 3.554687"/><path d="m164.464844 104.976562h-2.875v-4.3125h2.875v-5.03125h5.035156v5.03125h4.308594v4.3125h-4.308594v8.296876c0 1.480468.738281 2.15625 2.089844 2.15625.804687 0 1.5-.253907 2.21875-.632813v4.648437c-.71875.382813-1.835938.59375-3.234375.59375-3.847657 0-6.109375-1.902343-6.109375-6.089843zm0 0"/><path d="m53.058594 89.164062h-11.5v11.5h11.5zm0 0"/><path d="m35.089844 110.726562h-3.59375v-3.597656h3.59375zm4.3125-7.90625h-12.21875v12.21875h12.21875zm0 0"/><path d="m41.808594 92.082031-7.261719-7.257812 2.804687-2.804688 7.261719 7.257813zm0 0"/><path d="m39.285156 105.613281-2.804687-2.804687 5.746093-5.746094 2.804688 2.804688zm0 0"/><path d="m35.089844 82.695312h-3.59375v-3.59375h3.59375zm4.3125-7.90625h-12.21875v12.21875h12.21875zm0 0"/></g></svg>