<svg height="200" viewBox="0 0 200 200" width="200" xmlns="http://www.w3.org/2000/svg"><path d="m95.121094 179.039062c42.160156 0 76.398437-35.4375 76.398437-79.039062 0-4.160156-.398437-8.238281-1.039062-12.320312.078125 1.359374.238281 2.71875.238281 4 0 38.160156-30 69.199218-66.957031 69.199218-16.640625 0-31.839844-6.320312-43.523438-16.71875-5.277343 5.039063-12.316406 8.558594-19.757812 10.960938 13.917969 14.71875 33.199219 23.917968 54.640625 23.917968zm-58.242188-87.359374c0-38.160157 30-69.199219 66.960938-69.199219 3.121094 0 6.238281.320312 9.28125.71875-5.921875-1.4375-11.921875-2.238281-18-2.238281-42.160156 0-76.402344 35.4375-76.402344 79.039062 0 11.199219 2.320312 21.921875 6.402344 31.601562 6.640625-6.160156 12.398437-10.082031 17.199218-12.480468-3.519531-8.402344-5.441406-17.679688-5.441406-27.441406zm33.28125 7.441406c3.917969-5.761719 8.800782-12.402344 14.320313-19.199219-14.402344-6.320313-28.71875-2.160156-35.199219.398437 11.117188 5.839844 17.359375 12.960938 20.878906 18.800782zm108.320313-67.441406c-2.480469 9.199218-7.921875 17.519531-16.320313 24.71875l-.558594.480468c-1.839843 1.601563-4.722656 1.28125-7.441406-.878906-1.761718-1.441406-3.199218-3.601562-3.199218-5.679688 0-.640624.160156-1.28125.398437-1.839843.082031-.242188.242187-.402344.402344-.558594 7.039062-6.5625 11.039062-12 13.277343-16.082031-10.878906.960937-21.597656 4.160156-31.839843 9.601562-15.4375 8.238282-30.558594 22.796875-42.800781 37.199219-.398438.480469-.796876.960937-1.277344 1.4375-.402344.480469-.800782 1.042969-1.28125 1.523437-6.238282 7.519532-11.601563 14.957032-15.761719 21.199219-.398437.640625-.796875 1.277344-1.199219 1.839844-.398437.640625-.878906 1.28125-1.199218 1.917969-1.679688 2.640625-3.039063 5.042968-4.078126 7.042968.238282.160157.558594.398438.878907.636719.480469.402344 1.039062.882813 1.679687 1.363281.480469.476563 1.039063 1.039063 1.519532 1.679688 1.121093 1.359375 2.160156 2.957031 2.960937 5.039062.238281.640626.480469 1.28125.71875 2 .160156.71875.320313 1.441407.480469 2.160157 0 .160156.082031.238281.082031.398437 1.117187-.160156 2.878906-.480468 5.117187-1.039062.640626-.160156 1.28125-.320313 1.921876-.480469.640624-.160156 1.277343-.320313 1.917968-.480469.5625-.160156 1.121094-.320312 1.679688-.480468-.320313-.796876-.558594-1.4375-.796875-1.917969-.320313-.71875-.480469-1.121094-.480469-1.121094-.082031-.238281-.160156-.480469-.160156-.71875 0-.320313 0-.5625.078125-.878906.160156-.480469.5625-.882813 1.039062-1.121094 1.121094-.402344 2.160157-.878906 3.203125-1.359375 12.558594-5.519531 22.078125-12.800781 22.160156-12.882812.476563-.398438 1.199219-.476563 1.757813-.238282.5625.238282 1.039063.71875 1.199219 1.359375.5625 2.558594.882812 4.960938 1.121094 7.28125 2.640624-1.359375 5.28125-2.722656 8.082031-4.320312 22-12.558594 51.277343-35.761719 66.476562-75.199219-1.917969-.402344-5.277343-1.203125-9.757812-1.601562zm-64.640625 64.878906c-3.761719 0-6.800782-3.117188-6.800782-7.039063 0-3.839843 3.039063-7.039062 6.800782-7.039062 3.761718 0 6.800781 3.121093 6.800781 7.039062 0 3.921875-3.039063 7.039063-6.800781 7.039063zm15.199218-11.839844c-3.757812 0-6.800781-3.117188-6.800781-7.039062 0-3.839844 3.042969-7.039063 6.800781-7.039063 3.761719 0 6.800782 3.121094 6.800782 7.039063 0 3.921874-3.039063 7.039062-6.800782 7.039062zm14.5625-11.757812c-3.761718 0-6.800781-3.121094-6.800781-7.039063 0-3.84375 3.039063-7.042969 6.800781-7.042969 3.757813 0 6.796876 3.121094 6.796876 7.042969-.078126 3.917969-3.117188 7.039063-6.796876 7.039063zm-82.242187 48.960937c-.398437-.5625-.878906-.960937-1.28125-1.363281-.636719-.558594-1.199219-.878906-1.757813-1.039063-.558593.480469-1.121093.878907-1.601562 1.28125.402344-.402343.960938-.800781 1.601562-1.28125h-.082031c-1.519531-.398437-6.238281-.878906-14.078125 2.960938-.082031 0-.160156.078125-.160156.078125-.078125 0-.078125.082031-.160156.082031-4.640625 2.320313-10.398438 6.238281-17.121094 12.640625-.078125.078125-.078125.078125-.160156.160156-.078125 0-.078125.078125-.160156.078125-5.519532 5.199219-11.679688 12.082031-18.558594 21.039063 5.921875-.238282 17.921875-1.117188 29.359375-4.480469.082031 0 .082031 0 .160156-.078125.082031 0 .160156-.078125.242187-.078125 7.4375-2.242187 14.636719-5.523437 19.839844-10.402344 0 0 .078125-.078125.078125-.078125.082031-.082031.082031-.082031.160157-.160156 2.878906-2.800781 5.039062-6.082031 6.242187-9.921875.238281-.640625.398437-1.359375.558594-2 .078125-.480469.238281-1.039063.320312-1.519531-.082031-.160156-.160156-.320313-.160156-.398438-.878906-2.160156-2.082031-4.082031-3.28125-5.519531zm-3.597656 5.199219c-.480469.398437-1.042969.878906-1.601563 1.359375-.480468.398437-.960937.800781-1.519531 1.199219-1.28125 1.039062-2.71875 2.082031-4.082031 3.121093-.078125.078125-.078125.078125-.160156.160157-.078126 0-.078126.078124-.160157.078124-4.238281 3.199219-8.316406 6.082032-8.316406 6.082032s4.078125-10.160156 3.4375-10.082032c-5.597656 1.601563-13.199219 8.320313-16 10.882813-.078125.078125-.078125.078125-.160156.15625-.078125.082031-.078125.082031-.078125.082031-.480469.480469-.800782.800782-.800782.800782s.238282-.402344.71875-1.039063c0 0 .082032-.082031.082032-.160156.078125-.082031.078125-.160157.160156-.160157 2.160156-2.960937 7.839844-10.320312 14.160156-14.800781.480469-.320312.878906-.5625 1.359375-.878906.078125 0 .078125-.082031.160157-.082031.078124 0 .160156-.078125.160156-.078125 3.597656-1.921875 7.199218-2.082031 9.839844-1.441407.71875.160157 1.4375.398438 2.078124.640626.722657.320312 1.28125.640624 1.761719.960937.558594.476563.878907.878906.800781 1.199219-.242187.480468-.882812 1.117187-1.839843 2zm24.558593 1.917968c-.480468 3.121094-1.121093 6.800782-1.921874 10 2-1.117187 4.640624-2.800781 7.28125-5.277343-.558594-2.082031-1.199219-4.082031-1.757813-5.761719-1.363281.398438-2.5625.71875-3.601563 1.039062zm-17.839843-9.277343c1.597656 2 2.800781 4.316406 3.679687 6.316406.558594-.316406 1.121094-.636719 1.601563-1.039063-.882813-2.878906-2.320313-4.878906-3.761719-6.238281-.480469.238281-1.039062.558594-1.519531.960938zm45.597656-5.121094c-.15625-1.679687-.398437-3.519531-.636719-5.359375-2.800781 2-8 5.359375-14.402344 8.640625-.800781.398437-1.597656.796875-2.480468 1.199219-1.359375.640625-2.796875 1.277344-4.320313 1.917968-.316406.160157-.558593.242188-.878906.402344.242187.480469.480469 1.117188.71875 1.839844.242187.558594.480469 1.117188.722656 1.757812.238281.5625.398438 1.121094.640625 1.761719.398438 1.121094.796875 2.320313 1.117188 3.597657.242187.722656.402344 1.441406.640625 2.242187.160156.71875.402343 1.4375.5625 2.160156.957031 4 1.597656 8.558594 1.597656 13.199219 0 1.039062-.160156 2.078125-.238281 3.039062 5.519531-3.839843 16.71875-13.839843 17.117187-32.398437 0-.320313 0-.5625 0-.878906 0-.402344 0-.800781 0-1.203125-.078125-.558594-.078125-1.199219-.160156-1.917969zm0 0" fill="#17202d" fill-rule="evenodd"/></svg>