<svg height="200" viewBox="0 0 200 200" width="200" xmlns="http://www.w3.org/2000/svg" xmlns:xlink="http://www.w3.org/1999/xlink"><filter id="a" height="100%" width="100%" x="0%" y="0%"><feColorMatrix in="SourceGraphic" type="matrix" values="0 0 0 0 1 0 0 0 0 1 0 0 0 0 1 0 0 0 1 0"/></filter><mask id="b"><g filter="url(#a)"><path d="m0 0h200v200h-200z" fill-opacity=".07"/></g></mask><clipPath id="c"><path d="m0 0h200v200h-200z"/></clipPath><path d="m197.609375 90.8125-41.09375-71.46875c-3.144531-5.578125-9.003906-9.070312-15.40625-9.1875h-82.203125c-6.402344.113281-12.265625 3.609375-15.40625 9.1875l-41.109375 71.28125c-3.179687 5.535156-3.179687 12.339844 0 17.875l41.09375 71.875c3.109375 5.65625 8.957031 9.265625 15.40625 9.515625h82.203125c6.449219-.222656 12.304688-3.816406 15.421875-9.46875l41.09375-71.46875c3.203125-5.621094 3.203125-12.519531 0-18.140625zm0 0" fill="#4285f4"/><g clip-path="url(#c)" mask="url(#b)"><path d="m140.046875 75.6875-40.046875-17.875-38.28125 20.796875-1.5625 45.828125 65.359375 65.40625h15.625c6.449219-.222656 12.304687-3.816406 15.421875-9.46875l32.203125-56.015625zm0 0"/></g><path d="m139.0625 75-36.953125-21.375c-1.308594-.746094-2.910156-.746094-4.21875 0l-36.953125 21.375c-1.304688.753906-2.109375 2.148438-2.109375 3.65625v42.703125c0 1.503906.804687 2.890625 2.109375 3.640625l36.953125 21.375c1.304687.753906 2.914063.753906 4.21875 0l36.953125-21.375c1.308594-.75 2.113281-2.148438 2.109375-3.65625v-42.6875c0-1.507812-.804687-2.902344-2.109375-3.65625zm-5.03125 42.265625-12.90625-7.453125v-19.625l-19.0625 10.9375v22.078125l17-9.8125 12.90625 7.453125-31.96875 18.453125-31.96875-18.453125 12.90625-7.453125 17 9.8125v-22.015625l-19.0625-10.9375v19.5625l-12.90625 7.453125v-36.90625l31.96875-18.453125v14.890625l-17 9.828125 19.0625 10.9375 19.0625-10.9375-17-9.828125v-14.890625l31.96875 18.453125zm0 0" fill="#fff"/></svg>