<svg height="194" viewBox="0 0 200 194" width="200" xmlns="http://www.w3.org/2000/svg"><path d="m.379297.385591h489.161719v474.757068h-489.161719zm0 0" fill="#e6f4fd" stroke="#e6f4fd" stroke-width=".765021" transform="matrix(.392157 0 0 .391919 3.921569 3.919192)"/><path d="m37.441406 19.464844c-5.816406.074218-11.636718-.003906-17.453125.042968-.050781 17.460938.039063 34.9375-.042969 52.390626.054688 21.292968.050782 42.59375 0 63.886718.0625 12.355469.03125 24.710938.015626 37.066406.003906.609376.011718 1.226563.015624 1.839844 53.335938.011719 106.667969 0 160.003907.003906 0-1.871093-.011719-3.746093-.023438-5.613281.050781-12.761719 0-25.53125.023438-38.292969.015625-25.375-.042969-50.757812.027343-76.132812-.070312-11.71875-.007812-23.441406-.03125-35.160156-10.945312-.007813-21.894531.011718-32.84375-.007813-36.558593 0-73.128906.039063-109.691406-.023437zm118.519532 154.332031c-.851563.023437-1.699219.035156-2.550782.023437.851563.011719 1.703125 0 2.550782-.023437zm0 0" fill="#2b444f"/><path d="m142.4375 43.613281c-.878906-.011719-1.753906.019531-2.617188.074219-5.703124.671875-10.96875 3.308594-14.257812 8.109375-3.988281 5.875-4.625 12.515625-4.410156 19.433594-2.460938.015625-4.933594-.039063-7.394532.050781-.074218 3.789062-.132812 7.609375.042969 11.398438 2.445313.273437 4.898438.496093 7.351563.730468.015625 2.242188-.015625 4.488282-.015625 6.734375.035156 2.960938.015625 5.929688.019531 8.890625.011719 6.371094-.042969 12.742188.027344 19.113282-.117188 4.824218.105468 9.65625-.136719 14.472656.085937.371094.1875.734375.3125 1.09375 1.289063.378906 2.773437.171875 4.109375.222656 3.878906-.054688 7.792969.105469 11.660156-.082031.605469-.546875.457032-1.453125.519532-2.195313-.046876-4.355468-.011719-8.703125-.027344-13.058594-.003906-7.308593.011718-14.621093 0-21.933593-.003906-4.414063-.003906-8.835938.003906-13.253907 3.527344-.269531 7.078125-.425781 10.59375-.824218-.082031-3.753906.097656-7.523438-.078125-11.273438-3.496094-.167968-7.007813-.050781-10.507813-.085937.039063-3.296875-.320312-6.976563.863282-10.09375.644531-1.753907 1.738281-3.269531 3.570312-3.90625 2.691406-.945313 5.375-.222657 8.046875.320312.117188-2.882812.03125-5.777343.070313-8.660156-.007813-1.128906.0625-2.296875-.101563-3.414063-.796875-.851562-2.199219-1.191406-3.296875-1.441406-1.417968-.292968-2.886718-.410156-4.347656-.421875zm0 0" fill="#e2f2fd"/><path d="m86.714844 50.84375c-.285156-.003906-.570313 0-.855469.003906-7.03125-.117187-14.125 1.644532-20.113281 5.375-8.023438 4.964844-13.441406 12.949219-16.160156 21.886719-2.011719 6.546875-2.484376 13.335937-2.011719 20.148437.226562 3.527344.773437 7.058594 1.714843 10.46875 1.660157 6.5 5.019532 12.714844 9.941407 17.328126 5.066406 4.785156 11.5625 7.632812 18.425781 8.636718 6.902344.980469 14.089844.324219 20.671875-2.011718 1.507813-.585938 3.171875-1.191407 4.441406-2.214844.816407-.652344.707031-1.839844.753907-2.769532-.011719-2.894531-.023438-5.78125.003906-8.671874-.054688-.832032.125-1.722657-.5-2.378907-.9375.132813-1.75.507813-2.617188.859375-4.570312 1.960938-9.605468 2.847656-14.570312 2.714844-3.933594-.117188-7.808594-1.199219-11.097656-3.386719-2.585938-1.726562-4.738282-4.144531-6.261719-6.84375-2.078125-3.757812-3.097657-7.851562-3.5625-12.09375-.542969-6.09375-.351563-12.066406 1.597656-17.910156 1.617187-4.589844 4.242187-8.765625 8.308594-11.554687 3.453125-2.398438 7.617187-3.542969 11.808593-3.488282 4.433594-.089844 8.871094.9375 12.855469 2.871094.851563.394531 1.761719.894531 2.703125 1.007812.660156-.492187.472656-1.152343.542969-1.878906-.007813-3.953125-.011719-7.90625-.015625-11.863281-.980469-.921875-2.128906-1.546875-3.382812-2.015625-3.996094-1.53125-8.34375-2.199219-12.621094-2.21875zm0 0" fill="#e6f4fd"/></svg>