<svg height="200" viewBox="0 0 200 200" width="200" xmlns="http://www.w3.org/2000/svg"><g fill="#072e1e" transform="matrix(.89048991 0 0 .88448126 10.951009 77.043156)"><path d="m23.578125.0742188h10.941406v50.6093752c-5.613281 1.066406-9.730469 1.492187-14.207031 1.492187-13.351562 0-20.3125-6.035156-20.3125-17.609375 0-11.144531 7.386719-18.386718 18.820312-18.386718 1.777344 0 3.125.140624 4.757813.566406zm0 25.4765622c-1.277344-.425781-2.339844-.566406-3.691406-.566406-5.539063 0-8.734375 3.40625-8.734375 9.371094 0 5.820312 3.054687 9.015625 8.664062 9.015625 1.207032 0 2.203125-.07031 3.761719-.28125zm0 0"/><path d="m51.917969 16.960938v25.34375c0 8.734374-.640625 12.921874-2.558594 16.546874-1.773437 3.476563-4.117187 5.679688-8.949219 8.09375l-10.15625-4.828124c4.832032-2.273438 7.175782-4.261719 8.667969-7.316407 1.5625-3.121093 2.058594-6.742187 2.058594-16.257812v-21.582031zm-10.9375-16.828126h10.9375v11.21875h-10.9375zm0 0"/><path d="m58.523438 19.445312c4.832031-2.273437 9.449218-3.265624 14.488281-3.265624 5.613281 0 9.304687 1.488281 10.941406 4.402343.921875 1.632813 1.207031 3.761719 1.207031 8.304688v22.222656c-4.902344.710937-11.082031 1.207031-15.625 1.207031-9.164062 0-13.285156-3.195312-13.285156-10.292968 0-7.667969 5.46875-11.21875 18.894531-12.355469v-2.414063c0-1.988281-.996093-2.699218-3.765625-2.699218-4.046875 0-8.59375 1.136718-12.855468 3.339843zm17.117187 17.394532c-7.246094.710937-9.585937 1.847656-9.585937 4.6875 0 2.128906 1.347656 3.121094 4.332031 3.121094 1.632812 0 3.125-.140626 5.253906-.496094zm0 0"/><path d="m90.484375 18.664062c6.464844-1.703124 11.789065-2.484374 17.187505-2.484374 5.61328 0 9.66015 1.277343 12.07421 3.761718 2.27344 2.34375 2.98438 4.898438 2.98438 10.367188v21.441406h-10.9375v-21.015625c0-4.1875-1.42188-5.75-5.32813-5.75-1.48828 0-2.83984.140625-5.04296.777344v25.988281h-10.937505zm0 0"/><path d="m126.98047 57.714844c3.83594 1.988281 7.67187 2.910156 11.72265 2.910156 7.17188 0 10.22657-2.910156 10.22657-9.871094 0-.07031 0-.140625 0-.210937-2.13282 1.0625-4.26172 1.492187-7.10157 1.492187-9.58984 0-15.69921-6.320312-15.69921-16.332031 0-12.425781 9.01953-19.453125 25-19.453125 4.6875 0 9.01953.496094 14.27734 1.5625l-3.74609 7.886719c-2.91016-.570313-.23438-.07813-2.4336-.289063v1.136719l.14063 4.613281.0703 5.964844c.0742 1.488281.0742 2.980469.14453 4.472656v2.980469c0 9.375-.78125 13.773437-3.125 17.394531-3.41016 5.328125-9.30469 7.953125-17.68359 7.953125-4.26172 0-7.95703-.636719-11.79297-2.128906zm21.73437-32.660156c-.14062 0-.28125 0-.35547 0h-.78125c-2.1289-.07031-4.61328.496093-6.32031 1.558593-2.625 1.492188-3.97656 4.191407-3.97656 8.023438 0 5.46875 2.69922 8.59375 7.52734 8.59375 1.49219 0 2.69922-.285157 4.1211-.710938v-3.761719c0-1.277343-.0703-2.699218-.0703-4.191406l-.0703-5.039062-.0742-3.621094zm0 0"/><path d="m182.38672 16.035156c10.9375 0 17.61328 6.890625 17.61328 18.035156 0 11.433594-6.96094 18.601563-18.03906 18.601563-10.9375 0-17.6875-6.886719-17.6875-17.960937 0-11.503907 6.96093-18.675782 18.11328-18.675782zm-.21485 27.832032c4.19141 0 6.67579-3.476563 6.67579-9.511719 0-5.964844-2.41407-9.515625-6.60157-9.515625-4.33593 0-6.82031 3.480468-6.82031 9.515625 0 6.035156 2.48438 9.511719 6.74609 9.511719zm0 0"/></g></svg>