<svg xmlns="http://www.w3.org/2000/svg" viewBox="0 0 220 120"><defs><style>.cls-1{fill:#bfe2e5;}.cls-2{fill:#dbf2f4;}</style></defs><g id="art"><path class="cls-1" d="M185.14,44.4c-6.81-31.31-44.37-49.74-83.89-41.14s-66,41-59.22,72.26,44.37,49.74,83.88,41.15S192,75.72,185.14,44.4ZM113.59,88.83A28.87,28.87,0,1,1,142.45,60,28.87,28.87,0,0,1,113.59,88.83Z"/><path class="cls-2" d="M120,19.55A41.45,41.45,0,1,0,161.42,61,41.45,41.45,0,0,0,120,19.55Zm-6.38,65.63A25.22,25.22,0,1,1,138.8,60,25.22,25.22,0,0,1,113.59,85.18Z"/></g></svg>