<svg height="200" viewBox="0 0 200 200" width="200" xmlns="http://www.w3.org/2000/svg"><path d="m0 0h200v200h-200z" fill="#fff"/><path d="m39.84375 60.15625h137.5c2.511719-.03125 5.019531.027344 7.53125.078125-5.988281.941406-11.726562 2.9375-16.816406 6.261719-5.457032 3.503906-9.898438 8.335937-13.179688 13.910156-3.097656-.597656-6.050781-.261719-9.175781-.324219-44.011719-.007812-88.019531-.003906-132.03125-.003906-2.632813.03125-5.257813-.007813-7.890625-.082031 3.816406-6.65625 9.621094-12.105469 16.460938-15.566406 5.433593-2.761719 11.507812-4.230469 17.601562-4.273438zm0 0" fill="#b6de64"/><path d="m184.875 60.234375c2.117188-.070313 4.328125-.222656 6.429688.070313 3.589843.539062 6.644531 3.199218 7.792968 6.625 1.492188 4.300781-.277344 9.234374-4.140625 11.625-2.066406 1.371093-4.277343 1.476562-6.671875 1.621093-6.617187.34375-12.785156 4.3125-15.992187 10.085938-3.375 5.910156-3.375 13.566406 0 19.476562 2.820312 5.074219 7.929687 8.765625 13.640625 9.8125 1.988281.367188 4.035156.265625 6.003906.652344 3.539062.757813 6.40625 3.605469 7.339844 7.082031 1.183594 4.273438-.738282 8.960938-4.5625 11.183594-2.925782 1.78125-6.175782 1.398438-9.449219 1.304688-6.214844-.972657-12.179687-2.914063-17.445313-6.421876-5.246093-3.425781-9.546874-8.085937-12.757812-13.453124-2-3.636719-3.542969-7.507813-4.390625-11.578126-.859375-3.925781-.964844-7.867187-.757813-11.867187.550782-5.644531 2.265626-11.066406 4.964844-16.046875 3.28125-5.574219 7.722656-10.40625 13.179688-13.910156 5.089844-3.324219 10.828125-5.320313 16.816406-6.261719zm0 0" fill="#ddf4a4"/><path d="m5.78125 79.996094c2.632812.074218 5.257812.113281 7.890625.082031 44.011719 0 88.019531-.003906 132.03125.003906 3.125.0625 6.078125-.273437 9.175781.324219-2.699218 4.980469-4.414062 10.402344-4.964844 16.046875-.109374 1.164063-.25 2.324219-.40625 3.480469-2.578124.214844-5.128906.042968-7.710937.078125-47.136719.007812-94.273437 0-141.410156.003906-.140625-6.890625 1.777343-14.144531 5.394531-20.019531zm0 0" fill="#a9cc54"/><path d="m149.914062 96.453125c-.207031 4-.101562 7.941406.757813 11.867187.847656 4.070313 2.390625 7.941407 4.390625 11.578126-46.867188.023437-93.738281.003906-140.609375.011718-2.898437-.011718-5.792969-.03125-8.6875.078125-3.550781-6.023437-5.386719-12.988281-5.378906-19.972656 47.136719-.003906 94.273437.003906 141.410156-.003906 2.582031-.035157 5.132813.136719 7.710937-.078125.15625-1.15625.296876-2.316406.40625-3.480469zm0 0" fill="#b6de64"/><path d="m5.765625 119.988281c2.894531-.109375 5.789063-.089843 8.6875-.078125 46.871094-.007812 93.742187.011719 140.609375-.011718 3.210938 5.367187 7.511719 10.027343 12.757812 13.453124 5.265626 3.507813 11.230469 5.449219 17.445313 6.421876-4.332031.113281-8.664063.058593-13 .070312-42.96875 0-85.9375 0-128.90625 0-2.082031-.003906-4.183594.058594-6.257813-.058594-12.824218-.898437-25.085937-8.53125-31.335937-19.796875zm0 0" fill="#a9cc54"/></svg>