<svg xmlns="http://www.w3.org/2000/svg" viewBox="0 0 548 548"><defs><style>.cls-1{fill:#eaeaea;}.cls-2{fill:#fffcf0;}.cls-3{fill:#666;}.cls-4{fill:#a05858;}.cls-5,.cls-6,.cls-8{fill:#333;}.cls-6{opacity:0.1;}.cls-7{fill:#331d1d;opacity:0.5;}.cls-8{opacity:0.3;}.cls-9{opacity:0.15;}.cls-10{fill:#202020;}.cls-11{stroke:#000;stroke-miterlimit:10;stroke-width:3px;}.cls-12{fill:#d8d8d8;}</style></defs><title>favicon-stroke</title><g id="Layer_3" data-name="Layer 3"><path class="cls-1" d="M307.44,501.12c-.56,0-1.17,0-1.83-.09l-4.54-.41-.26,0-2.63-.38c-.75-.11-1.49-.22-2.2-.34l-.17,0-1.8-.36c-1.34-.26-2.6-.51-3.72-.82-1.82-.45-3.37-.84-4.8-1.3l-.57-.16c-1.05-.32-2-.62-3-.95-2.06-.71-3.39-1.2-4.45-1.64a57,57,0,0,1-14.82-8.43,58.33,58.33,0,0,1-5.46-5c-2.73,1.18-5.48,2.25-8.19,3.2-1.56.58-3.12,1.07-4.64,1.54l-1.79.56-.25.07-1.92.53c-1.54.43-3.12.87-4.8,1.23a129,129,0,0,1-14.31,2.52,134.95,134.95,0,0,1-30.87,0c-12.33-1.29-22.85-4.18-32.08-8.83a65.07,65.07,0,0,1-7.69-4.6,56.91,56.91,0,0,1-7.13-6,52.43,52.43,0,0,1-6-7.25c-.55-.81-1.08-1.66-1.6-2.54a62.18,62.18,0,0,1-9-5.91,66.43,66.43,0,0,1-14.76-16.59l-2-3.24-.12-.2q-.34-.63-.75-1.32c-.55-1-1.19-2.07-1.85-3.32a138.27,138.27,0,0,1-6.58-14.21c-1.29-3.23-3.2-8.35-5-14.53-1.51-5.11-2.87-10.56-3.92-15.75-1.16-5.65-1.9-10.32-2.23-12.6L89,369l-.33-2.67c-.12-.95-.27-2.13-.4-3.49-.27-2.45-.8-7.67-1.18-14.53-.67-11-.6-24.18-.23-32.4s.72-12.84.94-15.52l0-.7a102.39,102.39,0,0,1,7.51-31.92c-.56-.33-1.12-.66-1.67-1A84.41,84.41,0,0,1,77,253.21c-1.33-1.4-3.75-3.94-6.6-7.31a142.93,142.93,0,0,1-9-11.68l-1.17-1.69L58.6,230c-.64-1-1.29-2-1.93-3.11-1.45-2.4-2.91-5-4.46-8.07A108.81,108.81,0,0,1,45,200.66c-.31-1-.59-2.13-.87-3.22-.13-.5-.27-1-.4-1.52-.32-1.18-.54-2.31-.76-3.4-.11-.52-.21-1-.32-1.55-.28-1.19-.44-2.38-.6-3.53-.07-.5-.14-1-.23-1.51,0,0-.66-4.68-.66-4.68L40.38,176c-.06-.42-.12-.85-.19-1.27l-.39-2.12c-.15-.77-.3-1.58-.45-2.38-.38-2.1-.74-4.09-1.23-6,0,0-1-4.34-1-4.34-.22-.84-.46-1.68-.69-2.51-.15-.52-.3-1-.44-1.55-.55-2.09-1.2-4.07-1.89-6.16-.2-.59-.39-1.18-.59-1.77-1.76-5-3.7-9.94-5.95-15.08l-.62-1.43c-1.94-4.5-3.95-9.16-5.57-13.85a66.36,66.36,0,0,1-3.45-15.88c0-.07-.07-1.19-.07-1.19a46.44,46.44,0,0,1-.1-6.25s.12-3.07.12-3.11c0-.7.11-1.37.17-2l.08-.88a90.22,90.22,0,0,1,1.56-9.94,65,65,0,0,1,1.72-6.42.56.56,0,0,0,0-.12c.4-1.16.67-1.89.77-2.16l.29-.76.74-1.74A37.63,37.63,0,0,1,27,60.47a20,20,0,0,1,1.25-1.62l.43-.52.14-.18c.61-.68,1.3-1.4,2.2-2.26l.1-.1a26,26,0,0,1,14.8-6.71,26.52,26.52,0,0,1,3.39-.2,37.74,37.74,0,0,1,5.39.41,46.94,46.94,0,0,1,8.25,2.11l.14.05a67.86,67.86,0,0,1,7.76,3.36,107.84,107.84,0,0,1,14.6,9,176.84,176.84,0,0,1,14.14,11c3.32,2.81,6.57,5.79,9.71,8.68,1.28,1.17,2.56,2.35,3.84,3.51a138.47,138.47,0,0,0,13.17,10.84,85.78,85.78,0,0,0,14.22,8.06l3.82,1.67c.78.31,1.57.61,2.35.9l1.51.56c2,.79,3.95,1.41,6,2.06l5.91,1.88,2.18.71a1.34,1.34,0,0,1,.26.09l2.1.8,2.12.82.25.11,2.7,1.22c.5.23,1,.45,1.49.7l2,1c1.29.64,2.54,1.38,3.74,2.1l.19.11c1.09.63,2.06,1.28,3,1.91l.75.5c.89.57,1.77,1.23,2.54,1.82l.93.69c.6.43,1.21.91,1.84,1.45l1.24,1c2,1.71,3.84,3.39,5.43,5a83.52,83.52,0,0,1,6.86,7.82,62.46,62.46,0,0,1,10.47,19.76l.09.32c1.85-1,3.75-2,5.72-2.85a91.91,91.91,0,0,1,20.33-6.28c2-.41,5.11-1,9.44-1.64l2.16-.3c1.43-.2,2.93-.42,4.51-.61l4.55-.51c.89-.1,1.79-.2,2.71-.26l2.55-.22c1.68-.14,3.42-.3,5.23-.38,5-.3,10.14-.46,15.29-.46,6.34,0,12.72.24,18.95.71a251.62,251.62,0,0,1,36,5.3A267.67,267.67,0,0,1,371,163.18l7.35,2.81a82.05,82.05,0,0,1,4.29-8,81,81,0,0,1,13.69-16.66l2.92-2.74.17-.16,4.87-4.14c1-.84,2.07-1.65,3.2-2.51l1.81-1.37,1.64-1.25c.48-.35.92-.65,1.36-.94l4.24-2.85c1.09-.77,2.2-1.41,3.27-2l1.08-.62,1.46-.85c1-.57,2-1.15,3-1.72l.22-.11,4.72-2.27,2.45-1.17.35-.16,2.57-1,5.25-2,1.58-.57c1-.37,2-.73,3-1.13l.16-.07a65.68,65.68,0,0,0,8.7-4.32,75.86,75.86,0,0,0,8.3-5.64A137.65,137.65,0,0,0,477.89,87.4c.88-.92,1.73-1.82,2.57-2.72A111.15,111.15,0,0,1,493.86,72a37,37,0,0,1,10.91-5.83l.16,0c.93-.26,1.86-.5,2.77-.71l.37-.07.35-.06c.81-.12,1.61-.25,2.39-.33a2.19,2.19,0,0,1,.36,0l2.46-.1h.52l1.72.12a13.53,13.53,0,0,1,2.38.31,14,14,0,0,1,9.13,7.52s.19.37.2.4c.18.36.35.77.52,1.2l0,.14c.11.27.16.42.24.66.24.68.47,1.46.66,2.24a42.45,42.45,0,0,1,1,6.33c.15,1.63.2,2.83.24,3.63l0,1.2a138.66,138.66,0,0,1-.4,14.27c-.64,9.32-2.13,21.12-4.2,33.19-2.24,13.19-5.22,27.27-8.6,40.71S510,203,506.07,214.27c-3.85,11.1-6.84,18.07-8.76,22.35A77.2,77.2,0,0,1,486,255.16a53.8,53.8,0,0,1-7.12,7l-.9.71a155.77,155.77,0,0,1,5.34,21.38,165.41,165.41,0,0,1,2.33,26.7c.09,3.85-.09,7.57-.26,11.18l-.06,1.22c0,.06-.49,5.92-.49,5.92-.1,1.32-.27,2.6-.43,3.84-.08.6-.16,1.2-.23,1.79a163.26,163.26,0,0,1-4.56,22.73l-.38,1.44A76.16,76.16,0,0,1,470.52,379a67.45,67.45,0,0,1-6.06,8.16,88,88,0,0,1,9.45,12l2.14,3.4.13.23c.45.81.88,1.63,1.31,2.46l.63,1.2.27.51c.23.44.49.93.75,1.51l1.57,3.74a20.75,20.75,0,0,1,.88,2.36l1.2,3.79c.34,1.13.56,2.18.75,3.1.08.42.17.83.26,1.25l.45,2.08c0,.16.05.31.07.46l.24,2c.05.51.1.93.15,1.36.11,1,.23,2,.28,3.07,0,.07,0,.14,0,.21,0,.54,0,1.09,0,1.63a48.23,48.23,0,0,1-.25,7.14,52.52,52.52,0,0,1-4.51,17.77,49.91,49.91,0,0,1-4.74,8.19,51.19,51.19,0,0,1-13.68,12.89A64.28,64.28,0,0,1,445.58,487a92,92,0,0,1-26.5,3.68h0c-2.16,0-4.38-.06-6.6-.19a134.86,134.86,0,0,1-30.33-5.39,145.5,145.5,0,0,1-14.62-5.19c-1.74,1.77-3.42,3.37-5.13,4.88l-.23.19a76,76,0,0,1-6.29,4.52l-.16.09c-1.15.68-2.37,1.36-3.61,2a40.63,40.63,0,0,1-4.51,2.14L345,494.84c-.86.36-1.73.66-2.65,1l-1.37.48-2.38.82a1.4,1.4,0,0,1-.29.09l-3.64,1c-.71.2-1.44.4-2.2.58l-3.49.74a89.31,89.31,0,0,1-11.72,1.52c-1.27.11-2.51.12-3.51.13l-1.17,0-1.55,0Z"/><path class="cls-1" d="M49.29,53.87a33.52,33.52,0,0,1,4.67.37,41.15,41.15,0,0,1,7.39,1.9,63.38,63.38,0,0,1,7.18,3.12,103.37,103.37,0,0,1,14,8.62c4.64,3.21,9.26,6.86,13.82,10.74s9,8.06,13.43,12.08a140,140,0,0,0,13.65,11.22,90.61,90.61,0,0,0,15.05,8.54l3.94,1.73c1.33.53,2.69,1,4,1.51,2.64,1.06,5.38,1.86,8,2.71l4.16,1.33,2.17.69,2.11.81,2.09.81,2,.92c.67.31,1.34.59,2,.92l1.92,1c1.3.64,2.52,1.38,3.73,2.1s2.36,1.5,3.51,2.26,2.2,1.59,3.28,2.38c.54.39,1.06.8,1.56,1.22l1.29,1.07c1.88,1.6,3.57,3.16,5,4.66A78,78,0,0,1,195.8,144a57.4,57.4,0,0,1,9.67,18.24,58.1,58.1,0,0,1,1.58,6.27l.8-.19a79.57,79.57,0,0,1,10.27-5.57,86.14,86.14,0,0,1,19.22-5.94c2.12-.43,5.31-1,9.27-1.6,2-.27,4.16-.6,6.5-.89l3.32-.37c1.2-.12,2.42-.29,3.67-.38,2.48-.18,5-.47,7.65-.58,4.84-.3,9.88-.46,15.07-.46,6,0,12.26.22,18.57.69a249.59,249.59,0,0,1,35.27,5.2,264.62,264.62,0,0,1,32.67,9.51l7.31,2.8c1.51.57,2.95,1.19,4.38,1.81.56-1.4,1.14-2.74,1.74-4.05a74.67,74.67,0,0,1,4.18-7.86,75.59,75.59,0,0,1,12.87-15.64l1.76-1.66,1.13-1.05,1.37-1.18,3.49-3c1.35-1.14,3-2.32,4.83-3.74l1.6-1.22c.55-.4,1.15-.78,1.74-1.18l3.68-2.48c1.25-.88,2.65-1.62,4-2.45s2.83-1.66,4.33-2.47l4.72-2.28,2.43-1.16,2.57-1,5.24-2c1.57-.59,3.2-1.1,4.77-1.8a71.71,71.71,0,0,0,9.38-4.65,81.16,81.16,0,0,0,8.85-6,140.85,140.85,0,0,0,15.78-14.82c5-5.21,9.67-10.57,15.36-14.88a31.86,31.86,0,0,1,9.39-5.06c.86-.24,1.71-.46,2.55-.65s1.71-.27,2.54-.37l2.45-.09,1.43.1a9.59,9.59,0,0,1,1.87.22A8.11,8.11,0,0,1,522.35,74c.29.45.51.94.75,1.4.11.23.22.49.33.76s.15.39.21.57c.23.68.41,1.3.56,1.88a37.51,37.51,0,0,1,.89,5.63c.14,1.48.19,2.6.22,3.36l0,1.16a135.15,135.15,0,0,1-.38,13.73c-.58,8.41-2,19.93-4.15,32.71S515.7,162,512.3,175.49s-7.25,26.47-10.95,37.14c-4,11.43-7,18.35-8.6,22a72.57,72.57,0,0,1-10.57,17.36,49.39,49.39,0,0,1-6.46,6.39A40.71,40.71,0,0,1,472,261a151.27,151.27,0,0,1,6.36,24.18,160.45,160.45,0,0,1,2.25,25.88c.09,4.17-.13,8.22-.31,12.12q-.24,2.93-.48,5.74c-.14,1.87-.44,3.69-.65,5.47a163.16,163.16,0,0,1-4.78,23.36,70.6,70.6,0,0,1-8.15,18.65,60.23,60.23,0,0,1-8.74,10.87c.95.91,1.89,1.84,2.78,2.84a82.84,82.84,0,0,1,9.42,11.82l2.07,3.3c.64,1.14,1.23,2.31,1.84,3.48.3.59.63,1.15.9,1.76l.77,1.84.78,1.84a15.1,15.1,0,0,1,.7,1.88c.41,1.28.81,2.56,1.22,3.85s.6,2.64.91,4l.42,2,.24,2c.13,1.36.34,2.72.41,4.09a59.32,59.32,0,0,1-.22,8.22,45.78,45.78,0,0,1-1.3,8.22,46.34,46.34,0,0,1-2.76,8,45.28,45.28,0,0,1-4.28,7.38,45.8,45.8,0,0,1-12.31,11.58,59.09,59.09,0,0,1-15,6.85,86.88,86.88,0,0,1-25,3.46q-3.18,0-6.32-.18a129.65,129.65,0,0,1-29.2-5.2,141.8,141.8,0,0,1-17.41-6.42c-.7.84-1.4,1.65-2.1,2.44-1.61,1.64-3.23,3.19-5,4.73s-3.71,2.85-5.88,4.23c-1.11.64-2.28,1.3-3.52,2a37.4,37.4,0,0,1-4,1.9L343,490.23c-1,.44-2.32.84-3.76,1.36l-2.32.8-2.67.74c-.94.25-1.93.56-3,.81l-3.36.7a81.08,81.08,0,0,1-11,1.43c-1.8.15-3.41.1-4.56.14l-1.36,0-.5,0-2.19-.08c-.68,0-1.48,0-2.37-.09l-2.87-.26-1.55-.15-1.57-.23c-1-.15-2.12-.29-3.13-.47-2-.42-3.9-.73-5.26-1.11-1.74-.44-3.26-.81-4.56-1.23s-2.43-.71-3.37-1.06c-1.92-.66-3.22-1.13-4.2-1.54a52.68,52.68,0,0,1-13.65-7.74,51.91,51.91,0,0,1-7.28-7.11c-3.53,1.64-7.25,3.18-11.17,4.55-2,.76-4.14,1.36-6.26,2s-4.31,1.24-6.55,1.71a123.44,123.44,0,0,1-13.83,2.44,129.54,129.54,0,0,1-29.64,0c-10.12-1.05-20.65-3.39-30.43-8.32a62,62,0,0,1-7.1-4.25,54,54,0,0,1-6.45-5.39,47.55,47.55,0,0,1-5.44-6.54c-.75-1.11-1.45-2.27-2.09-3.45a57.61,57.61,0,0,1-9.55-6.1,61.53,61.53,0,0,1-13.65-15.37l-2-3.17c-.72-1.29-1.62-2.77-2.54-4.53a130.83,130.83,0,0,1-6.37-13.75c-1.61-4-3.35-8.94-4.86-14.08s-2.84-10.48-3.82-15.33-1.73-9.19-2.19-12.33-.7-5-.7-5l-.2-1.61c-.12-1-.32-2.52-.51-4.36-.41-3.68-.85-8.75-1.16-14.31-.68-11.12-.57-24.17-.22-31.9.38-9,.76-13.37,1-16a102.6,102.6,0,0,1,3.42-19.65,107.32,107.32,0,0,1,5.38-14.65,2.74,2.74,0,0,1,.05-.28c-1.83-.93-3.62-1.91-5.38-3a79.17,79.17,0,0,1-15.68-12.77c-1.5-1.57-3.75-3.95-6.37-7.05a136.27,136.27,0,0,1-8.7-11.29l-1.09-1.57L63.27,228c-.77-1.2-1.56-2.4-2.29-3.67-1.51-2.49-2.94-5.11-4.31-7.8a103.2,103.2,0,0,1-6.92-17.3c-.45-1.53-.83-3.08-1.25-4.63s-.67-3.14-1-4.71-.52-3.19-.78-4.79l-.65-4.57-.62-4.45c-.11-.73-.19-1.48-.32-2.21l-.41-2.2c-.56-2.92-1-5.86-1.75-8.71l-1-4.29c-.36-1.41-.79-2.8-1.17-4.2-.73-2.8-1.68-5.51-2.56-8.2-1.88-5.36-3.93-10.5-6.11-15.49s-4.33-9.93-6-14.91a61.38,61.38,0,0,1-3.2-14.72,50.76,50.76,0,0,1-.16-6.69c0-1,.08-2.08.12-3.07s.17-1.89.24-2.79a88.09,88.09,0,0,1,1.46-9.31,60.89,60.89,0,0,1,1.61-6c.47-1.37.75-2.1.75-2.1s.06-.18.21-.53l.66-1.56a31.68,31.68,0,0,1,3.3-5.82c.41-.61,1-1.22,1.49-1.87s1.2-1.29,1.88-1.94A22.87,22.87,0,0,1,39.65,56,23,23,0,0,1,46.51,54a23.44,23.44,0,0,1,2.78-.17m0-10h0a33.31,33.31,0,0,0-13.87,3.05l-.17.08a32.65,32.65,0,0,0-7.49,5.08l-.21.2c-1,1-1.81,1.78-2.51,2.58-.1.11-.19.23-.29.35l-.36.44a23.91,23.91,0,0,0-1.52,2,41.88,41.88,0,0,0-4.16,7.3c0,.09-.1.22-.13.31l-.28.65-.39.91a.36.36,0,0,1,0,.09c-.15.38-.27.7-.36,1s-.41,1.11-.81,2.26c0,.08-.05.15-.07.23a68.6,68.6,0,0,0-1.86,6.9,96.39,96.39,0,0,0-1.62,10.37s0,.11,0,.16c0,.28-.05.56-.08.84-.06.65-.13,1.38-.18,2.2a1.93,1.93,0,0,0,0,.24l0,1.09-.07,1.82a52.89,52.89,0,0,0,.11,6.82l.05,1,0,.39a71.53,71.53,0,0,0,3.72,17.08c1.67,4.85,3.71,9.58,5.68,14.15l.61,1.41,0,.05c2.19,5,4.09,9.82,5.8,14.68l.57,1.74c.67,2,1.3,3.92,1.78,5.79a.5.5,0,0,1,0,.13l.45,1.59c.23.82.45,1.59.64,2.33l1,4.18a1.6,1.6,0,0,0,.05.21c.44,1.74.79,3.64,1.16,5.66q.21,1.22.45,2.43l.38,2.07c.06.35.1.69.15,1l.12.85.61,4.42.66,4.6,0,.2c.08.47.14.93.2,1.4.17,1.18.35,2.51.69,4,.1.47.19.94.28,1.41.23,1.11.48,2.37.83,3.69l.4,1.52c.28,1.09.58,2.22.93,3.4a113,113,0,0,0,7.57,18.94c1.61,3.16,3.12,5.89,4.63,8.38.69,1.2,1.4,2.31,2,3.29l.44.7,0,.05L56,235.25l.18.26.62.89.47.68a144.77,144.77,0,0,0,9.3,12.09c2.58,3,4.76,5.38,6.74,7.45l.07.07a90.54,90.54,0,0,0,15.74,13.13c-1,2.63-1.81,5.22-2.56,7.86a113.38,113.38,0,0,0-3.77,21.54l-.06.75c-.22,2.71-.59,7.25-.94,15.71s-.45,21.75.23,32.93c.38,6.88.91,12.18,1.2,14.75.14,1.41.29,2.6.41,3.55,0,.34.08.65.11.92v.07l.19,1.6a.78.78,0,0,1,0,.16l.71,5v.08c.42,2.86,1.16,7.4,2.28,12.88,1.08,5.32,2.48,10.91,4,16.16,1.87,6.35,3.84,11.64,5.16,14.95A141.15,141.15,0,0,0,103,433.52c.69,1.31,1.34,2.45,1.92,3.45.25.44.49.85.71,1.25.07.13.15.26.23.39l.68,1.1,1.28,2.06a.86.86,0,0,0,.1.16,71.24,71.24,0,0,0,15.82,17.77l0,0a67.71,67.71,0,0,0,8.52,5.71c.34.55.69,1.08,1,1.6a57.37,57.37,0,0,0,6.62,8l0,0a61.42,61.42,0,0,0,7.66,6.41l.15.11a70.91,70.91,0,0,0,8.26,4.94c9.79,4.94,20.85,8,33.85,9.35a140.83,140.83,0,0,0,16.08.89h.15a143,143,0,0,0,15.68-.94h.1a132.72,132.72,0,0,0,14.8-2.61c1.79-.39,3.43-.84,5-1.28.62-.18,1.25-.35,1.87-.51l.49-.15,1.76-.55c1.57-.49,3.18-1,4.85-1.61s3.56-1.29,5.35-2q1.64,1.52,3.42,3l.07.06a62.63,62.63,0,0,0,16.09,9.16c1.14.47,2.53,1,4.63,1.7,1,.38,2.08.69,3.19,1l.57.17c1.55.49,3.21.9,5,1.34,1.28.35,2.62.61,4,.89l1.73.34.33.07c.82.14,1.6.25,2.36.36l1,.14h.06l1,.15.56.08.5.06,1.55.14,2,.19.86.08h.22c.78.06,1.46.08,2,.09l.6,0H308l2.15.07.48,0h.55l1.36,0h.23c.3,0,.64,0,1,0,1,0,2.36,0,3.86-.14a90.94,90.94,0,0,0,12.4-1.63l3.31-.7.26-.06c.89-.21,1.69-.43,2.39-.63l.87-.24.09,0,1.1-.3,1.57-.44.58-.18,2.24-.77.08,0,.12,0,1.31-.46c1-.33,1.94-.67,2.92-1.08l.06,0,2.63-1.12a47.78,47.78,0,0,0,5-2.35c1.28-.7,2.54-1.4,3.72-2.09l.3-.19a79.05,79.05,0,0,0,6.7-4.81,5.45,5.45,0,0,0,.46-.38c1-.88,2-1.8,3-2.75,4,1.54,8,2.92,12,4.11a139.35,139.35,0,0,0,31.47,5.59c2.31.14,4.63.2,6.88.2A97,97,0,0,0,447,491.77l.05,0a69.2,69.2,0,0,0,17.51-8,56.06,56.06,0,0,0,15-14.1l.05-.07a55.8,55.8,0,0,0,5.22-9,57,57,0,0,0,3.37-9.68,55,55,0,0,0,1.56-9.66,53.37,53.37,0,0,0,.28-7.72c0-.53,0-1.06,0-1.59,0-.14,0-.29,0-.43-.06-1.25-.2-2.4-.32-3.4,0-.4-.09-.8-.13-1.2a1,1,0,0,0,0-.17l-.23-2c0-.31-.09-.62-.15-.92l-.43-2a1.16,1.16,0,0,0,0-.18l-.24-1.13c-.21-1-.45-2.19-.84-3.47a.5.5,0,0,0,0-.13l-.31-1-.87-2.75a24.94,24.94,0,0,0-1.07-2.89l-.76-1.79-.78-1.86,0-.08c-.34-.77-.68-1.41-.93-1.88l-.21-.4a1.14,1.14,0,0,0-.1-.19l-.57-1.09c-.43-.83-.88-1.68-1.37-2.57q-.12-.23-.27-.45l-1-1.68-1-1.62-.14-.22a96.71,96.71,0,0,0-7-9.35c1.29-1.69,2.51-3.45,3.68-5.29l0-.06a80.9,80.9,0,0,0,9.28-21.2l.06-.21c.1-.39.22-.83.35-1.3a167.33,167.33,0,0,0,4.68-23.3c0-.05,0-.11,0-.16.06-.57.14-1.13.22-1.71.16-1.23.35-2.63.46-4.12l.09-1.06.39-4.62c0-.13,0-.25,0-.38l.06-1.25c.17-3.66.35-7.44.26-11.48a169.94,169.94,0,0,0-2.4-27.45,164.16,164.16,0,0,0-4.49-18.83,60.5,60.5,0,0,0,6.05-6.22,82.17,82.17,0,0,0,12.05-19.7c2-4.4,5-11.52,8.93-22.79s7.83-24.55,11.21-38,6.42-27.77,8.68-41.08c2.09-12.24,3.61-24.21,4.26-33.7a140.08,140.08,0,0,0,.4-14.78l0-1.14v-.1c0-.8-.09-2.13-.25-3.84v-.06a47.93,47.93,0,0,0-1.14-7c-.22-.92-.49-1.82-.8-2.72-.09-.27-.16-.46-.28-.78l-.06-.15a15.83,15.83,0,0,0-.72-1.65.8.8,0,0,0-.08-.16l-.11-.23a18.77,18.77,0,0,0-1.05-1.89,18.14,18.14,0,0,0-11.44-8.28,17.67,17.67,0,0,0-3.17-.43l-.23,0h-.06l-1.44-.1-.65,0h-.38l-2.45.09c-.25,0-.49,0-.74.06-.92.1-1.8.24-2.57.36l-.37.05q-.37.06-.75.15c-1,.23-2,.48-3,.77l-.32.09A41.74,41.74,0,0,0,490.87,68a114.16,114.16,0,0,0-14.06,13.31c-.83.89-1.67,1.77-2.51,2.66l-.05,0a132,132,0,0,1-14.64,13.79,71.71,71.71,0,0,1-7.78,5.29,60,60,0,0,1-8,4l-.32.14c-.74.33-1.65.65-2.61,1l-1.61.58-.07,0-5.24,2-2.59,1a6.51,6.51,0,0,0-.72.31l-2.43,1.16-2.66,1.28-2.09,1-.44.22c-1.11.61-2.14,1.21-3.14,1.79l-1.37.79-.13.07-1,.59a42.42,42.42,0,0,0-3.62,2.24l-2.26,1.51-1.32.89-.08.06-.52.34c-.44.3-.94.63-1.49,1l-.13.1-.56.43-1.05.79-.06,0c-.61.48-1.2.92-1.76,1.34-1.19.9-2.32,1.75-3.4,2.66l-2.31,2-1.21,1-.65.55-.73.63-.35.31-.51.48-.61.57-1.38,1.29-.4.38-.06.06a85.66,85.66,0,0,0-14.5,17.67c-.88,1.45-1.7,2.88-2.47,4.32l-3-1.16-.17-.06a274.51,274.51,0,0,0-33.91-9.88,258.09,258.09,0,0,0-36.68-5.4c-6.34-.48-12.84-.72-19.31-.72-5.23,0-10.47.16-15.6.47-1.88.09-3.65.24-5.36.39l-2.5.21c-1,.07-2,.18-2.88.28l-1.08.12h-.08l-.54.06-2.78.31-.13,0c-1.63.2-3.14.41-4.6.62l-2,.28-.22,0c-4.44.7-7.52,1.24-9.67,1.68A96.85,96.85,0,0,0,214,153.57l-.05,0-.85.4a68.51,68.51,0,0,0-9.4-16.14,89.54,89.54,0,0,0-7.26-8.26c-1.69-1.74-3.62-3.52-5.71-5.29l-.09-.07-1.25-1c-.71-.6-1.41-1.15-2.11-1.66l-.82-.61c-.83-.63-1.76-1.33-2.86-2l-.66-.44c-1-.64-2-1.37-3.27-2.07l-.14-.09c-1.2-.71-2.56-1.53-4.08-2.29l-.77-.4-1.08-.57-.15-.07c-.61-.31-1.18-.56-1.68-.79l-.59-.27-.08,0-1.06-.48-1-.44-.5-.21-2.09-.81-.05,0-2.11-.81-.5-.17-.08,0-2.08-.67-2.5-.8-1.7-.54-1.76-.55c-2-.63-3.89-1.22-5.61-1.91l-.16-.07-1.55-.57c-.76-.28-1.48-.55-2.16-.82l-1.94-.85-1.75-.77a79.4,79.4,0,0,1-13.31-7.53l-.09-.06A132.91,132.91,0,0,1,116.49,83.3c-1.29-1.16-2.55-2.33-3.83-3.49-3.17-2.92-6.46-5.94-9.87-8.83-5.18-4.4-9.93-8.1-14.51-11.27a113.12,113.12,0,0,0-15.21-9.37,73.27,73.27,0,0,0-8.27-3.58l-.28-.1a50.33,50.33,0,0,0-9.17-2.32,42.29,42.29,0,0,0-6.06-.47Z"/></g><g id="Layer_1" data-name="Layer 1"><path class="cls-2" d="M206,171.75s70.12-35.25,172.91,5.05c0,0,22.81-41.22,71.38-56.71s21.28-30.26,58.28-45.75S488,231.72,488,231.72,472.81,259.3,467.26,263c0,0,20.84,75-13.34,127.07,0,0,45.54,42.16,4.73,80.47-18.88,12.14-41.54,15.42-64.57,8.27l-24.88-8c-10.34,6.9-17.23,20.69-55.16,20.69s-58.6-20.69-58.6-20.69c-16.08,12.06-55.16,17.24-86.19,6.9,0,0-41.37-27.58-48.43-43,0,0-40.82-58.39-18.7-171.74,0,0-37.18-21.88-50.49-75.76S27,114.58,27.08,104.12,31.5,42.78,62,59s50.46,53.59,99.92,65.26C193.24,132,206,171.75,206,171.75Z"/></g><g id="Layer_2" data-name="Layer 2"><path class="cls-3" d="M281.07,157.57S300,279.1,268.48,338.79c-32.53,18-39.82,14.72-76.05,30.51s-50.2,48.4-50.2,48.4-5.88,35.32-4,37S76.45,405,102.69,263.36c0,0-43.95-31.37-50.45-75.7s-21.07-72.59-21.07-72.59S16.64,68.59,47.07,59s49.07,47,99,60.12,58.34,50,58.34,50S254.45,156.29,281.07,157.57Z"/><path class="cls-3" d="M350.32,167.05s-21,83.72,0,171.74c0,0,77.66,23.21,103.89,51.54,0,0,39.23-52.47,13.32-127,0,0,16.42-8.29,36.18-75.5S524,82.88,515.86,75s-39.7,28.44-39.7,28.44S465.29,113.62,433,127.63s-53.71,49.61-53.71,49.61Z"/><path class="cls-4" d="M179.29,194.1S124.72,92.32,42.87,77.63c0,0-8.39,5.25-2.09,38.82s9.32,70.26,14.82,84.32,26.1,50,57.58,69.41c0,0,30.43-39.35,38.82-55.09S179.29,194.1,179.29,194.1Z"/><path class="cls-4" d="M421.53,200.77s31.19,22.19,46,62.59c0,0,48.31-53.68,52.61-177,0,0-6.52-14.46-28.18,11.7S421.53,200.77,421.53,200.77Z"/><path class="cls-5" d="M316.06,404s31.63-6.77,34.26-29.89c0,0-33.05-29.87-69.25,0C281.07,374.1,293.33,404,316.06,404Z"/><path class="cls-6" d="M256,472a74.85,74.85,0,0,0,44-19.23c19.87-18.4,35.77,19.08,67.41,17.41,0,0-30-15-38-25.39s-14-21.73-29.39-6.18S267.8,468.16,256,472Z"/><path class="cls-7" d="M430.9,206.17s17.89-28,35.59-38.09a5.77,5.77,0,0,1,8.31,6.75c-2.25,7.49-4.63,17.71-4,25.94,0,0,.66-.13,1.66-.23a6.8,6.8,0,0,1,7.05,9c-2.49,7.1-5.75,21.64-4,46.72l-7.74,5S454.28,226.11,430.9,206.17Z"/><path class="cls-7" d="M165.44,200.77s-13.15-30.78-51.2-35.58a7.7,7.7,0,0,0-8.43,9.19c1.78,9.05,4,21.76,3,26.39a41.27,41.27,0,0,0-8.19-.14A5.85,5.85,0,0,0,97,210.57c9.1,9.27,25.11,29.45,20.89,53.39,0,0,20.71-25.26,28.18-38.38S165.44,200.77,165.44,200.77Z"/><path class="cls-8" d="M390.49,161.65s34.57,11,40.41,23.55l-9.37,15.57s-37.43-25.18-42.25-23.53Z"/><path class="cls-6" d="M473.25,417.7c-1.36,16.39-7.64,28.35-16.09,37.13,0,.05.11.08.15.13,1.32,1.76-.84,5.62-4.83,8.62s-8.14,4-9.54,2.33c-22.41,13.07-48.94,13-48.94,13C496.48,498.25,473.25,417.7,473.25,417.7Zm-11.46,44.88c-1,1-2.13,1.54-2.58,1.12s0-1.62.93-2.66,2.13-1.55,2.58-1.13S462.77,461.53,461.79,462.58Zm1.52-7.5c-.8,1.39-2,2.2-2.67,1.82s-.56-1.83.24-3.22,2-2.2,2.67-1.81S464.11,453.69,463.31,455.08Z"/><path class="cls-8" d="M435.77,213.09a305.31,305.31,0,0,1,14.65,53.06c2.49,1.83,4.84,7.35,5.73,14.16,1,7.5-.13,14-2.51,15.83a158,158,0,0,1-2.77,36.42,3.68,3.68,0,0,0-.77-.38c-3.58-1-8,3.44-9.8,9.94s-.42,12.58,3.15,13.59c.11,0,.23,0,.34,0-5.18,12-10.46,17.62-10.46,17.62,6.94-.7,20.88,17,20.88,17C511.92,286.44,435.77,213.09,435.77,213.09Z"/><path class="cls-8" d="M446.77,324.66c0-2.69-1-4.86-2.32-4.86s-2.33,2.17-2.33,4.86,1,4.85,2.33,4.85S446.77,327.34,446.77,324.66Z"/><path class="cls-9" d="M332.81,365.57s-.25,4.6-1.24,10.64a2.49,2.49,0,0,0-.8-.21c-1.85,0-3.34,2-3.34,4.47a4.43,4.43,0,0,0,2.37,4.21c-1.77,6.84-4.52,13.8-8.83,17.71l6.22-1.08s19.76-7.92,23.13-27.21C350.32,374.1,342.07,364.71,332.81,365.57Z"/><path class="cls-9" d="M323.14,392.46c.65.09,1.31-.9,1.48-2.19s-.22-2.42-.87-2.5-1.31.9-1.48,2.19S322.5,392.38,323.14,392.46Z"/><path class="cls-10" d="M202.37,172.07c6.61-1,12.11-1.45,17.8-2.22s11.58-1.73,19.07-3.12c2-.4,5.08-.9,8.87-1.5l6.23-.83,3.18-.35c1.16-.12,2.33-.28,3.52-.36,2.38-.18,4.83-.45,7.34-.56a239.65,239.65,0,0,1,66.08,5.2,256,256,0,0,1,31.38,9.12l7,2.68c2.29.87,4.46,1.88,6.6,2.77,4.31,1.75,8.2,3.72,11.83,5.42,1.83.82,3.47,1.76,5.06,2.6l4.49,2.42c1.42.72,2.67,1.53,3.83,2.25l3.2,2,2.57,1.59c.75.45,1.32.92,1.82,1.26l1.5,1.06,3.48,2.48c.56.42,1.21.82,1.86,1.36l2.11,1.73c1.51,1.26,3.29,2.62,5.16,4.26l5.94,5.53c2,2.14,4.17,4.39,6.38,6.84l3.22,3.92,1.67,2c.53.7,1,1.44,1.57,2.17l3.21,4.48,3,4.82a122.67,122.67,0,0,1,10.46,21.66,141.87,141.87,0,0,1,6.48,24.14,150.61,150.61,0,0,1,2.11,24.23c.08,3.91-.13,7.72-.29,11.39-.16,1.83-.31,3.62-.46,5.38s-.41,3.47-.6,5.15A161.49,161.49,0,0,1,464.67,355c-2.05,7.26-3.66,12.95-5.18,18.35a162.88,162.88,0,0,1-5.28,17,60.37,60.37,0,0,0,12.07-13.94,70.6,70.6,0,0,0,8.15-18.65,163.16,163.16,0,0,0,4.78-23.36c.21-1.78.51-3.6.65-5.47s.32-3.79.48-5.74c.18-3.9.4-7.95.31-12.12a160.45,160.45,0,0,0-2.25-25.88,152,152,0,0,0-7-25.95,132.72,132.72,0,0,0-11.32-23.4c-1.1-1.76-2.17-3.52-3.27-5.22l-3.47-4.84c-.57-.79-1.12-1.58-1.7-2.34l-1.8-2.2L446.38,217c-2.38-2.65-4.73-5.08-6.89-7.37l-6.39-5.94c-2-1.76-3.91-3.22-5.53-4.57l-2.27-1.84c-.69-.58-1.39-1-2-1.46l-3.73-2.65L418,192c-.54-.36-1.16-.86-1.95-1.35L413.32,189l-3.4-2.11c-1.24-.77-2.56-1.63-4.07-2.4l-4.75-2.56c-1.67-.89-3.43-1.89-5.32-2.74-3.76-1.76-7.8-3.81-12.27-5.63-2.23-.93-4.48-2-6.87-2.88l-7.31-2.8a264.62,264.62,0,0,0-32.67-9.51,248.48,248.48,0,0,0-68.91-5.43c-2.62.11-5.17.4-7.65.58-1.25.09-2.47.26-3.67.38l-3.32.37c-2.34.29-4.52.62-6.5.89-4,.62-7.15,1.17-9.27,1.6a86.14,86.14,0,0,0-19.22,5.94A82.21,82.21,0,0,0,202.37,172.07Z"/><path class="cls-10" d="M389.15,352.55c4.37,2.73,7.9,5.13,11.72,7.39s7.89,4.45,13.16,7.08c1.42.71,3.55,1.79,6.16,3.2,1.31.68,2.71,1.51,4.23,2.35l.75.42,1.3.77,2.63,1.57c1.73,1.1,3.51,2.19,5.25,3.38s3.52,2.37,5.24,3.67,3.46,2.62,5.18,4c.87.67,1.69,1.42,2.53,2.14s1.7,1.45,2.51,2.22c1.6,1.55,3.29,3.07,4.8,4.75a75.75,75.75,0,0,1,8.56,10.73l1.84,2.94c.56,1,1.08,2,1.62,3.07.27.52.57,1,.8,1.55l.67,1.61.68,1.61a11.83,11.83,0,0,1,.61,1.63c.35,1.11.7,2.22,1.06,3.34s.51,2.27.78,3.41l.37,1.72.19,1.75c.11,1.17.31,2.33.36,3.51a52.86,52.86,0,0,1-.19,7.11,40.1,40.1,0,0,1-1.1,7,39.35,39.35,0,0,1-2.29,6.63,37.39,37.39,0,0,1-3.5,6,38,38,0,0,1-10.21,9.59,51.42,51.42,0,0,1-13,5.93,83.05,83.05,0,0,1-28.62,3,121.48,121.48,0,0,1-27.43-4.89A133.94,133.94,0,0,1,342.64,451a115.38,115.38,0,0,1-14.1-12.7c-2-2-3.64-4-5.17-5.9-.31-.38-1-1.15-1.53-1.71a14.64,14.64,0,0,0-1.92-1.55,13.34,13.34,0,0,0-4.17-1.87,13.79,13.79,0,0,0-7.63.24,13.41,13.41,0,0,0-4.89,2.86c-.56.51-1,1.06-1.38,1.44l-.66.78-.54.64-2.16,2.46c-1.42,1.6-3.57,3.91-6.45,6.73a136.24,136.24,0,0,1-26.68,20.4,120.84,120.84,0,0,1-20.62,9.53c-1.9.72-3.88,1.28-5.87,1.92s-4,1.16-6.14,1.6a116.87,116.87,0,0,1-12.95,2.28,122.45,122.45,0,0,1-27.87,0c-9.53-1-19.14-3.2-27.72-7.53a52.69,52.69,0,0,1-6.14-3.67,45.51,45.51,0,0,1-5.43-4.54,39,39,0,0,1-4.48-5.38,35.12,35.12,0,0,1-3.29-6.13,36.24,36.24,0,0,1-2.67-13.65,46.82,46.82,0,0,1,2.23-13.95c2.85-9.1,8.07-17.35,14.19-24.39a90.47,90.47,0,0,1,9.87-9.72c1.74-1.48,3.5-2.89,5.3-4.22.91-.66,1.79-1.34,2.72-2l1.36-.94.69-.47.29-.19a126.36,126.36,0,0,1,14.89-8.4c5.25-2.51,9.38-4.48,13.28-6.52s7.6-4.15,12.16-6.58a74.24,74.24,0,0,0-14,1.17A60.89,60.89,0,0,0,190.38,366a128.28,128.28,0,0,0-15.88,8.9l-.32.2-.73.5-1.46,1c-1,.66-1.94,1.39-2.91,2.1-1.93,1.43-3.83,2.95-5.71,4.54a100.07,100.07,0,0,0-10.69,10.53,77.19,77.19,0,0,0-15.77,27.21,54.64,54.64,0,0,0-2.58,16.33,43.82,43.82,0,0,0,3.26,16.62,42.72,42.72,0,0,0,4,7.54,47.55,47.55,0,0,0,5.44,6.54,54,54,0,0,0,6.45,5.39,62,62,0,0,0,7.1,4.25c9.78,4.93,20.31,7.27,30.43,8.33a134.3,134.3,0,0,0,15.05.82,131.87,131.87,0,0,0,14.59-.87,123.44,123.44,0,0,0,13.83-2.44c2.24-.47,4.4-1.14,6.55-1.71s4.24-1.28,6.26-2a129.49,129.49,0,0,0,22-10.16A144.18,144.18,0,0,0,297.5,448c3-3,5.29-5.41,6.8-7.1l2.28-2.6.57-.67.7-.83c.23-.22.38-.43.64-.66a5.73,5.73,0,0,1,2.06-1.22,6,6,0,0,1,3.25-.09,5.39,5.39,0,0,1,1.77.8,6.24,6.24,0,0,1,.82.66c.27.29.43.44.91,1,1.65,2,3.47,4.16,5.54,6.33a122.55,122.55,0,0,0,15.05,13.56,141.68,141.68,0,0,0,45.67,23.1,129.65,129.65,0,0,0,29.2,5.2,91,91,0,0,0,31.35-3.28,59.09,59.09,0,0,0,15-6.85,45.8,45.8,0,0,0,12.31-11.58,45.28,45.28,0,0,0,4.28-7.38,46.34,46.34,0,0,0,2.76-8,45.78,45.78,0,0,0,1.3-8.22A59.32,59.32,0,0,0,480,432c-.07-1.37-.28-2.73-.41-4.09l-.24-2-.42-2c-.31-1.32-.52-2.67-.91-4s-.81-2.57-1.22-3.85a15.1,15.1,0,0,0-.7-1.88l-.78-1.84-.77-1.84c-.27-.61-.6-1.17-.9-1.76-.61-1.17-1.2-2.34-1.84-3.48l-2.07-3.3a82.84,82.84,0,0,0-9.42-11.82c-1.65-1.84-3.46-3.47-5.19-5.15-.88-.82-1.8-1.58-2.69-2.37s-1.78-1.57-2.7-2.28c-1.83-1.47-3.64-2.92-5.5-4.24s-3.69-2.63-5.52-3.88-3.7-2.39-5.52-3.54L430.46,367l-1.36-.81-.79-.44c-1.58-.87-3-1.73-4.41-2.44-2.71-1.45-4.93-2.56-6.42-3.29A72.43,72.43,0,0,0,403,354.65,78.31,78.31,0,0,0,389.15,352.55Z"/><path class="cls-10" d="M341.93,333.66c-1.22-3.74-2.63-6-6.1-7.65a64.41,64.41,0,0,0-13.38-4.32,58,58,0,0,0-7.6-1.07c-1-.1-1.85-.11-2.44-.14l-.91,0h-.92c-.58,0-1.42,0-2.45,0a55.7,55.7,0,0,0-7.69.85,52.28,52.28,0,0,0-8.24,2.22c-1.23.41-2.29.9-3.2,1.27s-1.62.73-2.09,1c-3.49,1.73-4.71,4.17-5.84,7.87,3.94.42,6.16.56,9.21-.83.41-.2,1-.5,1.81-.81s1.7-.73,2.75-1.07a47.3,47.3,0,0,1,7-1.91,50.22,50.22,0,0,1,6.58-.75c.88,0,1.6,0,2.11,0h.78l.79,0c.51,0,1.23,0,2.11.12a51.93,51.93,0,0,1,6.62,1,63.26,63.26,0,0,1,11.82,3.78,11.37,11.37,0,0,0,4.35,1A41.29,41.29,0,0,0,341.93,333.66Z"/><path class="cls-10" d="M102.69,263.36a111.85,111.85,0,0,0-6.47,17.05,102.6,102.6,0,0,0-3.42,19.65c-.22,2.67-.6,7-1,16-.35,7.73-.46,20.78.22,31.9.31,5.56.75,10.63,1.16,14.31.19,1.84.39,3.33.51,4.36l.2,1.61.7,5c.46,3.14,1.19,7.48,2.19,12.33s2.3,10.2,3.82,15.33,3.25,10,4.86,14.08a130.83,130.83,0,0,0,6.37,13.75c.92,1.76,1.82,3.24,2.54,4.53l2,3.17a58.65,58.65,0,0,0,29.76,24.39,166.84,166.84,0,0,1-10.72-14.15c-3.2-4.63-6.5-9.38-10.47-15.67l-1.77-2.9c-.65-1.19-1.47-2.55-2.31-4.17A123.18,123.18,0,0,1,115,411.28c-1.49-3.76-3.12-8.35-4.55-13.19s-2.69-9.9-3.64-14.51-1.66-8.77-2.12-11.77L104,367s-.28-2.19-.65-5.73-.8-8.43-1.09-13.8c-.64-10.74-.52-23.42-.21-30.95.36-8.79.71-13,.9-15.62.57-7.67.79-13.7.68-19.49S103.05,270.05,102.69,263.36Z"/><path class="cls-10" d="M312.55,430.7a19.82,19.82,0,0,0,4.55-5.89,29,29,0,0,0,2.42-6.72,37,37,0,0,0,.87-7.4c0-.66,0-1.33,0-2,0-.35,0-.69,0-1l0-.27c0-.12,0,0,0-.07h0a.07.07,0,0,1,.09,0h0l.53-.1c.45-.09.93-.16,1.44-.3a41,41,0,0,0,8.25-2.85,39.92,39.92,0,0,0,8.93-5.76,44.08,44.08,0,0,0,7.94-8.94,50.77,50.77,0,0,0,5-9.39l.4-1,.44-1.23c.4-1.19.72-2.29.95-3.29l.35-1.42.08-.33c0-.06,0-.1-.06-.13l-.14-.11-.5-.4c-.65-.51-1.21-1-1.7-1.32-.67-.52-1.33-1-2-1.48l-1.08-.73c-.68-.47-1.35-.88-2-1.28-1.28-.79-2.44-1.47-3.51-2-2.11-1.19-3.82-2-5.13-2.61-2.62-1.2-3.64-1.57-3.64-1.57l-1.38-.55c-.91-.31-2.21-.83-3.88-1.33a58.87,58.87,0,0,0-13.59-2.61,51.68,51.68,0,0,0-8.67.16c-1.48.24-3,.37-4.46.74-.74.17-1.49.32-2.22.51l-2.17.65a47.08,47.08,0,0,0-14.6,7.77c-1,.78-1.88,1.51-2.73,2.23L280,369.76c-.71.69-1.48,1.35-2.09,2l-.93,1c-.06.08-.2.14-.18.25l.08.32.15.63c.2.84.44,1.66.67,2.45.11.39.22.8.35,1.16l.26.75c.15.41.29.8.44,1.16a46.19,46.19,0,0,0,3.1,6.45,30.89,30.89,0,0,0,11.45,11.73,28.11,28.11,0,0,0,13.95,3.64,41.6,41.6,0,0,1-10.47-8.18A55.76,55.76,0,0,1,288.58,382a40.88,40.88,0,0,1-2.56-5.41q-.19-.47-.36-1l-.13-.38h0s0,0,0,0l0,0,.93-.87c.73-.62,1.52-1.24,2.34-1.91A39.34,39.34,0,0,1,301,366l1.79-.55c.6-.16,1.22-.27,1.83-.42,1.21-.32,2.47-.41,3.7-.62a43.56,43.56,0,0,1,7.29-.14,50.82,50.82,0,0,1,11.78,2.25c1.47.43,2.63.9,3.44,1.17l1.24.49s.9.33,3.26,1.41c1.17.56,2.71,1.29,4.62,2.36,1,.53,2,1.15,3.16,1.86.57.36,1.17.73,1.78,1.14l.92.62h0c0-.12-.12.34-.22.58l-.34.87A42.32,42.32,0,0,1,341,385a36.25,36.25,0,0,1-6.53,7.36A31.78,31.78,0,0,1,327.3,397a33.06,33.06,0,0,1-6.68,2.32c-.42.12-.82.18-1.19.26l-.64.12c-.38.07-.74.15-1.1.19l-3.6.46-2.21.29c-.56-.09-.24.46-.22.79l.2,1.1c.28,1.47.52,2.86.74,4.21.11.87.23,1.72.34,2.56.08.6.16,1.19.22,1.77.28,2.32.51,4.47.65,6.57a50.78,50.78,0,0,1,.11,6.3A21.8,21.8,0,0,1,312.55,430.7Z"/><path class="cls-10" d="M256,472a51.84,51.84,0,0,0,9.75,10.27A52.68,52.68,0,0,0,279.44,490c1,.41,2.28.88,4.2,1.54.94.35,2.07.67,3.37,1.06s2.82.79,4.56,1.23c1.36.38,3.25.69,5.26,1.11,1,.18,2.08.32,3.13.47l1.57.23,1.55.15,2.87.26c.89.06,1.69.06,2.37.09l2.19.08.5,0,1.36,0c1.15,0,2.76,0,4.56-.14a81.08,81.08,0,0,0,11-1.43l3.36-.7c1.06-.25,2-.56,3-.81l2.67-.74,2.32-.8c1.44-.52,2.71-.92,3.76-1.36l2.64-1.11a37.4,37.4,0,0,0,4-1.9c1.24-.67,2.41-1.32,3.52-2,2.17-1.38,4.07-2.82,5.88-4.23s3.36-3.09,5-4.73,3.08-3.58,4.7-5.56c-2.4,1-4.55,1.93-6.59,2.85s-4.11,1.65-6.09,2.57-4.07,1.71-6.25,2.7c-1.11.46-2.25.95-3.44,1.48s-2.43,1.06-3.76,1.61l-2.43,1c-1,.39-2.13.75-3.45,1.22l-2.12.73-2.43.67c-.86.23-1.76.5-2.72.73l-3.05.64a80.52,80.52,0,0,1-10,1.31c-1.63.14-3.08.1-4.13.15l-1.24,0h-.45l-2-.09c-.62,0-1.35,0-2.15-.09l-2.61-.25-1.4-.14-1.44-.21c-1-.15-1.92-.27-2.84-.44-1.84-.38-3.55-.66-4.8-1-1.59-.4-3-.73-4.17-1.11s-2.23-.65-3.1-1c-1.76-.6-3-1-3.86-1.39-5.36-2.07-9.53-3.81-13.59-5.41S260.66,474.25,256,472Z"/><path class="cls-10" d="M379.28,177.24c2.41-2.32,4.72-4.31,6.93-6.24s4.33-3.76,6.46-5.67c4.25-3.81,8.6-7.86,14.08-13l1.66-1.54,1-1,1.29-1.09L414,146c1.25-1,2.77-2.13,4.47-3.44l1.48-1.13c.51-.37,1.05-.71,1.59-1.08l3.39-2.26c1.14-.82,2.41-1.48,3.68-2.23s2.59-1.52,3.94-2.26l4.26-2,2.18-1,2.3-.88,4.7-1.8c1.8-.66,3.64-1.26,5.43-2A87,87,0,0,0,472,113.7a150.18,150.18,0,0,0,16.92-15.87c5-5.31,9.6-10.4,14.05-13.74a21.86,21.86,0,0,1,6.36-3.5l1.48-.39,1.44-.2c.48,0,.94,0,1.4-.06l.43,0H514s0,0,0,0a.94.94,0,0,1,0,.15,7.94,7.94,0,0,1,.29,1,27.69,27.69,0,0,1,.64,4.09c.11,1.21.16,2.19.19,2.85l0,1s0,1.17,0,3.35-.12,5.38-.4,9.38c-.57,8-1.91,19.22-4.06,31.72s-5,26.3-8.39,39.55-7.11,25.93-10.69,36.3c-3.84,11.1-6.72,17.72-8.21,21.16-3.07,6.95-5.39,12.36-7.61,17.52-1.12,2.58-2.22,5.08-3.49,7.64a40.72,40.72,0,0,1-4.86,7.74,33,33,0,0,0,8.19-5,49.39,49.39,0,0,0,6.46-6.39,72.57,72.57,0,0,0,10.57-17.36c1.61-3.6,4.63-10.52,8.6-22,3.7-10.67,7.56-23.63,10.95-37.14s6.35-27.55,8.52-40.33,3.57-24.3,4.15-32.71a135.15,135.15,0,0,0,.38-13.73l0-1.16c0-.76-.08-1.88-.22-3.36a37.51,37.51,0,0,0-.89-5.63c-.15-.58-.33-1.2-.56-1.88-.06-.18-.1-.28-.21-.57s-.22-.53-.33-.76c-.24-.46-.46-1-.75-1.4a8.11,8.11,0,0,0-5.23-3.86,9.59,9.59,0,0,0-1.87-.22l-1.43-.1-2.45.09c-.83.1-1.68.24-2.54.37s-1.69.41-2.55.66a31.6,31.6,0,0,0-9.39,5c-5.69,4.31-10.39,9.67-15.36,14.88a140.85,140.85,0,0,1-15.78,14.82,81.16,81.16,0,0,1-8.85,6,71.71,71.71,0,0,1-9.38,4.65c-1.57.7-3.2,1.21-4.77,1.8l-5.24,2-2.57,1-2.43,1.16-4.72,2.28c-1.5.81-2.92,1.67-4.33,2.47s-2.8,1.57-4,2.45L415.73,132c-.59.4-1.19.78-1.74,1.18l-1.6,1.22c-1.84,1.42-3.48,2.6-4.83,3.74l-3.49,3-1.37,1.18-1.13,1.05-1.76,1.66a75.59,75.59,0,0,0-12.87,15.64,74.67,74.67,0,0,0-4.18,7.86A84.05,84.05,0,0,0,379.28,177.24Z"/><path class="cls-10" d="M421.53,200.77c7.24-7.35,11.9-12.43,18.27-22.55L446.3,168c3.44-5.37,9.28-14.39,14.39-22s9.46-13.72,9.46-13.72,3.64-5.16,8.46-11.58,10.91-14,15.52-19.15a86.8,86.8,0,0,1,12.26-11.75,24.29,24.29,0,0,1,5.69-3.41,5.31,5.31,0,0,1,1.7-.37,2,2,0,0,1,1.38.55A12.51,12.51,0,0,1,518,91.28a50.45,50.45,0,0,1,2.1,6.75,36.26,36.26,0,0,0,1.16-7.27,17.75,17.75,0,0,0-.19-3.69,11.3,11.3,0,0,0-1.36-3.94,8,8,0,0,0-4-3.41,9.86,9.86,0,0,0-5.39-.37,22.46,22.46,0,0,0-8.62,4.17c-2.62,1.9-7.21,5.8-13.46,12.78-4.83,5.33-11.06,13.13-15.94,19.69s-8.55,11.77-8.55,11.77-4.43,6.21-9.59,13.85-11.07,16.7-14.51,22.12c-3.7,5.81-5.44,8.63-6.51,10.36C426.88,184.33,424.48,190.88,421.53,200.77Z"/><path class="cls-10" d="M112.92,270.18a105.58,105.58,0,0,0,10.93-8.74A86.13,86.13,0,0,0,134,250c1-1.3,2.46-3.28,4.24-5.76.9-1.24,1.85-2.62,2.89-4.08l.79-1.16.95-1.4c.64-1,1.3-1.89,1.94-2.89,1.29-2,2.59-4,3.88-6.12.63-1,1.28-2.06,1.92-3.11s1.28-2.07,2-3.08,1.35-2.06,2.08-3,1.44-2,2.22-3L158,214.9l1.21-1.42c.79-1,1.68-1.83,2.53-2.75a48.72,48.72,0,0,1,5.66-4.85,55.92,55.92,0,0,1,6.56-4c1.16-.63,2.37-1.23,3.59-1.84l6.89-3.4.46-.23.23-.12c.07,0,0-.06,0-.09l-.06-.12-.47-.93-.93-1.86-1.87-3.7-1.13-2.12c-.33-.64-.69-1.25-1-1.87-1.37-2.48-2.85-4.89-4.34-7.27a227.8,227.8,0,0,0-19.28-25.71c-6.55-7.63-12.94-14.26-18.51-19.74s-10.34-9.8-13.68-12.77-5.27-4.59-5.27-4.59-1.9-1.65-5.35-4.5-8.46-6.88-14.74-11.53A270.57,270.57,0,0,0,76,84.38,138.29,138.29,0,0,0,62,77a67.27,67.27,0,0,0-8-3,34.32,34.32,0,0,0-4.44-1.07,18.15,18.15,0,0,0-5.19-.23,8.93,8.93,0,0,0-1.51.27,10,10,0,0,0-1.62.55,7.06,7.06,0,0,0-2.41,1.63,6.2,6.2,0,0,0-.64.67A16.71,16.71,0,0,0,36.65,78L36,79.2l-.5,1.19a29.09,29.09,0,0,0-1.81,9.39A92.61,92.61,0,0,0,35,107c.84,5.5,1.84,10.82,2.84,16l2.88,14.69c1.52,7.75,2.65,14.1,3.2,17.27,2,11.73,4.2,18.17,7.66,27.89,1.5-10.2,1.95-17.26,0-29.19-.52-3.22-1.65-9.67-3.18-17.47L45.5,121.48c-1-5.12-2-10.36-2.78-15.64a87,87,0,0,1-1.18-15.69A21.64,21.64,0,0,1,42.8,83.3l.29-.72.36-.64a8.7,8.7,0,0,1,.78-1.16c.09-.14.06,0,.08-.07s0,0,0,0,0,0,.15-.06a1.37,1.37,0,0,1,.33-.11,2,2,0,0,1,.51-.08,10.14,10.14,0,0,1,3,.17,25.93,25.93,0,0,1,3.46.84,59.76,59.76,0,0,1,7,2.7,132.16,132.16,0,0,1,13.22,7,261.72,261.72,0,0,1,21.88,14.65c6.14,4.54,11,8.49,14.42,11.27s5.25,4.4,5.25,4.4,1.88,1.59,5.16,4.5,7.92,7.15,13.38,12.5,11.68,11.85,18,19.27a219,219,0,0,1,18.6,24.82c1.42,2.27,2.83,4.56,4.13,6.91.33.59.67,1.17,1,1.76l.82,1.55s0,0,0,0h0l-.08,0-.47.24c-1.26.63-2.52,1.25-3.79,1.93a66.73,66.73,0,0,0-7.47,4.57,58,58,0,0,0-6.64,5.69c-1,1.05-2,2.06-2.88,3.14l-1.37,1.59-1.27,1.63c-.86,1.07-1.64,2.17-2.42,3.26s-1.5,2.19-2.23,3.28-1.41,2.18-2.08,3.26L142,224.51c-1.23,2-2.49,4-3.74,5.9-.6,1-1.25,1.88-1.87,2.8l-.92,1.36-.77,1.12-2.81,4c-1.74,2.43-3.16,4.38-4.12,5.67a132.78,132.78,0,0,0-8.37,12.51C117.13,261.72,115.23,265.57,112.92,270.18Z"/><path class="cls-10" d="M41.3,78.15a13.79,13.79,0,0,0-3.81,4.48l-.65,1.28-.52,1.3a23.31,23.31,0,0,0-.82,2.7A38,38,0,0,0,35,100.33c.16,1.64.44,4.3,1.31,9.7.91,5.86,3.65,19.43,3.65,19.43s2.23,11.35,3.38,17.63c1.3,7.06,2,11.44,2.36,13.72,1.45,9.26,3.15,14.36,5.86,22,1.19-8,1.58-13.56.2-22.95-.35-2.32-1-6.77-2.34-13.9-1.14-6.35-3.43-17.7-3.43-17.7S43.29,114.71,42.37,109c-.86-5.27-1.12-7.78-1.3-9.33-.47-4.55-.87-8-1.09-11.36,0-.81-.11-1.65-.08-2.45V84.65L40,83.41A14.93,14.93,0,0,1,41.3,78.15Z"/><circle class="cls-11" cx="213.59" cy="317.66" r="24.92"/><circle class="cls-11" cx="400.41" cy="317.66" r="21.13"/><path class="cls-10" d="M208.14,180.46a59.8,59.8,0,0,0-.66-9.48,56.7,56.7,0,0,0-11.68-27,78,78,0,0,0-6.47-7.36c-1.46-1.5-3.15-3.06-5-4.66L183,130.86c-.5-.42-1-.83-1.56-1.22-1.08-.79-2.13-1.64-3.28-2.38s-2.29-1.56-3.51-2.26-2.43-1.46-3.73-2.1l-1.92-1c-.66-.33-1.33-.61-2-.92l-2-.92-2.09-.81-2.11-.81-2.17-.69-4.16-1.33c-2.66-.85-5.4-1.65-8-2.71-1.33-.5-2.69-1-4-1.51l-3.94-1.73a90.61,90.61,0,0,1-15.05-8.54A140,140,0,0,1,109.76,90.7c-4.44-4-8.85-8.21-13.43-12.08s-9.18-7.53-13.82-10.74a103.37,103.37,0,0,0-14-8.62,63.38,63.38,0,0,0-7.18-3.12A41.37,41.37,0,0,0,54,54.24a27.8,27.8,0,0,0-7.45-.2A23,23,0,0,0,39.65,56a22.87,22.87,0,0,0-5.2,3.53c-.68.65-1.32,1.3-1.88,1.94s-1.08,1.26-1.49,1.87a31.68,31.68,0,0,0-3.3,5.82l-.66,1.56c-.15.35-.21.53-.21.53s-.28.73-.75,2.1a60.89,60.89,0,0,0-1.61,6,88.09,88.09,0,0,0-1.46,9.31c-.07.9-.18,1.81-.24,2.79l-.12,3.07a50.76,50.76,0,0,0,.16,6.69,61.56,61.56,0,0,0,3.2,14.73c1.71,5,3.88,9.9,6,14.9s4.23,10.13,6.11,15.49c.88,2.69,1.83,5.4,2.56,8.2.38,1.4.81,2.79,1.17,4.2L43,163c.73,2.85,1.19,5.79,1.75,8.71l.41,2.2c.13.73.21,1.48.32,2.21l.62,4.45.65,4.57c.26,1.6.41,3.21.78,4.79s.6,3.16,1,4.71.8,3.1,1.25,4.63a103.2,103.2,0,0,0,6.92,17.3c1.37,2.69,2.8,5.31,4.31,7.8.73,1.27,1.52,2.47,2.29,3.67l1.16,1.79,1.09,1.57a136.27,136.27,0,0,0,8.7,11.29c2.62,3.1,4.87,5.48,6.37,7.05a79.17,79.17,0,0,0,15.68,12.77,77.55,77.55,0,0,0,7.85,4.19,86.27,86.27,0,0,0,8.8,3.5c-2.31-2.43-4.3-4.74-6.23-6.95L101,256.76c-3.81-4.27-7.9-8.58-13.11-14-1.39-1.5-3.49-3.73-5.93-6.64a128.16,128.16,0,0,1-8.07-10.51l-1-1.45-1.07-1.65c-.71-1.11-1.45-2.22-2.11-3.38-1.39-2.29-2.69-4.68-3.95-7.14a93.07,93.07,0,0,1-6.25-15.62c-.41-1.36-.74-2.75-1.11-4.14s-.6-2.8-.91-4.2-.46-2.83-.69-4.25l-.65-4.52-.65-4.66c-.11-.77-.2-1.55-.33-2.32l-.43-2.32c-.59-3.08-1.08-6.18-1.86-9.21l-1.06-4.54c-.38-1.51-.83-3-1.24-4.48-.79-3-1.79-5.86-2.73-8.73-2-5.68-4.19-11.14-6.4-16.19s-4.25-9.77-5.76-14.16A51.26,51.26,0,0,1,33,100.29a69.31,69.31,0,0,1,1.46-18.82,50.49,50.49,0,0,1,1.32-5l.59-1.64s0-.15.16-.42l.5-1.17c.21-.52.54-1.09.88-1.81a25,25,0,0,1,1.39-2.2c.26-.41.6-.74.91-1.15s.7-.74,1.08-1.12A12.51,12.51,0,0,1,44,65.15a12.77,12.77,0,0,1,3.67-1,17.87,17.87,0,0,1,4.73.16A32,32,0,0,1,58,65.73a52.4,52.4,0,0,1,6,2.62A94.08,94.08,0,0,1,76.65,76.2c4.37,3,8.71,6.47,13.06,10.17s8.64,7.76,13.19,11.88a150.8,150.8,0,0,0,14.64,12,101.64,101.64,0,0,0,16.69,9.48l4.31,1.88c1.44.58,2.89,1.1,4.33,1.64,2.87,1.14,5.76,2,8.6,2.9l4,1.29,1.88.6,1.83.7,1.81.7,1.74.79c.58.27,1.16.51,1.73.8l1.66.87c1.12.55,2.17,1.19,3.21,1.81s2,1.29,3,1.95,1.91,1.37,2.84,2.05c.47.33.92.69,1.35,1.06l1.12.93c1.64,1.38,3.11,2.74,4.4,4a72.36,72.36,0,0,1,5.71,6.44c4.53,5.73,7.75,10.55,10.93,15.18,1.59,2.33,3.13,4.63,4.7,7.07S206.62,177.48,208.14,180.46Z"/><ellipse class="cls-12" cx="208.54" cy="308.35" rx="9.84" ry="7.48"/><circle class="cls-12" cx="199.03" cy="321" r="3.34"/><circle class="cls-12" cx="208.9" cy="323.2" r="2.39"/><ellipse class="cls-12" cx="396.34" cy="310.56" rx="9.34" ry="7.1"/><circle class="cls-12" cx="387.32" cy="322.56" r="3.17"/><circle class="cls-12" cx="396.68" cy="324.66" r="2.27"/><path class="cls-1" d="M306.93,377.08c2.53-2.23,1.14-5.95-2.82-5.91-4.2.05-9,2.06-11.37,4.86C288.94,380.47,299.52,383.63,306.93,377.08Z"/></g></svg>