<svg height="200" viewBox="0 0 200 200" width="200" xmlns="http://www.w3.org/2000/svg"><path d="m118.382812 76.894531h3.75c.582032.140625 1.171876.125 1.765626.21875 2.773437.351563 5.542968 1.265625 7.800781 2.949219 1.558593 1.152344 2.859375 2.617188 3.546875 4.449219.550781 1.414062.671875 2.921875.515625 4.421875-.199219 1.628906-.890625 3.175781-2 4.382812-1.242188 1.359375-2.910157 2.328125-4.605469 3.011719-.941406.378906-1.898438.695313-2.886719.921875-2.699219.632812-5.390625 1.375-8.0625 2.128906-1.890625.480469-3.714843 1.289063-5.328125 2.386719-1.59375 1.09375-2.992187 2.601563-3.816406 4.359375.570312.015625 1.136719.011719 1.707031.011719 9.6875 0 19.371094-.003907 29.054688 0 .003906 1.746093-.007813 3.492187.007812 5.234375h-37.65625c0-.289063.007813-.582032.023438-.875.222656-2.75.933593-5.425782 2.367187-7.804688.382813-.675781.882813-1.265625 1.296875-1.921875.421875-.378906.773438-.828125 1.1875-1.214843 2.5-2.460938 5.820313-4.101563 9.144531-5.136719 1.433594-.421875 2.882813-.800781 4.328126-1.199219 1.941406-.539062 3.996093-1.050781 5.839843-1.875.871094-.394531 1.675781-.859375 2.308594-1.59375 1.058594-1.171875 1.132813-3.007812.351563-4.34375-.515626-.921875-1.460938-1.617188-2.390626-2.089844-2.003906-.980468-4.234374-1.152344-6.433593-1.148437-2.109375.03125-4.121094.125-6.152344.761719-1.636719.511718-3.125 1.34375-4.496094 2.367187-.273437.222656-.554687.429687-.863281.609375-.246094-.289062-.476562-.585938-.703125-.890625-.816406-1.09375-1.691406-2.152344-2.472656-3.269531.34375-.335938.734375-.609375 1.125-.890625 1.1875-.855469 2.445312-1.609375 3.777343-2.21875 1.890626-.855469 3.914063-1.34375 5.976563-1.546875.667969-.101563 1.335937-.042969 1.992187-.195313zm0 0" fill="#999"/><path d="m46.867188 84.25c-.910157.046875-1.824219-.003906-2.734376.035156-.011718.171875-.007812.339844-.007812.511719-.039062.011719-.078125.027344-.113281.039063.003906.074218.007812.144531.011719.214843-.203126.242188-.15625.511719-.28125.78125.007812.074219.011718.144531.015624.21875-.046874.007813-.09375.015625-.136718.023438.015625.089843.03125.179687.046875.265625-.046875.007812-.09375.011718-.140625.019531.011718.113281.023437.226563.039062.339844-.042968.015625-.085937.027343-.128906.042969.003906.070312.007812.140624.011719.210937-.191407.242187-.167969.5-.265625.78125-.007813.058594-.019532.117187-.027344.175781-.179688.25-.160156.539063-.292969.808594-.082031.160156-.082031.308594-.074219.480469-.039062.007812-.078124.011719-.117187.019531.011719.113281.023437.222656.035156.335938-.039062.015624-.082031.03125-.125.046874.003907.074219.007813.144532.011719.214844-.203125.3125-.269531.644532-.382812 1-.421876 1.417969-.855469 2.832032-1.261719 4.253906-.078125.460938-.292969.863282-.40625 1.3125-.089844.289063-.117188.589844-.21875.871094-.007813.0625-.019531.117188-.027344.179688-.167969.246094-.164063.503906-.257813.777344-.007812.058593-.019531.117187-.027343.175781-.167969.246093-.164063.503906-.257813.777343-.007812.054688-.019531.113282-.027344.171876-.167968.246093-.167968.503906-.257812.777343-.007812.0625-.019531.117188-.03125.175781-.160156.25-.160156.503907-.253906.777344-.011719.058594-.019532.117188-.03125.175782-.164063.246093-.164063.503906-.257813.777343-.007812.058594-.015625.117188-.027343.179688-.175782.289062-.253907.613281-.292969.949219-.144531.246093-.160157.511718-.25.777343-.007813.054688-.015625.109375-.027344.167969-.203125.296875-.253906.703125-.363281 1.054688-.070313.207031-.101563.394531-.097656.613281l-.113282.027343c.003906.070313.011719.140626.011719.210938-.105469.160156-.183594.339844-.261719.515625-.09375-.421875-.296875-.796875-.367187-1.222656-.058594-.292969-.203125-.554688-.265625-.84375-.175782-.796875-.46875-1.582031-.683594-2.371094-.125-.480469-.339844-.917969-.433594-1.410156-.179687-.433594-.242187-.890625-.414062-1.324219-.085938-.261719-.105469-.523438-.25-.765625-.011719-.058594-.023438-.121094-.035156-.179687-.097657-.34375-.175782-.691407-.308594-1.027344-.105469-.414063-.195313-.828125-.332032-1.234375-.148437-.449219-.242187-.953125-.472656-1.367188-.011718-.058593-.019531-.121093-.027344-.179687-.128906-.464844-.269531-.925782-.394531-1.394532-.15625-.324218-.152343-.6875-.335937-1-.011719-.058593-.023438-.117187-.03125-.175781-.535156-2.011719-1.179688-4-1.761719-5.996093-.238281-.566407-.332031-1.167969-.527344-1.75-1.800781-.015626-3.597656.003906-5.398437-.007813-.160156.019531-.332032-.042969-.429688.117187-.035156.128907-.023437.277344-.027344.410157-.035156.015625-.070312.03125-.109374.050781.003906.066406.011718.136719.011718.203125-.324218.488281-.371094 1.175781-.550781 1.734375-.011719.054688-.019531.113281-.03125.167969-.25.363281-.238281.8125-.40625 1.246093-.09375.460938-.324219.855469-.363281 1.328126-.164063.3125-.246094.601562-.28125.953124-.257813.484376-.355469 1.066407-.535156 1.585938-.128907.359375-.179688.734375-.289063 1.097656-.007813.058594-.019531.117188-.03125.175782-.164063.25-.164063.503906-.253906.777343-.011719.058594-.019531.117188-.03125.175781-.183594.285157-.164063.59375-.304688.894532-.191406.417968-.238281.867187-.390625 1.296875-.101562.527343-.367187.988281-.453125 1.523437-.230469.675782-.417969 1.359375-.628906 2.039063-.066406.207031-.109375.414062-.136719.628906-.140625.246094-.164062.507813-.242187.777344-.011719.058593-.023438.117187-.035157.175781-.160156.246094-.160156.507812-.257812.777344-.007812.054687-.015625.113281-.027344.167968-.195312.285157-.242187.671876-.351562 1.007813-.070313.21875-.113282.429687-.109375.660156-.035157.011719-.074219.019531-.109375.027344.003906.070313.003906.140625.007812.214844-.171875.265625-.226562.546875-.3125.847656-.105468.378906-.269531.710937-.261718 1.117187-.074219 0-.148438.003907-.21875.003907.007812-.082031.003906-.160157-.011719-.238281-.097657-.273438-.125-.558594-.238281-.828126-.132813-.308593-.152344-.640624-.285157-.953124-.253906-.683594-.332031-1.492188-.6875-2.136719-.007812-.058594-.015625-.121094-.027343-.179688-.167969-.585937-.242188-1.164062-.535157-1.726562-.027343-.347657-.117187-.648438-.292969-.945313-.011718-.0625-.019531-.125-.03125-.183594-.300781-1.257812-.71875-2.480468-1.074218-3.726562-.148438-.550781-.386719-1.066406-.507813-1.625-.167969-.433594-.25-.890625-.414062-1.324219-.089844-.261719-.105469-.523437-.253907-.769531-.011718-.058594-.019531-.117188-.03125-.175781-.207031-.660157-.320312-1.398438-.632812-2.015625-.039062-.488282-.292969-.898438-.371094-1.382813-.382812-1.324219-.777344-2.648437-1.195312-3.964843-1.703125-.003907-3.410156-.011719-5.113282.003906.027344.414062.210938.851562.398438 1.222656-.003906.074219-.003906.144531-.007812.214844.042968.007812.085937.015625.125.027344-.003907.070312-.007813.140624-.007813.210937.183594.4375.21875.855469.464844 1.265625-.003907.070312-.007813.140625-.011719.214844.046875.007812.089844.015625.136719.023437-.015625.085938-.03125.171875-.046875.257813.046875.007812.09375.019531.140625.027344-.015625.085937-.03125.171874-.046875.257812.050781.007812.097656.019531.144531.027344-.015625.085937-.03125.171875-.046875.257812.046875.007813.09375.019532.140625.027344-.015625.085938-.03125.171875-.046875.257812.046875.011719.097656.019532.144531.027344-.019531.085938-.035156.175782-.050781.261719.050781.007813.097656.015625.144531.023437-.015625.089844-.03125.175782-.046875.261719.039063.007813.078125.015625.117188.023438-.007813.234375.03125.429687.109375.648437.632812 1.863282 1.21875 3.738282 1.875 5.589844.125.355469.203125.726562.378906 1.046875.011719.058594.019531.117187.03125.171875.164063.417969.230469.882812.457031 1.257812-.003906.074219-.007812.144532-.011718.214844.046874.007813.09375.015625.136718.023438-.015625.085937-.03125.171875-.046875.261718.046875.007813.09375.015626.140625.027344-.015625.085938-.03125.171875-.046875.257813.046875.007812.097657.015625.144531.027343l-.046874.253907c.039062.011719.078124.019531.117187.03125 0 .195312.019531.382812.089844.570312.515625 1.550781 1.027343 3.105469 1.542969 4.65625.164062.394531.25.824219.449218 1.199219.003906.0625.007813.128906.007813.191406.03125.039063.066406.074219.097656.113282.019531.175781.0625.34375.125.507812.113281.3125.175781.613281.347656.902344-.003906.070312-.003906.140625-.007812.214844l.132812.027343c-.015625.082031-.03125.167969-.042969.253907.042969.007812.089844.019531.136719.03125-.015625.085937-.027343.167968-.042969.253906.046876.011718.09375.019531.140626.03125-.015626.085937-.03125.167968-.046876.253906.046876.011719.09375.019531.140626.03125-.015626.085938-.03125.171875-.046876.257812.046876.007813.097657.015626.144532.027344-.015625.085938-.03125.171875-.046875.257813.039062.007812.078125.019531.117187.027343-.015625.394532.144532.703126.257813 1.074219.171875.5.320312 1.011719.511719 1.507813h5.835937c.195313-.554688.328125-1.128906.488281-1.691406.011719-.0625.023438-.121094.035156-.179688.171876-.285156.167969-.601562.296876-.902344.105468-.25.140624-.515625.214843-.773437.132813-.292969.230469-.574219.253907-.894531.136718-.246094.167968-.511719.242187-.777344.011719-.058594.023437-.121094.035156-.183594.179688-.316406.253907-.648438.363281-.996094.128907-.445312.277344-.890625.375-1.34375.066407-.324218.21875-.621094.285157-.949218.0625-.308594.203125-.59375.269531-.902344.078125-.425782.304688-.785156.332031-1.222656.28125-.5625.371094-1.144532.535157-1.734376.011718-.054687.019531-.113281.027343-.167968.113281-.179688.179688-.371094.238281-.574219.253907-.898437.542969-1.769531.769532-2.675781.089844-.421875.296875-.792969.335937-1.230469.167969-.304687.222657-.632813.3125-.964844.085938-.253906.152344-.511719.21875-.765625l.03125-.183594c.089844-.15625.160157-.316406.210938-.488281.246093-.839843.492187-1.679687.765625-2.511719.09375.242188.175781.484376.269531.726563.121094.28125.109375.582031.28125.851563.011719.058593.019531.117187.03125.175781.089844.292969.140625.589843.253906.871093.121094.292969.113281.585938.289063.855469.011718.058594.019531.121094.03125.179688.085937.273437.089844.527343.253906.773437.011719.058594.023438.117188.035156.175782.082032.273437.089844.53125.253906.777343.007813.058594.019532.117188.027344.175781.089844.273438.085938.53125.257813.777344.007812.058594.019531.117188.027343.175782.070313.257812.132813.515624.222657.765624.089843.335938.140625.664063.316406.96875.015625.246094.058594.449219.191406.65625.011719.0625.023438.121094.03125.179688.085938.292969.140625.589844.253907.875.117187.292969.109374.582031.289062.855469.011719.058593.019531.117187.03125.175781.085938.273438.09375.527344.253906.773438.011719.058593.019532.117187.03125.175781.078125.269531.101563.53125.246094.777343.027344.234376.078125.453126.148438.675782.136718.433594.210937.835937.429687 1.234375.011719.246093.054687.457031.199219.660156 0 .074219-.003906.144531-.007813.214844l.109375.027343c-.03125.460938.214844.789063.289063 1.222657.03125.164062.085937.300781.171875.445312.011718.058594.019531.113281.027344.171875.171874.585938.25 1.167969.539062 1.730469.039062.390625.175781.746094.28125 1.125.074219.269531.152344.535156.300781.777344.007813.058593.015625.121093.023438.179687.105469.304688.140625.621094.234375.929688h5.929687c.265625-.675782.414063-1.378906.660157-2.058594.515624-1.574219 1.082031-3.121094 1.542968-4.714844.433594-1.332031.898438-2.648437 1.324219-3.980468.222656-.617188.371094-1.257813.59375-1.878907.417969-1.261719.855469-2.519531 1.265625-3.785156.25-.703125.371094-1.394531.6875-2.070313.039062.453126.023438.890626.027344 1.347657v15.808593c0 .445313-.011719.886719.015625 1.332032h51.144531c1.101562-.15625 2.167969-.175782 3.25-.539063.40625-.09375.804688-.191406 1.199219-.335937.222656-2.75.933593-5.425782 2.367187-7.804688.382813-.675781.882813-1.265625 1.296875-1.921875-.4375-.914062-1.046875-1.730469-1.871093-2.335937-.582032-.453125-1.238282-.742188-1.90625-1.046875.660156-.457031 1.304687-.917969 1.828124-1.535157.546876-.675781 1.003907-1.398437 1.195313-2.257812.257813-.8125.335937-1.664062.25-2.511719-.03125-.351562-.023437-.78125-.21875-1.09375 0-.09375.003906-.191406.007813-.289062-.035157-.015625-.070313-.03125-.105469-.046875-.003907-.136719-.003907-.289063-.042969-.421875-.632812-1.953125-2.207031-3.429688-4.085938-4.191407-.433593-.164062-.8125-.355468-1.285156-.3125-.011718-.039062-.027344-.078124-.039062-.117187-.097656.007813-.195313.011719-.292969.011719-.277344-.175782-.632813-.183594-.953125-.234375-.710938-.089844-1.429688-.121094-2.144531-.117188-7.046875 0-14.09375-.003906-21.140625 0-.132813-.015625-.25.042969-.378906.035157.007812 7.242187 0 14.492187.003906 21.734374 0 .375 0 .75-.007813 1.125-7.808593-.003906-15.617187-.003906-23.425781 0-.011719-2.578124-.003906-5.15625-.003906-7.730468 4.628906-.011719 9.261718-.003906 13.894531-.007813.125-.015625.304687.035157.292969-.152343.003906-1.359376.011718-2.71875-.003906-4.078126-4.726563-.015624-9.457032.003907-14.183594-.007812-.003906-2.226562-.003906-4.453125 0-6.679688 5.9375-.007812 11.875-.003906 17.808594-.003906.535156-.003906 1.070312.011719 1.605468-.011718.027344-1.320313.015625-2.644532.007813-3.964844-3.425781-.085938-6.851563-.089844-10.277344-.109375-3.109375-.058594-6.222656-.082031-9.335937-.089844-.671876-.003906-1.339844.003906-2.007813-.0625-.726563-.015625-1.453125-.015625-2.179687-.015625zm50 4.253906c.511718-.007812 1.019531.078125 1.515624.210938.816407.226562 1.582032.769531 2.011719 1.511718.148438.257813.238281.535157.382813.796876.023437.601562.078125 1.179687-.015625 1.78125-.320313.910156-.925781 1.644531-1.765625 2.125-.386719.25-.835938.328124-1.234375.542968-.457031-.003906-.914063.058594-1.371094.050782-5.683594-.007813-11.367187.007812-17.050781-.007813.003906-2.335937-.003906-4.671875.003906-7.007813 5.839844-.007812 11.683594 0 17.523438-.003906zm-8.621094 11.246094h8.90625c.949218.042969 1.90625.136719 2.765625.570312.652343.320313 1.15625.832032 1.46875 1.492188.234375.4375.261719.886719.320312 1.371094.050781.480468-.019531.921875-.078125 1.394531-.023437.195313-.167968.371094-.246094.550781-.292968.613282-.808593 1.050782-1.410156 1.351563-1.152344.574219-2.507812.652343-3.769531.679687-5.617187.003906-11.238281-.003906-16.855469.003906-.015625-2.472656-.007812-4.941406-.003906-7.414062zm0 0"/><path d="m160.769531 84.246094c-.410156 0-.824219.007812-1.238281.023437h-18.570312c-.375 0-.75-.007812-1.121094.011719-.007813.105469-.011719.214844-.015625.324219 0 7.179687.003906 14.355469 0 21.53125.003906 1.746093-.007813 3.492187.007812 5.234375h4.636719c.039062-3.410156-.007812-6.828125.023438-10.242188 5.109374.011719 10.21875 0 15.324218.003906 1.234375.007813 2.496094-.042968 3.707032-.265624.160156-.027344.304687-.082032.441406-.171876.097656-.003906.195312 0 .289062 0 .015625-.035156.03125-.070312.046875-.105468.222657.011718.4375-.003906.648438-.082032.640625-.230468 1.261719-.480468 1.84375-.828124 1.265625-.742188 2.28125-1.890626 2.847656-3.246094.050781-.128906.0625-.261719.074219-.398438.027344-.011718.050781-.023437.074218-.035156.007813-.179688.023438-.269531.15625-.398438.085938.027344.15625.117188.21875.179688 1.425782 1.585938 2.867188 3.175781 4.296876 4.753906.105468.121094.140624.195313.136718.355469v9.148437c0 .445313-.011718.886719.011719 1.332032h4.660156c.023438-3.515625-.003906-7.039063.011719-10.554688-.003906-.121094.089844-.210937.15625-.300781 4.601562-5.082031 9.195312-10.167969 13.792969-15.253906.253906-.28125.507812-.570313.777343-.839844v-.101563c-.21875-.039062-.4375-.054687-.660156-.054687-1.617187.007813-3.238281 0-4.855468.003906-.300782-.035156-.453126.285157-.644532.46875-3.628906 4.007813-7.25 8.027344-10.886718 12.027344-2.5-2.726563-4.976563-5.476563-7.46875-8.210937-.4375-.460938-.742188-1.023438-1.171876-1.496094-.484374-.570313-1.113281-.96875-1.59375-1.546875-.386718-.398438-.726562-.867188-1.148437-1.222657-1.179687-.050781-2.382813.007813-3.570313-.03125-.410156-.011718-.824218-.015624-1.238281-.011718zm-.570312 4.257812c.851562-.011718 1.714843.089844 2.535156.332032.851563.265624 1.628906.734374 2.128906 1.496093.257813.367188.375.789063.578125 1.183594.003906.25.015625.5.050782.746094.09375.652343.015624 1.328125-.148438 1.960937-.210938.796875-.71875 1.492188-1.425781 1.914063-.304688.183593-.625.28125-.902344.484375-.066406-.003906-.136719-.003906-.203125-.007813-.015625.035157-.03125.074219-.042969.113281-.421875-.027343-.804687.078126-1.21875.121094-.417969.058594-.835937.058594-1.257812.054688-5.269531-.003906-10.539063.003906-15.808594-.003906-.003906-2.796876-.003906-5.59375 0-8.390626 5.238281-.007812 10.476563 0 15.714844-.003906zm0 0"/></svg>