<svg height="225" viewBox="0 0 200 225" width="200" xmlns="http://www.w3.org/2000/svg"><path d="m197.355469 168.75c1.570312-2.71875 2.542969-5.78125 2.542969-8.527344v-95.445312c0-2.75-.972657-5.808594-2.542969-8.527344l-97.355469 56.25zm0 0" fill="#00599c"/><path d="m108.652344 222.9375 82.59375-47.722656c2.378906-1.375 4.542968-3.746094 6.109375-6.464844l-97.355469-56.25-97.355469 56.25c1.566407 2.71875 3.730469 5.09375 6.109375 6.464844l82.59375 47.722656c4.757813 2.75 12.546875 2.75 17.304688 0zm0 0" fill="#004482"/><path d="m197.355469 56.25c-1.566407-2.71875-3.730469-5.09375-6.109375-6.46875l-82.59375-47.71875c-4.757813-2.75-12.546875-2.75-17.304688 0l-82.59375 47.71875c-4.757812 2.75-8.652344 9.5-8.652344 14.996094v95.445312c0 2.746094.972657 5.808594 2.542969 8.527344zm0 0" fill="#659ad2"/><g fill="#fff"><path d="m100 179.148438c-36.722656 0-66.597656-29.898438-66.597656-66.648438s29.875-66.648438 66.597656-66.648438c23.695312 0 45.796875 12.761719 57.675781 33.304688l-28.824219 16.691406c-5.945312-10.285156-17-16.671875-28.851562-16.671875-18.363281 0-33.300781 14.949219-33.300781 33.324219s14.9375 33.324219 33.300781 33.324219c11.851562 0 22.90625-6.386719 28.855469-16.671875l28.820312 16.691406c-11.878906 20.542969-33.976562 33.304688-57.675781 33.304688zm0 0"/><path d="m166.597656 108.796875h-7.398437v-7.40625h-7.398438v7.40625h-7.402343v7.40625h7.402343v7.40625h7.398438v-7.40625h7.398437zm0 0"/><path d="m194.347656 108.796875h-7.398437v-7.40625h-7.398438v7.40625h-7.402343v7.40625h7.402343v7.40625h7.398438v-7.40625h7.398437zm0 0"/></g></svg>