<svg height="200" viewBox="0 0 200 200" width="200" xmlns="http://www.w3.org/2000/svg"><g transform="translate(0 50)"><path d="m0 0h200v100h-200z" fill="#fff"/><path d="m98.109375 28.890625c1.484375 0 2.968755 0 4.445315.0039-.0937 8.9375.21094 17.898438-.19922 26.828125 3.98828-5.226562 8.91016-9.738281 13.32812-14.613281 1.80079 0 3.60157 0 5.39454-.0039-4.04297 4.253906-8.07813 8.523437-12.06641 12.828125 4.31641 5.707031 8.58203 11.457031 12.89844 17.167968-1.83203.0078-3.66407.01953-5.5 0-3.44922-4.839843-7.01172-9.601562-10.45313-14.445312-1.11719 1-2.24609 1.988281-3.38672 2.964844-.0352 3.828125-.008 7.65625-.0156 11.484375-1.47656.0039-2.96094.0039-4.445315.0039 0-14.070313 0-28.148437 0-42.21875zm0 0"/><path d="m85.738281 30.035156c.890625-.175781 1.777344.04687 2.527344.542969 1.117187 1.136719 1.132813 2.878906.496094 4.253906-.851563 1.472657-2.949219 1.75-4.15625.527344-1.3125-1.652344-1.089844-4.546875 1.132812-5.324219zm0 0"/><path d="m51.523438 31.667969c3.9375.0039 7.882812-.01953 11.828124.0039 3.75.25 7.921876.957031 10.648438 3.777344 2.484375 2.460937 2.917969 6.234375 2.589844 9.550781-.367188 3.949219-2.949219 7.328125-6.585938 8.871094-4.59375 2.058594-8.953125 1.664062-13.820312 1.683594 0 5.191406.0039 10.375 0 15.554687-1.554688 0-3.113282 0-4.660156 0-.0078-13.148437-.0078-26.292969 0-39.441406zm0 0"/><path d="m56.183594 35.554688c4.023437.113281 8.261718-.503907 12.027344 1.222656 5.285156 2.34375 4.945312 11.761718-.488282 13.722656-3.765625 1.550781-7.59375 1.105469-11.539062 1.167969 0-5.375 0-10.738281 0-16.113281zm0 0" fill="#fff"/><path d="m84.222656 41.109375c1.503906 0 3.011719 0 4.523438.0078-.0078 9.992187-.0078 19.992187 0 29.988281-1.511719.0039-3.019532.0039-4.523438.0039 0-10 0-20 0-30zm0 0"/><path d="m140.54297 41.160156c2.20703.277344 4.28515.738282 5.99609 2.25 1.95703 1.683594 2.60938 4.671875 2.61719 7.140625-.0156 6.855469 0 13.710938-.0117 20.558594-1.09375 0-2.1875-.0039-3.28516-.0078-.32421-1.445312-.66406-2.894531-.99218-4.347656-1.50782 1.730469-2.91016 3.324219-5.12891 4.144532-2.86719.957031-6.15625 1.117187-9.04297.15625-2.10156-.699219-3.85547-2.1875-4.69531-4.265626-1.23828-3.324218-.97266-7.574218 1.93359-9.972656 3.00391-2.542968 7.71485-3.207031 11.52344-3.226562 1.78125-.207032 3.52734-.34375 5.33203-.257813-.0273-2.148437.14063-4.105469-.98437-6.046875-.80469-1.375-2.41407-1.980468-3.91407-2.21875-3.49218-.417968-6.75.765625-9.86718 2.195313-.45703-1.179688-.92188-2.351563-1.38282-3.523438 3.70313-1.898437 7.71875-2.953125 11.90235-2.578125zm0 0"/><path d="m144.66797 56.65625c.0117 2.628906.19922 5.027344-1.17969 7.394531-1.68359 2.742188-4.85937 3.808594-7.94922 3.75-1.83984 0-3.93359-.621093-4.90625-2.3125-1.22265-2.5-.5664-5.871093 2.06641-7.183593 3.47265-1.714844 8.15234-1.414063 11.96875-1.648438zm0 0" fill="#fff"/></g></svg>