<svg height="200" viewBox="0 0 200 200" width="200" xmlns="http://www.w3.org/2000/svg" xmlns:xlink="http://www.w3.org/1999/xlink"><linearGradient id="a" gradientTransform="matrix(-1.885618 -1.885618 1.885618 -1.885618 3065.279948 1400.34668)" gradientUnits="userSpaceOnUse" x1="1131.099976" x2="1131.099976" y1="-516.47998" y2="-366.480011"><stop offset="0" stop-color="#c8511b"/><stop offset="1" stop-color="#f90"/></linearGradient><path d="m0 0h200v200h-200z" fill="url(#a)"/><g fill="#fff"><path d="m161.308594 108h-13.335938v-5.332031h13.335938v-64h-64v13.332031h-5.335938v-13.332031c0-2.945313 2.386719-5.335938 5.335938-5.335938h64c2.945312 0 5.332031 2.390625 5.332031 5.335938v64c0 2.945312-2.386719 5.332031-5.332031 5.332031zm0 0"/><path d="m102.640625 166.667969h-64c-2.945313 0-5.332031-2.390625-5.332031-5.335938v-64c0-2.945312 2.386718-5.332031 5.332031-5.332031h13.332031v5.332031h-13.332031v64h64v-13.332031h5.332031v13.332031c0 2.945313-2.386718 5.335938-5.332031 5.335938zm0 0"/><path d="m142.667969 76v-5.332031h-8c-.226563-2.847657-2.488281-5.109375-5.335938-5.335938v-8h-5.332031v8h-8v-8h-5.332031v8h-8v-8h-5.335938v8h-8v-8h-5.332031v8h-8v-8h-5.332031v8c-2.847657.226563-5.109375 2.488281-5.335938 5.335938h-8v5.332031h8v8h-8v5.332031h8v8h-8v5.335938h8v8h-8v5.332031h8v8h-8v5.332031h8c.226563 2.847657 2.488281 5.109375 5.335938 5.335938v8h5.332031v-8h8v8h5.332031v-8h8v8h5.335938v-8h8v8h5.332031v-8h8v8h5.332031v-8c2.847657-.226563 5.109375-2.488281 5.335938-5.335938h8v-5.332031h-8v-8h8v-5.332031h-8v-8h8v-5.335938h-8v-8h8v-5.332031h-8v-8zm-13.335938 52.851562c0 .265626-.214843.480469-.480469.480469h-57.703124c-.265626 0-.480469-.214843-.480469-.480469v-57.703124c0-.265626.214843-.480469.480469-.480469h57.703124c.265626 0 .480469.214843.480469.480469zm0 0"/></g></svg>