<svg height="200" viewBox="0 0 200 200" width="200" xmlns="http://www.w3.org/2000/svg" xmlns:xlink="http://www.w3.org/1999/xlink"><linearGradient id="a" gradientTransform="matrix(0 -2.666667 2.666667 0 -1282.666667 -1152)" gradientUnits="userSpaceOnUse" x1="-522.530029" x2="-416.470001" y1="465.470001" y2="571.530029"><stop offset="0" stop-color="#1b660f"/><stop offset="1" stop-color="#6cae3e"/></linearGradient><path d="m0 0h200v200h-200z" fill="url(#a)"/><path d="m163.8125 106.828125c-.773438-4.1875-5.519531-7.148437-8.773438-9.253906-1.039062-.667969-3.890624-1.734375-4.132812-2.667969-.015625-.667969.074219-1.332031.265625-1.972656l2.667969-19.171875c.773437-5.628907 1.519531-11.253907 2.292968-16.882813.695313-5.171875-1.785156-8.640625-6-11.546875-8.585937-5.945312-19.785156-8.34375-29.894531-10-12.671875-2.066406-25.5625-2.488281-38.34375-1.253906-11.5.84375-22.78125 3.546875-33.414062 8-5.707031 2.667969-13.171875 6.828125-12.242188 14.109375 2.667969 21.652344 5.816407 43.253906 8.722657 64.878906 1.332031 9.894532 2.664062 19.785156 4 29.679688.4375 3.921875 2.941406 7.308594 6.558593 8.878906 8.265625 4.480469 18.507813 5.761719 27.734375 6.613281 12.265625 1.109375 24.625.5625 36.746094-1.625 7.679688-1.414062 21.972656-3.734375 23.199219-13.332031 1.519531-11.894531 3.199219-23.789062 4.800781-35.65625l.585938-3.625c4.347656 1.039062 16.746093 3.253906 15.226562-5.171875zm-67.679688-68.160156c16 0 34.320313 1.8125 48.667969 9.707031 2.210938 1.226562 7.359375 3.972656 5.8125 7.226562-1.546875 3.25-6.347656 4.878907-9.28125 6.050782-4.1875 1.546875-8.496093 2.753906-12.878906 3.601562-19.035156 3.769532-38.585937 4.175782-57.761719 1.199219-8.65625-.894531-17.078125-3.359375-24.851562-7.28125-1.917969-1.09375-5.09375-3.066406-4.214844-5.679687.699219-1.402344 1.792969-2.570313 3.148438-3.359376 5.855468-3.765624 12.371093-6.398437 19.199218-7.757812 10.53125-2.53125 21.332032-3.773438 32.160156-3.707031zm41.8125 112.398437c-.398437 3.121094-5.546874 4.667969-8 5.546875-5.09375 1.703125-10.347656 2.882813-15.679687 3.519531-11.832031 1.574219-23.820313 1.574219-35.652344 0-7.410156-.574218-14.648437-2.539062-21.332031-5.785156-1.855469-.808594-3.097656-2.59375-3.203125-4.613281-2.664063-21.148437-5.703125-42.292969-8.558594-63.441406l-3.09375-22.933594c6.0625 3.347656 12.644531 5.65625 19.46875 6.828125 7.308594 1.488281 14.714844 2.457031 22.160157 2.90625 14.613281 1.046875 29.296874.230469 43.707031-2.425781 7.675781-1.105469 15.089843-3.582031 21.890625-7.308594l-5.652344 41.867187c-13.511719-4.453124-26.714844-9.796874-39.519531-16-.5625-.214843-1.105469-.472656-1.628907-.773437-.71875-.53125-.53125-.265625-.878906-1.09375-.664062-1.519531-.824218-2.667969-2.238281-3.917969-2.101563-1.683594-5.058594-1.761718-7.246094-.195312s-3.0625 4.394531-2.144531 6.921875c.914062 2.527343 3.402344 4.136719 6.082031 3.9375.921875-.152344 1.816407-.421875 2.667969-.796875 1.039062-.320313 1.039062-.269532 2.132812.238281 12.96875 6.324219 26.328126 11.808594 40 16.425781 2.054688.667969 2.027344 0 2.027344 1.707032-.085937 1.296874-.257812 2.589843-.507812 3.867187l-1.707032 12.71875zm-41.144531-63.066406c0 .71875-1.015625.640625-1.28125.1875s1.28125-1.199219 1.28125-.1875zm52.53125 18.667969.800781-5.894531c2.667969 1.519531 7.199219 3.8125 8.402344 6.851562-2.613281 1.066406-6.75-.34375-9.203125-.957031zm0 0" fill="#fff"/></svg>