<svg height="200" viewBox="0 0 200 200" width="200" xmlns="http://www.w3.org/2000/svg"><g transform="matrix(.91525424 0 0 .91525424 8.474576 8.474576)"><path d="m28.273438 143.51562 8.132812-18.48828 17.980469-5.5039 13.375-62.914065 32.367191 36.628906 31.625-36.023437 14.78125 53.011716 9.71875-2.27343 19.80859-39.800786 14.31641-10.984375c-16.04297-33.796875-50.48047-57.167969-90.37891-57.167969-55.226562 0-100 44.773438-100 100 0 16.41016 3.953125 31.89844 10.960938 45.5625zm0 0" fill="#19a69c"/><path d="m185.44531 75.878906-21.07031 42.335934-26.19531 6.13282-11.95703-42.87891-26.06641 29.6875-25.699219-29.082031-9.933593 46.730471-19.460938 5.95703-8.675781 19.71875-18.761719 2.22265c18.039062 26.15235 48.203125 43.29688 82.375 43.29688 55.22656 0 100-44.77344 100-100 0-10.976562-1.77344-21.535156-5.04297-31.417969zm0 0" fill="#0f7870"/></g></svg>