<svg height="200" viewBox="0 0 200 200" width="200" xmlns="http://www.w3.org/2000/svg" xmlns:xlink="http://www.w3.org/1999/xlink"><radialGradient id="a" cx="61.297768" cy="60.910988" gradientTransform="matrix(1 0 0 .945104 -2.5 4.772318)" gradientUnits="userSpaceOnUse" r="44.688255"><stop offset="0" stop-color="#575757"/><stop offset="1" stop-color="#2f2f2f"/></radialGradient><path d="m102.956628 20.105449s-17.24414 8.242187-31.283203 10.060547c-14.039062 1.820312-40.8125 3.640625-46.126953 2.355468-5.316406-1.283203-9.130859-2.783203-9.130859-2.783203l1.105468 3.746094-3.412109 2.996094.605469 1.070312 1.404297.105469 4.308593.535156.605469 1.925781 2.404297.216797 1.205078 4.066407s5.113281.427734 6.617188.427734c1.503906 0 4.511718-.210938 4.511718-.210938l.09961 1.603516 1.105469.210938v1.820312l-2.410157 2.144531.605469.105469v.746094s-5.416016.433594-7.623047.111328c-2.205078-.320313-2.607422-.322266-2.607422-.322266l-.199218.210938-.09961.964844h.501953l.199219 4.175781 11.132813-.429688-.802735 14.451172-.099609 1.814453-9.427735-.535156-.099609-3.851562h2.103516l.203125-1.498047 1.904297-.429688.302734-.423828-7.123047-1.714844-5.414062 1.603516.902343.751953h.902344l.099609 1.287109 1.904297.105469v3.748047l-2.103515.533203.402343.853516.5.322265v2.890625h1.304688v13.375l-2.107422.322266.302734 3.853516 1.298829.216797-.197266 8.77539 5.716797.107422-1.205078-8.669922 8.625-.21289-.59961 4.705078-.804687 3.320312 8.724609.105469.09961-8.558594 6.015625-.535156-.298829 5.457031-.203125 3.207031h5.117188l-.203125-8.77539.705078.111328.199219-4.175781h-.804688l-.296875-1.714844-.501953-4.923828.199219-5.667969h1.101562v-3.423828l-1.404296.105469.203125-4.041016 1.630859-.160156.076172-1.3125.925781-.134766.949219-.722656-5.712891-1.173828-5.666015 1.255859.552734.90625.599609-.048828.699219-.025391.128906 1.654297 1.578125-.076172.027344 3.580079-6.794922-.15625.226563-3.828125.222656-3.478516v-4.576172l.203125-4.816406 13.609375-.695313 16.195312-.933593.150391 3.076171-.576172 7.384766-.25 6.875-5.96289-.107422-.029297-4.816406 2.207031-.080078.099609-1.361328.902344-.136719-.046875-.267578.902344-.050781.5-.669922-6.742188-1.578125-6.720703 1.441406.476563.832031.751953-.054687v.378906h.925781v1.521484l1.980469.025391-.023438 4.226562h-2.003906l-.027344.962891.703125.082031-.076172 3.666016 1.480469.080078-.175781 14.53125-1.955078.398438.023437.695312h.679688v3.722656h1.125l-.298828 5.083985-.376953 4.439453 7.121093.185547-.226562-3.853516-.525391-3.207031-.103515-2.783203 6.044921-.107422-.175781 4.308594-.027344 4.548828 3.41211.267578 4.634765-.1875 1.455079-.427735-.802735-2.4375-.197265-3.828125-.378907-2.728515 5.765625-.210938-.25 3.34375-.02539 5.246094 2.30664.210938 2.283203-.050782 1.101563-.347656-.652344-4.978516-.222656-3.746093.978516-.107422.023437-3.34375.273438-.054688-.046875-.720703h-1.128907l-.226562-2.460937-.09961-10.677735.84961-.02539v-3.50586l.355469.056641v-.697266l-1.257813-.111328.029297-4.064453 2.101562-.1875-.121093-1.365234.925781-.082032-.052734-.267578 1.228515-.615234-6.242187-1.255859-6.341797 1.287109.402344.746094.976562-.080078.052734.322265h.828125l.046875 1.603516 2.054688-.025391.175781 3.935547-7.269531-.056641-.849609-5.910156-.679688-3.132812-.548828-5.619141.326172-3.287109 14.488281-1.09961.046875-4.898437.728516-.185547-.046875-.746094-.552735-.324219s-7.923828 1.175782-10.429687 1.44336c-.707031.074219-.652344.070312-1.228516.130859l-.076172-.908203-2.996093-1.568359.037109-1.826172 1.03125-.029297.074219-2.511719s6.140625-.404297 8.421875-.939453 5.515625-1.068359 5.515625-1.068359l1.53125-4.146485 3.033203-.882812.25-.695313 6.867187-1.90039.779297-.640625-2.609375-5.699219.251953-1.287109 1.328125-.695313.953125-2.916016zm-32.990234 21.726562-.037109 2.072266 1.554687.066406-.099609 1.966797-3.048828 1.998047-.1875.574219 1.228515.009765-.009765.484375-9.314454.455078.060547-1.376953.425782-.6875.029296-.4375.009766-.949219.263672-.628906.099609-.509765v-.363282l.402344-1.603515zm-19.478516 1.765625-.226562 1.392578.726562.857422-.046875 1.498047.675782 1.042969-.173829 1.230469.5.722656-9.503906.373047-.023437-.31836 1.101562-.136718.052735-.402344-2.40625-1.306641-.126954-2.08789 1.152344-.056641.09961-2.248047zm14.0625 32.107422 5.765625.373047-.197265 7.761719.75 6.365234-6.115235-.210937zm-38.607422.322266 9.228516.480468-.802734 5.34961v4.5l.652343 2.511719-9.027343.427734zm59.066407.050781v13.275391l-5.865235.427734-.203125-7.009766-.652343-6.53125zm-44.421875.296875 6.818359.025391.072266 12.30664-6.365235.111328-.326172-3.990234-.02539-3.958984zm0 0" fill="url(#a)" fill-rule="evenodd" stroke="#323232" transform="matrix(2 0 0 2 -15.948413 -23.320272)"/></svg>