<?xml version="1.0" encoding="utf-8"?>
<!-- Svg Vector Icons : http://www.onlinewebfonts.com/icon -->
<!DOCTYPE svg PUBLIC "-//W3C//DTD SVG 1.1//EN" "http://www.w3.org/Graphics/SVG/1.1/DTD/svg11.dtd">
<svg version="1.1" xmlns="http://www.w3.org/2000/svg" xmlns:xlink="http://www.w3.org/1999/xlink" x="0px" y="0px" viewBox="0 0 1000 1000" enable-background="new 0 0 1000 1000" xml:space="preserve">
<metadata> Svg Vector Icons : http://www.onlinewebfonts.com/icon </metadata>
<g><path d="M438.9,408.1c270.7,0,459.5-68.6,459.5-153.2V163c0-84.6-188.8-153.2-459.5-153.2C168.2,9.9,10,78.5,10,163v91.9C10,339.5,168.2,408.1,438.9,408.1z"/><path d="M383.3,774.6c-185.9-6.9-294.5-49.3-351.6-106.1C17.1,683,10,698.4,10,714.5V837c0,84.6,158.2,153.1,428.9,153.1c27.1,0,53.5-0.8,79.4-2.2C448.7,938,399.1,862.3,383.3,774.6z"/><path d="M377.7,713.1c0.3-81,29.1-155.2,77.1-213.2c-5.8,0-11.4,0.1-17.4,0.1c-219.5,0-343.2-45.1-405.6-107.2c-14.6,14.5-21.7,30-21.7,46v122.5C10,639.2,144.6,703.5,377.7,713.1z"/><path d="M444.8,657.2c26.2-23.4,66.8-46.5,125-46.5c82.1,0,121.5,43.8,156.3,82.5c32,35.6,59.6,66.4,118.3,66.4c78.9,0,135.1-47.7,145.6-57.3c-6.4-146.6-127.2-263.6-275.4-263.6C581.9,438.7,471.2,532.4,444.8,657.2z"/><path d="M697.1,719.4c-33.5-37.3-62.5-69.6-127.2-69.6c-91.7,0-128.4,72.5-128.7,73.2l-2.1-1c4,148.8,125.9,268.1,275.6,268.1c139,0,254-102.9,273-236.7c-30.2,20.2-80.3,45.2-143.2,45.2C768.3,798.7,730.5,756.5,697.1,719.4z"/></g>
</svg>