<svg height="200" viewBox="0 0 200 200" width="200" xmlns="http://www.w3.org/2000/svg" xmlns:xlink="http://www.w3.org/1999/xlink"><clipPath id="a"><path d="m200 100c0 55.226562-44.773438 100-100 100s-100-44.773438-100-100 44.773438-100 100-100 100 44.773438 100 100zm0 0"/></clipPath><clipPath id="b"><path d="m56 51h88v98h-88zm0 0"/></clipPath><clipPath id="c"><path d="m200 100c0 55.226562-44.773438 100-100 100s-100-44.773438-100-100 44.773438-100 100-100 100 44.773438 100 100zm0 0"/></clipPath><g clip-path="url(#a)"><path d="m0 0h200v200h-200z" fill="#ffca28"/></g><g clip-path="url(#b)"><g clip-path="url(#c)"><path d="m100 104.863281-43.75 19.441407v-19.441407l43.75-19.445312 43.75 19.445312v17.011719-3.644531 6.074219zm0-53.476562 43.75 19.445312v19.445313l-43.75-19.445313-43.75 19.445313v-19.445313zm16.40625 70.488281 21.875 9.722656-38.28125 17.015625v-19.445312zm0 0" fill="#fff" fill-rule="evenodd"/></g></g></svg>