<svg height="200" viewBox="0 0 200 200" width="200" xmlns="http://www.w3.org/2000/svg" xmlns:xlink="http://www.w3.org/1999/xlink"><filter id="a" height="1" width="1" x="0" y="0"><feColorMatrix in="SourceGraphic" type="matrix" values="0 0 0 0 1 0 0 0 0 1 0 0 0 0 1 0 0 0 1 0"/></filter><mask id="b"><g filter="url(#a)"><path d="m0 0h200v131h-200z" fill-opacity=".713656"/></g></mask><clipPath id="c"><path d="m0 0h200v131h-200z"/></clipPath><mask id="d"><g filter="url(#a)"><path d="m0 0h200v131h-200z" fill-opacity=".33"/></g></mask><clipPath id="e"><path d="m0 0h200v131h-200z"/></clipPath><mask id="f"><g filter="url(#a)"><path d="m0 0h200v131h-200z" fill-opacity=".485714"/></g></mask><clipPath id="g"><path d="m0 0h200v131h-200z"/></clipPath><g transform="matrix(.93640815 0 0 .93640815 6.359185 48.381404)"><path d="m.300781 14.359375 99.691407 116.640625 99.707032-116.640625h-43.23828l-3.9375 2.980469h-32.39063v1.878906h-40.281248v-1.878906h-30.578124l-4.148438-2.980469zm0 0"/><path d="m30.164062 21.171875h139.667968l-69.83203 83.234375zm0 0" fill="#dedede"/><path d="m29.601562 0v36.996094l42.929688-9.25 27.464844-5.914063 27.468746 5.914063 42.92969 9.25v-36.996094l-42.92969 9.253906-27.468746 5.914063-27.464844-5.914063zm0 0"/><g clip-path="url(#c)" height="100%" mask="url(#b)" width="100%"><path d="m100.08984 104.40625-45.042965-53.484375 44.921875-28.894531zm0 0" fill="#fff"/></g><g clip-path="url(#e)" height="100%" mask="url(#d)" width="100%"><path d="m100.03906 21.804688-27.468748 5.914062-31.414062 6.71875 2.113281 2.519531c20.273438-5.152343 56.769529-14.191406 56.769529-14.191406l55.29297 16.003906 3.38672-4.269531-31.23047-6.78125zm0 0"/></g><path d="m133.11328 51.75 9.63672 29.371094 25.10937-29.371094zm0 0" fill="#f00"/><g clip-path="url(#g)" height="100%" mask="url(#f)" width="100%"><path d="m133.11328 51.472656 16.41797 21.664063-6.78906 8.003906zm0 0" fill-opacity=".396135"/></g></g></svg>