<svg height="200" viewBox="0 0 200 200" width="200" xmlns="http://www.w3.org/2000/svg"><path d="m0 0h200v200h-200z" fill="#fff"/><g fill="#501f77"><path d="m45.980469 18.6875c9.15625-1.960938 19.136719-.902344 28.46875-.941406.179687 6.882812.140625 13.785156-.078125 20.664062-4.78125.296875-10.078125.101563-14.664063 1.570313-2.902343 1.449219-4.238281 4.175781-4.53125 7.292969-1.214843 13.136718 1.078125 27.097656-1.371093 40.078124-1.648438 7.53125-7.472657 10.609376-13.550782 14.238282 5.609375 3.390625 11.453125 6.3125 13.375 13.117187 3.136719 14-.355468 29.3125 2.019532 43.390625 1.902343 7.371094 13 5.765625 18.761718 6.746094.179688 6.746094.199219 13.46875.058594 20.214844-8.429688.214844-17.117188.824218-25.507812-.214844-10.726563-1.214844-20-11.175781-20.429688-21.960938-.726562-13.3125.722656-26.84375-.511719-40.117187-.902343-8.785156-9.195312-11.097656-16.175781-13.824219-.058594-4.707031-.097656-9.429687-.175781-14.136718 4.292969-2.097657 9.507812-4.117188 12.941406-7.511719 3.214844-3.546875 3.605469-8.46875 3.820313-13.019531.296874-11.078126-.332032-22.175782.039062-33.234376-.058594-10.195312 7.785156-19.785156 17.511719-22.351562zm0 0"/><path d="m129.117188 17.785156c8.453124-.097656 17.15625-.726562 25.570312.351563 9.703125 1.15625 18.253906 9.667969 19.902344 19.234375 1.566406 14.492187-1.019532 29.609375 1.234375 44 1.902343 8.550781 9.566406 10.160156 16.46875 13.453125-.136719 4.6875-.15625 9.390625-.214844 14.078125-6.980469 2.390625-15.273437 4.707031-16.566406 13.214844-1.550781 14.058593.390625 28.492187-.824219 42.609374-1.117188 9.941407-9.921875 18.585938-19.746094 20-8.492187 1.214844-17.351562.546876-25.882812.332032-.253906-6.707032-.234375-13.390625.097656-20.097656 5.804688-1.117188 17 .527343 18.6875-7.097657 2.117188-13.648437-.804688-28.117187 1.546875-41.785156 1.453125-7.234375 7.589844-10.628906 13.160156-14.507813-5.628906-3.746093-11.21875-6.785156-12.902343-13.921874-2.902344-14.019532.585937-29.179688-1.980469-43.160157-2-7.078125-12.824219-5.3125-18.433594-6.136719-.449219-6.863281-.449219-13.722656-.117187-20.566406zm0 0"/></g></svg>