<?xml version="1.0" encoding="UTF-8"?>
<svg width="32px" height="32px" viewBox="0 0 32 32" version="1.1" xmlns="http://www.w3.org/2000/svg" xmlns:xlink="http://www.w3.org/1999/xlink">
    <title>Azure / Application Gateway</title>
    <defs>
        <linearGradient x1="-8.64651423%" y1="108.71066%" x2="104.204293%" y2="-4.14014647%" id="linearGradient-1">
            <stop stop-color="#5E9624" offset="0%"></stop>
            <stop stop-color="#6DAD2A" offset="55%"></stop>
            <stop stop-color="#76BC2D" offset="100%"></stop>
        </linearGradient>
        <linearGradient x1="50.5747126%" y1="101.149425%" x2="50%" y2="28.7356322%" id="linearGradient-2">
            <stop stop-color="#CCCCCC" offset="0%"></stop>
            <stop stop-color="#D7D7D7" offset="12%"></stop>
            <stop stop-color="#EBEBEB" offset="42%"></stop>
            <stop stop-color="#F8F8F8" offset="72%"></stop>
            <stop stop-color="#FCFCFC" offset="100%"></stop>
        </linearGradient>
        <linearGradient x1="50%" y1="100%" x2="50%" y2="0%" id="linearGradient-3">
            <stop stop-color="#CCCCCC" offset="0%"></stop>
            <stop stop-color="#D7D7D7" offset="12%"></stop>
            <stop stop-color="#EBEBEB" offset="42%"></stop>
            <stop stop-color="#F8F8F8" offset="72%"></stop>
            <stop stop-color="#FCFCFC" offset="100%"></stop>
        </linearGradient>
    </defs>
    <g id="Azure-/-Application-Gateway" stroke="none" stroke-width="1" fill="none" fill-rule="evenodd">
        <g id="10076-icon-service-Application-Gateways" transform="translate(3.500000, 4.000000)" fill-rule="nonzero">
            <rect id="Rectangle" fill="url(#linearGradient-1)" transform="translate(12.587191, 12.600000) rotate(-45.000000) translate(-12.587191, -12.600000) " x="3.94219139" y="3.955" width="17.29" height="17.29" rx="0.798"></rect>
            <g id="Group" transform="translate(5.600000, 6.600000)" fill="#FFFFFF">
                <path d="M9.646,8.114 L13.622,8.114 C13.7015416,8.10673957 13.7623307,8.03987156 13.762,7.96 L13.762,3.998 C13.7688287,3.93505781 13.7325658,3.87536624 13.6735592,3.85241921 C13.6145526,3.82947219 13.5474894,3.84898144 13.51,3.9 L12.418,4.992 L12.418,5.062 C12.3635619,5.11536 12.2764381,5.11536 12.222,5.062 L7.364,0.274 C7.30956191,0.220639997 7.22243809,0.220639997 7.168,0.274 L5.936,1.506 C5.88087245,1.56514626 5.88087245,1.65685374 5.936,1.716 L10.71,6.49 C10.7651275,6.54914626 10.7651275,6.64085374 10.71,6.7 L10.64,6.77 L9.548,7.862 C9.51167448,7.90508244 9.50178136,7.96456538 9.52220623,8.01708647 C9.5426311,8.06960756 9.59011182,8.10677844 9.646,8.114 L9.646,8.114 Z" id="Path"></path>
                <path d="M4.088,8.114 L0.112,8.114 C0.0436005488,8.09466518 -0.00268022254,8.03102912 -2.03392939e-14,7.96 L-2.03392939e-14,3.998 C0.000786808791,3.94198948 0.034884402,3.89183962 0.086681216,3.87051152 C0.13847803,3.84918342 0.198001957,3.86078324 0.238,3.9 L1.344,4.992 L1.344,5.062 C1.39843809,5.11536 1.48556191,5.11536 1.54,5.062 L6.37,0.274 C6.42443809,0.220639997 6.51156191,0.220639997 6.566,0.274 L7.798,1.506 C7.85312755,1.56514626 7.85312755,1.65685374 7.798,1.716 L3.024,6.49 C2.96887245,6.54914626 2.96887245,6.64085374 3.024,6.7 L3.024,6.77 L4.116,7.862 C4.15425216,7.89517256 4.17375429,7.94502865 4.16816287,7.99535143 C4.16257145,8.04567421 4.13260096,8.09003335 4.088,8.114 L4.088,8.114 Z" id="Path"></path>
                <path d="M3.948,11.698 L6.748,14.498 C6.80243809,14.55136 6.88956191,14.55136 6.944,14.498 L9.744,11.698 C9.78321676,11.658002 9.79481658,11.598478 9.77348848,11.5466812 C9.75216038,11.4948844 9.70201052,11.4607868 9.646,11.46 L8.008,11.46 C7.9335433,11.4534895 7.87451052,11.3944567 7.868,11.32 L7.868,4.6 C7.87196938,4.5605102 7.85899111,4.52119137 7.83229355,4.49182405 C7.80559598,4.46245672 7.76768829,4.44580101 7.728,4.44599824 L5.992,4.44599824 C5.95115666,4.44599824 5.91198616,4.46222495 5.88310556,4.49110556 C5.85422495,4.51998616 5.838,4.55915666 5.838,4.6 L5.838,11.32 C5.838,11.3973199 5.77531986,11.46 5.698,11.46 L4.046,11.46 C3.98998948,11.4607868 3.93983962,11.4948844 3.91851152,11.5466812 C3.89718342,11.598478 3.90878324,11.658002 3.948,11.698 Z" id="Path"></path>
            </g>
            <path d="M14.91,10.892 C13.2523364,12.0877997 10.9453233,11.7554889 9.69254221,10.1404579 C8.43976115,8.52542692 8.69155938,6.20824376 10.262,4.9 L10.262,4.9 C11.9272147,3.7434775 14.207453,4.10053521 15.4394343,5.71072354 C16.6714156,7.32091188 16.4197453,9.61517399 14.868,10.92" id="ac0a9c0c-2e8c-4843-b02b-2fadf76b27d0" fill="#0078D4"></path>
            <circle id="Oval" fill="url(#linearGradient-2)" cx="10.542" cy="7.77" r="1.218"></circle>
            <g id="Group" transform="translate(8.400000, 5.200000)" fill="#F2F2F2" opacity="0.55">
                <path d="M0.938,4.6 L1.204,5.02 L1.4,5.3 C1.50842541,4.77246431 1.66784073,4.25670886 1.876,3.76 C1.63821102,3.71902097 1.41849761,3.60672301 1.246,3.438 C1.11863018,3.81836036 1.01575292,4.20648817 0.938,4.6 L0.938,4.6 Z" id="Path"></path>
                <path d="M1.736,1.422 C1.57211198,1.00307067 1.45929892,0.565920069 1.4,0.12 C1.21702505,0.31558857 1.05729618,0.531692337 0.924,0.764 C0.979231601,1.11851987 1.07312471,1.46592437 1.204,1.8 C1.3490794,1.63384986 1.531365,1.50433115 1.736,1.422 Z" id="Path"></path>
                <path d="M3.038,3.396 C2.85885314,3.58628703 2.62325084,3.71390494 2.366,3.76 C2.56765359,3.96545179 2.78279866,4.15721153 3.01,4.334 C3.29599815,4.54344527 3.60060798,4.72621117 3.92,4.88 L3.92,4.782 C3.92615257,4.56316796 4.02862591,4.35822128 4.2,4.222 C3.77548484,4.00311677 3.38423819,3.72500168 3.038,3.396 L3.038,3.396 Z" id="Path"></path>
                <path d="M6.706,4.88 C6.29619224,4.87652563 5.88790867,4.82959649 5.488,4.74 L5.488,4.74 C5.48881114,4.94452653 5.4082179,5.14097256 5.264,5.286 C5.76017859,5.3945719 6.26923978,5.43228014 6.776,5.398 C6.96703534,5.21897957 7.14049329,5.02208136 7.294,4.81 L6.706,4.88 Z" id="Path"></path>
            </g>
            <circle id="Oval" fill="url(#linearGradient-3)" cx="13.104" cy="9.982" r="1"></circle>
            <circle id="Oval" fill="#F2F2F2" cx="14.896" cy="8.036" r="1"></circle>
            <g id="Group" transform="translate(10.800000, 4.200000)" fill="#F2F2F2" opacity="0.55">
                <path d="M2.094,1.988 C2.91541556,1.59501239 3.81543638,1.39394391 4.726,1.4 C4.53849955,1.15909277 4.31682798,0.946854036 4.068,0.77 C3.3497876,0.813017855 2.64425132,0.978747853 1.982,1.26 C1.842,1.26 1.716,1.414 1.576,1.484 L1.576,1.484 C1.24091651,1.07929658 0.945555238,0.643287079 0.694,0.182 L0.218,0.364 C0.468205184,0.863125077 0.773434723,1.33270898 1.128,1.764 C0.787829049,1.98520097 0.473239479,2.24344614 0.19,2.534 C0.438734393,2.62731074 0.650140666,2.79938561 0.792,3.024 C1.04915268,2.76708644 1.33581392,2.54151694 1.646,2.352 C2.15175752,2.86379276 2.69969124,3.33211219 3.284,3.752 C3.32376055,3.57520708 3.42250818,3.41721087 3.564,3.304 C3.03816907,2.90708147 2.54645535,2.46688061 2.094,1.988 L2.094,1.988 Z" id="Path"></path>
                <path d="M5.37,4.326 L5.37,4.326 L5.23,4.326 L5.23,4.326 L5.118,4.326 L5.118,4.326 L4.978,4.242 C4.9291192,4.40701534 4.83152155,4.55341182 4.698,4.662 L4.866,4.76 L4.866,4.76 L5.02,4.844 L5.02,4.844 L5.412,5.04 L5.412,5.04 C5.46222239,4.87889204 5.50427595,4.71535039 5.538,4.55 L5.37,4.326 Z" id="Path"></path>
            </g>
            <circle id="Oval" fill="#F2F2F2" cx="10.542" cy="7.77" r="1.218"></circle>
            <circle id="Oval" fill="#F2F2F2" cx="13.104" cy="9.982" r="1"></circle>
        </g>
    </g>
</svg>