<svg height="200" viewBox="0 0 200 200" width="200" xmlns="http://www.w3.org/2000/svg" xmlns:xlink="http://www.w3.org/1999/xlink"><clipPath id="a"><path d="m200 100c0 55.226562-44.773438 100-100 100s-100-44.773438-100-100 44.773438-100 100-100 100 44.773438 100 100zm0 0"/></clipPath><clipPath id="b"><path d="m56 56h88v88h-88zm0 0"/></clipPath><clipPath id="c"><path d="m200 100c0 55.226562-44.773438 100-100 100s-100-44.773438-100-100 44.773438-100 100-100 100 44.773438 100 100zm0 0"/></clipPath><g clip-path="url(#a)"><path d="m0 0h200v200h-200z" fill="#ffca28"/></g><g clip-path="url(#b)"><g clip-path="url(#c)"><path d="m56.25 114.582031h87.5v19.457031c0 5.363282-4.339844 9.710938-9.699219 9.710938h-68.101562c-5.359375 0-9.699219-4.363281-9.699219-9.710938zm0-48.648437c0-5.347656 4.339844-9.683594 9.699219-9.683594h68.101562c5.359375 0 9.699219 4.375 9.699219 9.683594v34.105468c0 5.347657-4.339844 9.683594-9.699219 9.683594h-68.101562c-5.359375 0-9.699219-4.375-9.699219-9.683594zm9.722656.039062h68.054688v14.582032h-68.054688zm0 26.757813c0-1.359375 1.039063-2.453125 2.453125-2.453125h4.8125c1.363281 0 2.457031 1.039062 2.457031 2.453125v4.8125c0 1.363281-1.042968 2.457031-2.457031 2.457031h-4.8125c-1.359375 0-2.453125-1.039062-2.453125-2.457031zm0 34.03125c0-1.363281 1.039063-2.457031 2.453125-2.457031h4.8125c1.363281 0 2.457031 1.042968 2.457031 2.457031v4.8125c0 1.359375-1.042968 2.453125-2.457031 2.453125h-4.8125c-1.359375 0-2.453125-1.039063-2.453125-2.453125zm0 0" fill="#fff" fill-rule="evenodd"/></g></g></svg>