<svg height="200" viewBox="0 0 200 200" width="200" xmlns="http://www.w3.org/2000/svg"><g fill="#1b4171"><path d="m24.394531 84.910156-3.117187 7.089844h-5.617188l13.726563-31.160156h5.617187l13.730469 31.160156h-5.617187l-3.121094-7.089844zm13.460938-4.855468-5.660157-12.839844-5.660156 12.839844zm0 0"/><path d="m65.054688 67.929688c3.179687 0 5.898437 1.097656 8.160156 3.296874 2.257812 2.199219 3.386718 5.125 3.386718 8.78125s-1.128906 6.628907-3.386718 8.914063c-2.230469 2.289063-4.84375 3.433594-7.847656 3.433594-2.972657 0-5.644532-1.308594-8.023438-3.921875v12.210937h-4.992188v-32.359375h4.992188v4.144532c1.960938-3 4.53125-4.5 7.710938-4.5zm-7.800782 12.257812c0 2.257812.683594 4.113281 2.050782 5.570312 1.367187 1.425782 3.03125 2.140626 4.992187 2.140626s3.671875-.714844 5.128906-2.140626c1.453125-1.425781 2.183594-3.269531 2.183594-5.527343 0-2.289063-.714844-4.175781-2.140625-5.660157-1.425781-1.515624-3.136719-2.273437-5.125-2.273437-1.992188 0-3.671875.757813-5.039062 2.273437-1.367188 1.484376-2.050782 3.359376-2.050782 5.617188zm0 0"/><path d="m101.511719 92h-4.546875v-3.164062c-1.960938 2.34375-4.589844 3.519531-7.890625 3.519531-2.464844 0-4.515625-.699219-6.148438-2.09375-1.605469-1.398438-2.40625-3.253907-2.40625-5.574219 0-2.347656.859375-4.101562 2.582031-5.257812 1.726563-1.160157 4.058594-1.738282 7-1.738282h6.464844v-.890625c0-3.152343-1.753906-4.726562-5.261718-4.726562-2.199219 0-4.488282.800781-6.863282 2.40625l-2.230468-3.121094c2.882812-2.285156 6.152343-3.429687 9.808593-3.429687 2.792969 0 5.066407.710937 6.816407 2.136718 1.785156 1.398438 2.675781 3.613282 2.675781 6.644532zm-4.992188-8.828125v-2.003906h-5.617187c-3.59375 0-5.390625 1.128906-5.390625 3.386719 0 1.160156.445312 2.050781 1.335937 2.675781.890625.59375 2.125.890625 3.699219.890625 1.605469 0 3-.445313 4.191406-1.335938 1.1875-.894531 1.78125-2.097656 1.78125-3.613281zm0 0"/><path d="m119.023438 92.355469c-3.296876 0-6.132813-1.113281-8.511719-3.34375-2.378907-2.257813-3.566407-5.199219-3.566407-8.824219s1.234376-6.566406 3.699219-8.828125c2.496094-2.285156 5.527344-3.429687 9.09375-3.429687 3.566407 0 6.582031 1.230468 9.046875 3.699218l-2.941406 3.609375c-2.050781-1.78125-4.113281-2.675781-6.195312-2.675781-2.078126 0-3.890626.699219-5.4375 2.097656-1.515626 1.367188-2.273438 3.148438-2.273438 5.347656 0 2.167969.757812 4.011719 2.273438 5.527344 1.515624 1.515625 3.371093 2.273438 5.570312 2.273438 2.230469 0 4.324219-1.011719 6.285156-3.03125l2.945313 3.210937c-2.882813 2.910157-6.210938 4.367188-9.988281 4.367188zm0 0"/><path d="m139.179688 79.160156v12.839844h-4.992188v-33.03125h4.992188v13.640625c.714843-1.457031 1.785156-2.601563 3.210937-3.433594 1.457031-.832031 3.015625-1.246093 4.679687-1.246093 2.675782 0 4.828126.816406 6.464844 2.449218 1.664063 1.636719 2.496094 4 2.496094 7.089844v14.53125h-4.992188v-13.015625c0-4.371094-1.8125-6.554687-5.441406-6.554687-1.722656 0-3.222656.582031-4.5 1.738281-1.277344 1.128906-1.917968 2.792969-1.917968 4.992187zm0 0"/><path d="m185.070312 82.324219h-18.589843c.121093 1.726562.90625 3.121093 2.363281 4.191406 1.457031 1.039063 3.121094 1.5625 4.992188 1.5625 2.972656 0 5.230468-.9375 6.777343-2.808594l2.851563 3.117188c-2.554688 2.644531-5.882813 3.96875-9.984375 3.96875-3.328125 0-6.167969-1.097657-8.515625-3.296875-2.316406-2.230469-3.476563-5.203125-3.476563-8.917969 0-3.742187 1.191407-6.714844 3.566407-8.914063 2.378906-2.199218 5.171874-3.296874 8.378906-3.296874 3.242187 0 5.988281.980468 8.246094 2.941406 2.261718 1.929687 3.390624 4.605468 3.390624 8.023437zm-18.589843-3.921875h13.597656c0-1.988282-.625-3.519532-1.875-4.589844-1.246094-1.070312-2.792969-1.605469-4.632813-1.605469-1.8125 0-3.449218.566407-4.90625 1.695313-1.453124 1.097656-2.183593 2.597656-2.183593 4.5zm0 0"/><path d="m70.226562 138.527344c1.8125 0 3.371094-.296875 4.679688-.894532 1.308594-.621093 2.675781-1.601562 4.101562-2.941406l3.386719 3.476563c-3.296875 3.65625-7.308593 5.484375-12.035156 5.484375-4.695313 0-8.601563-1.515625-11.722656-4.546875-3.089844-3.03125-4.636719-6.863281-4.636719-11.5s1.574219-8.5 4.726562-11.589844c3.179688-3.089844 7.175782-4.636719 11.988282-4.636719 4.84375 0 8.886718 1.785156 12.125 5.351563l-3.34375 3.652343c-1.484375-1.425781-2.894532-2.421874-4.234375-2.984374-1.304688-.566407-2.851563-.847657-4.636719-.847657-3.148438 0-5.792969 1.023438-7.933594 3.074219-2.136718 2.023438-3.207031 4.621094-3.207031 7.800781 0 3.152344 1.054687 5.796875 3.164063 7.933594 2.140624 2.113281 4.664062 3.167969 7.578124 3.167969zm0 0"/><path d="m107.28125 143.296875-7.667969-11.722656h-.222656l-7.664063 11.722656h-6.554687l10.699219-16.003906-9.941406-15.15625h6.507812l6.953125 10.519531h.222656l6.957031-10.519531h6.507813l-9.941406 15.15625 10.699219 16.003906zm0 0"/><path d="m124.125 117.042969v8.554687h13.816406v4.859375h-13.816406v12.839844h-5.261719v-31.160156h20.773438l-.046875 4.90625zm0 0"/></g></svg>