<svg height="200" viewBox="0 0 200 200" width="200" xmlns="http://www.w3.org/2000/svg"><g transform="translate(0 50)"><path d="m0 0h200v100h-200z" fill="#fff"/><path d="m43.804688 33.859375c.839843-.160156 1.027343.992187 1.335937 1.546875 3.914063 10.058594 7.941406 20.078125 11.832031 30.148438-1.167968.0078-2.355468.05469-3.523437-.04297-.582031-.363281-.742188-1.265625-1.039063-1.863281-1.03125-2.6875-2.109375-5.355469-3.125-8.046876-3.472656-.08984-6.953125-.02344-10.429687-.0625-.738281.07031-1.792969-.148437-2.410157.304688-1.378906 3.171875-2.511718 6.46875-3.800781 9.679688-1.246093.01953-2.488281.03125-3.734375.03906 3.996094-10.242188 8.105469-20.441406 12.101563-30.671875.253906-1.417969 1.726562-.925781 2.792969-1.03125zm0 0"/><path d="m42.996094 38.253906c1.425781 4.75 3.453125 9.257813 5.054687 13.945313-3.410156.03906-6.824219.03906-10.230469 0 1.773438-4.632813 3.597657-9.238281 5.175782-13.945313zm0 0" fill="#fff"/><path d="m77.289062 42.148438c2.578126 1.316406 3.488282 4.019531 3.578126 6.757812.06641 5.539062-.0078 11.089844.02734 16.628906-1.195312.0078-2.394531.01953-3.589843.02734-.05859-5.566406.06641-11.140625-.05078-16.703125-.07422-2.09375-.992187-3.953125-3.074218-4.652344-2.308593-.671871-5.246093-.417965-7.179687 1.109379-1.792969 1.484375-2.246094 4.171875-2.320312 6.367188-.05078 4.621094.03516 9.25-.03516 13.871094-1.199219 0-2.394531 0-3.589843-.0039-.02734-7.960937-.04297-15.921875.01172-23.882812h2.863282c.210937.976562.410156 1.960937.625 2.9375 1.144531-.996094 2.132812-2.015625 3.539062-2.644531 2.84375-1.246094 6.402344-1.148438 9.195312.1875zm0 0"/><path d="m94.734375 41.476562c3.519531-.882812 7.703125-.328124 10.406255 2.269532 2.63671 2.460937 3.62109 6.070312 3.61328 9.574218.0508 3.242188-.48047 6.40625-2.50782 9.023438-2.98046 3.960938-9.175778 4.785156-13.441402 2.644531-3.398438-1.683593-5.210938-5.226562-5.699219-8.859375-.417969-3.34375-.105469-7.207031 1.628906-10.171875 1.335937-2.289062 3.421875-3.839843 6-4.480469zm0 0"/><path d="m128.52734 41.171875c-.082.960937-.18359 1.917969-.28125 2.871094-1.86328-.09375-3.69531-.449219-5.42968.457031-2.62891 1.398438-4.1836 4.234375-4.23828 7.179688-.082 4.625.0312 9.253906-.043 13.875-1.20313 0-2.39453 0-3.58985-.0039-.0273-7.960937-.0352-15.921875 0-23.882812.97657 0 1.96094.0039 2.9375.0039.14453 1.46875.29688 2.933594.46875 4.394531 1.28125-1.78125 2.44141-3.425781 4.53125-4.339844 1.87891-.859374 3.65235-.597656 5.64453-.554687zm0 0"/><path d="m144.42969 41.09375c3.23828.132812 5.17187 1.273438 6.89843 3.984375 1.33204-1.363281 2.48438-2.660156 4.31641-3.363281 2.72266-1.007813 6.10938-.835938 8.60547.703125 2.30078 1.582031 2.84375 4.402343 2.89844 7.019531 0 5.375.008 10.75-.008 16.125-1.19531-.0078-2.39453-.01953-3.58984-.02734 0-5.375.0156-10.75.004-16.125-.0156-2-.48828-4.058594-2.4336-5.027344-1.91406-.917968-4.92187-.597656-6.64453.644532-2 1.496094-2.41015 4.292968-2.47265 6.617187-.0273 4.632813.008 9.261719 0 13.890625-1.19141.0078-2.39454.01953-3.58594.02734-.0391-5.382812.0273-10.769531-.0234-16.152344-.0781-1.945312-.45703-3.921875-2.29297-4.953125-1.78515-.917969-4.6289-.761719-6.32812.289063-2.33594 1.46875-2.76172 4.414062-2.86719 6.941406-.0664 4.625.0312 9.246094-.0391 13.867188-1.19922 0-2.39453 0-3.58985-.0039-.0273-7.960937-.0391-15.921875.008-23.882812h2.89843c.1875 1.097656.37891 2.199219.56641 3.296875 1.93359-2.507813 4.41016-4.042969 7.67969-3.871094zm0 0"/><path d="m96.265625 44.003906c2.433594-.4375 4.960935.05078 6.644535 1.972656 1.84375 2.09375 2.17968 5.246094 2.16015 7.921876-.0742 2.523437-.42578 5.375-2.16015 7.347656-2.07032 2.433594-5.992191 2.691406-8.675785 1.199218-2.394531-1.449218-3.234375-4.265624-3.46875-6.90625-.1875-2.984374-.171875-6.238281 1.457031-8.859374.894532-1.464844 2.371094-2.375 4.042969-2.675782zm0 0" fill="#fff"/></g></svg>