<svg width="1823" height="256" viewBox="0 0 1823 256" fill="none" xmlns="http://www.w3.org/2000/svg">
<path d="M256.012 143.766V8.8763C256.01 7.68008 255.766 6.49668 255.295 5.39678C254.825 4.29688 254.138 3.30306 253.275 2.47501C252.411 1.64696 251.39 1.00167 250.271 0.577603C249.153 0.153538 247.96 -0.0405556 246.765 0.00704128C112.641 4.72472 4.77191 112.63 0.00705309 246.753C-0.0405438 247.949 0.153118 249.141 0.577182 250.26C1.00125 251.378 1.64668 252.4 2.47473 253.263C3.30279 254.126 4.29689 254.814 5.39679 255.284C6.49669 255.754 7.68009 255.998 8.87631 256H473.98C477.258 256 480.402 254.698 482.72 252.38C485.038 250.062 486.341 246.918 486.341 243.64V8.93532C486.343 7.74847 486.107 6.57318 485.646 5.47928C485.186 4.38537 484.51 3.39503 483.66 2.56686C482.81 1.7387 481.802 1.08954 480.696 0.657939C479.591 0.226341 478.41 0.0211188 477.224 0.0542641C430.785 1.6964 385.667 15.9373 346.7 41.2523C307.734 66.5673 276.386 102.003 256.012 143.766Z" fill="#1957DB"/>
<path fill-rule="evenodd" clip-rule="evenodd" d="M919.78 21.2701C902.269 7.15608 878.211 0 848.288 0C818.365 0 794.377 7.15625 777.012 21.2789C759.647 35.4015 747.571 52.3175 740.922 71.6477C734.315 90.8572 730.964 109.816 730.964 128C730.964 146.183 734.315 165.143 740.922 184.352C747.571 203.708 759.716 220.65 777.012 234.721C794.308 248.792 818.357 256 848.288 256C877.29 256 900.943 249.24 918.592 235.902C936.013 222.869 949.28 205.054 956.783 184.62L957.421 182.895L908.324 167.178L907.696 168.583C900.805 183.844 892.975 194.742 884.439 200.958C875.903 207.175 863.767 210.27 848.263 210.27C828.099 210.27 812.5 203.683 801.888 190.698C791.474 177.964 785.04 161.616 782.749 142.088H965.423L965.578 140.527C965.888 137.38 966.043 133.156 966.043 127.965C966.043 109.808 962.692 90.8485 956.086 71.6131C949.479 52.3778 937.231 35.3151 919.78 21.2701ZM848.288 45.687C866.377 45.687 880.873 50.9293 891.356 61.2669C901.468 71.2596 908.333 84.3132 911.778 100.065H785.264C788.709 84.2787 795.6 71.2252 805.686 61.2669C816.16 50.9293 830.493 45.6613 848.288 45.6613V45.687Z" fill="#353840"/>
<path d="M638.542 69.518V6.00094H586V249.999H638.542V113.274C640.265 101.281 645.166 89.7107 651.643 82.2959C658.915 73.9692 667.956 67.3759 678.104 62.9999C687.775 58.6556 698.237 56.3572 708.837 56.2489C712.448 56.352 716.051 56.6545 719.629 57.1545L721.567 57.3957V2.29372H719.845C685.288 2.29372 645.476 35.6514 638.542 69.518Z" fill="#353840"/>
<path fill-rule="evenodd" clip-rule="evenodd" d="M1774.73 21.2616C1792.65 35.3411 1805.26 52.2828 1812.22 71.6216C1819.11 90.8569 1822.64 109.816 1822.64 128C1822.64 146.183 1819.18 165.039 1812.22 184.37C1805.26 203.7 1792.69 220.633 1774.73 234.738C1756.78 248.844 1732.18 256 1701.65 256C1670.8 256 1646.03 248.809 1628.11 234.738C1610.18 220.668 1597.65 203.717 1590.85 184.361C1584.1 165.143 1580.66 146.175 1580.66 128C1580.66 109.825 1584.04 90.9605 1590.85 71.6304C1597.65 52.3002 1610.15 35.3756 1628.11 21.2616C1646.07 7.14763 1670.81 0 1701.65 0C1732.18 0 1756.82 7.18212 1774.73 21.2616ZM1647.99 186.706C1659.52 202.389 1677.53 210.339 1701.65 210.339C1725.73 210.339 1743.79 202.355 1755.31 186.706C1766.97 170.859 1772.87 151.115 1772.87 128.034C1772.87 104.954 1766.97 85.2099 1755.31 69.363C1743.78 53.6798 1725.72 45.7215 1701.65 45.7215C1677.57 45.7215 1659.52 53.6798 1647.99 69.363C1636.34 85.2099 1630.43 104.945 1630.43 128.034C1630.43 151.124 1636.34 170.859 1647.99 186.706Z" fill="#353840"/>
<path d="M1182.52 135.863C1171.22 126.267 1155.04 118.128 1134.45 111.662C1121.46 107.558 1108.26 104.176 1094.89 101.531L1069.71 95.1163C1058.06 91.8315 1050.02 88.3916 1045.79 84.8825C1041.74 81.5287 1039.77 77.6054 1039.77 72.8978C1039.77 64.0001 1043.98 57.3787 1052.63 52.5936C1061.51 47.7135 1072.34 45.2304 1084.84 45.2304C1098.83 45.2304 1111.03 48.2393 1121.12 54.1798C1126.95 57.6037 1131.96 62.2585 1135.81 67.8198L1138.08 71.0013V70.9322C1140.15 73.9172 1141.92 77.093 1143.39 80.4163L1144.08 82.1407L1189.27 60.0084L1188.73 58.5425C1181.58 38.9278 1168.41 24.1671 1149.59 14.6658C1130.92 5.25077 1110.05 0.4743 1087.57 0.4743C1071.07 0.341445 1054.68 3.26451 1039.24 9.09614C1024.34 14.8469 1012.14 23.443 1002.98 34.6341C993.812 45.8253 989.058 59.4134 989.058 74.7602C989.058 91.3919 993.933 104.626 1003.56 114.102C1013.04 123.439 1026.92 131.147 1044.84 137.01C1053.45 139.786 1066.14 143.192 1082.58 147.149C1095.38 150.201 1105.08 152.667 1111.41 154.478C1123.13 157.789 1132.24 161.505 1138.48 165.523C1144.43 169.351 1147.32 174.506 1147.32 181.292C1147.32 190.147 1142.61 196.811 1132.91 201.553C1122.95 206.459 1108.79 208.951 1090.78 208.951C1074.42 208.951 1060.3 204.89 1048.88 196.88C1042.17 192.173 1037.01 187.043 1033.55 181.62L1031.36 178.223L1031.32 178.404C1029.65 175.884 1028.17 173.247 1026.88 170.515L1026.1 168.79L980.806 193.794L981.384 195.216C989.136 214.184 1002.51 229.135 1021.13 239.688C1039.74 250.241 1063.25 255.517 1091.24 255.517C1115.54 255.517 1136.08 251.681 1152.29 244.111C1168.5 236.541 1180.72 226.643 1188.34 214.796C1195.96 202.95 1199.85 190.267 1199.85 177.128C1199.86 159.539 1194.02 145.675 1182.52 135.863Z" fill="#353840"/>
<path d="M1424.11 8.51622C1436.16 3.17905 1449.18 0.416325 1462.35 0.405055C1487.42 0.446038 1511.45 10.4314 1529.18 28.1739C1546.91 45.9163 1556.9 69.9694 1556.94 95.0644V249.999H1507.62V95.0644C1507.46 83.1528 1502.62 71.7852 1494.14 63.4199C1485.67 55.0546 1474.25 50.3647 1462.35 50.3647C1450.45 50.3647 1439.02 55.0546 1430.55 63.4199C1422.08 71.7852 1417.23 83.1528 1417.07 95.0644V249.999H1367.75V95.0644C1367.75 83.0458 1362.98 71.5193 1354.49 63.0208C1346 54.5224 1334.48 49.7483 1322.48 49.7483C1310.47 49.7483 1298.95 54.5224 1290.46 63.0208C1281.97 71.5193 1277.2 83.0458 1277.2 95.0644V249.999H1227.88V5.94066H1271.17L1277.2 11.9759C1295.8 1.80849 1317.27 -1.80422 1338.17 1.71892C1359.06 5.24214 1378.17 15.6963 1392.41 31.4008C1401.27 21.6478 1412.07 13.8535 1424.11 8.51622Z" fill="#353840"/>
</svg>
