<svg height="200" viewBox="0 0 200 200" width="200" xmlns="http://www.w3.org/2000/svg"><g transform="translate(0 50)"><path d="m0 0h200v100h-200z" fill="#fff"/><path d="m80.070312 30c1.414063 0 2.820313 0 4.230469.0039-.0078 13.144532-.0078 26.289063 0 39.433594-1.410156.0078-2.816406.0078-4.230469.0078 0-13.152343 0-26.296874 0-39.445312zm0 0"/><path d="m93.40625 30c1.410156 0 2.816406 0 4.226562.0039-.0039 13.144532-.0039 26.289063 0 39.433594-1.410156.0078-2.816406.0078-4.226562.0078 0-13.152343 0-26.296874 0-39.445312zm0 0"/><path d="m120.07031 30c1.41407 0 2.82032 0 4.23047.0039-.0352 5.167969.10938 10.269532-.23437 15.425782 4.02343-5.714844 13.80078-5.863282 17.86328-.144532 2.51562 3.449219 2.97656 8.359375 2.63281 12.492188-.36328 4.167968-1.85547 8.363281-5.53906 10.695312-4.81641 2.777344-11.62891 1.847656-15-2.773437-.3086 1.246093-.61328 2.488281-.92969 3.734375-1.00391.0039-2.01562.01172-3.02344.01172 0-13.144531 0-26.296874 0-39.445312zm0 0"/><path d="m107.88281 31.222656c1.03907-.292968 2.16016-.08984 2.91016.714844.70312.878906.60156 2.011719.46094 3.0625-.51953 1.390625-2 2.035156-3.375 1.5-2.10157-.753906-2.0625-4.503906.004-5.277344zm0 0"/><path d="m164.16797 31.867188c2.82812.445312 5.41406 1.761718 7.0039 4.199218 1.9961 2.976563 1.85157 7.054688.60157 10.289063-1.70313 4.273437-5.21875 7.699219-8.40625 10.898437-2.84375 2.746094-5.63282 5.546875-8.46875 8.300782 6.46875 0 12.93359-.0039 19.40234.0078-.008 1.292969-.008 2.582031 0 3.875-8.17187.01172-16.34375.0078-24.51562.0078-.008-1.183593-.0117-2.367187-.0234-3.550781 4.19922-4.324219 8.54297-8.503906 12.74219-12.832031 2.42578-2.550781 4.78906-5.183594 5.60546-8.710938.42969-2.296874.40235-4.929687-1.26953-6.746093-1.83984-2.09375-4.83593-2.3125-7.41797-1.910157-2.69531.410157-4.80468 1.789063-6.94921 3.371094-.73438-.960937-1.48829-1.910156-2.25782-2.851562 3.83985-3.398438 8.8125-5.253906 13.95313-4.347656zm0 0"/><path d="m75 41.445312c-.1875 1.269532-.359375 2.542969-.539062 3.816407-1.996094-.183594-3.761719-.601563-5.695313.195312-3.398437 1.371094-5.492187 4.804688-5.566406 8.414063-.03906 5.191406-.0039 10.382812-.01172 15.566406-1.410156.0078-2.816406.0078-4.226562.0078 0-9.261718 0-18.515624 0-27.777343 1.148437 0 2.300781 0 3.449218.0039.160156 1.722656.324219 3.449219.472656 5.171875 1.421876-1.859375 2.613282-3.628906 4.765626-4.734375 2.316407-1.242169 4.839844-1.210919 7.351563-.664045zm0 0"/><path d="m26.410156 41.667969h4.289063c.0078 6.121093.0078 12.238281 0 18.355469 0 2.066406.394531 4.132812 2.089843 5.492187 2.933594 1.972656 8.539063 1.507813 10.828126-1.347656 1.621093-2.144531 1.871093-4.894531 1.9375-7.496094.0078-5-.0039-10 0-15.003906 1.410156 0 2.816406 0 4.222656.0039v27.765625c-1.160156.0078-2.320313.0078-3.484375-.0039-.210938-1.25-.421875-2.5-.648438-3.75-3.285156 4.882812-10.921875 5.5-15.695312 2.710937-2.675781-1.800781-3.410157-4.773437-3.53125-7.832031-.02344-6.296875-.0078-12.601562-.0078-18.894531zm0 0"/><path d="m106.66797 41.667969c1.43359 0 2.86719 0 4.29687.0039-.004 9.257813-.004 18.511719 0 27.765625-1.42968.0078-2.86328.0078-4.29687.0078 0-9.261718 0-18.515624 0-27.777343zm0 0"/><path d="m129.67187 44.75c2.15625-.554688 4.67969-.464844 6.67188.589844 2.05078 1.199218 3.02734 3.230468 3.49609 5.488281.65625 3.398437.64453 7.042969-.32422 10.386719-.71093 2.300781-2.07812 4.347656-4.47656 5.097656-2.55469.769531-5.72656.433594-7.86718-1.257812-1.96094-1.53125-2.50391-4.386719-2.76563-6.726563-.22656-3.0625-.23437-6.398437.73438-9.34375.69921-2.152344 2.33593-3.683594 4.53124-4.234375zm0 0" fill="#fff"/></g></svg>