<svg height="200" viewBox="0 0 200 200" width="200" xmlns="http://www.w3.org/2000/svg"><g stroke="#fff" stroke-width="17.570938"><path d="m107.02838 17.655553c19.52482 1.771151 38.16407 10.55662 51.91157 24.810165.77313.969916 2.68485 2.333421 2.48805 3.682869-2.36153.871519-4.89175 1.672754-7.22517 2.600499-3.62664 1.813321-4.96204-2.544272-9.22123-.843405-3.52825 1.0402-2.43182 5.046374-5.6227 5.805438-5.96006 1.925775-11.92012 4.484104-17.83801 6.072517-1.50408.759064-4.20297 1.743037-4.86364-.548214-4.8074-8.813583-16.30583-12.32777-25.147528-7.365737-1.799264.955859-2.85352 2.76918-5.032316 1.20888-8.026405-7.885837-16.024696-15.827901-24.037045-23.741852-.745007-.660667-1.16671-1.293221-1.279164-1.911718 13.522595-7.82961 30.348525-10.992379 45.867183-9.769442zm0 0"/><path d="m58.602868 28.957181c9.038491 8.124802 17.542826 17.247633 26.314238 25.709797.927746.688781 1.096427 1.574356.5201 2.670783-5.931949 7.646872-4.554387 18.723592 2.72701 24.978846.12651 1.757094-1.64464 3.457961-2.572386 4.821466-4.891749 6.944035-10.289541 14.408167-15.13912 21.295977-1.166711 1.64464-1.728981 3.40173-4.188912 2.90974-5.299395-1.13859-9.235286.63256-11.59682 5.46808-.998029.68879-2.29125.88558-3.865606.59039-11.737387-1.70086-21.211637-1.9539-31.824484-3.8656-2.347478-6.73319-1.321335-14.872051-1.307278-21.970711 1.546242-7.956121 2.881634-16.474512 6.452048-23.896476 6.789411-15.813845 19.257749-30.50315 34.48121-38.712292zm0 0"/><path d="m164.2534 48.397667c19.32804 23.92459 24.10734 57.927873 10.75342 85.718063-1.43379 1.98201-4.14674.64661-6.12874.5201-4.32948-1.16671-9.61482-1.95389-14.05675-3.10654-2.96598-.63255-6.9581-.50605-9.44614-2.2772-.57633-5.43995-4.55439-9.74132-10.23331-9.46018-1.54625.40765-2.7973.23896-3.75316-.50605-5.67893-10.14897-12.79163-21.956643-18.52679-31.936936-.80124-1.672753-2.64267-2.923804-.63256-4.652784 5.27129-4.41382 7.5766-11.07672 6.33959-17.838017-.14056-2.797294 4.07647-2.544272 5.74922-3.668812 5.17288-1.447846 12.27154-4.441934 17.37414-5.664871 2.13663 2.235023 4.32948 3.542301 7.50631 2.445875 2.9238-1.236994 3.20494-3.668812 3.45796-6.522333 3.71098-.576327 8.0264-3.45796 11.59681-3.050315zm0 0"/><path d="m94.3773 85.915136c4.666841 1.953888 9.48831 1.096426 14.05675-.337362 3.35957 2.755123 5.13072 8.546504 7.89989 12.116919 3.37362 6.227137 7.66094 13.311747 11.3438 19.510767.63256 1.70087 2.6005 3.33146 1.61653 5.18694-2.26314 2.45994-2.48805 4.8777-3.14871 7.97018-5.29939 1.57436-11.06266 2.6989-16.30583 4.37165-3.14872.57633-2.48804-2.43182-5.6227-2.67079-3.10654-.91368-4.329484 1.7571-7.02838 1.37757-4.343536-1.89766-9.291513-4.09051-13.663162-5.83355-3.233053-2.05229-8.687072-2.71296-11.006436-5.7211.04217-2.98003-.168681-5.36967-2.024172-7.82961-.702838-2.10851 1.813321-3.78126 2.670782-5.6227 5.49619-7.54847 10.964266-15.504596 16.474513-22.996844 1.743037-1.771151 2.937861.126511 4.737125.47793zm0 0"/><path d="m20.087371 116.92433 1.194824-.6185c10.247371.98397 21.886361 2.26313 31.993165 3.8375 1.405675 1.63057 1.321334 3.97805 2.741066 5.51024 1.391619 2.13662 3.921834 2.1788 3.162769 5.27128-1.64464 5.28534-3.204939 10.97832-4.737125 16.31989-2.136626 1.51812-4.512217 1.49001-5.692984 4.14674-1.967945 3.76721.983973 6.77536 4.217025 8.29348.01406 2.37559.238965 4.84959.04217 7.19706-1.939832.39359-2.319364-1.01209-3.753152-1.93983-13.578817-10.86587-23.854302-25.51301-28.464917-42.29676-.60444-1.71492-1.461902-3.99212-.702837-5.7211zm0 0"/><path d="m73.292173 125.54111c7.323567 3.24712 15.968469 6.91592 23.432604 10.10681.941802 3.51419 1.799264 6.69101 6.086573 7.11272 3.86561-.12652 5.04638-2.34749 6.26931-5.58054 5.32751-.8434 13.77562-5.13071 18.70953-3.35956 2.81135 4.38571 6.35365 4.42787 11.06267 4.63873 1.47595 2.93786 2.74106 5.90384 4.07646 8.56056 1.29322 2.47399.39359 2.98003-.78718 4.99015-1.84144 4.07646 1.3635 8.34971 5.65081 8.15291 2.01011.47793 4.04835 4.94798 1.40568 5.98818-19.6654 14.75959-46.61219 20.11521-70.283756 13.64911-7.998292-2.3756-16.235548-5.56647-23.081185-10.40201-1.180768-2.60049-.491987-6.12874-.787178-8.95414.196794-1.77115 2.389647-2.23503 3.275222-3.80938 1.574357-2.12257.99803-5.27128-.885575-7.02838-2.024172-1.64464.323305-4.03428.393589-6.03034 1.251051-4.21703 2.389648-8.61679 3.739096-12.77759 1.054256-2.12257 3.37362-.81529 5.229111-2.09445 3.190883-.77313 3.373621-4.20297 6.494219-3.16278zm0 0"/><path d="m144.22254 132.97714c2.55833-1.53219 5.15882.3233 7.78744.57632 5.88977.50604 14.91421 3.07843 20.43851 3.6407.44982 1.02614.33737 1.85549-.30924 2.51616-2.22097 4.37165-5.00421 7.99829-7.87178 11.94824-3.4158 3.4439-7.35169 8.91198-11.65306 10.99237-.59038-1.68681-1.89765-2.79728-1.4619-4.49816 1.98201-2.37558 1.6587-6.70506-1.15265-8.33564-1.75709-.94181-3.40174-.39359-4.54033-2.40371-1.09642-3.3174-3.83749-7.11272-4.27325-10.48633 1.18077-1.25106 2.36153-2.31937 3.03626-3.94995zm0 0"/></g><path d="m91.664347 10.036794h15.996583l-.0141.759065c41.50958 1.897661 78.18365 38.093795 81.50104 79.364415-.23896 1.405675.0281 2.361535.8153 2.895691v14.590905h-.75907c-1.99606 41.52364-38.03757 78.15554-79.36441 81.50104-1.39162-.23896-2.36154.0422-2.8957.8153h-15.982481v-.75907c-40.230421-2.96598-74.936539-36.64595-79.898572-76.55306-.618497-1.64464.56227-4.76524-1.026143-5.69298v-15.996591h.759065c2.727009-37.742376 32.555435-70.747627 69.370065-78.619408 3.24711-1.616526 8.911981-.477929 11.498423-2.305307zm-30.50315 17.388201c.112454.618497.534157 1.251051 1.279164 1.911718 8.012349 7.913951 16.01064 15.856015 24.037045 23.741852 2.178796 1.5603 3.233052-.253021 5.032316-1.20888 8.841698-4.962033 20.340128-1.447846 25.147528 7.365737.66067 2.291251 3.35956 1.307278 4.86364.548214 5.91789-1.588413 11.87795-4.146742 17.83801-6.072517 3.19088-.759064 2.09445-4.765238 5.6227-5.805438 4.25919-1.700867 5.59459 2.656726 9.22123.843405 2.33342-.927745 4.86364-1.72898 7.22517-2.600499.1968-1.349448-1.71492-2.712953-2.48805-3.682869-13.7475-14.253545-32.38675-23.039014-51.91157-24.810165-15.518658-1.222937-32.344588 1.939832-45.867183 9.769442zm-42.184309 86.111665c10.612847 1.91171 20.087097 2.16474 31.824484 3.8656 1.574356.29519 2.867577.0984 3.865606-.59039 2.361534-4.83552 6.297425-6.60667 11.59682-5.46807 2.459931.49198 3.022201-1.26511 4.188912-2.90975 4.849579-6.88781 10.247371-14.351942 15.13912-21.295977.927746-1.363505 2.698896-3.064372 2.572386-4.821466-7.281397-6.255254-8.658959-17.331974-2.72701-24.978846.576327-1.096427.407646-1.982002-.5201-2.670783-8.771412-8.462164-17.275747-17.584995-26.314238-25.709797-15.223461 8.209142-27.691799 22.898447-34.48121 38.712292-3.570414 7.421964-4.905806 15.940355-6.452048 23.896476-.01406 7.09866-1.0402 15.237521 1.307278 21.970711zm133.679702-62.088678c-.25302 2.853521-.53416 5.285339-3.45796 6.522333-3.17683 1.096426-5.36968-.210852-7.50631-2.445875-5.1026 1.222937-12.20126 4.217025-17.37414 5.664871-1.67275 1.12454-5.88978.871518-5.74921 3.668812 1.237 6.761297-1.06831 13.424197-6.3396 17.838017-2.01011 1.72898-.16868 2.980031.63256 4.652784 5.73516 9.980293 12.84786 21.787966 18.52679 31.936936.95586.74501 2.20691.9137 3.75316.50605 5.67892-.28114 9.65698 4.02023 10.23331 9.46018 2.48804 1.77115 6.48016 1.64465 9.44614 2.2772 4.44193 1.15265 9.72727 1.93983 14.05675 3.10654 1.982.12651 4.69495 1.46191 6.12874-.5201 13.35392-27.79019 8.57462-61.793473-10.75342-85.718063-3.57041-.407645-7.88583 2.473988-11.59681 3.050315zm-26.51103 78.914598c.66066-3.09248.88557-5.51024 3.14871-7.97017.98397-1.85549-.98397-3.48608-1.61653-5.18695-3.68286-6.19902-7.97018-13.28362-11.3438-19.510767-2.76917-3.570415-4.54032-9.361796-7.89989-12.116919-4.56844 1.433788-9.389909 2.29125-14.05675.337362-1.799264-.351419-2.994088-2.249081-4.737125-.47793-5.510247 7.492248-10.978323 15.448374-16.474513 22.996844-.857461 1.84144-3.37362 3.51419-2.670782 5.6227 1.855491 2.45994 2.066342 4.84958 2.024172 7.82962 2.319364 3.00814 7.773383 3.6688 11.006436 5.72109 4.371649 1.74304 9.319626 3.93589 13.663162 5.83355 2.698896.37953 3.92184-2.29125 7.02838-1.37757 3.13466.23897 2.47398 3.24712 5.6227 2.67079 5.24317-1.67275 11.00644-2.79729 16.30583-4.37165zm-106.058189-13.43825c-.759065 1.72898.0984 4.00618.702837 5.7211 4.610615 16.78375 14.8861 31.43089 28.464921 42.29676 1.433789.92774 1.813321 2.33342 3.753153 1.93983.196794-2.34748-.02811-4.82147-.04217-7.19706-3.233053-1.51812-6.184971-4.52627-4.217025-8.29348 1.180767-2.65673 3.556358-2.62862 5.692984-4.14674 1.532186-5.34157 3.092485-11.03455 4.737125-16.31989.759064-3.09248-1.771151-3.13466-3.162769-5.27128-1.419737-1.53219-1.335396-3.87966-2.741071-5.51024-10.106804-1.57436-21.745794-2.85353-31.993165-3.8375zm118.765489 21.53494c-4.70902-.21086-8.25132-.25302-11.06267-4.63873-4.93391-1.77115-13.38202 2.51616-18.70953 3.35956-1.22293 3.23305-2.4037 5.45402-6.26931 5.58054-4.287309-.42171-5.144771-3.59853-6.086573-7.11272-7.464135-3.19089-16.109037-6.85969-23.432604-10.10681-3.120598-1.04019-3.303336 2.38965-6.494219 3.16278-1.855491 1.27916-4.174855-.0281-5.229111 2.09445-1.349448 4.1608-2.488045 8.56056-3.739096 12.77759-.07029 1.99606-2.417761 4.3857-.393589 6.03034 1.883605 1.7571 2.459932 4.90581.885575 7.02838-.885575 1.57435-3.078428 2.03823-3.275222 3.80938.295191 2.8254-.39359 6.35365.787178 8.95414 6.845637 4.83553 15.082893 8.02641 23.081185 10.402 23.671566 6.46611 50.618356 1.11049 70.283756-13.6491 2.64267-1.0402.60443-5.51025-1.40568-5.98818-4.28731.1968-7.49225-4.07645-5.65081-8.15291 1.18077-2.01012 2.0804-2.51616.78718-4.99015-1.3354-2.65672-2.60051-5.6227-4.07646-8.56056zm2.33342-1.53219c.43576 3.37362 3.17683 7.16894 4.27325 10.48634 1.13859 2.01012 2.78324 1.4619 4.54033 2.40371 2.81135 1.63058 3.13466 5.96006 1.15265 8.33564-.43575 1.70088.87152 2.81135 1.4619 4.49816 4.30137-2.08039 8.23726-7.54847 11.65306-10.99237 2.86757-3.94995 5.65081-7.57659 7.87178-11.94824.64661-.66067.75906-1.49002.30924-2.51616-5.5243-.56227-14.54874-3.13466-20.43851-3.6407-2.62862-.25302-5.22911-2.10851-7.78744-.57632-.67473 1.63058-1.85549 2.69889-3.03626 3.94994zm0 0" fill="#2b59b3"/><path d="m107.02838 17.655553c19.52482 1.771151 38.16407 10.55662 51.91157 24.810165.77313.969916 2.68485 2.333421 2.48805 3.682869-2.36153.871519-4.89175 1.672754-7.22517 2.600499-3.62664 1.813321-4.96204-2.544272-9.22123-.843405-3.52825 1.0402-2.43182 5.046374-5.6227 5.805438-5.96006 1.925775-11.92012 4.484104-17.83801 6.072517-1.50408.759064-4.20297 1.743037-4.86364-.548214-4.8074-8.813583-16.30583-12.32777-25.147528-7.365737-1.799264.955859-2.85352 2.76918-5.032316 1.20888-8.026405-7.885837-16.024696-15.827901-24.037045-23.741852-.745007-.660667-1.16671-1.293221-1.279164-1.911718 13.522595-7.82961 30.348525-10.992379 45.867183-9.769442zm0 0" fill="#fff"/><path d="m58.602868 28.957181c9.038491 8.124802 17.542826 17.247633 26.314238 25.709797.927746.688781 1.096427 1.574356.5201 2.670783-5.931949 7.646872-4.554387 18.723592 2.72701 24.978846.12651 1.757094-1.64464 3.457961-2.572386 4.821466-4.891749 6.944035-10.289541 14.408167-15.13912 21.295977-1.166711 1.64464-1.728981 3.40173-4.188912 2.90975-5.299395-1.1386-9.235286.63255-11.59682 5.46807-.998029.68879-2.29125.88558-3.865606.59039-11.737387-1.70086-21.211637-1.95389-31.824484-3.8656-2.347478-6.73319-1.321335-14.872051-1.307278-21.970711 1.546242-7.956121 2.881634-16.474512 6.452048-23.896476 6.789411-15.813845 19.257749-30.50315 34.48121-38.712292zm0 0" fill="#fff"/><path d="m164.2534 48.397667c19.32804 23.92459 24.10734 57.927873 10.75342 85.718063-1.43379 1.98201-4.14674.64661-6.12874.5201-4.32948-1.16671-9.61482-1.95389-14.05675-3.10654-2.96598-.63255-6.9581-.50605-9.44614-2.2772-.57633-5.43995-4.55439-9.74132-10.23331-9.46018-1.54625.40765-2.7973.23896-3.75316-.50605-5.67893-10.14897-12.79163-21.956643-18.52679-31.936936-.80124-1.672753-2.64267-2.923804-.63256-4.652784 5.27129-4.41382 7.5766-11.07672 6.3396-17.838017-.14057-2.797294 4.07646-2.544272 5.74921-3.668812 5.17288-1.447846 12.27154-4.441934 17.37414-5.664871 2.13663 2.235023 4.32948 3.542301 7.50631 2.445875 2.9238-1.236994 3.20494-3.668812 3.45796-6.522333 3.71098-.576327 8.0264-3.45796 11.59681-3.050315zm0 0" fill="#fff"/><path d="m94.3773 85.915136c4.666841 1.953888 9.48831 1.096426 14.05675-.337362 3.35957 2.755123 5.13072 8.546504 7.89989 12.116919 3.37362 6.227147 7.66094 13.311747 11.3438 19.510767.63256 1.70087 2.6005 3.33146 1.61653 5.18695-2.26314 2.45993-2.48805 4.87769-3.14871 7.97017-5.29939 1.57436-11.06266 2.6989-16.30583 4.37165-3.14872.57633-2.48804-2.43182-5.6227-2.67079-3.10654-.91368-4.329484 1.7571-7.02838 1.37757-4.343536-1.89766-9.291513-4.09051-13.663162-5.83355-3.233053-2.05229-8.687072-2.71295-11.006436-5.72109.04217-2.98004-.168681-5.36968-2.024172-7.82962-.702838-2.10851 1.813321-3.78126 2.670782-5.6227 5.49619-7.54847 10.964266-15.504596 16.474513-22.996844 1.743037-1.771151 2.937861.126511 4.737125.47793zm0 0" fill="#fff"/><path d="m20.087371 116.92433 1.194824-.6185c10.247371.98397 21.886361 2.26314 31.993165 3.8375 1.405675 1.63058 1.321334 3.97805 2.741066 5.51024 1.391619 2.13662 3.921834 2.1788 3.162769 5.27128-1.64464 5.28534-3.204939 10.97832-4.737125 16.31989-2.136626 1.51812-4.512217 1.49001-5.692984 4.14674-1.967945 3.76721.983973 6.77536 4.217025 8.29348.01406 2.37559.238965 4.84958.04217 7.19706-1.939832.39359-2.319364-1.01209-3.753152-1.93983-13.578817-10.86587-23.854302-25.51301-28.464917-42.29676-.60444-1.71492-1.461902-3.99212-.702837-5.7211zm0 0" fill="#fff"/><path d="m73.292173 125.54111c7.323567 3.24712 15.968469 6.91592 23.432604 10.10681.941802 3.51419 1.799264 6.69101 6.086573 7.11272 3.86561-.12652 5.04638-2.34749 6.26931-5.58054 5.32751-.8434 13.77562-5.13071 18.70953-3.35956 2.81135 4.38571 6.35365 4.42787 11.06267 4.63873 1.47595 2.93786 2.74106 5.90384 4.07646 8.56056 1.29322 2.47399.39359 2.98003-.78718 4.99015-1.84144 4.07646 1.3635 8.34971 5.65081 8.15291 2.01011.47793 4.04835 4.94798 1.40568 5.98818-19.6654 14.75959-46.61219 20.11521-70.283756 13.6491-7.998292-2.37559-16.235548-5.56647-23.081185-10.402-1.180768-2.60049-.491987-6.12874-.787178-8.95414.196794-1.77115 2.389647-2.23503 3.275222-3.80938 1.574357-2.12257.99803-5.27128-.885575-7.02838-2.024172-1.64464.323305-4.03428.393589-6.03034 1.251051-4.21703 2.389648-8.61679 3.739096-12.77759 1.054256-2.12257 3.37362-.81529 5.229111-2.09445 3.190883-.77313 3.373621-4.20297 6.494219-3.16278zm0 0" fill="#fff"/><path d="m144.22254 132.97714c2.55833-1.53219 5.15882.3233 7.78744.57632 5.88977.50604 14.91421 3.07843 20.43851 3.6407.44982 1.02614.33737 1.85549-.30924 2.51616-2.22097 4.37165-5.00421 7.99829-7.87178 11.94824-3.4158 3.4439-7.35169 8.91198-11.65306 10.99237-.59038-1.68681-1.89765-2.79728-1.4619-4.49816 1.98201-2.37558 1.6587-6.70506-1.15265-8.33564-1.75709-.94181-3.40174-.39359-4.54033-2.40371-1.09642-3.3174-3.83749-7.11272-4.27325-10.48634 1.18077-1.25105 2.36153-2.31936 3.03626-3.94994zm0 0" fill="#fff"/></svg>