<svg height="200" viewBox="0 0 200 200" width="200" xmlns="http://www.w3.org/2000/svg"><path d="m66.5625 237.29687c-14.0625-6.10937-27.1875-21.53125-27.1875-37.34375 0-17.22656 10.859375-31.86718 24.453125-41.49609-1.640625 6.1875-2.5 11.82422 1.484375 17.38281 3.75 5.16407 10.3125 7.67188 16.5625 6.26172 14.53125-3.21094 15.15625-19.17969 6.5625-28.49609-8.515625-9.31641-16.71875-19.73047-13.4375-33.11719 1.640625-6.73437 5.703125-12.99609 10.9375-17.46094-3.984375 10.57032 7.34375 20.90625 14.84375 26.14844 12.96875 9.00391 27.26562 15.73828 39.21875 26.30859 12.57812 11.03907 21.875 26.07032 20 43.3711-2.03125 18.78906-16.95313 31.86328-33.67187 38.51953 35.39062-7.83203 71.87499-35.30859 72.65624-74.60938.625-32.33593-21.48437-57.23046-48.90625-71.480464l-1.40625-.78125c.78125 1.800782 1.01563 3.363282.9375 4.773438.23438-1.015625.39063-2.113282.46875-3.207032 0 1.328126-.15625 2.660157-.46875 3.835938l.0781-.628906c-.3906 1.722656-1.09372 3.367187-2.03122 4.855466l.39062-.468748c-5.46875 9.078128-20.31249 11.039068-27.57812 1.640628-11.79687-15.109378.23438-31.468752 1.95313-47.519534 2.10937-20.121094-10.46875-39.613281-26.093755-51.28125 8.593755 13.9375-2.734375 32.335938-11.796875 42.667969-8.75 10.023437-19.453125 18.320313-29.140625 27.402344-10.390625 9.707031-20.390625 19.964843-28.984375 31.394531-17.109375 22.85938-27.578125 51.67187-19.921875 80.16797 7.578125 28.57422 32.265625 46.73828 60.078125 53.16015zm0 0" fill="#ee4221" transform="matrix(.79081254 0 0 .79081254 21.225762 5.08983)"/></svg>