<svg height="200" viewBox="0 0 200 200" width="200" xmlns="http://www.w3.org/2000/svg"><g stroke-width="12.5" transform="matrix(.507614 0 0 .507614 3.384095 54.483919)"><path d="m-.00252588.00089813h360.00210888v180.00105487h-360.00210888zm313.12996088 54.99839887c.015391 15.329062.015391 30.673515 0 46.002578h4.871133c0-15.329063 0-30.673516 0-46.002578-1.616016 0-3.247422 0-4.871133 0zm-302.117969 46.002578h5.063516c1.716055-4.671055 3.493672-9.319024 5.217422-13.990078 5.748398-.015391 11.496797-.053868 17.260586.030781 1.669883 4.69414 3.516758 9.319023 5.278984 13.974687 1.708359-.01539 3.416719-.038476 5.132774-.053867-5.640665-14.336367-11.281329-28.672734-16.86043-43.032187-1.762227.361679-4.293985-.792618-4.740313 1.562148-5.448281 13.774609-10.911953 27.69543-16.352539 41.508516zm74.429063-38.799766c-.615625 2.146992-1.21586 4.309375-1.885352 6.440977-2.254726 1.223554-4.786484 1.177382-4.94039 4.31707 1.639101.030781 3.285898.046172 4.925.061562.030781 6.671836-.069258 13.335977.023086 20.007813.038476 3.216641 1.36207 6.748789 4.517148 8.080078 3.293594 1.469805 6.410195.861875 9.803828.223164-.023086-1.292812-.023086-2.570234-.015391-3.863047-2.393242.338594-4.817265 1.131211-7.087382-.13082-1.869961-1.161992-2.385547-3.239727-2.377852-5.317461-.038476-6.340937.030781-12.67418 0-19.015117 3.108906-.007695 6.217813-.007695 9.342109-.015391-.01539-1.331289-.01539-2.647187 0-3.978476-3.124296-.015391-6.233203-.015391-9.342109-.023086.007695-2.362461-.007695-4.717227 0-7.071992-.992695.092343-1.97.184687-2.962695.284726zm-10.250156 38.261094c-.015391-1.354375-.046172-2.69336-.084649-4.040039-4.016953 1.208164-8.203203 2.539453-12.304805.800312-4.140078-1.993086-5.317461-7.02582-5.4175-11.21207-.100039-4.109297.461719-9.880781 4.18625-12.420234 4.040039-2.731836 8.303243-1.508282 12.55875-.138516.523282-1.392852.954219-2.793398 1.323594-4.224727-5.66375-1.369765-10.996601-2.270117-16.306367.831094-4.925 3.031953-6.502539 8.441758-6.741094 13.92082-.153906 5.717618.746446 11.412149 5.448281 15.213633 4.886524 3.739922 11.835391 3.416719 17.33754 1.269727zm26.918203-5.355938c0 1.59293-.007696 3.170469-.023086 4.763399 5.494453 2.601015 12.620312 3.101211 18.176328.446328 5.063515-2.447109 6.302461-9.896172 2.162383-13.720742-3.932305-3.339766-9.96543-4.193946-14.005469-6.995039-2.116211-1.577539-2.393242-4.840352-.053867-6.348633 4.247812-2.601016 9.888476-.761836 14.244023.60793.523281-1.292813 1.046563-2.593321 1.562149-3.878438-5.825352-2.08543-12.597227-3.232031-18.268672-.069258-4.409414 2.44711-5.178946 9.257461-1.323594 12.527969 3.893828 3.285898 9.73457 4.047734 13.913125 7.079687 2.500977 1.70836 2.193164 6.048516-.592539 7.356719-5.325156 2.516367-10.827305.615625-15.790781-1.769922zm58.145781-24.471093c.515586 1.23125 1.038867 2.470195 1.546758 3.701445 4.093906-1.585234 8.903476-3.609102 13.174375-1.439024 3.139687 2.039258 2.624101 5.802266 2.847265 9.049688-5.263593.123125-11.550664.092344-16.329453 2.524062-5.4175 2.601016-6.202422 10.234766-2.524062 14.567227 2.962695 3.216641 8.303242 3.547539 12.274023 2.439414 3.008867-.815703 4.701836-2.947305 6.718008-5.132773.300117 1.554453.60793 3.101211.908047 4.655664 1.200469.007695 2.400937 0 3.593711 0 .007695-7.002735-.007696-14.005469.030781-21.000508-.015391-3.008867-.11543-5.994649-1.954609-8.518711-1.854571-2.524063-5.509844-3.385938-8.464844-3.524453-4.209336-.200078-8.003125 1.092734-11.82 2.677969zm30.858203 24.471093c0 1.59293-.007695 3.170469-.030781 4.763399 5.502148 2.601015 12.620312 3.101211 18.184023.446328 5.055821-2.439414 6.294766-9.896172 2.154688-13.720742-3.932305-3.339766-9.957735-4.193946-13.997774-6.995039-2.123906-1.577539-2.400937-4.840352-.061562-6.348633 4.247812-2.601016 9.888476-.761836 14.251719.60793.515585-1.292813 1.038867-2.593321 1.562148-3.878438-5.833047-2.08543-12.604922-3.232031-18.276367-.069258-4.409414 2.44711-5.178946 9.257461-1.315899 12.527969 3.886133 3.285898 9.726875 4.047734 13.90543 7.079687 2.500977 1.70836 2.193164 6.048516-.584844 7.356719-5.332851 2.516367-10.835.615625-15.790781-1.769922zm54.998398 0c0 1.59293-.007695 3.170469-.030781 4.763399 5.502149 2.601015 12.620313 3.101211 18.184024.446328 5.05582-2.439414 6.294765-9.896172 2.154687-13.720742-3.924609-3.339766-9.957734-4.193946-13.997773-6.995039-2.116211-1.577539-2.400938-4.840352-.046172-6.348633 4.240117-2.601016 9.880781-.761836 14.236328.60793.523281-1.292813 1.038867-2.593321 1.562148-3.878438-5.833046-2.08543-12.604921-3.232031-18.268671-.069258-4.409415 2.44711-5.178946 9.257461-1.323594 12.527969 3.893828 3.285898 9.73457 4.047734 13.913125 7.079687 2.500976 1.70836 2.185469 6.048516-.592539 7.356719-5.332852 2.516367-10.827305.615625-15.790782-1.769922zm41.069883-26.887422c-3.478281.59254-6.64875 2.362461-8.711093 5.263594-2.747227 3.778399-3.308985 8.988125-3.024258 13.512969.223164 3.886133 1.446718 7.610664 4.055429 10.542578 5.540625 6.364024 17.191329 5.963867 22.124024-.946523 2.693359-3.493672 3.31668-8.303243 3.21664-12.581836-.138515-4.247813-1.208164-8.48793-4.163164-11.696875-3.255117-3.701446-8.772656-4.955782-13.497578-4.093907zm45.502383 6.510235c-.169297-1.908438-.330898-3.816875-.507891-5.733008-1.354375.015391-2.693359.015391-4.040039 0 0 10.673398.007696 21.331406 0 32.004805h4.863438c.084648-6.310157-.146211-12.643399.092344-18.953555.200078-4.355547 2.870351-8.395586 7.079687-9.788437 2.054649-.59254 3.847656-.10004 5.902305.107734.146211-1.469805.315508-2.939609.50789-4.409414-2.947304.092344-5.717617-.284727-8.38789 1.192773-2.493281 1.315899-3.870742 3.385938-5.509844 5.579102zm-204.810742 31.27375v3.993867h27.125976c0-1.331289 0-2.670273 0-3.993867-9.034296 0-18.083984 0-27.125976 0zm87.995898 0v3.993867h27.133672c0-1.331289 0-2.670273 0-3.993867-9.041992 0-18.091679 0-27.133672 0zm0 0" stroke="#fff"/><path d="m313.127435 54.999297h4.871133v46.002578c-1.616016 0-3.247422 0-4.871133 0 .015391-15.329063.015391-30.673516 0-46.002578zm0 0" stroke="#000"/><path d="m32.102318 57.931211c5.579101 14.359453 11.219765 28.69582 16.86043 43.032187-1.716055.015391-3.424415.038477-5.132774.053867-1.762226-4.655664-3.609101-9.280547-5.278984-13.974687-5.763789-.084649-11.512188-.046172-17.260586-.030781-1.72375 4.671054-3.501367 9.319023-5.217422 13.990078-1.692969 0-3.370547 0-5.063516 0 5.440586-13.813086 10.904258-27.733907 16.352539-41.508516.446328-2.354766 2.978086-1.200469 4.740313-1.562148zm-2.131602 5.725312c-1.777617 6.664141-4.594101 12.843477-6.91039 19.32293 4.632578.030781 9.249765.030781 13.882343 0-2.339375-6.417891-5.009648-12.766524-6.971953-19.32293zm0 0" stroke="#000"/><path d="m85.438529 62.202109c.992695-.100039 1.97-.192383 2.962695-.284726-.007695 2.354765.007695 4.709531 0 7.071992 3.108906.007695 6.217813.007695 9.342109.023086-.01539 1.331289-.01539 2.647187 0 3.978476-3.124296.007696-6.233203.007696-9.342109.015391.030781 6.340937-.038476 12.67418 0 19.015117-.007695 2.077734.507891 4.155469 2.377852 5.317461 2.270117 1.262031 4.69414.469414 7.087382.13082-.007695 1.292813-.007695 2.570235.015391 3.863047-3.393633.638711-6.510234 1.246641-9.803828-.223164-3.155078-1.331289-4.478672-4.863437-4.517148-8.080078-.092344-6.671836.007695-13.335977-.023086-20.007813-1.639102-.01539-3.285899-.030781-4.925-.061562.153906-3.139688 2.685664-3.093516 4.94039-4.31707.669492-2.131602 1.269727-4.293985 1.885352-6.440977zm0 0" stroke="#000"/><path d="m29.970716 63.656523c1.962305 6.556406 4.632578 12.905039 6.971953 19.32293-4.632578.030781-9.249765.030781-13.882343 0 2.316289-6.479453 5.132773-12.658789 6.91039-19.32293zm0 0" stroke="#fff"/><path d="m75.450013 69.227929c-.369375 1.431329-.800312 2.831875-1.323594 4.224727-4.255507-1.369766-8.518711-2.59332-12.55875.138516-3.724531 2.539453-4.286289 8.310937-4.18625 12.420234.100039 4.18625 1.277422 9.218984 5.4175 11.21207 4.101602 1.739141 8.287852.407852 12.304805-.800312.038477 1.346679.069258 2.685664.084649 4.040039-5.502149 2.146992-12.451016 2.470195-17.33754-1.269727-4.701835-3.801484-5.602187-9.496015-5.448281-15.213633.238555-5.479062 1.816094-10.888867 6.741094-13.92082 5.309766-3.101211 10.642617-2.200859 16.306367-.831094zm0 0" stroke="#000"/><path d="m124.169037 69.98207c-.515586 1.285117-1.038868 2.585625-1.562149 3.878438-4.355547-1.369766-9.996211-3.208946-14.244023-.60793-2.339375 1.508281-2.062344 4.771094.053867 6.348633 4.040039 2.801093 10.073164 3.655273 14.005469 6.995039 4.140078 3.82457 2.901132 11.273633-2.162383 13.720742-5.556016 2.654883-12.681875 2.154687-18.176328-.446328.01539-1.59293.023086-3.170469.023086-4.763399 4.963476 2.385547 10.465625 4.286289 15.790781 1.769922 2.785703-1.308203 3.093516-5.648359.592539-7.356719-4.178555-3.031953-10.019297-3.793789-13.913125-7.079687-3.855352-3.270508-3.08582-10.080859 1.323594-12.527969 5.671445-3.162773 12.44332-2.016172 18.268672.069258zm0 0" stroke="#000"/><path d="m172.072357 67.958203c2.955.138515 6.610273 1.00039 8.464844 3.524453 1.839179 2.524062 1.939218 5.509844 1.954609 8.518711-.038477 6.995039-.023086 13.997773-.030781 21.000508-1.192774 0-2.393242.007695-3.593711 0-.300117-1.554453-.60793-3.101211-.908047-4.655664-2.016172 2.185468-3.709141 4.31707-6.718008 5.132773-3.970781 1.108125-9.311328.777227-12.274023-2.439414-3.67836-4.332461-2.893438-11.966211 2.524062-14.567227 4.778789-2.431718 11.06586-2.400937 16.329453-2.524062-.223164-3.247422.292422-7.01043-2.847265-9.049688-4.270899-2.170078-9.080469-.14621-13.174375 1.439024-.507891-1.23125-1.031172-2.470195-1.546758-3.701445 3.816875-1.585235 7.610664-2.878047 11.82-2.677969zm5.594492 17.999336c-4.155469.153906-9.049687.023086-12.889648 1.793008-3.670664 1.616015-4.124688 7.941562-.300118 9.588359 3.632188 1.523672 8.811133.584844 11.350586-2.562539 2.08543-2.677969 1.700664-5.625274 1.83918-8.818828zm0 0" stroke="#000"/><path d="m213.173021 69.98207c-.523281 1.285117-1.046563 2.585625-1.562148 3.878438-4.363243-1.369766-10.003907-3.208946-14.251719-.60793-2.339375 1.508281-2.062344 4.771094.061562 6.348633 4.040039 2.801093 10.065469 3.655273 13.997774 6.995039 4.140078 3.82457 2.901133 11.281328-2.154688 13.720742-5.563711 2.654883-12.681875 2.154687-18.184023-.446328.023086-1.59293.030781-3.170469.030781-4.763399 4.955781 2.385547 10.45793 4.286289 15.790781 1.769922 2.778008-1.308203 3.085821-5.648359.584844-7.356719-4.178555-3.031953-10.019297-3.793789-13.90543-7.079687-3.863047-3.270508-3.093515-10.080859 1.315899-12.527969 5.671445-3.162773 12.44332-2.016172 18.276367.069258zm0 0" stroke="#000"/><path d="m268.171419 69.98207c-.523281 1.285117-1.038867 2.585625-1.562148 3.878438-4.355547-1.369766-9.996211-3.208946-14.236328-.60793-2.354766 1.508281-2.070039 4.771094.046172 6.348633 4.040039 2.801093 10.073164 3.655273 13.997773 6.995039 4.140078 3.82457 2.901133 11.281328-2.154687 13.720742-5.563711 2.654883-12.681875 2.154687-18.184024-.446328.023086-1.59293.030781-3.170469.030781-4.763399 4.963477 2.385547 10.45793 4.286289 15.790782 1.769922 2.778008-1.308203 3.093515-5.648359.592539-7.356719-4.178555-3.031953-10.019297-3.793789-13.913125-7.079687-3.855352-3.270508-3.085821-10.080859 1.323594-12.527969 5.66375-3.162773 12.435625-2.016172 18.268671.069258zm0 0" stroke="#000"/><path d="m287.178841 68.219843c4.724922-.861875 10.242461.392461 13.497578 4.093907 2.955 3.208945 4.024649 7.449062 4.163164 11.696875.10004 4.278593-.523281 9.088164-3.21664 12.581836-4.932695 6.91039-16.583399 7.310547-22.124024.946523-2.608711-2.931914-3.832265-6.656445-4.055429-10.542578-.284727-4.524844.277031-9.73457 3.024258-13.512969 2.062343-2.901133 5.232812-4.671054 8.711093-5.263594zm-.700273 4.293985c-3.647578 1.385156-5.340547 4.79418-5.848438 8.472539-.500195 4.124687-.407851 9.034297 1.600625 12.751133 2.431719 4.640273 9.149727 5.532929 13.259024 2.739531 3.070429-2.200859 4.001562-5.879219 4.209336-9.465234.238554-4.078516.053867-8.73418-2.647188-12.058555-2.370156-3.07043-7.102773-3.586016-10.573359-2.439414zm0 0" stroke="#000"/><path d="m346.578958 67.958203c-.192382 1.469805-.361679 2.939609-.50789 4.409414-2.054649-.207774-3.847656-.700274-5.902305-.107734-4.209336 1.392851-6.879609 5.43289-7.079687 9.788437-.238555 6.310156-.007696 12.643398-.092344 18.953555-1.616016 0-3.247422 0-4.863438 0 .007696-10.673399 0-21.331407 0-32.004805 1.34668.015391 2.685664.015391 4.040039 0 .176993 1.916133.338594 3.82457.507891 5.733008 1.639102-2.193164 3.016563-4.263203 5.509844-5.579102 2.670273-1.4775 5.440586-1.100429 8.38789-1.192773zm0 0" stroke="#000"/><path d="m286.478568 72.513828c3.470586-1.146602 8.203203-.631016 10.573359 2.439414 2.701055 3.324375 2.885742 7.980039 2.647188 12.058555-.207774 3.586015-1.138907 7.264375-4.209336 9.465234-4.109297 2.793398-10.827305 1.900742-13.259024-2.739531-2.008476-3.716836-2.10082-8.626446-1.600625-12.751133.507891-3.678359 2.20086-7.087383 5.848438-8.472539zm0 0" stroke="#fff"/><path d="m177.666849 85.957539c-.138516 3.193554.24625 6.140859-1.83918 8.818828-2.539453 3.147383-7.718398 4.086211-11.350586 2.562539-3.82457-1.646797-3.370546-7.972344.300118-9.588359 3.839961-1.769922 8.734179-1.639102 12.889648-1.793008zm0 0" stroke="#fff"/><path d="m127.870482 106.003828h27.125976v3.993867c-9.034296 0-18.083984 0-27.125976 0 0-1.331289 0-2.670273 0-3.993867zm0 0" stroke="#000"/><path d="m215.86638 106.003828h27.133672v3.993867c-9.041992 0-18.091679 0-27.133672 0 0-1.331289 0-2.670273 0-3.993867zm0 0" stroke="#000"/></g><path d="m4.144531 54.484375h182.742188v91.371094h-182.742188zm158.949219 27.917969c.007812 7.78125.007812 15.570312 0 23.351562h2.472656c0-7.78125 0-15.570312 0-23.351562-.820312 0-1.648437 0-2.472656 0zm-153.359375 23.351562h2.570313c.871093-2.371094 1.773437-4.730468 2.648437-7.101562 2.917969-.007813 5.835937-.027344 8.761719.015625.847656 2.382812 1.785156 4.730469 2.679687 7.09375.867188-.007813 1.734375-.019531 2.605469-.027344-2.863281-7.277344-5.726562-14.554687-8.558594-21.84375-.894531.183594-2.179687-.402344-2.40625.792969-2.769531 6.992187-5.539062 14.058594-8.300781 21.070312zm37.78125-19.695312c-.3125 1.089844-.617187 2.1875-.957031 3.269531-1.144532.621094-2.429688.597656-2.507813 2.191406.832031.015625 1.667969.023438 2.5.03125.015625 3.386719-.035156 6.769531.011719 10.15625.019531 1.632813.691406 3.425781 2.292969 4.101563 1.671875.746094 3.253906.4375 4.976562.113281-.011719-.65625-.011719-1.304687-.007812-1.960937-1.214844.171874-2.445313.574218-3.597657-.066407-.949218-.589843-1.214843-1.644531-1.207031-2.699219-.019531-3.21875.015625-6.433593 0-9.652343 1.578125-.003907 3.15625-.003907 4.738281-.007813-.003906-.675781-.003906-1.34375 0-2.019531-1.582031-.007813-3.160156-.007813-4.738281-.011719.003907-1.199218-.007812-2.394531 0-3.589844-.503906.046876-1 .09375-1.503906.144532zm-5.203125 19.421875c-.007812-.6875-.023438-1.367188-.046875-2.050781-2.035156.613281-4.160156 1.289062-6.242187.40625-2.101563-1.011719-2.699219-3.566407-2.75-5.691407-.050782-2.085937.234374-5.015625 2.125-6.304687 2.050781-1.386719 4.214843-.765625 6.375-.070313.265624-.707031.484374-1.417969.671874-2.144531-2.875-.695312-5.585937-1.152344-8.28125.421875-2.496093 1.539063-3.296874 4.285156-3.417968 7.066406-.078125 2.902344.378906 5.792969 2.765625 7.722657 2.480469 1.898437 6.007812 1.734374 8.800781.644531zm13.664062-2.71875c0 .808593-.003906 1.609375-.015624 2.417969 2.792968 1.320312 6.40625 1.574218 9.230468.226562 2.566406-1.242188 3.199219-5.023438 1.097656-6.964844-1.996093-1.695312-5.058593-2.128906-7.109374-3.550781-1.074219-.800781-1.21875-2.457031-.027344-3.222656 2.15625-1.320313 5.019531-.386719 7.230468.308593.265626-.65625.527344-1.316406.792969-1.96875-2.960937-1.058593-6.394531-1.640624-9.273437-.035156-2.238282 1.242188-2.628906 4.699219-.671875 6.359375 1.976562 1.667969 4.941406 2.054688 7.0625 3.59375 1.269531.867188 1.113281 3.070313-.300781 3.734375-2.703126 1.277344-5.496094.3125-8.015626-.898437zm29.515626-12.421875c.261718.625.527343 1.253906.785156 1.878906 2.078125-.804688 4.519531-1.832031 6.683594-.730469 1.597656 1.035157 1.335937 2.945313 1.449218 4.59375-2.671875.0625-5.863281.046875-8.289062 1.28125-2.753906 1.320313-3.148438 5.195313-1.28125 7.394531 1.503906 1.632813 4.214844 1.800782 6.230468 1.238282 1.527344-.414063 2.386719-1.496094 3.410157-2.605469.152343.789063.308593 1.574219.460937 2.363281.609375.003906 1.21875 0 1.824219 0 .003906-3.554687-.007813-7.109375.015625-10.660156-.007812-1.527344-.058594-3.042969-.992188-4.324219-.941406-1.28125-2.796874-1.71875-4.296874-1.789062-2.136719-.101563-4.0625.554687-6 1.359375zm15.664062 12.421875c0 .808593-.003906 1.609375-.015625 2.417969 2.792969 1.320312 6.40625 1.574218 9.226563.226562 2.570312-1.238281 3.199218-5.023438 1.097656-6.964844-1.996094-1.695312-5.054688-2.128906-7.105469-3.550781-1.078125-.800781-1.21875-2.457031-.03125-3.222656 2.15625-1.320313 5.019531-.386719 7.234375.308593.261719-.65625.527344-1.316406.792969-1.96875-2.960938-1.058593-6.398438-1.640624-9.277344-.035156-2.238281 1.242188-2.628906 4.699219-.667969 6.359375 1.972656 1.667969 4.9375 2.054688 7.058594 3.59375 1.269531.867188 1.113281 3.070313-.296875 3.734375-2.707031 1.277344-5.5.3125-8.015625-.898437zm27.917969 0c0 .808593-.003907 1.609375-.015625 2.417969 2.792968 1.320312 6.40625 1.574218 9.230468.226562 2.566407-1.238281 3.195313-5.023438 1.09375-6.964844-1.992187-1.695312-5.054687-2.128906-7.105468-3.550781-1.074219-.800781-1.21875-2.457031-.023438-3.222656 2.152344-1.320313 5.011719-.386719 7.226563.308593.265625-.65625.527343-1.316406.792969-1.96875-2.960938-1.058593-6.398438-1.640624-9.273438-.035156-2.242188 1.242188-2.632812 4.699219-.671875 6.359375 1.976563 1.667969 4.9375 2.054688 7.0625 3.59375 1.269531.867188 1.109375 3.070313-.300781 3.734375-2.707032 1.277344-5.496094.3125-8.015625-.898437zm20.847656-13.648438c-1.765625.300781-3.375 1.199219-4.421875 2.671875-1.394531 1.917969-1.679688 4.5625-1.539062 6.859375.117187 1.972657.738281 3.863281 2.0625 5.351563 2.8125 3.230468 8.726562 3.027344 11.230468-.480469 1.367188-1.773437 1.683594-4.214844 1.632813-6.386719-.070313-2.15625-.613281-4.308594-2.113281-5.9375-1.652344-1.878906-4.457032-2.515625-6.851563-2.078125zm23.097656 3.304688c-.085937-.96875-.167969-1.9375-.261719-2.910157-.683593.007813-1.363281.007813-2.050781 0 0 5.417969.007813 10.828126 0 16.246094h2.472657c.042968-3.203125-.074219-6.417968.046874-9.621094.101563-2.210937 1.457032-4.261718 3.59375-4.96875 1.039063-.300781 1.953126-.050781 2.996094.054688.074219-.746094.160156-1.492188.257813-2.238281-1.496094.046875-2.902344-.144531-4.257813.605469-1.265625.667968-1.964844 1.71875-2.796875 2.832031zm-103.964843 15.875v2.027343h13.769531c0-.675781 0-1.355468 0-2.027343-4.585938 0-9.179688 0-13.769531 0zm44.667968 0v2.027343h13.773438c0-.675781 0-1.355468 0-2.027343-4.589844 0-9.183594 0-13.773438 0zm0 0" fill="#fff"/><path d="m163.09375 82.402344h2.472656v23.351562c-.820312 0-1.648437 0-2.472656 0 .007812-7.78125.007812-15.570312 0-23.351562zm0 0"/><path d="m20.441406 83.890625c2.832032 7.289063 5.695313 14.566406 8.558594 21.84375-.871094.007813-1.738281.019531-2.605469.027344-.894531-2.363281-1.832031-4.710938-2.679687-7.09375-2.925782-.042969-5.84375-.023438-8.761719-.015625-.875 2.371094-1.777344 4.730468-2.648437 7.101562-.859376 0-1.710938 0-2.570313 0 2.761719-7.011718 5.53125-14.078125 8.300781-21.070312.226563-1.195313 1.511719-.609375 2.40625-.792969zm-1.082031 2.90625c-.902344 3.382813-2.332031 6.519531-3.507813 9.808594 2.351563.015625 4.695313.015625 7.046876 0-1.191407-3.257813-2.542969-6.480469-3.539063-9.808594zm0 0"/><path d="m47.515625 86.058594c.503906-.050782 1-.097656 1.503906-.144532-.007812 1.195313.003907 2.390626 0 3.589844 1.578125.003906 3.15625.003906 4.738281.011719-.003906.675781-.003906 1.34375 0 2.019531-1.582031.003906-3.160156.003906-4.738281.007813.015625 3.21875-.019531 6.433593 0 9.652343-.007812 1.054688.257813 2.109376 1.207031 2.699219 1.152344.640625 2.382813.238281 3.597657.066407-.003907.65625-.003907 1.304687.007812 1.960937-1.722656.324219-3.304687.632813-4.976562-.113281-1.601563-.675782-2.273438-2.46875-2.292969-4.101563-.046875-3.386719.003906-6.769531-.011719-10.15625-.832031-.007812-1.667969-.015625-2.5-.03125.078125-1.59375 1.363281-1.570312 2.507813-2.191406.339844-1.082031.644531-2.179687.957031-3.269531zm0 0"/><path d="m19.359375 86.796875c.996094 3.328125 2.347656 6.550781 3.539063 9.808594-2.351563.015625-4.695313.015625-7.046876 0 1.175782-3.289063 2.605469-6.425781 3.507813-9.808594zm0 0" fill="#fff"/><path d="m42.445312 89.625c-.1875.726562-.40625 1.4375-.671874 2.144531-2.160157-.695312-4.324219-1.316406-6.375.070313-1.890626 1.289062-2.175782 4.21875-2.125 6.304687.050781 2.125.648437 4.679688 2.75 5.691407 2.082031.882812 4.207031.207031 6.242187-.40625.023437.683593.039063 1.363281.046875 2.050781-2.792969 1.089843-6.320312 1.253906-8.800781-.644531-2.386719-1.929688-2.84375-4.820313-2.765625-7.722657.121094-2.78125.921875-5.527343 3.417968-7.066406 2.695313-1.574219 5.40625-1.117187 8.28125-.421875zm0 0"/><path d="m67.175781 90.007812c-.265625.652344-.527343 1.3125-.792969 1.96875-2.210937-.695312-5.074218-1.628906-7.230468-.308593-1.191406.765625-1.046875 2.421875.027344 3.222656 2.050781 1.421875 5.113281 1.855469 7.109374 3.550781 2.101563 1.941406 1.46875 5.722656-1.097656 6.964844-2.824218 1.347656-6.4375 1.09375-9.230468-.226562.011718-.808594.015624-1.609376.015624-2.417969 2.519532 1.210937 5.3125 2.175781 8.015626.898437 1.414062-.664062 1.570312-2.867187.300781-3.734375-2.121094-1.539062-5.085938-1.925781-7.0625-3.59375-1.957031-1.660156-1.566407-5.117187.671875-6.359375 2.878906-1.605468 6.3125-1.023437 9.273437.035156zm0 0"/><path d="m91.492188 88.980469c1.5.070312 3.355468.507812 4.296874 1.789062.933594 1.28125.984376 2.796875.992188 4.324219-.023438 3.550781-.011719 7.105469-.015625 10.660156-.605469 0-1.214844.003906-1.824219 0-.152344-.789062-.308594-1.574218-.460937-2.363281-1.023438 1.109375-1.882813 2.191406-3.410157 2.605469-2.015624.5625-4.726562.394531-6.230468-1.238282-1.867188-2.199218-1.472656-6.074218 1.28125-7.394531 2.425781-1.234375 5.617187-1.21875 8.289062-1.28125-.113281-1.648437.148438-3.558593-1.449218-4.59375-2.164063-1.101562-4.605469-.074219-6.683594.730469-.257813-.625-.523438-1.253906-.785156-1.878906 1.9375-.804688 3.863281-1.460938 6-1.359375zm2.839843 9.136719c-2.109375.078124-4.59375.011718-6.542969.910156-1.863281.820312-2.09375 4.03125-.152343 4.867187 1.84375.773438 4.472656.296875 5.761719-1.300781 1.058593-1.359375.863281-2.855469.933593-4.476562zm0 0"/><path d="m112.355469 90.007812c-.265625.652344-.53125 1.3125-.792969 1.96875-2.214844-.695312-5.078125-1.628906-7.234375-.308593-1.1875.765625-1.046875 2.421875.03125 3.222656 2.050781 1.421875 5.109375 1.855469 7.105469 3.550781 2.101562 1.941406 1.472656 5.726563-1.097656 6.964844-2.820313 1.347656-6.433594 1.09375-9.226563-.226562.011719-.808594.015625-1.609376.015625-2.417969 2.515625 1.210937 5.308594 2.175781 8.015625.898437 1.410156-.664062 1.566406-2.867187.296875-3.734375-2.121094-1.539062-5.085938-1.925781-7.058594-3.59375-1.960937-1.660156-1.570312-5.117187.667969-6.359375 2.878906-1.605468 6.316406-1.023437 9.277344.035156zm0 0"/><path d="m140.273438 90.007812c-.265626.652344-.527344 1.3125-.792969 1.96875-2.214844-.695312-5.074219-1.628906-7.226563-.308593-1.195312.765625-1.050781 2.421875.023438 3.222656 2.050781 1.421875 5.113281 1.855469 7.105468 3.550781 2.101563 1.941406 1.472657 5.726563-1.09375 6.964844-2.824218 1.347656-6.4375 1.09375-9.230468-.226562.011718-.808594.015625-1.609376.015625-2.417969 2.519531 1.210937 5.308593 2.175781 8.015625.898437 1.410156-.664062 1.570312-2.867187.300781-3.734375-2.125-1.539062-5.085937-1.925781-7.0625-3.59375-1.960937-1.660156-1.570313-5.117187.671875-6.359375 2.875-1.605468 6.3125-1.023437 9.273438.035156zm0 0"/><path d="m149.921875 89.113281c2.394531-.4375 5.199219.199219 6.851563 2.078125 1.5 1.628906 2.042968 3.78125 2.113281 5.9375.050781 2.171875-.265625 4.613282-1.632813 6.386719-2.503906 3.507813-8.417968 3.710937-11.230468.480469-1.324219-1.488282-1.945313-3.378906-2.0625-5.351563-.140626-2.296875.144531-4.941406 1.539062-6.859375 1.046875-1.472656 2.65625-2.371094 4.421875-2.671875zm-.355469 2.179688c-1.851562.703125-2.710937 2.433593-2.96875 4.300781-.253906 2.09375-.207031 4.585938.8125 6.472656 1.234375 2.355469 4.644532 2.808594 6.730469 1.390625 1.558594-1.117187 2.03125-2.984375 2.136719-4.804687.121094-2.070313.027344-4.433594-1.34375-6.121094-1.203125-1.558594-3.605469-1.820312-5.367188-1.238281zm0 0"/><path d="m180.074219 88.980469c-.097657.746093-.183594 1.492187-.257813 2.238281-1.042968-.105469-1.957031-.355469-2.996094-.054688-2.136718.707032-3.492187 2.757813-3.59375 4.96875-.121093 3.203126-.003906 6.417969-.046874 9.621094-.820313 0-1.648438 0-2.472657 0 .007813-5.417968 0-10.828125 0-16.246094.6875.007813 1.367188.007813 2.050781 0 .09375.972657.175782 1.941407.261719 2.910157.832031-1.113281 1.53125-2.164063 2.796875-2.832031 1.355469-.75 2.761719-.558594 4.257813-.605469zm0 0"/><path d="m149.566406 91.292969c1.761719-.582031 4.164063-.320313 5.367188 1.238281 1.371094 1.6875 1.464844 4.050781 1.34375 6.121094-.105469 1.820312-.578125 3.6875-2.136719 4.804687-2.085937 1.417969-5.496094.964844-6.730469-1.390625-1.019531-1.886718-1.066406-4.378906-.8125-6.472656.257813-1.867188 1.117188-3.597656 2.96875-4.300781zm0 0" fill="#fff"/><path d="m94.332031 98.117188c-.070312 1.621093.125 3.117187-.933593 4.476562-1.289063 1.597656-3.917969 2.074219-5.761719 1.300781-1.941407-.835937-1.710938-4.046875.152343-4.867187 1.949219-.898438 4.433594-.832032 6.542969-.910156zm0 0" fill="#fff"/><path d="m69.054688 108.292969h13.769531v2.027343c-4.585938 0-9.179688 0-13.769531 0 0-.675781 0-1.355468 0-2.027343zm0 0"/><path d="m113.722656 108.292969h13.773438v2.027343c-4.589844 0-9.183594 0-13.773438 0 0-.675781 0-1.355468 0-2.027343zm0 0"/></svg>