<svg height="200" viewBox="0 0 200 200" width="200" xmlns="http://www.w3.org/2000/svg" xmlns:xlink="http://www.w3.org/1999/xlink"><linearGradient id="a" gradientUnits="userSpaceOnUse" x1="-41.41333851" x2="241.41336084333" y1="241.41336084333" y2="-41.41333851"><stop offset="0" stop-color="#2e27ad"/><stop offset="1" stop-color="#527fff"/></linearGradient><path d="m0 0h200v200h-200z" fill="url(#a)"/><g fill="#fff"><path d="m134 107.945312-17.625 17.601563c3.167969-.886719 6.230469-2.128906 9.117188-3.707031 1.710937 1.058594 2.867187 2.8125 3.175781 4.800781 0 4.878906-10.347657 10.1875-25.707031 12.347656-4.738282.640625-9.511719.976563-14.292969 1.011719h-2.667969c-21.546875-.507812-37.332031-7.308594-37.332031-13.332031.304687-1.988281 1.464843-3.742188 3.171875-4.800781 8.375 4.667968 21.945312 7.441406 36.828125 7.441406h.292969l1.492187-5.335938c-.585937 0-1.171875 0-1.785156 0-14.667969 0-28.269531-2.90625-35.496094-7.492187-2.878906-1.894531-4.480469-3.945313-4.503906-5.734375v-12.347656c8.160156 6.242187 24.425781 9.496093 40 9.496093 2.105469 0 4.210937 0 6.265625-.1875l1.519531-5.332031c-2.667969.183594-5.144531.265625-7.785156.265625-22.882813 0-40-7.015625-40-13.332031.304687-1.988282 1.464843-3.742188 3.171875-4.800782 7.359375 4.132813 18.667968 6.71875 31.492187 7.304688l.132813-5.332031c-12.613282-.613281-24-3.332031-30.292969-7.359375-2.851563-1.839844-4.453125-3.921875-4.503906-5.734375v-12.320313c8.160156 6.242188 24.425781 9.492188 40 9.492188h.585937l2.824219-5.332032h-3.410156c-22.882813 0-40-7.011718-40-13.332031 0-6.320312 17.117187-13.335937 40-13.335937 7.703125-.03125 15.386719.863281 22.878906 2.667968h14.640625c-8-4.878906-21.8125-8-37.519531-8-21.976563 0-45.335938 6.507813-45.335938 18.667969v21.464844c.164063 3.078125 1.628907 5.9375 4.027344 7.867187-2.429687 1.960938-3.898437 4.878907-4.027344 8v21.332032c.125 3.125 1.59375 6.039062 4.027344 8-2.429687 1.964844-3.898437 4.878906-4.027344 8v21.335937c-.015625.183594-.015625.371094 0 .558594.722657 11.707031 23.65625 18 45.335938 18 21.679687 0 44.613281-6.292969 45.332031-18.054687.027344-.183594.027344-.371094 0-.558594v-21.332032c-.101562-3.128906-1.574219-6.054687-4.027344-8 2.433594-1.960937 3.902344-4.878906 4.027344-8zm-5.332031 40c0 6.292969-17.121094 13.335938-40 13.335938-22.882813 0-40-6.960938-40-13.335938v-12.265624c8.160156 6.1875 24.425781 9.441406 40 9.441406 15.570312 0 31.839843-3.253906 40-9.441406zm0 0"/><path d="m60 73.386719c0 1.839843-1.492188 3.332031-3.332031 3.332031-1.84375 0-3.335938-1.492188-3.335938-3.332031 0-1.839844 1.492188-3.332031 3.335938-3.332031 1.839843 0 3.332031 1.492187 3.332031 3.332031zm0 0"/><path d="m60 110.71875c0 1.84375-1.492188 3.335938-3.332031 3.335938-1.84375 0-3.335938-1.492188-3.335938-3.335938 0-1.839844 1.492188-3.332031 3.335938-3.332031 1.839843 0 3.332031 1.492187 3.332031 3.332031zm0 0"/><path d="m60 148.054688c0 1.839843-1.492188 3.332031-3.332031 3.332031-1.84375 0-3.335938-1.492188-3.335938-3.332031 0-1.84375 1.492188-3.335938 3.335938-3.335938 1.839843 0 3.332031 1.492188 3.332031 3.335938zm0 0"/><path d="m95.332031 137.28125c-.46875-.007812-.929687-.136719-1.332031-.375-1.070312-.613281-1.578125-1.882812-1.226562-3.066406l14.988281-49.894532h-15.09375c-.949219.011719-1.832031-.476562-2.320313-1.289062-.488281-.8125-.507812-1.824219-.054687-2.65625l16-32c.453125-.898438 1.371093-1.464844 2.375-1.464844h34.664062c.878907-.046875 1.71875.34375 2.253907 1.042969.53125.699219.6875 1.613281.414062 2.449219l-6.828125 20.507812h14.960937c1.066407.003906 2.027344.640625 2.445313 1.621094.414063.976562.210937 2.113281-.523437 2.882812l-58.667969 61.335938c-.519531.589844-1.269531.917969-2.054688.90625zm1.65625-58.667969h14.34375c.839844 0 1.632813.394531 2.132813 1.066407.503906.671874.664062 1.542968.429687 2.347656l-12.828125 42.664062 46.695313-48.796875h-12.429688c-.882812.046875-1.730469-.347656-2.265625-1.054687-.535156-.703125-.683594-1.628906-.398437-2.464844l6.824219-20.480469h-29.332032zm0 0"/></g></svg>