<svg height="200" viewBox="0 0 200 200" width="200" xmlns="http://www.w3.org/2000/svg"><g transform="matrix(.93220339 0 0 .93220339 6.779661 53.389831)"><path d="m0 0h200v100h-200z" fill="#fff"/><path d="m6.039062 28.890625c3.367188.03125 6.738282-.07031 10.101563.04297 3.621094.332031 7.332031 1.289062 9.082031 4.820312 1.832032 4.046875 1.050782 9.886719-2.972656 12.390625-3.792969 2.535157-8.234375 2.1875-12.550781 2.195313.00781 4.070312.00781 8.144531 0 12.214844-1.214844 0-2.4375 0-3.660157 0-.003906-10.554689-.003906-21.109377 0-31.664064zm0 0"/><path d="m55.484375 28.890625h5.554687c3.355469 8.765625 6.707032 17.539063 10.132813 26.28125 3.429687-8.738281 6.800781-17.503906 10.207031-26.261719 1.832032-.03125 3.671875-.02734 5.511719-.01563v31.660157c-1.234375 0-2.46875 0-3.703125 0 .06641-9.449219-.203125-18.867188.261719-28.292969-3.660157 9.410156-7.339844 18.820312-10.921875 28.261719-1 .01953-2.003906.03906-3.003906.04297-3.195313-8.304687-6.378907-16.617187-9.566407-24.925781-.433593-1.0625-.75-2.269531-1.40625-3.210937.648438 9.332031.210938 18.769531.339844 28.125-1.136719 0-2.273437 0-3.40625 0-.0078-10.554688-.0078-21.109376 0-31.664063zm0 0"/><path d="m9.699219 32.226562c3.488281.08984 7.882812-.578124 10.828125 1.707032 2.863281 2.515625 2.332031 8.746094-1.511719 10.121094-3.054687 1.265624-6.09375.90625-9.316406.933593.00781-4.25.00781-8.503906 0-12.761719zm0 0" fill="#fff"/><path d="m101.37891 36.476562c3.6875-.910156 7.98828-.292968 10.71093 2.546876 2.89454 2.949218 3.52735 7.011718 3.30079 10.988281-.16797 3.878906-1.70704 7.628906-5.14454 9.683593-3.77343 2.109376-9.0625 1.964844-12.480465-.804687-2.75-2.210937-4.050781-6-4.136719-9.433594-.144531-3.367187.464844-7.136719 2.683594-9.800781 1.277344-1.613281 3.085938-2.667969 5.06641-3.179688zm0 0"/><path d="m138.19531 37.351562c2.31641 1.347657 3.14844 3.992188 3.22656 6.539063.0547 5.546875 0 11.109375.0273 16.660156-1.19922.0039-2.39844.0039-3.59766.0039-.0234-5.558594.0469-11.125-.0312-16.675782-.0742-2.09375-.99219-3.921875-3.04297-4.667968-2.32031-.667969-5.27734-.433594-7.22656 1.105468-1.78515 1.476563-2.23828 4.148438-2.32422 6.339844-.0156 4.632812.008 9.265625-.004 13.898438-1.21094 0-2.41797 0-3.62891 0-.004-7.960938-.004-15.921876 0-23.882813.97656-.0039 1.95703-.01172 2.94141-.01563.1914 1.066406.375 2.132812.54297 3.203125 3.01171-4.082031 8.80078-4.777344 13.11718-2.507813zm0 0"/><path d="m160.59375 36.578125c2.71875.214844 5.48437.02344 8.21094.08984.0117.730469.0234 1.464843.0352 2.191406-1.44922.222656-2.90625.375-4.35156.652344 2.16016 2.867187 2.0625 7.378906-.62109 9.882812-2.01563 1.910157-5.14063 2.460938-7.82422 2.226563-1.98828-.421875-3.75391 1.96875-3.16406 3.8125.40625.886718 1.24218 1.015625 2.10937 1.183594 2.39453.183593 4.82813-.08984 7.22266.117187 2.14843.316406 4.18359.949219 5.42968 2.867187 1.74219 2.84375.95313 7.09375-1.76171 9.078126-2.27735 1.757812-5.26954 2.175781-8.0625 2.421874-3.01172.148438-6.67579-.07422-9.17188-1.980468-2.73437-2.085938-3.02734-6.425782-.62109-8.882813.96093-1.054687 2.18359-1.453125 3.48047-1.953125-1.13672-.894531-2.02735-1.71875-1.96485-3.285156-.0156-1.984375 1.29297-3.078125 2.85156-4.035156-4.90625-2.226563-5.49609-9.542969-1.57421-12.921875 2.6875-2.136719 6.5625-2.308594 9.77734-1.464844zm0 0"/><path d="m179.71094 36.476562c3.6875-.910156 7.98828-.292968 10.71093 2.546876 2.89454 2.949218 3.52735 7.011718 3.30079 10.988281-.16797 3.878906-1.70704 7.628906-5.14454 9.683593-3.77343 2.109376-9.0625 1.964844-12.47656-.804687-2.75-2.210937-4.05078-6-4.14062-9.441406-.14453-3.359375.46875-7.128907 2.68359-9.792969 1.27734-1.613281 3.08984-2.667969 5.06641-3.179688zm0 0"/><path d="m28.929688 36.671875c1.292968-.0039 2.585937-.0039 3.886718-.0039 2.460938 6.796875 5.460938 13.488281 7.445313 20.441406 2.042969-6.910156 4.722656-13.636719 7.117187-20.429687 1.289063-.01172 2.570313-.01172 3.859375-.01172-3.472656 9.171875-6.917969 18.347656-10.394531 27.519531-.882812 2.183594-2.105469 4.539062-4.160156 5.816406-2.34375 1.390625-4.90625 1.316406-7.484375.742188.01563-.917969.03516-1.835938.05078-2.75 2.066406.605468 4.472656.605468 6.121094-.957032 1.65625-1.5625 2.296875-4.289062 3.140625-6.355468-3.234375-7.988282-6.367188-16.015625-9.582031-24.011719zm0 0"/><g fill="#fff"><path d="m102.89453 39.011719c2.46485-.445313 4.98438.03125 6.6875 1.964843 1.84766 2.117188 2.16797 5.222657 2.15625 7.914063-.0937 2.570313-.40625 5.324219-2.15625 7.355469-2.09375 2.4375-5.98828 2.691406-8.6875 1.199218-2.449218-1.511718-3.234374-4.328124-3.476561-7.027343-.132813-2.921875-.167969-5.816407 1.292969-8.445313.871093-1.605468 2.398442-2.628906 4.183592-2.960937zm0 0"/><path d="m155.64453 38.976562c2.27734-.34375 5.25391.0078 6.31641 2.382813.97265 2.195313.66797 6.128906-1.98828 7.046875-2.13282.867188-5.17188.722656-6.9336-.890625-2.35156-2.683594-1.34375-7.980469 2.60547-8.539063zm0 0"/><path d="m181.22656 39.011719c2.46875-.445313 4.98438.03125 6.69141 1.964843 1.84375 2.117188 2.16406 5.222657 2.15234 7.914063-.0937 2.570313-.40234 5.324219-2.15234 7.355469-2.09766 2.4375-5.98828 2.691406-8.69141 1.199218-2.44922-1.511718-3.23047-4.328124-3.47656-7.027343-.13281-2.921875-.16797-5.816407 1.29297-8.445313.875-1.605468 2.40234-2.628906 4.18359-2.960937zm0 0"/><path d="m157.22266 59.4375c2.19921.04687 4.46093-.226562 6.52343.695312 1.69922 1.046876 1.61328 3.832032.63282 5.339844-1.2461 1.957032-3.91797 2.566406-6.06641 2.800782-2.26953.171874-5.14063.226562-7.07422-1.164063-2.17578-1.597656-1.67187-5.636719.64453-6.902344 1.69922-1.023437 3.44922-.722656 5.33985-.769531zm0 0"/></g></g></svg>