<svg xmlns="http://www.w3.org/2000/svg" x="0px" y="0px" width="240" height="240" viewBox="0 0 172 172" style=" fill:#000000;"><g transform=""><g fill="none" fill-rule="nonzero" stroke="none" stroke-width="1" stroke-linecap="butt" stroke-linejoin="miter" stroke-miterlimit="10" stroke-dasharray="" stroke-dashoffset="0" font-family="none" font-weight="none" font-size="none" text-anchor="none" style="mix-blend-mode: normal"><path d="M0,172v-172h172v172z" fill="none"></path><g><path d="M126.58842,28.939c-5.21017,1.21117 -7.68625,4.429 -9.57467,4.4075c2.44383,-4.515 6.56108,-8.47817 10.56008,-14.22225c3.96675,-5.74408 -3.75533,-11.57058 -10.11575,-6.34967c-6.69725,5.45383 -5.70825,8.30617 -8.96908,14.8995c-1.06067,3.827 -2.92758,4.08142 -4.51142,0.69875c-1.86692,-3.36833 -2.709,-7.51783 -5.63658,-10.10858c-4.69058,-4.11008 -10.0405,-1.075 -7.17383,3.53317c2.838,4.66192 4.12442,9.546 5.26392,17.20358c1.64117,11.43442 -3.139,24.2305 -9.38833,30.28633c-11.30183,-23.38483 -25.98275,-40.73892 -36.36008,-46.07092c-3.12825,-1.61967 -4.085,-0.31175 -4.085,1.19683c1.97442,22.92617 2.69108,38.80392 1.43692,50.53217c-0.56617,5.203 -12.78175,24.58525 -12.17258,29.11458c0.61275,4.52933 4.22117,11.45233 6.63275,15.03567c-0.989,-0.71667 -3.41492,0.95675 -2.82008,3.23217c-4.36092,2.47967 -3.99183,6.41775 0.47658,7.42467c1.16817,3.01 1.36883,4.45767 4.58308,5.88742c-0.60917,6.38908 -1.29,13.13292 -1.935,20.32467c2.91325,14.44083 24.983,-10.70342 27.82458,-12.78533c15.33308,-11.35917 17.71242,13.4805 28.43375,17.33617c17.99192,6.56108 12.26217,-31.87733 -2.28258,-69.63492c-1.66983,-24.25558 6.22783,-31.18933 13.98933,-34.39283c4.07783,-1.34375 7.14517,-1.51933 12.68858,0.11108c9.54958,2.78067 11.65658,-8.18792 3.139,-9.53883c-3.21783,-0.48733 -5.67242,-0.4945 -8.67883,-1.88483c1.24342,-4.78375 6.03075,-5.15642 10.7285,-5.80142c10.73208,-1.5695 9.93658,-13.29417 -2.05325,-10.43467zM43.559,119.47908l0.10033,-0.1075c0,0 0,0.00717 0.00358,0.00717zM47.31433,111.1335c-1.17892,-3.11392 -2.74842,-3.49017 -3.60483,-6.34608c1.73433,-1.90275 2.90967,-5.69392 4.64758,-8.77558c-0.387,5.57925 -0.50883,9.374 -1.04275,15.12167zM55.74233,61.71575c3.17842,-6.26725 9.92583,-9.85775 15.04283,-8.09117c5.17433,1.763 6.79042,8.24883 3.61917,14.46233c-3.15692,6.26725 -9.8685,9.85058 -15.03208,8.08758c-5.13133,-1.763 -6.74025,-8.24883 -3.62992,-14.45875z" fill="#000000"></path><path d="M55.74233,61.71575c3.17842,-6.26725 9.92583,-9.85775 15.04283,-8.09117c5.17433,1.763 6.79042,8.24883 3.61917,14.46233c-3.15692,6.26725 -9.8685,9.85058 -15.03208,8.08758c-5.13133,-1.763 -6.74025,-8.24883 -3.62992,-14.45875z" fill="#e74c3c"></path><path d="M89.87,132.77325c1.01767,1.87767 9.49942,13.47333 8.73617,2.752c-1.63042,-22.49975 -9.86133,-42.30483 -18.50792,-58.953c-8.55342,17.03158 -21.82967,9.87567 -21.82967,9.87567c-0.51958,19.72625 -1.71283,21.92283 -4.02767,38.83258c-4.44692,41.09725 18.13167,-24.424 35.62908,7.49275zM62.1995,68.52767c1.46558,-1.60892 1.90633,-4.14592 1.0105,-5.71183c-0.93167,-1.51217 -2.84875,-1.4835 -4.30717,0.12183c-1.45483,1.6125 -1.89917,4.19608 -1.00692,5.71183c0.89583,1.52292 2.84158,1.4835 4.30358,-0.12183z" fill="#ffffff"></path></g><path d="" fill="none"></path><path d="" fill="none"></path><path d="" fill="none"></path><path d="" fill="none"></path><path d="" fill="none"></path></g></g></svg>