<svg width="79" height="32" viewBox="0 0 79 32" fill="none" xmlns="http://www.w3.org/2000/svg">
  <path d="M36.2872 1.93534V0.292063H40.4457V16.4793C40.4671 17.8991 40.1565 19.3041 39.5385 20.5836C38.9469 21.7852 38.0054 22.7811 36.8369 23.4409C35.5026 24.1658 33.9986 24.5233 32.4797 24.4768C30.4215 24.5744 28.3901 23.9794 26.7122 22.7875C25.2521 21.6565 24.3 19.9961 24.0635 18.1683H28.1557C28.3667 18.9604 28.8583 19.6498 29.5397 20.1086C30.3289 20.6087 31.2542 20.8528 32.1884 20.8078C32.7311 20.8318 33.2731 20.7487 33.7834 20.563C34.2936 20.3772 34.7621 20.0927 35.1616 19.7259C35.5692 19.284 35.8804 18.7623 36.0753 18.1944C36.2702 17.6264 36.3446 17.0245 36.2939 16.4264V13.2127C35.8898 14.2943 35.1498 15.2191 34.1816 15.8522C33.1189 16.5325 31.8749 16.8775 30.6123 16.8421C29.296 16.8599 28.0008 16.5126 26.8711 15.839C25.7355 15.1392 24.8306 14.1227 24.2686 12.9156C23.6488 11.5003 23.3289 9.97278 23.3289 8.42852C23.3289 6.88426 23.6488 5.35676 24.2686 3.94142C24.8306 2.73613 25.7357 1.72164 26.8711 1.02445C27.9995 0.34793 29.2956 0.000409672 30.6123 0.0214059C31.9963 0.0873946 35.1814 0.0876523 36.2872 1.93534ZM28.7648 5.00374C27.9922 6.00327 27.5732 7.22962 27.5732 8.49135C27.5732 9.75307 27.9922 10.9791 28.7648 11.9786C29.6091 12.792 30.7394 13.244 31.9137 13.2378C33.0881 13.2317 34.2132 12.768 35.0489 11.9458C35.8503 10.9678 36.288 9.74398 36.288 8.48136C36.288 7.21874 35.8503 5.9949 35.0489 5.01695C34.6472 4.59476 34.1607 4.26176 33.6209 4.04001C33.0812 3.81826 32.5004 3.71263 31.9168 3.73005C31.3305 3.7047 30.7457 3.80545 30.2019 4.02519C29.658 4.24494 29.1679 4.57865 28.7648 5.00374Z" fill="#0F2832"/>
  <path d="M32.9763 32.0003C31.9815 32.0008 30.9879 31.93 30.0031 31.7889C23.0371 30.7793 17.594 26.4638 16.1306 20.7954C15.7865 18.8622 15.6598 16.8965 15.7531 14.9354C15.7531 14.6516 15.7531 14.3877 15.7531 14.1501V7.15527H19.9248V14.1501C19.9248 14.4009 19.9248 14.6716 19.9248 14.9686C19.8527 16.5696 19.9347 18.1737 20.1698 19.7592C21.2094 23.8043 25.3083 26.9123 30.599 27.6778C34.6582 28.2651 39.8696 27.4073 42.4123 23.2632L43.0745 21.9763C45.1603 17.7398 49.736 17.7002 52.186 17.6738H53.7091C54.1511 17.6094 54.5802 17.476 54.9804 17.2782C55.7246 16.9152 56.352 16.3519 56.792 15.6523C57.232 14.9526 57.4669 14.1445 57.4702 13.3188V7.18169H61.6419V13.3188C61.6397 15.4027 60.8764 17.4144 59.4945 18.9785C58.1127 20.5425 56.2068 21.552 54.1328 21.8181H54.0136H52.2258C48.9149 21.8511 47.5309 22.346 46.8157 23.7978L46.0543 25.3154C43.4784 29.5452 38.6313 32.0003 32.9763 32.0003Z" fill="#0F2832"/>
  <path d="M48.021 2.35105V0.212859H43.8294V15.8194C43.8287 15.8804 43.8437 15.9405 43.873 15.9941C43.9023 16.0476 43.9449 16.0928 43.9967 16.1252C44.0485 16.1577 44.1079 16.1763 44.169 16.1793C44.2302 16.1824 44.2911 16.1697 44.3459 16.1426C45.4258 15.6395 46.5617 15.2652 47.7297 15.0274C47.8109 15.0109 47.8841 14.9673 47.9371 14.9037C47.9901 14.8401 48.0197 14.7605 48.021 14.6778V8.73887C48.021 5.89256 49.5661 4.46926 52.6562 4.46926H53.8747V0.00181153C52.5901 -0.0245839 49.2328 0.213014 48.021 2.35105Z" fill="#0F2832"/>
  <path d="M17.9185 5.36711L17.488 4.42367C17.2414 3.89095 16.8083 3.46621 16.2697 3.22924L15.3162 2.82648L16.2565 2.39762C16.7944 2.15335 17.2217 1.71804 17.455 1.17676L17.8655 0.226562L18.296 1.16387C18.539 1.70144 18.9763 2.12766 19.5209 2.35798L20.4678 2.76719L19.5276 3.19605C18.9896 3.44032 18.5623 3.87563 18.329 4.41691L17.9185 5.36711Z" fill="#0F2832"/>
  <path d="M7.82696 8.01321V3.69752H7.76068H11.9192V0.173828H0V3.69752H3.56922V7.76897C3.56922 7.82176 3.56922 7.86133 3.56922 7.90752V7.99323C3.56922 12.3881 5.43646 17.5155 11.9192 17.5155V14.1039C8.60828 14.1237 7.82696 11.5766 7.82696 8.01321Z" fill="#0F2832"/>
  <path d="M59.556 5.36711L59.1257 4.42367C58.8785 3.88907 58.4423 3.46385 57.9006 3.22924L56.9471 2.82648L57.8939 2.39762C58.4304 2.15126 58.8571 1.71662 59.0925 1.17676L59.5031 0.226562L59.9269 1.16387C60.1698 1.70144 60.6073 2.12766 61.152 2.35798L62.1055 2.76719L61.1652 3.19605C60.6273 3.44032 60.1999 3.87563 59.9666 4.41691L59.556 5.36711Z" fill="#0F2832"/>
  <path d="M77.7064 9.56404C77.0916 8.91743 76.3211 8.43791 75.4682 8.17145C74.3842 7.8479 73.2775 7.6052 72.1573 7.44551C71.1346 7.29899 70.1295 7.04922 69.1576 6.69991C68.8758 6.61223 68.6297 6.43682 68.4557 6.1992C68.2816 5.96158 68.1888 5.67433 68.1909 5.38014C68.1975 5.08957 68.2854 4.80663 68.4445 4.56302C68.6036 4.3194 68.8276 4.12487 69.0915 4.00108C69.9166 3.60894 70.8274 3.42965 71.7402 3.47974C73.4456 3.45529 75.1255 3.89318 76.6005 4.74668L78.1235 1.74432C77.2325 1.24124 76.2669 0.882383 75.2628 0.68167C74.1181 0.420204 72.9477 0.287656 71.7733 0.285995C69.8505 0.185655 67.9443 0.688575 66.3235 1.72434C65.6951 2.14808 65.184 2.72271 64.8368 3.395C64.4897 4.0673 64.3177 4.8157 64.3369 5.57153C64.2558 6.60411 64.5786 7.628 65.2376 8.42889C65.8573 9.1022 66.6458 9.59888 67.522 9.86756C68.6404 10.1974 69.7829 10.4398 70.939 10.5932C71.9266 10.7219 72.8998 10.9428 73.8459 11.2531C74.1119 11.3304 74.3446 11.4937 74.5076 11.7171C74.6705 11.9404 74.7546 12.2111 74.7465 12.4871C74.7465 13.7365 73.5611 14.3591 71.1905 14.3547C69.037 14.4032 66.895 14.0288 64.8866 13.2527V16.5521C66.8201 17.2734 68.8752 17.6161 70.939 17.5616C73.3096 17.5616 75.1835 17.0888 76.5608 16.1429C77.2017 15.7378 77.7274 15.1758 78.0879 14.5103C78.4485 13.8448 78.6317 13.0983 78.6201 12.3421C78.6892 11.333 78.3616 10.3366 77.7064 9.56404Z" fill="#0F2832"/>
</svg>