<?xml version="1.0" encoding="utf-8"?>
<!-- Generator: Adobe Illustrator 26.3.1, SVG Export Plug-In . SVG Version: 6.00 Build 0)  -->
<svg version="1.1" id="Layer_2_00000016754691480576630270000000894709682507391422_"
	 xmlns="http://www.w3.org/2000/svg" xmlns:xlink="http://www.w3.org/1999/xlink" x="0px" y="0px" viewBox="0 0 294 78"
	 style="enable-background:new 0 0 294 78;" xml:space="preserve">
<style type="text/css">
	.st0{fill:#006AED;}
</style>
<g>
	<path class="st0" d="M115,46.2c0,1.1-0.2,2.1-0.7,3c-0.4,0.8-1.1,1.6-1.9,2.1c-0.8,0.6-1.7,1-2.7,1.3s-2.1,0.4-3.3,0.4H94.2V26.4
		h13.6c0.9,0,1.8,0.2,2.5,0.6s1.4,0.9,1.9,1.6c0.5,0.6,0.9,1.4,1.2,2.2c0.3,0.8,0.4,1.6,0.4,2.5c0,1.3-0.3,2.5-1,3.7
		c-0.6,1.1-1.6,2-2.8,2.5c1.5,0.4,2.7,1.3,3.6,2.4C114.6,43,115,44.4,115,46.2z M99.4,30.9v6.7h6.3c0.9,0,1.6-0.3,2.2-0.9
		c0.6-0.6,0.9-1.4,0.9-2.5c0-1-0.3-1.8-0.8-2.4c-0.6-0.6-1.3-0.9-2.1-0.9C105.9,30.9,99.4,30.9,99.4,30.9z M109.8,45.2
		c0-0.5-0.1-0.9-0.2-1.4c-0.2-0.4-0.4-0.8-0.7-1.1c-0.3-0.3-0.6-0.6-1-0.8s-0.8-0.3-1.2-0.3h-7.3v7h7.1c0.5,0,0.9-0.1,1.3-0.3
		s0.8-0.4,1.1-0.7c0.3-0.3,0.5-0.7,0.7-1.1C109.7,46.1,109.8,45.7,109.8,45.2z"/>
	<path class="st0" d="M118.9,53V26.5h5.2V53H118.9z"/>
	<path class="st0" d="M148.3,31h-7.9v22h-5.2V31h-7.9v-4.5h20.9L148.3,31L148.3,31z"/>
	<path class="st0" d="M173.3,53V35.4l-6.9,13.1h-2.8l-6.9-13.1V53h-5.2V26.4h5.5l7.9,15.1l7.9-15.1h5.5V53H173.3z"/>
	<path class="st0" d="M194.7,53.2c-1.9,0-3.6-0.4-5.1-1.1c-1.5-0.8-2.9-1.8-4-3c-1.1-1.3-2-2.7-2.6-4.3s-0.9-3.3-0.9-5
		c0-1.8,0.3-3.5,1-5.1c0.6-1.6,1.5-3.1,2.7-4.3c1.1-1.2,2.5-2.2,4-3c1.5-0.7,3.2-1.1,5.1-1.1c1.9,0,3.6,0.4,5.1,1.2
		c1.5,0.8,2.9,1.8,4,3.1c1.1,1.3,1.9,2.7,2.5,4.3s0.9,3.3,0.9,4.9c0,1.8-0.3,3.5-1,5.1s-1.5,3-2.6,4.3c-1.1,1.2-2.5,2.2-4,3
		C198.2,52.8,196.5,53.2,194.7,53.2z M187.3,39.7c0,1.1,0.2,2.3,0.5,3.3c0.3,1.1,0.8,2,1.5,2.8c0.6,0.8,1.4,1.5,2.3,2
		c0.9,0.5,2,0.7,3.1,0.7c1.2,0,2.3-0.3,3.2-0.8s1.7-1.2,2.3-2s1.1-1.8,1.4-2.9c0.3-1.1,0.5-2.1,0.5-3.2c0-1.1-0.2-2.3-0.5-3.3
		c-0.3-1.1-0.8-2-1.5-2.8s-1.4-1.5-2.3-2c-0.9-0.5-1.9-0.7-3.1-0.7c-1.2,0-2.3,0.3-3.2,0.8s-1.7,1.2-2.3,2s-1.1,1.8-1.4,2.8
		C187.5,37.6,187.3,38.6,187.3,39.7z"/>
	<path class="st0" d="M232.5,53V26.5h5.2V53H232.5z"/>
	<path class="st0" d="M247.8,36v17h-5.2V26.4h4l13.9,17.5V26.5h5.2V53h-4.2L247.8,36z"/>
	<path class="st0" d="M224.7,26.5l-6.1,17.1l-6.1-17.1h-5.3l10,25.4c0.5,1.4,2.5,1.4,3.1,0l9.8-25.4
		C230.1,26.5,224.7,26.5,224.7,26.5z"/>
</g>
<g>
	<g>
		<path class="st0" d="M72.1,32.8"/>
		<path class="st0" d="M37.4,57"/>
	</g>
	<path class="st0" d="M46.1,14.2V26l18.2,12.7c0.7,0.5,0.7,1.6,0,2.1L46.1,53.5v11.8L80.8,41c0.9-0.6,0.9-1.9,0-2.6L46.1,14.2z"/>
	<path class="st0" d="M35.9,22.8v9l9.9,6.9c0.7,0.5,0.7,1.6,0,2.1l-9.9,6.9v9L58.4,41c0.9-0.6,0.9-1.9,0-2.6L35.9,22.8z"/>
	<path class="st0" d="M28,30.2v5.7l4,2.8c0.7,0.5,0.7,1.6,0,2.1l-4,2.8v5.7L39.8,41c0.9-0.6,0.9-1.9,0-2.5L28,30.2z"/>
</g>
</svg>
