<svg height="200" viewBox="0 0 200 200" width="200" xmlns="http://www.w3.org/2000/svg" xmlns:xlink="http://www.w3.org/1999/xlink"><linearGradient id="a" gradientTransform="matrix(-1.885618 1.885618 -1.885618 -1.885618 2292.746745 -819.013346)" gradientUnits="userSpaceOnUse" x1="900.130005" x2="750.130005" y1="337.75" y2="337.75"><stop offset="0" stop-color="#4d27a8"/><stop offset="1" stop-color="#a166ff"/></linearGradient><path d="m0 0h200v200h-200z" fill="url(#a)"/><g fill="#fff"><path d="m123.039062 161.785156-4.746093-2.453125c2.53125-4.808593 4.558593-9.867187 6.054687-15.09375l5.117188 1.496094c-1.589844 5.554687-3.742188 10.933594-6.425782 16.050781zm4.960938-48.824218c-.921875-14.933594-5.769531-29.355469-14.054688-41.8125l4.453126-2.910157c8.804687 13.226563 13.957031 28.542969 14.933593 44.402344zm-35.171875-64.347657c-3.871094-2.890625-7.996094-5.425781-12.320313-7.574219l2.425782-4.746093c4.605468 2.265625 8.996094 4.945312 13.121094 8zm0 0"/><path d="m114.667969 119.734375c-8.417969-8.359375-18.59375-14.738281-29.789063-18.667969l1.65625-5.066406c11.917969 4.183594 22.761719 10.972656 31.730469 19.867188zm0 0"/><path d="m136.640625 151.574219c-.988281-2.667969-2.105469-5.121094-3.332031-7.601563l4.769531-2.371094c1.316406 2.605469 2.5 5.273438 3.546875 8zm0 0"/><path d="m121.519531 163.066406-1.707031-5.039062c6.390625-2.152344 12.367188-5.371094 17.679688-9.519532l3.28125 4.210938c-5.789063 4.511719-12.296876 8.011719-19.253907 10.347656zm0 0"/><path d="m36.746094 98.667969-1.226563-5.175781c5.914063-1.445313 11.96875-2.242188 18.054688-2.371094l.132812 5.332031c-5.71875.117187-11.40625.859375-16.960937 2.214844zm0 0"/><path d="m80.480469 81.707031-4.480469-2.90625c3.914062-6.359375 8.738281-12.109375 14.320312-17.066406l3.519532 4.027344c-5.210938 4.628906-9.714844 10.003906-13.359375 15.945312zm0 0"/><path d="m120.132812 50.078125-1.8125-5.011719c4.011719-1.503906 8.140626-2.683594 12.347657-3.519531l.984375 5.332031c-3.921875.746094-7.773438 1.816406-11.519532 3.199219zm0 0"/><path d="m67.332031 157.332031c-4.355469-10.113281-6.683593-20.984375-6.851562-32 .085937-4.242187.640625-8.464843 1.652343-12.585937.1875-.933594.402344-1.894532.585938-2.878906l5.335938 1.039062c-.1875 1.015625-.402344 1.972656-.589844 2.933594-.929688 3.761718-1.449219 7.617187-1.542969 11.492187.117187 10.347657 2.277344 20.566407 6.34375 30.082031zm0 0"/><path d="m100 166.667969c-36.820312 0-66.667969-29.847657-66.667969-66.667969 0-1.359375 0-2.667969.132813-4.027344 1.691406-27.949218 20.664062-51.863281 47.496094-59.867187 17.277343-5.136719 35.902343-3.058594 51.625 5.761719 19.511718 10.9375 32.234374 30.933593 33.882812 53.238281 1.644531 22.308593-8.003906 43.953125-25.695312 57.640625-11.695313 8.988281-26.023438 13.882812-40.773438 13.921875zm0-128c-5.941406.019531-11.84375.917969-17.519531 2.664062-24.660157 7.359375-42.101563 29.328125-43.679688 55.015625 0 1.253906-.132812 2.453125-.132812 3.652344 0 33.875 27.457031 61.332031 61.332031 61.332031 6.734375.011719 13.421875-1.105469 19.785156-3.304687 6.402344-2.148438 12.386719-5.367188 17.707032-9.519532 20.738281-16.046874 28.980468-43.503906 20.511718-68.320312-8.472656-24.816406-31.78125-41.503906-58.003906-41.519531zm0 0"/><path d="m106.480469 69.148438c-6.527344 0-11.820313-5.296876-11.8125-11.824219.003906-6.527344 5.300781-11.8125 11.828125-11.804688 6.53125.011719 11.8125 5.3125 11.796875 11.839844 0 3.132813-1.246094 6.132813-3.460938 8.34375-2.214843 2.210937-5.222656 3.449219-8.351562 3.445313zm0-18.269532c-3.578125 0-6.480469 2.902344-6.480469 6.480469s2.902344 6.480469 6.480469 6.480469 6.480469-2.902344 6.480469-6.480469-2.902344-6.480469-6.480469-6.480469zm0 0"/><path d="m70.105469 106.347656c-6.523438 0-11.8125-5.289062-11.8125-11.8125 0-6.527344 5.289062-11.816406 11.8125-11.816406 6.527343 0 11.816406 5.289062 11.816406 11.816406-.015625 6.515625-5.296875 11.796875-11.816406 11.8125zm0-18.292968c-3.578125 0-6.480469 2.898437-6.480469 6.480468 0 3.578125 2.902344 6.476563 6.480469 6.476563s6.480469-2.898438 6.480469-6.476563c.015624-1.730468-.660157-3.390625-1.878907-4.617187-1.214843-1.226563-2.871093-1.917969-4.601562-1.917969zm0 0"/><path d="m128.746094 140.535156c-4.78125.007813-9.101563-2.867187-10.933594-7.28125-1.835938-4.417968-.828125-9.503906 2.554688-12.886718 3.382812-3.382813 8.46875-4.390626 12.886718-2.554688 4.414063 1.832031 7.289063 6.152344 7.28125 10.933594 0 6.511718-5.277344 11.789062-11.789062 11.789062zm0-18.269531c-2.621094-.007813-4.992188 1.5625-6.003906 3.984375-1.011719 2.417969-.464844 5.210938 1.386718 7.070312 1.851563 1.859376 4.640625 2.417969 7.066406 1.414063 2.421876-1 4.003907-3.363281 4.003907-5.988281 0-3.566406-2.882813-6.464844-6.453125-6.480469zm0 0"/></g></svg>