<svg width="32" height="32" viewBox="0 0 32 32" fill="none" xmlns="http://www.w3.org/2000/svg">
<path d="M7.10669 3.25333H2.66669V6.69333H7.10669V3.25333Z" fill="#669DF6"/>
<path d="M7.10669 9.26666H2.66669V12.7067H7.10669V9.26666Z" fill="#669DF6"/>
<path d="M7.10669 15.2933H2.66669V18.7333H7.10669V15.2933Z" fill="#669DF6"/>
<path d="M7.10669 21.3066H2.66669V24.7466H7.10669V21.3066Z" fill="#669DF6"/>
<path d="M29.3333 3.25333H24.8933V6.69333H29.3333V3.25333Z" fill="#669DF6"/>
<path d="M29.3333 9.26666H24.8933V12.7067H29.3333V9.26666Z" fill="#669DF6"/>
<path d="M29.3333 15.2933H24.8933V18.7333H29.3333V15.2933Z" fill="#669DF6"/>
<path d="M29.3333 21.3066H24.8933V24.7466H29.3333V21.3066Z" fill="#669DF6"/>
<path fill-rule="evenodd" clip-rule="evenodd" d="M28.44 6.69333H24.8933V3.25333L28.44 6.69333Z" fill="#4285F4"/>
<path fill-rule="evenodd" clip-rule="evenodd" d="M28.44 12.7067H24.8933V9.26666L28.44 12.7067Z" fill="#4285F4"/>
<path fill-rule="evenodd" clip-rule="evenodd" d="M28.44 18.7333H24.8933V15.2933L28.44 18.7333Z" fill="#4285F4"/>
<path fill-rule="evenodd" clip-rule="evenodd" d="M28.44 24.76H24.8933V21.3066L28.44 24.76Z" fill="#4285F4"/>
<path fill-rule="evenodd" clip-rule="evenodd" d="M7.10669 27.3333H24.8934V0.666656H7.10669V27.3333ZM15.1067 15.3333H10.6667L16.8934 5.01332V12.6667H21.3334L15.1067 22.9867V15.3333Z" fill="#AECBFA"/>
<path fill-rule="evenodd" clip-rule="evenodd" d="M15.1067 27.3333V23.0267L21.3334 12.7067H16.8934V0.666656H24.8934V27.3333H15.1067Z" fill="#669DF6"/>
</svg>
