<svg height="200" viewBox="0 0 200 200" width="200" xmlns="http://www.w3.org/2000/svg"><g transform="translate(0 50)"><path d="m0 0h200v100h-200z" fill="#fff"/><path d="m119.22266 28.890625c1.5039 0 3.01562 0 4.52343.0039-.008 14.070313-.008 28.140625 0 42.210938-1.50781.0039-3.01953.0039-4.52343.0039 0-14.070313 0-28.148437 0-42.21875zm0 0"/><path d="m133.10937 28.890625c1.50782 0 3.01954 0 4.52344.0039-.004 14.070313-.004 28.140625 0 42.210938-1.5039.0039-3.01562.0039-4.52344.0039 0-14.070313 0-28.148437 0-42.21875zm0 0"/><path d="m148.51172 30.027344c2.21484-.367188 3.67578 1.140625 3.42187 3.34375-.0664 1.902344-1.60547 3.105468-3.45703 2.671875-2.51953-.835938-2.55859-5.175781.0352-6.015625zm0 0"/><path d="m48.1875 31.667969c4.5 0 8.992188 0 13.492188-.0078 4.640624.277344 9.070312 1.421875 12.582031 4.632813 3.417969 3.066406 5.027343 7.316406 5.484375 11.808593.335937 4.808594.05859 9.503907-2.21875 13.855469-2.292969 4.507813-6.667969 7.371094-11.539063 8.441407-5.742187 1.257812-11.925781.511718-17.800781.710937-.0039-13.148437-.0039-26.292969 0-39.441406zm0 0"/><path d="m52.851562 35.5625c4.894532.132812 9.183594-.5625 13.828126 1.117188 3.507812 1.265624 6.21875 4.070312 7.324218 7.636718 1.300782 4.050782 1.335938 9.265625.125 13.332032-1.15625 3.984374-4.074218 7.085937-8.011718 8.414062-4.496094 1.621094-8.605469 1.070312-13.265626 1.152344 0-10.546875 0-21.105469 0-31.652344zm0 0" fill="#fff"/><path d="m101.14063 41.160156c2.19921.289063 4.24218.738282 5.95312 2.246094 1.95703 1.683594 2.61328 4.683594 2.61719 7.144531-.0156 6.855469 0 13.710938-.0117 20.566407-1.09375-.0078-2.19531-.01172-3.29297-.02344-.31641-1.449219-.65625-2.894531-.98828-4.339844-1.70703 1.992188-3.36328 3.773438-6.01172 4.417969-3.75.996094-8.804688.765625-11.574219-2.316406-2.835937-3.316407-2.742187-9.605469.957031-12.289063 2.449219-1.917968 5.945313-2.632812 8.976563-2.898437 2.550785.03125 5.019535-.527344 7.578125-.328125-.0273-2.15625.14063-4.105469-.98437-6.054688-.81641-1.390625-2.41407-1.972656-3.92969-2.222656-3.468752-.414062-6.750002.777344-9.851565 2.199219-.457031-1.179688-.921875-2.351563-1.382813-3.523438 3.714844-1.90625 7.75-2.960937 11.945318-2.578125zm0 0"/><path d="m147 41.109375c1.50391 0 3.01562 0 4.52344.0078-.008 9.992187-.008 19.992187 0 29.988281-1.50782.0039-3.01953.0039-4.52344.0039 0-10 0-20 0-30zm0 0"/><path d="m105.22266 56.65625c.0156 2.777344.20703 5.328125-1.40625 7.753906-2.17188 3.140625-6.996098 4.117188-10.449222 2.890625-2.566407-.960937-3.167969-3.640625-2.527344-6.085937.519531-1.925782 2.175781-3.027344 4.011718-3.554688 3.316407-.953125 6.941408-.832031 10.371098-1.003906zm0 0" fill="#fff"/></g></svg>