<svg height="200" viewBox="0 0 200 200" width="200" xmlns="http://www.w3.org/2000/svg"><path d="m96.738281 59.714844c0 .75-.75.75-.75.75h-.753906c-.75 0-.75-.75-1.503906-1.503906 0 0-.75-.753907-.75-1.507813s0-.753906.75-.753906l1.503906.753906c.753906.753906 1.503906 1.507813 1.503906 2.261719m-13.53125-7.535156c0-3.765626-1.503906-6.023438-3.761719-6.023438 0 0 0 .753906-.75.753906v1.503906h2.253907c0 1.507813.753906 2.261719.753906 3.765626zm26.316409-3.765626c1.5039 0 2.2539 1.507813 3.00781 3.765626h1.5c-.75-.75-.75-1.503907-.75-2.257813s0-1.507813-.75-2.257813c-.75391-.753906-1.50391-1.507812-2.25781-1.507812 0 0-.75.753906-1.50391.753906 0 .753906.75391.753906.75391 1.503906m-22.558596 12.050782c-.75 0-.75 0-.75-.75 0-.753906 0-1.507813.75-2.261719 1.503906 0 2.257812-.753906 2.257812-.753906.75 0 .75.753906.75.753906 0 .753906-.75 1.507813-2.253906 3.011719zm-8.269532-.75c-3.007812-1.507813-3.761718-3.765625-3.761718-7.535156 0-2.257813 0-3.765626 1.503906-5.269532.753906-1.507812 2.257812-2.261718 3.761719-2.261718 1.503906 0 2.253906.753906 3.757812 2.261718.753907 2.257813 1.503907 4.519532 1.503907 6.777344v1.507812h.753906v-.753906c.75 0 .75-1.507812.75-4.519531 0-2.257813 0-4.519531-1.503906-6.777344-1.503907-2.261719-3.007813-3.765625-6.015626-3.765625-2.253906 0-4.511718 1.503906-5.261718 3.765625-1.503906 3.011719-1.804688 5.269531-1.804688 9.035157 0 3.015624 1.050782 6.027343 4.058594 9.039062.753906-.753906 1.503906-.753906 2.257812-1.503906m93.984378 106.199216c.75 0 .75-.30078.75-.97656 0-1.66016-.75-3.61719-3.00391-5.80078-2.25781-2.25781-6.01562-3.69141-10.52734-4.29297-.75391-.0742-1.50391-.0742-1.50391-.0742-.75391-.15234-.75391-.15234-1.50391-.15234-.7539-.0742-2.25781-.22657-3.00781-.375 2.25391-7.00782 3.00781-13.1836 3.00781-18.60547 0-7.53125-1.5039-12.80469-4.51171-17.32422-3.00782-4.51953-6.01563-6.77734-9.77344-7.53125-.75391.75391-.75391.75391-.75391 1.50781 3.76172 1.50391 7.51953 4.51563 9.77735 9.03516 2.2539 5.27344 3.0039 9.79297 3.0039 15.0664 0 4.21875-.75 10.46875-3.75781 18.45313-3.00781 1.20312-6.01563 3.99219-8.26953 8.35937 0 .67969 0 1.05469.75 1.05469 0 0 .7539-.67578 1.5039-1.95703 1.50391-1.28125 2.25782-2.5625 3.76172-3.84375 2.25391-1.27734 3.75782-1.95703 6.01172-1.95703 3.76172 0 7.51953.52734 9.77735 1.58203 3.00781.98047 4.51171 2.03516 5.26171 3.23828.75391 1.12891 1.50391 2.1836 2.25782 3.16406 0 .98047.75 1.42969.75 1.42969m-69.17188-109.214861c-.7539-.75-.7539-2.257813-.7539-3.765625 0-3.011719 0-4.519532 1.5039-6.777344 1.50391-1.507812 3.00782-2.261719 4.51172-2.261719 2.25781 0 3.76172 1.507813 5.26172 3.015625.75391 2.257813 1.50391 3.765625 1.50391 6.023438 0 3.765625-1.50391 6.027344-4.50782 6.78125 0 0 .75.75 1.50391.75 1.5 0 2.25391.753906 3.75781 1.507812.75-4.519531 1.50391-7.53125 1.50391-11.296875 0-4.519531-.75391-7.53125-2.25781-9.792969-2.25391-2.257812-4.50782-3.011718-7.51563-3.011718-2.25781 0-4.51172.753906-6.76953 2.257812-1.503906 2.261719-2.253906 3.765625-2.253906 6.027344 0 3.765625.75 6.777344 2.253906 9.792969.75391 0 1.50391.75 2.25781.75m9.02344 12.054687c-9.77734 6.777344-17.296875 9.789063-23.308594 9.789063-5.265625 0-10.527344-2.257813-15.039062-6.023438.75 1.503907 1.503906 3.011719 2.253906 3.765625l4.511719 4.519532c3.007812 3.011718 6.769531 4.519531 10.527343 4.519531 5.261719 0 11.277348-3.015625 18.796878-8.285157l6.76562-4.519531c1.50391-1.507812 3.00782-3.015625 3.00782-5.273437 0-.753906 0-1.507813-.75-1.507813-.75391-1.503906-4.51172-3.765625-12.03125-6.023437-6.76563-3.015625-12.031255-4.519532-15.035161-4.519532-2.257813 0-6.015625 1.503907-11.28125 4.519532-4.511719 3.011718-7.519531 6.023437-7.519531 9.039062 0 0 .753906.75 1.503906 2.257813 4.511718 3.765625 9.023437 6.027343 13.535156 6.027343 6.015625 0 13.53516-3.015624 23.30859-10.546874v1.507812c.75391 0 .75391.753906.75391.753906m17.29297 152.144534c3.00781 5.66406 8.26953 8.51172 14.28515 8.51172 1.50391 0 3.00782-.22657 4.51172-.67579 1.50391-.30468 3.00782-.83203 3.75782-1.43359.7539-.52734 1.5039-1.05469 2.2539-1.65625 1.50391-.52734 1.50391-.90234 2.25781-1.28125l12.78125-11.07031c3.00782-2.40235 6.01563-4.50391 9.77344-6.32813 3.00781-1.80859 6.01563-3.01172 7.51953-3.6914 2.25782-.60157 3.76172-1.50391 5.26563-2.71094.75-1.12891 1.5-2.55859 1.5-4.36719 0-2.18359-1.5-3.84375-3.00391-5.04687-1.5039-1.20703-3.00781-2.03516-4.51172-2.5625-1.5039-.52735-3.00781-1.73047-5.26562-3.76563-1.50391-1.95703-3.00781-4.66797-3.75781-8.21094l-.75391-4.36718c-.75-2.03516-.75-3.53907-1.50391-4.36719 0-.22656 0-.30078-.75-.30078-.7539 0-2.2539.67578-3.00781 1.95703-1.50391 1.28125-3.00781 2.71094-4.51172 4.21875-.75 1.50391-3.00781 2.85937-4.51172 4.14062-2.2539 1.28125-4.51172 1.96094-6.01562 1.96094-6.01172 0-9.01953-1.66015-11.27735-4.89844-1.5039-2.41015-2.2539-5.19531-3.00781-8.35937-1.5039-1.28125-2.2539-1.95703-3.75781-1.95703-3.76172 0-5.26172 3.91406-5.26172 11.82422v23.42578c0 .67578-.75391 2.18359-.75391 4.51562-.75 2.33594-.75 4.98828-.75 7.98438l-1.5039 8.36328v.125m-109.023439-3.98438c6.992188 1.02735 15.035157 3.21875 24.132813 6.5625 9.097656 3.3125 14.664062 5.04688 16.695312 5.04688 5.261719 0 9.621094-2.33594 13.230469-6.84766.753906-1.46093.753906-3.17968.753906-5.15234 0-7.11719-4.285156-16.11719-12.859375-27.03906l-5.113281-6.85547c-1.050781-1.42969-2.328125-3.61328-3.984375-6.55078-1.578125-2.9375-3.007812-5.19922-4.132812-6.78125-.980469-1.73047-2.558594-3.46485-4.589844-5.19532-1.953125-1.73437-4.207032-2.86328-6.691406-3.46484-3.15625.60156-5.335938 1.65625-6.390626 3.08594-1.050781 1.43359-1.652343 3.01562-1.804687 4.67187-.222656 1.58203-.675781 2.63672-1.425781 3.16407-.753906.45312-2.03125.82812-3.761719 1.20312-.375 0-1.050781 0-2.027344.0781h-2.03125c-3.984375 0-6.691406.44921-8.121093 1.20312-1.878907 2.18359-2.855469 4.67188-2.855469 7.30469 0 1.20703.300781 3.24219.902343 6.10156.601563 2.78906.902344 5.04688.902344 6.62891 0 3.08984-.902344 6.17578-2.785156 9.26562-1.878906 3.23828-2.855469 5.64844-2.855469 7.36719.75 2.92187 5.714844 4.97656 14.8125 6.18359m25.035157-68.46875c0-5.19531 1.355468-10.92187 4.136718-17.69922 2.707032-6.77734 5.414063-11.29687 8.046875-14.31249-.152343-.75-.527343-.75-1.128906-.75l-.753906-.75391c-2.179688 2.25781-4.808594 7.53125-7.96875 15.0625-3.15625 6.78125-4.8125 13.03125-4.8125 17.625 0 3.39062.828125 6.32812 2.332031 8.88672 1.652344 2.48828 5.640625 6.10156 11.953125 10.69922l7.972656 5.19531c8.496094 7.38281 13.007813 12.5039 13.007813 15.51562 0 1.58203-.753906 3.16407-3.007813 4.89453-1.503906 1.8086-3.535156 2.71485-5.265625 2.71485-.148437 0-.222656.14844-.222656.52734 0 .0742.75 1.57813 2.328125 4.51563 3.160156 4.29687 9.925781 6.40234 18.949219 6.40234 16.539066 0 29.324216-6.77734 39.097656-20.33594 0-3.76562 0-6.10156-.75391-7.07812v-2.78906c0-4.89454.75391-8.58594 2.25782-10.9961 1.5039-2.41015 3.00781-3.53906 5.26171-3.53906 1.50391 0 3.00782.52734 4.51172 1.65625.75391-5.80078.75391-10.84766.75391-15.36328 0-6.85547 0-12.50391-1.50391-17.77735-.7539-4.51953-2.25781-8.28515-3.76172-11.29687-1.5039-2.26172-3.00781-4.51953-4.51171-6.78125-1.50391-2.25781-2.25391-4.51953-3.75782-6.77734-.7539-3.01172-1.5039-5.27344-1.5039-9.039066-2.25781-3.765625-3.76172-7.53125-6.01563-11.296875-1.5039-3.765625-3.00781-7.53125-4.51172-10.546875l-6.76562 5.273437c-7.51953 5.273438-13.535158 7.53125-18.796876 7.53125-4.511719 0-8.269532-.753906-10.527344-3.765625l-4.511719-3.765625c0 2.257813-.75 5.273438-2.253906 8.285157l-4.738281 9.039092c-2.105469 5.27344-3.234375 8.28516-3.457032 10.54297-.300781 1.50781-.527343 3.01562-.679687 3.01562l-5.636719 11.29688c-6.089844 11.29687-9.171875 21.76562-9.171875 30.42969 0 1.73046.148438 3.53906.449219 5.34765-3.382812-2.33594-5.039062-5.57422-5.039062-9.79297m53.835937 71.25391c-9.773437 0-17.292969 1.32422-22.554687 3.95312v-.22265c-3.761719 4.51562-7.972657 6.85156-13.835938 6.85156-3.683594 0-9.472656-1.42969-17.292969-4.29297-7.894531-2.71094-14.886719-4.78906-20.976562-6.16015-.601563-.17188-1.957031-.42969-4.136719-.77735-2.105469-.33594-4.058594-.68359-5.789062-1.03125-1.578126-.33984-3.382813-.85156-5.339844-1.54297-1.878906-.59375-3.382813-1.37109-4.511719-2.3125-1.035156-.94922-1.546875-2.01953-1.546875-3.21484 0-1.20703.253906-2.49609.765625-3.86719.480469-.82812 1.007813-1.65625 1.535156-2.41015.527344-.82813.976563-1.58204 1.277344-2.33204.453125-.67968.753906-1.35546 1.054687-2.10937.300782-.67969.601563-1.35547.75-2.18359.152344-.75391.300782-1.50782.300782-2.26172 0-.75391-.300782-3.01172-.902344-7.00391-.601562-3.91797-.902344-6.40234-.902344-7.45703 0-3.31641.753906-5.94922 2.40625-7.83203 1.65625-1.88281 3.234375-2.86328 4.886719-2.86328h8.648437c.675782 0 1.726563-.37891 3.308594-1.28125.523438-1.20313.976563-2.1836 1.277344-3.08985.375-.90234.527344-1.57812.675781-1.88281.152344-.44922.300781-.90234.453125-1.27734.300782-.52735.675782-1.13282 1.203125-1.73438-.601562-.7539-.902343-1.73047-.902343-2.9375 0-.82812 0-1.58203.148437-2.03125 0-2.71484 1.277344-6.55469 3.984375-11.60156l2.632812-4.74609c2.179688-4.06641 3.835938-7.07813 5.039063-10.08985 1.277344-3.01562 2.628906-7.53515 4.132813-13.55859 1.203124-5.27344 4.0625-10.54688 8.570312-15.81641l5.640625-6.781248c3.910156-4.519531 6.464844-8.285156 7.894531-11.296874 1.429688-3.011719 2.179688-6.78125 2.179688-9.792969 0-1.503907-.375-6.023438-1.203125-13.558594-.75-7.53125-1.125-15.0625-1.125-21.839844 0-5.273437.449219-9.039062 1.425781-12.804687.980469-3.765625 2.707031-7.535156 5.265625-10.546875 2.253906-3.011719 5.261719-6.023438 9.773437-7.53125 4.511719-1.507813 9.773438-2.257813 15.789063-2.257813 2.257815 0 4.511715 0 6.765625.75 2.25781 0 5.26563.753906 9.02344 2.261719 3.00781 1.503906 6.01562 3.011719 8.26953 5.273437 3.00781 2.257813 5.26562 6.023438 7.51953 9.789063 1.50391 4.519531 3.00781 9.039063 3.76172 15.066406.75 3.765625.75 7.53125 1.5039 12.804688 0 4.515625.75 7.53125.75 9.789062.75391 2.261719.75391 5.273438 1.50391 9.039063.75391 3.011718 1.50391 6.027344 3.00781 8.285156 1.50391 3.011719 3.00782 6.027344 5.26172 9.039062 2.25781 3.765626 5.26563 7.53125 8.27344 12.050782 6.76562 7.531246 12.02734 15.816406 15.03516 24.101566 3.76171 7.53515 6.01562 17.32421 6.01562 27.79296 0 5.19922-.75 10.2461-2.25391 15.14063 1.50391 0 2.25391.60156 3.00782 1.65625.75 1.05469 1.5039 3.31641 2.2539 6.85547l.75391 5.57422c.75 1.65625 1.50391 3.23828 3.75781 4.59375 1.50391 1.35547 3.00781 2.48437 5.26172 3.39062 1.50391.75391 3.76172 1.8086 5.26563 3.16406 1.5039 1.50391 2.2539 3.08594 2.2539 4.74219 0 2.5625-.75 4.44531-2.2539 5.80078-1.50391 1.50782-3.00782 2.5625-5.26563 3.23828-1.50391.75391-4.51172 2.26172-9.01953 4.38282-3.76172 2.23047-7.51953 4.93359-11.28125 8.13672l-7.51563 6.41015c-3.00781 2.9375-6.01562 5.04688-8.27343 6.32422-2.25391 1.35938-5.26172 2.03516-8.26953 2.03516l-5.26172-.60157c-6.01563-1.58203-9.77735-4.59375-12.03125-9.1914-12.03125-1.46094-21.80469-2.1836-27.820315-2.1836" transform="matrix(.82178056 0 0 .82178056 18.849034 4.926759)"/></svg>