<svg height="200" viewBox="0 0 200 200" width="200" xmlns="http://www.w3.org/2000/svg" xmlns:xlink="http://www.w3.org/1999/xlink"><clipPath id="a"><path d="m5 51h186v98h-186zm0 0"/></clipPath><clipPath id="b"><path d="m5.945312 99.664062c0 26.773438 41.261719 48.480469 92.160157 48.480469 50.898437 0 92.160156-21.707031 92.160156-48.480469 0-26.773437-41.261719-48.480468-92.160156-48.480468-50.898438 0-92.160157 21.707031-92.160157 48.480468"/></clipPath><radialGradient id="c" cx="61.279321" cy="68.228255" gradientUnits="userSpaceOnUse" r="121.019297"><stop offset="0" stop-color="#aeb2d5"/><stop offset=".3" stop-color="#aeb2d5"/><stop offset=".75" stop-color="#484c89"/><stop offset="1" stop-color="#484c89"/></radialGradient><g clip-path="url(#a)"><g clip-path="url(#b)"><path d="m5.945312 99.664062c0 26.773438 41.261719 48.480469 92.160157 48.480469 50.898437 0 92.160156-21.707031 92.160156-48.480469 0-26.773437-41.261719-48.480468-92.160156-48.480468-50.898438 0-92.160157 21.707031-92.160157 48.480468" fill="url(#c)"/></g></g><path d="m98.105469 144.542969c48.910156 0 88.558593-20.09375 88.558593-44.878907 0-24.785156-39.648437-44.878906-88.558593-44.878906-48.910157 0-88.558594 20.09375-88.558594 44.878906 0 24.785157 39.648437 44.878907 88.558594 44.878907" fill="#777bb3"/><path d="m56.015625 105.226562c4.023437 0 7.027344-.738281 8.925781-2.203124 1.878906-1.445313 3.175782-3.953126 3.855469-7.449219.636719-3.269531.394531-5.550781-.714844-6.78125-1.136719-1.261719-3.59375-1.898438-7.300781-1.898438h-6.425781l-3.5625 18.332031zm-21.019531 22.585938c-.296875 0-.582032-.132812-.769532-.363281-.191406-.230469-.269531-.535157-.210937-.828125l9.441406-48.582032c.09375-.472656.503907-.8125.980469-.8125h20.351562c6.398438 0 11.160157 1.738282 14.152344 5.164063 3.007813 3.445313 3.9375 8.257813 2.757813 14.308594-.476563 2.464843-1.300781 4.753906-2.445313 6.800781-1.144531 2.050781-2.660156 3.949219-4.503906 5.644531-2.207031 2.0625-4.703125 3.558594-7.410156 4.441407-2.667969.867187-6.09375 1.308593-10.183594 1.308593h-8.242188l-2.351562 12.109375c-.09375.46875-.503906.808594-.980469.808594zm0 0"/><path d="m55.179688 87.894531h5.601562c4.476562 0 6.03125.980469 6.558594 1.566407.875.972656 1.039062 3.019531.476562 5.921874-.632812 3.25-1.804687 5.554688-3.484375 6.847657-1.722656 1.328125-4.519531 1.996093-8.316406 1.996093h-4.007813zm9.609374-11.667969h-20.351562c-.957031 0-1.777344.679688-1.960938 1.621094l-9.441406 48.582032c-.117187.585937.039063 1.191406.417969 1.652343.378906.464844.945313.730469 1.542969.730469h10.582031c.960937 0 1.78125-.679688 1.964844-1.621094l2.195312-11.296875h7.417969c4.191406 0 7.722656-.457031 10.492188-1.359375 2.847656-.925781 5.464843-2.492187 7.785156-4.660156 1.917968-1.765625 3.496094-3.746094 4.691406-5.886719 1.199219-2.140625 2.058594-4.53125 2.558594-7.101562 1.238281-6.367188.230468-11.464844-2.992188-15.152344-3.1875-3.652344-8.203125-5.507813-14.902344-5.507813m-15.210937 30h6.4375c4.269531 0 7.445313-.800781 9.535156-2.410156 2.089844-1.609375 3.496094-4.292968 4.230469-8.050781.699219-3.613281.378906-6.160156-.957031-7.644531-1.339844-1.484375-4.019531-2.226563-8.042969-2.226563h-7.25zm15.210937-28c6.125 0 10.589844 1.609376 13.398438 4.820313 2.804688 3.214844 3.652344 7.699219 2.53125 13.460937-.460938 2.371094-1.242188 4.539063-2.339844 6.503907-1.097656 1.96875-2.53125 3.765625-4.304687 5.394531-2.113281 1.980469-4.460938 3.390625-7.046875 4.226562-2.582032.84375-5.871094 1.261719-9.871094 1.261719h-9.066406l-2.511719 12.917969h-10.582031l9.441406-48.585938z" fill="#fff"/><path d="m105.96875 114.894531c-.300781 0-.582031-.132812-.773438-.363281-.191406-.230469-.265624-.535156-.210937-.828125l4.179687-21.496094c.394532-2.042969.296876-3.511719-.277343-4.128906-.351563-.378906-1.410157-1.015625-4.535157-1.015625h-7.566406l-5.253906 27.023438c-.089844.46875-.503906.808593-.980469.808593h-10.5c-.300781 0-.582031-.132812-.773437-.363281-.1875-.230469-.265625-.535156-.207032-.828125l9.441407-48.582031c.089843-.46875.503906-.808594.980469-.808594h10.5c.300781 0 .582031.132812.773437.363281.1875.230469.265625.535157.210937.828125l-2.28125 11.722656h8.140626c6.203124 0 10.40625 1.09375 12.855468 3.34375 2.5 2.296876 3.277344 5.964844 2.316406 10.90625l-4.390624 22.609376c-.09375.46875-.503907.808593-.984376.808593zm0 0"/><path d="m99.992188 63.3125h-10.5c-.957032 0-1.78125.679688-1.960938 1.617188l-9.445312 48.582031c-.113282.589843.042968 1.195312.421874 1.65625.378907.460937.945313.726562 1.542969.726562h10.5c.957031 0 1.78125-.679687 1.964844-1.617187l5.09375-26.214844h6.742187c3.121094 0 3.777344.664062 3.800782.695312.191406.203126.4375 1.144532.027344 3.257813l-4.175782 21.496094c-.113281.589843.039063 1.195312.417969 1.65625.382813.460937.949219.726562 1.546875.726562h10.664062c.957032 0 1.78125-.679687 1.964844-1.617187l4.390625-22.609375c1.03125-5.308594.152344-9.289063-2.617187-11.832031-2.644532-2.429688-7.070313-3.609376-13.535156-3.609376h-6.925782l2.046875-10.535156c.113281-.585937-.039062-1.191406-.421875-1.652344-.378906-.460937-.945312-.726562-1.542968-.726562m0 2-2.507813 12.914062h9.351563c5.886718 0 9.945312 1.027344 12.179687 3.082032 2.234375 2.050781 2.90625 5.378906 2.011719 9.976562l-4.394532 22.609375h-10.664062l4.175781-21.496093c.476563-2.445313.300781-4.113282-.523437-5.003907-.828125-.886719-2.582032-1.332031-5.269532-1.332031h-8.390624l-5.410157 27.832031h-10.5l9.441407-48.582031z" fill="#fff"/><path d="m138.621094 105.226562c4.023437 0 7.027344-.738281 8.925781-2.203124 1.878906-1.445313 3.175781-3.953126 3.855469-7.449219.636718-3.269531.394531-5.550781-.714844-6.78125-1.136719-1.261719-3.59375-1.898438-7.300781-1.898438h-6.425781l-3.5625 18.332031zm-21.019532 22.585938c-.296874 0-.582031-.132812-.769531-.363281-.191406-.230469-.269531-.535157-.210937-.828125l9.441406-48.582032c.09375-.472656.503906-.8125.980469-.8125h20.351562c6.398438 0 11.15625 1.738282 14.152344 5.164063 3.007813 3.445313 3.933594 8.257813 2.757813 14.308594-.476563 2.464843-1.300782 4.753906-2.445313 6.800781-1.148437 2.050781-2.660156 3.949219-4.503906 5.644531-2.207031 2.0625-4.703125 3.558594-7.414063 4.441407-2.664062.867187-6.09375 1.308593-10.179687 1.308593h-8.242188l-2.351562 12.109375c-.09375.46875-.503907.808594-.984375.808594zm0 0"/><path d="m137.785156 87.894531h5.601563c4.476562 0 6.027343.980469 6.558593 1.566407.875.972656 1.039063 3.019531.476563 5.921874-.632813 3.25-1.804687 5.554688-3.484375 6.847657-1.722656 1.328125-4.519531 1.996093-8.316406 1.996093h-4.007813zm9.609375-11.667969h-20.351562c-.957031 0-1.777344.679688-1.960938 1.621094l-9.441406 48.582032c-.117187.585937.039063 1.191406.417969 1.652343.378906.464844.945312.730469 1.542968.730469h10.582032c.960937 0 1.78125-.679688 1.964844-1.621094l2.195312-11.296875h7.417969c4.191406 0 7.722656-.457031 10.492187-1.359375 2.847656-.925781 5.464844-2.492187 7.785156-4.660156 1.917969-1.765625 3.496094-3.746094 4.691407-5.886719 1.199219-2.140625 2.058593-4.53125 2.558593-7.101562 1.238282-6.367188.230469-11.464844-2.992187-15.152344-3.191406-3.652344-8.203125-5.507813-14.902344-5.507813m-15.210937 30h6.4375c4.269531 0 7.445312-.800781 9.535156-2.410156s3.496094-4.292968 4.230469-8.050781c.699219-3.613281.378906-6.160156-.957031-7.644531-1.339844-1.484375-4.019532-2.226563-8.042969-2.226563h-7.25zm15.210937-28c6.125 0 10.589844 1.609376 13.398438 4.820313 2.804687 3.214844 3.652343 7.699219 2.53125 13.460937-.460938 2.371094-1.242188 4.539063-2.339844 6.503907-1.097656 1.96875-2.53125 3.765625-4.304687 5.394531-2.113282 1.980469-4.460938 3.390625-7.046876 4.226562-2.582031.84375-5.871093 1.261719-9.871093 1.261719h-9.066407l-2.511718 12.917969h-10.582032l9.441407-48.585938z" fill="#fff"/></svg>