<svg height="200" viewBox="0 0 200 200" width="200" xmlns="http://www.w3.org/2000/svg"><g transform="translate(0 50)"><path d="m0 0h200v100h-200z" fill="#fff"/><path d="m133.41797 29.582031c3.38672-.402343 7.0039-.05859 10.19922 1.167969 4.25 1.632812 7.41797 5.1875 9.03906 9.390625 1.63672 4.085937 1.82812 8.53125 1.53906 12.875-.40234 5.019531-2.23437 10.054687-6.08984 13.445313-3.27344 2.988281-7.66016 4.078124-11.9961 4.121093-4.53906-.06641-8.99999-1.105469-12.39453-4.292969-4.10937-3.738281-5.60546-9.21875-5.82421-14.609374-.26954-5.507813.59765-11.835938 4.1914-16.242188 2.78516-3.546875 6.91797-5.371094 11.33594-5.855469zm0 0"/><path d="m45.960938 30.5625c3.9375-.0078 7.882812-.01172 11.828124-.0078 3.761719.265624 7.910157.945312 10.65625 3.789062 2.484376 2.457031 2.910157 6.226562 2.589844 9.546875-.367187 3.949219-2.953125 7.332031-6.585937 8.871094-4.597657 2.054687-8.953125 1.660156-13.820313 1.6875 0 5.183593.0039 10.367187 0 15.546875-1.558594.0078-3.113281.0039-4.667968 0 .0039-13.144532 0-26.289063 0-39.433594zm0 0"/><path d="m79.292969 30.5625c4.5-.01953 9 0 13.5-.01172 4.640625.28125 9.066411 1.421875 12.578121 4.632813 3.41797 3.066406 5.02735 7.316406 5.48438 11.804687.35547 4.96875.0352 9.796875-2.41797 14.234375-2.43359 4.449219-6.875 7.175782-11.765625 8.160156-5.648437 1.117188-11.632813.433594-17.378906.613282.0078-13.144532.0078-26.289063 0-39.433593zm0 0"/><g fill="#fff"><path d="m133.94531 33.4375c3.84766-.410156 7.94531.128906 10.91016 2.816406 3.09375 2.867188 4.12109 6.902344 4.46094 10.96875.33203 4.386719.0156 9.410156-2.04297 13.386719-1.65235 3.117187-4.58594 5.191406-8.05078 5.796875-4.45704.789062-9.54297.03906-12.67188-3.511719-3.27344-3.738281-3.83594-8.679687-3.84375-13.449219.10547-4.132812.78125-8.804687 3.58594-12.035156 1.92187-2.34375 4.68359-3.566406 7.65234-3.972656zm0 0"/><path d="m50.628906 34.449219c4.03125.101562 8.25-.503907 12.027344 1.21875 5.277344 2.34375 4.949219 11.765625-.488281 13.722656-3.773438 1.546875-7.589844 1.105469-11.539063 1.160156 0-5.367187 0-10.734375 0-16.101562zm0 0"/><path d="m83.960938 34.449219c4.894531.132812 9.207031-.554688 13.828124 1.117187 3.503908 1.265625 6.222658 4.074219 7.328128 7.632813 1.30078 4.050781 1.33203 9.265625.1289 13.335937-1.15625 3.980469-4.07812 7.085938-8.019528 8.414063-4.488281 1.621093-8.605468 1.074219-13.265624 1.15625 0-10.550781 0-21.105469 0-31.65625zm0 0"/></g></g></svg>