<svg xmlns="http://www.w3.org/2000/svg" id="Logos" height="200" viewBox="0 0 1200 1000" width="200" ><defs><style>.cls-1{fill:#e00;}</style></defs><title>Logo-Red_Hat-Ansible_Automation_Platform-A-Standard-RGB</title><path d="M251.53,146.74h12.79l29.75,72.8H282.21l-8.42-21.32H241.23l-8.53,21.32H221.37Zm18.72,42.43-12.69-31.93-12.69,31.93Z"/><path d="M300.3,166.6h10.4v5.3a21.82,21.82,0,0,1,15.92-6.34c12.17,0,20.69,8.42,20.69,20.7v33.28h-10.4V188c0-8.32-5.09-13.42-13.1-13.42a15,15,0,0,0-13.11,6.86v38.07H300.3Z"/><path d="M359.89,205.81c5.52,4.37,11.34,6.66,17.27,6.66,7.49,0,12.69-3.23,12.69-7.91,0-3.74-2.71-5.93-8.53-6.76l-9.57-1.35c-10.5-1.56-15.81-6.45-15.81-14.66,0-9.57,8.32-16,20.7-16A36.28,36.28,0,0,1,398,172.53l-5.3,6.86c-5.83-3.85-11.13-5.51-16.75-5.51-6.34,0-10.61,2.91-10.61,7.18,0,3.85,2.5,5.72,8.74,6.65l9.57,1.36c10.5,1.56,16,6.55,16,14.76,0,9.47-9.57,16.64-22.15,16.64-9.15,0-17.37-2.7-23.19-7.8Z"/><path d="M406.49,151.62a6.38,6.38,0,0,1,6.34-6.44,6.45,6.45,0,1,1,0,12.89A6.39,6.39,0,0,1,406.49,151.62ZM418,219.54h-10.4V166.6H418Z"/><path d="M456.61,220.37a26.45,26.45,0,0,1-16-5.3v4.47H430.3v-72.8l10.4-2.29v27.14a24.56,24.56,0,0,1,16.12-5.82c15,0,26.73,12,26.73,27.25S471.8,220.37,456.61,220.37ZM440.7,181.16v23.92c3.33,3.85,8.84,6.24,14.77,6.24,10.19,0,17.89-7.8,17.89-18.2s-7.8-18.3-17.89-18.3C449.44,174.82,444.13,177.1,440.7,181.16Z"/><path d="M503.83,219.54h-10.4v-72.8l10.4-2.29Z"/><path d="M541.48,220.47c-15.61,0-27.77-12-27.77-27.45,0-15.29,11.65-27.25,26.52-27.25,14.56,0,25.58,12.06,25.58,27.66v3H524a17.86,17.86,0,0,0,17.89,15.18A20.56,20.56,0,0,0,555.31,207l6.65,6.56A31.56,31.56,0,0,1,541.48,220.47Zm-17.37-31.82h31.41c-1.56-8.11-7.8-14.15-15.5-14.15C532,174.5,525.67,180.23,524.11,188.65Z"/><path d="M621.55,146.74h12.8l29.74,72.8H652.24l-8.43-21.32H611.26l-8.53,21.32H591.39Zm18.73,42.43-12.69-31.93L614.9,189.17Z"/><path d="M678.44,198c0,8.32,5.1,13.52,13.11,13.52a14.88,14.88,0,0,0,13-7v-38H715v52.94h-10.4v-5.31a21.65,21.65,0,0,1-15.92,6.35c-12.16,0-20.59-8.53-20.59-20.8V166.6h10.4Z"/><path d="M734.08,175.34H722.85V166.6h11.23V153.08l10.3-2.5v16H760v8.74h-15.6V204c0,5.41,2.18,7.39,7.8,7.39a20.55,20.55,0,0,0,7.59-1.25v8.73a34.32,34.32,0,0,1-9.88,1.56c-10.3,0-15.81-4.88-15.81-14Z"/><path d="M791.7,165.56A27.51,27.51,0,1,1,764.14,193,27.17,27.17,0,0,1,791.7,165.56ZM809,193c0-10.3-7.69-18.31-17.26-18.31s-17.37,8-17.37,18.31,7.59,18.41,17.37,18.41C801.27,211.43,809,203.31,809,193Z"/><path d="M829,166.6h10.4v5a20.35,20.35,0,0,1,14.88-6c7.17,0,13,3.33,16.32,8.84a21.23,21.23,0,0,1,17.89-8.84c11.65,0,19.87,8.42,19.87,20.7v33.28H898V188c0-8.32-4.68-13.42-12.17-13.42-5.2,0-9.36,2.39-12.38,7.07a21.57,21.57,0,0,1,.42,4.58v33.28h-10.3V188c0-8.32-4.68-13.42-12.17-13.42a13.87,13.87,0,0,0-12,6.45v38.48H829Z"/><path d="M917.64,204.35c0-10,8.11-16.12,21.42-16.12a37.23,37.23,0,0,1,14.46,2.92v-5.62c0-7.49-4.47-11.23-12.9-11.23-4.88,0-9.88,1.35-16.43,4.47l-3.85-7.8c7.91-3.75,14.77-5.41,21.74-5.41,13.73,0,21.63,6.76,21.63,18.93v35H953.52V215a25.07,25.07,0,0,1-16.43,5.51C925.54,220.47,917.64,213.92,917.64,204.35Zm21.84,8.43a20.38,20.38,0,0,0,14-5v-9.16a27.54,27.54,0,0,0-13.62-3.22c-7.6,0-12.28,3.43-12.28,8.74C927.62,209.24,932.41,212.78,939.48,212.78Z"/><path d="M980.46,175.34H969.22V166.6h11.24V153.08l10.29-2.5v16h15.6v8.74h-15.6V204c0,5.41,2.19,7.39,7.8,7.39a20.57,20.57,0,0,0,7.6-1.25v8.73a34.32,34.32,0,0,1-9.88,1.56c-10.3,0-15.81-4.88-15.81-14Z"/><path d="M1012.9,151.62a6.39,6.39,0,0,1,6.35-6.44,6.45,6.45,0,1,1,0,12.89A6.39,6.39,0,0,1,1012.9,151.62Zm11.55,67.92h-10.4V166.6h10.4Z"/><path d="M1061.89,165.56A27.51,27.51,0,1,1,1034.33,193,27.17,27.17,0,0,1,1061.89,165.56ZM1079.15,193c0-10.3-7.69-18.31-17.26-18.31s-17.37,8-17.37,18.31,7.59,18.41,17.37,18.41C1071.46,211.43,1079.15,203.31,1079.15,193Z"/><path d="M1099.22,166.6h10.4v5.3a21.8,21.8,0,0,1,15.92-6.34c12.16,0,20.69,8.42,20.69,20.7v33.28h-10.4V188c0-8.32-5.09-13.42-13.1-13.42a15,15,0,0,0-13.11,6.86v38.07h-10.4Z"/><path d="M228.65,254.74h33.7c14.24,0,23.81,8.84,23.81,21.84,0,12.79-9.67,21.63-23.81,21.63H239.57v29.33H228.65Zm10.92,9.56V289H261.2c8.53,0,13.94-4.78,13.94-12.37s-5.41-12.28-13.94-12.28Z"/><path d="M306.54,327.54h-10.4v-72.8l10.4-2.29Z"/><path d="M316.11,312.35c0-10,8.11-16.12,21.43-16.12A37.22,37.22,0,0,1,352,299.15v-5.62c0-7.49-4.47-11.23-12.89-11.23-4.89,0-9.89,1.35-16.44,4.47l-3.85-7.8c7.91-3.75,14.77-5.41,21.74-5.41,13.73,0,21.63,6.76,21.63,18.93v35.05H352V323a25.07,25.07,0,0,1-16.43,5.51C324,328.47,316.11,321.92,316.11,312.35ZM338,320.78a20.38,20.38,0,0,0,14-5v-9.16a27.51,27.51,0,0,0-13.62-3.22c-7.59,0-12.27,3.43-12.27,8.74C326.1,317.24,330.88,320.78,338,320.78Z"/><path d="M378.93,283.34H367.7V274.6h11.23V261.08l10.29-2.5v16h15.61v8.74H389.22V312c0,5.41,2.19,7.39,7.81,7.39a20.55,20.55,0,0,0,7.59-1.25v8.73a34.32,34.32,0,0,1-9.88,1.56c-10.3,0-15.81-4.88-15.81-14Z"/><path d="M421.46,274.6v-8c0-11,6.35-17,18-17a27.45,27.45,0,0,1,7.49.93v9a20.73,20.73,0,0,0-6.55-.94c-5.72,0-8.53,2.6-8.53,8.22v7.8h15.08v8.74H431.86v44.2h-10.4v-44.2H409.19V274.6Z"/><path d="M477.83,273.56A27.51,27.51,0,1,1,450.27,301,27.17,27.17,0,0,1,477.83,273.56ZM495.1,301c0-10.3-7.7-18.31-17.27-18.31s-17.37,8-17.37,18.31,7.59,18.41,17.37,18.41C487.4,319.43,495.1,311.31,495.1,301Z"/><path d="M515.17,274.6h10.4v6.76a16.55,16.55,0,0,1,14.56-7.9,13.12,13.12,0,0,1,5.3.83v9.36a17.81,17.81,0,0,0-6.14-1.15c-6.13,0-11,3.33-13.72,9.68v35.36h-10.4Z"/><path d="M553.75,274.6h10.4v5a20.31,20.31,0,0,1,14.87-6c7.18,0,13,3.33,16.33,8.84a21.21,21.21,0,0,1,17.89-8.84c11.65,0,19.86,8.42,19.86,20.7v33.28H622.7V296c0-8.32-4.68-13.42-12.16-13.42-5.21,0-9.37,2.39-12.38,7.07a22.24,22.24,0,0,1,.41,4.58v33.28H588.28V296c0-8.32-4.68-13.42-12.17-13.42a13.86,13.86,0,0,0-12,6.45v38.48h-10.4Z"/><path class="cls-1" d="M129,85c12.51,0,30.61-2.58,30.61-17.46a14,14,0,0,0-.31-3.42l-7.45-32.36c-1.72-7.12-3.23-10.35-15.73-16.6C126.39,10.19,105.26,2,99,2c-5.82,0-7.55,7.54-14.45,7.54-6.68,0-11.64-5.6-17.89-5.6-6,0-9.91,4.09-12.93,12.5,0,0-8.41,23.72-9.49,27.16A6.43,6.43,0,0,0,44,45.54C44,54.76,80.33,85,129,85m32.55-11.42c1.73,8.19,1.73,9.05,1.73,10.13,0,14-15.74,21.77-36.43,21.77C80,105.47,39.08,78.1,39.08,60a18.45,18.45,0,0,1,1.51-7.33C23.77,53.52,2,56.54,2,75.72,2,107.2,76.59,146,135.65,146c45.28,0,56.7-20.48,56.7-36.65,0-12.72-11-27.16-30.83-35.78"/><path d="M161.52,73.57c1.73,8.19,1.73,9.05,1.73,10.13,0,14-15.74,21.77-36.43,21.77C80,105.47,39.08,78.1,39.08,60a18.45,18.45,0,0,1,1.51-7.33l3.66-9.06A6.43,6.43,0,0,0,44,45.54C44,54.76,80.33,85,129,85c12.51,0,30.61-2.58,30.61-17.46a14,14,0,0,0-.31-3.42Z"/><path d="M581.24,94.3c0,11.89,7.15,17.67,20.19,17.67a52.11,52.11,0,0,0,11.89-1.68V96.51a24.84,24.84,0,0,1-7.68,1.16c-5.37,0-7.36-1.68-7.36-6.73V69.8h15.56V55.6H598.28v-18l-17,3.68V55.6H570V69.8h11.25Zm-53,.32c0-3.68,3.69-5.47,9.26-5.47a43.12,43.12,0,0,1,10.1,1.26v7.15A21.51,21.51,0,0,1,537,100.19c-5.46,0-8.73-2.1-8.73-5.57m5.2,17.56c6,0,10.84-1.26,15.36-4.31v3.37h16.82V75.58c0-13.56-9.14-21-24.39-21-8.52,0-16.94,2-26,6.1l6.1,12.52c6.52-2.74,12-4.42,16.83-4.42,7,0,10.62,2.73,10.62,8.31v2.73a49.53,49.53,0,0,0-12.62-1.58c-14.31,0-22.93,6-22.93,16.73,0,9.78,7.78,17.24,20.19,17.24m-92.44-.94h18.09V82.42h30.29v28.82h18.09V37.62H489.43V65.91H459.14V37.62H441.05ZM372.12,83.37c0-8,6.31-14.1,14.62-14.1a17.22,17.22,0,0,1,11.78,4.32V93a16.36,16.36,0,0,1-11.78,4.42c-8.2,0-14.62-6.1-14.62-14.09m26.61,27.87h16.83V33.94l-17,3.68V58.55a28.3,28.3,0,0,0-14.2-3.68c-16.19,0-28.92,12.51-28.92,28.5A28.25,28.25,0,0,0,383.8,112a25.12,25.12,0,0,0,14.93-4.83Zm-77.19-42.7c5.36,0,9.88,3.47,11.67,8.83H310c1.68-5.57,5.89-8.83,11.57-8.83M292.83,83.47c0,16.2,13.25,28.82,30.28,28.82,9.36,0,16.2-2.53,23.25-8.42l-11.26-10c-2.63,2.74-6.52,4.21-11.14,4.21a14.39,14.39,0,0,1-13.68-8.83h39.65V85.05c0-17.67-11.88-30.39-28.08-30.39a28.57,28.57,0,0,0-29,28.81M263.49,53.08c6,0,9.36,3.78,9.36,8.31s-3.37,8.31-9.36,8.31H245.61V53.08Zm-36,58.16h18.09V84.42h13.77l13.89,26.82h20.19l-16.2-29.45a22.27,22.27,0,0,0,13.88-20.72c0-13.25-10.41-23.45-26-23.45H227.52Z"/></svg>