<svg height="200" viewBox="0 0 200 200" width="200" xmlns="http://www.w3.org/2000/svg" xmlns:xlink="http://www.w3.org/1999/xlink"><linearGradient id="a" gradientTransform="matrix(0 -2.666667 2.666667 0 1757.333333 1888)" gradientUnits="userSpaceOnUse" x1="617.469971" x2="723.530029" y1="-674.530029" y2="-568.469971"><stop offset="0" stop-color="#b0084d"/><stop offset="1" stop-color="#ff4f8b"/></linearGradient><path d="m0 0h200v200h-200z" fill="url(#a)"/><g fill="#fff"><path d="m84 128h-29.332031c-2.96875-.058594-5.863281-.925781-8.375-2.507812-8.222657-5.039063-13.15625-14.0625-12.960938-23.707032-.558593-11.171875 6.605469-21.277344 17.335938-24.453125 0-.691406 0-1.386719 0-2.078125.296875-13.820312 8.367187-26.285156 20.851562-32.214844 13.480469-5.964843 29.253907-2.839843 39.441407 7.8125 3.34375 3.40625 6.050781 7.378907 8 11.734376 2.777343-2.242188 6.242187-3.464844 9.8125-3.464844 7.253906 0 15.414062 5.492187 16.90625 17.546875 6.855468 1.625 20.933593 7.226562 20.933593 25.359375.476563 9.269531-4.4375 17.980468-12.613281 22.371094l-2.667969-4.664063c6.449219-3.488281 10.292969-10.390625 9.867188-17.707031 0-15.679688-12.984375-19.574219-18.664063-20.535156-.707031-.125-1.332031-.527344-1.734375-1.117188-.390625-.558594-.554687-1.246094-.453125-1.921875-.773437-9.679687-6.425781-14-11.734375-14-3.429687.03125-6.632812 1.707031-8.613281 4.507813-.582031.796874-1.554688 1.207031-2.535156 1.066406-.972656-.152344-1.78125-.828125-2.105469-1.761719-1.738281-5.117187-4.597656-9.78125-8.371094-13.652344-8.644531-8.96875-21.953125-11.605469-33.363281-6.613281-10.46875 5.09375-17.253906 15.5625-17.625 27.199219.003906 1.230469.074219 2.460937.214844 3.679687.179687 1.40625-.769532 2.703125-2.160156 2.960938-9.371094 1.914062-15.925782 10.398437-15.414063 19.945312-.230469 7.824219 3.777344 15.160156 10.480469 19.203125 1.65625 1.058594 3.578125 1.640625 5.546875 1.679688h29.332031zm0 0"/><path d="m163.707031 144-18.933593-19.011719c5.605468-12.59375 1.324218-27.390625-10.136719-35.042969-11.464844-7.648437-26.773438-5.929687-36.25 4.074219-9.480469 10.003907-10.371094 25.382813-2.109375 36.417969 8.261718 11.03125 23.265625 14.507812 35.535156 8.230469l18.667969 18.664062c1.78125 1.738281 4.179687 2.699219 6.667969 2.667969 2.480468.035156 4.871093-.925781 6.636718-2.667969 1.769532-1.773437 2.753906-4.179687 2.742188-6.683593-.015625-2.503907-1.03125-4.894532-2.820313-6.648438zm-44.773437-7.546875c-12.652344 0-22.90625-10.253906-22.90625-22.90625s10.253906-22.90625 22.90625-22.90625 22.90625 10.253906 22.90625 22.90625-10.253906 22.90625-22.90625 22.90625zm41.066406 17.011719c-1.613281 1.53125-4.144531 1.53125-5.761719 0l-17.757812-17.757813c2.167969-1.703125 4.074219-3.714843 5.652343-5.972656l17.867188 17.972656c1.570312 1.597657 1.570312 4.160157 0 5.757813zm0 0"/><path d="m126.265625 101.148438-3.171875 4.292968c-2.917969-2.164062-6.851562-2.355468-9.96875-.488281s-4.800781 5.425781-4.273438 9.019531c.300782 2.414063 1.585938 4.59375 3.546876 6.027344l-3.066407 4.160156c-6.1875-4.757812-7.421875-13.597656-2.777343-19.871094 4.644531-6.273437 13.460937-7.671874 19.820312-3.140624zm0 0"/></g></svg>