<svg xmlns="http://www.w3.org/2000/svg" viewBox="0 0 938.98 208.33"><defs><style>.cls-1{fill:#0fa;}</style></defs><g id="Layer_2" data-name="Layer 2"><path class="cls-1" d="M506.78,499.9c-13.85,0-23.11,4.62-31.55,16.35a1.83,1.83,0,0,1-3.1-.21c-6.69-12.39-17.65-15.93-27.89-15.93-8,0-18.58,2.28-25.07,11.51a34.23,34.23,0,0,0-1.49,4.83l-.35,1.26a1.08,1.08,0,0,1-1.06.8,1.26,1.26,0,0,1-.27,0,1.13,1.13,0,0,1-.79-1.35l.35-1.23,0-.08a23.92,23.92,0,0,0,.66-11.09l-.42-2.38h-25.6V602.65h29.24v-53.6c0-11.38,6.49-22.13,18.07-22.13,12,0,17.27,8.73,17.27,21.93v53.8h28.84v-53.8c0-11.38,6.89-21.33,18.47-21.33,11.78,0,15.24,8.33,15.24,20.93v54.2H546.8V547.83C546.8,510.47,527.71,499.9,506.78,499.9Z" transform="translate(-70.51 -435.83)"/><path class="cls-1" d="M644.72,502.34l-.09,1a34,34,0,0,0,1.43,12.71c.17.58.31,1.12.41,1.62a1.09,1.09,0,0,1-.84,1.31.82.82,0,0,1-.23,0,1.09,1.09,0,0,1-1.06-.86,20.24,20.24,0,0,0-4.51-8.95c-.23-.27-.47-.53-.71-.78l0-.06c-6.15-5.39-15.33-8.28-25-8.28-29.66-.41-52.6,19.09-52.6,52.39,0,33.1,21.74,52.59,51.78,52.39,8.59-.18,20.79-3.35,28.15-11.3l0,0a20.39,20.39,0,0,0,3.39-6.8,1.1,1.1,0,0,1,1.35-.75,1.12,1.12,0,0,1,.77,1.35l-.12.44a37.73,37.73,0,0,0-1.07,14.84h26.4V502.34ZM617.1,578.9c-14.62,0-26.4-9.74-26.4-26.4s11.78-26.61,26.4-26.61c17.46,0,26.6,13.2,26.6,27.63C643.7,566.11,633.54,578.9,617.1,578.9Z" transform="translate(-70.51 -435.83)"/><path class="cls-1" d="M749.37,500.11c-9.24,0-17,1.69-23.16,8.55a16.43,16.43,0,0,0-4,8.51,6.76,6.76,0,0,0-.08.88,1.1,1.1,0,1,1-2.19,0,11.9,11.9,0,0,1,.3-2.33,31,31,0,0,0,.16-12.61l-.11-.57H693.11V602.65h29.24V550.47c0-15,10.78-23.15,23.36-23.15a26.42,26.42,0,0,1,16,5.08l12.18-23.15C766.84,502.94,758.91,500.11,749.37,500.11Z" transform="translate(-70.51 -435.83)"/><path class="cls-1" d="M858,502.54l-.31,2.22a35.52,35.52,0,0,0,.63,12.91v0a1.1,1.1,0,0,1-.84,1.31.9.9,0,0,1-.23,0,1.09,1.09,0,0,1-1.06-.86v0a14.62,14.62,0,0,0-4.23-7.46c-8.47-8-18.32-10-29.09-10-29.45,0-49.56,20.71-49.56,52,0,32.5,20.52,52.19,50,52.19,9.44,0,20.36-2.93,28.66-11.1a13.09,13.09,0,0,0,3.77-7.33v0a1.08,1.08,0,0,1,1.25-.92,1.09,1.09,0,0,1,.92,1.24c-.09.57-.21,1.18-.36,1.84a110.65,110.65,0,0,0-2.76,25.8v19.84l29.44,9.94V502.54Zm-30.39,75.95c-13.52.12-24.38-11.12-24.83-24.63-.5-15,8.49-26.94,24.56-26.94,13.2,0,27,6.69,27,25.78C854.3,569.45,840.88,578.37,827.57,578.49Z" transform="translate(-70.51 -435.83)"/><path class="cls-1" d="M954.45,500.11c-33.29,0-54.83,22.34-54.83,52.59s20.92,52.19,54.83,52.19c34.13,0,55-21.93,55-52.19S988,500.11,954.45,500.11Zm0,78.79c-17.67,0-25.18-13.61-25.18-26.2s7.71-26.4,25.18-26.4c17.66,0,25.39,13.82,25.39,26.4C979.84,565.9,972.31,578.9,954.45,578.9Z" transform="translate(-70.51 -435.83)"/><path class="cls-1" d="M324.7,516.83a29.89,29.89,0,0,1-14.95-15.54,45.53,45.53,0,0,0-33-26.79,11.88,11.88,0,0,1-7.68-5l-10.33-15.62h-9.11v2.62a4.36,4.36,0,0,1-7.15,3.37c-40.91-35.11-90.11-26.76-119.4-6.28A187.89,187.89,0,0,0,71,507.08a2.88,2.88,0,0,0,3.26,4.31l8.06-2.48a1.44,1.44,0,0,1,1.83,1.69c-6.81,33.28,1,65.29,29,92.95h39.42c-1.17-35.2,54.29-35.2,53.12,0h39.42a98.92,98.92,0,0,0,10.94-12c4.31-5.65,12.63-5.85,17.63-.82,25.81,26,78.26,9.69,77.62-32.49A45.39,45.39,0,0,0,324.7,516.83Zm-52.45-2.13a8,8,0,1,1,8-8A8,8,0,0,1,272.25,514.7Z" transform="translate(-70.51 -435.83)"/></g></svg>