<svg height="200" viewBox="0 0 200 200" width="200" xmlns="http://www.w3.org/2000/svg"><g transform="translate(0 50)"><path d="m0 0h200v100h-200z" fill="#fff"/><path d="m80.554688 30h4.144531c.0078 13.148438.0078 26.292969 0 39.445312-1.378907 0-2.761719 0-4.144531 0 0-13.152343 0-26.296874 0-39.445312zm0 0"/><path d="m93.332031 30h4.144531c.0078 13.148438.0078 26.292969 0 39.445312-1.375 0-2.761718 0-4.144531 0 0-13.152343 0-26.296874 0-39.445312zm0 0"/><path d="m119.44531 30h4.14453c-.0547 5.144531.14844 10.304688-.15234 15.445312 3.18359-4.574218 9.45312-5.457031 14.25781-3.128906 2.30078 1.222656 3.96485 3.316406 4.875 5.734375 1.26953 3.328125 1.33985 7.003907 1.04688 10.515625-.39063 3.710938-2 7.722656-5.25782 9.8125-4.79687 2.910156-11.58593 1.980469-14.98046-2.667968-.29688 1.238281-.59375 2.476562-.90625 3.71875-1.01172.0039-2.01563.01562-3.02735.01953 0-13.148438 0-26.300781 0-39.449218zm0 0"/><path d="m107.89063 31.777344c1.13281-.339844 2.5039 0 3.04296 1.128906.82032 1.675781.14454 4.316406-2.0625 4.332031-2.9414.222657-3.51171-4.542969-.98046-5.460937zm0 0"/><path d="m167.47656 33.621094c4.76953 2.285156 5.88281 8.863281 3.04688 13.011718-1.57813 2.207032-3.82422 2.96875-6.28516 3.785157 2.48438.289062 5.15625.972656 6.87891 2.914062 2.3125 2.339844 2.41797 6.351563 1.57031 9.328125-1.1875 3.8125-4.48828 5.949219-8.23047 6.796875-5.04687 1.054688-10.61328.6875-15.40625-1.269531-.0117-1.296875-.0156-2.605469-.0234-3.902344 4.67188 2.144532 10.76563 3.359375 15.69532 1.507813 4.5625-1.609375 5.71093-8.949219 1.73437-11.710938-3.60547-2.28125-7.74609-1.816406-11.79687-1.867187.008-1.105469.008-2.214844.008-3.320313 2.77734-.07422 5.38672.292969 7.97656-.640625 2.21094-.710937 4.16797-2.304687 4.76172-4.621094.59766-2.226562.35937-4.667968-1.36328-6.332031-2.04297-1.894531-5.07813-1.96875-7.6836-1.578125-2.62109.378906-4.8164 1.550782-7.04687 2.882813-.69531-.964844-1.39453-1.921875-2.10547-2.878907 5.125-3.441406 12.56641-4.816406 18.26953-2.105468zm0 0"/><path d="m75.367188 41.433594c-.195313 1.300781-.402344 2.59375-.613282 3.894531-2.019531-.332031-3.875-.644531-5.808594.226563-3.355468 1.480468-5.183593 4.84375-5.328124 8.417968-.0625 5.15625 0 10.316406-.02734 15.472656-1.378906 0-2.761719 0-4.144532 0 0-9.261718 0-18.515624 0-27.777343 1.027344.07813 2.566407-.230469 3.464844.199219.210938 1.65625.269532 3.332031.472656 4.988281 1.484376-2.042969 2.785157-3.945313 5.195313-4.984375 2.195313-1.039063 4.464844-.898438 6.789063-.4375zm0 0"/><path d="m27.4375 41.671875c1.433594-.0039 2.867188-.0039 4.300781-.0039.0078 6.117187 0 12.230469 0 18.34375.02344 1.84375.238281 3.609375 1.550781 5.023437 1.320313 1.371094 3.210938 1.675782 5.042969 1.652344 2.203125-.03125 4.519531-.621094 6.011719-2.347656 1.523438-1.699219 1.929688-4.441406 2.050781-6.628906.03906-5.351563 0-10.699219.01563-16.042969h4.21875c.0039 9.261719.0039 18.515625 0 27.777343-1.15625 0-2.3125 0-3.46875 0-.210937-1.273437-.433594-2.539062-.664062-3.804687-1.757813 2.410156-3.800782 3.6875-6.75 4.199219-3.167969.492187-7.175782.05859-9.675782-2.144532-2.125-1.988281-2.570312-5.078124-2.609374-7.855468-.04297-6.054688 0-12.113282-.02344-18.167969zm0 0"/><path d="m106.66797 41.667969h4.14453c.004 9.261719.004 18.515625 0 27.777343-1.37891 0-2.76172 0-4.14453 0 0-9.261718 0-18.515624 0-27.777343zm0 0"/><path d="m130.10547 44.523438c2.22265-.273438 4.43359-.05859 6.25 1.347656 1.6289 1.25 2.36719 3.421875 2.74609 5.367187.52735 3.199219.50781 6.601563-.3164 9.75-.65235 2.265625-1.90235 4.367188-4.21485 5.222657-2.26953.84375-5.27734.574218-7.38281-.644532-2.12109-1.277344-2.96094-3.78125-3.29687-6.109375-.48047-3.546875-.46875-7.460937.73828-10.867187.875-2.402344 2.98828-3.777344 5.47656-4.066406zm0 0" fill="#fff"/></g></svg>