<svg width="139" height="32" viewBox="0 0 139 32" fill="none" xmlns="http://www.w3.org/2000/svg">
<path d="M1.33398 1.33301L15.9478 29.7784L30.6673 1.33301H1.33398ZM13.6751 12.625H11.347V10.2968H13.6751V12.625ZM13.6751 9.13145H11.347V6.80591H13.6751V9.13145ZM17.1661 16.116H14.8379V13.7878H17.1661V16.116ZM17.1661 12.625H14.8379V10.2968H17.1661V12.625ZM17.1661 9.13145H14.8379V6.80591H17.1661V9.13145ZM20.6385 12.625H18.3103V10.2968H20.6385V12.625ZM18.3103 9.13145V6.80591H20.6385V9.13145H18.3103Z" fill="#FFD814"/>
<path d="M52.3787 25.3311V7.39674H48.9857V14.7751H42.3344V7.39674H38.9414V25.3311H42.3344V17.7642H48.9857V25.3311H52.3787Z" fill="black"/>
<path d="M54.6788 20.4032C54.6788 23.6885 56.5907 25.6004 61.0608 25.6004C62.7304 25.6004 64.4538 25.385 65.9349 25.008L65.5579 22.0728C64.1038 22.342 62.4073 22.5305 61.1685 22.5305C58.8258 22.5305 58.0718 21.7227 58.0718 19.8108V12.9171C58.0718 11.0052 58.8258 10.1973 61.1685 10.1973C62.4073 10.1973 64.1038 10.3858 65.5579 10.6551L65.9349 7.71988C64.4538 7.34289 62.7304 7.12746 61.0608 7.12746C56.5907 7.12746 54.6788 9.03938 54.6788 12.3247V20.4032Z" fill="black"/>
<path d="M67.8317 25.3311H71.2246V19.5146H74.6715C78.8454 19.5146 80.515 17.8181 80.515 14.6944V12.2439C80.515 9.09324 78.98 7.39674 74.8331 7.39674H67.8317V25.3311ZM77.122 12.5132V14.3443C77.122 15.8254 76.5565 16.5255 74.6446 16.5255H71.2246V10.3858H74.6446C76.5026 10.3858 77.122 11.0321 77.122 12.5132Z" fill="black"/>
<path d="M92.3671 22.342L88.0316 7.39674H84.504L89.8627 25.3311H94.8714L100.23 7.39674H96.7026L92.3671 22.342Z" fill="black"/>
<path d="M109.88 16.6871C109.88 13.4018 108.668 11.9477 104.548 11.9477C103.094 11.9477 101.289 12.19 100.051 12.567L100.455 15.0714C101.613 14.829 102.905 14.6674 104.09 14.6674C106.19 14.6674 106.594 15.1791 106.594 16.6332V18.0066H103.444C100.778 18.0066 99.6199 19.0298 99.6199 21.6958C99.6199 23.9578 100.643 25.6004 103.04 25.6004C104.359 25.6004 105.76 25.2234 106.944 24.4425L107.187 25.3311H109.88V16.6871ZM106.594 22.3151C105.975 22.6652 105.086 22.9883 104.117 22.9883C103.094 22.9883 102.797 22.5844 102.797 21.6688C102.797 20.6725 103.094 20.3763 104.171 20.3763H106.594V22.3151Z" fill="black"/>
<path d="M111.905 12.2169V21.7227C111.905 24.0655 112.686 25.6004 114.867 25.6004C116.402 25.6004 118.475 25.0349 120.118 24.227L120.441 25.3311H122.946V12.2169H119.66V21.3188C118.475 21.9381 117.048 22.4228 116.24 22.4228C115.486 22.4228 115.19 22.0728 115.19 21.3726V12.2169H111.905Z" fill="black"/>
<path d="M128.652 25.3311V6.40039L125.367 6.85817V25.3311H128.652Z" fill="black"/>
<path d="M137.666 22.5844C137.1 22.746 136.508 22.8537 136.023 22.8537C135.161 22.8537 134.838 22.3959 134.838 21.6958V14.829H137.989L138.204 12.2169H134.838V8.50081L131.553 8.95859V12.2169H129.587V14.829H131.553V22.1266C131.553 24.4694 132.765 25.6004 135.161 25.6004C135.996 25.6004 137.343 25.385 138.043 25.0888L137.666 22.5844Z" fill="black"/>
</svg>
