<svg height="200" viewBox="0 0 200 200" width="200" xmlns="http://www.w3.org/2000/svg"><path d="m136.082031 108.863281c.988281-.105469 1.964844-.15625 2.925781-.15625 4.84375 0 8.554688 1.09375 11.132813 3.277344 2.578125 2.1875 3.871094 5.285156 3.871094 9.300781 0 3.351563-1.007813 6.734375-3.015625 10.160156-2.007813 3.429688-5.394532 7.445313-10.15625 12.050782-3.191406 3.109375-7.433594 6.8125-12.730469 11.105468-5.296875 4.292969-10.582031 8.347657-15.859375 12.167969v14.527344h69.046875v-16.832031h-39.511719c1.535156-1.101563 4.113282-3.042969 7.734375-5.816406 3.625-2.777344 7.226563-5.820313 10.8125-9.128907 5.707031-5.3125 9.949219-10.472656 12.726563-15.472656s4.164062-10.277344 4.164062-15.832031c0-8.464844-2.894531-15.011719-8.683594-19.636719-5.789062-4.628906-14.195312-6.941406-25.21875-6.941406-2.414062 0-4.828124.117187-7.238281.355469v-33.597657h-23.125v32.816407h-34.140625v-32.816407h-23.121094v89.660157h23.121094v-39.5h34.140625v39.5h.265625c2.164063-1.679688 4.335938-3.398438 6.503906-5.160157 5.296876-4.289062 9.539063-7.992187 12.730469-11.101562 1.3125-1.269531 2.519531-2.496094 3.625-3.675781zm-36 69.992188c-43.515625 0-78.9375-35.421875-78.9375-78.9375 0-43.484375 35.386719-78.773438 78.9375-78.773438 43.515625 0 78.773438 35.257813 78.773438 78.773438v2.445312h4.886719v-2.445312c0-46.214844-37.445313-83.660157-83.660157-83.660157-46.246093 0-83.824219 37.472657-83.824219 83.660157 0 46.21875 37.605469 83.824219 83.824219 83.824219h2.445313v-4.886719zm0 0" fill="#09476b"/></svg>