<svg height="200" viewBox="0 0 200 200" width="200" xmlns="http://www.w3.org/2000/svg"><g fill="#33333d"><path d="m11.15625 47.175781h8.75c.007812 20.75-.003906 41.5 0 62.25 9.179688-10.332031 18.320312-20.710937 27.542969-31.007812.414062.003906.824219.003906 1.238281.007812-6.820312 7.632813-13.582031 15.332031-20.386719 22.980469 8.910157 13.195312 17.914063 26.335938 26.847657 39.515625-2.9375-.015625-5.882813.054687-8.820313-.035156-7.621094-11.351563-15.367187-22.625-23.046875-33.9375-1.082031 1.3125-2.417969 2.542969-3.335938 3.960937-.085937 9.949219-.011718 20.050782-.039062 30.015625-2.914062 0-5.832031 0-8.75 0 0-31.25 0-62.5 0-93.75zm0 0"/><path d="m90.113281 78.296875c5.257813-.714844 10.738281-.375 15.835938 1.125 5.71875 1.726563 11.304687 5.410156 14.476562 10.558594 3.214844 5.152343 4.289063 11.207031 4.449219 17.195312.148438 6.714844-.804688 13.667969-4.085938 19.617188-3.605468 6.59375-9.964843 11.511719-17.210937 13.472656-5.75 1.535156-11.960937 1.476563-17.757813.1875-6.691406-1.53125-13.253906-5.578125-16.753906-11.605469-3.421875-5.765625-4.304687-12.996094-4.121094-19.585937.199219-7.238281 1.890626-14.421875 6.386719-20.242188 4.585938-5.886719 11.375-9.769531 18.78125-10.722656zm0 0"/><path d="m169.070312 78.609375c2.816407.539063 5.875 1.472656 8 3.488281 2.101563 2.132813 3.6875 4.925782 3.671876 7.992188.003906 12.640625 0 25.277344 0 37.921875.007812 2.167969-.078126 4.449219.273437 6.589843.328125 1.898438 1.480469 3.960938 3.265625 4.816407 1.839844.703125 4.148438.425781 6.09375.441406.023438.355469.050781.714844.074219 1.066406-4.121094-.015625-8.25.242188-12.210938-1.195312-2.296875-.761719-4.164062-2.621094-5.460937-4.609375-.96875-1.496094-.761719-3.015625-.800782-4.714844-1.726562 2.964844-3.882812 5.601562-6.769531 7.5-4.339843 2.902344-9.746093 3.777344-14.878906 3.414062-3.816406-.230468-7.738281-1.320312-10.695313-3.839843-2.726562-2.425781-4.203124-5.71875-4.875-9.257813-.632812-2.808594-.71875-5.648437.332032-8.371094 1.511718-2.949218 4.242187-4.933593 7.328125-6.019531 6.25-2.277343 13.597656-2.585937 20.183593-3.085937 3.125-.050782 6.28125-.113282 9.390626.1875.003906-7.359375-.011719-14.726563.003906-22.089844.1875-1.984375-.949219-3.910156-1.976563-5.523438-1.257812-2.097656-3.882812-3.195312-6.144531-3.789062-5.183594-1.25-10.980469-.355469-16.058594 1.007812-3.203125.871094-6.484375 1.867188-9.445312 3.378907-.15625-.285157-.308594-.578125-.464844-.871094 4.035156-1.722656 8.101562-3.203125 12.414062-4.054687 6.125-1.179688 12.585938-1.445313 18.75-.382813zm0 0"/></g><path d="m102.40625 80.117188c5.324219 1.910156 9.320312 6.367187 11.34375 11.566406 2.457031 6.253906 2.800781 13.429687 2.574219 20.078125-.378907 6.792969-1.75 13.773437-5.675781 19.476562-2.609376 3.914063-6.257813 7.019531-10.8125 8.394531-3.820313 1.113282-8.019532 1.007813-11.8125-.179687-5.15625-1.625-9.273438-5.742187-11.460938-10.625-2.46875-5.492187-3.160156-11.933594-3.113281-17.902344-.0625-5.105469.511719-10.320312 2.050781-15.203125 1.726562-5.476562 5.214844-10.976562 10.171875-14.046875 4.902344-3.128906 11.324219-3.464843 16.734375-1.558593zm0 0" fill="#fff"/><path d="m171.980469 111.898438c.011719 4.957031.027343 9.925781 0 14.878906-.117188 3.699218-3.335938 7.113281-6.019531 9.363281-3.679688 3.023437-8.375 4.648437-13.144532 4.15625-2.1875-.257813-4.253906-1.125-5.753906-2.777344-2.628906-2.71875-3.398438-6.789062-3.785156-10.414062-.347656-3.371094.089844-7.394531 2.246094-10.148438 1.445312-2.046875 4.070312-3.027343 6.394531-3.683593 6.585937-1.773438 13.316406-1.75 20.0625-1.375zm0 0" fill="#fff"/></svg>