<svg width="32" height="32" viewBox="0 0 32 32" fill="none" xmlns="http://www.w3.org/2000/svg">
<path d="M1 3.91003H5.995V7.78003H1V3.91003ZM1 10.675H5.995V14.545H1V10.675ZM1 17.455H5.995V21.325H1V17.455ZM1 24.22H5.995V28.09H1V24.22ZM26.005 3.91003H31V7.78003H26.005V3.91003ZM26.005 10.675H31V14.545H26.005V10.675ZM26.005 17.455H31V21.325H26.005V17.455ZM26.005 24.22H31V28.09H26.005V24.22Z" fill="#669DF6"/>
<path fill-rule="evenodd" clip-rule="evenodd" d="M29.995 7.78003H26.005V3.91003L29.995 7.78003ZM29.995 14.545H26.005V10.675L29.995 14.545ZM29.995 21.325H26.005V17.455L29.995 21.325ZM29.995 28.105H26.005V24.22L29.995 28.105Z" fill="#4285F4"/>
<path fill-rule="evenodd" clip-rule="evenodd" d="M5.995 31H26.005V1H5.995V31ZM14.995 17.5H10L17.005 5.89V14.5H22L14.995 26.11V17.5Z" fill="#AECBFA"/>
<path fill-rule="evenodd" clip-rule="evenodd" d="M14.995 31V26.155L22 14.545H17.005V1H26.005V31H14.995Z" fill="#669DF6"/>
</svg>
