<svg height="203" viewBox="0 0 200 203" width="200" xmlns="http://www.w3.org/2000/svg"><path d="m0 .285156h200v202.429688h-200zm0 0" fill="#fff"/><path d="m99.730469 2.011719c3.125 1.011719 6.054687 2.648437 9.183593 3.691406 11.285157 6.144531 23.070313 12.957031 32.730469 21.496094-3.058593.769531-6.171875 1.382812-9.257812 2.039062-20.472657 4.164063-42.945313 5.558594-63.386719.683594-.898438-.226563-1.800781-.441406-2.699219-.65625-2.699219-.726563-5.371093-1.523437-7.972656-2.535156 9.328125-8 21.027344-13.886719 31.257813-20.699219 3.128906-1.15625 6.785156-4.347656 10.144531-4.019531zm0 0" fill="#70716c"/><path d="m89.585938 6.03125c-10.230469 6.8125-21.929688 12.699219-31.257813 20.699219 2.601563 1.011719 5.273437 1.808593 7.972656 2.535156l-1 1.667969c-29.6875 13.015625-48.628906 45.546875-46.199219 77.722656 1.628907 26.828125 17.65625 52.019531 41.296876 64.878906 24.414062 14.070313 55.789062 13.667969 80.03125-.601562 19.085937-11.0625 33.300781-29.949219 38.183593-51.476563 4.042969-16.5625 2.1875-34.085937-4.441406-49.722656-8-18.644531-23.230469-33.773437-41.757813-42.011719l-.027343-.484375c3.085937-.65625 6.199219-1.269531 9.257812-2.039062-9.660156-8.539063-21.445312-15.351563-32.730469-21.496094 19.714844 1.011719 39.558594 9.820313 54.628907 22.4375 18.957031 15.878906 31.628906 38.816406 34.429687 63.410156 2.214844 7.582031 2.070313 16.59375-.058594 24.175781-2.542968 21.140626-12.386718 41.085938-27.214843 56.324219-15.070313 15.367188-35.128907 25.589844-56.457031 28.710938-4.714844 1.996093-9.257813 1.453125-14.242188 1.527343-3.769531-.058593-7.828125.210938-11.527344-.515624-3.585937-1.480469-7.328125-1.582032-11.074218-2.523438-18.484376-4.320312-35.871094-14.027344-48.957032-27.769531-13.957031-14.371094-23.3125-33.160157-26.355468-52.929688-2.671876-6.929687-1.34375-13.65625-1.65625-21.339843-.3437505-4.675782 1.882812-8.3125 2.355468-12.847657 6.085938-32.074219 29.058594-59.6875 59.328125-71.976562 8.617188-3.320313 18.144531-6.429688 27.472657-6.355469zm0 0" fill="#5a9bcd"/><path d="m66.300781 29.265625c.898438.214844 1.800781.429687 2.699219.65625l-1 .714844c-.015625 11.972656-.355469 23.960937-.527344 35.953125-1.101562-2.566406-2.042968-5.003906-1.972656-7.84375-.113281-9.277344.285156-18.53125-.199219-27.8125zm0 0" fill="#246295"/><path d="m132.386719 29.238281.027343.484375c.300782 13.644532.972657 27.230469 1.171876 40.886719 4.328124 1.894531 8.398437 4.632813 9.714843 9.4375-18.558593 3.503906-37.257812 5.34375-56.15625 4.273437-10.246093-.3125-20.257812-2.152343-30.429687-3.0625-.1875-5.117187 6.398437-9.464843 10.742187-10.921874.027344-1.253907.027344-2.507813.015625-3.746094.171875-11.992188.511719-23.980469.527344-35.953125l1-.714844c20.441406 4.875 42.914062 3.480469 63.386719-.683594zm0 0" fill="#fffee0"/><path d="m132.414062 29.722656c18.527344 8.238282 33.757813 23.367188 41.757813 42.011719 6.628906 15.636719 8.484375 33.160156 4.441406 49.722656-4.882812 21.527344-19.097656 40.414063-38.183593 51.476563-.160157-8.59375-1.230469-17.191406-1.574219-25.785156-.882813-12.574219-1.898438-25.191407-2.484375-37.78125-.085938-1.878907-.699219-2.707032-1.84375-2.464844 5.617187-.425782 9.03125-3.863282 8.757812-9.535156-.015625-5.773438-.015625-11.546876.015625-17.320313-1.316406-4.804687-5.386719-7.542969-9.714843-9.4375-.199219-13.65625-.871094-27.242187-1.171876-40.886719zm0 0" fill="#34709f"/><path d="m65.300781 30.933594c.484375 9.28125.085938 18.535156.199219 27.8125-.070312 2.839844.871094 5.277344 1.972656 7.84375.011719 1.238281.011719 2.492187-.015625 3.746094-4.34375 1.457031-10.929687 5.804687-10.742187 10.921874.015625 5.84375.015625 11.6875 0 17.535157.214844 4.445312 3.570312 7.796875 8.054687 8.011719.042969 1.324218.074219 2.664062.117188 4.003906-.859375 13.34375-1.386719 26.714844-2.472657 40.03125-.644531 7.570312-1.183593 15.152344-2.015624 22.695312-23.640626-12.859375-39.667969-38.050781-41.296876-64.878906-2.429687-32.175781 16.511719-64.707031 46.199219-77.722656zm0 0" fill="#34709f"/><path d="m89.15625 38.859375c-.511719 5.503906 4.5 9.679687 3.558594 15.625-.199219 6.015625-4.644532 8.683594-8.773438 12.175781-7.085937-1.210937-11.671875-8.097656-10.957031-15.082031.203125-8.226563 7.929687-14.769531 16.171875-12.71875zm0 0" fill="#fbc75d"/><path d="m89.15625 38.859375c5.371094 2.738281 9.574219 7.914063 9.113281 14.1875.085938 7.441406-6.511719 14.882813-14.328125 13.613281 4.128906-3.492187 8.574219-6.160156 8.773438-12.175781.941406-5.945313-4.070313-10.121094-3.558594-15.625zm0 0" fill="#ddad4b"/><path d="m143.300781 80.046875c-.03125 5.773437-.03125 11.546875-.015625 17.320313-8.929687 4.0625-19.457031 5.457031-29.15625 6.355468-19.15625 1.226563-38.800781-.15625-57.414062-4.929687.015625-5.847657.015625-11.691407 0-17.535157 10.171875.910157 20.183594 2.75 30.429687 3.0625 18.898438 1.070313 37.597657-.769531 56.15625-4.273437zm0 0" fill="#f7e6c4"/><path d="m143.285156 97.367188c.273438 5.671874-3.140625 9.109374-8.757812 9.535156-22.8125 4.832031-46.925782 4.347656-69.757813-.097656-4.484375-.214844-7.839843-3.566407-8.054687-8.011719 18.613281 4.773437 38.257812 6.15625 57.414062 4.929687 9.699219-.898437 20.226563-2.292968 29.15625-6.355468zm0 0" fill="#ffffe6"/><path d="m64.769531 106.804688c22.832031 4.445312 46.945313 4.929687 69.757813.097656 1.144531-.242188 1.757812.585937 1.84375 2.464844-16.285156 4.90625-32.398438 4.777343-49.199219 4.164062-7.457031-.625-14.828125-2.136719-22.285156-2.722656-.042969-1.339844-.074219-2.679688-.117188-4.003906zm0 0" fill="#c65f11"/><path d="m136.371094 109.367188c.585937 12.589843 1.601562 25.207031 2.484375 37.78125.101562 4.601562-5.613281 4.589843-8.839844 5.84375-14.542969 3.675781-30.300781 5.515624-45.230469 3.492187-7.785156-1.042969-14.914062-3.363281-22.371094-5.644531 1.085938-13.316406 1.613282-26.6875 2.472657-40.03125 7.457031.585937 14.828125 2.097656 22.285156 2.722656 16.800781.613281 32.914063.742188 49.199219-4.164062zm0 0" fill="#d67c2a"/><path d="m138.855469 147.148438c.34375 8.59375 1.414062 17.191406 1.574219 25.785156-24.242188 14.269531-55.617188 14.671875-80.03125.601562.832031-7.542968 1.371093-15.125 2.015624-22.695312 7.457032 2.28125 14.585938 4.601562 22.371094 5.644531 14.929688 2.023437 30.6875.183594 45.230469-3.492187 3.226563-1.253907 8.941406-1.242188 8.839844-5.84375zm0 0" fill="#cb6c21"/></svg>