<svg width="141" height="32" fill="none" xmlns="http://www.w3.org/2000/svg" role="img"><g clip-path="url(#anyscale-logo_svg__a)" fill="currentColor"><path d="M10.653 17.46H3.865C1.697 17.46 0 19.16 0 21.332v6.797c0 2.17 1.697 3.87 3.865 3.87h6.788c2.169 0 3.866-1.7 3.866-3.87V21.33c0-2.171-1.792-3.87-3.866-3.87Zm1.509 10.573c0 .85-.66 1.51-1.509 1.51H3.865a1.49 1.49 0 0 1-1.508-1.51v-6.796c0-.85.66-1.51 1.508-1.51h6.788c.849 0 1.509.66 1.509 1.51v6.796Z"></path><path d="M28.095 11.988h-8.108V3.87C19.892 1.7 18.196 0 16.027 0H3.865C1.697 0 0 1.7 0 3.87v6.608c0 2.171 1.697 3.87 3.865 3.87h13.67v13.687c0 2.171 1.698 3.87 3.866 3.87h6.6c2.168 0 3.865-1.699 3.865-3.87V15.858c0-2.076-1.697-3.775-3.771-3.87Zm-24.23 0a1.49 1.49 0 0 1-1.508-1.51V3.87c0-.85.66-1.51 1.508-1.51h12.162c.849 0 1.509.66 1.509 1.51v8.118H3.866Zm25.738 16.047c0 .85-.66 1.51-1.508 1.51h-6.6a1.49 1.49 0 0 1-1.508-1.51V14.348h8.108c.848 0 1.508.66 1.508 1.51v12.177ZM79.194 17.462l-3.017-8.118h-3.3l4.714 11.327-2.546 5.853h3.112l7.165-17.18H82.21l-3.016 8.118ZM93.335 14.819c-.66-.284-1.414-.472-2.075-.661-.66-.189-1.225-.378-1.79-.66-.378-.19-.566-.473-.566-.85 0-.378.188-.661.472-.85.847-.472 1.79-.378 2.639.094.377.284.566.661.566 1.133h2.828c0-1.133-.566-2.171-1.414-2.832-.943-.755-2.169-1.133-3.3-1.038-.849 0-1.697.094-2.45.472-.66.283-1.227.66-1.604 1.227-.377.472-.565 1.133-.565 1.794 0 .66.188 1.321.565 1.887.377.472.849.85 1.414 1.039.66.283 1.414.472 2.168.66.66.19 1.226.378 1.886.661.377.19.566.472.566.85 0 .377-.189.66-.471.85-.377.283-.85.377-1.32.377-.472 0-1.038-.094-1.415-.472-.377-.283-.565-.66-.66-1.133h-2.922c0 .755.282 1.416.754 1.982.472.567 1.131 1.133 1.791 1.416.849.378 1.698.567 2.546.567.849 0 1.697-.095 2.45-.472.661-.283 1.227-.66 1.604-1.227.377-.567.565-1.133.565-1.794 0-.66-.188-1.321-.66-1.888-.565-.66-1.037-.944-1.602-1.132ZM102.575 11.702c.566 0 1.036.095 1.508.472.377.283.66.755.849 1.227h3.205a5.366 5.366 0 0 0-1.886-3.02 5.348 5.348 0 0 0-3.582-1.039c-1.037 0-2.074.284-3.017.755a5.486 5.486 0 0 0-2.074 2.077 7.427 7.427 0 0 0 0 6.325c.472.85 1.131 1.604 2.074 2.076.943.472 1.98.756 3.017.756 1.32 0 2.546-.378 3.582-1.133a5.366 5.366 0 0 0 1.886-3.02h-3.111c-.283 1.037-1.32 1.698-2.357 1.604-.754 0-1.509-.283-1.98-.944a5.119 5.119 0 0 1 0-5.192 1.914 1.914 0 0 1 1.886-.944ZM118.412 10.1a.405.405 0 0 1-.377.378c-.094 0-.188 0-.188-.095a3.382 3.382 0 0 0-.944-.66c-.659-.378-1.507-.567-2.262-.567-.943 0-1.885.283-2.734.755a4.459 4.459 0 0 0-1.885 2.077c-.472.944-.754 2.077-.754 3.115 0 1.133.188 2.171.754 3.21.376.85 1.037 1.604 1.885 2.17.849.473 1.697.756 2.64.756.754 0 1.603-.189 2.263-.567.659-.283 1.131-.755 1.602-1.321v1.699h2.923V9.345h-2.923v.755Zm-.377 6.891c-.283.472-.66.944-1.132 1.227-.47.283-1.037.378-1.507.378-.567 0-1.037-.189-1.509-.378-.472-.283-.849-.755-1.131-1.227-.283-.566-.472-1.227-.472-1.793 0-.661.094-1.228.472-1.794.848-1.51 2.64-1.982 4.147-1.227h.095c.471.283.849.66 1.131 1.227.472 1.133.472 2.454-.094 3.587ZM55.907 10.1a.406.406 0 0 1-.377.378c-.095 0-.19 0-.19-.095a3.384 3.384 0 0 0-.942-.66c-.66-.378-1.508-.567-2.263-.567-.942 0-1.885.283-2.733.755a4.463 4.463 0 0 0-1.886 2.077c-.471.944-.754 2.077-.754 3.115 0 1.133.188 2.171.754 3.21.377.85 1.037 1.604 1.886 2.17.848.473 1.697.756 2.64.756.753 0 1.602-.189 2.262-.567.66-.283 1.131-.755 1.603-1.321v1.699h2.922V9.345h-2.922v.755Zm-.472 6.891c-.283.472-.66.944-1.131 1.227-.471.283-1.037.378-1.509.378-.565 0-1.037-.189-1.508-.378-.471-.283-.849-.755-1.131-1.227-.283-.566-.472-1.227-.472-1.793 0-.661.095-1.228.472-1.794.848-1.51 2.64-1.982 4.148-1.227h.094c.471.283.849.66 1.131 1.227.472 1.133.472 2.454-.094 3.587ZM126.708 5.477h-2.923v15.575h2.923V5.477ZM140.191 14.914c0-1.038-.189-2.077-.755-3.02-.471-.85-1.131-1.605-2.074-1.983a6.78 6.78 0 0 0-6.033 0 5.485 5.485 0 0 0-2.075 2.077c-.565 1.038-.754 2.077-.754 3.21 0 1.132.189 2.17.754 3.114a5.485 5.485 0 0 0 2.075 2.077c.942.472 1.979.755 3.016.755a6.56 6.56 0 0 0 3.489-1.038c.943-.661 1.602-1.7 1.885-2.738h-3.016c-.377.944-1.321 1.51-2.358 1.416-.659 0-1.414-.283-1.885-.755-.566-.472-.848-1.227-.848-1.982h8.484c.095-.378.095-.755.095-1.133Zm-8.579-.85c.093-.755.377-1.415.942-1.887.566-.472 1.226-.661 1.886-.661.754 0 1.414.189 1.979.66.566.473.849 1.133.849 1.794l-5.656.095ZM67.692 9.159a4.7 4.7 0 0 0-1.98.472c-.377.188-.754.377-1.037.66a.286.286 0 0 1-.377 0c-.094-.094-.094-.094-.094-.188v-.756H61.28v11.705h2.923v-6.418c-.094-.755.188-1.51.754-2.171.471-.472 1.226-.756 1.886-.756.66 0 1.414.284 1.885.755.472.567.754 1.322.66 2.172v6.418h2.923v-6.89c.094-1.322-.283-2.644-1.226-3.682-.848-.85-2.168-1.416-3.394-1.321Z"></path></g><defs><clipPath id="anyscale-logo_svg__a"><path fill="currentColor" d="M0 0h140.19v32H0z"></path></clipPath></defs></svg>