<svg height="200" viewBox="0 0 200 200" width="200" xmlns="http://www.w3.org/2000/svg"><g fill="#1b75bb"><path d="m77.035156 25.300781c4.449219-.988281 8.425782-.90625 11.992188.152344 3.777344 1.128906 5.375 3.277344 4.738281 6.375-.574219 5.078125 2.433594 10.097656 9.035156 15.28125 7.570313 5.570313 16.304688 9.074219 25.917969 10.4375 4.71875.644531 8.835938 2.761719 12.328125 6.3125 3.523437 3.550781 5.417969 7.570313 5.726563 12.015625.339843 4.785156-1.144532 8.726562-4.378907 11.878906-3.457031 3.222656-7.6875 4.71875-12.808593 4.335938-5.289063-.40625-9.921876-2.5-13.796876-6.355469-3.84375-3.847656-5.851562-8.097656-5.957031-12.863281.382813-9.457032-2.996093-17.359375-10.214843-23.480469-6.378907-5.441406-14.414063-7.882813-23.816407-7.261719-8.78125.714844-16.847656 4.148438-24.0625 10.339844-7.195312 6.253906-11.464843 13.550781-12.792969 21.773438-.929687 4.089843-2.722656 7.761718-5.433593 10.949218-2.601563 3.113282-5.160157 4.742188-7.726563 4.878906-2.554687.191407-4.398437-1.082031-5.527344-3.726562-1.050781-2.472656-1.175781-5.59375-.371093-9.3125.796875-3.507812 2.25-6.714844 4.46875-9.621094 2.285156-2.992187 4.746093-4.871094 7.359375-5.652344 5.554687-1.660156 11.570312-5.378906 18.097656-11.023437 6.664062-5.65625 11.3125-11.011719 13.757812-16.128906.070313-.175781.152344-.347657.226563-.527344 1.78125-4.117187 6.199219-7.082031 13.238281-8.777344"/><path d="m72.429688 56.859375c-8.871094.488281-17.105469 7.609375-18.425782 15.96875-1.433594 8.886719 4.988282 16.34375 14.421875 16.5 10.125.128906 19.132813-7.703125 19.933594-17.300781.703125-8.925782-6.523437-15.710938-15.929687-15.167969"/><path d="m94.117188 185.242188c4.671874.683593 9.121093-.34375 9.910156-2.171876.929687-2.121093-2.734375-4.402343-8.183594-5.210937-5.476562-.808594-9.976562.277344-10.082031 2.542969-.0625 1.925781 3.664062 4.15625 8.355469 4.839844"/><path d="m160.019531 166.984375c4.765625-1.84375 10.316407-7.363281 12.574219-12.550781 2.414062-5.582032.625-9.238282-4.132812-7.917969-5.4375 1.515625-11.9375 8.039063-14.308594 14.222656-2.113282 5.589844.59375 8.265625 5.867187 6.246094"/><path d="m49.519531 160.402344c-.089843-.347656-.113281-.667969-.15625-1.003906-.035156-.019532-.035156.054687-.066406.027343-2.648437-14.371093-11.347656-24.703125-22.125-29.207031.015625 0 .035156-.074219.03125-.046875-4.628906-1.960937-8.621094-8.828125-8.992187-16.128906-.394532-7.8125 3.417968-14.132813 8.394531-13.964844 5.859375.199219 10.851562 8.027344 11.152343 17.34375 0 .210937-.039062.40625-.039062.617187.007812-.023437.035156-.058593.046875-.042968.140625 15.800781 8.960937 28.210937 26.734375 31.714844-.027344-.023438-.058594.015624-.058594.03125 10.71875 2.148437 19.910156 10.042968 20.304688 17.746093.3125 6.621094-7.140625 10.34375-16.375 8.269531-8.6875-1.914062-17.019532-8.769531-18.851563-15.355468"/><path d="m31.324219 143.691406c-2.980469-1.144531-4.464844.921875-3.351563 4.53125 1.070313 3.441406 4.273438 7.230469 7.222656 8.585938 3.132813 1.414062 4.929688-.257813 3.933594-3.867188-1.066406-3.804687-4.585937-8.023437-7.804687-9.25"/></g><path d="m107.175781 18.375c-4.332031-.675781-8.453125 0-9.203125 1.402344-.867187 1.613281 2.507813 3.445312 7.558594 4.238281 5.0625.789063 9.242188.164063 9.351562-1.566406.089844-1.484375-3.355468-3.386719-7.707031-4.074219" fill="#1b478f"/><path d="m43.53125 36.148438c-4.691406 1.867187-10.242188 6.914062-12.601562 11.414062-2.550782 4.890625-.929688 7.6875 3.8125 6.113281 5.339843-1.871093 11.917968-7.765625 14.347656-12.960937 2.203125-4.667969-.417969-6.613282-5.558594-4.566406" fill="#1b478f"/><path d="m147.882812 40.714844c.097657.300781.125.554687.179688.832031.03125 0 .019531-.03125.054688-.03125 2.917968 12.042969 11.972656 21.539063 22.847656 26.777344-.019532 0-.015625.03125-.027344.035156 4.773438 2.296875 9.195312 9.136719 10.070312 16.050781.976563 7.542969-2.40625 13.179688-7.449218 12.421875-5.929688-.917969-11.5-9.042969-12.371094-17.890625-.015625-.203125.003906-.378906-.007812-.582031-.011719-.023437-.035157.011719-.035157.03125-1.109375-14.429687-10.113281-25.925781-27.40625-29.589844 0-.019531.046875-.050781.042969-.027343-10.25-2.195313-19.035156-8.816407-19.421875-15.023438-.300781-5.246094 6.714844-8.050781 15.40625-6.113281 8.265625 1.835937 16.265625 7.710937 18.117187 13.109375" fill="#1b478f"/><path d="m127.8125 179.382812c-4.761719 1.125-9.0625.910157-12.890625-.507812-4.105469-1.519531-5.832031-4.261719-5.199219-8.167969.554688-6.339843-5.609375-13.511719-12.683594-19.753906-7.960937-6.574219-17.066406-10.511719-27.0625-11.75-4.871093-.574219-9.09375-2.785156-12.523437-6.644531-3.476563-3.785156-5.1875-8.144532-5.285156-12.964844-.089844-5.113281 1.589843-9.398438 5.035156-12.816406 3.597656-3.503906 7.910156-5.25 13.015625-4.996094 5.285156.207031 9.902344 2.261719 13.703125 6.183594 3.875 3.925781 5.820313 8.472656 5.878906 13.609375-.503906 10.480469 3.050781 19.429687 10.597657 26.671875 6.84375 6.515625 15.402343 9.574218 25.417968 9.167968 9.300782-.542968 17.710938-4.261718 25.03125-11.113281 7.160156-6.789062 11.171875-14.75 11.988282-23.75.675781-4.375 2.277343-8.105469 4.796874-11.25 2.40625-2.996093 4.914063-4.359375 7.511719-4.214843 2.574219.167968 4.554688 1.75 5.890625 4.707031 1.28125 2.78125 1.636719 6.175781 1.082032 10.125-.511719 3.730469-1.796876 7.121093-3.859376 10.035156-2.125 3.082031-4.523437 4.902344-7.140624 5.445313-5.660157 1.226562-11.652344 4.957031-18.164063 11.109374-6.742187 6.273438-8.527344 13.464844-10.976563 19.710938-.078124.214844-.144531.425781-.222656.640625-1.792968 5.082031-6.441406 8.628906-13.941406 10.523437" fill="#1b478f"/><path d="m128.902344 140.035156c9.289062-.242187 17.519531-7.882812 18.488281-17.089844.96875-9.507812-5.964844-17.761718-15.554687-18.25-10.269532-.519531-19.292969 7.53125-19.917969 17.84375-.59375 9.917969 7.109375 17.734376 16.984375 17.496094" fill="#1b478f"/><path d="m161.761719 45.117188c-3.164063-1.4375-4.933594-.246094-3.882813 2.832031 1.117188 3.289062 4.789063 7.171875 8.0625 8.570312 3.058594 1.304688 4.488282-.285156 3.269532-3.472656-1.171876-3.003906-4.460938-6.515625-7.449219-7.929687" fill="#1b478f"/></svg>