<svg height="200" viewBox="0 0 200 200" width="200" xmlns="http://www.w3.org/2000/svg"><g transform="matrix(.92500326 0 0 .92500326 7.499654 76.862397)"><path d="m119.47266 0h2.7539l.42188.207031c5.0039 2.523438 8.90234 7.285157 10.12109 12.777344-3.10156-.695313-6.28906-.757813-9.3789.04297-4.01172.996094-7.6836 3.347656-10.28907 6.554687-2.60156 3.160157-4.13281 7.15625-4.33984 11.246094-.13281 1.894531.14062 3.726563.50781 5.578125-5.63672-1.261719-10.429686-5.300781-12.933592-10.46875-.230469-4.203125.621093-8.441406 2.492187-12.214844 2.136715-4.363281 5.597655-8.050781 9.812505-10.46875 3.29687-1.921875 7.02734-3 10.83203-3.253907zm0 0" fill="#eb192b"/><g fill="#3f282e"><path d="m122.22656 0h.73047c2.13281.285156 4.22656.636719 6.25781 1.378906 4.82813 1.714844 9.08594 4.945313 12.00391 9.164063 2.62891 3.757812 4.15625 8.25 4.37891 12.832031-1.66407-3.644531-4.66407-6.714844-8.17188-8.625-1.45312-.773438-3.03125-1.457031-4.65625-1.765625-1.21875-5.492187-5.11719-10.253906-10.12109-12.777344zm0 0"/><path d="m171.89062 0h2l.22266.015625c2.69141.183594 5.28906.761719 7.65234 2.101563 2 1.109374 3.62891 2.710937 4.86329 4.625.0273-1.726563.004-3.453126.0156-5.179688h13.26172c.004 20.480469 0 40.957031 0 61.433594-4.61717.003906-9.23826.003906-13.85545.003906-.008-6.71875.0117-13.433594-.0117-20.148438-.98828 1.257813-2.03906 2.433594-3.36328 3.355469-2.93359 2.105469-6.65625 2.894531-10.21484 2.945313-4.04297.08984-8.07032-.851563-11.56641-2.886719-3.16797-1.832031-5.80859-4.488281-7.68359-7.621094-2.39453-3.949219-3.52735-8.605469-3.51563-13.207031 0-4.386719.83594-8.882812 2.78516-12.835938 1.89062-3.898437 4.90625-7.273437 8.65625-9.476562 3.26172-1.941406 6.96875-2.9375 10.7539-3.125zm0 0"/><path d="m29.4375.496094c4.847656.945312 9.414062 3.386718 12.832031 6.953125 5.507813 5.515625 8.046875 13.722656 6.613281 21.382812-12.03125.0039-24.066406 0-36.097656.0039.925782 2.761718 2.707032 5.199218 5.148438 6.808593 2.582031 1.746094 5.867187 2.460938 8.933594 1.859375 2.617187-.484375 5.019531-1.859375 6.820312-3.8125 4.617188-.0039 9.238281-.03906 13.859375.01563-.964844 2.316407-2.21875 4.496094-3.808594 6.4375-2.644531 3.28125-6.175781 5.832031-10.089843 7.378907-4.671876 1.828124-9.890626 2.171874-14.765626.996093-3.636718-.867185-7.054687-2.589841-9.925781-4.980467-3.515625-2.914062-6.199219-6.820312-7.621093-11.15625-1.3164068-3.90625-1.570313-8.171874-.847657-12.222656.894531-4.980468 3.40625-9.660156 7.046875-13.171875 2.6875-2.621093 5.996094-4.617187 9.570313-5.765625 3.957031-1.2812498 8.253906-1.515625 12.332031-.726562zm0 0"/><path d="m47.546875 1.566406c4.785156-.00391 9.570313-.00391 14.351563 0 3.242187 9.132813 6.496093 18.269532 9.734374 27.410156.171876.441407.28125.953126.546876 1.34375 3.425781-9.53125 6.832031-19.199218 10.230468-28.753906 4.785156-.00391 9.570313-.00391 14.355469 0-6.003906 15.359375-12.015625 30.710938-18.007813 46.074219-4.425781 0-8.847656 0-13.273437 0-5.980469-15.355469-11.964844-30.714844-17.9375-46.074219zm0 0"/></g><path d="m30.144531 12.847656c2.777344 1.386719 4.921875 3.800782 6.105469 6.65625-7.71875.0078-15.4375.01172-23.15625-.0039 1.441406-3.40625 4.230469-6.175781 7.765625-7.34375 3.039063-1.027344 6.433594-.773438 9.285156.691406zm0 0" fill="#fff"/><path d="m132.76953 12.984375c.40625 2.054687.66797 4.105469.44531 6.203125-.30468 3.917969-1.86328 7.707031-4.3789 10.730469-2.69531 3.285156-6.53516 5.640625-10.6875 6.5625-2.9336.671875-5.95313.582031-8.87891-.07422-.36719-1.851562-.64062-3.683594-.50781-5.578125.20703-4.089844 1.73828-8.085937 4.33984-11.246094 2.60547-3.207031 6.27735-5.558593 10.28907-6.554687 3.08984-.800782 6.27734-.738282 9.3789-.04297zm0 0" fill="#fff"/><path d="m173.21875 12.664062c2.83594-.480468 5.79687.04688 8.19141 1.671876 2.92578 1.945312 4.76562 5.269531 5.1914 8.722656.67578 4.914062-2.0039 10.179687-6.42969 12.453125-4.28125 2.171875-9.84375 1.207031-13.17578-2.246094-2.46093-2.53125-3.88672-6.234375-3.4375-9.769531.3086-2.910156 1.57422-5.75 3.67969-7.804688 1.61719-1.601562 3.73047-2.671875 5.98047-3.027344zm0 0" fill="#fff"/><path d="m132.76953 12.984375c1.625.308594 3.20313.992187 4.65625 1.765625 3.50781 1.910156 6.50781 4.980469 8.17188 8.625.25 5.140625-1.10157 10.320312-3.91797 14.632812-2.70703 4.179688-6.69532 7.523438-11.3086 9.410157-3.46093 1.4375-7.24609 2.042969-10.98828 1.800781-2.04297-1.152344-3.95703-2.46875-5.53906-4.21875-2.1875-2.398438-3.90234-5.40625-4.57422-8.59375 2.92578.65625 5.94531.746094 8.87891.07422 4.15234-.921875 7.99219-3.277344 10.6875-6.5625 2.51562-3.023438 4.07422-6.8125 4.3789-10.730469.22266-2.097656-.0391-4.148438-.44531-6.203126zm0 0" fill="#00a6e1"/><path d="m96.335938 25.9375c2.503906 5.167969 7.296872 9.207031 12.933592 10.46875.67188 3.1875 2.38672 6.195312 4.57422 8.59375 1.58203 1.75 3.49609 3.066406 5.53906 4.21875-3.26953-.195312-6.5-1.0625-9.42968-2.519531-3.91797-1.953125-7.27735-4.964844-9.67579-8.625-2.347652-3.597657-3.742184-7.839844-3.941402-12.136719zm0 0" fill="#3f282e"/></g></svg>