<svg height="200" viewBox="0 0 200 200" width="200" xmlns="http://www.w3.org/2000/svg"><g fill="#693cc5"><path d="m100 200c-55.226562 0-100-44.773438-100-100s44.773438-100 100-100 100 44.773438 100 100-44.773438 100-100 100zm0-192c-50.808594 0-92 41.191406-92 92s41.191406 92 92 92 92-41.191406 92-92-41.191406-92-92-92zm0 0"/><path d="m159.601562 128h-7.601562v-16c0-2.210938-1.789062-4-4-4h-12v-16c0-2.210938-1.789062-4-4-4h-28v-12h28c2.210938 0 4-1.789062 4-4v-36c0-2.210938-1.789062-4-4-4h-64c-2.210938 0-4 1.789062-4 4v36c0 2.210938 1.789062 4 4 4h28v12h-28c-2.210938 0-4 1.789062-4 4v16h-12c-2.210938 0-4 1.789062-4 4v16h-7.601562c-2.207032 0-4 1.789062-4 4v20c0 2.210938 1.792968 4 4 4h19.601562c2.210938 0 4-1.789062 4-4v-20c0-2.210938-1.789062-4-4-4h-4v-12h20v12h-4c-2.210938 0-4 1.789062-4 4v20c0 2.210938 1.789062 4 4 4h20c2.210938 0 4-1.789062 4-4v-20c0-2.210938-1.789062-4-4-4h-8v-16c0-2.210938-1.789062-4-4-4h-8v-12h56v12h-8c-2.210938 0-4 1.789062-4 4v16h-8c-2.210938 0-4 1.789062-4 4v20c0 2.210938 1.789062 4 4 4h20c2.210938 0 4-1.789062 4-4v-20c0-2.210938-1.789062-4-4-4h-4v-12h20v12h-4.28125c-2.207031 0-4 1.789062-4 4v20c0 2.210938 1.792969 4 4 4h20c2.210938 0 4-1.789062 4-4v-20c0-1.082031-.4375-2.117188-1.210938-2.871094-.777343-.753906-1.828124-1.160156-2.90625-1.128906zm-103.601562 20h-11.601562v-12h11.601562zm32-12v12h-12v-12zm-16-68v-28h56v28zm52 80h-12v-12h12zm31.601562 0h-12v-12h12zm0 0"/></g></svg>