<?xml version="1.0" encoding="utf-8"?>
<!-- Generator: Adobe Illustrator 19.2.1, SVG Export Plug-In . SVG Version: 6.00 Build 0)  -->
<svg version="1.1" id="layer" xmlns="http://www.w3.org/2000/svg" xmlns:xlink="http://www.w3.org/1999/xlink" x="0px" y="0px"
	 viewBox="0 0 652 652" style="enable-background:new 0 0 652 652;" xml:space="preserve">
<style type="text/css">
	.st0{fill:#FF0046;}
</style>
<path class="st0" d="M38.1,324.1c-0.5,1.7-1.3,1.6-1.7,0l-0.8-2.9c0,0-1.1-4.2-3-9.2c-0.5-1.6-1.2-3.2-2.2-4.6
	c-1.6-1.7-4-2.3-6.2-1.6c-2,0.7-3.5,2.6-3.7,4.7c-0.1,1.8,0.1,3.7,0.5,5.5c1.5,10.8,3.9,21.5,7.2,32c2.1,4.7,7.5,6.8,12.2,4.8
	c0.1-0.1,0.3-0.1,0.4-0.2c4.2-3.1,7.2-7.5,8.5-12.5c2.3-5.6,14.1-38.1,14.1-38.1c1.2-3.2,2.1-3.1,2,0.4c0,0-0.6,31.8-0.7,46.3
	c-0.2,6.8,0.5,13.6,1.9,20.3c0.9,3.5,2.9,6.6,5.7,8.9c2.8,2.1,6.3,3.1,9.8,2.7c1.7-0.3,3.4-0.8,4.9-1.7c2.2-1.3,4.1-2.9,5.6-5
	c3.4-4.6,6.3-9.5,8.7-14.6c5.7-11.2,20.4-45.8,20.4-45.8c1.3-3.2,2.3-2.9,2.2,0.5c0,0-1.8,58.2-1.9,80.4c0,5.5,1,11,3,16.2
	c1.8,4.9,5.4,8.9,10.1,11.1c5.2,2.3,11.1,1.9,16-0.9c3.7-2.3,6.7-5.4,8.8-9.2c3-5.1,5.5-10.5,7.5-16c4.4-11.4,8.1-23.2,11.7-34.9
	c3.6-11.7,34.7-122.8,36.7-132.3c0.3-1.1,0.4-2.2,0.3-3.2c-0.3-2.2-1.6-4.1-3.6-5.1c-3.4-1.6-7.5-0.1-9.2,3.3
	c-1.7,3.5-44.2,106.5-44.2,106.5c-1.3,3.2-2.4,3-2.4-0.5c0,0,0.1-35.8,0.3-65.5c0.1-16.1-7.8-25.1-18.9-26.9
	c-5.1-0.8-10.4,0.4-14.7,3.3c-4.5,3.2-8.1,7.4-10.5,12.4c-3.4,6.5-24.2,67.3-24.2,67.3c-1.1,3.2-2.1,3.1-2.2-0.3
	c0,0-0.6-26.1-1.2-32.3c-0.9-9.4-3.1-25-15.3-25.8c-11.5-0.7-16.6,13.4-19.6,22.2c-1.9,5.8-11.6,37.3-11.6,37.3L38.1,324.1"/>
<path class="st0" d="M249.9,334.9c3,2.3,6.7,3.7,10.5,3.8c5.6,0,7.6-3.2,7.6-10.7v-33.8h11.3v35.1c0,13.7-6.4,19.7-17.9,19.7
	c-4,0-8-1.1-11.5-3.1L249.9,334.9"/>
<path class="st0" d="M325.1,294.1l9.3,36.3l8.9-36.3h11.1l-14,53.9H330l-9.5-35.6L311,348h-10.3l-14-53.9H298l8.8,36.3l9.5-36.3
	H325.1"/>
<path class="st0" d="M382.7,300.2h-12.9v20.1h12.9c5.6,0.6,10.5-3.4,11.2-8.9c0.6-5.6-3.4-10.5-8.9-11.2
	C384.2,300.1,383.4,300.1,382.7,300.2 M369.8,326.4V348h-6.9v-53.9h19.9c10.9,0,18,5.5,18,16.2c0,10.5-7.1,16.2-18,16.2L369.8,326.4
	"/>
<path class="st0" d="M410.7,294.1h6.9v47.7h27.5v6.2h-34.4V294.1"/>
<path class="st0" d="M456.2,325.7h17.6l-8.8-23L456.2,325.7L456.2,325.7z M468.3,294.1l21.1,53.9h-7l-6.2-16.2h-22.2l-6.1,16.2h-7
	l21.1-53.9H468.3L468.3,294.1z"/>
<path class="st0" d="M523.6,294.1h7.4l-19.7,31.7V348h-6.8v-22.2l-19.5-31.7h7.6l15.5,25.5L523.6,294.1"/>
<path class="st0" d="M570.9,294.1v6.1h-27.5v17h24.9v6.1h-24.9v18.3h27.5v6.2h-34.3v-53.9H570.9"/>
<path class="st0" d="M587.6,319.3h12.7c7.1,0,11.2-3.6,11.2-9.6s-4.1-9.6-11.2-9.6h-12.7V319.3L587.6,319.3z M587.6,325.2V348h-6.9
	v-53.9h19.8c10.9,0,17.9,5.4,17.9,15.6c0.5,7.9-5.6,14.7-13.5,15.2c-0.1,0-0.2,0-0.3,0l16,23.1h-7.9l-15.5-22.8L587.6,325.2
	L587.6,325.2z"/>
</svg>
