<svg height="200" viewBox="0 0 200 200" width="200" xmlns="http://www.w3.org/2000/svg"><g transform="matrix(.88138662 0 0 .88138662 11.863596 11.861337)"><path d="m141.40625 58.59375c22.86719 22.867188 22.86719 59.94531 0 82.8125l29.34766 29.34766c39.05468-39.05079 39.05468-102.371098 0-141.425785" fill="#e6e6e6"/><path d="m170.70312 29.289062c-39.05468-39.050781-102.371089-39.050781-141.42187 0-39.050781 39.054688-39.050781 102.367188 0 141.421878 39.050781 39.05078 102.36719 39.05078 141.42187 0l-29.35156-29.34766c-22.86718 22.86328-59.941404 22.86328-82.804685-.004-22.867187-22.86328-22.867187-59.937495 0-82.804682 22.863281-22.867188 59.937505-22.867188 82.804685 0l29.35156-29.351563" fill="#bf262b"/><path d="m197.92578 15.398438s-54.32031 80.785156-78.57422 102.003902c-1.34375 1.17188-1.57422 1.33985-2.09765 1.75782-11.26563 9.32031-27.91016 7.92187-37.464848-3.14453l-.523437-.62891c-9.433594-11.14063-7.851563-27.914064 3.144531-37.535158.492188-.429687.597656-.546874 1.917969-1.625 24.906255-20.449218 113.605465-60.796874 113.605465-60.796874zm0 0" fill="#4c4c4c"/></g></svg>