<svg id="LOGOS" xmlns="http://www.w3.org/2000/svg" viewBox="0 0 505.88 132"><defs><style>.cls-1{fill:#ffd814;}</style></defs><path d="M258.33,87.55v-14h17.24V69.16H258.33V56.23H276.9V51.8H253.37V92H277V87.55Z"/><path d="M299.3,62.06c-3.49,0-8.6,1.57-11.84,3.13l-.15.07-.49-2.61h-3.9l0,29.3h4.85l0-22.28.07,0c3.12-1.61,7.68-3,9.95-3,2,0,3,.91,3,2.86l0,22.44h4.85l0-22.51C305.6,64.49,303.55,62.07,299.3,62.06Z"/><path d="M326.84,87.82a18.38,18.38,0,0,1-4.64.7c-2.93,0-3.15-1.35-3.15-3.41V66.66H327l.41-4h-8.36v-8l-4.85.7v7.29H309v4h5.22V86c0,4.7,2.09,6.61,7.22,6.61a18.18,18.18,0,0,0,6-1Z"/><path d="M352.7,79.16V73.1c0-7.43-3.59-11-11-11-7.61,0-11.47,3.67-11.47,10.92v8.86c0,7.32,3.68,10.73,11.59,10.73a32.47,32.47,0,0,0,10.3-1.65l-.63-3.83a37.45,37.45,0,0,1-9.25,1.36c-6.09,0-7.16-2.15-7.16-6.67V79.16Zm-17.59-6.55c0-4.53,2-6.55,6.62-6.55S348,68,348,72.61v2.55H335.11Z"/><path d="M370.68,62.11a37.62,37.62,0,0,0-8,4.65l-.18.15-.31-4.25H358V92h4.85V71.64l.05,0a65.81,65.81,0,0,1,8.37-5.07Z"/><path d="M388.67,62.06A15.71,15.71,0,0,0,379,65.31l-.16.13-.44-2.78H374.3v42l4.85-.69V91.64l.15,0a46.91,46.91,0,0,0,8.4.9c6.37,0,9.47-3.11,9.47-9.52V71C397.17,65,394.39,62.06,388.67,62.06Zm3.65,21c0,3.7-1.47,5.28-4.92,5.28a47.39,47.39,0,0,1-8.15-.91l-.1,0V69.89l0,0a13.73,13.73,0,0,1,8.46-3.55c2.8,0,4.67.79,4.67,4.68Z"/><path d="M415.75,62.11a37.62,37.62,0,0,0-8,4.65l-.18.15-.31-4.25h-4.19V92H408V71.64l.05,0a65.81,65.81,0,0,1,8.37-5.07Z"/><path d="M419.37,50.59v7.09h4.85V50.59Zm0,12.07V92h4.85V62.66Z"/><path d="M448,78.3c-1.24-1.28-3.67-2.07-7.7-3.08-5-1.21-5.13-1.81-5.13-5.22,0-2.82.77-3.82,5.09-3.82a48.45,48.45,0,0,1,8.09.82l.34-3.94a33,33,0,0,0-8.24-1c-7.34,0-10.07,2.12-10.07,7.82,0,6.08.68,7.56,7.91,9.35,5.88,1.43,6.29,1.77,6.29,5.09,0,3.15-.77,4.13-5.59,4.13a33.55,33.55,0,0,1-8.33-1.18L430.05,91a30.34,30.34,0,0,0,9.27,1.53c8.51,0,10.06-2.84,10.06-8.43C449.38,81.07,449.19,79.49,448,78.3Z"/><path d="M475.88,79.16V73.1c0-7.43-3.59-11-11-11-7.6,0-11.46,3.67-11.46,10.92v8.86c0,7.32,3.68,10.73,11.59,10.73a32.36,32.36,0,0,0,10.29-1.65l-.62-3.83a37.45,37.45,0,0,1-9.25,1.36c-6.09,0-7.16-2.15-7.16-6.67V79.16Zm-17.59-6.55c0-4.53,2-6.55,6.61-6.55s6.32,1.9,6.32,6.55v2.55H458.29Z"/><path d="M145,51.69h7.92L140.85,92H129.6l-12-40.28h7.92l9.74,33.57Z"/><path d="M174.91,92h-6l-.55-2a16.12,16.12,0,0,1-8.77,2.6c-5.38,0-7.68-3.69-7.68-8.77,0-6,2.6-8.29,8.59-8.29h7.08V72.44c0-3.27-.91-4.42-5.63-4.42a40.72,40.72,0,0,0-8.16.91l-.91-5.63a38.68,38.68,0,0,1,10.1-1.39c9.25,0,12,3.27,12,10.65Zm-7.38-11.13h-5.45c-2.42,0-3.08.67-3.08,2.91,0,2,.66,3,3,3a11.69,11.69,0,0,0,5.57-1.51Z"/><path d="M186.52,62.52V83.08c0,1.57.66,2.36,2.36,2.36s5-1.09,7.68-2.48V62.52h7.38V92h-5.63l-.72-2.48a29.44,29.44,0,0,1-11.8,3.09c-4.9,0-6.65-3.45-6.65-8.71V62.52Z"/><path d="M207.87,92V50.48l7.38-1V92Z"/><path d="M237.26,91.43a20.57,20.57,0,0,1-6.47,1.15c-5.38,0-8.1-2.54-8.1-7.8V68.38h-4.42V62.52h4.42V55.2l7.38-1v8.35h7.56l-.49,5.86h-7.07V83.81c0,1.57.72,2.6,2.66,2.6a13.92,13.92,0,0,0,3.69-.61Z"/><path d="M125.42,41.81V36.16h-5.18v5.65H117.6V28.23h2.64v5.69h5.18V28.23h2.64V41.81Zm12.32,0h-2.09l-.19-.66a5.77,5.77,0,0,1-3,.86c-1.87,0-2.66-1.23-2.66-2.92,0-2,.9-2.75,3-2.75h2.46v-1c0-1.09-.32-1.47-1.95-1.47a14.94,14.94,0,0,0-2.83.3l-.32-1.87a14,14,0,0,1,3.5-.46c3.21,0,4.15,1.09,4.15,3.54Zm-2.55-3.7H133.3c-.84,0-1.07.22-1.07,1s.23,1,1,1a4.22,4.22,0,0,0,1.93-.5ZM143.1,42a12.53,12.53,0,0,1-3.52-.56l.35-1.87a12,12,0,0,0,3,.42c1.14,0,1.3-.24,1.3-1s-.12-.9-1.78-1.28c-2.49-.59-2.79-1.19-2.79-3.08s.91-2.84,3.82-2.84a14.07,14.07,0,0,1,3.06.34l-.25,2a19,19,0,0,0-2.81-.28c-1.11,0-1.3.24-1.3.85,0,.78.06.84,1.45,1.18,2.85.73,3.12,1.09,3.12,3.1S146.18,42,143.1,42Zm11.7-.2V35c0-.52-.23-.79-.81-.79a7.31,7.31,0,0,0-2.66.83v6.8h-2.56V28l2.56.39v4.33a9.34,9.34,0,0,1,3.73-.94c1.69,0,2.3,1.15,2.3,2.9v7.1Zm4.71-11.19V28.23h2.56v2.39Zm0,11.19V32h2.56v9.8Zm4.6-9.72c0-2.45,1.49-3.88,5-3.88a16.54,16.54,0,0,1,3.79.44l-.29,2.19a21.72,21.72,0,0,0-3.42-.34c-1.82,0-2.41.6-2.41,2v5.15c0,1.43.59,2,2.41,2a21.72,21.72,0,0,0,3.42-.34l.29,2.19a16.54,16.54,0,0,1-3.79.44c-3.48,0-5-1.43-5-3.88ZM178.52,42c-3.5,0-4.45-1.85-4.45-3.86V35.67c0-2,1-3.86,4.45-3.86S183,33.66,183,35.67v2.48C183,40.16,182,42,178.52,42Zm0-8.11c-1.36,0-1.89.59-1.89,1.69v2.64c0,1.1.53,1.69,1.89,1.69s1.88-.59,1.88-1.69V35.59C180.4,34.49,179.88,33.9,178.52,33.9Zm11.64.16a21.79,21.79,0,0,0-2.7,1.43v6.32H184.9V32h2.16l.17,1.09a11.15,11.15,0,0,1,2.68-1.29Zm10.22,4.49c0,2.17-1,3.46-3.37,3.46a14.85,14.85,0,0,1-2.73-.28v4l-2.55.38V32h2l.25.83a5.48,5.48,0,0,1,3.23-1c2,0,3.14,1.17,3.14,3.4Zm-6.1,1.11a11.86,11.86,0,0,0,2.27.26c.92,0,1.27-.42,1.27-1.31V35.15c0-.81-.31-1.25-1.25-1.25a3.68,3.68,0,0,0-2.29.89Z"/><path class="cls-1" d="M30.11,40.8,62,102.86,94.11,40.8ZM57,65.44H52V60.36H57Zm0-7.62H52V52.74H57Zm7.62,15.24H59.57V68h5.08Zm0-7.62H59.57V60.36h5.08Zm0-7.62H59.57V52.74h5.08Zm7.58,7.62H67.15V60.36h5.08Zm-5.08-7.62V52.74h5.08v5.08Z"/></svg>