<?xml version="1.0" standalone="no"?>
<!DOCTYPE svg PUBLIC "-//W3C//DTD SVG 20010904//EN"
 "http://www.w3.org/TR/2001/REC-SVG-20010904/DTD/svg10.dtd">
<svg version="1.0" xmlns="http://www.w3.org/2000/svg"
 width="326.000000pt" height="326.000000pt" viewBox="0 0 326.000000 326.000000"
 preserveAspectRatio="xMidYMid meet">

<g transform="translate(0.000000,326.000000) scale(0.100000,-0.100000)"
fill="#000000" stroke="none">
<path d="M0 1630 l0 -1630 1633 2 c897 2 1437 4 1200 5 -425 3 -433 4 -433 23
0 12 -7 20 -17 20 -20 0 -103 84 -103 104 0 8 -12 17 -26 20 -14 4 -33 20 -42
36 -9 17 -21 30 -25 30 -14 0 -37 28 -37 44 0 10 -9 16 -25 16 -18 0 -29 8
-38 28 -13 30 -27 43 -39 36 -4 -3 -8 4 -8 15 0 12 -7 21 -15 21 -8 0 -15 7
-15 15 0 9 -11 20 -25 25 -14 5 -25 15 -25 22 0 7 -13 21 -30 30 -16 9 -32 28
-36 42 -3 14 -12 26 -20 26 -8 0 -14 4 -14 10 0 5 -6 7 -14 4 -9 -3 -17 6 -24
25 -6 17 -18 31 -26 31 -9 0 -16 7 -16 15 0 8 -7 15 -15 15 -8 0 -15 9 -15 20
0 11 -6 20 -14 20 -21 0 -87 61 -102 95 -10 24 -13 26 -14 9 0 -43 -8 -44
-347 -44 -225 0 -323 3 -323 11 0 6 19 30 43 55 l42 44 233 0 c253 0 238 -4
226 59 -5 24 -12 31 -30 31 -17 0 -25 7 -30 25 -6 23 -15 30 -36 26 -5 0 -8 8
-8 19 0 11 -7 20 -15 20 -8 0 -15 6 -15 13 0 8 -11 19 -25 25 -14 7 -30 23
-37 37 -6 14 -17 25 -25 25 -8 0 -19 14 -24 30 -6 17 -17 30 -25 30 -8 0 -14
4 -14 10 0 5 -7 7 -15 4 -9 -4 -16 3 -21 20 -3 14 -15 28 -25 31 -10 4 -19 13
-19 21 0 8 -7 14 -15 14 -8 0 -15 9 -15 20 0 13 -7 20 -20 20 -11 0 -20 7 -20
15 0 8 -6 15 -13 15 -17 0 -53 39 -61 66 -7 22 -32 34 -72 34 -22 0 -22 -3
-25 -230 l-4 -230 -42 -41 c-73 -74 -73 -76 -73 291 0 273 2 321 15 326 12 5
11 12 -7 44 -13 22 -28 36 -35 33 -7 -3 -13 2 -13 11 0 9 -4 16 -10 16 -5 0
-10 6 -10 13 0 7 -13 21 -30 30 -16 10 -30 25 -30 33 0 8 -11 19 -25 24 -14 5
-25 16 -25 25 0 8 -4 15 -10 15 -5 0 -10 6 -10 14 0 15 -27 29 -41 21 -4 -3
-11 5 -15 19 -3 14 -15 28 -25 31 -10 4 -19 13 -19 21 0 8 -6 14 -14 14 -8 0
-16 10 -18 23 -2 15 -9 21 -20 19 -11 -2 -18 3 -18 13 0 8 -6 15 -13 15 -18 0
-53 39 -62 68 -6 22 -42 49 -58 44 -5 -1 -11 6 -14 17 -3 11 -14 23 -24 26
-10 4 -19 13 -19 21 0 8 -7 14 -15 14 -8 0 -15 9 -15 20 0 14 -7 20 -24 20
-17 0 -28 9 -40 35 -11 23 -21 32 -31 29 -10 -4 -15 0 -15 15 0 12 -6 21 -14
21 -30 0 -35 58 -39 472 l-3 418 1620 3 1621 2 -1632 3 -1633 2 0 -1630z
m1123 -518 c15 -15 27 -35 27 -43 0 -8 -106 -119 -235 -247 -129 -128 -235
-234 -235 -237 0 -3 52 -5 115 -5 113 0 115 0 121 -24 3 -13 4 -35 2 -47 l-3
-24 -202 -3 c-193 -2 -203 -2 -213 18 -7 12 -9 89 -8 212 l3 193 45 0 45 0 3
-122 c1 -68 4 -123 5 -123 5 0 348 346 414 417 32 34 65 62 74 63 8 0 27 -13
42 -28z"/>
</g>
</svg>
