<svg height="200" viewBox="0 0 200 200" width="200" xmlns="http://www.w3.org/2000/svg" xmlns:xlink="http://www.w3.org/1999/xlink"><filter id="a" height="100%" width="100%" x="0%" y="0%"><feColorMatrix in="SourceGraphic" type="matrix" values="0 0 0 0 1 0 0 0 0 1 0 0 0 0 1 0 0 0 1 0"/></filter><mask id="b"><g filter="url(#a)"><path d="m0 0h200v200h-200z" fill-opacity=".25"/></g></mask><clipPath id="c"><path d="m0 0h200v200h-200z"/></clipPath><mask id="d"><g filter="url(#a)"><path d="m0 0h200v200h-200z" fill-opacity=".2"/></g></mask><clipPath id="e"><path d="m0 0h200v200h-200z"/></clipPath><mask id="f"><g filter="url(#a)"><path d="m0 0h200v200h-200z" fill-opacity=".4"/></g></mask><clipPath id="g"><path d="m0 0h200v200h-200z"/></clipPath><mask id="h"><g filter="url(#a)"><path d="m0 0h200v200h-200z" fill-opacity=".15"/></g></mask><clipPath id="i"><path d="m0 0h200v200h-200z"/></clipPath><path d="m163.332031 16.667969h-126.664062c-11.046875 0-20 8.953125-20 20v126.664062c0 11.046875 8.953125 20 20 20h126.664062c11.046875 0 20-8.953125 20-20v-126.664062c0-11.046875-8.953125-20-20-20zm0 0" fill="#3e3e3e"/><path d="m30 83.332031h140v36.667969h-140zm0 0" fill="#b8d432"/><path d="m30 133.332031h140v36.667969h-140zm0 0" fill="#804998"/><path d="m30 33.332031h140v36.667969h-140zm0 0" fill="#59b4d9"/><g clip-path="url(#c)" mask="url(#b)"><path d="m30 83.332031h140v6.667969h-140zm0 0" fill="#fff"/></g><g clip-path="url(#e)" mask="url(#d)"><path d="m30 33.332031h140v6.667969h-140zm0 0" fill="#fff"/></g><g clip-path="url(#g)" mask="url(#f)"><path d="m30 133.332031h140v6.667969h-140zm0 0" fill="#fff"/></g><g clip-path="url(#i)" mask="url(#h)"><path d="m36.667969 183.332031h9.597656l113.714844-166.664062h-123.3125c-11.046875 0-20 8.953125-20 20v126.664062c0 11.046875 8.953125 20 20 20zm0 0" fill="#fff"/></g></svg>