<svg width="157" height="40" viewBox="0 0 157 40" fill="none" xmlns="http://www.w3.org/2000/svg">
<path d="M15.0869 34.1508C12.7963 34.1527 10.5398 33.5955 8.51331 32.5276C6.48684 31.4596 4.75162 29.9133 3.45828 28.0227C2.16493 26.1321 1.35254 23.9545 1.09162 21.6787C0.830692 19.403 1.12912 17.098 1.961 14.9637C2.79289 12.8295 4.13308 10.9305 5.86525 9.43163C7.59743 7.93276 9.66924 6.8793 11.9009 6.36267C14.1325 5.84604 16.4565 5.88186 18.6711 6.46702C20.8858 7.05219 22.9241 8.16901 24.6093 9.72055L21.269 13.215C19.941 12.0155 18.2937 11.2269 16.5265 10.9449C14.7594 10.6628 12.9484 10.8994 11.313 11.626C9.67766 12.3525 8.28816 13.5379 7.31293 15.0383C6.33771 16.5387 5.81864 18.2898 5.81864 20.0793C5.81864 21.8688 6.33771 23.6198 7.31293 25.1203C8.28816 26.6207 9.67766 27.806 11.313 28.5325C12.9484 29.2591 14.7594 29.4957 16.5265 29.2137C18.2937 28.9316 19.941 28.143 21.269 26.9435L24.6093 30.438C22.0145 32.8283 18.6148 34.1538 15.0869 34.1508Z" fill="#E03875"/>
<path d="M26.4125 27.1108C26.1843 27.1108 25.9612 27.0432 25.7715 26.9164C25.5818 26.7896 25.4339 26.6094 25.3466 26.3986C25.2593 26.1878 25.2364 25.9559 25.281 25.7321C25.3255 25.5083 25.4353 25.3027 25.5967 25.1414C25.758 24.98 25.9636 24.8701 26.1874 24.8256C26.4112 24.7811 26.6432 24.804 26.854 24.8913C27.0648 24.9786 27.2449 25.1265 27.3717 25.3162C27.4985 25.5059 27.5661 25.729 27.5661 25.9571C27.5655 26.2629 27.4437 26.556 27.2275 26.7722C27.0113 26.9884 26.7182 27.1101 26.4125 27.1108Z" fill="#E03875"/>
<path d="M14.9973 23.1252C14.3935 23.1278 13.8024 22.951 13.2991 22.6173C12.7958 22.2836 12.4029 21.808 12.1702 21.2508C11.9375 20.6936 11.8754 20.0798 11.9918 19.4873C12.1082 18.8947 12.398 18.3501 12.8242 17.9223C13.2505 17.4946 13.7942 17.2031 14.3863 17.0846C14.9785 16.9662 15.5924 17.0262 16.1505 17.2571C16.7085 17.4879 17.1854 17.8792 17.5208 18.3814C17.8562 18.8836 18.0349 19.474 18.0344 20.0779C18.0331 20.8839 17.713 21.6567 17.144 22.2276C16.575 22.7985 15.8034 23.1212 14.9973 23.1252Z" fill="#E03875"/>
<path d="M27.7367 23.1794C27.5085 23.1794 27.2855 23.1118 27.0957 22.985C26.906 22.8582 26.7581 22.6781 26.6708 22.4672C26.5835 22.2564 26.5607 22.0245 26.6052 21.8007C26.6497 21.5769 26.7596 21.3713 26.9209 21.21C27.0823 21.0486 27.2878 20.9388 27.5116 20.8942C27.7354 20.8497 27.9674 20.8726 28.1782 20.9599C28.389 21.0472 28.5692 21.1951 28.6959 21.3848C28.8227 21.5745 28.8904 21.7976 28.8904 22.0257C28.8897 22.3315 28.7679 22.6246 28.5517 22.8408C28.3355 23.057 28.0425 23.1787 27.7367 23.1794Z" fill="#E03875"/>
<path d="M24.306 23.0351C24.0772 23.0351 23.8537 22.9671 23.6637 22.8398C23.4737 22.7124 23.3258 22.5315 23.2389 22.3199C23.152 22.1084 23.1299 21.8758 23.1755 21.6516C23.221 21.4275 23.3322 21.222 23.4948 21.0611C23.6575 20.9003 23.8642 20.7915 24.0889 20.7484C24.3135 20.7054 24.5459 20.73 24.7564 20.8193C24.967 20.9086 25.1463 21.0585 25.2715 21.2499C25.3967 21.4413 25.4622 21.6656 25.4596 21.8943C25.4563 22.1981 25.3332 22.4882 25.1172 22.7018C24.9012 22.9154 24.6097 23.0352 24.306 23.0351Z" fill="#E03875"/>
<path d="M27.7367 19.2917C27.5085 19.2917 27.2855 19.2241 27.0957 19.0973C26.906 18.9705 26.7581 18.7904 26.6708 18.5796C26.5835 18.3687 26.5607 18.1368 26.6052 17.913C26.6497 17.6892 26.7596 17.4836 26.9209 17.3223C27.0823 17.1609 27.2878 17.0511 27.5116 17.0065C27.7354 16.962 27.9674 16.9849 28.1782 17.0722C28.389 17.1595 28.5692 17.3074 28.6959 17.4971C28.8227 17.6868 28.8904 17.9099 28.8904 18.1381C28.8897 18.4438 28.7679 18.7369 28.5517 18.9531C28.3355 19.1693 28.0425 19.2911 27.7367 19.2917Z" fill="#E03875"/>
<path d="M24.306 19.4228C24.0779 19.4228 23.8548 19.3552 23.6651 19.2284C23.4754 19.1016 23.3275 18.9215 23.2402 18.7107C23.1528 18.4998 23.13 18.2679 23.1745 18.0441C23.219 17.8203 23.3289 17.6147 23.4903 17.4534C23.6516 17.292 23.8572 17.1822 24.081 17.1376C24.3047 17.0931 24.5367 17.116 24.7475 17.2033C24.9583 17.2906 25.1385 17.4385 25.2653 17.6282C25.392 17.8179 25.4597 18.041 25.4597 18.2692C25.4597 18.5751 25.3382 18.8686 25.1218 19.0849C24.9054 19.3013 24.612 19.4228 24.306 19.4228Z" fill="#E03875"/>
<path d="M26.4795 15.4116C26.2512 15.4121 26.0279 15.3449 25.8378 15.2184C25.6478 15.092 25.4995 14.912 25.4118 14.7012C25.3241 14.4904 25.3009 14.2584 25.3451 14.0344C25.3893 13.8105 25.499 13.6047 25.6602 13.4431C25.8215 13.2815 26.027 13.1713 26.2509 13.1266C26.4748 13.0819 26.7069 13.1046 26.9178 13.1918C27.1288 13.2791 27.3091 13.4269 27.436 13.6167C27.5629 13.8065 27.6306 14.0296 27.6306 14.2579C27.6306 14.5635 27.5094 14.8565 27.2936 15.0728C27.0778 15.2891 26.785 15.4109 26.4795 15.4116Z" fill="#E03875"/>
<path d="M54.9486 28.6316V10.6496H51.5466V18.0476H44.8776V10.6496H41.4756V28.6316H44.8776V21.0446H51.5466V28.6316H54.9486Z" fill="black"/>
<path d="M57.2549 23.6906C57.2549 26.9846 59.1719 28.9016 63.6539 28.9016C65.3279 28.9016 67.0559 28.6856 68.5409 28.3076L68.1629 25.3646C66.7049 25.6346 65.0039 25.8236 63.7619 25.8236C61.4129 25.8236 60.6569 25.0136 60.6569 23.0966V16.1846C60.6569 14.2676 61.4129 13.4576 63.7619 13.4576C65.0039 13.4576 66.7049 13.6466 68.1629 13.9166L68.5409 10.9736C67.0559 10.5956 65.3279 10.3796 63.6539 10.3796C59.1719 10.3796 57.2549 12.2966 57.2549 15.5906V23.6906Z" fill="black"/>
<path d="M70.4424 28.6316H73.8444V22.7996H77.3004C81.4854 22.7996 83.1594 21.0986 83.1594 17.9666V15.5096C83.1594 12.3506 81.6204 10.6496 77.4624 10.6496H70.4424V28.6316ZM79.7574 15.7796V17.6156C79.7574 19.1006 79.1904 19.8026 77.2734 19.8026H73.8444V13.6466H77.2734C79.1364 13.6466 79.7574 14.2946 79.7574 15.7796Z" fill="black"/>
<path d="M88.563 23.6906C88.563 26.9846 90.48 28.9016 94.962 28.9016C96.636 28.9016 98.364 28.6856 99.849 28.3076L99.471 25.3646C98.013 25.6346 96.312 25.8236 95.07 25.8236C92.721 25.8236 91.965 25.0136 91.965 23.0966V16.1846C91.965 14.2676 92.721 13.4576 95.07 13.4576C96.312 13.4576 98.013 13.6466 99.471 13.9166L99.849 10.9736C98.364 10.5956 96.636 10.3796 94.962 10.3796C90.48 10.3796 88.563 12.2966 88.563 15.5906V23.6906Z" fill="black"/>
<path d="M112.206 23.7176V20.3966C112.206 17.6966 110.991 15.2126 106.482 15.2126C101.973 15.2126 100.758 17.6966 100.758 20.3966V23.7176C100.758 26.4176 101.973 28.9016 106.482 28.9016C110.991 28.9016 112.206 26.4176 112.206 23.7176ZM108.912 20.2886V23.8256C108.912 25.3106 108.237 26.0936 106.482 26.0936C104.727 26.0936 104.052 25.3106 104.052 23.8256V20.2886C104.052 18.8036 104.727 18.0206 106.482 18.0206C108.237 18.0206 108.912 18.8036 108.912 20.2886Z" fill="black"/>
<path d="M125.1 28.6316V19.1006C125.1 16.7516 124.317 15.2126 122.13 15.2126C120.591 15.2126 118.512 15.7796 116.865 16.5896L116.541 15.4826H114.03V28.6316H117.324V19.5056C118.512 18.8846 119.943 18.3986 120.753 18.3986C121.509 18.3986 121.806 18.7496 121.806 19.4516V28.6316H125.1Z" fill="black"/>
<path d="M136.222 24.7976C136.222 22.0976 135.871 21.6116 132.199 20.6396C130.417 20.1806 130.336 20.0996 130.336 19.0466C130.336 18.2366 130.579 17.9126 132.01 17.9126C133.036 17.9126 134.629 18.1016 135.628 18.2906L135.952 15.6716C134.818 15.3746 133.225 15.2126 132.01 15.2126C128.257 15.2126 127.096 16.3736 127.096 19.0196C127.096 21.5576 127.474 22.3676 130.687 23.1506C132.82 23.6636 132.982 24.0686 132.982 24.8786C132.982 25.8776 132.766 26.2016 131.308 26.2016C129.958 26.2016 128.5 25.9586 127.393 25.6346L126.934 28.1456C128.149 28.5776 130.066 28.9016 131.47 28.9016C135.439 28.9016 136.222 27.3356 136.222 24.7976Z" fill="black"/>
<path d="M137.984 15.4826V25.0136C137.984 27.3626 138.767 28.9016 140.954 28.9016C142.493 28.9016 144.572 28.3346 146.219 27.5246L146.543 28.6316H149.054V15.4826H145.76V24.6086C144.572 25.2296 143.141 25.7156 142.331 25.7156C141.575 25.7156 141.278 25.3646 141.278 24.6626V15.4826H137.984Z" fill="black"/>
<path d="M154.776 28.6316V9.65063L151.482 10.1096V28.6316H154.776Z" fill="black"/>
</svg>
