<svg height="200" viewBox="0 0 200 200" width="200" xmlns="http://www.w3.org/2000/svg"><path d="m686.132812 520.702026c3.535157-29.492187 2.480469-33.828125 24.453126-29.042968l5.566406.488281c16.894531.761719 39.003906-2.714844 51.992187-8.75 27.949219-12.96875 44.53125-34.628906 16.953125-28.925781-62.871094 12.96875-67.1875-8.320313-67.1875-8.320313 66.386719-98.515625 94.140625-223.554687 70.195313-254.160156-65.351563-83.476563-178.4375-44.003906-180.332031-42.988281l-.605469.117187c-12.421875-2.578125-26.328125-4.121094-41.933594-4.375-28.457031-.46875-50.039063 7.460938-66.425781 19.882813 0 0-201.757813-83.125-192.363282 104.53125 1.992188 39.921875 57.207032 302.070312 123.085938 222.890625 24.0625-28.945313 47.324219-53.4375 47.324219-53.4375 11.5625 7.675781 25.390625 11.601562 39.902343 10.195312l1.113282-.957031c-.351563 3.59375-.195313 7.109375.449218 11.269531-16.972656 18.964844-11.972656 22.285156-45.898437 29.277344-34.316406 7.070312-14.160156 19.667969-.996094 22.949219 15.957031 3.984375 52.871094 9.648437 77.832031-25.273438l-.996093 3.984375c6.660156 5.3125 6.210937 38.261719 7.148437 61.816406.957032 23.535157 2.519532 45.507813 7.324219 58.457032 4.804687 12.949218 10.46875 46.308593 55.039063 36.757812 37.265624-7.988281 65.761718-19.472656 68.359374-126.386719" fill="#ffc836" stroke="#000" stroke-width="46.744125" transform="matrix(.2 0 0 .2 0 -10.472437)"/><path d="m90.707031 76.804688c0-1.675782 1.339844-3.027344 3.003907-3.027344 1.65625 0 3 1.351562 3 3.027344 0 1.667968-1.34375 3.019531-3 3.019531-1.664063 0-3.003907-1.351563-3.003907-3.019531zm0 0" fill="#ff0"/><path d="m197.809708 561.502808c-3.535157 29.511718-2.480469 33.828125-24.453125 29.042968l-5.566407-.488281c-16.914062-.761719-39.003906 2.734375-51.992187 8.75-27.949219 12.96875-44.53125 34.628906-16.972656 28.945313 62.871093-12.96875 67.207031 8.320312 67.207031 8.320312-66.386719 98.496094-94.140625 223.535156-70.195313 254.140625 65.332032 83.496094 178.4375 44.023438 180.332032 42.988281l.605468-.117187c12.421875 2.578125 26.328125 4.121094 41.933594 4.375 28.457031.46875 50.039063-7.460938 66.425781-19.882813 0 0 201.757813 83.125 192.363282-104.53125-1.992188-39.921875-57.207032-302.070312-123.085938-222.890625-24.0625 28.964844-47.34375 53.4375-47.34375 53.4375-11.542969-7.675781-25.371094-11.582031-39.882812-10.175781l-1.113282.957031c.351563-3.59375.195313-7.109375-.449218-11.289062 16.953125-18.945313 11.972656-22.285156 45.898437-29.257813 34.316406-7.070312 14.160156-19.667968.996094-22.96875-15.957031-3.984375-52.890625-9.628906-77.832031 25.292969l.996093-3.984375c-6.660156-5.332031-6.210937-38.28125-7.148437-61.816406-.957031-23.554688-2.519531-45.507813-7.324219-58.476563-4.804687-12.949218-10.46875-46.308593-55.039062-36.757812-37.265625 7.988281-65.761719 19.492187-68.359375 126.386719" fill="#336791" stroke="#000" stroke-width="46.744125" transform="matrix(.2 0 0 .2 26.285715 -2.472437)"/><path d="m46.050781 123.078125c12.574219-2.59375 13.441407 1.664063 13.441407 1.664063-13.277344 19.703124-18.828126 44.710937-14.039063 50.832031 13.066406 16.695312 35.6875 8.800781 36.066406 8.59375l.121094-.019531c2.484375.515624 5.265625.820312 8.390625.871093 5.6875.09375 10.003906-1.492187 13.28125-3.972656 0 0 40.351562 16.621094 38.476562-20.910156-.402343-7.984375-11.445312-60.414063-24.621093-44.578125-4.8125 5.792968-9.464844 10.6875-9.464844 10.6875-2.3125-1.535156-5.078125-2.316406-7.976563-2.035156l-.226562.191406c.070312-.71875.039062-1.421875-.089844-2.257813 3.394532-3.789062 2.394532-4.457031 9.179688-5.851562 6.867187-1.414063 2.832031-3.933594.199218-4.59375-3.191406-.796875-10.574218-1.925781-15.566406 5.058593l.199219-.796874c-1.328125-1.066407-2.261719-6.929688-2.105469-12.242188.15625-5.316406.261719-8.964844-.789062-11.816406-1.046875-2.847656-2.089844-9.261719-11.007813-7.351563-7.453125 1.597657-11.316406 5.738281-11.851562 12.640625-.382813 4.90625-1.246094 4.183594-1.300781 8.570313l-.691407 2.078125c-.796875 6.652344-.125 8.796875-4.71875 7.800781l-1.113281-.097656c-3.378906-.15625-7.804688.542969-10.398438 1.75-5.589843 2.59375-8.90625 6.921875-3.394531 5.785156zm0 0" fill="#336791"/><path d="m331.989395 608.690308c1.738281-61.894532-.429687-124.21875-6.484375-139.375-6.074219-15.15625-19.042969-44.609375-63.632812-35.058594-37.265625 7.988281-50.820313 23.457031-56.699219 57.558594-4.335938 25.117187-12.675781 94.824218-13.75 109.101562" fill="#336791" stroke="#ffc836" stroke-linecap="round" stroke-linejoin="round" stroke-width="15.581375" transform="matrix(.2 0 0 .2 26.285715 -2.472437)"/><path d="m385.446426 918.963745s201.894532 82.519531 192.5-105.136719c-1.992187-39.921875-57.207031-302.070312-123.085937-222.890625-24.0625 28.964844-45.839844 51.679688-45.839844 51.679688" fill="#336791" stroke="#ffc836" stroke-linecap="round" stroke-linejoin="round" stroke-width="15.581375" transform="matrix(.2 0 0 .2 26.285715 -2.472437)"/><path d="m276.383926 934.022339c6.992188-2.1875-112.304687 43.613281-180.117187-43.007813-23.945313-30.605468 3.808594-155.644531 70.195312-254.160156" fill="#336791" stroke="#ffc836" stroke-linecap="round" stroke-linejoin="round" stroke-width="15.581375" transform="matrix(.2 0 0 .2 26.285715 -2.472437)"/><path d="m166.462051 636.85437s-4.316406-21.308594-67.207031-8.320312c-27.539062 5.683593-10.957031-15.976563 16.972656-28.945313 22.929688-10.644531 74.355469-13.378906 75.195313 1.328125 2.148437 37.949219-27.070313 26.425781-24.960938 35.9375 1.914063 8.554688 14.980469 16.953125 23.613282 37.910156 7.558593 18.300782 103.496093 158.574219-26.601563 137.734375-4.765625.996094 33.925781 123.75 155.683594 125.742188 121.738281 2.011719 117.753906-149.6875 117.753906-149.6875" fill="#336791" stroke="#ffc836" stroke-linecap="round" stroke-linejoin="bevel" stroke-width="15.581375" transform="matrix(.2 0 0 .2 26.285715 -2.472437)"/><path d="m366.071426 623.866089c16.972657-18.945313 11.972657-22.285156 45.898438-29.257813 34.316406-7.089843 14.160156-19.667968.996094-22.96875-15.957032-3.984375-52.890625-9.648437-77.832032 25.292969-7.597656 10.644531.039063 27.597656 10.488282 31.933594 5.039062 2.089844 11.777343 4.707031 20.449218-5zm0 0" fill="#336791" stroke="#ffc836" stroke-linecap="round" stroke-linejoin="round" stroke-width="15.581375" transform="matrix(.2 0 0 .2 26.285715 -2.472437)"/><path d="m367.184708 624.19812c1.699218 11.152344-3.671875 24.414063-9.433594 39.941406-8.652344 23.28125-28.613281 46.5625-12.636719 120.410157 11.894531 55.039062 91.738281 11.464843 91.796875 4.003906.039063-7.460938-3.613281-37.832031 1.328125-73.183594 6.445313-46.152344-29.355469-85.175781-70.605469-81.171875" fill="#336791" stroke="#ffc836" stroke-linecap="round" stroke-linejoin="round" stroke-width="15.581375" transform="matrix(.2 0 0 .2 26.285715 -2.472437)"/><path d="m386.169083 789.66687c.371093-2.558594-4.667969-9.355469-11.210938-10.253906-6.542969-.917969-12.148437 4.394531-12.5 6.933594-.351562 2.558593 4.667969 5.371093 11.210938 6.269531 6.5625.917969 12.148437-.410156 12.5-2.949219zm0 0" fill="#ffc836" stroke="#ffc836" stroke-width="5.19375" transform="matrix(.2 0 0 .2 26.285715 -2.472437)"/><path d="m186.891739 794.862183c-.351563-2.558594 4.667969-9.355469 11.230469-10.253907 6.542968-.917968 12.148437 4.394532 12.5 6.933594.351562 2.558594-4.667969 5.371094-11.230469 6.269531-6.542969.917969-12.148438-.410156-12.5-2.949218zm0 0" fill="#ffc836" stroke="#ffc836" stroke-width="2.596875" transform="matrix(.2 0 0 .2 26.285715 -2.472437)"/><path d="m163.47377 812.498901c-1.074219-20 4.316406-33.613281 4.980469-54.882812 1.015625-30.9375-14.746094-66.347656 9.003906-101.796875" fill="#336791" stroke="#ffc836" stroke-linecap="round" stroke-linejoin="round" stroke-width="15.581375" transform="matrix(.2 0 0 .2 26.285715 -2.472437)"/><path d="m157.023438 80.417969c-12.578126 2.597656-13.441407-1.660157-13.441407-1.660157 13.277344-19.703124 18.828125-44.710937 14.039063-50.832031-13.066406-16.699219-35.6875-8.800781-36.066406-8.597656l-.121094.023437c-2.484375-.515624-5.265625-.824218-8.390625-.875-5.691407-.09375-10.003907 1.492188-13.28125 3.976563 0 0-40.351563-16.625-38.476563 20.90625.398438 7.984375 11.445313 60.414063 24.617188 44.578125 4.816406-5.789062 9.46875-10.6875 9.46875-10.6875 2.3125 1.535156 5.078125 2.320312 7.976562 2.039062l.226563-.191406c-.070313.71875-.039063 1.421875.089843 2.253906-3.394531 3.792969-2.398437 4.457032-9.179687 5.855469-6.867187 1.414063-2.832031 3.933594-.199219 4.589844 3.191406.796875 10.574219 1.929687 15.566406-5.054687l-.199218.796874c1.328125 1.0625 2.261718 6.925782 2.105468 12.242188-.15625 5.3125-.261718 8.960938.789063 11.8125 1.046875 2.851562 2.089844 9.261719 11.007813 7.351562 7.453124-1.597656 11.316406-5.734374 11.851562-12.636718.382812-4.910156 1.246094-4.183594 1.300781-8.570313l.691407-2.078125c.796874-6.652344.125-8.800781 4.714843-7.800781l1.117188.097656c3.378906.152344 7.800781-.542969 10.398437-1.75 5.589844-2.59375 8.90625-6.925781 3.394532-5.789062zm0 0" fill="#ffc836"/><path d="m137.226562 93.667969c.707032-5.898438.496094-6.765625 4.890626-5.808594l1.113281.097656c3.378906.152344 7.800781-.542969 10.398437-1.75 5.589844-2.59375 8.90625-6.925781 3.390625-5.785156-12.574219 2.59375-13.4375-1.664063-13.4375-1.664063 13.277344-19.703124 18.828125-44.710937 14.039063-50.832031-13.070313-16.695312-35.6875-8.800781-36.066406-8.597656l-.121094.023437c-2.484375-.515624-5.265625-.824218-8.386719-.875-5.691406-.09375-10.007813 1.492188-13.285156 3.976563 0 0-40.351563-16.625-38.472657 20.90625.398438 7.984375 11.441407 60.414063 24.617188 44.578125 4.8125-5.789062 9.464844-10.6875 9.464844-10.6875 2.3125 1.535156 5.078125 2.320312 7.980468 2.039062l.222657-.191406c-.070313.71875-.039063 1.421875.089843 2.253906-3.394531 3.792969-2.394531 4.457032-9.179687 5.855469-6.863281 1.414063-2.832031 3.933594-.199219 4.589844 3.191406.796875 10.574219 1.929687 15.566406-5.054687l-.199218.796874c1.332031 1.0625 1.242187 7.652344 1.429687 12.363282.191407 4.707031.503907 9.101562 1.464844 11.691406s2.09375 9.261719 11.007813 7.351562c7.453124-1.597656 13.152343-3.894531 13.671874-25.277343" fill="#ffc836"/><g stroke="#336791"><path d="m377.06752 123.241089s-201.894531-82.519531-192.519531 105.136719c2.011719 39.921875 57.226562 302.089843 123.105469 222.890625 24.0625-28.945313 45.839843-51.660157 45.839843-51.660157" fill="#ffc836" stroke-linecap="round" stroke-linejoin="round" stroke-width="15.581375" transform="matrix(.2 0 0 .2 24.285715 -2.472437)"/><path d="m430.524551 433.534058c-1.738281 61.894531.429688 124.21875 6.484375 139.355468 6.074219 15.15625 19.042969 44.609375 63.632813 35.058594 37.246094-7.988281 50.820312-23.4375 56.699219-57.558594 4.335937-25.097656 12.675781-94.824218 13.75-109.101562" fill="#ffc836" stroke-linecap="round" stroke-linejoin="round" stroke-width="15.581375" transform="matrix(.2 0 0 .2 24.285715 -2.472437)"/><path d="m486.13002 108.182495c-6.992187 2.1875 112.304688-43.613281 180.097656 43.027344 23.964844 30.605469-3.789062 155.644531-70.175781 254.160156" fill="#ffc836" stroke-linecap="round" stroke-linejoin="round" stroke-width="15.581375" transform="matrix(.2 0 0 .2 24.285715 -2.472437)"/><path d="m596.051895 405.369995s4.316406 21.289063 67.1875 8.320313c27.558594-5.703125 10.976563 15.957031-16.972656 28.925781-22.929688 10.644531-74.335938 13.378906-75.175781-1.328125-2.167969-37.949219 27.070312-26.40625 24.960937-35.917969-1.914062-8.574219-14.980469-16.972656-23.632812-37.929687-7.539063-18.28125-103.496094-158.554688 26.621093-137.734375 4.765625-.976563-33.945312-123.75-155.703125-125.742188-121.71875-1.992187-117.734375 149.707031-117.734375 149.707031" fill="#ffc836" stroke-linecap="round" stroke-linejoin="bevel" stroke-width="15.581375" transform="matrix(.2 0 0 .2 24.285715 -2.472437)"/><path d="m396.44252 418.338745c-16.972656 18.964844-11.972656 22.285156-45.898437 29.277344-34.335938 7.070312-14.160157 19.667969-.996094 22.949219 15.957031 4.003906 52.871094 9.648437 77.832031-25.273438 7.597656-10.644531-.039062-27.617187-10.488281-31.933594-5.039063-2.089843-11.777344-4.707031-20.449219 4.980469zm0 0" fill="#ffc836" stroke-linecap="round" stroke-linejoin="round" stroke-width="15.581375" transform="matrix(.2 0 0 .2 24.285715 -2.472437)"/><path d="m395.329239 418.006714c-1.699219-11.152344 3.671875-24.414063 9.433594-39.921875 8.652343-23.28125 28.613281-46.5625 12.636718-120.429688-11.894531-55.039062-91.738281-11.445312-91.796875-3.984375-.039062 7.460938 3.613282 37.8125-1.328125 73.183594-6.464843 46.132813 29.355469 85.15625 70.585938 81.171875" fill="#ffc836" stroke-linecap="round" stroke-linejoin="round" stroke-width="15.581375" transform="matrix(.2 0 0 .2 24.285715 -2.472437)"/><path d="m376.344864 252.557495c-.371094 2.539063 4.648437 9.335938 11.210937 10.253906 6.542969.917969 12.148438-4.414062 12.5-6.953125.351563-2.539062-4.667968-5.351562-11.230468-6.269531-6.542969-.917969-12.148438.410156-12.480469 2.96875zm0 0" fill="#336791" stroke-width="5.19375" transform="matrix(.2 0 0 .2 24.285715 -2.472437)"/><path d="m575.622208 247.362183c.351562 2.539062-4.667969 9.335937-11.230469 10.253906-6.542969.898437-12.148438-4.414063-12.5-6.953125-.351563-2.558594 4.667969-5.351563 11.230469-6.269531 6.542968-.917969 12.148437.410156 12.5 2.96875zm0 0" fill="#336791" stroke-width="2.596875" transform="matrix(.2 0 0 .2 24.285715 -2.472437)"/><path d="m599.040176 229.705933c1.074219 20-4.316406 33.613281-4.980468 54.902343-1.015625 30.9375 14.746093 66.347657-9.003907 101.796875" fill="#ffc836" stroke-linecap="round" stroke-linejoin="round" stroke-width="15.581375" transform="matrix(.2 0 0 .2 24.285715 -2.472437)"/><path d="m443.574219 363.574219h41.425781v40.703125h-41.425781zm0 0" fill="#ffc836" stroke-linecap="round" stroke-linejoin="round" stroke-width="3.75" transform="scale(.2)"/></g><path d="m463.417969 648.690308c1.738281-61.894532-.429688-124.21875-6.484375-139.375-6.074219-15.15625-19.042969-44.609375-63.632813-35.058594-37.265625 7.988281-50.820312 23.457031-56.699219 57.558594-4.335937 25.117187-12.675781 94.824218-13.75 109.101562" fill="#336791" stroke="#ffc836" stroke-linecap="round" stroke-linejoin="round" stroke-width="15.581375" transform="matrix(.2 0 0 .2 0 -10.472437)"/><path d="m98.644531 112.929688h27.855469v18.140624h-27.855469zm0 0" fill="#336791"/><path d="m78.570312 79h25.359376v11.644531h-25.359376zm0 0" fill="#ffc836"/><path d="m505.566406 395.037964c-13.457031.078125-26.308594 1.210937-37.617187 3.222656-33.320313 5.878906-39.375 18.203125-39.375 40.917969v30h78.730469v10.019531h-108.28125c-22.871094 0-42.910157 13.75-49.179688 39.902344-7.226562 30-7.539062 48.710937 0 80.019531 5.605469 23.300781 18.964844 39.921875 41.835938 39.921875h27.070312v-35.976562c0-25.976563 22.5-48.90625 49.199219-48.90625h78.632812c21.894531 0 39.355469-18.027344 39.355469-40v-74.980469c0-21.328125-17.988281-37.363281-39.355469-40.917969-13.535156-2.246094-27.558593-3.28125-41.015625-3.222656zm0 0" fill="none" stroke="#ffc836" stroke-width="10" transform="matrix(.2 0 0 .2 0 -10.472437)"/><path d="m595.761719 479.19812v34.960938c0 27.089843-22.96875 49.902343-49.179688 49.902343h-78.632812c-21.542969 0-39.375 18.4375-39.375 40.019532v74.960937c0 21.347656 18.554687 33.886719 39.375 40.019531 24.921875 7.324219 48.808593 8.652344 78.632812 0 19.824219-5.742187 39.355469-17.304687 39.355469-40.019531v-30h-78.632812v-10h118.007812c22.871094 0 31.40625-15.957031 39.355469-39.921875 8.222656-24.667969 7.871093-48.378906 0-80.019531-5.644531-22.773438-16.445313-39.902344-39.355469-39.902344zm0 0" fill="none" stroke="#336791" stroke-width="15" transform="matrix(.2 0 0 .2 0 -10.472437)"/><path d="m505.566406 395.037964c-13.457031.078125-26.308594 1.210937-37.617187 3.222656-33.320313 5.878906-39.375 18.203125-39.375 40.917969v30h78.730469v10.019531h-108.28125c-22.871094 0-42.910157 13.75-49.179688 39.902344-7.226562 30-7.539062 48.710937 0 80.019531 5.605469 23.300781 18.964844 39.921875 41.835938 39.921875h27.070312v-35.976562c0-25.976563 22.5-48.90625 49.199219-48.90625h78.632812c21.894531 0 39.355469-18.027344 39.355469-40v-74.980469c0-21.328125-17.988281-37.363281-39.355469-40.917969-13.535156-2.246094-27.558593-3.28125-41.015625-3.222656zm0 0" fill="none" stroke="#ffc836" stroke-width="15" transform="matrix(.2 0 0 .2 0 -10.472437)"/><path d="m595.761719 479.19812v34.960938c0 27.089843-22.96875 49.902343-49.179688 49.902343h-78.632812c-21.542969 0-39.375 18.4375-39.375 40.019532v74.960937c0 21.347656 18.554687 33.886719 39.375 40.019531 24.921875 7.324219 48.808593 8.652344 78.632812 0 19.824219-5.742187 39.355469-17.304687 39.355469-40.019531v-30h-78.632812v-10h118.007812c22.871094 0 31.40625-15.957031 39.355469-39.921875 8.222656-24.667969 7.871093-48.378906 0-80.019531-5.644531-22.773438-16.445313-39.902344-39.355469-39.902344zm0 0" fill="none" stroke="#336791" stroke-width="10" transform="matrix(.2 0 0 .2 0 -10.472437)"/><path d="m101.113281 68.535156c-2.691406.015625-5.261719.242188-7.523437.644532-6.664063 1.175781-7.875 3.640624-7.875 8.183593v6h15.746094v2.003907h-21.65625c-4.574219 0-8.582032 2.75-9.835938 7.980468-1.445312 6-1.507812 9.742188 0 16.003906 1.121094 4.660157 3.792969 7.984376 8.367188 7.984376h5.414062v-7.195313c0-5.195313 4.5-9.78125 9.839844-9.78125h15.726562c4.378906 0 7.871094-3.605469 7.871094-8v-14.996094c0-4.265625-3.597656-7.472656-7.871094-8.183593-2.707031-.449219-5.511718-.65625-8.203125-.644532zm-8.515625 4.828125c1.625 0 2.953125 1.351563 2.953125 3.007813s-1.328125 2.992187-2.953125 2.992187c-1.632812 0-2.953125-1.335937-2.953125-2.992187s1.320313-3.007813 2.953125-3.007813zm0 0" fill="#336791"/><path d="m119.152344 85.367188v6.992187c0 5.417969-4.59375 9.980469-9.835938 9.980469h-15.726562c-4.308594 0-7.875 3.6875-7.875 8.003906v14.992188c0 4.269531 3.710937 6.777343 7.875 8.003906 4.984375 1.464844 9.761718 1.730468 15.726562 0 3.964844-1.148438 7.871094-3.460938 7.871094-8.003906v-6h-15.726562v-2h23.601562c4.574219 0 6.28125-3.191407 7.871094-7.984376 1.644531-4.933593 1.574218-9.675781 0-16.003906-1.128906-4.554687-3.289063-7.980468-7.871094-7.980468zm-8.84375 37.96875c1.632812 0 2.953125 1.335937 2.953125 2.992187 0 1.660156-1.320313 3.007813-2.953125 3.007813-1.628906 0-2.957032-1.347657-2.957032-3.007813 0-1.65625 1.328126-2.992187 2.957032-2.992187zm0 0" fill="#ffc836"/><path d="m118.144531 83.859375h.902344v.722656h-.902344zm0 0" fill="#336791"/></svg>