<svg height="200" viewBox="0 0 200 200" width="200" xmlns="http://www.w3.org/2000/svg"><g transform="translate(0 50)"><path d="m0 0h200v100h-200z" fill="#fff"/><path d="m42.859375 30.140625c4.769531-.570313 10.296875.308594 14.113281 3.414063 3.855469 3.117187 5.871094 7.707031 6.511719 12.546874.445313 3.816407.394531 7.78125-.496094 11.53125-1.210937 4.90625-4.09375 9.273438-8.675781 11.601563-4.613281 2.238281-10.269531 2.40625-15.144531 1.003906-3.402344-.964843-6.355469-3.183593-8.347657-6.089843-2.9375-4.28125-3.632812-9.652344-3.519531-14.738282.15625-4.871094 1.242188-9.921875 4.476563-13.722656 2.789062-3.367188 6.800781-5.070312 11.082031-5.546875zm0 0"/><path d="m177.30078 32.65625c-.64453 1.300781-1.3125 2.589844-1.99609 3.867188-4.48438-2.027344-9.58203-2.917969-14.3086-1.183594-4.38672 1.605468-7.26953 5.621094-8.23437 10.09375-.82813 4.101562-.78516 8.582031.42578 12.605468 1.12891 3.675782 3.62891 6.777344 7.27344 8.195313 4.77343 1.894531 10.48437.777344 15.29297-.480469.0195 1.285156.0234 2.574219.0469 3.863282-2.58984.933593-5.27344 1.242187-7.99609 1.476562-4.46094.21875-9.41016-.316406-13.14844-2.976562-4-2.6875-6.17188-7.226563-6.94922-11.878907-.86328-5.828125-.57422-11.988281 2.44141-17.195312 2.32422-4.121094 6.43359-6.886719 11.01172-7.925781 5.32421-1.199219 11.11328-.515626 16.14062 1.539062zm0 0"/><path d="m72.628906 31.117188c4.511719-.01172 9.015625 0 13.519532-.01172 4.636718.285156 9.058593 1.429687 12.558593 4.632812 3.410159 3.0625 5.027349 7.304688 5.480469 11.785157.34766 4.808593.0625 9.519531-2.21094 13.871093-2.296872 4.511719-6.66406 7.371094-11.527341 8.449219-5.75 1.257812-11.945313.511719-17.820313.707031 0-13.144531 0-26.289062 0-39.433592zm0 0"/><path d="m113.18359 31.117188c4.50391.0039 9.01172-.03516 13.51172.01172 3.13281.277344 6.95313.632813 9.54297 2.570313 3.29688 2.304687 3.87109 7.523437 2.35547 10.980469-1.43359 3.035156-4.10547 4.058593-7.13672 4.914062 3.56641.707031 6.87109 1.929688 8.48047 5.449219 1.59766 4.007812.82422 9.40625-2.58203 12.300781-2.46094 2.234375-5.78906 2.988281-9.01563 3.207031-5.05078.01563-10.10546 0-15.15625 0 0-13.144531 0-26.289062 0-39.433593zm0 0"/><g fill="#fff"><path d="m43.292969 34.011719c3.222656-.394531 6.96875-.02734 9.730469 1.816406 2.644531 1.722656 4.304687 4.636719 5.039062 7.648437.964844 3.867188 1.007812 7.996094.464844 11.921876-.554688 3.355468-1.65625 6.539062-4.238282 8.886718-3.042968 2.730469-7.398437 3.332032-11.324218 2.765625-3.070313-.433593-5.925782-1.972656-7.714844-4.539062-2.621094-3.59375-3.09375-8.199219-3.101562-12.523438.105468-4.128906.789062-8.816406 3.601562-12.039062 1.90625-2.308594 4.621094-3.527344 7.542969-3.9375zm0 0"/><path d="m77.292969 35c4.761719.132812 8.941406-.503906 13.429687.984375 3.523438 1.144531 6.355469 3.828125 7.578125 7.335937 1.4375 4.214844 1.488281 9 .414063 13.300782-1.03125 3.996094-3.820313 7.285156-7.71875 8.722656-4.625 1.796875-8.878906 1.238281-13.703125 1.324219 0-10.558594 0-21.113281 0-31.667969zm0 0"/><path d="m117.85156 35c3.71485.117188 7.57032-.300781 11.23828.34375 2.24219.441406 4.39844 1.34375 5.19922 3.679688.80078 2.804687.20703 6.691406-2.89062 7.847656-4.10938 1.5625-9.17578.679687-13.54688.90625 0-4.261719 0-8.515625 0-12.777344zm0 0"/><path d="m117.85156 51.667969c3.1875.02734 6.375-.05859 9.5586.03125 2.58593.171875 5.60546.84375 7.23437 3.039062 1.50391 2.324219 1.43359 5.601563.31641 8.0625-1.23438 2.628907-4.32032 3.566407-7 3.808594-3.36719.136719-6.7461.01953-10.10938.05859 0-5 0-10 0-15zm0 0"/></g></g></svg>