<svg height="200" viewBox="0 0 200 200" width="200" xmlns="http://www.w3.org/2000/svg"><g transform="translate(0 50)"><path d="m0 0h200v100h-200z" fill="#fff"/><path d="m143.55469 39.445312h1.85156c.0117 2.199219.0312 4.398438-.13281 6.597657 1.33593-.964844 2.54297-1.820313 4.28906-1.609375 1.79297.05078 3.51953.917968 3.82031 2.851562.36719 2.898438.0937 5.898438.17188 8.824219-.60547 0-1.21094 0-1.81641 0-.11719-2.84375.29688-5.882813-.26562-8.664063-.91797-2.257812-5.60157-1.59375-5.8711.910157-.40625 2.527343-.11719 5.195312-.1914 7.753906-.61719 0-1.23829 0-1.85547 0 0-5.554687 0-11.109375 0-16.664063zm0 0"/><path d="m177.62891 39.445312h1.88671v16.671876c-.49218-.0078-.99218-.01172-1.49218-.01563-.0742-.523437-.15235-1.050781-.22266-1.574218-2.3125 2.160156-6.11328 2.3125-7.92187-.527344-1.31641-2.390625-1.23829-6.34375.76953-8.355469 2.14453-1.898437 5.14453-1.496093 7.14062.421875-.19531-2.207031-.17187-4.410156-.16015-6.621094zm0 0"/><path d="m28.523438 40.816406c-.183594.527344-.367188 1.054688-.558594 1.589844-1.714844-.457031-4.214844-1.304688-5.855469-.300781-1.441406.695312-1.460937 2.871093-.28125 3.8125 1.671875 1.265625 4.300781 1.53125 5.945313 3.003906 1.835937 1.746094 1.382812 5.128906-.839844 6.351563-2.421875 1.332031-5.46875.914062-8.015625.199218-.01953-.617187-.03516-1.238281-.05078-1.863281 2.132812.644531 4.667968 1.339844 6.820312.417969 1.5625-.621094 1.816406-3.148438.457031-4.0625-1.640625-1.160156-3.9375-1.441406-5.574219-2.757813-1.988281-1.457031-1.960937-5.117187.257813-6.367187 2.484375-1.449219 5.128906-.824219 7.695313-.02344zm0 0"/><path d="m57.148438 40h2.808593c1.699219 4.472656 3.34375 8.972656 5.082031 13.429688 1.667969-4.492188 3.40625-8.953126 5.101563-13.429688h2.789063v16.109375c-.636719 0-1.261719 0-1.890626 0 .03906-4.789063-.105468-9.585937.121094-14.371094-1.847656 4.777344-3.660156 9.574219-5.460937 14.371094-.5 0-.992188-.0039-1.492188-.0039-1.789062-4.8125-3.65625-9.589844-5.445312-14.398438.226562 4.792969.09375 9.605469.128906 14.402344-.578125 0-1.164063 0-1.742187 0 0-5.371094 0-10.738281 0-16.109375zm0 0"/><path d="m31.890625 44.445312h1.5c.05859.539063.113281 1.082032.171875 1.621094 2.039062-1.820312 4.757812-2.300781 7.039062-.601562 2.136719 1.945312 2.238282 5.867187 1.019532 8.320312-1.730469 3.027344-5.675782 2.980469-8.066406.71875.222656 2.386719.199218 4.773438.183593 7.164063-.617187 0-1.234375 0-1.847656 0 0-5.738281 0-11.484375 0-17.222657zm0 0"/><path d="m43.960938 44.476562c.605468-.03125 1.21875-.04687 1.828124-.03906 1.359376 3.328125 2.671876 6.722656 3.789063 10.140625 1.09375-3.410156 2.332031-6.765625 3.5625-10.128906.644531-.0039 1.28125-.0039 1.925781-.0039-1.511718 4.050782-3.105468 8.066407-4.566406 12.136719-.578125 1.472657-1.140625 3.277344-2.398438 4.316407-1.222656.90625-2.523437.773437-3.953124.746093-.05859-.511719-.121094-1.023437-.175782-1.535156.972656-.125 2.339844-.03125 3.132813-.675781.777343-.851563 1.179687-2.140625 1.628906-3.183594-1.617187-3.910156-3.261719-7.820312-4.773437-11.773438zm0 0"/><path d="m84.8125 45.746094c1.464844 1.546875 1.460938 3.347656 1.59375 5.355468-2.824219.03125-5.644531-.02344-8.46875.04297.347656.933594.589844 2.171875 1.546875 2.683594 1.9375 1.226563 4.40625.449219 6.425781-.128906-.06641.59375-.132812 1.195312-.203125 1.789062-2.40625.65625-4.8125 1.132813-7.097656-.214843-2.585937-1.550782-2.855469-5.457032-1.765625-7.980469 1.300781-3.03125 5.632812-3.863281 7.96875-1.546876zm0 0"/><path d="m89.667969 44.445312h1.53125c.05078.53125.09375 1.066407.144531 1.59375 1.261719-.972656 2.472656-1.800781 4.160156-1.609374 1.378906.0078 2.289063.777343 3.257813 1.640624 1.082031-.847656 2.093751-1.613281 3.542971-1.648437 1.75-.07031 3.58984.496094 4.08594 2.378906.5664 3.015625.16406 6.242188.27734 9.308594-.60547 0-1.21094 0-1.81641 0-.0977-2.835937.23047-5.792969-.18359-8.597656-.875-2.367188-5.164064-1.65625-5.441408.800781-.398437 2.546875-.109374 5.222656-.1875 7.796875-.582031 0-1.160156 0-1.746093 0-.07031-2.726563.191406-5.519531-.148438-8.226563-.261719-2.578124-4.753906-2.238281-5.316406 0-.707031 2.59375-.273437 5.550782-.378906 8.226563-.59375 0-1.1875 0-1.78125 0 0-3.886719 0-7.777344 0-11.664063zm0 0"/><path d="m118.16797 44.960938c-.14453.535156-.28906 1.0625-.43359 1.59375-1.91797-.382813-4.01954-1.054688-5.48047.722656-1.17188 1.628906-1.15235 4.832031.26953 6.316406 1.66406 1.449219 3.58594.734375 5.48047.304688v1.710937c-2.25391.601563-4.41407.925781-6.44922-.5-2.02735-1.582031-2.22656-4.28125-1.78125-6.636719.32812-1.613281 1.30469-2.972656 2.85937-3.582031 1.8711-.796875 3.65235-.417969 5.53516.07031zm0 0"/><path d="m125.65625 44.429688c1.73438.06641 3.51172.832031 3.67578 2.78125.26172 2.945312.0469 5.945312.11328 8.898437-.45703 0-.90625 0-1.35547 0-.10156-.507813-.19531-1.027344-.28906-1.539063-1.8164 1.46875-4.02734 2.117188-6.25 1.097657-1.98828-.867188-2.25781-3.945313-.38281-5.101563 1.85547-1.148437 4.57031-1.105468 6.69922-1.195312-.25-.828125-.19531-2.359375-1.03516-2.828125-1.51562-1.019531-3.54687-.08594-5.09375.414062l-.52344-1.472656c1.48438-.554687 2.8086-1.179687 4.44141-1.054687zm0 0"/><path d="m140.94531 44.960938c-.14453.535156-.28906 1.0625-.43359 1.59375-1.91797-.382813-4.01563-1.054688-5.47656.722656-1.17579 1.628906-1.15625 4.832031.26562 6.316406 1.66406 1.449219 3.58984.734375 5.48438.304688v1.710937c-2.25782.601563-4.41797.925781-6.45313-.5-2.02734-1.582031-2.22656-4.28125-1.78125-6.636719.32813-1.613281 1.30469-2.972656 2.85938-3.582031 1.875-.796875 3.65234-.417969 5.53515.07031zm0 0"/><path d="m165.36719 45.746094c1.46484 1.546875 1.46093 3.347656 1.59375 5.355468-2.82032.03125-5.64453-.02344-8.46485.04297.34375.933594.58594 2.171875 1.54297 2.683594 1.9375 1.226563 4.40625.449219 6.42578-.128906-.0664.59375-.13281 1.195312-.20312 1.789062-2.40625.65625-4.8125 1.132813-7.09375-.214843-2.58985-1.550782-2.85547-5.457032-1.76953-7.980469 1.30078-3.03125 5.63672-3.863281 7.96875-1.546876zm0 0"/><g fill="#fff"><path d="m35.320312 46.457031c1.683594-.707031 3.769532-.527343 4.667969 1.257813.734375 1.570312.722657 3.929687-.210937 5.417968-1.449219 2.351563-5.855469 1.511719-5.949219-1.421874-.207031-1.667969-.332031-4.40625 1.492187-5.253907zm0 0"/><path d="m81.683594 46.089844c2.128906.160156 2.371094 1.589844 2.867187 3.316406-2.183593.05469-4.367187.05469-6.550781.0039.632812-1.933594 1.351562-3.425781 3.683594-3.320312zm0 0"/><path d="m162.23828 46.089844c2.12891.160156 2.37109 1.589844 2.86719 3.316406-2.1836.05469-4.36719.05469-6.55078.0039.63281-1.933594 1.35156-3.425781 3.68359-3.320312zm0 0"/><path d="m173.51562 46.144531c1.57422-.253906 3.34375.246094 3.85547 1.917969.36719 1.308594.38282 3.117188.0664 4.441406-.82031 2.75-5.74219 2.628906-6.30859-.292968-.5586-2.128907-.36329-5.628907 2.38671-6.066407zm0 0"/><path d="m127.77344 51.117188c-.20313.804687-.14063 1.945312-.85156 2.476562-1.01563.910156-3.23829 1.152344-4.42188.5625-1-.429688-.87109-1.773438-.0898-2.34375 1.5625-.785156 3.66015-.703125 5.36328-.695312zm0 0"/></g></g></svg>