<svg height="200" viewBox="0 0 200 200" width="200" xmlns="http://www.w3.org/2000/svg"><g fill="#314455"><path d="m96.957031 15.050781h2.085938l.28125.003907c7.425781.160156 14.804687 1.148437 21.953125 3.195312 13.535156 3.757812 26.09375 11.003906 36.167968 20.792969 8.984376 8.65625 16.003907 19.355469 20.359376 31.046875 6.117187 16.304687 6.910156 34.472656 2.390624 51.28125-11.207031-2.445313-22.382812-5.132813-33.578124-7.652344 1.75-6.300781 2.476562-12.828125 1.734374-19.347656-1.101562-10.4375-5.597656-20.453125-12.707031-28.183594-5.964843-6.574219-13.6875-11.511719-22.164062-14.15625-8.429688-2.648438-17.589844-2.992188-26.21875-1.097656-9.300781 2.085937-17.960938 6.828125-24.667969 13.605468-7.167969 7.132813-12.089844 16.535157-13.796875 26.507813-1.046875 5.800781-1.019531 11.703125.0625 17.5 1.988281 11.300781 8.15625 21.769531 16.933594 29.136719 6.652343 5.613281 14.761719 9.464844 23.328125 11.015625 7.304687 1.386719 14.890625 1.082031 22.074218-.828125 5.515626 10.195312 10.949219 20.4375 16.480469 30.625-15.339843 5.660156-32.261719 6.769531-48.214843 3.199218-13.726563-3.015624-26.636719-9.535156-37.238282-18.753906-9.257812-8.027344-16.761718-18.03125-21.769531-29.222656-4.679687-10.328125-7.089844-21.546875-7.347656-32.878906v-2.691406c.089843-3.261719.324219-6.515626.738281-9.75 2.394531-18.753907 11.4375-36.457032 25.089844-49.523438 10-9.660156 22.425781-16.820312 35.816406-20.582031 7.226562-2.082031 14.691406-3.078125 22.207031-3.242188zm0 0"/><path d="m111.4375 117.347656c27.34375 6.4375 54.683594 12.886719 82.023438 19.320313.71875.207031 1.578124.347656 1.890624 1.125.335938.601562.085938 1.363281-.042968 1.996093-.5625 2.070313-1.320313 4.085938-2.03125 6.109376-3.175782 8.542968-7.269532 16.996093-12.578125 24.425781-5.921875 8.132812-13.375 15.234375-21.488281 21.164062-1.75 1.207031-3.234376 2.457031-5.382813 2.894531h-.882813c-.691406-.355468-1.304687-.757812-1.714843-1.445312-14.1875-23.914062-28.367188-47.839844-42.5625-71.753906-.507813-.890625-.671875-1.941406-.308594-2.917969.652344-1.101563 1.941406-1.183594 3.078125-.917969zm0 0"/></g></svg>