<svg height="200" viewBox="0 0 200 200" width="200" xmlns="http://www.w3.org/2000/svg" xmlns:xlink="http://www.w3.org/1999/xlink"><linearGradient id="a" gradientTransform="matrix(-1.885618 -1.885618 1.885618 -1.885618 2200.34668 1042.079997)" gradientUnits="userSpaceOnUse" x1="806.75" x2="806.75" y1="-382.130005" y2="-232.130005"><stop offset="0" stop-color="#2e27ad"/><stop offset="1" stop-color="#527fff"/></linearGradient><path d="m0 0h200v200h-200z" fill="url(#a)"/><g fill="#fff"><path d="m106.828125 136.667969h-3.46875c-1.472656 0-2.667969-1.195313-2.667969-2.667969v-59.332031c0-1.472657 1.195313-2.667969 2.667969-2.667969h31.492187c.757813.007812 1.476563.339844 1.976563.90625l8 9.628906-3.761719 3.4375-7.386718-8.640625h-27.757813v54.214844h.90625zm0 0"/><path d="m155.519531 146.320312h-43.09375c-1.472656 0-2.664062-1.195312-2.664062-2.667968v-59.332032c0-1.472656 1.191406-2.667968 2.664062-2.667968h33.253907c.675781.011718 1.324218.277344 1.8125.746094l9.839843 9.976562c.472657.484375.738281 1.132812.746094 1.8125v49.574219c-.050781 1.390625-1.167969 2.503906-2.558594 2.558593zm-40.53125-4.988281h37.972657v-46.078125l-8.347657-8.375h-29.625zm0 0"/><path d="m155.519531 99.414062h-12.507812c-1.472657 0-2.664063-1.195312-2.664063-2.667968v-12.53125h5.117188v9.945312h9.949218zm0 0"/><path d="m131.679688 132.398438h-1.679688c-1.3125.03125-2.570312-.539063-3.414062-1.546876-1.054688-1.5625-1.445313-3.480468-1.09375-5.332031-.160157-4.746093-2.824219-5.519531-2.824219-5.519531-1.039063-.394531-1.722657-1.386719-1.722657-2.492188 0-1.109374.683594-2.101562 1.722657-2.496093.238281 0 2.664062-.984375 2.664062-5.679688 0-2.796875 1.308594-5.917969 4.429688-6.023437h1.757812v5.144531h-.851562c-.042969.292969-.042969.589844 0 .878906.179687 2.976563-.773438 5.914063-2.667969 8.214844 1.890625 2.292969 2.84375 5.21875 2.667969 8.1875.023437.15625.023437.320313 0 .480469-.042969.378906-.042969.765625 0 1.144531h1.144531zm0 0"/><path d="m138.851562 132.398438v-5.117188h.988282c.027344-.285156.027344-.570312 0-.855469-.183594-2.976562.769531-5.910156 2.667968-8.210937-1.894531-2.296875-2.847656-5.21875-2.667968-8.1875-.011719-.160156-.011719-.320313 0-.480469.039062-.371094.039062-.746094 0-1.121094h-1.148438v-5.144531h1.683594c1.308594-.019531 2.5625.546875 3.410156 1.546875 1.050782 1.566406 1.441406 3.480469 1.09375 5.332031 0 4.53125 2.667969 5.332032 2.667969 5.492188 1.144531.371094 1.898437 1.464844 1.839844 2.667968.007812 1.148438-.777344 2.15625-1.894531 2.425782-.210938 0-2.664063.988281-2.664063 5.707031 0 2.800781-1.308594 5.921875-4.429687 6zm0 0"/><path d="m85.945312 72.535156c-21.332031 0-44.023437-6.5625-44.023437-18.667968 0-12.105469 22.664063-18.667969 44.023437-18.667969 21.363282 0 44.027344 6.5625 44.027344 18.667969 0 12.105468-22.691406 18.667968-44.027344 18.667968zm0-32.320312c-22.933593 0-38.90625 7.171875-38.90625 13.597656s16 13.574219 38.90625 13.574219 38.882813-7.148438 38.882813-13.574219-15.976563-13.597656-38.882813-13.597656zm0 0"/><path d="m124.828125 53.8125h5.117187v16.160156h-5.117187zm0 0"/><path d="m85.945312 164.90625c-21.332031 0-44.023437-6.558594-44.023437-18.667969v-92.425781h5.117187v92.375c0 6.425781 16 13.597656 38.90625 13.597656s38.882813-7.171875 38.882813-13.597656h5.144531c0 12.160156-22.691406 18.71875-44.027344 18.71875zm0 0"/><path d="m86.027344 104.828125c-25.039063 0-43.921875-8-43.921875-18.667969h5.148437c0 6.425782 16 13.601563 38.773438 13.601563 3.839844-.003907 7.675781-.226563 11.492187-.667969l.585938 5.09375c-4.011719.445312-8.042969.660156-12.078125.640625zm0 0"/><path d="m86.027344 136.558594c-25.039063 0-43.921875-8-43.921875-18.664063h5.148437c0 6.425781 16 13.597657 38.773438 13.597657 3.839844.003906 7.675781-.210938 11.492187-.640626l.558594 5.148438c-4.003906.402344-8.027344.589844-12.050781.558594zm0 0"/></g></svg>