<svg height="200" viewBox="0 0 200 200" width="200" xmlns="http://www.w3.org/2000/svg" xmlns:xlink="http://www.w3.org/1999/xlink"><linearGradient id="a" gradientTransform="matrix(-1.885618 -1.885618 1.885618 -1.885618 470.47998 325.546672)" gradientUnits="userSpaceOnUse" x1="158.050003" x2="158.050003" y1="-113.43" y2="36.57"><stop offset="0" stop-color="#4d27a8"/><stop offset="1" stop-color="#a166ff"/></linearGradient><path d="m0 0h200v200h-200z" fill="url(#a)"/><path d="m150.988281 110.375c-2.179687-.007812-4.332031.472656-6.296875 1.410156l-6.023437-11.597656 7.464843-14.082031c6.457032 2.292969 13.640626-.195313 17.300782-5.988281 3.660156-5.792969 2.820312-13.347657-2.019532-18.195313-5.730468-5.734375-15.019531-5.734375-20.746093 0-3.554688 3.570313-5.03125 8.710937-3.921875 13.625l-9.464844 2.933594-10.535156-19.8125.1875-.1875c5.523437-5.523438 5.746094-14.410157.507812-20.207031-5.238281-5.792969-14.101562-6.464844-20.15625-1.523438-6.050781 4.9375-7.167968 13.757812-2.539062 20.050781l-11.414063 15.734375c-13.535156-8.257812-31.0625-5.457031-41.351562 6.605469-10.289063 12.0625-10.289063 29.816406 0 41.878906 10.289062 12.0625 27.816406 14.863281 41.351562 6.605469l11.359375 15.761719c-4.648437 6.285156-3.546875 15.113281 2.5 20.066406 6.050782 4.957031 14.921875 4.292969 20.167969-1.503906s5.023437-14.6875-.507813-20.214844l-.160156-.160156 10.347656-19.546875 9.199219 2.90625v.214844c0 8.097656 6.566407 14.664062 14.667969 14.664062s14.667969-6.566406 14.667969-14.664062c0-8.101563-6.566407-14.667969-14.667969-14.667969zm-6.589843-44.667969c3.714843-3.605469 9.621093-3.605469 13.335937 0 3.589844 3.664063 3.550781 9.539063-.089844 13.152344-3.640625 3.617187-9.515625 3.617187-13.15625 0-3.636719-3.613281-3.679687-9.488281-.089843-13.152344zm-5.570313 14.773438c.515625.789062 1.117187 1.519531 1.785156 2.1875l.851563.773437-5.839844 11.039063-5.890625-11.171875zm-38.882813-39.066407c3.640626-3.683593 9.574219-3.71875 13.253907-.082031 3.683593 3.640625 3.71875 9.574219.082031 13.253907-3.710938 3.617187-9.625 3.617187-13.335938 0-3.625-3.640626-3.625-9.53125 0-13.171876zm-1.277343 18.960938c2.382812 1.527344 5.164062 2.324219 8 2.292969 1.949219-.003907 3.878906-.390625 5.679687-1.148438l9.757813 18.667969-25.519531 8c-1.617188-4.085938-4.082032-7.785156-7.226563-10.855469-.558594-.558593-1.121094-1.09375-1.707031-1.597656zm-51.175781 58.664062c-10.519532-10.515624-10.523438-27.570312-.003907-38.089843 10.515625-10.523438 27.574219-10.523438 38.089844 0 10.519531 10.519531 10.515625 27.574219-.003906 38.089843-10.527344 10.464844-27.527344 10.464844-38.054688 0zm65.679687 39.546876c-3.707031 3.617187-9.625 3.617187-13.332031 0-3.589844-3.664063-3.550782-9.539063.089844-13.152344 3.640624-3.617188 9.515624-3.617188 13.152343 0 3.640625 3.613281 3.679688 9.488281.089844 13.152344zm-.851563-20.078126c-4.449218-1.898437-9.546874-1.476562-13.628906 1.117188l-10.984375-15.277344c.585938-.507812 1.121094-1.015625 1.652344-1.546875 3.050781-3.039062 5.445313-6.667969 7.039063-10.667969l25.546874 8zm12.160157-22.988281-26.480469-8.371093c1.027344-4.628907 1.027344-9.425782 0-14.054688l26.480469-8.1875 8 15.308594zm12.90625 4.054688-7.734375-2.425781 5.921875-11.226563 4.773437 9.066406c-1.292968 1.308594-2.300781 2.867188-2.960937 4.585938zm20.214843 12.050781c-3.714843 3.605469-9.621093 3.605469-13.335937 0-3.589844-3.664062-3.550781-9.539062.089844-13.152344 3.640625-3.613281 9.515625-3.613281 13.15625 0 3.636719 3.613282 3.679687 9.488282.089843 13.152344zm-77.601562-34.292969v5.335938h-10.667969v10.664062h-5.332031v-10.664062h-10.667969v-5.335938h10.667969v-10.664062h5.332031v10.664062zm0 0" fill="#fff"/></svg>