<svg height="200" viewBox="0 0 200 200" width="200" xmlns="http://www.w3.org/2000/svg"><path d="m119.929688 11.199219c-3.589844 3.863281-8.074219 6.980469-11.398438 11.203125 3.375-2.523438 6.40625-5.5625 9.890625-7.960938.851563-.515625 1.707031-1.261718 2.769531-1.136718-.484375.824218-1.074218 1.488281-1.789062 2.121093-2.714844 2.421875-5.78125 4.753907-8.246094 7.445313.992188-.503906 1.90625-1.136719 2.828125-1.761719.242187.089844.480469.171875.722656.257813.628907-.40625 1.269531-.796876 1.917969-1.164063-1.28125 1.378906-2.835938 2.511719-4.234375 3.777344-3.347656 3.0625-6.519531 6.285156-9.582031 9.632812 1.402344 1.824219 2.546875 3.796875 3.863281 5.675781-.578125-1.417968-1.316406-2.753906-1.917969-4.160156.125-.761718.039063-1.414062-.128906-2.160156 3.132812 4.816406 5.976562 9.871094 7.675781 15.386719 3.054688 8.425781 3.226563 18.277343-.597656 26.476562-1.214844 2.796875-3.082031 5.117188-4.996094 7.460938-7.320312 7.835937-17.796875 11.9375-27.945312 14.667969 1.5 3.238281 3.03125 6.464843 4.671875 9.632812 1.980468 3.613281 3.519531 7.488281 5.21875 11.246094 2.429687 5.753906 5.75 10.558594 9.023437 15.84375 4.449219 6.175781 9.09375 12.191406 14.019531 17.984375 3.105469 3.253906 5.980469 6.789062 9.355469 9.742187 2.574219 2.308594 5.011719 4.808594 7.753907 6.90625 1.867187 1.570313 4.398437 3.101563 5.554687 5.273438-.773437-.132813-1.375-.359375-2.03125-.785156-1.792969-1.148438-3.496094-2.433594-5.234375-3.65625-2.164062-1.515626-3.976562-3.429688-6.117188-4.953126 1.847657 1.839844 3.8125 3.5625 5.671876 5.402344 3.851562 3.121094 7.652343 6.296875 11.695312 9.167969-2.59375-1.242187-4.859375-3.160156-7.28125-4.703125-8.414062-6.089844-16.09375-13.246094-22.882812-21.105469-2.375-2.566406-4.375-5.4375-6.691407-8.066406-2.1875-3.222656-4.421875-6.4375-6.875-9.457031-1.398437-2.453125-2.910156-4.882813-4.125-7.429688-.964843-2.792968-2.488281-5.269531-3.699219-7.9375-.78125-1.988281-1.6875-3.917968-2.496093-5.890625.425781 2.09375 1.703125 3.871094 2.230469 5.953125.40625 1.605469.921874 3.039063 1.683593 4.515625-.375-.171875-.753906-.339843-1.132812-.503906 1.34375 3.148437 3.222656 6.054687 4.699219 9.140625 1.265624 3.316406 3.503906 6.273438 5.402343 9.265625 3.1875 3.117187 5.417969 6.976563 8.472657 10.265625 4.382812 5.25 9.175781 10.101562 14.054687 14.882812-1.78125-.929687-3.320313-2.113281-5.042969-3.164062l.480469 1.484375c-3.121094-2.652344-6.074219-5.488281-8.90625-8.449219-1.589844-1.46875-3.167969-3.414062-5.199219-4.242187.878906 2.238281 2.292969 4.207031 3.082032 6.46875-.484376-.320313-.910157-.714844-1.28125-1.191407-.367188.1875-.726563.371094-1.089844.546876.003906-.484376.152344-.910157.316406-1.359376-3.445312-3.589843-6.601562-7.453124-9.351562-11.597656-2.050782-2.496094-3.707032-5.21875-5.382813-7.960937-1.429687-1.722657-2.101563-3.800781-3.3125-5.667969-.96875-1.769531-2.296875-3.160156-2.375-5.230469-2.015625-4.035156-3.828125-8.15625-5.246094-12.441406-1.367187-2.058594-1.730469-4.542969-3.039062-6.582031-.191407 6.613281-.117188 13.214844.074219 19.828125 0 4.027343.453124 7.996093.769531 12.003906.226562 2.941406 1.097656 5.386719.5625 8.28125-.617188-.371094-.808594-.875-1-1.535156-.976563-3.8125-1.628907-7.683594-1.910157-11.617188-.074218 1.332031.054688 2.648438.128907 3.972657.046875 4.621093 1.007812 9.230468 1.324219 13.835937-.542969-2.230469-1.109376-4.441406-1.390626-6.722656-.46875-3.410157-1.097656-6.800781-1.480468-10.222657-.246094-3.851562-.488282-7.699218-.703125-11.550781-.054688-4 .117187-8 .03125-12 .03125-1.6875-.25-3.265625.246093-4.914062-.652343-2.328125.445313-5.097657.515626-7.484375-.386719-.980469-.894532-1.914063-1.308594-2.886719.597656 2.832031-.640625 5.007813-.921875 7.734375-.175781 1.332031-.433594 2.648438-.488281 3.992188-.101563 2.464843-.722657 4.609374-.3125 7.117187.203124 1.035156.425781 2.042969.390624 3.109375.058594 6.117188.246094 12.210938.566407 18.3125-.542969-1.425781-.992188-2.871094-1.332031-4.359375l-.886719.175781c-.933594-4.234375-.570313-8.621094-1.71875-12.773437 0-.304688-.226563-.425781-.675781-.355469-.664063 1.535156-.679688 3.582031-1.753907 4.882812-.464843-4.449218-.492187-8.980468-.230469-13.441406-.121093-2.988281.421876-5.925781.289063-8.910156.707031-1.789062.75-3.9375.835937-5.84375.199219-.472656.558594-.886719.859376-1.304688.160156-2.519531.886718-5.058593 1.523437-7.5.328125-1.351562 1.03125-2.617187 1.207031-3.984374.246094-1.917969 1.046875-3.785157 1.578125-5.652344-2.324219-.261719-4.929687-.507813-7.085937-1.457032-4.355469-2.132812-8.285156-4.910156-11.335938-8.726562-1.203125-1.472656-1.867187-3.078125-2.8125-4.726562-1.75-3.320313-2.121094-6.859376-2.011718-10.5625.097656-1.804688.050781-3.457032.832031-5.128907l-.039063 1.613281c.210938-.066406.417969-.132812.625-.203124l.699219-1.183594c-.058594 1.324218-.183594 2.644531-.222656 3.976562.285156-.289062.566406-.582031.839843-.871094-.289062 3.9375.566407 7.855469 2.542969 11.273438.082031-1.386719.164063-2.769531.390625-4.140625.246094 1.847656.21875 3.730469.507813 5.566406.960937 1.695313 2.554687 3.109375 4.148437 4.195313 1.988282 1.453125 4.296875 2.128906 6.433594 3.34375 1.082031.617187 2.632812.398437 3.328125 1.429687.28125-.144531.5625-.296875.839844-.441406 1.496093.152344 2.960937.339844 4.464843.183594 2.5625-6.4375 5.421876-12.699219 9.027344-18.632813.671875-.984375 1.441406-1.863281 1.960938-2.953125.992187-1.933593 2.804687-3.234375 3.636718-5.21875.539063-1.164062 1.355469-2.097656 2.125-3.132812-2.351562-3.136719-5.816406-5.496094-9.644531-6.417969-3.519531-.765625-7.15625.128906-10.089843 2.164062-1.109376.804688-2.382813 1.117188-3.597657 1.683594-.820312.371094-1.332031 1.175782-2.054687 1.628906-.960938-.042968-1.570313-.0625-2.476563.34375.894531-.015624 1.03125.191407 1.699219.625-2.867188 3.242188-5.566406 6.289063-6.789062 10.53125-.367188.074219-.730469.148438-1.101563.226563-.242187-1.417969.109375-2.71875.390625-4.089844-1.265625 1.671875-1.652344 3.585938-2.453125 5.476563.085937-1.890625.414063-3.691406 1.058594-5.464844 1.386719-3.503906 3.695312-6.210938 6.25-8.910156 1.332031-2.277344 4.667969-2.511719 6.917969-3.710938-1.207032.28125-2.398438.492188-3.644532.570313-.082031-.898438.234375-1.414063.953125-1.546875 2-.800782 4.128907-1.078125 6.15625-1.746094-2.53125-.199219-4.796875.695312-6.949219 1.917969-.742187.734375-1.386718 1.390625-2.429687 1.703125-1.914063.589844-3.066406 1.996094-4.707031 3.027344.175781.191406.347656.386718.519531.582031-1.800781 2.148437-3.464844 4.371093-4.859375 6.8125-.027344-.636719-.054688-1.265625-.078125-1.898438-.265625-.222656-.53125-.441406-.800781-.660156.601562-2.128906 2.078125-3.476563 2.058594-5.644531-1.109376.167968-2.175782.515625-3.273438.730468 1.230469-2.613281 3.167969-4.4375 5.210938-6.40625 1.269531-1.257812 2.855468-2.21875 4.34375-3.207031 2.382812-.65625 4.796874-1.292969 7.140624-2.097656 1.289063-.347656 2.5-.5 3.824219-.234375.402344-.277344.820313-.425781 1.261719-.449219 4.347656-.1875 8.597656.308594 12.359375 2.640625 3.535156.980469 6.429687 4.1875 8.609375 7 1.835938-2.175781 3.707031-4.289062 5.699219-6.320312-1.457031-1.738282-3.050781-3.332032-4.425781-5.140625 1.902343 1.1875 3.347656 2.792969 4.933593 4.339843.304688-.109374.589844-.269531.855469-.480468-1.179688-1.675782-2.78125-3.035156-3.371094-4.9375 1.726563.660156 3.109375 2.351562 4.355469 3.660156 2.195313-1.335938 3.589844-3.394531 5.5625-4.976562.832031-.6875 1.378906-1.566407 2.257813-2.183594 2.4375-1.675782 4.242187-4.027344 6.621093-5.820313 2.09375-1.617187 4.136719-3.789062 6.597657-4.820312zm0 0" fill="#8bc63e"/><path d="m69.394531 33.691406c2.207031-.246094 4.355469.085938 6.527344.441406.628906.128907 1.179687.203126 1.605469.730469-1.269532-.050781-2.429688-.457031-3.644532-.773437-1.390624-.144532-2.796874.0625-4.191406-.085938zm0 0" fill="#fff"/><path d="m101.058594 35.367188.695312-.089844c.832032.996094 1.488282 2.164062 2.164063 3.273437.742187 1.261719 1.5625 2.375 1.9375 3.816407-1.488281-2.414063-3.339844-4.585938-4.796875-7zm0 0" fill="#fff"/><path d="m100.398438 36.539062c1.789062 2.363282 3.570312 4.96875 4.457031 7.808594.390625.929688.976562 1.703125 1.300781 2.671875.84375 2.789063 1.945312 5.253907 1.988281 8.226563.746094 5.746094.230469 11.5-2.453125 16.703125-1.320312 2.605469-3.195312 4.726562-4.96875 7.007812-1.636718 1.546875-3.527344 2.28125-5.269531 3.636719-.941406.75-2.183594 1.039062-3.28125 1.613281-5.214844 2.519531-10.71875 4.121094-16.425781 5.066407.882812-3.507813 1.140625-7.105469 2.058594-10.609376 3.199218-.964843 6.625-1.882812 9.253906-4.011718 1.394531-1.179688 2.828125-2.148438 4.035156-3.539063 2.070312-2.425781 3.921875-5.078125 5.488281-7.867187 1.121094-2.125 1.15625-4.519532 2.101563-6.664063-.613282.515625-1.246094.953125-1.96875 1.300781-.019532-1.035156.011718-2.066406.054687-3.097656-.324219-.410156-.644531-.816406-.964843-1.226562-.148438 1.910156-.695313 3.734375-.921876 5.632812-.132812 1.132813-1.003906 2.214844-1.578124 3.179688-.117188 1.601562-.964844 2.867187-2.035157 4.003906.605469-1.292969 1.511719-2.199219 1.84375-3.546875-.339843.089844-.683593.179687-1.027343.273437 1.894531-2.542968 2.105468-5.371093 2.539062-8.398437l-.5625.3125c-.289062 1.117187-.527344 2.230469-.929688 3.3125.128907-1.222656.347657-2.425781.578126-3.632813.359374-.011718.71875-.027343 1.078124-.039062.023438-.839844.042969-1.679688.058594-2.519531-.257812.089843-.515625.175781-.773437.265625-.058594-.550782-.117188-1.101563-.183594-1.652344-.84375.113281-.527344 1.234375-.667969 1.839844.03125 2.417968-1.371094 4.90625-.9375 7.261718-.859375 1.269532-1.332031 2.828126-2.054687 4.191407-.933594 2.832031-2.285157 5.445312-4.589844 7.398437-2.082031 1.71875-4.511719 3.535156-7.148437 4.234375 1.101562-4.007812 2.367187-7.941406 4.101562-11.71875 2.21875-5.558593 5.503906-10.859375 8.863281-15.804687.492188.601562.421875 1.609375 1.425781 1.210937.375-1.363281-.316406-2.609375.242188-3.941406.667969 1.097656 1.234375 2.148437 1.050781 3.480469.285157-.03125.570313-.0625.851563-.09375-.074219-1.503906-.4375-2.902344-.945313-4.3125 1.949219-2.75 4-5.496094 6.316407-7.957032zm0 0" fill="#fff"/><path d="m47.921875 39.265625c0 .589844-.324219 2.097656-1.160156 1.808594-.265625-.628907.628906-1.539063 1.160156-1.808594zm0 0" fill="#8bc63e"/><path d="m58.328125 43.171875c-1.351563 1.683594-2.523437 3.574219-4.050781 5.097656.253906-2.089843 2.347656-4.027343 4.050781-5.097656zm0 0" fill="#fff"/><path d="m46.039062 50.042969c.011719.960937-.128906 1.929687-.359374 2.859375-.394532-.65625-.355469-1.523438-.296876-2.253906l.074219-.332032c.175781-.171875.375-.261718.582031-.273437zm0 0" fill="#fff"/><path d="m51.394531 55.421875c.832031-.195313-.058593 2.175781-.574219 1.890625-.257812-.429688.183594-1.617188.574219-1.890625zm0 0" fill="#8bc63e"/><path d="m85.066406 55.589844c-1.050781 2.445312-2.464844 4.75-3.84375 7.011718-2.023437 3.3125-3.152344 7.128907-5.054687 10.488282 1.292969-4.605469 4.058593-9.085938 6.222656-13.355469.816406-1.394531 1.527344-2.988281 2.675781-4.144531zm0 0" fill="#fff"/><path d="m85.039062 65.871094c-.445312 1.335937-1.667968 2.433594-2.785156 3.226562.796875-1.171875 1.789063-2.21875 2.785156-3.226562zm0 0" fill="#8bc63e"/><g fill="#fff"><path d="m56.1875 70.824219c1.792969.839843 2.871094 2.292969 4.953125 2.53125l-.84375-1.226563c1.707031 1.164063 3.441406 1.910156 5.519531 2.109375 1.355469.457031 2.488282.355469 3.886719.1875-.167969 1.433594-1.429687.851563-2.488281 1.019531-2.757813-.046874-4.5-1.511718-7.078125-2.1875-1.484375-.425781-2.804688-1.425781-3.949219-2.433593zm0 0"/><path d="m68.207031 73.59375c.390625-.125 2.175781-.542969 2.054688.21875-.539063.382812-1.457031.089844-2.054688-.046875zm0 0"/><path d="m78.425781 76.210938.316407-.191407.304687.175781-.003906.371094-.316407.195313-.308593-.175781zm0 0"/><path d="m74.664062 76.550781c-.109374 1.980469-1.015624 3.917969-1.558593 5.875-1.238281 3.933594-2.175781 7.933594-3.125 11.941407.035156-2.980469 1.148437-5.980469 1.75-8.898438.589843-3.128906 2.152343-5.84375 2.933593-8.917969zm0 0"/><path d="m79.179688 77.496094c-.171876.519531-.585938.679687-1.234376.472656.1875-.542969.601563-.699219 1.234376-.472656zm0 0"/><path d="m97.027344 88.191406c-5.367188 3.617188-11.148438 4.660156-17.296875 6.238282-.75.136718-1.542969.492187-2.273438.132812 2.539063-.605469 5.101563-1.066406 7.609375-1.820312 2.972656-.726563 5.710938-1.992188 8.554688-3.082032 1.195312-.457031 2.160156-1.167968 3.40625-1.46875zm0 0"/><path d="m74.277344 94.46875c.582031.15625 1.160156.324219 1.742187.480469-.605469.34375-.871093.578125-1.136719 1.253906-.195312-.578125-.410156-1.152344-.605468-1.734375zm0 0"/><path d="m76.632812 100.191406c3.210938 7.496094 5.769532 15.085938 9.441407 22.453125.320312.296875.667969.570313 1.03125.824219-.121094.363281-.246094.730469-.363281 1.09375-2.027344-3.820312-3.679688-7.839844-5.535157-11.746094-1.101562-2.507812-2.207031-5.066406-2.878906-7.730468-.519531-1.675782-1.417969-3.128907-1.695313-4.894532zm0 0"/><path d="m72.445312 105.535156c.105469.199219.207032.402344.3125.605469-.382812 2.890625-1.246093 5.6875-1.230468 8.664063.222656 6.25.371094 12.519531.421875 18.78125-1.523438-6.59375-.648438-12.59375-.589844-19.226563.378906-2.9375.65625-5.890625 1.085937-8.824219zm0 0"/></g><path d="m69.167969 113.164062c.414062 1.472657.21875 3.183594.21875 4.714844l-.289063-.023437c-.03125-1.566407-.078125-3.125.070313-4.691407zm0 0" fill="#8bc63e"/><path d="m88.175781 125.304688.25-.0625.058594.261718-.253906.0625zm0 0" fill="#8bc63e"/><path d="m101.019531 140.988281c1.503907 1.617188 2.632813 3.546875 4.125 5.1875 4.292969 5.292969 8.777344 10.394531 13.515625 15.292969-4.289062-2.855469-7.40625-7.058594-10.722656-10.921875-1.605469-1.84375-2.910156-3.835937-4.355469-5.804687-.894531-1.273438-1.839843-2.425782-2.5625-3.753907zm0 0" fill="#fff"/><path d="m74.113281 154.78125c1.28125 2.742188.578125 5.238281 1.242188 8.101562 1.09375 4.578126 2.167969 9.160157 3.417969 13.699219.613281 2.636719 1.34375 5.292969 1.675781 7.984375-.417969-1.308594-.839844-2.613281-1.34375-3.898437-1.640625-5.25-2.476563-10.621094-3.511719-16.011719-.664062-3.253906-1.125-6.574219-1.480469-9.875zm0 0" fill="#8bc63e"/><path d="m102.664062 159.710938c1.441407.953124 2.496094 1.984374 3.222657 3.578124-1.144531-1.105468-2.359375-2.238281-3.222657-3.578124zm0 0" fill="#8bc63e"/><path d="m140.472656 179.679688c1.980469.953124 3.972656 2.363281 5.484375 3.953124-1.882812-1.191406-3.863281-2.417968-5.484375-3.953124zm0 0" fill="#8bc63e"/><path d="m149.40625 185.960938c2.558594 1.210937 4.9375 2.785156 7.4375 4.113281 5.734375 3.007812 11.472656 6.007812 17.222656 8.992187-3.789062-1.15625-7.5625-3.046875-11.007812-4.984375-4.65625-2.496093-9.273438-5.171875-13.652344-8.121093zm0 0" fill="#8bc63e"/></svg>