<svg height="200" viewBox="0 0 200 200" width="200" xmlns="http://www.w3.org/2000/svg" xmlns:xlink="http://www.w3.org/1999/xlink"><linearGradient id="a" gradientTransform="matrix(-2.666667 0 0 -2.666667 1618.666667 130.666667)" gradientUnits="userSpaceOnUse" x1="622.530029" x2="516.460022" y1="-41.529999" y2="64.540001"><stop offset="0" stop-color="#4d27a8"/><stop offset="1" stop-color="#a166ff"/></linearGradient><path d="m0 0h200v200h-200z" fill="url(#a)"/><g fill="#fff"><path d="m60 72.667969h-24c-1.472656 0-2.667969 1.191406-2.667969 2.664062v85.335938c0 1.472656 1.195313 2.664062 2.667969 2.664062h24c1.472656 0 2.667969-1.191406 2.667969-2.664062v-85.335938c0-1.472656-1.195313-2.664062-2.667969-2.664062zm-2.667969 85.332031h-18.664062v-80h18.664062zm0 0"/><path d="m97.332031 145.785156v14.882813c0 1.472656-1.191406 2.664062-2.664062 2.664062h-24c-1.472657 0-2.667969-1.191406-2.667969-2.664062v-46c.867188 4.953125 2.675781 9.699219 5.332031 13.972656v29.332031h18.667969v-13.972656c1.730469.734375 3.511719 1.332031 5.332031 1.785156zm0 0"/><path d="m97.332031 59.332031v9.441407c-1.824219.492187-3.605469 1.125-5.332031 1.894531v-8.667969h-18.667969v24c-2.65625 4.273438-4.464843 9.015625-5.332031 13.972656v-40.640625c0-1.472656 1.195312-2.664062 2.667969-2.664062h24c1.472656 0 2.664062 1.191406 2.664062 2.664062zm0 0"/><path d="m126.667969 147.921875v10.078125h-18.667969v-10.667969c-1.785156.007813-3.566406-.109375-5.332031-.34375v13.679688c0 1.472656 1.191406 2.664062 2.664062 2.664062h24c1.472657 0 2.667969-1.191406 2.667969-2.664062v-7.414063zm2.664062-112.589844h-24c-1.472656 0-2.664062 1.195313-2.664062 2.667969v29.679688c1.765625-.238282 3.546875-.355469 5.332031-.347657v-26.664062h18.667969v31.332031c1.867187.988281 3.652343 2.132812 5.332031 3.414062v-37.335937c.023438-.71875-.25-1.417969-.753906-1.9375-.5-.515625-1.191406-.808594-1.914063-.808594zm0 0"/><path d="m164 48.667969h-24c-1.472656 0-2.667969 1.191406-2.667969 2.664062v28.90625c2.058594 2.222657 3.847657 4.671875 5.335938 7.308594v-33.546875h18.664062v82l5.335938 5.332031v-90c0-1.472656-1.195313-2.664062-2.667969-2.664062zm0 0"/><path d="m163.441406 145.734375-24-24c7.078125-15.421875 1.953125-33.699219-12.109375-43.195313-14.058593-9.492187-32.929687-7.414062-44.585937 4.914063s-12.679688 31.28125-2.414063 44.792969c10.265625 13.507812 28.800781 17.601562 43.800781 9.675781l23.601563 23.570313c4.328125 4.339843 11.355469 4.34375 15.691406.015624 4.339844-4.332031 4.34375-11.355468.015625-15.695312zm-84.773437-38.453125c0-16.203125 13.132812-29.335938 29.332031-29.335938s29.332031 13.132813 29.332031 29.335938c0 16.199219-13.132812 29.332031-29.332031 29.332031s-29.332031-13.132812-29.332031-29.332031zm80.984375 50.371094c-2.257813 2.246094-5.902344 2.246094-8.160156 0l-22.71875-22.71875c3.117187-2.355469 5.820312-5.210938 8-8.453125l22.933593 23.039062c2.226563 2.261719 2.203125 5.902344-.054687 8.132813zm0 0"/><path d="m96.1875 120c-5.0625-3.621094-7.777344-9.6875-7.101562-15.875.671874-6.1875 4.628906-11.527344 10.351562-13.972656 5.722656-2.449219 12.316406-1.617188 17.253906 2.167968l-3.171875 4.292969c-5.28125-3.910156-12.730469-2.800781-16.640625 2.480469s-2.796875 12.730469 2.480469 16.640625zm0 0"/></g></svg>