<svg height="200" viewBox="0 0 200 200" width="200" xmlns="http://www.w3.org/2000/svg"><path d="m0 0h200v200h-200z" fill="#fff"/><path d="m59.363281 26.820312c1.40625 1.453126 2.371094 3.164063 3.441407 4.859376 11.101562 16.734374 24.148437 32.246093 39.164062 45.617187-5.113281-7.363281-10.734375-14.222656-15.320312-21.96875-3.128907-5.3125-6.078126-11.097656-7.484376-17.136719 12.429688 13 24.484376 25.535156 34.539063 40.578125 5.375 8.179688 10.183594 17.035157 11.566406 26.855469.140625 3.566406.390625 6.886719-.820312 10.300781-1.890625 6.59375-6.6875 10.910157-12.34375 14.398438 7.308593-1.449219 13.316406-6.613281 16.269531-13.394531 1.570312-3.195313 2.078125-6.53125 2.765625-9.984376.320313-3.246093.238281-6.566406.085937-9.816406-.371093-2.632812-.929687-5.257812-1.460937-7.867187-1.957031-7.027344-5.09375-13.5625-10.03125-18.992188-.890625-.933593-1.808594-1.84375-2.675781-2.808593 6.300781 2.375 11.671875 7.5625 15.296875 13.144531 3.664062 5.5 5.875 11.628906 7.285156 18.050781.554687 2.933594.589844 5.878906.945313 8.832031.09375 2.5-.375 5.023438-.507813 7.523438-.238281 2.941406-1.117187 5.703125-2.011719 8.5-2.9375 8.773437-9.089844 16.234375-16.980468 21.019531-2.597657 1.6875-5.472657 2.703125-8.144532 4.179688 1.957032.117187 3.636719-.464844 5.503906-.949219 4.285157-1.386719 8.351563-3.132813 12.007813-5.792969 6.578125-4.652344 11.03125-11.488281 13.476563-19.09375.445312-1.683594.914062-3.34375 1.628906-4.941406.445312 2.355468.679687 4.738281 1.050781 7.105468.464844 5.910157.117187 11.769532-1.0625 17.582032-1.246094 4.949218-2.640625 9.8125-4.246094 14.660156-2.285156.027344-4.53125.375-6.804687.546875-3.621094.277344-7.191406 1.65625-10.519532 3.023437-8.714843 3.875-14.921874 10.320313-23.765624 12.671876-3.074219.6875-6.460938.800781-9.550782.132812-3.832031-1.226562-6.21875-4.535156-7.28125-8.285156-1.082031-2.886719-1.132812-5.800782-1.292968-8.832032-.796876-1.167968-2.621094-1.8125-3.914063-2.25-2.675781-.769531-5.703125-1.3125-7.265625-3.878906.859375-2.59375 2.820312-4.339844 3.96875-6.769531-3.09375.007813-6.273438.265625-9.011719-1.480469-.917969-.636718-2-1.355468-1.699219-2.636718.6875-3.75 2.546876-6.878907 2.085938-11.027344-1.085938-2.582032-4.480469-4.199219-6.800781-5.496094-2.621094-1.46875-5.347657-3.003906-6.175781-6.128906-.132813-1.261719.828124-2.652344 1.425781-3.710938 3.347656-5.113281 6.199219-10.433594 8.019531-16.296875 1.261719-3.382812 1.695312-6.796875 2.476562-10.359375.769532-3.84375.574219-7.625.535157-11.515625-.296875-6.613281-1.300781-13.125-2.054688-19.703125-.65625-4.046875-1.496093-8.046875-1.941406-12.125-.972656-5.449218-1.988281-10.796875-2.371094-16.339844zm0 0"/></svg>