<svg height="200" viewBox="0 0 200 200" width="200" xmlns="http://www.w3.org/2000/svg" xmlns:xlink="http://www.w3.org/1999/xlink"><linearGradient id="a" gradientUnits="userSpaceOnUse" x1="73.54714398262" x2="38.11408815584" y1="108.22223138279" y2="55.07266014263"><stop offset="0"/><stop offset="1" stop-color="#fff"/></linearGradient><clipPath id="b"><path d="m46 102h40v27h-40zm0 0"/></clipPath><clipPath id="c"><path d="m85.359375 109.699219c0 10.597656-8.59375 19.191406-19.195313 19.191406-10.597656 0-19.191406-8.59375-19.191406-19.191406 0-10.601563 8.59375-19.195313 19.191406-19.195313 10.601563 0 19.195313 8.59375 19.195313 19.195313zm0 0"/></clipPath><linearGradient id="d" gradientUnits="userSpaceOnUse" x1="67.64161284482" x2="67.64161284482" y1="108.22223838279" y2="128.8915309484"><stop offset="0" stop-color="#00c3a1"/><stop offset="1" stop-color="#006e5a"/></linearGradient><filter id="e" height="100%" width="100%" x="0%" y="0%"><feColorMatrix in="SourceGraphic" type="matrix" values="0 0 0 0 1 0 0 0 0 1 0 0 0 0 1 0 0 0 1 0"/></filter><mask id="f"><g filter="url(#e)"><path d="m0 0h200v200h-200z" fill-opacity=".75"/></g></mask><linearGradient id="g"><stop offset="0" stop-color="#fff"/><stop offset="1" stop-color="#fff" stop-opacity="0"/></linearGradient><radialGradient id="h" cx="248.031494" cy="361.417297" gradientTransform="matrix(1.282051 .00000087 -.00000078 1.153846 -259.205363 -314.611476)" gradientUnits="userSpaceOnUse" r="23.031496" xlink:href="#g"/><radialGradient id="i" cx="248.031494" cy="361.417297" gradientTransform="matrix(.641026 .00000122 -.00000122 .641025 -100.210653 -129.269164)" gradientUnits="userSpaceOnUse" r="23.031496" xlink:href="#g"/><clipPath id="j"><path d="m0 0h200v200h-200z"/></clipPath><path d="m7.988281 70.242188v60.519531h18.125c6.296875 0 10.4375-.371094 12.472657-1.09375 2.035156-.722657 3.507812-2.066407 4.425781-4.035157.761719-1.589843 1.207031-3.882812 1.355469-6.851562-1.957032-4.703125-2.359376-9.992188-1.042969-15.050781-.234375-.570313-.523438-1.082031-.832031-1.535157-1.289063-1.921874-3.722657-3.292968-7.34375-4.117187 3.25-.746094 5.417968-1.804687 6.511718-3.203125 1.113282-1.394531 1.664063-3.882812 1.664063-7.421875 0-5.234375-.78125-9.011719-2.34375-11.351563-1.5625-2.371093-3.617188-3.941406-6.171875-4.714843-2.527344-.773438-6.261719-1.144531-11.195313-1.144531zm128.253907 0v60.519531h15.46875v-60.519531zm-42.628907 4.296874c.859375.59375 1.546875 1.136719 2.082031 1.640626 1.011719.949218 1.597657 1.777343 1.71875 2.785156.121094 1.003906-.492187 1.914062-.988281 2.292968-.148437.109376-.152343.085938-.289062.15625l-5.546875 9.582032v24.402344c0 4.933593.144531 8.078124.417968 9.425781.273438 1.320312.96875 2.496093 2.082032 3.542969 1.117187 1.019531 2.390625 1.679687 3.855468 1.976562 1.464844.273438 3.921876.417969 7.34375.417969h6.066407v-7.996094c-2.453125 0-3.871094-.199219-4.21875-.570313-.320313-.375-.46875-2.207031-.46875-5.46875v-26.539062h4.039062v-7.835938h-4.039062v-7.8125zm20.179688 0v7.8125h-3.226563v7.835938h3.226563v25.210938c0 4.933593.144531 8.078124.417969 9.425781.273437 1.320312.96875 2.496093 2.082031 3.542969 1.117187 1.019531 2.417969 1.679687 3.882812 1.976562 1.460938.273438 3.894531.417969 7.316407.417969h6.066406v-7.996094c-2.453125 0-3.871094-.199219-4.21875-.570313-.320313-.375-.46875-2.207031-.46875-5.46875v-26.539062h4.0625v-7.835938h-4.0625v-7.8125zm59.453125 5.703126c-3.445313 0-6.511719.683593-9.164063 2.03125-2.65625 1.320312-4.539062 3.234374-5.703125 5.753906-1.167968 2.492187-1.773437 5.898437-1.773437 10.234375v14.480469c0 3.6875.261719 6.492187.78125 8.4375.523437 1.917968 1.476562 3.691406 2.8125 5.3125 1.363281 1.59375 3.25 2.851562 5.679687 3.773437 2.429688.921875 5.234375 1.382813 8.410156 1.382813 3.273438 0 5.992188-.460938 8.152344-1.382813 2.179688-.945313 3.976563-2.347656 5.390625-4.21875 1.410157-1.867187 2.308594-3.613281 2.679688-5.257813.398437-1.648437.574219-4.019531.574219-7.085937v-3.671875h-14.246094v6.5625c0 2.46875-.175782 4.128906-.570313 5-.375.847656-1.152343 1.277344-2.292969 1.277344-.917968 0-1.527343-.316406-1.847656-.964844-.324218-.648438-.496094-2.105469-.496094-4.347656v-10.730469h19.453126v-6.585937c0-4.8125-.550782-8.53125-1.667969-11.171876-1.089844-2.667968-3-4.785156-5.753907-6.382812-2.726562-1.617188-6.203124-2.445312-10.417968-2.445312zm-149.609375.335937c1.613281.027344 2.710937.140625 3.257812.339844.570313.199219 1.003907.683593 1.351563 1.457031.347656.75.523437 2.066406.523437 3.960938 0 3.585937-.203125 5.789062-.625 6.5625-.421875.746093-1.40625 1.117187-2.945312 1.117187-.371094 0-.890625 0-1.5625.027344zm150.3125 8.464844c.84375 0 1.394531.371093 1.667969 1.121093.273437.746094.417968 2.40625.417968 4.972657v3.621093h-4.402344v-3.621093c0-2.792969.144532-4.507813.390626-5.128907.246093-.648437.886718-.964843 1.925781-.964843zm-150.3125 14.425781c2.332031.074219 3.777343.390625 4.324219.9375.546874.550781.808593 2.121094.808593 4.714844v5.625c0 2.441406-.292969 3.984375-.914062 4.609375-.59375.621093-2.011719.964843-4.21875 1.042969zm0 0"/><path d="m85.011719 71.144531c-8.949219-5.167969-7.855469-1.136719-7.855469-1.136719l-10.128906 17.546876c-7.945313-.300782-15.796875 3.710937-20.042969 11.070312-6.113281 10.585938-2.464844 24.136719 8.125 30.25 10.585937 6.113281 24.125 2.484375 30.234375-8.101562 4.25-7.359376 3.800781-16.164063-.433594-22.894532l10.132813-17.546875s4.039062-1.066406-4.914063-6.230469zm0 0" fill="url(#a)"/><path d="m68.003906 89.207031c-12.808594-1.441406-24.621094 11.148438-22.03125 23.804688 1.652344 12.957031 17.121094 21.152343 28.773438 15.285156 11.339844-4.820313 15.582031-20.496094 8.203125-30.390625 3.472656-6.355469 8.007812-13.019531 10.808593-19.246094-4.492187-3.417968-9.519531-6.507812-14.792968-8.410156 0 0-7.449219 12.828125-10.960938 18.957031zm0 0" fill="#fff"/><g clip-path="url(#b)"><g clip-path="url(#c)"><path d="m67.644531 103.214844c-10.457031 0-14.011719 3.828125-20.027343 1.539062-6.011719-2.292968-4.925782-1.835937-6.824219-2.644531v27.972656h51.328125v-21.722656s-2.613282 1.246094-6.847656-.167969c-4.234376-1.417968-9.074219-4.976562-17.628907-4.976562zm0 0" fill="url(#d)"/></g></g><g fill="#00c3a1"><path d="m77.71875 99.558594c-1.207031 1.097656-3.074219 1.011718-4.171875-.195313s-1.011719-3.074219.195313-4.171875c1.207031-1.097656 3.074218-1.007812 4.171874.195313 1.097657 1.207031 1.011719 3.074219-.195312 4.171875zm0 0"/><path d="m76.5 105.269531c-.601562.550781-1.535156.503907-2.085938-.097656-.546874-.601563-.503906-1.535156.097657-2.085937.601562-.546876 1.539062-.503907 2.085937.097656.550782.601562.503906 1.535156-.097656 2.085937zm0 0"/><path d="m70.300781 105.621094c-1.808593 1.648437-4.609375 1.515625-6.257812-.292969-1.644531-1.808594-1.515625-4.609375.292969-6.257813 1.8125-1.648437 4.613281-1.515624 6.257812.292969 1.648438 1.808594 1.515625 4.609375-.292969 6.257813zm0 0"/><path d="m69.628906 95.640625c-.601562.550781-1.535156.507813-2.085937-.097656-.546875-.601563-.503907-1.535157.097656-2.085938.605469-.546875 1.539063-.503906 2.085937.097657.550782.605468.507813 1.539062-.097656 2.085937zm0 0"/><path d="m60.773438 107.453125c-1.207032 1.097656-3.074219 1.011719-4.171876-.195313-1.097656-1.207031-1.011718-3.074218.195313-4.171874 1.207031-1.097657 3.074219-1.007813 4.171875.195312 1.097656 1.207031 1.007812 3.074219-.195312 4.171875zm0 0"/></g><g clip-path="url(#j)" mask="url(#f)"><path d="m85.359375 109.789062c0 10.601563-8.59375 19.195313-19.195313 19.195313-10.597656 0-19.191406-8.59375-19.191406-19.195313 0-10.597656 8.59375-19.191406 19.191406-19.191406 10.601563 0 19.195313 8.59375 19.195313 19.191406zm0 0" fill="url(#h)"/><path d="m85.359375 109.789062c0 10.601563-8.59375 19.195313-19.195313 19.195313-10.597656 0-19.191406-8.59375-19.191406-19.195313 0-10.597656 8.59375-19.191406 19.191406-19.191406 10.601563 0 19.195313 8.59375 19.195313 19.191406zm0 0" fill="url(#i)"/></g></svg>