<svg height="200" viewBox="0 0 200 200" width="200" xmlns="http://www.w3.org/2000/svg"><g transform="translate(0 50)"><path d="m0 0h200v100h-200z" fill="#fff"/><path d="m85.628906 36.667969h2.703125c-.03125 3.359375.105469 6.742187-.125 10.09375 2.28125-3.261719 6.898438-3.691407 10.160157-1.761719 1.871092 1.3125 2.128902 3.421875 2.183592 5.542969.0273 3.894531-.008 7.789062.004 11.679687-.89844 0-1.80469 0-2.703128 0-.0078-3.707031.0039-7.417968.0078-11.121094-.06641-1.589843-.0039-3.210937-1.414063-4.257812-1.730545-1.164062-4.382889-.945312-6.105545.15625-1.65625 1.195312-1.902344 3.300781-1.988282 5.183594-.0625 3.34375.0039 6.695312-.01953 10.039062-.898437 0-1.804687 0-2.703125 0 0-8.515625 0-17.039062-.000001-25.554687zm0 0"/><path d="m21.40625 38.332031h2.742188c-.0039 7.996094 0 15.914063.0078 23.90625.01563 2.289063-.902344 4.515625-3.074219 5.511719-1.78125.851562-3.519531.609375-5.398437.320312.01172-.75.02344-1.503906.03125-2.257812 1.269531.226562 2.824218.558594 4.03125 0 1.335937-.773438 1.6875-2.132812 1.664062-3.597656-.0039-7.96875 0-15.910156-.0039-23.882813zm0 0"/><path d="m47.289062 39.503906c-.382812.75-.765624 1.5-1.148437 2.246094-3.429687-1.285156-7.039063-2.027344-10.269531.210938-3.460938 2.527343-3.964844 6.859374-3.515625 10.828124.332031 2.921876 1.667969 5.6875 4.429687 6.996094 3.015625 1.402344 6.453125.699219 9.527344-.117187.0078.78125.01563 1.566406.01953 2.347656-4.117186.984375-9.132811 1.46875-12.781249-1.121094-3.605469-2.621093-4.488281-7.25-4.285156-11.457031.222656-3.925781 1.929687-7.742188 5.484375-9.710938 3.878906-2.042968 8.523438-1.671874 12.539062-.222656zm0 0"/><path d="m142.27734 38.285156c3.09375 7.980469 6.23438 15.953125 9.36719 23.921875-.95703.0039-1.90625.0078-2.85937.01953-.97266-2.59375-1.99219-5.171874-2.95313-7.777343-3.18359-.01172-6.37109-.01172-9.55469 0-.96484 2.59375-1.94531 5.179687-2.90625 7.773437-.9375 0-1.875 0-2.80859 0 3.02734-7.671875 6.04687-15.40625 9.08594-23.0625.25-1.292968 1.65234-.664062 2.6289-.874999zm0 0"/><path d="m154.92969 38.339844c2.67578.03125 5.37109-.105469 8.04297.06641 2.53906.300781 5.04296 1.039062 6.3125 3.460938 1.4414 2.992187.86328 7.3125-2.08594 9.226562-2.85938 1.90625-6.22266 1.722656-9.49219 1.683594v9.445312c-.92969 0-1.85547 0-2.77734 0 0-7.960937 0-15.921875 0-23.882812zm0 0"/><path d="m174.92969 38.332031h2.77734v23.890625c-.92969 0-1.85547 0-2.77734 0 0-7.960937 0-15.929687 0-23.890625zm0 0"/><path d="m157.70703 40.5625c2.68359.04297 6.35547-.472656 8.42578 1.644531 1.48828 1.605469 1.35156 5.476563-.35547 6.914063-2.08203 1.761718-5.53125 1.417968-8.07031 1.433594 0-3.332032 0-6.664063 0-9.992188zm0 0" fill="#fff"/><path d="m141.08984 41.394531c1.05078 3.671875 2.57813 7.222657 3.875 10.816407-2.57031.01562-5.13672.01562-7.71093 0 1.30078-3.648438 2.89453-7.066407 3.83593-10.816407zm0 0" fill="#fff"/><path d="m58.371094 43.871094c1.652344.06641 3.683594.558594 4.710937 1.960937 1.011719 1.40625 1.078125 3.058594 1.078125 4.722657-.01953 3.890624-.01172 7.777343-.01172 11.667968-.664063 0-1.335938 0-2.003907.0039-.160154-.867181-.328123-1.726556-.496091-2.585931-1.066407 1.125-1.933594 2.253906-3.464844 2.753906-1.949219.640625-4.390625.601563-6.171875-.5-2.921875-1.800781-2.917969-6.960937.136719-8.65625 2.652343-1.578125 6.417968-1.523437 9.429687-1.597656-.132813-1.796875.136719-3.90625-1.59375-5.03125-2.378906-1.210937-5.035156-.07422-7.316406.796875-.289063-.683594-.574219-1.367188-.863281-2.054688 2.128906-.878906 4.230468-1.597656 6.566406-1.480468zm0 0"/><path d="m75.066406 43.921875c2.261719-.15625 4.179688.08984 6.351563.695313-.273438.761718-.535157 1.527343-.785157 2.292968-2.378906-.75-4.734374-1.433594-6.984374.08594-2.070313 1.421875-2.375 4.609375-2.328126 6.902344.05859 2.3125.707032 5.101562 2.984376 6.210937 2.25.992187 4.65625.234375 6.875-.429687.0039.757812.0078 1.519531.01562 2.28125-2.566406.882812-5.179687 1.238281-7.785156.265624-2.625-.921874-4.226562-3.433593-4.648437-6.097656-.476563-3.0625-.265625-6.984375 1.738281-9.507812 1.171875-1.519532 2.792969-2.136719 4.566406-2.699219zm0 0"/><path d="m118.78906 46.75c1.53125 2.210938 1.5 4.554688 1.4961 7.132812-4.12891.02344-8.25782-.02344-12.38672.02734.36719 2.394532.63672 4.578125 2.89453 5.929688 2.51953 1.453125 6.15625.503906 8.73047-.429688 0 .785156 0 1.566406-.008 2.355469-3.29297 1.085937-6.94922 1.683594-10.16016 0-2.51563-1.367187-3.79297-3.960937-4.07813-6.730469-.25-3.078125.10157-6.246094 2.15625-8.691406 2.80488-3.386715 8.86738-3.343746 11.35566.406254zm0 0"/><g fill="#fff"><path d="m116.30078 47.59375c.87891 1.066406.94531 2.738281 1.17578 4.054688-3.17187.03125-6.34765.03516-9.52734-.0039.40625-1.484375.60156-3.050781 1.73047-4.183593 1.66406-1.832032 5.09765-1.917969 6.62109.132812zm0 0"/><path d="m61.488281 53.859375c-.08984 1.773437.128907 3.429687-1.03125 4.917969-1.414062 1.726562-4.273437 2.257812-6.285156 1.417968-2.136719-.894531-1.894531-4.441406.144531-5.328124 2.132813-.988282 4.863282-.910157 7.171875-1.007813zm0 0"/></g></g></svg>