<svg height="200" viewBox="0 0 200 200" width="200" xmlns="http://www.w3.org/2000/svg"><g transform="translate(0 54)"><path d="m0 0h200v100h-200z" fill="#fff"/><path d="m150.62891 30.554688h2.70312v25.554687c-.89844 0-1.80469 0-2.70312 0 0-8.515625 0-17.039063 0-25.554687zm0 0"/><path d="m19.929688 32.222656h2.777343v23.886719c-.929687 0-1.855469 0-2.777343 0 0-7.960937 0-15.925781 0-23.886719zm0 0"/><path d="m88.261719 32.214844c1.398437.0078 2.800781.01172 4.199219.03516 2.5 6.609375 5.050781 13.207031 7.562502 19.816406 2.61719-6.59375 5.10937-13.234375 7.67187-19.84375h4.19532v23.886719c-.95313 0-1.90235 0-2.85547 0 .0195-7.132813-.0977-14.253906.21484-21.375-2.73828 7.125-5.5 14.238281-8.21094 21.375-.75 0-1.503904 0-2.253904 0-2.691406-7.136719-5.429687-14.253906-8.128906-21.382813.308594 7.117188.09766 14.257813.160156 21.382813-.855468 0-1.707031 0-2.554687 0 0-7.964844 0-15.929687 0-23.894531zm0 0"/><path d="m159.19922 32.542969c1.02734-.558594 2.33594-.480469 2.67969.808593.34765 1.109376-.52344 2.507813-1.79688 2.191407-1.50391-.214844-1.73828-1.960938-.88281-3zm0 0"/><path d="m69.160156 34.527344c.539063-.04297 1.078125-.08984 1.617188-.128906v3.933593h5.183594v2.222657c-1.726563 0-3.457032 0-5.183594 0 .02344 3.523437-.03125 7.046874 0 10.566406.01172 1.167968.273437 2.3125 1.332031 2.960937 1.140625.667969 2.703125.246094 3.941406.105469-.0078.710938-.01172 1.421875-.01563 2.132812-1.894526.296876-3.597651.675782-5.429682-.140624-1.765625-.757813-2.484375-2.679688-2.515625-4.484376-.0625-3.707031.0039-7.410156-.01172-11.125-.957031-.01562-1.90625-.04297-2.863281-.08203.453125-1.59375 1.570312-1.734375 2.878906-2.386719.363281-1.191406.71875-2.386718 1.066406-3.574218zm0 0"/><path d="m41.132812 38.867188c1.683594 1.203124 2.09375 3.054687 2.179688 5.015624.07031 4.074219-.0078 8.15625.01953 12.226563-.898437 0-1.804687 0-2.703125 0-.0078-3.703125.01172-7.410156.01172-11.113281-.07422-1.578125-.01172-3.230469-1.414063-4.261719-1.609374-1.105469-4.054687-.941406-5.742187-.08594-1.761719.984374-2.234375 3.03125-2.328125 4.894531-.117188 3.523437-.0078 7.050781-.04687 10.566406-.898437 0-1.804687 0-2.703125 0 0-5.925781 0-11.847656 0-17.777344h2.222656c.132813.730469.261719 1.457031.386719 2.183594 2.519531-2.980469 6.789063-3.609375 10.117187-1.648437zm0 0"/><path d="m61.332031 40.316406c1.746094 2.261719 1.734375 4.726563 1.734375 7.457032-4.132812.02734-8.273437-.03516-12.40625.03906.40625 2.375.640625 4.554688 2.894532 5.910156 2.539062 1.464844 6.144531.492188 8.746093-.40625 0 .785156-.0078 1.566406-.0078 2.351563-3.214844 1.015625-6.546875 1.625-9.757813.1875-2.664062-1.238281-4.089844-3.820313-4.453125-6.648438-.296875-3.167969.01172-6.453125 2.128907-8.972656 2.71875-3.277344 8.511718-3.363281 11.121093.08203zm0 0"/><path d="m130.77734 40.316406c1.7461 2.261719 1.73438 4.726563 1.73438 7.457032-4.13281.02734-8.27344-.03516-12.40625.03906.40625 2.375.64062 4.554688 2.89453 5.910156 2.53906 1.464844 6.14453.492188 8.74609-.40625 0 .785156-.008 1.566406-.008 2.351563-3.21484 1.015625-6.55078 1.625-9.76172.1875-2.66015-1.238281-4.08593-3.820313-4.44922-6.648438-.30078-3.167969.0117-6.453125 2.12891-8.972656 2.71484-3.277344 8.51172-3.363281 11.12109.08203zm0 0"/><path d="m146.98828 37.726562c-.0898.8125-.18359 1.625-.28125 2.429688-1.33594-.09375-2.78906-.394531-4.02344.289062-1.94922 1.011719-3.08203 2.988282-3.1875 5.160157-.13672 3.496093-.008 7.003906-.0508 10.503906-.90234 0-1.80469 0-2.70703 0 0-5.925781 0-11.847656 0-17.777344h2.25c.0898 1.050781.17969 2.097657.25781 3.144531.9336-1.15625 1.73828-2.335937 3.08203-3.058593 1.4375-.808594 3.06641-.605469 4.66016-.691407zm0 0"/><path d="m174.48828 37.761719c1.64063.05859 3.68359.558593 4.69922 1.953125 1.01953 1.394531 1.07812 3.074218 1.08594 4.730468-.0195 3.886719-.0117 7.777344-.0117 11.664063-.66797 0-1.33985 0-2.00781 0-.16407-.847656-.32422-1.699219-.48829-2.546875-1.03906 1.042969-1.97265 2.222656-3.41406 2.703125-1.83594.625-4.0664.613281-5.82422-.25-3.30468-1.578125-3.47265-7.097656-.26562-8.882813 2.64453-1.589843 6.44531-1.511718 9.44922-1.628906-.16016-1.730468.0898-3.9375-1.60938-5.003906-2.375-1.214844-5.03906-.0625-7.32812.785156-.28907-.691406-.57422-1.375-.86328-2.0625 2.15234-.84375 4.23046-1.582031 6.57812-1.460937zm0 0"/><path d="m158.96094 38.332031h2.70703v17.777344c-.90235 0-1.8086 0-2.70703 0 0-5.925781 0-11.847656 0-17.777344zm0 0"/><g fill="#fff"><path d="m58.8125 41.167969c1.132812 1.152343 1.171875 2.859375 1.464844 4.359375-3.1875.04297-6.378906.04297-9.566406-.0039.417968-1.445313.640624-3.0625 1.746093-4.171876 1.566407-1.730468 4.726563-1.90625 6.355469-.183593zm0 0"/><path d="m128.25391 41.167969c1.13671 1.152343 1.17578 2.859375 1.46875 4.359375-3.1875.04297-6.37891.04297-9.56641-.0039.41406-1.445313.63672-3.0625 1.74219-4.171876 1.5664-1.730468 4.73047-1.90625 6.35547-.183593zm0 0"/><path d="m177.60937 47.734375c-.0977 1.742187.10547 3.464844-1.03906 4.921875-1.41015 1.742188-4.28515 2.265625-6.29687 1.421875-2.12891-.90625-1.87891-4.429687.15625-5.324219 2.13281-.992187 4.87109-.902344 7.17968-1.019531zm0 0"/></g></g></svg>