<svg height="200" viewBox="0 0 200 200" width="200" xmlns="http://www.w3.org/2000/svg"><g fill="#f0ad4e"><path d="m35.054688 13.136719c-12.34375 12.765625-18.566407 25.640625-18.566407 38.460937 0 2.921875.214844 5.421875.53125 5.582032.320313.160156.535157.851562.535157 1.492187 0 1.488281 1.273437 5.15625 2.976562 8.617187 2.234375 4.625 5.480469 7.871094 14.308594 14.253907 6.914062 5 10.746094 10.636719 12.023437 17.765625l.691407 3.828125 1.914062-.796875c4.839844-2.074219 8.5625-2.820313 19.679688-3.988282 7.128906-.746093 9.894531-1.808593 13.191406-5.054687 4.679687-4.679687 2.449218-7.710937-12.179688-16.382813-15.746094-9.359374-21.382812-13.722656-27.5-21.328124-4.894531-6.117188-7.394531-11.171876-8.617187-17.449219-1.171875-5.847657.425781-15.105469 3.988281-23.402344 1.011719-2.445313 1.863281-4.574219 1.863281-4.789063 0-1.117187-1.757812.054688-4.839843 3.191407zm0 0"/><path d="m176.863281 17.445312c-.265625.214844-.960937 1.277344-1.4375 2.34375-3.085937 6.59375-13.296875 12.816407-29.414062 17.816407-1.4375.480469-3.992188 1.222656-5.585938 1.757812-1.597656.476563-4.734375 1.488281-6.914062 2.125-27.074219 8.246094-31.808594 12.5-41.492188 36.96875-4.359375 10.957031-6.648437 14.628907-11.167969 17.605469-3.777343 2.554688-6.863281 3.40625-15.425781 4.46875-13.617187 1.648438-18.882812 3.246094-23.136719 7.023438-2.609374 2.234374-3.460937 4.574218-3.460937 9.253906 0 2.128906-.210937 3.988281-.425781 4.148437-.265625.160157-.742188 1.597657-1.113282 3.246094-.535156 2.234375-.535156 3.351563-.054687 4.785156.746094 2.183594 2.820313 3.992188 4.679687 3.992188 1.332032 0 1.382813-.375.375-2.769531-.214843-.582032.105469-1.328126 1.007813-2.285157 1.171875-1.171875 1.757813-1.328125 5.375-1.328125 4.148437 0 5.53125-.425781 7.5-2.234375 1.117187-1.011719 1.167969-1.011719 2.65625.636719 3.140625 3.457031 11.332031 8.351562 21.542969 12.925781 4.839844 2.179688 7.875 4.785157 10.160156 8.828125 1.542969 2.660156 1.757812 3.40625 1.757812 7.234375 0 6.222657-2.234374 10.480469-6.597656 12.5-.746094.375-1.808594.851563-2.289062 1.117188-.53125.265625-2.5.480469-4.414063.480469h-3.457031l-1.117188 2.5c-.636718 1.433593-1.433593 3.191406-1.859374 3.933593-.585938 1.171875-.585938 1.542969 0 2.394531.691406.90625.902343.796876 3.457031-1.808593 2.660156-2.710938 4.308593-3.507813 4.308593-2.019531 0 .425781-.957031 1.488281-2.074218 2.394531-2.609375 2.074219-2.980469 3.5625-1.757813 7.074219 1.011719 2.871093 2.339844 3.722656 2.660157 1.753906.105468-.585938.90625-1.753906 1.753906-2.605469.851562-.800781 1.542968-1.808594 1.542968-2.183594 0-.371093.375-.957031.800782-1.328125 1.167968-.957031 1.648437.746094.902344 3.40625-.476563 1.804688-.425782 2.339844.265624 3.082032.53125.585937.691407 1.382812.480469 2.289062-.214843.957031-.105469 1.328125.371094 1.328125.746094 0 2.5-1.648437 2.5-2.339844 0-.210937.480469-1.117187 1.117187-1.96875 1.117188-1.59375 1.171876-1.914062.160157-7.550781-.160157-1.066406-.105469-1.96875.105469-1.96875 1.117187 0 4.949218 2.445312 5.160156 3.296875.371094 1.382813 1.96875.585937 1.96875-1.011719 0-2.019531-1.4375-4.253906-3.191406-5.050781-1.757813-.746094-2.074219-1.914063-.640626-2.339844 3.351563-1.066406 6.492188-2.980469 9.308594-5.800781 3.40625-3.296875 3.992188-3.988281 6.171875-7.179688 3.03125-4.414062 5.851563-6.382812 9.09375-6.382812 4.46875 0 18.511719 6.277344 29.363281 13.136719 5.054688 3.191406 14.945313 10.109375 16.597657 11.597656.316406.320313 2.125 1.648437 4.039062 3.03125 1.917969 1.332031 5.214844 3.882813 7.34375 5.691406 2.125 1.753907 4.039063 3.246094 4.253907 3.246094 1.753906 0 2.339843-4.574219.796874-5.957031-.53125-.425782-2.394531-1.597656-4.148437-2.554688-3.882813-2.179687-11.382813-7.234375-14.628906-9.945312-7.339844-6.011719-16.699219-17.765625-22.925781-28.777344-.582032-.90625-1.488282-2.554688-2.074219-3.617188-4.464844-7.820312-12.976563-17.765624-15.265625-17.765624-.902344 0-.902344-.054688.53125-6.914063.425781-2.183594 1.066406-5.90625 1.386718-8.246094.957032-6.488281 2.339844-13.882812 3.347657-17.554687 2.875-10.796875 8.992187-18.296875 20.109375-24.574219 15.582031-8.882813 21.808594-14.359375 26.273437-23.242187 2.394531-4.734376 2.875-5.90625 4.308594-11.226563.746094-2.710937 1.652344-9.308594 1.277344-9.308594-.105469 0-.425781.214844-.742188.425781zm0 0"/><path d="m84.839844 143.246094c-.105469.371094-.265625 1.699218-.425782 3.082031-.316406 3.726563-2.816406 8.671875-5.691406 11.332031-3.457031 3.242188-5.585937 4.253906-7.394531 3.5625-.742187-.265625-2.871094-.691406-4.679687-.851562-2.660157-.316406-3.617188-.160156-4.894532.585937-1.382812.796875-1.648437 1.332031-1.648437 2.980469 0 2.339844-.050781 2.285156 1.914062 1.222656.851563-.425781 1.863281-.796875 2.234375-.796875 1.117188 0 .691406 1.0625-.691406 1.699219-1.542969.691406-1.964844 2.023438-2.074219 6.171875-.050781 3.136719.90625 4.363281 1.757813 2.128906.265625-.691406 1.273437-1.652343 2.234375-2.183593 1.007812-.53125 2.390625-1.914063 3.136719-3.03125 1.382812-2.339844 2.128906-2.710938 2.128906-1.117188 0 3.40625 1.753906 3.566406 3.242187.265625.90625-1.808594 1.382813-2.285156 2.023438-2.019531 1.753906.742187 3.828125.851562 4.574219.210937.742187-.636719.691406-.851562-.320313-1.914062-.636719-.691407-1.117187-1.328125-.957031-1.4375 1.171875-.847657 3.722656-1.433594 6.328125-1.433594 4.683593 0 5.320312-.800781 5.320312-6.808594 0-6.117187-1.59375-10.480469-4.203125-11.597656-1.328125-.53125-1.753906-.585937-1.914062-.050781zm0 0"/><path d="m127.660156 154.679688c0 .265624 1.96875 1.492187 4.414063 2.714843 11.753906 6.222657 18.988281 12.976563 21.703125 20.476563 1.222656 3.246094 1.277344 4.417968.210937 6.863281-1.328125 3.246094-1.542969 3.191406 7.074219 2.925781 7.765625-.265625 12.339844-1.117187 12.339844-2.339844 0-.585937-6.382813-6.597656-8.722656-8.140624-.636719-.425782-1.222657-.957032-1.382813-1.117188s-1.222656-1.007812-2.394531-1.914062c-1.167969-.851563-2.445313-1.808594-2.765625-2.074219-.371094-.320313-1.222657-.957031-1.859375-1.4375-.691406-.53125-2.179688-1.699219-3.351563-2.605469-1.171875-.902344-2.980469-2.128906-3.988281-2.660156-2.449219-1.328125-3.9375-2.285156-4.257812-2.660156-.371094-.421876-7.710938-4.414063-11.167969-6.0625-1.597657-.746094-3.351563-1.59375-3.832031-1.859376-1.167969-.640624-2.019532-.691406-2.019532-.109374zm0 0"/></g></svg>