<svg width="97" height="40" viewBox="0 0 97 40" fill="none" xmlns="http://www.w3.org/2000/svg"><g clip-path="url(#clip0_4874_3768)"><rect width="97" height="40" fill="transparent"></rect><path fill-rule="evenodd" clip-rule="evenodd" d="M18.6541 27.0547V39.7949H21.1413V24.5393L27.7546 35.9938C28.503 35.6278 29.2221 35.2111 29.9074 34.7483L22.6675 22.2084L30.641 25.1105C31.0007 24.3705 31.2862 23.5877 31.4879 22.7719L27.007 21.141H39.7949V18.6538H24.5381L35.9936 12.04C35.6276 11.2916 35.2109 10.5725 34.748 9.8872L22.2832 17.0838L25.1605 9.1786C24.4221 8.81536 23.6406 8.52618 22.8259 8.32075L21.1413 12.9492V0H18.6541V15.257L12.04 3.80101C11.2916 4.16702 10.5725 4.58369 9.88716 5.04654L17.0968 17.534L9.17163 14.6495C8.80943 15.3884 8.52133 16.1702 8.31702 16.9852L12.9015 18.6538H1.08717e-07L0 21.141H15.2559L3.80081 27.7546C4.16682 28.503 4.58348 29.2221 5.04633 29.9074L17.6089 22.6545L14.6995 30.6478C15.44 31.0066 16.2231 31.291 17.0392 31.4915L18.6541 27.0547Z" fill="url(#desktop-logo)"></path><rect x="46.0625" y="12.4359" width="11.3415" height="2.48718" fill="#000"></rect><rect x="85.3599" y="12.4359" width="11.3415" height="2.48718" fill="#000"></rect><rect x="67.0542" y="6.66563" width="2.68615" height="20.6933" fill="#000"></rect><rect x="61.085" y="12.4359" width="2.68615" height="14.9231" fill="#000"></rect><rect width="2.68615" height="2.68615" transform="matrix(1 0 0 -1 61.085 9.35179)" fill="#000"></rect><rect x="45.7642" y="24.8718" width="11.9385" height="2.48718" fill="#000"></rect><path d="M45.7642 24.8718L54.2216 14.9231L57.4042 14.9231L48.9467 24.8718L45.7642 24.8718Z" fill="#000"></path><path d="M85.0615 24.8718L93.519 14.9231L96.7015 14.9231L88.2441 24.8718L85.0615 24.8718Z" fill="#000"></path><rect x="73.0234" y="6.66563" width="2.68615" height="20.6933" fill="#000"></rect><rect x="85.0615" y="24.8718" width="11.9385" height="2.48718" fill="#000"></rect><rect x="78.9927" y="12.4359" width="2.68615" height="14.9231" fill="#000"></rect><rect width="2.68615" height="2.68615" transform="matrix(1 0 0 -1 78.9927 9.35179)" fill="#000"></rect></g><defs><linearGradient id="desktop-logo" x1="8.45641" y1="4.2282" x2="29.0503" y2="37.6061" gradientUnits="userSpaceOnUse"><stop stop-color="#9D41FF"></stop><stop offset="0.468794" stop-color="#2858FF"></stop><stop offset="0.770884" stop-color="#29B8FF"></stop><stop offset="1" stop-color="#00F0FF"></stop></linearGradient><clipPath id="clip0_4874_3768"><rect width="97" height="40" fill="white"></rect></clipPath></defs></svg>