<svg width="32" height="32" viewBox="0 0 32 32" fill="none" xmlns="http://www.w3.org/2000/svg">
<path fill-rule="evenodd" clip-rule="evenodd" d="M21.6267 6.60001L16 3.25334C15.1731 2.73466 14.5766 1.91864 14.3333 0.973343C14.3333 0.973343 14.5467 0.546677 14.84 0.706677C15.1333 0.866677 19.5067 3.45334 21.84 4.84001C22.68 5.33334 22.16 7.50668 22.16 7.50668C22.1611 7.3215 22.1122 7.13946 22.0183 6.97985C21.9244 6.82024 21.7891 6.68899 21.6267 6.60001Z" fill="#669DF6"/>
<path fill-rule="evenodd" clip-rule="evenodd" d="M23.32 14.92C23.3286 15.0059 23.3132 15.0925 23.2756 15.1702C23.2379 15.2479 23.1794 15.3136 23.1067 15.36L21.7733 16.2667V5.66667C21.7733 5.30667 22 4.92 21.6933 4.73334L22.92 5.64C23.0678 5.72995 23.1889 5.85767 23.271 6.01C23.353 6.16233 23.3929 6.33377 23.3867 6.50667L23.32 14.92Z" fill="#AECBFA"/>
<path fill-rule="evenodd" clip-rule="evenodd" d="M16 16.1333C15.9052 16.1336 15.8124 16.1058 15.7333 16.0533L11.12 13.3067V14.5067L16 17.4133L16.3867 16.6533C16.3867 16.6533 16.0933 16.1333 16 16.1333Z" fill="#669DF6"/>
<path fill-rule="evenodd" clip-rule="evenodd" d="M16.2667 18.5333C16.1877 18.5861 16.0949 18.6142 16 18.6142C15.9051 18.6142 15.8123 18.5861 15.7333 18.5333L11.12 15.7867V16.6667C11.1203 16.7594 11.1436 16.8505 11.1878 16.932C11.232 17.0134 11.2958 17.0826 11.3733 17.1333L15.7467 19.8C15.8232 19.8458 15.9108 19.87 16 19.87C16.0892 19.87 16.1768 19.8458 16.2533 19.8C16.3741 19.5825 16.4639 19.3491 16.52 19.1067L16.2667 18.5867V18.5333Z" fill="#669DF6"/>
<path fill-rule="evenodd" clip-rule="evenodd" d="M16 14.9734L20.88 12.0667V11.4934C20.8812 11.4022 20.8584 11.3124 20.814 11.2328C20.7695 11.1532 20.7049 11.0868 20.6267 11.04L16.2533 8.37336C16.1768 8.32754 16.0892 8.30334 16 8.30334C15.9108 8.30334 15.8232 8.32754 15.7467 8.37336L11.3733 11.04C11.2968 11.0887 11.2336 11.1556 11.1894 11.2347C11.1452 11.3138 11.1213 11.4027 11.12 11.4934V12.0667L16 14.9734Z" fill="#AECBFA"/>
<path fill-rule="evenodd" clip-rule="evenodd" d="M16 13.7733L11.3733 11.04C11.2968 11.0886 11.2336 11.1555 11.1894 11.2347C11.1452 11.3138 11.1213 11.4027 11.12 11.4933V12.0667L16 14.9733L16.3733 14.2267L16 13.7733Z" fill="#669DF6"/>
<path fill-rule="evenodd" clip-rule="evenodd" d="M16 16.1333V17.4667L20.88 14.56V13.36L16.2667 16.0533C16.1827 16.0942 16.0926 16.1212 16 16.1333Z" fill="#4285F4"/>
<path fill-rule="evenodd" clip-rule="evenodd" d="M16.2667 18.5333C16.1876 18.5858 16.0948 18.6136 16 18.6133C16 18.9867 16 19.8133 16 19.8133C16.0971 19.8118 16.1926 19.789 16.28 19.7467L20.6533 17.08C20.7336 17.0322 20.7995 16.9636 20.8441 16.8814C20.8886 16.7993 20.9103 16.7067 20.9067 16.6133V15.7333L16.2667 18.5333Z" fill="#4285F4"/>
<path fill-rule="evenodd" clip-rule="evenodd" d="M20.6267 11.04L16 13.7733V14.9733L20.88 12.0667V11.4933C20.8812 11.4022 20.8584 11.3124 20.814 11.2328C20.7695 11.1532 20.7049 11.0867 20.6267 11.04Z" fill="#4285F4"/>
<path fill-rule="evenodd" clip-rule="evenodd" d="M10.3733 21.3733L15.9067 24.6667C16.3432 24.9251 16.7206 25.2722 17.0146 25.6857C17.3085 26.0991 17.5125 26.5695 17.6133 27.0667C17.6219 27.1135 17.6163 27.1617 17.5974 27.2053C17.5785 27.2489 17.547 27.286 17.507 27.3117C17.467 27.3374 17.4203 27.3506 17.3727 27.3497C17.3252 27.3489 17.279 27.3339 17.24 27.3067L9.97333 23C9.26666 22.5733 9.88 20.4933 9.88 20.4933C9.87953 20.6701 9.92469 20.844 10.0111 20.9981C10.0975 21.1523 10.2223 21.2815 10.3733 21.3733Z" fill="#669DF6"/>
<path fill-rule="evenodd" clip-rule="evenodd" d="M8.67999 21.64V12.8934C8.68348 12.805 8.70836 12.7188 8.75248 12.6422C8.7966 12.5655 8.85866 12.5007 8.93333 12.4534L10.2667 11.6667V22.2134C10.2667 22.5734 10.2667 23.1334 10.5467 23.32L9.13333 22.44C8.99927 22.3527 8.88814 22.2344 8.80925 22.0952C8.73037 21.956 8.68604 21.7999 8.67999 21.64Z" fill="#AECBFA"/>
<path fill-rule="evenodd" clip-rule="evenodd" d="M13.5467 5.28C13.3962 5.19469 13.2263 5.14984 13.0533 5.14984C12.8804 5.14984 12.7104 5.19469 12.56 5.28L6.96 8.66667C6.54619 8.91149 6.08645 9.06861 5.60936 9.12824C5.13226 9.18788 4.648 9.14877 4.18666 9.01333C4.13953 8.98657 4.10033 8.94779 4.07307 8.90095C4.0458 8.8541 4.03143 8.80087 4.03143 8.74667C4.03143 8.69247 4.0458 8.63923 4.07307 8.59239C4.10033 8.54555 4.13953 8.50677 4.18666 8.48C4.42666 8.36 12.6133 3.49333 12.6133 3.49333C12.92 3.30667 13.6 5.34667 13.6 5.34667L13.5467 5.28Z" fill="#669DF6"/>
<path fill-rule="evenodd" clip-rule="evenodd" d="M13.5333 3.44L20.6267 7.64C20.7034 7.67954 20.7684 7.73853 20.8152 7.81106C20.862 7.88359 20.8889 7.96713 20.8933 8.05333V9.62667L12 4.34667C11.8496 4.26135 11.6796 4.21651 11.5067 4.21651C11.3337 4.21651 11.1638 4.26135 11.0133 4.34667L12.5867 3.42667C12.7337 3.33854 12.9019 3.29199 13.0733 3.29199C13.2448 3.29199 13.413 3.33854 13.56 3.42667L13.5333 3.44Z" fill="#AECBFA"/>
<path fill-rule="evenodd" clip-rule="evenodd" d="M18.4267 22.6533C18.5762 22.7413 18.7465 22.7876 18.92 22.7876C19.0935 22.7876 19.2638 22.7413 19.4133 22.6533L25.0133 19.3333C25.4316 19.087 25.8964 18.9302 26.3783 18.8728C26.8603 18.8154 27.349 18.8588 27.8133 19C27.8614 19.0226 27.902 19.0585 27.9305 19.1033C27.959 19.1482 27.9741 19.2002 27.9741 19.2533C27.9741 19.3065 27.959 19.3585 27.9305 19.4033C27.902 19.4482 27.8614 19.484 27.8133 19.5067L19.3733 24.5067C19.08 24.6933 18.3867 22.64 18.3867 22.64L18.4267 22.6533Z" fill="#669DF6"/>
<path fill-rule="evenodd" clip-rule="evenodd" d="M11.3467 20.3333C11.2233 20.2167 11.1433 20.0615 11.12 19.8933V18.3467L20 23.5867C20.146 23.6777 20.3146 23.7259 20.4867 23.7259C20.6587 23.7259 20.8273 23.6777 20.9733 23.5867L19.4 24.52C19.252 24.6122 19.0811 24.661 18.9067 24.661C18.7323 24.661 18.5614 24.6122 18.4133 24.52L11.3467 20.3333Z" fill="#AECBFA"/>
<path fill-rule="evenodd" clip-rule="evenodd" d="M8.34667 11.08C8.19669 11.1697 8.07245 11.2966 7.98601 11.4485C7.89957 11.6003 7.85387 11.7719 7.85334 11.9467V18.6133C7.85206 19.1134 7.74849 19.608 7.549 20.0666C7.34952 20.5252 7.05832 20.9381 6.69334 21.28C6.65916 21.3106 6.61693 21.3308 6.57165 21.3381C6.52637 21.3454 6.47993 21.3396 6.43785 21.3214C6.39576 21.3032 6.35978 21.2732 6.33417 21.2352C6.30856 21.1971 6.29439 21.1525 6.29333 21.1067V11.0267C6.29333 10.6533 8.34667 11.0267 8.34667 11.0267V11.08Z" fill="#669DF6"/>
<path fill-rule="evenodd" clip-rule="evenodd" d="M13.0267 6.69334C13.0986 6.64842 13.1818 6.6246 13.2667 6.6246C13.3515 6.6246 13.4347 6.64842 13.5067 6.69334L14.84 7.48001L6.73332 12.2267C6.5823 12.3185 6.45754 12.4477 6.37111 12.6019C6.28468 12.7561 6.23952 12.9299 6.23999 13.1067V11.2533C6.23869 11.0784 6.2852 10.9065 6.3745 10.7561C6.46379 10.6057 6.59248 10.4826 6.74665 10.4L13.0267 6.69334Z" fill="#AECBFA"/>
<path fill-rule="evenodd" clip-rule="evenodd" d="M24.2267 15.92V9.25333C24.2273 8.7568 24.3267 8.26535 24.519 7.80756C24.7113 7.34977 24.9926 6.93476 25.3467 6.58666C25.3467 6.58666 25.7867 6.43999 25.76 6.86666C25.7333 7.29333 25.76 16.6933 25.76 16.6933C25.3467 17.1867 23.6133 16.6933 23.6133 16.6933C23.7697 16.6224 23.9069 16.5153 24.0135 16.3808C24.1202 16.2463 24.1933 16.0884 24.2267 15.92Z" fill="#669DF6"/>
<path fill-rule="evenodd" clip-rule="evenodd" d="M25.3333 17.48L19.0133 21.28C18.9393 21.3261 18.8539 21.3505 18.7667 21.3505C18.6795 21.3505 18.594 21.3261 18.52 21.28L17.1867 20.52L25.3333 15.6267C25.4844 15.5349 25.6091 15.4056 25.6956 15.2514C25.782 15.0973 25.8271 14.9234 25.8267 14.7467V16.6667C25.8 16.9733 25.3333 17.48 25.3333 17.48Z" fill="#AECBFA"/>
</svg>
