<svg height="200" viewBox="0 0 200 200" width="200" xmlns="http://www.w3.org/2000/svg"><g fill="#022b37"><path d="m48.902344 78.410156h-6.796875l-13.203125 32.933594-13.097656-32.933594h-6.933594l17.699218 44h4.632813zm0 0"/><path d="m76.570312 103.410156v-6.335937h-20v-12.332031h20.332032v-6.332032h-26.664063v44h26.664063v-6.667968h-20.332032v-12.332032zm0 0"/><path d="m110.269531 92.175781c0-7-4.800781-14.101562-14.367187-14.101562h-16v44.335937h6.335937v-37.667968h9.699219c5.367188 0 8 3.699218 8 7.46875 0 3.832031-2.632812 7.53125-8 7.53125h-7.367188v3.199218l16 19.46875h8.234376l-13.902344-16.667968c7.535156-1.332032 11.367187-7.332032 11.367187-13.566407"/><path d="m129.070312 122.410156c0-.101562 0-.234375 0-.335937 0-2 .566407-3.898438 1.5-5.53125v-31.800781h13v-6.667969h-33v6.667969h13.667969v37.667968zm0 0"/></g><path d="m145.902344 122.074219c0-3.296875-2.699219-6-6-6-3.296875 0-6 2.703125-6 6 0 3.300781 2.703125 6 6 6 3.300781 0 6-2.699219 6-6" fill="#623c94"/><path d="m185.703125 78.410156h-7.734375l-9.164062 12.597656-9.199219-12.597656h-13.46875c4.035156 5.332032 11.199219 15.597656 15.933593 22.097656l-12.332031 16.96875c.664063 1.398438 1.03125 2.964844 1.03125 4.597657v.335937h8.800781l31.734376-44zm0 0" fill="#623c94"/><path d="m179.136719 105.574219-6.699219 9.300781 5.5 7.535156h13.398438c-3.199219-4.566406-8-11.101562-12.199219-16.835937zm0 0" fill="#623c94"/></svg>