<svg height="200" viewBox="0 0 200 200" width="200" xmlns="http://www.w3.org/2000/svg"><path d="m6.9375 146.144531v-86.429687h19.589844v3.59375c-10.695313.898437-11.117188 1.597656-11.117188 9.378906v60.679688c0 7.683593.210938 8.285156 11.117188 9.183593v3.589844h-19.589844zm0 0" fill="#006697"/><path d="m38.0625 146.144531v-86.429687h19.589844v3.59375c-10.695313.898437-11.117188 1.597656-11.117188 9.378906v60.679688c0 7.683593.210938 8.285156 11.117188 9.183593v3.589844h-19.589844zm0 0" fill="#006697"/><path d="m141.683594 146.144531v-3.59375c10.589844-.898437 11.121094-1.496093 11.121094-9.28125v-60.679687c0-7.785156-.53125-8.382813-11.121094-9.28125v-3.59375h19.59375v86.429687zm0 0" fill="#006697"/><path d="m172.992188 146.144531v-3.59375c10.589843-.898437 11.121093-1.496093 11.121093-9.28125v-60.679687c0-7.785156-.53125-8.382813-11.121093-9.28125v-3.59375h19.59375v86.429687zm0 0" fill="#006697"/><path d="m42.898438 112.925781c-1.332032 4.523438 3.195312 8.257813 7.121093 8.707031-1.46875 1.527344-3.675781 1.441407-5.414062 2.460938 2.890625 6.796875 11.480469 8.296875 17.789062 6.308594-5.386719 4.855468-9.964843 11.097656-11.144531 18.316406.300781.402344 1.34375.238281 1.933594.351562 6.515625.058594 12.660156-3.066406 17.589844-7.210937 1.992187 4.914063-3.632813 7.210937-7.511719 7.789063 4.339843 6.117187 12.441406 2.179687 15.339843-3.304688-.535156 3.960938-1.058593 7.941406-1.957031 11.839844 6.898438.027344 12.929688-4.601563 15.144531-11.113282v-.023437c1.015626 3.824219.429688 8.039063-1.261718 11.519531 2.398437 1.703125 7.648437.535156 9.441406-1.582031 1.945312-2.300781 3.457031-5.550781 4.484375-8.355469 1.957031 3.972656 4.226563 8.058594 4.539063 12.523438 7.425781-1.375 9.5625-10.09375 9.109374-16.371094 3.949219 5.90625 9.492188 11.496094 16.457032 13.378906 2.242187-7.402344-.878906-15.5625-5.324219-21.605468 2.449219.140624 5.617187-.042969 7.476563 1.960937 1.625 1.753906 1.65625 4.585937 1.992187 6.808594 7.246094-3.773438 3.078125-12.90625-2.152344-16.480469 3.957031 1.28125 8.03125 2.371094 11.90625 3.800781.6875-5.492187-1.910156-11.558593-6.460937-14.851562 3.074218.371093 6.605468 2.324219 8.777344 4.535156 2.847656-2.371094.421874-9.320313-.628907-10.851563-1.164062-1.691406-3.246093-3.839843-5.328125-5.496093 4.453125-.75 8.691406-2.160157 13.28125-1.144531-.164062-6.050782-3.550781-8.875-7.566406-11.078126-2.117188-.539062-3.960938-1.46875-6.152344-1.761718 6.515625-2.585938 14.101563-6.027344 17.410156-12.660156-6.835937-3.328126-15.085937-3.265626-22.183593-.402344.925781-7.476563 5.675781-6.488282 10.597656-6.070313-2.230469-6.6875-10.464844-6.125-15.058594-2.9375 2.113281-2.890625 3.605469-7.472656 6.15625-9.847656-6.484375-2.242187-14.300781-.351563-18.875 5.25.804688-4.203125 2.640625-8.8125 6.101563-11.582031-5.152344-5.445313-12.957032-.332032-16.777344 4.21875-.078125-4.496094-.96875-9.15625.476562-13.488282-7.933593-1.015624-12.515624 5.476563-14.195312 12.085938-1.480469-6.863281-4.996094-14.242188-10.550781-18.824219-4.320313 5.847657-5.164063 13.507813-3.691407 20.402344-5.519531-.777344-4.335937-6.75-3.222656-10.484375-7.507812.984375-7.796875 9.808594-4.695312 15.058594-3.074219-2.484375-6.226563-5.023438-9.28125-7.511719-1.40625 2.957031-2.351563 6.128906-2.148438 9.445313-1.191406-.761719-1.328125-2.617188-2.285156-3.476563-6.566406 3.550781-4.152344 12.164063-.882812 17.195313-4.363282-1.09375-8.992188-1.882813-12.796876-4.519532-3.269531 6.324219 1.769532 14.203125 7.425782 17.488282-7.683594-.859376-14.453125.5-21.273438 4.003906 2.175782 3.511718 7.101563 7.125 11.035156 8.878906-1.316406.597656-5.734374-1.285156-7.09375-.808594.183594.355469 6.699219 10.191406 14.964844 9.429688-2.277344 4.078125-8.203125 2.785156-10.636718.085937" fill="#ffc200"/><g stroke-width="3"><path d="m345.164589 107.165642c6.138672 24.390625 20.535156 56.998047 37.501953 76.083984" fill="none" stroke="#fff" stroke-linecap="round" transform="matrix(.285714 0 0 .285714 -15.430954 26.529683)"/><path d="m395.326698 180.583611c-2.40625-20.658204-3.390625-57.695313 2.009766-79.91211" fill="none" stroke="#fff" stroke-linecap="round" transform="matrix(.285714 0 0 .285714 -15.430954 26.529683)"/><path d="m246.330605 225.919548c18.74414 10.28125 51.365234 19.400391 71.667968 24.664063" fill="none" stroke="#fff" stroke-linecap="round" transform="matrix(.285714 0 0 .285714 -15.430954 26.529683)"/><path d="m316.672401 262.587517c-36.503906 18.15625-89.167968 12.824219-99.339843 10.5" fill="none" stroke="#fff" stroke-linecap="round" transform="matrix(.285714 0 0 .285714 -15.430954 26.529683)"/><path d="m231.838417 303.671501c24.527344.587891 62.302734-10.0625 86.160156-13.425781" fill="none" stroke="#fff" stroke-linecap="round" transform="matrix(.285714 0 0 .285714 -15.430954 26.529683)"/><path d="m218.754433 333.079704c31.294922 3.417969 76.972656-15.955078 106.24414-23.830078" fill="none" stroke="#fff" stroke-linecap="round" transform="matrix(.285714 0 0 .285714 -15.430954 26.529683)"/><path d="m299.418495 407.837517c17.417969-17.623047 37.214844-49.519531 45.910156-72.925781" fill="none" stroke="#fff" stroke-linecap="round" transform="matrix(.285714 0 0 .285714 -15.430954 26.529683)"/><path d="m326.584511 426.075798c4.607422-23.652344 20.070312-60.251953 37.748047-78.162109" fill="none" stroke="#fff" stroke-linecap="round" transform="matrix(.285714 0 0 .285714 -15.430954 26.529683)"/><path d="m374.750526 427.087517c6.357422-20.056641 14.875-49.205078 18.580079-69.835938" fill="none" stroke="#fff" stroke-linecap="round" transform="matrix(.285714 0 0 .285714 -15.430954 26.529683)"/><path d="m419.498573 431.243767c6.808594-21.574219 8.421875-53.771485 5.167969-76.330078" fill="none" stroke="#fff" stroke-linecap="round" transform="matrix(.285714 0 0 .285714 -15.430954 26.529683)"/><path d="m469.660683 419.909782c-3.212891-20.671875-17.253907-52.978515-25.990235-71.996093" fill="none" stroke="#fff" stroke-linecap="round" transform="matrix(.285714 0 0 .285714 -15.430954 26.529683)"/><path d="m510.006386 387.247673c-12.482422-16.447266-35.232422-36.490234-53.00586-47.003906" fill="none" stroke="#fff" stroke-linecap="round" transform="matrix(.285714 0 0 .285714 -15.430954 26.529683)"/><path d="m537.828651 361.243767c-19.359375-7.177735-48.589843-23.009766-62.49414-39.333985" fill="none" stroke="#fff" stroke-linecap="round" transform="matrix(.285714 0 0 .285714 -15.430954 26.529683)"/><path d="m556.326698 321.909782c-19.085937-12.304687-46.183593-23.33789-66.992187-32.333984" fill="none" stroke="#fff" stroke-linecap="round" transform="matrix(.285714 0 0 .285714 -15.430954 26.529683)"/><path d="m491.918495 252.83947c24.322266 3.130859 51.064453 13.220703 72.078125 25.949219" fill="none" stroke="#fff" stroke-linecap="round" transform="matrix(.285714 0 0 .285714 -15.430954 26.529683)"/><path d="m488.227089 235.599236c23.214844-4.949219 53.292969-9.173829 77.150391-6.808594" fill="none" stroke="#fff" stroke-linecap="round" transform="matrix(.285714 0 0 .285714 -15.430954 26.529683)"/><path d="m482.68998 224.525017c16.214843-18.962891 37.939453-33.714844 60.935546-42.861328" fill="none" stroke="#fff" stroke-linecap="round" transform="matrix(.285714 0 0 .285714 -15.430954 26.529683)"/><path d="m530.37748 149.411736c-14.341797 22.68164-40.25 46.908203-66.048829 56.505859" fill="none" stroke="#fff" stroke-linecap="round" transform="matrix(.285714 0 0 .285714 -15.430954 26.529683)"/><path d="m484.316933 131.474236c-15.107422 16.351562-30.488282 36.654296-44.105469 54.263671" fill="none" stroke="#fff" stroke-linecap="round" transform="matrix(.285714 0 0 .285714 -15.430954 26.529683)"/><path d="m316.057167 122.286736c18.470703 15.435546 41.630859 43.09375 47.947266 66.964843" fill="none" stroke="#fff" stroke-linecap="round" transform="matrix(.285714 0 0 .285714 -15.430954 26.529683)"/><path d="m278.063026 129.601189c8.982422 10.882812 24.226563 20.904297 34.835938 29.736328 12.455078 10.376953 19.660156 35.492187 24.773437 50.24414" fill="none" stroke="#fff" stroke-linecap="round" transform="matrix(.285714 0 0 .285714 -15.430954 26.529683)"/><path d="m265.006386 178.546501c12.496094 18.921875 38.828125 43.53125 58.324219 54.701172" fill="none" stroke="#fff" stroke-linecap="round" transform="matrix(.285714 0 0 .285714 -15.430954 26.529683)"/><path d="m446.938026 106.099236c-15.585937 19.427734-27.234375 51.378906-33.933593 75.154296" fill="none" stroke="#fff" stroke-linecap="round" transform="matrix(.285714 0 0 .285714 -15.430954 26.529683)"/><path d="m263.666542 367.24572c20.726563-8.066406 55.644531-26.373047 73.335938-40.332031" fill="none" stroke="#fff" stroke-linecap="round" transform="matrix(.285714 0 0 .285714 -15.430954 26.529683)"/><path d="m217.332558 273.087517c-5.167969 0-7.164063-2.173828-9.994141-2.666016" fill="none" stroke="#006697" stroke-miterlimit="10" transform="matrix(.285714 0 0 .285714 -15.430954 26.529683)"/><path d="m479.328125 390.929688c0 48.794921-39.552734 88.333984-88.333984 88.333984s-88.333985-39.539063-88.333985-88.333984c0-48.78125 39.552735-88.333985 88.333985-88.333985s88.333984 39.552735 88.333984 88.333985zm0 0" fill="#8e7650" stroke="#fff" transform="matrix(.285714 0 0 .285714 -11.857143 -8.428571)"/></g></svg>