<svg xmlns="http://www.w3.org/2000/svg" viewBox="0 0 833 771.6182"><defs><style>.a{fill:#302d2d;}.b{fill:#16597d;}</style></defs><path class="a" d="M156.6343,499.8091a66.2528,66.2528,0,0,0-16.1343-2h-42a1.9588,1.9588,0,0,0-2,2v140a1.9588,1.9588,0,0,0,2,2h42c35.0449,0,68-28,68-72C208.5,532.6746,185.0266,506.9369,156.6343,499.8091Zm-16.1343,122h-22a1.9588,1.9588,0,0,1-2-2v-100a1.9588,1.9588,0,0,1,2-2h22c25.79,0,48,24,48,52S163.5879,621.8091,140.5,621.8091Z"/><path class="a" d="M365.0721,621.5255a1.9936,1.9936,0,0,0-2.3262-1.321c-2.6165.5829-7.3328,1.6046-8.2459,1.6046-8,0-8-8-8-8v-114h0a1.9588,1.9588,0,0,0-2-2h-16a1.9588,1.9588,0,0,0-2,2h0v114s0,28,28,28c5.2788,0,11.3462-2.1176,14.26-3.2712a1.9931,1.9931,0,0,0,1.153-2.49Z"/><path class="a" d="M624.5,545.8091h-16a1.9588,1.9588,0,0,0-2,2v92a1.9588,1.9588,0,0,0,2,2h16a1.9588,1.9588,0,0,0,2-2v-92A1.9588,1.9588,0,0,0,624.5,545.8091Z"/><path class="a" d="M616.5,517.8205a9.9909,9.9909,0,1,0-10-10A10,10,0,0,0,616.5,517.8205Z"/><path class="a" d="M304.993,614.8076l-15.823-4.9987a1.977,1.977,0,0,0-2.184.6832,26.9046,26.9046,0,0,1-22.4876,11.317,27.6046,27.6046,0,0,1-25.8376-17.2109,2.0082,2.0082,0,0,1,1.8445-2.7891h69.6a2.0136,2.0136,0,0,0,1.9888-1.7678,61.8586,61.8586,0,0,0,.4064-6.2436c0-28-22-48-48-48s-48,20-48,48a47.6509,47.6509,0,0,0,47.9991,48.0114c26.0294,0,36.0228-14.0421,41.6471-24.1212A2.0025,2.0025,0,0,0,304.993,614.8076Zm-63.3962-30.9985a2.0087,2.0087,0,0,1-1.771-2.9449,27.7581,27.7581,0,0,1,49.3512.0022,2.0087,2.0087,0,0,1-1.7721,2.9427Z"/><path class="a" d="M433.7306,545.8245A47.7984,47.7984,0,0,0,404.5,554.8191v-7.01a2,2,0,0,0-2-2h-16a2,2,0,0,0-2,2v140a2,2,0,0,0,2,2h16a2,2,0,0,0,2-2v-55.01a47.7759,47.7759,0,0,0,28,9.01c27.1272,0,48-20.6232,48-48C480.5,567.8091,458.8655,546.4535,433.7306,545.8245ZM432.5,621.8205a28,28,0,1,1,28-28A28.0051,28.0051,0,0,1,432.5,621.8205Z"/><path class="a" d="M540.5,545.8091a47.7759,47.7759,0,0,0-28,9.01v-55.01a1.7471,1.7471,0,0,0-2-2h-16a1.7471,1.7471,0,0,0-2,2v140a1.7471,1.7471,0,0,0,2,2h16a1.7471,1.7471,0,0,0,2-2v-46a28,28,0,0,1,56,0v46a1.7471,1.7471,0,0,0,2,2h16a1.7471,1.7471,0,0,0,2-2v-46A48,48,0,0,0,540.5,545.8091Z"/><path class="a" d="M702.5024,593.8091l33.5476-44.73a2.0253,2.0253,0,0,0,.45-1.27,1.9994,1.9994,0,0,0-2-2h-19.002a1.9837,1.9837,0,0,0-1.53.72.8447.8447,0,0,0-.12.16l-23.3426,31.1234-23.3425-31.1234c-.04-.05-.08-.11-.12-.16a2.0037,2.0037,0,0,0-1.54-.72H646.6075a2.0706,2.0706,0,0,0-2.06,1.5516,2.0192,2.0192,0,0,0,.2924,1.5684l.12.15,33.5476,44.73-33.5476,44.73-.12.15a2.02,2.02,0,0,0-.2924,1.5685,2.0706,2.0706,0,0,0,2.06,1.5515h18.8949a2.0037,2.0037,0,0,0,1.54-.72c.04-.05.08-.11.12-.16l23.3425-31.1234,23.3426,31.1234a.8447.8447,0,0,0,.12.16,1.9837,1.9837,0,0,0,1.53.72H734.5a1.9994,1.9994,0,0,0,2-2,2.0255,2.0255,0,0,0-.45-1.27Z"/><path class="b" d="M495.953,294.06l.3544.3365-39.7846-52.5871,39.43-52.2507c16.57-22.5788,27.5839-30.6307,47.9272-38.4225a92.0775,92.0775,0,0,0-31.3574-5.3268c-31.0293,0-59.4087,14.8843-76.3023,38.2023l-11.6977,15.7977-39.6319-53.9277A160.6726,160.6726,0,0,0,256.5228,81.8091h-64a166.0952,166.0952,0,0,1,32.521,3.3342A159.1416,159.1416,0,0,1,321.42,146.444l71.103,95.3651L321.555,337.1655l-.1352.0087a159.1411,159.1411,0,0,1-96.376,61.3007,166.0952,166.0952,0,0,1-32.521,3.3342h64a160.6723,160.6723,0,0,0,128.3681-64.0723l39.6319-53.9277,11.6977,15.7977c16.8936,23.318,45.273,38.2023,76.3023,38.2023a92.08,92.08,0,0,0,31.3574-5.3268C523.5369,324.6905,512.5228,316.6386,495.953,294.06Z"/><path class="b" d="M224.5,332.3277a96,96,0,1,1,0-181.06,96.0288,96.0288,0,0,0,0,181.06Z"/><path class="b" d="M736.5,241.8091a159.967,159.967,0,0,1-160,160H512.528a160.46,160.46,0,0,0,32.0087-3.2056c72.5567-14.7707,127.384-79.8054,127.9633-156.7944-.5793-76.989-55.4747-142.0217-128.0314-156.7924A160.0606,160.0606,0,0,0,512.5,81.8091h64A159.967,159.967,0,0,1,736.5,241.8091Z"/><path class="b" d="M736.5,385.7a16,16,0,1,1-15.9534-15.9019A15.8143,15.8143,0,0,1,736.5,385.7Zm-28.0117,0c0,7.0792,5.1275,12.7021,12.1544,12.7021,6.8362,0,11.869-5.6229,11.869-12.6054,0-7.0792-5.0328-12.7989-11.9651-12.7989S708.4883,378.7171,708.4883,385.7Z"/><path class="b" d="M720.5613,388.1648h-2.5119V393.98h-3.3035V377.23h6.7a5.5608,5.5608,0,0,1,5.5761,5.5515,5.4561,5.4561,0,0,1-3.23,4.8816l3.7084,6.3172h-3.5661Zm-2.5119-2.8948h3.3967a2.4861,2.4861,0,0,0,0-4.954h-3.3967Z"/><path class="b" d="M672.4994,241.8834c.0012.0744.0012-.0037.0006-.0856,0,.0317-.0006.0113-.0006.0113"/><path class="b" d="M672.0549,241.8834c.0013.0744.0013-.0037.0007-.0856Z"/><polyline class="b" points="671.056 241.883 672.056 241.798 672.056 241.809"/><path class="b" d="M672.0556,241.8091l.0012-.097c-.0006-.052-.0012-.0591-.0012.0856"/><path class="b" d="M672.0556,241.7977l.0012-.0856C672.0562,241.66,672.0556,241.653,672.0556,241.7977Z"/><polyline class="b" points="672.056 241.712 673.056 241.798 672.056 241.883 672.056 241.798 672.056 241.809"/><polygon class="b" points="672.056 241.712 673.056 241.798 672.056 241.883 672.056 241.798 672.056 241.712"/><path class="b" d="M672.0556,241.8091s0-.0432.0006-.0114c.0006-.0819.0006-.16-.0006-.0857"/></svg>