<?xml version="1.0" encoding="UTF-8"?>
<svg id="Calque_1" xmlns="http://www.w3.org/2000/svg" version="1.1" viewBox="0 0 214 116.4">
  <!-- Generator: Adobe Illustrator 30.4.0, SVG Export Plug-In . SVG Version: 2.1.4 Build 226)  -->
  <defs>
    <style>
      .st0 {
        fill: #e50031;
      }

      .st1 {
        fill: #333;
      }

      .st2 {
        fill: #45ce52;
      }

      .st3 {
        fill: #2684ff;
      }
    </style>
  </defs>
  <path class="st1" d="M25.1,115.8l-1.9-12.8-7.3,10.5h-.9l-7.5-10.6-1.8,12.9H0l3.8-25h.7l11,14.9,10.8-14.9h.7l3.8,25h-5.7,0Z"/>
  <path class="st1" d="M52,108h-12.6c.6,2.5,2.5,3.8,5.8,3.8s4.5-.6,5.8-1.3v4.4c-1.7,1.1-4.1,1.4-6.5,1.4-6.3,0-10.4-3.9-10.4-9.6s4-9.6,9.3-9.6,8.7,3.5,8.7,8.9,0,1.5-.2,1.9h0ZM39.5,105h7.9c-.1-2.1-1.7-3.5-3.8-3.5s-3.6,1.4-4.1,3.5h0Z"/>
  <path class="st1" d="M62.6,102.3v6.8c0,1.4.8,2.3,2.3,2.3s1.3-.1,1.8-.3v4.8c-.6.3-1.7.5-2.8.5-4.2,0-6.7-2.6-6.7-7.1v-6.9h-2.6v-4.6h2.6v-5.1h5.5v5.1h4v4.6h-4Z"/>
  <path class="st1" d="M83.5,97.4v5.5c-.6-.3-1.3-.5-2.3-.5-2.6,0-4.7,1.6-4.7,4.6v8.7h-5.7v-18.1h5.1v3.5c.9-2.5,3.1-4,5.8-4s1.3.1,1.8.2h0Z"/>
  <path class="st1" d="M86.5,91.8c0-1.6,1.3-2.5,3.3-2.5s3.3.9,3.3,2.5-1.2,2.5-3.3,2.5-3.3-.9-3.3-2.5ZM87.1,97.7h5.5v18.1h-5.5v-18.1Z"/>
  <path class="st1" d="M97.3,106.7c0-5.3,4.2-9.5,10.4-9.5s3,.3,4,.8v4.8c-.7-.3-1.9-.7-3.5-.7-3.4,0-5.4,2.1-5.4,4.7s2,4.8,5.4,4.8,2.7-.4,3.4-.7v4.7c-.8.5-2.4.8-3.9.8-6.2,0-10.4-4.2-10.4-9.6h0Z"/>
  <path class="st1" d="M115.8,115v-4.4c1,.8,2.9,1.4,4.7,1.4s3.1-.9,3.1-1.7-.5-1.3-1.8-1.9l-1.9-.8c-2.6-1.1-4.1-2.4-4.1-4.8s3-5.6,7.9-5.6,3.4.4,4.2.8v4.4c-.9-.5-2.1-.9-3.7-.9s-2.8.6-2.8,1.5.4,1.1,1.6,1.5l1.8.8c2.9,1.1,4.2,2.6,4.2,5.1s-2.8,5.9-7.9,5.9-4.3-.6-5.3-1.4h0Z"/>
  <path class="st1" d="M155.8,91v24.7h-2.7v-11.9h-16v11.9h-2.7v-24.7h2.7v10.3h16v-10.3h2.7Z"/>
  <path class="st1" d="M162.8,107.6v-9.8h2.6v9.9c0,3.7,2,6.2,5.7,6.2s5.7-2.4,5.7-6.2v-9.9h2.6v9.8c0,5.4-3.1,8.7-8.3,8.7s-8.3-3.3-8.3-8.7h0Z"/>
  <path class="st1" d="M204.3,106.7c0,5.4-4.1,9.5-9.5,9.5s-9.4-4.1-9.4-9.7v-16.5h2.5v11.4c1.4-2.5,4-4.1,7.3-4.1,5.2,0,9.1,4,9.1,9.4h0ZM201.7,106.8c0-4.1-2.9-7.1-6.9-7.1s-7,3-7,7.2,2.9,7.1,7,7.1,6.9-3,6.9-7.2Z"/>
  <path class="st0" d="M42,60.4c.6,4.6,3.2,8.8,7.5,11.3h0c7.3,4.2,16.6,1.7,20.8-5.6l3.3-5.7h-31.6Z"/>
  <path class="st0" d="M77.4,53.9l17.9-31c4.2-7.3,1.7-16.6-5.6-20.8h0c-7.3-4.2-16.6-1.7-20.8,5.6l-24.9,43.2c-.6,1-1,2-1.3,3,0,0,34.8,0,34.8,0Z"/>
  <path class="st2" d="M85.1,60.4c.6,4.6,3.2,8.8,7.5,11.3h0c7.3,4.2,16.6,1.7,20.8-5.6l3.3-5.7h-31.6Z"/>
  <path class="st2" d="M120.4,53.9l17.9-31c4.2-7.3,1.7-16.6-5.6-20.8h0c-7.3-4.2-16.6-1.7-20.8,5.6l-24.9,43.2c-.6,1-1,2-1.3,3,0,0,34.8,0,34.8,0Z"/>
  <path class="st3" d="M145.9,40.6c-8,0-14.7,5.7-16.2,13.3h15.5l-5.6-5.5h7.4l8.8,8.8-8.8,8.8h-7.4l5.6-5.5h-15.5c1.5,7.6,8.2,13.3,16.2,13.3s16.6-7.4,16.6-16.6-7.4-16.6-16.6-16.6h0Z"/>
  <path class="st1" d="M214,93.5c0,2.3-1.8,4.1-4.2,4.1s-4.1-1.8-4.1-4.1,1.8-4.1,4.1-4.1,4.2,1.8,4.2,4.1ZM213.3,93.5c0-1.9-1.5-3.4-3.4-3.4s-3.4,1.4-3.4,3.4,1.5,3.4,3.4,3.4,3.4-1.4,3.4-3.4ZM210.8,93.9l1.1,1.7h-.7l-1-1.5c-.2,0-.4,0-.5,0-.3,0-.6,0-.8,0v1.6h-.6v-4.4h1.9c1.1,0,1.7.5,1.7,1.4s-.4,1.2-1,1.4h0ZM209.6,93.6c1.1,0,1.5-.3,1.5-1s-.4-.9-1.2-.9h-1.1v1.8c.2,0,.5,0,.8,0Z"/>
</svg>