<svg width="502" height="130" viewBox="0 0 502 130" fill="none" xmlns="http://www.w3.org/2000/svg">
<path d="M124.412 46.9339V25.6087C123.203 25.4225 121.807 25.2362 120.039 25.05C118.271 24.9569 116.689 24.8638 115.293 24.8638C109.152 24.8638 103.662 26.54 98.8239 29.7993C93.9854 33.1517 90.6357 37.8078 88.6817 43.8608H87.5651V25.5156H62.9073V127.858H88.3095V69.749C88.3095 65.2791 89.333 61.368 91.4731 57.9224C93.6132 54.4769 96.4977 51.7763 100.127 49.9138C103.755 47.9583 107.943 47.027 112.595 47.027C112.967 46.9339 124.412 46.9339 124.412 46.9339Z" fill="#111111"/>
<path d="M326.977 35.2004C322.511 30.9167 317.3 27.7505 311.438 25.7018C305.576 23.6531 299.342 22.6288 292.829 22.6288C282.686 22.6288 273.754 24.8637 266.217 29.4267C258.68 33.9898 252.818 40.229 248.631 48.3307C244.444 56.4324 242.397 65.8378 242.397 76.4539C242.397 87.3492 244.444 96.7547 248.631 104.763C252.818 112.772 258.773 118.918 266.496 123.295C274.219 127.671 283.431 129.813 294.131 129.813C302.413 129.813 309.763 128.603 316.184 126.088C322.604 123.667 327.908 120.129 332.002 115.659C336.096 111.189 338.981 105.881 340.469 99.8277L317.021 97.2203C315.905 100.107 314.23 102.621 312.09 104.577C309.95 106.533 307.344 108.023 304.367 109.047C301.389 110.071 298.132 110.537 294.41 110.537C288.921 110.537 284.175 109.419 280.081 107.091C275.987 104.856 272.823 101.504 270.59 97.2203C268.357 93.0298 267.24 88.0942 267.24 82.3206H341.493V74.7776C341.493 65.6516 340.19 57.8293 337.585 51.2175C334.98 44.9783 331.444 39.484 326.977 35.2004ZM267.333 66.1172C267.613 62.0198 268.636 58.2949 270.59 54.7562C272.73 50.845 275.801 47.6788 279.616 45.2577C283.524 42.8365 287.99 41.6259 293.108 41.6259C297.946 41.6259 302.134 42.6502 305.762 44.792C309.391 46.9339 312.183 49.8207 314.23 53.4525C316.277 57.0843 317.3 61.2748 317.393 66.0241H267.333V66.1172Z" fill="#2D736D"/>
<path d="M204.43 26.0743V83.7174C204.43 89.0254 203.313 93.4953 200.987 97.034C198.754 100.573 195.87 103.273 192.334 105.043C188.798 106.812 185.169 107.743 181.447 107.743C175.399 107.743 170.467 105.788 166.745 101.876C163.024 97.9652 161.163 92.6572 161.163 86.0455V26.0743H135.76V89.6773C135.76 98.0584 137.249 105.229 140.32 111.096C143.39 116.962 147.578 121.525 152.974 124.598C158.371 127.671 164.605 129.255 171.677 129.255C179.772 129.255 186.565 127.392 192.148 123.667C197.731 119.942 201.639 115.1 204.151 109.233H205.267V127.951H229.832V26.0743H204.43Z" fill="#111111"/>
<path d="M497.813 40.0432C495.207 35.387 491.765 31.6621 487.484 28.9616C483.204 26.261 478.552 24.3054 473.341 23.0948C468.223 21.8842 463.013 21.3255 457.802 21.3255C427.747 21.3255 417.977 40.3226 416.396 43.8612H415.279V25.6091C414.162 25.4229 412.674 25.2366 410.906 25.0504C409.138 24.9573 407.556 24.8641 406.16 24.8641C400.019 24.8641 394.529 26.5404 389.691 29.7997C384.852 33.059 381.503 37.8082 379.549 43.8612H378.432V25.516H353.774V127.858H379.176V69.7494C379.176 65.2795 380.2 61.3684 382.34 57.9228C384.48 54.4773 387.365 51.7767 390.993 49.9142C394.622 48.0518 398.81 47.0274 403.462 47.0274C403.741 47.0274 409.975 47.0274 413.232 47.0274C414.442 47.0274 415.186 47.0274 415.186 47.0274H440.123C441.053 46.0962 442.077 45.1649 443.287 44.3268C446.915 41.7194 451.847 40.3226 458.081 40.3226C463.943 40.3226 468.503 41.7194 471.666 44.6062C474.83 47.3999 476.412 51.4042 476.412 56.6191V56.9916C476.412 59.3196 475.481 61.089 473.713 62.2065C471.945 63.3239 469.061 64.162 465.153 64.6277C461.245 65.1864 456.127 65.7451 449.8 66.397C444.589 66.9557 439.472 67.7938 434.633 69.0044C429.702 70.215 425.328 71.9844 421.513 74.3124C417.605 76.6405 414.535 79.7136 412.301 83.6247C410.068 87.5359 408.952 92.3783 408.952 98.3382C408.952 105.229 410.534 111.003 413.697 115.752C416.861 120.408 421.141 124.04 426.631 126.368C432.121 128.789 438.262 130 445.054 130C450.637 130 455.569 129.255 459.756 127.672C463.943 126.182 467.386 124.133 470.177 121.619C472.969 119.105 475.109 116.404 476.691 113.424H477.528V127.858H502V57.4572C501.721 50.473 500.418 44.6993 497.813 40.0432ZM476.319 90.1434C476.319 94.0545 475.295 97.5932 473.248 100.853C471.201 104.112 468.316 106.812 464.595 108.768C460.873 110.724 456.406 111.748 451.289 111.748C445.985 111.748 441.612 110.63 438.262 108.302C434.819 105.974 433.144 102.529 433.144 97.9657C433.144 94.7995 433.982 92.1921 435.75 90.1434C437.518 88.0947 439.844 86.5116 442.821 85.3941C445.799 84.2766 449.242 83.4385 452.964 82.9729C454.638 82.7866 456.592 82.5073 458.919 82.1348C461.245 81.8554 463.478 81.4829 465.897 81.0173C468.223 80.6448 470.364 80.0861 472.225 79.6205C474.086 79.0617 475.481 78.503 476.226 77.8511V90.1434H476.319Z" fill="#2D736D"/>
<path d="M25.4999 25.5157V46.4684V25.5157H0.0047226V20.2077V25.5157H25.4999Z" fill="#111111"/>
<path d="M48.2961 106.532V127.392H32.2918C26.5229 127.392 21.2191 126.461 16.4736 124.505C11.356 122.457 7.35492 119.197 4.37737 114.82C1.39983 110.444 -0.0889408 104.949 0.00410744 98.4308V50.9381H25.4993V94.3334C25.4993 97.6858 26.0576 100.2 27.0811 101.969C28.1047 103.739 29.5004 104.949 31.2683 105.601C33.0362 106.253 34.8972 106.532 36.9443 106.532H48.2031C48.2961 106.532 48.2961 106.532 48.2961 106.532Z" fill="#111111"/>
<path d="M50.9949 25.516H25.4996V51.0317H50.9949V25.516Z" fill="#111111"/>
<path d="M25.5014 0H0.00621033V25.5157H25.5014V0Z" fill="#111111"/>
</svg>
