<svg height="200" viewBox="0 0 200 200" width="200" xmlns="http://www.w3.org/2000/svg" xmlns:xlink="http://www.w3.org/1999/xlink"><linearGradient id="a" gradientTransform="matrix(1.885618 1.885618 -1.885618 1.885618 431.65332 -911.41333)" gradientUnits="userSpaceOnUse" x1="180.25" x2="180.25" y1="431.130005" y2="281.130005"><stop offset="0" stop-color="#b0084d"/><stop offset="1" stop-color="#ff4f8b"/></linearGradient><path d="m0 0h200v200h-200z" fill="url(#a)"/><g fill="#fff"><path d="m97.332031 42.667969v25.199219h5.335938v-25.199219l12.425781 12.398437 3.757812-3.757812-16.957031-16.988282c-.5-.503906-1.183593-.789062-1.894531-.789062s-1.394531.285156-1.894531.789062l-16.957031 16.988282 3.757812 3.757812zm0 0"/><path d="m102.667969 157.332031v-25.519531h-5.335938v25.519531l-12.425781-12.425781-3.757812 3.785156 16.957031 16.960938c.5.503906 1.183593.789062 1.894531.789062s1.394531-.285156 1.894531-.789062l16.957031-16.960938-3.757812-3.785156zm0 0"/><path d="m50.054688 81.121094-3.761719 3.785156 12.375 12.242188h-25.335938v5.332031h25.574219l-12.613281 12.585937 3.761719 3.761719 16.984374-16.960937c1.035157-1.039063 1.035157-2.71875 0-3.761719zm0 0"/><path d="m166.667969 97.148438h-25.203125l12.242187-12.242188-3.785156-3.785156-16.960937 16.984375c-1.035157 1.042969-1.035157 2.722656 0 3.761719l16.960937 16.960937 3.785156-3.761719-12.613281-12.585937h25.574219zm0 0"/><path d="m122.667969 85.464844-21.335938-12c-.824219-.472656-1.839843-.472656-2.664062 0l-21.335938 12c-.835937.472656-1.355469 1.359375-1.359375 2.320312v24c.003906.964844.523438 1.851563 1.359375 2.320313l21.335938 11.972656c.386719.230469.828125.351563 1.277343.347656.453126.007813.894532-.113281 1.28125-.347656l21.332032-11.972656c.839844-.46875 1.359375-1.355469 1.363281-2.320313v-24c.019531-.9375-.457031-1.820312-1.253906-2.320312zm-22.667969-6.558594 16 9.015625-16 9.277344-16-9.277344zm-18.667969 13.652344 16 9.253906v17.335938l-16-8.988282zm21.335938 26.667968v-17.386718l16-9.28125v17.601562zm0 0"/></g></svg>