<svg height="200" viewBox="0 0 200 200" width="200" xmlns="http://www.w3.org/2000/svg"><path d="m25.96875 58.222656v83.582032l74.625 41.792968 71.640625-41.792968v-87.164063l-3.28125 1.492187-68.359375-39.699218zm0 0" fill="#202a5a"/><path d="m172.234375 58.222656-71.640625-41.789062-74.625 41.789062 74.625 41.792969zm0 0" fill="#2c448a"/><path d="m100.59375 183.597656 71.640625-41.792968v-87.164063l-23.878906 12.539063-.296875 5.371093-47.464844 27.464844zm0 0" fill="#283a79"/><path d="m100.59375 183.597656v-83.582031l-74.625-41.792969v83.582032zm0 0" fill="#202a5a"/><path d="m100.59375 162.699219v26.867187l-80.597656-47.761718v-26.863282zm0 0" fill="#3558a7"/><path d="m100.59375 120.910156v-14.925781l-80.597656-47.761719v14.925782zm0 0" fill="#3558a7"/><path d="m112.832031 98.523438-12.238281 7.460937v14.628906l39.703125 17.609375-39.703125 24.476563v26.867187l77.613281-47.761718v-14.925782zm0 0" fill="#416fb5"/><path d="m25.96875 114.941406v-3.582031l-5.972656 3.582031 80.597656 47.757813 39.703125-24.476563-4.777344-1.789062-34.925781 20.296875zm0 0" fill="#477fc1"/><path d="m148.355469 67.179688 23.878906-12.539063-71.640625-44.179687-80.597656 47.761718 80.597656 47.761719 12.238281-7.460937-57.609375-34.328126 45.371094-26.867187zm0 0" fill="#477fc1"/><path d="m60.296875 67.179688 40.296875-23.882813 47.464844 29.253906.296875-5.371093-47.761719-29.851563-45.371094 26.867187zm0 0" fill="#202a5a"/></svg>