<svg height="200" viewBox="0 0 200 200" width="200" xmlns="http://www.w3.org/2000/svg" xmlns:xlink="http://www.w3.org/1999/xlink"><linearGradient id="a" gradientUnits="userSpaceOnUse" x1="-.000003" x2="199.999965" y1="199.999965" y2="-.000003"><stop offset="0" stop-color="#1b660f"/><stop offset="1" stop-color="#6cae3e"/></linearGradient><path d="m0 0h200v200h-200z" fill="url(#a)"/><g fill="#fff"><path d="m147.5625 69.511719h-24.390625v-15.753907c0-7.050781-5.246094-11.074218-14.367187-11.074218h-32.78125c-6.195313-.070313-11.28125 4.878906-11.390626 11.074218v6c0 1.34375 1.09375 2.4375 2.441407 2.4375h14.632812v7.316407h-24.390625c-1.347656 0-2.4375 1.09375-2.4375 2.441406v85.363281c0 1.347656 1.089844 2.441406 2.4375 2.441406h90.246094c1.34375 0 2.4375-1.09375 2.4375-2.441406v-85.363281c0-1.347656-1.09375-2.441406-2.4375-2.441406zm-38.757812-21.949219c6.292968 0 9.488281 2.070312 9.488281 6.195312v20.632813h-31.707031v-20.4375c.34375-2.222656-.125-4.488281-1.316407-6.390625zm-39.292969 9.753906v-3.558594c.09375-3.507812 3.003906-6.277343 6.511719-6.195312 1.792968-.03125 3.507812.714844 4.707031 2.046875.882812 1.027344 1.242187 2.40625.976562 3.730469v3.976562zm75.609375 97.5625h-85.363282v-80.488281h21.949219v2.4375c0 1.347656 1.09375 2.441406 2.4375 2.441406h36.585938c1.347656 0 2.441406-1.09375 2.441406-2.441406v-2.4375h21.949219zm0 0"/><path d="m132.925781 108.535156h-60.972656c-1.347656 0-2.441406-1.089844-2.441406-2.4375v-19.511718c0-1.347657 1.09375-2.441407 2.441406-2.441407h60.972656c1.347657 0 2.441407 1.09375 2.441407 2.441407v19.511718c0 1.347656-1.09375 2.4375-2.441407 2.4375zm-58.535156-4.875h56.097656v-14.636718h-56.097656zm0 0"/><path d="m132.925781 147.5625h-14.632812c-1.347657 0-2.4375-1.09375-2.4375-2.441406v-29.265625c0-1.347657 1.089843-2.441407 2.4375-2.441407h14.632812c1.347657 0 2.441407 1.09375 2.441407 2.441407v29.265625c0 1.347656-1.09375 2.441406-2.441407 2.441406zm-12.195312-4.878906h9.757812v-24.390625h-9.757812zm0 0"/><path d="m69.511719 113.414062h12.195312v4.878907h-12.195312zm0 0"/><path d="m93.902344 113.414062h12.195312v4.878907h-12.195312zm0 0"/><path d="m69.511719 128.046875h12.195312v4.878906h-12.195312zm0 0"/><path d="m93.902344 128.046875h12.195312v4.878906h-12.195312zm0 0"/><path d="m69.511719 142.683594h12.195312v4.878906h-12.195312zm0 0"/><path d="m93.902344 142.683594h12.195312v4.878906h-12.195312zm0 0"/></g></svg>