<svg height="179" viewBox="0 0 200 179" width="200" xmlns="http://www.w3.org/2000/svg"><path d="m59.765625 159.140625c-7.617187-5.992187-15.746094-11.734375-21.300781-19.824219-11.683594-14.261718-20.683594-30.773437-26.832032-48.128906-3.71875-11.28125-4.992187-23.382812-9.785156-34.230469-5.015625-7.878906.859375-16.488281 9.492188-18.996093 3.84375-.734376 10.601562-4.359376 2.441406-1.769532-7.3125 5.363282-8.019531-4.871094-.519531-5.519531 5.117187-.679687 7-4.867187 5.25-8.636719-5.492188-3.582031 13.324219-7.519531 3.855469-12.863281-9.863282-10.636719 13.796874-12.683594 7.960937-.605469-1.398437 9.289063 16.53125-1.703125 12.371094 9.027344 4.226562 5.152344 15.832031 1.171875 15.546875 8.398438 6.15625.421874 8.273437 5.605468 14.054687 6.003906 5.992188 2.703125 16.855469 4.835937 18.894531 11.585937-5.945312 4.707031-19.710937-9.71875-20.375 3.304688 1.796876 19.242187 1.339844 39.0625 8.382813 57.386719 3.328125 11.09375 11.402344 19.828124 18.695313 28.46875 6.976562 8.460937 16.429687 14.417968 26.0625 19.433593 8.449218 3.984375 17.558593 6.628907 26.769531 8.285157 3.734375-2.855469 10.328125-13.472657 16.15625-8.996094.277343 5.03125-11.566407 10.515625-.558594 9.960937 6.464844-1.949219 10.949219 4.996094 16.269531-1.269531 4.90625 5.808594 20.382813-3.710938 16.894532 8.160156-4.71875 3.042969-11.597657 1.203125-16.324219 5.390625-7.792969-3.890625-13.996094 3.480469-22.621094 2.550781-9.582031 1.714844-19.328125 2.40625-29.039063 2.421876-15.933593-1.257813-32.207031-1.789063-47.363281-7.335938-8.539062-2.480469-16.875-7.339844-24.378906-12.203125zm13.457031 5.828125c8.339844 3.605469 16.492188 7.402344 25.628906 8.550781 14.5 2.015625 29.46875 5.113281 44.019532 2.285157-6.585938-2.96875-13.390625 1.160156-19.953125-2.125-7.867188 1.695312-16.3125-.429688-24.308594-1.476563-9.097656-4.050781-18.914063-6.835937-27.433594-12.09375-10.640625-3.882813 5.507813 4.984375 8.382813 5.703125 6.652344 3.777344-7.320313-1.933594-9.289063-3.503906-5.570312-3.125-6.28125-2.472656-.550781.703125 1.152344.675781 2.292969 1.382812 3.503906 1.957031zm-15.867187-11.210938c8.082031 2.992188-.035157-5.679687-3.738281-5.175781-1.640626-2.84375-6.265626-4.640625-3-6.167969-5.871094 2.035157-6.152344-7.75-8.910157-6.351562-6.210937-1.960938-2.417969-8.90625-9.816406-13.171875-.675781-4.492187-7.351563-8.390625-9.480469-15.171875-.941406-3.46875-7.542968-13.4375-3.488281-4.160156 3.453125 8.929687 9.527344 16.578125 14.585937 24.214844 3.925782 7.273437 8.558594 14.871093 15.707032 19.410156 2.410156 2.308594 4.738281 5.851562 8.140625 6.574218zm-23.273438-25.546874c.28125-1.21875 1.476563 2.640624 0 0zm32.953125 29.136718c1.789063-.800781-2.574218-1.011718 0 0zm4.382813 1.597656c-.453125-2.207031-2 1.234376 0 0zm5.492187 2.289063c2.613282-2.488281-4.027344-1.566406 0 0zm9.410156 5.242187c1.585938-2.34375-5.085937-.882812 0 0zm-18.070312-12.589843c4.058594-2.625-5.242188-.039063 0 0zm4.117188 2.050781c-.113282-1.386719-1.464844.621094 0 0zm20.585937 12.84375c3.308594 2.089844 19.324219 4.578125 9.296875.859375-1.679688.351563-18.59375-4.785156-9.296875-.859375zm-32.679687-25.441406c-.320313-1.390625-5.136719-1.535156 0 0zm9.585937 5.582031c2.492187-1.738281-5.179687-1.339844 0 0zm8.058594 4.941406c3.578125-1.347656-5.804688-1.355469 0 0zm-21.542969-14.769531c3.882812 2.976562 15.660156.382812 5.945312-1.777344-4.417968-2.355468-14.382812-3.96875-7.589843 1.421875zm27.003906 16.476562c1.617188-2.753906-6.785156-1.574218 0 0zm-8.207031-6.519531c9.496094 2.683594-7.984375-6.003906-2.34375-.988281l1.253906.566406zm16.453125 9.503907c8.992188.085937-8.125-1.238282 0 0zm-38.710938-24.660157c-.351562-1.675781-2.21875.140625 0 0zm53.921876 33.191407c.238281-3.023438-2.9375 2.25 0 0zm-38.574219-23.796876c-.542969-1.59375-2.808594-.066406 0 0zm-14.492188-10.445312c5.160157-.3125-7.070312-2.273438 0 0zm-17.171875-11.09375c-.640625-2.476562-5.617187-4.449219 0 0zm45.074219 28.59375c-.945313-1.078125-.445313.234375 0 0zm28.054687 17.210938c-.089843-1.648438-1.527343.621093 0 0zm-30.539062-19.773438c.507812-2.125-4.402344-.644531 0 0zm-20.898438-13.242188c3.839844-.410156-6.152343-2.59375 0 0zm35.355469 21.960938c5.984375-2.371094-5.835937-1.15625 0 0zm-18.390625-12.480469c6.898438.890625-8.207031-4.6875-1.515625-.496093zm23.972656 14.738281c6.4375-3.851562 4.316407 9.011719 10.925782 1.085938 6.519531-4.757812-5.632813 5.882812 2.402344.847656 5.8125-3.886718 14.394531 1.839844 19.816406 3.710938 3.898437-.191406 7.6875 3.371094 11.683594 1.203125 7.695312-2.074219-15.042969-3.074219-9.082032-6.75-7.042968 2.050781-12.242187-2.441407-15.707031-6.949219-7.898437-1.824219-17.027344-5.859375-20.96875-12.847656-1.609375-2.621094 2.320313.371094-1.386719-3.917969-4.761718-4.230469-7.136718-9.03125-10.332031-14.175781-3.816406-2.035156-4.261719-8.027344-4.644531-.203125.027344-4.9375-4.609375-8.261719-5.742188-6.878907-.019531-4.757812 4.964844-2.371093 1.476563-5.890624-.75-4.929688-3.222657-10.066407-3.96875-15.632813-1.152344-2.679687-.160157-8.425781-3.9375-2.355469-1.378907 6.417969-.457031-7.886718 1.683593-3.167968 2.808594-4.816407-1.011718-4.25-1.167968-3.578126 1.832031-4.0625 1.160156-9.824218-.476563-7.625.976563-4.308593 1.539063-15.84375-1.460937-13.800781 1.820312-4.5 3.449218-20.597656-4.445313-14.460937-3.199219.046875-8.738281 1.160156-11.359375 2.464844 8.210938 4.523437-.828125 1.632812-4.167968.914062-.4375 4.1875-3.75 2.375-7.886719 2.417969 6.609375.816406-3.214844 6.753906-7.007813 4.449219-4.921875 2.351562 4.25 8.222656.101563 10.039062.507812 2.734375-7.542969-.988281-6.910157 5.328125-4.777343-2.007813-.660156 7.5 1.734376 4.285156 8.125 2.199219 5.71875 7.210938 5.925781 11.972657-1.324219 2.777343-6.535157-6.523438-1.160157-6.089844-4.242187-6.890625-4.691406-2.492188-8.21875.707031-.820312.234375 8.992188 4.554687 2.835938 6.691406 5.417969.835938 5.570312 5.574219 6.675781 8.574219 3.253907 3.390625 2.589844-3.742188 6.484375.332031-2.464844-3.628906-13.058594-10.226562-4.53125-8.113281-.042968-3.652344-1.542968-6.597656 1.070313-6.527344 2.589843-4.683594-2.707031 11.550782 3.125 5.597656 1.613281-.703124 2.015625-4.691406 4.917969.375 4.214843 4.148438 1.519531 7.152344-4.425782 3.355469 1.0625 3.605469 7.953125 4.898438 6.660156 10.539063 1.371094 4.960937 3.292969 3.132812 4.96875 2.847656 1.3125 4.820312 2.058594 1.277344 2.121094-1.019531 6.011719 1.289062 4.605469 4.839843 6.484375 7.324219 4.144531 1.871093-5.929687-12.675782 1.183594-4.375 7.484375 6.757812 2.808594 9.578124-3.910156 8.496093 4.25-.34375 5.621093 5.742188 10.941406 5.53125 4.847656 2.304688 8.128906 11.160157-.226563 7.472657-2.898437-2.613282-13.160156-5.835938-4.78125-.863282 7.738282 3.582032 13.886719 5.722656 21.351563 10.222656 5.339844 3.808594 7.648437 8.175782 9.671875 9.039063-4.488281 2.144531-13.527344-1.710937-6.816406-2.890625-4.1875-.761719-8.894532-2.878906-4.886719 2.335938 3.410156 2.84375 12.082031 2.542968 13.636719 2.867187-1.316406 2.902344-3.578125 3.132813.054687 3.355469-4.054687 2.160156 1.300781 2.496094 1.675781 3.730468zm-8.289062-23.398437c-2.464844-2.578125-3.101562-7.40625-.4375-3.203125 1.367188.546875 4.378906 7.890625.4375 3.203125zm26.992188 17.140625c1.535156-.101562.042968 1.167969 0 0zm-30.886719-23.460938c-.09375-3.898437.894531 3.003907 0 0zm-2.679688-3.609374c-3.101562-5.988282 3.910157 1.699218 0 0zm-32.507812-22.429688c1.820312-.484375.894531 3.117188 0 0zm25.871093 14.019531c1.117188-4.199219 1.316407 3.523438 0 0zm-18.277343-12.703125c-1.289063-2.320312 2.695312 2.171875 0 0zm15.683593 5.023438c-2.9375-6.578125 2.082032-3.59375.652344 1.082031zm-27.050781-18.03125c-1.3125-2.160156-3.484375-8.496094-2.785156-10.429688.632813 3.148438 6.699219 13.554688 2.976563 4.308594-4.117188-7.746094 4.917968 2.515625 5.847656 4.449219.433594 1.921875-2.539063-.523438-.527344 3.984375-3.671875-5.132813-2.164062 2.835937-5.511719-2.3125zm-8.359375-5.761719c.34375-5.019531 1.914063 3.445313 0 0zm3.761719 1.296875c1.792969-3.789062 3.042969 5.28125 0 0zm-9.046875-6.996094c-3.113281-3.09375-5.363281-5.941406.144531-1.921875 2.125.085938-4.714843-6.480469.511719-2.082031 5.5 1 2.714844 9.011719-.65625 4.003906zm4.753906-.125c1.804688-1.789062.957032 1.761719 0 0zm2.921875.9375c-2.742187-5.136718 3.324219 2.152344 0 0zm-5.8125-5.554687c-9.046875-8.046875 11.371094 4.210937 1.476563 1.492187zm25.925781 15.058593c-3.917968-2.347656-1.039062-16.523437.296876-6.828124 3.808593-1.230469-.210938 5.007812 2.628906 4.949218-.445313 3.9375-1.71875 5.351563-2.925782 1.878906zm9.589844 5.667969c.382813-4.273437.808594 2.917969 0 0zm-1.667968-1.648437c.433593-1.824219.046874 2.152344 0 0zm-32.074219-21.722656c-5.8125-8.015626 16.894531 8.109374 3.726562 2.035156-1.378906-.359375-3.035156-.488282-3.726562-2.035156zm18.46875 9.789062c-.550781-6.753906 1.226562 1.117188 0 0zm14.019531 8.988281c1.082031-3.84375.078125 2.542969 0 0zm-31.597656-21.835937c3.457031-.738282 14.320312 6.066406 4.34375 1.941406-1.109375-1.226562-3.472656-.667969-4.34375-1.941406zm29.667968 14.78125c.371094-6.902344 2.0625-4.125.015626.988281zm-27.09375-17.183594c1.40625-2.066406-3.738281-9.332031.742188-2.609375 1.933594 1.539063 5.601562 2.578125 2.363281 3.222656 5.09375 4.492188-1.242187 1.21875-3.105469-.613281zm25.628907 15.027344c.972656-7.863282.855469 4.605468 0 0zm-28.570313-22.289063c1.074219-.460937.570313 1.429688 0 0zm6.6875 3.976563c1.71875-3.609375 3.171875 4.023437 0 0zm18.855469 10.484375c-.019531-1.382813.355469 2.019531 0 0zm-1.09375-2.414063c-2.617187-6.457031 2.4375 3.414063 0 0zm-1.605469-4.234375c-.441406-2.667969 1.492188 3.351563 0 0zm2.613282-4.25c-1.792969-3.164062 2.269531-13.941406 2.722656-7.257812-1.894532 5.207031-.546875 8.121093.777344 1.136719 2.441406-5.5-.527344 10.851562-3.5 6.121093zm2.691406-16.03125c.78125-.960937.171875 1.160157 0 0zm-4.492188 88.417969c-1.0625-.929688.136719.589844 0 0zm9.25 4.675781c5.140625 1.316407 5.117188-.800781.46875-1.429687-2.503906-2.328125-10.390625-4.792969-3.332031-.289063.46875 1.183594 1.945313 1.15625 2.863281 1.71875zm-18.261718-12.125c2.832031 2.109375 10.671874 5.984375 4.035156.800781 2.238281-2.597656-4.28125-3.980468-2.121094-5.71875-5.5-3.363281-4.339844-3.066406-.484375-2.960937-6.613281-2.953125.953125-2.730469.597656-4.246094-2.546875-.503906-12.664062-4.492187-6.710937.328125-6.050782-3.082031-1.441406 1.148438-3.269532.699219-6.1875-1.683594 5.507813 4.710937-.984374 3.121094 3.546874 2.8125 9.550781 7.203125 1.5 2.976562-1.058594 1.527344 5.761718 3.839844 7.4375 5zm9.667968 5.550781c11.761719 3.789063-5.761718-4.625 0 0zm49.507813 29.980469c.148437-2.332031-1.609375 1.992188 0 0zm5.085937 2.140625c2.714844-2.625.113282 4.1875 4.496094-.640625.046875-3.457031-.136719-5.5-5.039062-1.300781-1.351563.75-1.953126 3.9375.542968 1.941406zm-80.769531-50.707031c-.832031-3.273437-5.839844-3.257813 0 0zm5.433594 3.558594c-2.015625-3.34375-7.199219-3.027344 0 0zm30.910156 18.636719c3.019531 2.679687 13.859375 1.964843 3.664063.328124-1.507813-2.230468-9.585938-1.695312-3.664063-.328124zm42.492187 26.234374c4.644532-3.898437-4.5 1.738282 0 0zm9.660157 6.632813c.027343-1.25-2.003907.550781 0 0zm.011719-1.75c5.144531-5.445313-4.980469.324219 0 0zm-101.871094-64.496094c-4.382813-6.253906-2.722656-9.0625-6.953125-14.167969-.796875-3.90625-7.25-12.765624-3.335938-3.378906 3.585938 5.488282 4.652344 13.988282 10.289063 17.546875zm100.257812 62.765625c9.464844-6.113281-3.882812-2.664062 0 0zm7.226563 2.828125c4.738281-4.066406-3-.851562 0 0zm-95.730469-61.320312c1.355469-2.015625-3.503906-.257813 0 0zm94.21875 59.390625c4.589844-2.957032-1.054688-2.503906-.828125.269531zm-62.265625-39.234375c-.15625-1.996094-2.421875.167969 0 0zm3.847656 2.210937c-1.222656-2.46875-1.878906.390625 0 0zm65.78125 39.019532c5.878907-4.238282-3.5625-.8125-1.234375.804687zm-2.25-1.085938c4.789063-4.011719-5.054687 1.777344 0 0zm11.5 7.65625c3.214844-2.152344-3.90625-.695312 0 0zm-107.882812-69.410156c4.308593.964844 17.222656 10.609375 9.601562.664062-3.898437-1.152344-1.558593-10.6875-5.539062-9 2.671875 4.460938 2.195312 6.359375-3.410157 3.546875-7.050781-3.4375-3.960937 1.703125-2.585937 3.121094-1.875.429687 2.484375 1.628906 1.933594 1.667969zm-19.632813-15.503906c.769532-3.1875-7.105468-17.546876-3.71875-7.195313 1.21875 2.171875 1.097656 6.28125 3.71875 7.195313zm36.035156 22.210937c-2.21875-1.855469-.105468-.261719 0 0zm5.464844 1.273437c-.003906-3.378906-6.039062-1.375 0 0zm47.355469 29.839844c-.90625-2.308594-3.570313-.050781 0 0zm2.273437 1.664063c-.335937-1.292969-1.3125.246093 0 0zm18.769532 11.816406c1.804687-1.332031-2.253906-.167969 0 0zm-100.09375-64.300781c5.164062-2-5.53125-1.425782 0 0zm74.878906 47.160156c-.054688-3.34375-3.289062.828125 0 0zm-76.917969-51.914062c3.316407-1.117188-3.070312-.734376 0 0zm9.625 4.664062c-.058593-1.097656-1.015625.414062 0 0zm117.425781 71.980469c4.261719-.863281 13.980469 2.171875 15.554688-1.128907-5.179688-.125-17.921875-3.652343-18.523438.839844l1.132813.179688zm-114.363281-71.210938c.074219-3.386719-2.640625-.125 0 0zm-25.3125-17.550781c-1.148437-6.453125-4.371093-.976562 0 0zm6.035157 1.515625c.074218-2.070313-5.523438-1.863281 0 0zm3.449218 1.695313c-.996094-.808594-.78125 1.019531 0 0zm21.703125 13.917968c1.023438-.9375-2.417969-.695312 0 0zm-24-17.738281c-.582031-4.875-6.992187-.730469 0 0zm-12.375-8.027344c-.175781-2.25-1.207031.847657 0 0zm1.839844-1.390625c-.300781-2.667968-1.578125.339844 0 0zm10.171875 6.070313c4.300781-1.691407-7.832031-3.496094-.878906-.320313zm136.113281 84.046875c2.753907-2.523438-3.496093-.777344 0 0zm16.445313 8.523437c1.101562-3.261719-2.777344.425781 0 0zm-151.519532-97.898437c.453126-3.15625-3.410156.625 0 0zm-14.46875-9.695313c-.777343-4.453125-.671874-12.273437 6.761719-9.628906-9.921875 1.96875 6.871094 12.332031 4.75 4.148437 4.171875.207032 8.164063-2.464843 5.972657 1.585938 8.222656-.90625 13.921874-8.035156 21.863281-7.035156 6.1875-.816406 12.953125-1.4375 19.617187-3.929688 5.484375-.394531 10.761719-6.292968 7.753906-9.789062-7.472656-.632813-15.296874.300781-23.558593 1.945312-9.15625 1.902344-17.472657 5.515625-26.710938 7.066406-9.003906 1.210938 1.8125 3.332032-.765625 3.804688-4.699218 1.628906 5.601563 2.730469-.609375 4.445312-3.839843-.726562-7.832031-2.046874-6.191406-6.085937-8.625 1.117187-16.207031 4.695313-9.390625 13.46875zm20.78125-10.578125c2.023438-7.449218 10.835938 6.128906 3.316407.988282-.898438-.671876-2.375-1.21875-3.316407-.988282zm.394532-3.613281c2.917968-2.171875 1.550781 1.21875 0 0zm3.707031.058594c.261719-3.425781 8.480469 1.816406 1.355469 1.234375zm5.066406-2.035157c1.851563-2.164062.535157 1.921876 0 0zm1.296875-.871093c3.085938-3.699219 17.457032-2.359375 6.9375-.359375-2.820312-2.121094-4.984375 1.25-6.9375.359375zm18.761719-2.890625c-.46875-10.113282 9.320313 3.597656 0 0zm5.320313-.027344c1.949218-5.097656 7.554687-2.046875.902343-1.023438.144531.542969-.195312 2.628907-.902343 1.023438zm-42.957032 27.035156c5.8125-3.5625-6.175781-3.089844 0 0zm4.296875 1.191406c2.039063-2.164062-4.429687-.878906 0 0zm-12.667969-8.984374c3.324219-2.554688-3.929687-.972657 0 0zm171.691407 107.375c.097656-2.960938-2.539063 1.332031 0 0zm-17.445313-11.902344c.496094-3.40625-2.242187.296875 0 0zm22.246094 13.050781c4.644531.015625 14.074219-1.441406 3.964844-1.4375-1.585938.246094-9.242188.191406-3.964844 1.4375zm-160.042969-101.625c3.761719-.257813 5.882813-4.148437-.726562-3.921875-10.242188-1.0625 9.039062 3.503906-1.3125 2.199219-1.390625.921875 1.960937 1.976562 2.039062 1.722656zm3.3125 1.675781c-.394531-2.414062-1.164062 1.28125 0 0zm3.925781-10.472656c1.632813-2.019531-2.253906-.539062 0 0zm-12.5-20.890625c6.707032-2.28125 15.882813-4.847656 19.050782 1.125-3.222656-3.882813-1.300782-7.699219 1.746094-2.027344 4.304687 5.738281 6.460937-2.609375 3.660156-4.535156 3.191406 3.964844 6.820312 5.835937 2.136718.25 5.089844-6.121094-10.195312.800781-13.667968.730469-1.671875.75-17.257813 3.976562-12.925782 4.457031zm3.929688-7.527344c3.828125-2.886719 13.234375 1.714844 7.199219-2.871093-.589844-.519532-13.222657 3.480468-7.199219 2.871093zm13.953125.574219c4.476563.113281-1.933594-6.015625 3.402344-3.238281-.875-2.859375-6.210938-3.398438-8.820313-4.539063-1.476562 2.617188 3.003906 7.8125 5.417969 7.777344zm-11.503906-12.660156c1.546875-2.097656-2.71875 1.066406 0 0zm5.699219 1.367187c7.21875-.957031-1.839844-3.109375-1.453126-.078125zm-10.644532-8.328125c-5.082031-6.632812 9.554688 1.113282 4.394532-5.828125-4.347657-3.460937-8.523438 3.890625-4.394532 5.828125zm65.210938 35.113282c2.332031-4.128907-9.621094-5.566407-1.570313-1.464844.742188.25.574219 1.75 1.570313 1.464844zm0 0"/></svg>