<svg height="200" viewBox="0 0 200 200" width="200" xmlns="http://www.w3.org/2000/svg"><path d="m42.699219 53.179688c2.425781 1.375 4.105469 4.066406 6.144531 5.976562 8.695312 11.25 15.867188 23.011719 23.535156 34.824219-4.679687-.117188-7.105468.828125-10.785156 3.546875-8.136719-6.199219-15.789062-12.894532-23.027344-20.09375-4.441406-4.867188-8.960937-8.839844-11.46875-15.105469-.757812-3.519531 1.148438-5.71875 3.308594-8.160156 3.398438-2.253907 8.53125-2.039063 12.292969-.988281zm0 0" fill="#5987c6"/><path d="m184.085938 71.632812c4.359374.121094 7.984374-1.023437 12.027343.429688v1.359375c-23.253906 8.425781-46.308593 17.558594-69.226562 26.851563-3.359375.335937-6.226563 1.972656-9.480469 2.789062l-.039062.011719c-4.042969 2.214843-8.402344 3.613281-12.546876 5.601562-3.308593 3.304688-5.65625 7.027344-10.066406 9.238281-5.5625-3.28125-9.480468-.121093-14.386718 2.453126-2.320313 1.5625-4.667969 3.109374-6.960938 4.722656 1.558594 3.453125 3.90625 7.613281 3.4375 11.492187-3.210938 4.707031-6.917969 9.90625-11.332031 13.464844l.773437-3.398437c-1.757812.625-2.320312 1.132812-3.667968 2.652343-.105469-4.414062 3.921874-9.121093 5.46875-13.347656-.613282-3.386719-1.292969-6.773437-2.148438-10.089844l-1.890625-.507812c-3.414063 2.613281-2.160156 10.867187-3.453125 14.917969-.933594.5625-1.855469.773437-2.761719.65625-1.160156-1.867188-2.625-3.601563-3.601562-5.5625.574219-3.492188 1.882812-6.734376 2.042969-10.332032 1.171874 1.546875 2.066406 2.757813 1.730468 4.800782-1.570312 3.105468-2.25 6.320312 1 8.652343-.238281-5.132812 1.160156-9.640625 2.042969-14.558593-1.800781.398437-2.75 1.613281-4.5625.453124l1.320313-2.933593c-3.039063.878906-1.371094 2.773437-2.574219 5.078125-1.050781 2.054687-1.304688 5.386718-4.453125 4.71875-3.691406-.8125-10.519532-5.105469-12.386719-8.558594-.4375-4.972656-.945313-9.878906 2.441406-13.984375 4.933594-3.613281 9.679688-.175781 14.132813 2.292969 1.199218-4.347656 2.441406-8.429688 5.320312-11.988282l1.308594-1.480468c3.679688-2.71875 6.105469-3.664063 10.785156-3.546875 2.265625.054687 4.320313.894531 6.214844 2.09375 5.398438 3.425781 11.519531 6 17.679688 7.707031 5.277343-.800781 10.4375-3.078125 15.558593-4.585938 24.320313-8.679687 48.148438-18.332031 72.253907-27.5625zm0 0" fill="#002d62"/><path d="m22.792969 74.167969c14.359375 2.972656 27.492187 14.574219 37.492187 24.839843-2.878906 3.558594-4.121094 7.640626-5.320312 11.988282l.546875-3.28125c-2.707031-1.105469-5.464844-2.054688-8.214844-3.082032-12.890625-5.542968-26.972656-9.851562-39.210937-16.769531-3.988282-2-4.640626-9.1875-1.453126-12.109375 4.171876-3.1875 11.210938-1.851562 16.160157-1.585937zm0 0" fill="#5987c6"/><path d="m117.367188 103.074219.039062-.011719c8.050781 2.53125 17.210938.292969 25.304688 2.679688 3.613281-.027344 7.214843 1.960937 9.949218 4.1875 2.066406 3.464843 3.464844 7.023437 1.890625 11.023437-.917969 4.242187-5.199219 7.363281-9.050781 8.773437-5.46875-.773437-10.707031-3.144531-16.121094-4.226562-9.507812-2.679688-18.878906-7.039062-28.425781-9.023438 11.144531 4.691407 25.464844 9.972657 35.851563 16.050782 3.375 2.480468 3.601562 4.066406 2.640624 8.015625-2 2.105469-3.945312 4.117187-6.613281 5.386719-3.171875 1.625-6.347656 3.71875-9.839843 1.546874-14.828126-7.84375-28.535157-18.015624-42.625-27.109374 4.90625-2.574219 8.824218-5.734376 14.386718-2.453126 4.410156-2.210937 6.757813-5.933593 10.066406-9.238281 4.144532-1.988281 8.503907-3.386719 12.546876-5.601562zm0 0" fill="#5987c6"/><path d="m68.472656 126.089844c4.121094-1.308594 4.332032 3.773437 5.734375 6.34375 2.503907 5.132812-4.976562 8.679687-6.1875 13.054687-.679687-.480469-1.375-.933593-2.054687-1.398437 2-2.027344 2.921875-4.960938 4.332031-7.414063-.210937-3.601562-1.625-6.960937-1.824219-10.585937zm0 0" fill="#fff"/></svg>