<svg height="200" viewBox="0 0 200 200" width="200" xmlns="http://www.w3.org/2000/svg" xmlns:xlink="http://www.w3.org/1999/xlink"><linearGradient id="a" gradientTransform="matrix(0 -2.666667 2.666667 0 237.333333 368)" gradientUnits="userSpaceOnUse" x1="47.470001" x2="153.529999" y1="-104.529999" y2="1.53"><stop offset="0" stop-color="#4d27a8"/><stop offset="1" stop-color="#a166ff"/></linearGradient><path d="m0 0h200v200h-200z" fill="url(#a)"/><g fill="#fff"><path d="m97.171875 124.054688h-37.332031c-14.613282 0-25.785156-9.761719-26.53125-23.175782 0-.558594 0-1.199218 0-1.839844-.46875-11.460937 7.039062-21.722656 18.105468-24.746093 0-.71875 0-1.414063 0-2.132813.273438-14.679687 9.347657-27.753906 23.003907-33.148437s29.214843-2.046875 39.449219 8.480469c3.488281 3.457031 6.324218 7.511718 8.371093 11.972656 2.925781-2.347656 6.570313-3.628906 10.320313-3.625 7.734375 0 16 5.519531 17.363281 17.8125 6.570313 1.300781 12.5 4.8125 16.796875 9.949218l-4.183594 3.277344c-3.996094-4.566406-9.492187-7.554687-15.496094-8.425781-1.234374-.199219-2.167968-1.230469-2.238281-2.480469-.613281-10.210937-6.585937-14.800781-12.242187-14.800781-3.597656.035156-6.972656 1.753906-9.117188 4.640625-.585937.777344-1.546875 1.175781-2.507812 1.039062-.96875-.144531-1.777344-.8125-2.105469-1.730468-1.828125-5.183594-4.789063-9.894532-8.667969-13.789063-8.710937-8.960937-21.9375-11.828125-33.578125-7.285156-11.640625 4.546875-19.421875 15.621094-19.753906 28.113281.003906 1.273438.074219 2.546875.210937 3.8125.132813 1.316406-.71875 2.53125-2 2.855469-6.050781 1.492187-16.265624 6.132813-16.265624 20.210937-.027344.480469-.027344.960938 0 1.441407.585937 10.667969 9.519531 18.238281 21.332031 18.238281h37.335937zm0 0"/><path d="m134.507812 163.359375c-31.628906 0-32-35.546875-32-35.894531v-32.453125c-.003906-1.113281.6875-2.113281 1.730469-2.503907l29.335938-10.855468c.601562-.210938 1.261719-.210938 1.867187 0l29.332032 10.855468c1.046874.390626 1.738281 1.390626 1.734374 2.503907v34.453125c0 .347656-.375 33.894531-32 33.894531zm-26.667968-66.480469v30.585938c0 1.253906.375 30.5625 26.667968 30.5625 26.292969 0 26.664063-27.386719 26.664063-28.5625v-32.585938l-26.664063-9.890625zm0 0"/><path d="m134.507812 153.386719c-16.960937 0-21.121093-21.519531-21.335937-22.425781-.023437-.160157-.023437-.320313 0-.480469v-27.628907c0-1.089843.667969-2.074218 1.679687-2.476562l18.667969-7.363281c.632813-.25 1.339844-.25 1.972657 0l18.667968 7.363281c1.015625.402344 1.679688 1.386719 1.679688 2.476562v27.628907c.011718.160156.011718.320312 0 .480469-.214844.90625-4.375 22.425781-21.332032 22.425781zm-16-23.171875c.425782 2.023437 4.238282 17.839844 16 17.839844 11.757813 0 15.570313-15.789063 16-17.839844v-25.546875l-16-6.292969-16 6.292969zm0 0"/></g></svg>