<svg height="200" viewBox="0 0 200 200" width="200" xmlns="http://www.w3.org/2000/svg"><path d="m22.609375 79.710938c2.894531-.277344 5.839844-.066407 8.75-.125 3.675781.023437 7.789063-.261719 11.261719 1.101562 2.46875.921875 4.566406 2.65625 5.566406 5.136719 1.222656 3.109375 1.144531 6.933593-.910156 9.683593-.929688 1.328126-2.195313 2.097657-3.519532 2.964844 1.597657.777344 3.105469 1.527344 4.285157 2.90625 4.046875 4.308594 3.785156 12.152344-.839844 15.945313-3.121094 2.582031-7.195313 3.085937-11.109375 3.097656-4.515625-.027344-9.035156.046875-13.550781-.066406-.140625-12.207031-.003907-24.421875-.070313-36.628907 0-1.332031-.027344-2.695312.136719-4.015624zm0 0" fill="#333"/><path d="m29.941406 85.03125c2.367188.015625 4.785156-.136719 7.148438.140625 1.648437.238281 3.148437 1 3.875 2.566406 1.199218 2.710938.542968 6.753907-2.507813 7.914063-2.640625.851562-5.765625.402344-8.515625.496094 0-3.703126 0-7.414063 0-11.117188zm0 0" fill="#fff"/><g fill="#333"><path d="m63.277344 91.394531c1.398437.789063 1.515625 2.71875 1.570312 4.136719.046875 4.550781-.03125 9.097656 0 13.644531.058594 1.328125.039063 3.039063.785156 4.191407.871094 1.265624 2.75 1.152343 4.082032.886718 1.664062-.414062 3.570312-1.402344 4.515625-2.871094.214843-6.707031.011719-13.488281.082031-20.210937 2.527344-.378906 4.777344-.378906 7.316406-.035156.09375 7.195312-.039062 14.402343.050782 21.589843-.023438 1.894532.617187 3.273438 1.664062 4.792969-.675781 1.316407-1.46875 2.460938-2.421875 3.59375-1.128906-.375-2.371094-.699219-3.394531-1.316406-1.042969-.671875-1.800782-1.921875-2.527344-2.914063-2.566406 2.164063-5.261719 3.890626-8.714844 4.09375-2.746094.210938-5.449218-.667968-6.972656-3.078124-2.371094-3.5625-1.703125-8.210938-1.804688-12.277344-.148437-4.757813.582032-9.066406-1.050781-13.417969 2.160157-1.257813 4.441407-1.949219 6.820313-.808594zm0 0"/><path d="m90.253906 91.058594c1.53125-.195313 3.21875-.265625 4.710938.183594 1.449218.492187 1.804687 1.882812 2.46875 3.101562 2.070312-1.585938 4.058594-2.996094 6.691406-3.457031 2.574219-.453125 5.625-.058594 7.519531 1.90625 1.898438 2.070312 2.527344 4.761719 2.621094 7.503906.113281 4.734375-.050781 9.476563.054687 14.21875.015626 1.816406.539063 3.496094 1.070313 5.21875-2.183594 1.023437-4.253906 1.808594-6.644531.832031-1.640625-.792968-1.703125-2.695312-1.789063-4.289062-.058593-4.738282.042969-9.484375-.015625-14.222656-.046875-1.207032-.128906-2.722657-.839844-3.734376-.875-1.113281-2.460937-1.058593-3.730468-.859374-2.003906.335937-3.371094 1.507812-4.902344 2.742187.046875 6.820313.011719 13.636719.015625 20.453125-2.550781.402344-4.796875.402344-7.347656-.011719.09375-9.839843-.160157-19.761719.117187-29.585937zm0 0"/><path d="m122.53125 91.03125c1.550781-.144531 3.328125-.261719 4.8125.265625 1.3125.488281 1.703125 1.917969 2.367188 3.023437 2.300781-1.777343 4.566406-3.296874 7.554687-3.558593 2.941406-.265625 5.921875.546875 7.53125 3.195312 2.375 3.660157 1.625 8.683594 1.746094 12.847657.148437 4.539062-.578125 8.609374 1.109375 12.835937-2.085938 1.152344-4.179688 1.855469-6.535156.988281-1.53125-.628906-1.796876-2.316406-1.890626-3.78125-.125-5.125.074219-10.261718-.066406-15.386718-.113281-1.519532-.277344-3.441407-2.011718-3.953126-2.355469-.691406-6.03125.835938-7.324219 2.886719-.21875 6.730469-.019531 13.527344-.085938 20.269531-2.574219.394532-4.785156.394532-7.355469-.019531.011719-7.96875.011719-15.933593 0-23.898437.011719-1.894532-.09375-3.835938.148438-5.714844zm0 0"/><path d="m157.335938 90.847656c1.492187.679688 1.851562 2.246094 2.304687 3.667969 1.046875 3.894531 2.109375 7.78125 3.164063 11.671875.859374 3.125 1.261718 6.273438 2.347656 9.332031 2.261718-8.09375 4.078125-16.324219 6.167968-24.472656 2.503907-.289063 4.667969-.222656 7.136719.296875-1.949219 7.75-4.214843 15.425781-6.292969 23.148438-1.328124 4.679687-2.378906 9.757812-5.015624 13.898437-1.226563 1.964844-2.945313 3.542969-5.167969 4.289063-3.804688 1.273437-7.542969.777343-11.3125-.308594.25-1.839844.65625-3.511719 1.367187-5.230469 2.4375.449219 5.714844 1.433594 7.988282.054687 2.332031-1.390624 3.023437-3.941406 3.894531-6.332031-1.160157-.273437-2.550781-.394531-3.582031-1.027343-1.132813-.777344-1.511719-2.171876-1.914063-3.410157-2.367187-8.261719-4.753906-16.519531-7.148437-24.773437 1.839843-.644532 4.152343-1.609375 6.0625-.804688zm0 0"/></g><path d="m29.941406 101.785156c3.066406.089844 6.519532-.371094 9.460938.550782 4.964844 1.867187 5.171875 10.191406.207031 12.15625-3.003906.941406-6.542969.414062-9.667969.539062 0-4.414062-.007812-8.828125 0-13.246094zm0 0" fill="#fff"/></svg>