<svg height="200" viewBox="0 0 200 200" width="200" xmlns="http://www.w3.org/2000/svg"><g transform="translate(0 46.5)"><path d="m0 0h200v107h-200z" fill="#fff"/><path d="m58.847656 4.515625c.140625 3.113281.304688 6.03125-.675781 9.039063-1.464844 4.601562-4.472656 8.796874-7.804687 12.226562-2.714844 2.828125-6.3125 5.019531-8.574219 8.117188-1.621094 2.195312-2.445313 4.84375-1.945313 7.570312.953125 5.476562 4.773438 8.789062 6.632813 14.265625-2.886719-1.875-4.886719-4.375-7.148438-6.910156-1.632812-1.898438-3.386719-3.957031-4.445312-6.246094-.839844-1.804687-.960938-3.882813-.09375-5.710937 1.488281-3.25 4.199219-6.125 6.585937-8.746094 4.667969-4.890625 9.273438-9.929688 13.234375-15.480469 1.859375-2.535156 2.707031-5.410156 4.234375-8.125zm0 0" fill="#f85728"/><path d="m105.56641 12.828125c1.48828-.167969 3.02734-.128906 4.51953-.140625.19922 6.914062.0195 13.835938.10156 20.75-.0469 3.726562-.0859 7.84375-2.85547 10.699219-1.38672 1.503906-3.125 1.792969-5.05078 2.046875-.16797-.890625-.33984-1.777344-.51562-2.667969 1.32812-1.175781 3.1875-2.234375 3.45312-4.152344.55469-3.464843.20703-7.101562.28125-10.605469.0742-5.304687-.14062-10.632812.0664-15.929687zm0 0" fill="#2e6bb8"/><path d="m127.61328 21.078125c2.17188 1.089844 3.13281 3.277344 3.1875 5.632813.125 4.238281.0781 8.5-.0664 12.738281-.90234.01563-1.80078.02734-2.69921.03906-.50782-.621093-1.01563-1.242187-1.51563-1.863281-2.95312 1.636719-6.14453 3.136719-9.46094 1.4375-3.25781-1.960938-3.0039-7.183594-.16015-9.398438 2.72265-2.21875 6.50781-2.125 9.8164-2.5-.45312-1.089843-.64062-2.792968-1.86718-3.25-2.42188-1.191406-5.64063.02734-8.10157.664063-.21093-1.058594-.43359-2.109375-.66015-3.15625 3.77344-1.5 7.72265-2.054687 11.52734-.34375zm0 0" fill="#2e6bb8"/><path d="m168.28125 21.078125c2.17187 1.089844 3.13281 3.277344 3.18359 5.632813.12891 4.238281.082 8.5-.0664 12.738281-.89844.01563-1.79688.02734-2.69922.03906-.51172-.621093-1.01172-1.242187-1.51953-1.871093-2.97266 1.613281-6.125 3.15625-9.45313 1.445312-3.26172-1.960938-3.00781-7.183594-.16015-9.398438 2.71875-2.21875 6.50781-2.125 9.8125-2.5-.45313-1.089843-.64063-2.792968-1.86719-3.25-2.41797-1.191406-5.63672.02734-8.09766.664063-.21484-1.058594-.43359-2.109375-.66015-3.15625 3.77343-1.5 7.71875-2.054687 11.52734-.34375zm0 0" fill="#2e6bb8"/><path d="m133.86719 20.730469c1.51953 0 3.03125.05469 4.54687.101562 1.82422 4.902344 3.44531 9.898438 5.5 14.707031 2.07813-4.816406 3.79297-9.792968 5.69922-14.679687 1.45313-.06641 2.90625-.128906 4.35156-.160156-2.39843 6.269531-5.05078 12.445312-7.5 18.703125-1.83984.0625-3.65234.04687-5.49218-.07422-2.22657-6.25-4.98438-12.3125-7.10547-18.597655zm0 0" fill="#2e6bb8"/><path d="m65.566406 23.980469c-2.753906 3.351562-6.652344 4.882812-9.613281 8.074219-1.753906 1.824218-2.960937 4.085937-2.632813 6.691406.472657 4.28125 3.691407 7.332031 3.898438 11.449218.140625 2.460938-.257812 5.304688-2.367188 6.890626-.886718.6875-2.089843.535156-3.160156.632812.15625-2.210938.546875-4.171875-.277344-6.3125-1.40625-3.75-3.859374-6.386719-4.015624-10.640625-.386719-4.527344 1.894531-8.5 5.347656-11.246094 3.6875-2.855469 8.1875-4.902343 12.820312-5.539062zm0 0" fill="#f85728"/><path d="m126.51172 30.101562c-.22656 1.683594.41016 4.191407-1.32031 5.183594-1.33203.949219-3.45703 1.644532-4.97657.746094-1.375-1.296875-1.00781-4.160156.69141-5.042969 1.61328-.96875 3.78516-.847656 5.60547-.886719zm0 0" fill="#fff"/><path d="m167.17969 30.101562c-.22657 1.691407.40625 4.191407-1.32032 5.183594-1.33203.949219-3.46093 1.644532-4.98046.746094-1.3711-1.296875-1.00391-4.160156.69531-5.042969 1.61328-.96875 3.78515-.847656 5.60547-.886719zm0 0" fill="#fff"/><g fill="#2e6bb8"><path d="m30.011719 55.832031c1.023437-.117187 1.554687.15625 1.601562.816407-1.261719 1.539062-2.714843 2.835937-3.738281 4.570312 5.890625.976562 12.210938.02344 18.292969-.03516 5.773437-.05469 11.859375-.660156 17.546875.449218-2.335938 1.53125-4.792969 1.605469-7.46875 2.011719-6.71875.781254-13.484375 1.183598-20.246094 1.410161-5.339844.214843-11.171875-.492188-16.027344-2.855469-.851562-.386719-.578125-1.457031.167969-1.851563 2.746094-2.097656 6.480469-3.890625 9.871094-4.515625zm0 0"/><path d="m71.878906 56.148438c1.972656-.113282 3.875-.429688 5.742188.414062 2.546875 1.058594 4.386718 3.558594 4.660156 6.300781-.195312 2.351563-2.632812 4.5-4.234375 6.070313-2.492187 2.207031-4.738281 4.460937-8.171875 4.96875 1.078125-3.023438 3.371094-4.800782 5.152344-7.339844 1.351562-1.953125 2.699218-4.757812 1.710937-7.128906-.890625-1.625-3.339843-2.34375-4.859375-3.285156zm0 0"/><path d="m105.56641 60.976562c1.48828-.167968 3.02734-.128906 4.51953-.140624.19922 6.914062.0195 13.835937.10156 20.75-.0469 3.726562-.0859 7.847656-2.85547 10.703124-1.38672 1.503907-3.125 1.789063-5.05078 2.042969-.16797-.886719-.33984-1.777343-.51562-2.667969 1.32812-1.175781 3.1875-2.230468 3.45312-4.152343.55469-3.464844.20703-7.101563.28125-10.605469.0742-5.304688-.14062-10.632812.0664-15.929688zm0 0"/><path d="m116.89844 61.011719c2.5664-.296875 5.19531-.167969 7.77344-.183594 3.52734.02734 7.22265.410156 10.18749 2.507813 2.35938 1.6875 3.67969 4.246093 4.26172 7.050781.76563 3.664062.67969 7.925781-.96093 11.347656-1.7461 3.492187-5.23829 5.148437-8.92188 5.804687-4.07031.628907-8.30469.5-12.39844.09375.0391-8.867187-.11328-17.769531.0586-26.621093zm0 0"/><path d="m145.56641 61.011719c3.42578-.269531 7.14843-.46875 10.5.394531 2.64843.753906 4.46093 2.679688 4.64843 5.496094.27735 2.386718-.98047 3.957031-2.25 5.777344 1.45703 1.023437 3.22266 2.09375 4.02344 3.738281 1.67969 3.9375.0977 8.671875-3.88672 10.433593-3.89453 1.699219-8.94922 1.082032-13.09375.808594.0391-8.875-.11328-17.78125.0586-26.648437zm0 0"/><path d="m185.20703 61.566406c.78125.304688 2.21875.460938 2.5 1.355469-.19922 1.246094-.56641 2.480469-.90625 3.699219-3.53516-1.511719-7.05469-2.5625-10.82812-1.105469-2.75782 1.160156-4.05079 3.941406-4.32422 6.789063-.25391 3.003906-.0937 6.628906 1.88672 9.074218 1.57031 1.980469 4.03906 2.648438 6.47265 2.589844 2.64453-.09375 4.9375-1.175781 7.30469-2.226562.33594 1.277343.67969 2.558593 1.00781 3.84375-3.80859 1.992187-7.97265 2.941406-12.24609 2.019531-3.97266-.820313-7.22266-3.683594-8.53516-7.535157-1.77734-5.269531-.98437-12.417968 3.48047-16.183593 3.98828-3.398438 9.32031-3.613281 14.1875-2.320313zm0 0"/></g><path d="m150.3125 64.441406c1.72656-.308594 3.93359-.628906 5.10156 1.027344.86719 1.453125.39844 4.160156-.90625 5.25-1.0625 1.039062-2.93359.769531-4.32031.890625-.0195-2.367187-.17578-4.816406.125-7.167969zm0 0" fill="#fff"/><path d="m121.56641 65.003906c3.10156-.328125 6.95312-.394531 9.72656 1.234375 2.78125 1.699219 3.29297 4.992188 3.38672 7.984375.0195 3.066406-.5 6.945313-3.23828 8.808594-2.83985 1.925781-6.64063 1.597656-9.90235 1.625-.0273-6.546875-.14062-13.113281.0273-19.652344zm0 0" fill="#fff"/><path d="m26.828125 68.394531c2.59375.113281 4.796875 1.023438 7.359375 1.394531 8.121094 1.132813 15.847656.34375 23.851562.535157 1.726563.0078 2.960938.355469 4.480469 1.160156-3.417969 2.367187-7.851562 2.640625-11.886719 3.140625-5.707031.496094-11.894531 1.042969-17.527343-.226562-2.777344-.847657-6.324219-2.609376-6.277344-6.003907zm0 0" fill="#2e6bb8"/><path d="m150.23828 75.007812c1.96875-.234374 4.46875-.328124 6.22266.722657 2.41406 1.511719 2.44531 5.664062.52734 7.5625-1.84766 1.597656-4.49609 1.3125-6.76172 1.417969-.0391-3.230469-.21875-6.488282.0117-9.703126zm0 0" fill="#fff"/><path d="m32.679688 79.773438c6.035156-.613282 12.285156-.113282 18.332031.234374 3.679687.421876 7.140625.308594 10.386719 2.1875-1.445313 1.4375-2.785157 2.316407-4.804688 2.695313-6.402344 1.378906-13.1875 1.363281-19.613281.234375-2.972657-.6875-6.152344-1.285156-7.671875-4.265625 1.078125-.550781 2.144531-1.003906 3.371094-1.085937zm0 0" fill="#2e6bb8"/><path d="m23.894531 84.609375c-1.5625 1.632813-3.246093 3.109375-4.714843 4.828125 6.074218 2.234375 13.082031 2.449219 19.488281 2.550781 10.019531-.03516 20.152343-.523437 30.03125-2.234375 3.128906-.46875 5.746093-1.980468 8.707031-2.929687-.460938 1.238281-.621094 2.3125-1.917969 2.933593-3.429687 1.859376-7.582031 2.582032-11.363281 3.398438-12.726562 2.261719-25.957031 2.929688-38.792969 1.210938-4.972656-.683594-10.480469-1.003907-14.84375-3.597657.503907-.875.777344-1.746093 1.652344-2.335937 2.347656-1.601563 5.058594-2.738282 7.746094-3.621094 1.347656-.488281 2.621093-.410156 4.007812-.203125zm0 0" fill="#2e6bb8"/><path d="m80.90625 93.144531c-1.511719 2.828125-6.011719 3.738281-8.886719 4.394531-10.339843 1.601563-20.898437 2.226563-31.351562 2.277344-3.480469-.121094-7.640625.160156-10.835938-1.355468 4.839844-1.40625 10.46875-1.132813 15.5-1.292969 7.367188-.113281 14.753907-.539063 22.054688-1.5625 4.671875-.621094 8.738281-2.496094 13.519531-2.460938zm0 0" fill="#2e6bb8"/></g></svg>