<svg height="200" viewBox="0 0 200 200" width="200" xmlns="http://www.w3.org/2000/svg"><path d="m0 0h93.007812c-21.714843 1.773438-42.582031 10.308594-58.53125 25.273438-7.160156 5.550781-12.683593 13.410156-17.078124 21.25-4.589844 8.308593-7.65625 17.492187-9.183594 26.851562-.488282 5.324219-1.421875 10.425781-1.082032 15.800781.691407 8.816407 1.910157 17.289063 5.117188 25.589844 9.074219 25.742187 31.601562 46.066406 58.140625 52.449219 15.816406 4.117187 32.632813 3.109375 48.035156-2.207032 3.03125-1.191406 6.015625-2.457031 9.109375-3.507812 12.507813 12.492188 25.03125 24.964844 37.507813 37.492188 6.5-6.109376 12.546875-12.683594 19.058593-18.785157-3.125-5.023437-8.601562-8.53125-12.394531-13.105469-1.324219-1.578124-2.789062-3.058593-4-4.71875-.105469-1.257812.96875-2.089843 1.667969-3.007812 10.058594-10.910156 17.425781-24.300781 21.398438-38.582031 2-6.984375 3.308593-14.34375 3.175781-21.625-.066407-6.976563.402343-13.375-1.097657-20.175781-3.011718-17.867188-11.367187-34.859376-23.683593-48.152344-12.402344-13.539063-28.894531-23.523438-46.742188-27.914063-4.765625-1.21875-9.777343-1.96875-14.640625-2.710937l-1.644531-.214844h93.859375v200h-200zm0 0" fill="#fff"/><path d="m93.007812 0h13.132813l1.644531.214844c4.863282.742187 9.875 1.492187 14.640625 2.710937 17.847657 4.390625 34.339844 14.375 46.742188 27.914063 12.316406 13.292968 20.671875 30.285156 23.683593 48.152344 1.5 6.800781 1.03125 13.199218 1.097657 20.175781.132812 7.28125-1.175781 14.640625-3.175781 21.625-3.972657 14.28125-11.339844 27.671875-21.398438 38.582031-.699219.917969-1.773438 1.75-1.667969 3.007812 1.210938 1.660157 2.675781 3.140626 4 4.71875-4.117187-2.792968-7.097656-6.328124-10.722656-9.75-3.976563-3.75-7.585937-7.941406-11.785156-11.441406-3.382813 2.730469-6.484375 5.738282-10.089844 8.179688-3.785156 2.585937-7.71875 4.953125-11.574219 7.410156-3.09375 1.050781-6.078125 2.316406-9.109375 3.507812-15.402343 5.316407-32.21875 6.324219-48.035156 2.207032-26.539063-6.382813-49.066406-26.707032-58.140625-52.449219-3.207031-8.300781-4.425781-16.773437-5.117188-25.589844-.339843-5.375.59375-10.476562 1.082032-15.800781 1.527344-9.359375 4.59375-18.542969 9.183594-26.851562 4.394531-7.839844 9.917968-15.699219 17.078124-21.25 15.949219-14.964844 36.816407-23.5 58.53125-25.273438zm0 0" fill="#9cc5e5"/><path d="m144.214844 39.933594c20.175781 16.167968 30.292968 44.007812 24.785156 69.316406-2.558594 13.324219-9.375 26.324219-18.964844 35.933594-2.183594-1.5-4.035156-3.300782-5.84375-5.21875-3.851562-3.824219-7.617187-7.730469-11.550781-11.464844-3 2.832031-6.050781 5.558594-9.53125 7.773438-10.066406 6.75-21.910156 9.734374-33.949219 9.800781-10.71875-.515625-21.175781-3.539063-30.261718-9.316407-13.273438-8.117187-22.78125-21.691406-26.273438-36.824218-1.910156-6.648438-1.550781-13.082032-1.308594-19.957032 1.285156-10.527343 5.265625-20.894531 11.675782-29.367187 9.074218-10.917969 20.964843-19.292969 34.609374-23.425781 22.332032-7.507813 48.558594-2.308594 66.613282 12.75zm0 0" fill="#549ecf"/><path d="m140.332031 68.851562c6.394531 9.816407 8.675781 22.28125 6.585938 33.765626-1.667969 9.441406-6.300781 17.957031-12.785157 24.957031-2.050781-1.339844-3.75-2.847657-5.398437-4.640625-3.816406-4.066406-7.992187-7.75-11.632813-11.957032 3.597657-5.011718 6.039063-10.527343 5.773438-16.816406-.566406-7.21875-4.117188-14.417968-10.292969-18.433594-4.839843-3.46875-10.867187-4.867187-16.757812-4.078124-4.683594.558593-9.183594 2.84375-12.824219 5.777343-.640625 1.050781.648438 1.742188 1.183594 2.523438 10.558594 10.59375 21.234375 21.074219 31.675781 31.777343-6.660156 6.53125-15.71875 10.238282-25.027344 10.421876-13.265625.085937-25.847656-7.632813-31.972656-19.355469-3.21875-6.652344-4.925781-14.625-3.507813-21.953125 1.03125-7.179688 4.449219-14.089844 9.625-19.171875 2.566407-2.566407 4.921876-5.078125 8.058594-6.960938 5.199219-3.015625 10.480469-5.632812 16.40625-6.890625 18.984375-4.75 40.859375 4.167969 50.890625 21.035156zm0 0" fill="#9cc5e5"/><path d="m149.199219 145.910156c4.199219 3.5 7.808593 7.691406 11.785156 11.441406 3.625 3.421876 6.605469 6.957032 10.722656 9.75 3.792969 4.574219 9.269531 8.082032 12.394531 13.105469-6.511718 6.101563-12.558593 12.675781-19.058593 18.785157-12.476563-12.527344-25-25-37.507813-37.492188 3.855469-2.457031 7.789063-4.824219 11.574219-7.410156 3.605469-2.441406 6.707031-5.449219 10.089844-8.179688zm0 0" fill="#549ecf"/></svg>