<svg height="200" viewBox="0 0 200 200" width="200" xmlns="http://www.w3.org/2000/svg" xmlns:xlink="http://www.w3.org/1999/xlink"><linearGradient id="a" gradientTransform="matrix(0 2.666667 -2.666667 0 -138.666667 269.333333)" gradientUnits="userSpaceOnUse" x1="-10.47" x2="-116.529999" y1="-36.470001" y2="-142.529999"><stop offset="0" stop-color="#1b660f"/><stop offset="1" stop-color="#6cae3e"/></linearGradient><path d="m0 0h200v200h-200z" fill="url(#a)"/><g fill="#fff"><path d="m61.332031 123.441406h-.371093c-13.179688-.0625-24.480469-9.429687-26.992188-22.367187-2.507812-12.9375 4.46875-25.847657 16.671875-30.835938.742187-16.289062 12.4375-30.003906 28.402344-33.3125 15.96875-3.308593 32.148437 4.632813 39.304687 19.289063 5.339844-3.28125 12.003906-3.53125 17.578125-.664063 5.570313 2.867188 9.238281 8.4375 9.675781 14.6875 12.242188 2.28125 21.109376 12.988281 21.066407 25.441407.046875 6.925781-2.863281 13.542968-8 18.1875l-3.65625-3.894532c4.035156-3.609375 6.332031-8.773437 6.320312-14.1875.074219-10.667968-8.039062-19.617187-18.664062-20.585937-1.433594-.125-2.503907-1.363281-2.429688-2.800781v-.398438c.015625-.175781.015625-.355469 0-.535156.015625-6.984375-5.625-12.664063-12.613281-12.691406-3.242188 0-6.363281 1.261718-8.691406 3.519531-.648438.632812-1.570313.894531-2.453125.695312-.835938-.226562-1.515625-.84375-1.8125-1.65625-5.121094-13.808593-19.40625-21.957031-33.898438-19.328125-14.492187 2.625-25.011719 15.269532-24.957031 29.996094.003906 1.144531-.726562 2.167969-1.8125 2.535156-10.375 3.417969-16.746094 13.851563-15.046875 24.644532 1.703125 10.792968 10.976563 18.761718 21.898437 18.820312h.480469zm0 0"/><path d="m141.039062 109.492188c-3.160156-9.253907-10.332031-16.585938-19.519531-19.945313-.492187-5.871094-5.402343-10.382813-11.292969-10.382813-5.890624 0-10.796874 4.511719-11.292968 10.382813-9.175782 3.375-16.34375 10.699219-19.519532 19.945313-6.050781.40625-10.703124 5.515624-10.546874 11.574218.15625 6.0625 5.070312 10.921875 11.132812 11.011719 3.195312 8.074219 9.457031 14.554687 17.414062 18.027344v13.707031h5.332032v-11.8125c1.75.4375 3.535156.714844 5.332031.828125v11.117187h5.335937v-11.304687c1.804688-.175781 3.589844-.515625 5.332032-1.015625v12.1875h5.332031v-14.105469c7.574219-3.539062 13.5-9.847656 16.5625-17.628906 6.050781-.132813 10.921875-5.011719 11.050781-11.0625s-4.53125-11.128906-10.570312-11.523437zm-60.664062 17.28125c-3.316406 0-6-2.6875-6-6s2.683594-6 6-6c3.3125 0 6 2.6875 6 6s-2.6875 6-6 6zm16.957031 17.414062c-5.332031-2.957031-9.550781-7.585938-12-13.175781 3-1.398438 5.226563-4.054688 6.082031-7.25h5.917969zm10.667969 3.171875c-1.804688-.152344-3.59375-.484375-5.332031-.984375v-25.253906c0-1.472656-1.195313-2.667969-2.667969-2.667969h-8.535156c-.789063-3.601563-3.289063-6.585937-6.691406-8 2.675781-7 8.128906-12.582031 15.066406-15.414063 1.472656 3.402344 4.523437 5.867188 8.160156 6.585938zm2.238281-50.933594c-3.3125 0-6-2.683593-6-6 0-3.3125 2.6875-6 6-6 3.316407 0 6 2.6875 6 6 0 3.316407-2.683593 6-6 6zm11.175781 22.054688c-1.472656 0-2.667968 1.195312-2.667968 2.667969v24.957031c-1.734375.5625-3.523438.953125-5.332032 1.175781v-45.949219c3.265626-.910156 5.941407-3.253906 7.277344-6.371093 6.949219 2.820312 12.40625 8.402343 15.070313 15.414062-3.398438 1.417969-5.898438 4.402344-6.695313 8zm2.664063 25.226562v-19.894531h5.175781c.882813 3.179688 3.117188 5.808594 6.105469 7.199219-2.367187 5.316406-6.339844 9.753906-11.359375 12.695312zm16-16.933593c-3.3125 0-6-2.6875-6-6s2.6875-6 6-6c3.316406 0 6 2.6875 6 6-.011719 3.296874-2.675781 5.972656-5.972656 6zm0 0"/></g></svg>