<svg height="200" viewBox="0 0 200 200" width="200" xmlns="http://www.w3.org/2000/svg"><path d="m180.960938 100c0 44.714844-36.246094 80.960938-80.960938 80.960938-44.710938 0-80.960938-36.246094-80.960938-80.960938 0-44.710938 36.25-80.960938 80.960938-80.960938 44.714844 0 80.960938 36.25 80.960938 80.960938" fill="#1a1918"/><path d="m101.363281 68.496094 20.949219 51.710937-31.644531-24.929687zm37.21875 63.621094-32.226562-77.554688c-.921875-2.238281-2.761719-3.421875-4.992188-3.421875-2.238281 0-4.210937 1.183594-5.128906 3.421875l-35.371094 85.070312h12.097657l14.003906-35.074218 41.785156 33.753906c1.679688 1.359375 2.890625 1.976562 4.46875 1.976562 3.15625 0 5.914062-2.367187 5.914062-5.785156 0-.554687-.195312-1.4375-.550781-2.386718zm0 0" fill="#fff"/></svg>