<svg height="200" viewBox="0 0 200 200" width="200" xmlns="http://www.w3.org/2000/svg"><path d="m105.320312 107.117188c-.765624-.511719-3.070312-.511719-5.371093-.78125-2.296875-.246094-3.320313-.757813-1.53125-1.773438 1.792969-1.027344 5.113281-6.898438 5.113281-6.898438 0 1.527344 0 3.820313 1.023438 4.601563 1.015624.753906 2.8125.753906 2.8125 2.035156 0 1.277344-1.28125 3.316407-2.046876 2.816407zm77.933594-22.753907c-1.535156-1.53125-4.089844-4.847656-5.625-6.378906-1.535156-1.527344-3.570312-1.796875-7.410156-2.558594-2.042969-3.070312-5.625-2.046875-6.902344 0-1.53125 0-7.667968 2.300781-10.226562 4.347657-2.550782 2.042968-13.277344 2.042968-17.367188 0-4.089844-2.046876-8.175781-9.199219-14.820312-12.777344-6.644532-3.582032-16.359375-.511719-16.359375-.511719-8.941407-1.792969-24.261719 13.289063-30.652344 18.644531-6.390625 5.371094-12.261719 7.667969-17.886719 9.460938-5.617187 1.800781-25.808594 5.109375-33.472656 5.867187-7.660156.78125-13.796875 6.914063-14.820312 8.441407-1.023438 1.542968 3.574218 5.621093 5.628906 4.351562 2.035156-1.277344 8.683594-4.855469 12.253906-6.398438 3.589844-1.53125 17.382812-3.316406 22.746094-3.832031 5.363281-.515625 21.464844-5.355469 22.488281-6.125 1.019531-.769531 3.0625-2.816406 3.582031 0 .503906 2.804688 3.832032 6.640625 7.144532 5.882813 3.324218-.777344 2.554687.757812 1.535156 3.058594-1.015625 2.292968.511718 6.378906 4.089844 6.378906 3.582031 0 11.753906 1.28125 13.285156 1.28125 1.539062 0 1.019531 1.023437-1.789063 2.046875-2.816406 1.023437-3.828125 2.308593-.511719 3.574219 3.320313 1.28125 8.695313 1.28125 10.726563-.25 2.050781-1.539063 1.539063-4.347657 2.570313-5.882813 1.007812-1.53125 2.035156 2.046875.757812 4.34375-1.277344 2.308594-2.554688 6.140625-4.851562 6.140625-2.304688 0-7.671876 2.296875-9.714844 3.320312-2.046875 1.023438-4.601563 4.589844-1.53125 5.621094 3.0625 1.015625 5.109375.515625 6.898437-1.277344 1.796875-1.789062 6.386719-.769531 9.960938-2.300781 3.585937-1.542969 4.871093-4.085937 5.113281-5.363281.257812-1.289062 1.785156-1.289062 1.785156-1.535156.265625 2.566406 1.539063 1.535156 4.601563 3.328125 3.066406 1.785156 7.160156 1.527343 9.195312-.515625 2.046875-2.046875 0-3.0625-2.542969-3.835938-2.558593-.773437-4.867187-1.53125-6.910156-2.558594-2.035156-1.023437 1.285156-2.046874 3.839844-2.554687 2.550781-.511719 10.730469-1.527344 12.511719-3.582031 1.808593-2.039063 7.933593-6.894532 10.488281-8.164063 5.355469-1.785156 8.679688-3.839843 12.515625-6.386719 3.828125-2.5625 7.148437-2.054687 8.433594-1.792968 1.273437.253906 5.363281 2.550781 7.152343 2.550781 1.785157 0 4.605469-1.015625 4.851563-3.570313.257813-2.554687 1.542969-3.839843 2.554687-5.371093 1.023438-1.535157-1.789062-3.578125-3.316406-5.117188" fill="#e0067f"/><path d="m109.660156 107.117188c-.761718-.511719-3.070312-.511719-5.367187-.78125-2.300781-.246094-3.320313-.757813-1.53125-1.773438 1.789062-1.027344 5.109375-6.898438 5.109375-6.898438 0 1.527344 0 3.820313 1.027344 4.601563 1.015624.753906 2.808593.753906 2.808593 2.035156 0 1.277344-1.28125 3.316407-2.046875 2.816407zm77.933594-22.753907c-1.535156-1.53125-4.089844-4.847656-5.625-6.378906-1.535156-1.527344-3.570312-1.796875-7.410156-2.558594-2.042969-3.070312-5.621094-2.046875-6.902344 0-1.53125 0-7.667969 2.300781-10.222656 4.347657-2.550782 2.042968-13.28125 2.042968-17.371094 0-4.085938-2.046876-8.171875-9.199219-14.816406-12.777344-6.648438-3.582032-16.359375-.511719-16.359375-.511719-8.945313-1.792969-24.265625 13.289063-30.652344 18.644531-6.390625 5.371094-12.265625 7.667969-17.890625 9.460938-5.613281 1.800781-25.804688 5.109375-33.472656 5.867187-7.660156.78125-13.796875 6.914063-14.820313 8.441407-1.023437 1.542968 3.578125 5.621093 5.628907 4.351562 2.039062-1.277344 8.683593-4.855469 12.253906-6.398438 3.589844-1.53125 17.382812-3.316406 22.75-3.832031 5.359375-.515625 21.464844-5.355469 22.484375-6.125s3.066406-2.816406 3.582031 0c.503906 2.804688 3.832031 6.640625 7.144531 5.882813 3.328125-.777344 2.554688.757812 1.535157 3.058594-1.015626 2.292968.515624 6.378906 4.09375 6.378906 3.578124 0 11.753906 1.28125 13.28125 1.28125 1.539062 0 1.019531 1.023437-1.785157 2.046875-2.816406 1.023437-3.828125 2.308593-.511719 3.574219 3.316407 1.28125 8.691407 1.28125 10.726563-.25 2.046875-1.539063 1.539063-4.347657 2.566406-5.882813 1.011719-1.53125 2.039063 2.046875.757813 4.34375-1.277344 2.308594-2.554688 6.140625-4.851563 6.140625-2.300781 0-7.671875 2.296875-9.714843 3.320312-2.046876 1.023438-4.597657 4.589844-1.527344 5.621094 3.0625 1.015625 5.109375.515625 6.898437-1.277344 1.792969-1.789062 6.382813-.769531 9.960938-2.300781 3.582031-1.542969 4.867187-4.085937 5.113281-5.363281.257812-1.289062 1.78125-1.289062 1.78125-1.535156.265625 2.566406 1.539062 1.535156 4.601562 3.328125 3.070313 1.785156 7.164063 1.527343 9.199219-.515625 2.042969-2.046875 0-3.0625-2.546875-3.835938-2.558594-.773437-4.863281-1.53125-6.90625-2.558594-2.039062-1.023437 1.28125-2.046874 3.839844-2.554687 2.546875-.511719 10.726562-1.527344 12.507812-3.582031 1.808594-2.039063 7.9375-6.894532 10.492188-8.164063 5.351562-1.785156 8.679688-3.839843 12.511719-6.386719 3.832031-2.5625 7.152343-2.054687 8.433593-1.792968 1.273438.253906 5.363282 2.550781 7.152344 2.550781 1.785156 0 4.605469-1.015625 4.851563-3.570313.257812-2.554687 1.542969-3.839843 2.558593-5.371093 1.019532-1.535157-1.789062-3.578125-3.320312-5.117188" fill="#f4f014"/><path d="m107.695312 107.117188c-.761718-.511719-3.070312-.511719-5.367187-.78125-2.300781-.246094-3.320313-.757813-1.535156-1.773438 1.792969-1.027344 5.113281-6.898438 5.113281-6.898438 0 1.527344 0 3.820313 1.027344 4.601563 1.015625.753906 2.808594.753906 2.808594 2.035156 0 1.277344-1.28125 3.316407-2.046876 2.816407zm77.933594-22.753907c-1.535156-1.53125-4.089844-4.847656-5.625-6.378906-1.535156-1.527344-3.570312-1.796875-7.410156-2.558594-2.042969-3.070312-5.621094-2.046875-6.902344 0-1.53125 0-7.667968 2.300781-10.222656 4.347657-2.550781 2.042968-13.28125 2.042968-17.371094 0-4.089844-2.046876-8.175781-9.199219-14.816406-12.777344-6.648438-3.582032-16.359375-.511719-16.359375-.511719-8.945313-1.792969-24.265625 13.289063-30.652344 18.644531-6.390625 5.371094-12.265625 7.667969-17.890625 9.460938-5.613281 1.800781-25.804687 5.109375-33.472656 5.867187-7.660156.78125-13.796875 6.914063-14.820312 8.441407-1.023438 1.542968 3.578124 5.621093 5.628906 4.351562 2.035156-1.277344 8.683594-4.855469 12.253906-6.398438 3.589844-1.53125 17.382812-3.316406 22.75-3.832031 5.359375-.515625 21.464844-5.355469 22.484375-6.125s3.066406-2.816406 3.582031 0c.503906 2.804688 3.832032 6.640625 7.144532 5.882813 3.324218-.777344 2.554687.757812 1.535156 3.058594-1.015625 2.292968.515625 6.378906 4.09375 6.378906s11.75 1.28125 13.28125 1.28125c1.539062 0 1.019531 1.023437-1.789063 2.046875-2.8125 1.023437-3.828125 2.308593-.507812 3.574219 3.316406 1.28125 8.691406 1.28125 10.726562-.25 2.046875-1.539063 1.535157-4.347657 2.566407-5.882813 1.011718-1.53125 2.039062 2.046875.757812 4.34375-1.277344 2.308594-2.554688 6.140625-4.851562 6.140625-2.300782 0-7.671876 2.296875-9.714844 3.320312-2.046875 1.023438-4.597656 4.589844-1.527344 5.621094 3.058594 1.015625 5.105469.515625 6.898438-1.277344 1.792968-1.789062 6.382812-.769531 9.957031-2.300781 3.585937-1.542969 4.871093-4.085937 5.113281-5.363281.261719-1.289062 1.785156-1.289062 1.785156-1.535156.265625 2.566406 1.539063 1.535156 4.601563 3.328125 3.066406 1.785156 7.164062 1.527343 9.195312-.515625 2.046875-2.046875 0-3.0625-2.542969-3.835938-2.558593-.773437-4.863281-1.53125-6.910156-2.558594-2.035156-1.023437 1.285156-2.046874 3.84375-2.554687 2.546875-.511719 10.726563-1.527344 12.507813-3.582031 1.808593-2.039063 7.9375-6.894532 10.488281-8.164063 5.355469-1.785156 8.683594-3.839843 12.515625-6.386719 3.832031-2.5625 7.152344-2.054687 8.433594-1.792968 1.273437.253906 5.363281 2.550781 7.152343 2.550781 1.785157 0 4.605469-1.015625 4.851563-3.570313.257813-2.554687 1.542969-3.839843 2.554687-5.371093 1.023438-1.535157-1.785156-3.578125-3.316406-5.117188" fill="#312f34"/></svg>