<svg height="198" viewBox="0 0 200 198" width="200" xmlns="http://www.w3.org/2000/svg"><path d="m98.265625 1.441406c-54.269531 0-98.265625 43.933594-98.265625 98.132813 0 54.199221 43.996094 98.136721 98.265625 98.136721 54.269535 0 98.265625-43.9375 98.265625-98.136721 0-54.199219-43.99609-98.132813-98.265625-98.132813zm0 183.667964c-15.4375 0-27.957031-10.30078-27.957031-23.0039h55.917966c0 12.70312-12.51953 23.0039-27.960935 23.0039zm46.179685-30.62109h-92.363279v-16.72656h92.367189v16.72656zm-.33203-25.33594h-91.765624c-.308594-.35156-.621094-.69922-.914062-1.05468-9.453125-11.46485-11.679688-17.44922-13.84375-23.55078-.03516-.19922 11.464844 2.34765 19.621094 4.17968 0 0 4.195312.97266 10.332031 2.08985-5.890625-6.89844-9.390625-15.664066-9.390625-24.625004 0-19.671875 15.109375-36.863281 9.660156-50.757812 5.304688.433594 10.976562 11.183594 11.359375 27.988281 5.640625-7.78125 8-21.996094 8-30.710937 0-9.019532 5.953125-19.503907 11.90625-19.859376-5.304687 8.734376 1.378905 16.226563 7.316405 34.808594 2.23047 6.976563 1.94531 18.722656 3.66406 26.171875.57422-15.472656 3.23438-38.042969 13.0625-45.835937-4.33593 9.8125.64063 22.09375 4.04688 27.996094 5.49219 9.527343 8.82031 16.742187 8.82031 30.390624 0 9.152344-3.38281 17.769528-9.08984 24.503908 6.48828-1.21875 10.96875-2.3125 10.96875-2.3125l21.07422-4.10547c0-.004-3.0625 12.57422-14.82813 24.68359zm0 0" fill="#e6512b" transform="matrix(.92315881 0 0 .92315881 7.550848 7.651551)"/></svg>